<?xml version="1.0" standalone="no"?>
  <!DOCTYPE svg PUBLIC "-//W3C//DTD SVG 1.1//EN" "http://www.w3.org/Graphics/SVG/1.1/DTD/svg11.dtd" >
  <svg>
  <metadata>
  Created by font-carrier
  </metadata>
  <defs>
  <font id="Doppelganger-Display" horiz-adv-x="1520" vert-adv-y="1520" >
    <font-face
      
      font-family="Display"
      
      font-weight="400"
      
      font-stretch="normal"
      
      units-per-em="1000"
      
      ascent="687"
      
      descent="-311"
      
    />
      <missing-glyph />

      

      
      <glyph glyph-name="uni41" unicode="&#x41;" d="M0 0L85 0L85 8C67 8 54 26 60 44L158 325C160 331 165 334 171 333C211 327 242 293 243 252C244 208 272 169 314 160C358 150 397 172 416 206C420 214 431 214 434 205L496 25C499 17 493 8 484 8L484 0L569 0L569 8C557 8 546 16 542 27L323 662L336 662L336 670L237 670L207 586C224 586 236 569 230 553L52 45C44 23 23 8 0 8ZM169 355L269 640C271 648 282 648 284 640L417 254C418 251 419 247 419 244C416 200 379 165 334 165C287 165 250 200 250 249C250 294 219 331 177 340C170 341 166 348 169 355Z"  horiz-adv-x="569" vert-adv-y="1000"  />

      
      <glyph glyph-name="uni79" unicode="&#x79;" d="M-85-230C-80-268-54-294-20-307C-9-310 2-311 13-311C56-309 99-311 141-311C174-311 209-290 221-259C228-242 227-226 227-226L220-226C220-270 184-303 141-303C99-303 56-304 13-302C-7-302-27-294-40-279C-54-265-61-246-61-228C-61-200-44-178-21-165C-11-161-1-159 9-159L65-160C119-160 155-127 169-77L189-16L311 332C319 354 339 369 363 369L363 376L278 376L278 369C293 369 305 356 305 342C305 339 304 336 303 333L197 32C195 25 184 25 182 32L72 351C69 360 76 369 85 369L85 376L0 376L0 369C14 369 22 363 27 350L143 10L145 2C165 2 179-18 172-36L158-73C156-78 154-82 152-87C148-94 146-95 143-99C137-106 128-111 120-114C111-118 102-119 93-120L3-120C-24-120-52-138-67-159C-82-179-89-206-85-230Z"  horiz-adv-x="364" vert-adv-y="1000"  />

      
      <glyph glyph-name="uni42" unicode="&#x42;" d="M528 0C632 0 718 84 720 188C721 238 702 286 665 323C636 354 596 374 555 380C542 382 535 395 540 407C549 430 554 454 554 479C554 584 468 670 363 670L17 670L17 662C33 662 46 649 46 633L46 37C46 21 33 8 17 8L17 0ZM274 288L363 288C424 288 479 317 514 362C520 371 530 375 541 374C556 374 575 369 587 361C636 331 669 267 669 191C669 114 634 48 583 19C568 9 546 8 528 8L118 8C103 8 90 20 90 35L90 104C90 206 173 288 274 288ZM118 662L363 663C371 663 379 662 388 661C400 659 413 655 423 648C472 618 505 554 505 479C505 393 460 295 363 295L274 295C205 295 145 259 111 204C105 195 90 199 90 210L90 635C90 650 103 662 118 662Z"  horiz-adv-x="728" vert-adv-y="1000"  />

      
      <glyph glyph-name="uni43" unicode="&#x43;" d="M29 302C44 134 180-2 348-17C458-26 559 15 629 85C693 149 733 237 733 334L733 342L671 342L671 334C688 334 704 320 704 303L704 302C709 218 682 152 629 96C626 92 622 89 619 86C563 33 486 6 403 12C225 24 70 179 58 357C52 438 77 512 127 568L137 578C189 630 259 658 336 658L346 658C363 657 376 643 376 626L384 626L384 687L376 687C281 686 194 646 131 583C61 513 20 412 29 302Z"  horiz-adv-x="761" vert-adv-y="1000"  />

      
      <glyph glyph-name="uni44" unicode="&#x44;" d="M102 0L407 0C584 8 727 157 727 335C727 513 584 662 407 670L17 670L17 662C33 662 46 649 46 633L46 37C46 21 33 8 17 8L17 0ZM90 37L90 633C90 649 103 662 119 662L399 662C552 658 677 511 677 335C677 160 553 13 401 8L119 8C103 8 90 21 90 37Z"  horiz-adv-x="755" vert-adv-y="1000"  />

      
      <glyph glyph-name="uni45" unicode="&#x45;" d="M371 0L371 36L363 36L363 35C363 20 351 8 336 8L120 8C103 8 91 21 91 37L91 250C91 271 108 289 129 289L234 289C256 289 273 271 273 250L281 250L281 335L273 335C273 314 256 296 234 296L129 296C108 296 91 314 91 335L91 633C91 649 103 662 120 662L336 662C351 662 363 650 363 635L371 635L371 670L17 670L17 662C25 662 32 659 37 654C43 649 46 641 46 633L46 37C46 21 33 8 17 8L17 0Z"  horiz-adv-x="379" vert-adv-y="1000"  />

      
      <glyph glyph-name="uni46" unicode="&#x46;" d="M17 670L17 662C25 662 32 659 37 654C43 649 46 641 46 633L46 37C46 21 33 8 17 8L17 0L118 0L118 8C103 8 91 20 91 35L91 250C91 272 108 289 129 289L235 289C257 289 274 271 274 250L282 250L282 335L274 335C274 314 256 296 235 296L129 296C108 296 91 313 91 334L91 633C91 649 103 662 120 662L337 662C353 662 365 650 365 635L373 635L373 670Z"  horiz-adv-x="381" vert-adv-y="1000"  />

      
      <glyph glyph-name="uni47" unicode="&#x47;" d="M30 334C30 140 189-18 383-18C567-18 710 119 733 297C736 320 737 345 728 367C715 401 679 425 643 424C606 424 571 399 559 364C555 351 553 337 551 323C549 309 545 295 537 283C529 272 515 263 501 265C486 266 473 281 474 296L466 296L466 195L474 195C475 212 480 230 493 241C501 248 511 252 520 258C538 269 552 288 557 308C560 323 560 338 564 353C572 385 600 410 632 415C664 420 699 404 715 376C727 356 728 333 726 311C719 159 605 23 451 12C436 10 420 10 405 11C227 23 72 178 60 356L60 363C56 442 81 514 129 568C133 571 136 575 140 578C191 630 261 657 338 657L352 657L357 656C373 655 385 641 385 625L393 625L393 686L382 686C188 686 30 528 30 334Z"  horiz-adv-x="761" vert-adv-y="1000"  />

      
      <glyph glyph-name="uni48" unicode="&#x48;" d="M46 633L46 37C46 21 33 8 17 8L17 0L118 0L118 8C102 8 91 19 91 35L91 266C91 278 100 287 112 287L277 287C289 287 299 278 299 266L299 37C299 21 286 8 270 8L270 0L370 0L370 8C363 8 356 11 351 16C346 20 343 27 343 35L343 633C343 649 355 661 370 662L370 670L270 670L270 662C286 662 299 649 299 633L299 317C299 305 289 295 277 295L112 295C100 295 91 305 91 317L91 633C91 649 102 661 118 662L118 670L17 670L17 662C33 662 46 649 46 633Z"  horiz-adv-x="387" vert-adv-y="1000"  />

      
      <glyph glyph-name="uni49" unicode="&#x49;" d="M8 662C16 662 23 659 28 654C34 649 37 641 37 633L37 37C37 21 24 8 8 8L8 0L109 0L109 8C93 8 82 19 82 35L82 633C82 649 93 661 109 662L109 670L8 670Z"  horiz-adv-x="126" vert-adv-y="1000"  />

      
      <glyph glyph-name="uni4a" unicode="&#x4a;" d="M0 178L0 170C15 170 27 159 29 145C47 54 124-16 218-16C227-16 236-16 245-14C338-1 409 80 409 176L410 642C410 653 419 663 430 663L467 663C479 663 488 653 488 642L488 634L496 634L496 670L167 670L167 634L175 634L175 642C175 653 184 663 196 663L337 663C349 663 358 653 358 642L358 175C358 85 308 9 243-6C236-7 229-8 221-8C211-8 201-8 192-6C134 8 89 69 79 146C78 159 88 170 100 170L100 178Z"  horiz-adv-x="513" vert-adv-y="1000"  />

      
      <glyph glyph-name="uni4b" unicode="&#x4b;" d="M17 8L17 0L118 0L118 8C110 8 103 11 99 16C94 21 91 27 91 35L91 285C91 311 111 332 137 332L202 332C364 332 497 214 524 56C529 31 509 8 483 8L483 0L584 0L584 8C559 8 537 26 533 51C513 187 409 302 274 332C323 333 363 373 363 423L363 596C363 635 389 668 425 678C427 679 434 680 440 680L446 680C469 680 490 670 505 655C524 636 510 604 483 604L483 596L584 596L584 604C560 604 538 617 527 638C512 667 481 687 446 687L403 687C353 687 312 647 312 596L312 423C312 377 275 339 229 339L137 339C111 339 91 360 91 386L91 634C91 650 103 662 118 663L118 671L17 671L17 663C25 663 32 660 38 655C43 650 46 642 46 634L46 37C46 21 33 8 17 8Z"  horiz-adv-x="584" vert-adv-y="1000"  />

      
      <glyph glyph-name="uni4c" unicode="&#x4c;" d="M371 0L371 36L363 36L363 35C363 20 351 8 335 8L119 8C103 8 90 21 90 37L90 633C90 649 103 662 119 662L119 670L17 670L17 662C25 662 32 659 37 653C43 648 46 641 46 633L46 37C46 21 33 8 17 8L17 0Z"  horiz-adv-x="371" vert-adv-y="1000"  />

      
      <glyph glyph-name="uni4d" unicode="&#x4d;" d="M0 8L0 0L67 0L67 8C52 8 41 22 45 36L208 631C211 640 223 640 225 631L389 22C391 15 386 8 378 8L378 0L445 0L445 8C436 8 427 14 425 23L368 234C366 244 366 254 368 264L469 631C471 640 484 640 486 631L650 22C652 15 647 8 640 8L640 0L706 0L706 8C697 8 689 14 686 23L514 662L524 662L524 670L447 670L423 586C437 586 447 573 443 560L369 289C367 281 356 281 354 289L253 662L263 662L263 670L185 670L162 586C176 586 185 573 182 560L39 37C34 20 18 8 0 8Z"  horiz-adv-x="706" vert-adv-y="1000"  />

      
      <glyph glyph-name="uni4e" unicode="&#x4e;" d="M17 8L17 0L118 0L118 8C92 8 71 29 71 54L71 609C71 616 81 617 83 611L277 0L371 0L371 8C345 8 324 29 324 54L324 616C324 642 345 662 371 662L371 670L270 670L270 662C295 662 316 642 316 616L316 61C316 55 307 53 305 59L110 670L17 670L17 662C43 662 64 642 64 616L64 54C64 29 43 8 17 8Z"  horiz-adv-x="388" vert-adv-y="1000"  />

      
      <glyph glyph-name="uni4f" unicode="&#x4f;" d="M131 85C200 16 290-19 381-19C471-19 561 16 630 85C768 223 768 446 630 584C561 653 471 688 381 688C290 688 200 653 131 584C-8 446-8 223 131 85ZM137 578C191 632 262 658 337 658C426 658 520 620 593 547C727 413 741 208 624 91C571 37 499 11 425 11C335 11 241 49 168 122C33 257 19 460 137 578Z"  horiz-adv-x="761" vert-adv-y="1000"  />

      
      <glyph glyph-name="uni50" unicode="&#x50;" d="M8 670L8 662C16 662 23 659 28 654C34 649 37 641 37 633L37 37C37 21 24 8 8 8L8 0L109 0L109 8C93 8 82 19 82 35L82 167C82 179 85 190 91 200C124 252 181 286 246 286L308 286C416 286 506 374 504 481C503 586 417 670 312 670ZM109 662L312 662C328 662 342 661 356 657C414 633 455 562 455 478C455 395 414 326 357 300C337 295 328 294 312 294L246 294C193 294 145 272 110 236C106 233 102 231 98 231C90 231 82 238 82 248L82 633C82 649 93 661 109 662Z"  horiz-adv-x="532" vert-adv-y="1000"  />

      
      <glyph glyph-name="uni51" unicode="&#x51;" d="M131 85C209 7 314-26 416-16L733-16L733-9C732 39 702 79 632 82C630 82 630 84 631 85C775 234 766 484 594 615C531 663 455 687 380 687C296 687 212 657 146 598C-6 462-11 227 131 85ZM137 579C190 632 262 658 336 658C426 658 520 621 593 547C725 415 735 210 624 91C621 87 614 86 609 88C580 101 559 130 559 164C559 210 596 248 642 248L642 255C592 255 551 215 551 164C551 132 568 104 593 88C602 82 602 70 594 65C545 29 486 11 424 11C335 11 241 49 168 122C33 257 19 461 137 579ZM516 9C546 21 575 38 602 60C613 69 627 74 642 74C682 74 716 44 724 6C725-2 720-9 712-9L519-9C509-9 507 5 516 9Z"  horiz-adv-x="761" vert-adv-y="1000"  />

      
      <glyph glyph-name="uni52" unicode="&#x52;" d="M37 654C43 649 46 641 46 633L46 37C46 21 33 8 17 8L17 0L118 0L118 8C102 8 91 19 91 35L91 167C91 179 94 190 100 200C133 252 190 286 255 286L317 286C336 286 355 289 372 294C376 295 379 296 382 296C520 294 637 192 663 57C668 31 648 8 622 8L622 0L723 0L723 8C698 8 676 26 672 51C650 180 549 282 419 301C412 301 411 310 416 313C475 347 515 410 513 481C512 586 426 670 321 670L17 670L17 662C25 662 32 659 37 654ZM118 662L321 662C337 662 351 661 365 657C423 633 464 562 464 478C464 399 427 331 375 303C361 296 337 294 321 294L255 294C202 294 154 272 119 236C115 233 111 231 107 231C99 231 91 238 91 248L91 633C91 649 102 661 118 662Z"  horiz-adv-x="723" vert-adv-y="1000"  />

      
      <glyph glyph-name="uni53" unicode="&#x53;" d="M24 439C38 380 80 327 136 303C149 297 162 292 175 286C188 281 201 275 213 270C218 268 222 266 226 265C255 253 288 243 312 222C323 212 333 200 340 188C353 166 359 140 358 115C358 73 331 33 296 12C271-4 240-12 210-11C133-5 72 59 72 136L65 136L65 3L72 3C72 18 85 29 98 29C104 29 110 27 115 22C144-5 184-20 223-20C239-20 255-18 270-13C289-13 331 20 343 34C363 56 376 83 380 112C384 142 380 173 368 202C366 207 363 211 361 216C346 242 324 263 298 277C276 289 252 298 229 308C204 319 178 329 152 340C106 358 67 398 51 447C43 469 40 493 42 516C48 602 123 669 207 675C229 677 252 675 273 669C342 648 394 594 409 523L416 524L416 661L409 661C409 640 393 627 375 627C367 627 358 630 351 636C326 658 295 673 261 680C243 684 225 685 207 684C118 681 40 614 22 527C16 498 17 468 24 439Z"  horiz-adv-x="432" vert-adv-y="1000"  />

      
      <glyph glyph-name="uni54" unicode="&#x54;" d="M0 670L0 634L8 634C8 650 20 662 36 662L126 662C143 662 155 650 155 633L155 37C155 21 142 8 126 8L126 0L227 0L227 8C219 8 213 11 208 16C203 20 200 27 200 35L200 633C200 649 212 661 227 662L317 662C333 662 345 650 345 634L353 634L353 670Z"  horiz-adv-x="353" vert-adv-y="1000"  />

      
      <glyph glyph-name="uni55" unicode="&#x55;" d="M15 670L15 663C23 663 30 660 35 654C40 649 44 642 44 634L44 197C44 80 138-17 256-17C373-17 468 79 468 197L468 622C468 645 487 663 509 663L509 670L409 670L409 663C438 663 461 640 461 611L461 197C461 83 369-9 256-9L246-9C156-5 88 72 88 161L88 634C88 649 99 662 114 663L114 670Z"  horiz-adv-x="524" vert-adv-y="1000"  />

      
      <glyph glyph-name="uni56" unicode="&#x56;" d="M17 657C21 654 25 649 27 643L245 8L232 8L232 0L332 0L335 8C318 8 306 24 312 40L517 625C524 648 545 662 569 662L569 670L484 670L484 662C499 662 511 650 511 635C511 633 510 630 509 627L300 30C298 23 287 23 285 30L135 464L135 465L104 553L73 645C70 654 76 662 85 662L85 670L0 670L0 662C6 662 12 660 17 657Z"  horiz-adv-x="569" vert-adv-y="1000"  />

      
      <glyph glyph-name="uni57" unicode="&#x57;" d="M0 662C9 662 18 656 20 647L187 25C190 16 183 8 174 8L174 0L260 0L262 8C248 8 239 21 242 33L337 381C340 389 351 389 353 381L449 25C451 16 444 8 435 8L435 0L521 0L523 8C509 8 500 21 503 33L524 111L539 162L667 633C672 650 688 662 706 662L706 670L640 670L640 662C652 662 662 652 662 640C662 638 662 636 661 634L498 39C496 30 483 30 481 39L317 648C315 655 321 662 328 662L328 670L261 670L261 662C271 662 279 656 281 647L338 436C341 427 341 416 338 406L237 39C235 30 223 30 220 39L56 648C54 655 59 662 67 662L67 670L0 670Z"  horiz-adv-x="706" vert-adv-y="1000"  />

      
      <glyph glyph-name="uni58" unicode="&#x58;" d="M0 8L0 0L85 0L85 8C70 8 58 20 58 35C58 38 59 41 60 44L160 330C163 337 173 337 176 330L280 25C283 17 277 8 268 8L268 0L353 0L353 8C347 8 341 10 337 13C332 16 328 21 326 27L195 408C193 415 193 423 195 430L269 640C273 653 286 662 300 662L323 662L323 670L237 670L234 662C251 662 262 646 257 630L194 449C192 443 183 443 181 449L108 662L121 662L121 670L35 670L35 662L38 662C52 662 64 654 68 640L160 375C162 368 162 360 160 353L52 45C44 23 23 8 0 8Z"  horiz-adv-x="353" vert-adv-y="1000"  />

      
      <glyph glyph-name="uni59" unicode="&#x59;" d="M17 657C21 654 25 649 27 643L135 328C138 320 139 312 139 304L139 37C139 21 126 8 110 8L110 0L211 0L211 8C203 8 197 11 192 16C187 20 184 27 184 35L184 285C184 293 185 302 188 310L299 625C306 648 327 662 351 662L351 670L266 670L266 662C281 662 292 650 292 635C292 633 292 630 291 627L192 345C190 338 179 338 176 346L104 553L73 645C70 654 76 662 85 662L85 670L0 670L0 662C6 662 12 660 17 657Z"  horiz-adv-x="351" vert-adv-y="1000"  />

      
      <glyph glyph-name="uni5a" unicode="&#x5a;" d="M15 8L15 0L368 0L368 36L360 36C360 20 348 8 332 8L109 8C100 8 92 17 96 25L179 244C180 247 182 252 183 254L331 640C336 654 349 662 363 662L368 662L368 670L15 670L15 634L23 634C23 650 35 662 51 662L273 662C280 662 285 655 282 649L45 27C43 21 39 16 33 13C28 10 22 8 15 8Z"  horiz-adv-x="383" vert-adv-y="1000"  />

      
      <glyph glyph-name="uni61" unicode="&#x61;" d="M52 22C79-9 119-24 158-19C193-15 224 4 244 32C248 38 258 35 258 28L258 1L329 1L329 8C321 8 315 12 310 16C305 21 302 28 302 35L302 237C302 279 297 313 266 344C243 366 212 377 181 378C113 378 58 323 58 256L66 256C66 319 117 371 181 371C201 371 220 358 234 339C240 331 239 321 232 314C187 273 138 239 85 209C55 193 32 162 25 128C16 91 27 51 52 22ZM63 183C71 191 79 197 89 203C148 235 196 270 236 307C242 313 251 310 254 302C256 295 258 284 258 268L258 86C254 61 243 38 224 20L223 19C212 9 198 4 181 4C119 4 59 63 48 122C43 147 48 169 63 183Z"  horiz-adv-x="344" vert-adv-y="1000"  />

      
      <glyph glyph-name="uni62" unicode="&#x62;" d="M60 0C67 4 75 5 83 5C90 5 98 4 105 0C132-14 163-22 195-22L199-22C309-21 399 70 398 180C398 292 306 380 195 380C163 380 132 372 105 358C96 353 86 360 86 370L87 556C87 571 99 584 114 585L114 593L13 593L13 585C21 585 29 582 34 577C39 571 42 564 42 556L39 54L39 37C39 21 26 8 10 8L10 0ZM85 304C85 312 88 319 93 325C122 355 158 372 195 372L197 372C283 372 353 286 353 180C354 74 285-13 199-14L198-14C157-14 120 5 92 36C87 42 84 49 84 57Z"  horiz-adv-x="423" vert-adv-y="1000"  />

      
      <glyph glyph-name="uni63" unicode="&#x63;" d="M25 178C27 69 113-17 222-17L224-17C332-15 419 71 419 180L391 180C392 175 393 169 394 164C399 118 386 77 358 48C332 21 296 8 258 8C210 8 157 29 115 70C40 143 27 252 86 312C112 338 146 352 186 352L201 352C209 351 215 350 222 348L222 377L220 377C167 376 118 355 81 318C44 280 24 230 25 178Z"  horiz-adv-x="439" vert-adv-y="1000"  />

      
      <glyph glyph-name="uni64" unicode="&#x64;" d="M224-22L227-22C268-22 307-10 339 13L339 0L413 0L413 8C397 8 384 21 384 37L384 54L381 557C381 573 394 586 410 586L410 594L309 593L309 585C324 584 336 572 336 556L337 375C337 363 325 355 314 360C287 373 258 380 227 380C174 381 123 360 85 322C47 285 25 234 25 180C24 70 114-21 224-22ZM70 180C70 286 140 372 226 373L227 373C265 372 301 355 329 325C335 319 337 312 337 304L339 57C339 49 336 42 331 36C303 5 266-14 225-14L224-14C138-13 69 74 70 180Z"  horiz-adv-x="423" vert-adv-y="1000"  />

      
      <glyph glyph-name="uni65" unicode="&#x65;" d="M25 177C26 122 51 62 96 28L99 25C133-3 177-18 222-18L224-18C333-16 419 70 419 179L391 179C399 130 394 84 357 47C331 20 296 7 258 7C217 7 174 22 136 51C130 56 128 64 132 71C187 163 226 268 226 376L219 376C167 375 118 354 81 316C44 279 24 229 25 177ZM86 311C112 337 146 351 186 351L199 351C201 351 203 351 207 350C212 348 217 343 217 337C212 287 194 192 127 77C123 71 114 70 109 75C78 106 63 142 52 184C44 231 54 278 86 311Z"  horiz-adv-x="439" vert-adv-y="1000"  />

      
      <glyph glyph-name="uni66" unicode="&#x66;" d="M10 8L10 0L116 0L116 8C100 8 87 21 87 37L87 100L86 347L86 356C86 363 91 368 98 368L212 368L212 376L98 376C91 376 85 382 85 389L85 502C85 541 112 573 147 583C152 584 158 585 163 585L169 585C192 585 212 576 227 561L233 555C244 541 251 523 252 503L259 503L259 510C257 527 246 555 231 568C215 584 193 593 168 593L126 593C78 593 40 552 40 504L40 388C40 381 35 376 28 376L10 376L10 368L28 368C35 368 40 363 40 357L39 54L39 37C39 21 26 8 10 8Z"  horiz-adv-x="229" vert-adv-y="1000"  />

      
      <glyph glyph-name="uni67" unicode="&#x67;" d="M30-270C46-292 71-307 98-309C121-310 150-309 174-308C205-308 235-308 265-309C322-309 372-295 385-231C386-226 387-221 387-216L379-216C379-244 364-272 339-286C315-300 286-300 259-299C217-299 174-298 132-296C117-295 100-295 86-289C63-279 47-257 43-233C42-226 42-219 43-212C46-191 58-174 75-163C95-150 121-150 144-151C192-151 241-149 289-148C318-147 348-147 376-142C422-134 459-92 455-43L455-42C452-6 434 26 399 40C388 44 384 58 391 68C432 129 435 208 401 272C397 281 400 292 408 297C436 312 455 342 455 376L447 376C447 343 428 315 401 302C393 298 385 301 378 307C372 312 369 317 364 321C326 359 275 378 225 378C173 378 121 358 83 318C6 239 7 113 86 36C125-2 175-21 225-21C264-21 302-9 336 13C348 21 363 25 377 25C405 25 432 11 443-17C452-40 446-66 431-84C423-94 413-102 401-107C388-113 376-115 361-114C331-114 301-113 271-111C226-108 180-109 134-108C106-108 79-109 55-126C7-157-5-224 30-270ZM88 313C114 339 150 353 189 353C292 353 386 262 399 162C404 116 391 74 362 45C336 18 300 5 261 5C159 5 64 95 51 195C46 241 59 283 88 313Z"  horiz-adv-x="466" vert-adv-y="1000"  />

      
      <glyph glyph-name="uni68" unicode="&#x68;" d="M17 0L120 0L120 8C112 8 104 11 99 17C94 22 91 29 91 37L92 273C97 314 123 369 171 369C211 369 244 326 249 270L248 54L248 37C248 22 235 8 219 8L219 1L292 0L322 0L322 8C314 8 306 11 301 17C296 22 293 29 293 37L294 254L294 255C294 322 237 377 171 377C150 377 131 372 114 363C104 358 93 365 93 376L94 539L94 556C94 571 106 585 121 585L123 585L123 593L20 593L20 586C37 584 49 574 49 556L48 306L47 259L47 254L46 54L46 37C46 22 32 8 17 8Z"  horiz-adv-x="337" vert-adv-y="1000"  />

      
      <glyph glyph-name="uni69" unicode="&#x69;" d="M17 377L17 369C33 369 46 356 46 340L46 37C46 21 33 8 17 8L17 0L118 0L118 8C102 8 91 19 91 35L91 340C91 355 102 368 118 369L118 377ZM67 456L96 485L67 514L38 485Z"  horiz-adv-x="128" vert-adv-y="1000"  />

      
      <glyph glyph-name="uni6a" unicode="&#x6a;" d="M-130-226C-126-273-87-310-39-310L4-310C9-310 15-309 21-308C60-298 89-263 89-220L89 12L90 323L90 340C90 357 103 369 119 369L119 377L13 377L13 369C29 369 42 357 42 340L43 323L44-14L44-220C44-224 44-227 43-231C43-233 43-235 42-237C36-267 12-291-18-300C-23-301-28-302-33-302L-39-302C-86-302-121-266-123-220L-123-219L-130-219ZM36 486L65 457L94 486L65 515Z"  horiz-adv-x="129" vert-adv-y="1000"  />

      
      <glyph glyph-name="uni6b" unicode="&#x6b;" d="M37 577C43 572 46 565 46 557L46 37C46 21 33 8 17 8L17 0L118 0L118 8C102 8 91 19 91 35L91 167C91 175 97 181 104 181L148 181C244 177 319 96 319 0L327 0C327 80 277 151 202 178C196 180 195 188 200 192C212 201 220 216 220 233L220 328C220 352 240 372 264 372C288 372 308 352 308 328L316 328C316 356 293 380 264 380L227 380C199 380 176 357 176 328L176 233C176 208 156 189 132 188L104 188C97 188 91 195 91 202L91 557C91 572 102 585 118 586L118 593L17 593L17 586C25 586 32 582 37 577Z"  horiz-adv-x="327" vert-adv-y="1000"  />

      
      <glyph glyph-name="uni6c" unicode="&#x6c;" d="M17 586C25 586 32 582 37 577C43 572 46 565 46 557L46 37C46 21 33 8 17 8L17 0L118 0L118 8C102 8 91 19 91 35L91 593L17 593Z"  horiz-adv-x="128" vert-adv-y="1000"  />

      
      <glyph glyph-name="uni6d" unicode="&#x6d;" d="M10 0L113 0L113 8C105 8 97 11 92 17C87 22 84 29 84 37L85 273L85 308C87 352 124 369 163 369C201 369 242 351 242 307L242 253L241 55L241 37C241 23 226 9 212 9L212 1L285 0L314 0L314 8C300 8 286 22 286 37L287 273L287 308C287 331 301 352 322 361C336 366 350 369 365 369C403 369 444 351 444 307L444 269L443 55L443 37C443 21 428 9 413 9L413 1L487 0L516 0L516 8C501 8 487 22 487 37L489 253L489 256C487 323 432 377 365 377C332 377 294 361 273 335C268 330 260 329 256 335L243 348C221 366 194 377 163 377C144 377 124 371 107 362C96 357 83 364 83 376L83 377L10 377L10 369C25 369 39 355 39 340L39 37C39 23 24 9 10 9Z"  horiz-adv-x="531" vert-adv-y="1000"  />

      
      <glyph glyph-name="uni6e" unicode="&#x6e;" d="M15 369C30 369 44 355 44 340L44 37C44 23 29 9 15 9L15 0L118 0L118 8C102 8 89 21 89 37L90 273L90 308C92 351 130 369 168 369C206 369 247 352 247 307L247 269L246 55L246 37C246 21 232 9 217 9L217 1L290 0L319 0L319 8C304 8 290 22 290 37L292 253L292 256C290 324 235 377 168 377C149 377 129 371 112 362C101 357 88 364 88 376L88 377L15 377Z"  horiz-adv-x="329" vert-adv-y="1000"  />

      
      <glyph glyph-name="uni6f" unicode="&#x6f;" d="M84 38C123 1 172-18 222-18C271-18 320 0 358 36L368 46C402 84 419 131 419 179C419 288 331 376 222 376C173 376 124 358 86 322L76 312C5 234 8 112 84 38ZM82 307L91 316C117 340 150 351 186 351C286 351 383 262 394 163C399 120 388 80 362 51L353 42C328 19 294 7 258 7C156 7 63 95 50 195C45 239 56 278 82 307Z"  horiz-adv-x="444" vert-adv-y="1000"  />

      
      <glyph glyph-name="uni70" unicode="&#x70;" d="M17 368C33 368 46 355 46 339L46 322L49-248C49-255 46-263 41-268C35-273 28-276 20-276L20-284L120-283L120-276C105-275 93-262 93-247L92-55L92-10C92 2 104 9 115 4C141-9 170-16 200-16C310-16 400 71 400 182C401 291 313 380 203 381L200 381C166 381 132 372 103 355C97 352 90 356 90 363L90 376L17 375ZM98 324C125 355 162 374 202 374L203 374C288 373 357 287 356 182C355 77 286-8 202-8L200-8C163-8 127 9 99 39C94 45 92 52 92 59L90 305C90 312 93 319 98 324Z"  horiz-adv-x="425" vert-adv-y="1000"  />

      
      <glyph glyph-name="uni71" unicode="&#x71;" d="M25 184C25 131 46 81 84 44C122 7 172-14 224-13C255-13 283-6 310 7C320 12 333 4 333-8L333-52L332-244C332-259 320-272 305-273L305-280L404-281L404-273C388-273 376-261 376-245L377 76L379 324L379 341C379 357 392 370 407 370L407 377L335 378L335 365C335 358 328 354 322 357C292 374 259 383 224 383L221 383C112 382 24 293 25 184ZM221 376L222 376C263 376 299 357 327 326C332 321 334 314 334 307L334 178L333 62C333 54 330 47 325 42C297 11 262-5 224-6L223-6C139-5 70 80 69 184C68 289 137 375 221 376Z"  horiz-adv-x="417" vert-adv-y="1000"  />

      
      <glyph glyph-name="uni72" unicode="&#x72;" d="M10 369C18 369 25 366 30 360C36 355 39 348 39 340L39 37C39 23 26 9 12 9L10 9L10 0L113 0L113 8C97 8 84 21 84 37L85 273L85 308C85 331 100 351 120 361L121 361C134 366 148 369 163 369C179 369 193 366 206 361C207 361 207 360 208 360C228 352 241 332 242 310L273 310C265 324 255 337 243 348C221 366 194 377 163 377C144 377 124 371 107 362C96 357 83 364 83 376L83 377L10 377Z"  horiz-adv-x="273" vert-adv-y="1000"  />

      
      <glyph glyph-name="uni73" unicode="&#x73;" d="M41 198C77 147 144 139 198 118C214 112 228 103 237 89C247 73 250 54 243 36C242 34 241 32 240 31C228 6 198-8 172-12C145-15 116-9 94 7L91 10C82 16 71 30 67 40C66 42 59 68 61 68L53 68L53-17L61-17C62-12 61-7 60-1C60 4 62 10 67 13C70 14 73 13 76 12C79 10 82 8 84 6C101-9 123-17 146-19C196-24 251-1 265 51C275 91 251 131 217 150C187 168 152 176 120 187C87 199 55 218 45 254C38 280 46 308 65 327C93 357 136 370 177 365C212 361 246 344 266 315C270 310 273 305 276 299C276 298 279 287 280 287L289 287L289 368L282 368L282 338C282 328 270 324 264 331C238 358 198 375 154 374C118 373 82 361 55 337C15 301 11 241 41 198Z"  horiz-adv-x="309" vert-adv-y="1000"  />

      
      <glyph glyph-name="uni74" unicode="&#x74;" d="M10 371L10 318L11 70L11 69C11 28 39-7 78-17C84-18 89-19 95-19L137-19C184-19 222 17 226 63L226 71L219 70C219 24 182-11 137-11L131-11C126-11 121-10 116-9C86-1 63 23 57 53C56 55 56 57 56 59C55 62 55 66 55 69L56 304L56 334C56 353 71 367 89 367L117 367L117 375L89 375C71 375 56 390 56 408L56 434Z"  horiz-adv-x="226" vert-adv-y="1000"  />

      
      <glyph glyph-name="uni75" unicode="&#x75;" d="M10 377L10 369C26 369 39 356 39 340L38 106L38 104C38 37 95-17 161-17C190-17 219-5 240 12L240 0L314 0L314 8C306 8 299 11 293 16C288 22 285 29 285 37L285 340C285 355 298 369 314 369L314 377L211 377L211 369C219 369 227 366 232 360C237 355 240 348 240 340L240 131L239 87L239 52C239 29 225 8 204-1C190-6 176-9 161-9C123-9 82 8 82 52L82 91L83 323L83 340C83 355 98 369 113 369L113 377Z"  horiz-adv-x="329" vert-adv-y="1000"  />

      
      <glyph glyph-name="uni76" unicode="&#x76;" d="M27 350L144 8L131 8L131 0L230 0L233 8C217 8 205 24 210 40L313 333C321 355 342 370 366 370L366 377L280 377L280 370C296 370 307 357 307 343C307 340 307 337 306 334L199 30C196 23 186 23 183 30L73 352C70 361 76 370 85 370L85 377L0 377L0 370C12 370 23 361 27 350Z"  horiz-adv-x="366" vert-adv-y="1000"  />

      
      <glyph glyph-name="uni77" unicode="&#x77;" d="M0 369C13 369 22 362 27 350L144 8L131 8L131 0L230 0L233 8C219 8 209 19 209 32C209 35 209 37 210 40L269 211C271 217 280 217 282 211L350 10L338 8L338 0L438 0L440 8C426 8 416 19 416 32C416 35 417 37 418 40L520 332C528 354 549 369 572 369L572 377L487 377L487 369C503 369 514 356 514 342C514 339 514 336 513 333L406 30C403 23 393 23 390 30L280 352C277 361 284 369 293 369L293 377L207 377L207 369C220 369 229 362 234 350L270 244C271 240 271 238 270 235L198 30C196 23 186 23 183 30L73 352C70 360 76 369 85 369L85 377L0 377Z"  horiz-adv-x="572" vert-adv-y="1000"  />

      
      <glyph glyph-name="uni78" unicode="&#x78;" d="M0 0L85 0L85 8C63 8 55 24 59 42L92 136C94 140 100 140 101 136L140 22C141 15 135 8 127 8L127 0L212 0L212 8C200 8 189 16 185 27L170 73L124 206C122 213 122 220 124 227L161 332C169 354 190 369 213 369L213 377L128 377L128 369C144 369 155 356 155 342C155 340 155 337 154 334L121 241C120 237 114 237 112 241L73 355C73 362 79 369 86 369L86 377L1 377L1 369C14 369 23 362 28 350L89 171C92 164 92 157 89 150L52 45C44 23 23 8 0 8Z"  horiz-adv-x="213" vert-adv-y="1000"  />

      
      <glyph glyph-name="uni7a" unicode="&#x7a;" d="M10 0L221 0L221 8L95 8C87 8 81 15 82 22L194 350C199 362 208 369 221 369L221 377L10 377L10 369L136 369C144 369 150 362 149 355L37 27C35 21 31 17 27 13C22 10 16 8 10 8Z"  horiz-adv-x="236" vert-adv-y="1000"  />

      
      <glyph glyph-name="uni31" unicode="&#x31;" d="M85 377L17 300L17 284L85 361L85 0L129 0L129 377Z"  horiz-adv-x="146" vert-adv-y="1000"  />

      
      <glyph glyph-name="uni32" unicode="&#x32;" d="M283 0L283 8L68 8L241 150C270 174 287 210 287 248C287 320 224 377 153 377C116 377 81 362 55 336L61 331L61 332C81 352 108 361 134 361C195 361 243 308 243 248C243 212 227 179 200 156L10 0Z"  horiz-adv-x="315" vert-adv-y="1000"  />

      
      <glyph glyph-name="uni33" unicode="&#x33;" d="M41 223C41 225 37 239 37 240C29 309 76 362 146 353C217 343 282 279 296 209C296 206 297 204 297 200C301 166 292 137 272 117C253 97 223 88 188 92C181 93 174 95 167 97L167 62C255 43 331-36 342-126C347-170 335-210 310-239C308-241 302-248 300-249C274-273 240-284 204-284C155-284 101-263 58-221L27-253C66-291 116-310 167-310C278-310 367-220 367-109C367-23 312 55 230 81C284 106 321 159 322 219L322 230C320 270 303 306 276 332C248 361 208 378 165 377C82 376 14 309 12 227L12 223Z"  horiz-adv-x="387" vert-adv-y="1000"  />

      
      <glyph glyph-name="uni34" unicode="&#x34;" d="M0 46L16-1L248-1L248-58L256-58L256-1L310-1L310 7L256 7L256 261L310 320L310 376ZM22 7L22 8L248 253L248 7Z"  horiz-adv-x="327" vert-adv-y="1000"  />

      
      <glyph glyph-name="uni35" unicode="&#x35;" d="M9 26C40-3 79-18 118-18C157-18 196-4 226 25L234 33C261 63 275 100 275 138C275 224 205 294 119 294C103 294 87 292 72 287L72 368L225 368L225 376L64 376L64 270C67 272 70 273 72 275C87 284 103 288 118 288C194 288 230 202 230 138C230 102 221 66 201 37C200 36 199 34 198 33C197 32 196 30 195 29C174 2 146-12 118-12C90-12 62 2 40 30C36 36 32 42 29 48L8 28Z"  horiz-adv-x="300" vert-adv-y="1000"  />

      
      <glyph glyph-name="uni36" unicode="&#x36;" d="M71 25C100-4 140-20 180-20C262-20 330 46 333 129L333 141C331 223 260 288 179 288C137 288 94 271 67 239C109 323 178 390 261 434L278 443L275 450L258 441C148 386 83 301 36 191C15 134 27 69 71 25ZM57 212C73 248 111 267 150 264C191 261 229 241 258 212C288 181 313 135 310 90C310 63 297 37 275 21C251 3 219 0 190 6C157 13 125 32 101 56C63 94 33 158 57 212Z"  horiz-adv-x="359" vert-adv-y="1000"  />

      
      <glyph glyph-name="uni37" unicode="&#x37;" d="M15 332L23 332L23 369L164 369L72 0L117 0L206 377L15 377Z"  horiz-adv-x="218" vert-adv-y="1000"  />

      
      <glyph glyph-name="uni38" unicode="&#x38;" d="M80-261C116-293 163-310 211-310C322-310 412-219 412-109C412-23 358 55 276 81C282 80 293 90 297 93C342 125 370 178 366 234C359 315 293 377 211 377L209 377C160 377 111 351 83 310C49 260 47 192 79 140C85 130 93 121 101 112C114 100 129 89 146 81L132 76L114 67C52 33 13-33 10-103C8-163 34-222 80-261ZM68 21C70 23 71 25 73 26C74 28 76 30 78 31C104 55 138 67 174 67C278 67 375-24 386-126C391-170 380-210 354-239C353-241 351-242 350-244C323-271 286-284 248-284C145-284 47-194 36-92C31-48 42-8 68 21ZM81 278C87 317 117 347 157 353C206 360 256 335 290 301C324 266 350 215 341 165C334 127 303 97 264 91C216 85 166 110 133 144C112 165 94 192 85 222C79 240 78 259 81 278Z"  horiz-adv-x="422" vert-adv-y="1000"  />

      
      <glyph glyph-name="uni39" unicode="&#x39;" d="M18 229L18 216C22 133 91 69 174 69C215 69 256 87 284 118C242 34 175-34 90-77L73-85L77-92L94-83C182-39 255 36 296 125C302 139 310 152 315 166C337 224 325 288 281 332C251 362 211 378 171 378C90 378 21 310 18 229ZM41 267C43 294 55 320 77 337C100 354 133 357 161 352C195 345 226 325 250 301C288 263 318 199 295 146C279 110 240 90 202 93C161 96 123 117 94 146C64 176 39 222 41 267Z"  horiz-adv-x="343" vert-adv-y="1000"  />

      
      <glyph glyph-name="uni30" unicode="&#x30;" d="M84 38C123 1 172-18 222-18C271-18 320 0 358 36L368 46C402 84 419 131 419 179C419 288 331 376 222 376C173 376 124 358 86 322L76 312C5 234 8 112 84 38ZM333 285C367 250 389 207 394 163C399 120 388 80 362 51L353 42C327 19 294 7 258 7C210 7 158 28 116 68ZM82 307L91 316C117 340 150 351 186 351C234 351 286 330 328 290L111 73C77 108 55 151 50 195C45 239 56 278 82 307Z"  horiz-adv-x="444" vert-adv-y="1000"  />

      
      <glyph glyph-name="uni21" unicode="&#x21;" d="M49 41L20 12L49-17L78 12ZM53 670L45 670L45 108L53 108Z"  horiz-adv-x="98" vert-adv-y="1000"  />

      
      <glyph glyph-name="uni40" unicode="&#x40;" d="M105 94C161 34 240 0 322 0L599 0L599 8L322 8C242 8 165 41 110 99C55 159 28 236 33 317C43 460 158 575 301 585C382 591 460 563 519 508C577 454 611 377 611 297C611 291 611 285 610 280C606 197 537 132 453 132L435 131L435 373C435 440 381 495 314 495C246 495 192 440 192 373L199 373C199 436 251 487 314 487C353 487 387 468 408 438C367 397 317 361 255 327C214 304 190 261 192 214C195 152 246 101 308 98L314 98C364 98 411 131 428 178L428 123L453 124C541 124 613 193 618 280L618 297C618 379 584 458 524 514C463 570 384 598 301 593C154 583 36 464 26 318C20 234 48 155 105 94ZM259 320C321 354 371 391 412 431C422 414 428 394 428 373L428 220C428 189 415 159 392 138C370 116 340 105 308 106C250 109 202 157 200 215C198 259 220 299 259 320Z"  horiz-adv-x="643" vert-adv-y="1000"  />

      
      <glyph glyph-name="uni23" unicode="&#x23;" d="M0 3L7 0L82 213L230 213L156 3L163 0L238 213L306 213L306 220L240 220L294 373L362 373L362 380L297 380L371 591L364 593L289 380L141 380L215 591L208 593L133 380L57 380L57 373L130 373L77 220L1 220L1 213L74 213ZM85 220L138 373L286 373L232 220Z"  horiz-adv-x="371" vert-adv-y="1000"  />

      
      <glyph glyph-name="uni24" unicode="&#x24;" d="M5 450C18 391 59 341 114 318L185 289L185 2L183 2C145 2 116 18 88 42C61 69 46 105 46 144L38 144C37 144 39 127 39 125C40 119 41 112 43 106C52 68 77 37 109 16C127 6 148-2 168-5C171-5 175-6 178-6L183-6C185-7 185-8 185-10L185-20L192-20L192-6C228-6 271 10 295 38L301 44C331 78 343 123 332 168C322 215 290 252 246 271L192 294L192 664L199 664C282 661 353 598 369 517C372 517 374 518 377 518C378 519 367 551 366 554C339 618 278 664 209 671C203 672 198 672 192 672L192 685L185 685L185 672C135 672 88 651 53 616C50 614 48 611 46 609C7 566-8 508 5 450ZM51 604C54 606 56 608 58 611C92 645 137 664 185 665L185 297L117 325C64 348 25 395 12 451C0 507 14 562 51 604ZM192 286L243 264C284 246 315 211 325 167C335 124 324 81 295 49L289 43C263 17 229 2 192 1Z"  horiz-adv-x="377" vert-adv-y="1000"  />

      
      <glyph glyph-name="uni25" unicode="&#x25;" d="M169 30L198 1L226 30L198 59ZM76 563L47 592L19 563L47 534ZM223 593L15 3L22 0L230 591Z"  horiz-adv-x="245" vert-adv-y="1000"  />

      
      <glyph glyph-name="uni5e" unicode="&#x5e;" d="M89 689L0 600L5 595L89 679L173 595L178 600Z"  horiz-adv-x="178" vert-adv-y="1000"  />

      
      <glyph glyph-name="uni26" unicode="&#x26;" d="M21 122C31 44 94-20 173-26C211-30 249-20 280 1C296 11 309 25 320 37L418 139C423 145 433 145 439 139L538 40C549 28 541 8 524 8L524 0L624 0L624 8C596 8 569 19 550 39L443 146C437 151 437 159 442 165C454 181 463 199 467 219C472 244 469 271 459 295C444 330 413 361 376 370C354 377 338 396 338 420L338 422L330 422L330 322L338 322C338 344 356 360 376 360C381 360 386 359 391 357C396 354 402 351 407 348C427 334 443 314 452 292C461 270 464 244 459 221C456 204 449 188 439 174C433 167 423 165 416 172L238 351C231 357 231 368 237 374L322 464C327 470 332 477 336 483C352 510 359 542 355 572C347 633 296 683 234 687C204 689 175 681 151 664L142 657C139 655 137 653 134 650C129 645 125 640 120 635L33 545L177 400C184 394 184 383 178 376L64 257C57 250 52 242 46 234C25 200 17 160 21 122ZM75 215C91 234 84 227 94 237L208 346C215 352 225 352 232 346L412 166C418 160 417 150 411 144L349 84L310 48C297 35 285 24 271 15C242-3 208-9 175-5C108 3 57 58 51 125C49 157 58 189 75 215ZM44 545L130 625C135 630 140 635 145 639C147 641 150 643 152 645L160 650C182 663 207 668 232 665C256 662 279 650 296 633C312 615 322 592 324 569C326 545 319 522 306 503C303 498 299 493 295 489L206 405C200 399 189 399 183 406Z"  horiz-adv-x="624" vert-adv-y="1000"  />

      
      <glyph glyph-name="uni2a" unicode="&#x2a;" d="M0 537L88 486L0 435L4 429L92 480L92 378L100 378L100 480L188 429L191 435L103 486L191 537L188 544L100 493L100 595L92 595L92 493L4 544Z"  horiz-adv-x="191" vert-adv-y="1000"  />

      
      <glyph glyph-name="uni28" unicode="&#x28;" d="M74 53L103-20L110-17L81 56C0 259 11 487 110 682L103 685C4 488-7 258 74 53Z"  horiz-adv-x="125" vert-adv-y="1000"  />

      
      <glyph glyph-name="uni29" unicode="&#x29;" d="M15 682C113 487 125 259 44 56L15-17L22-20L51 53C132 258 121 488 22 685Z"  horiz-adv-x="125" vert-adv-y="1000"  />

      
      <glyph glyph-name="uni5b" unicode="&#x5b;" d="M15-20L128-20L128-12L23-12L23 677L128 677L128 685L15 685Z"  horiz-adv-x="143" vert-adv-y="1000"  />

      
      <glyph glyph-name="uni5d" unicode="&#x5d;" d="M15 685L15 677L120 677L120-12L15-12L15-20L128-20L128 685Z"  horiz-adv-x="143" vert-adv-y="1000"  />

      
      <glyph glyph-name="uni7b" unicode="&#x7b;" d="M22 372C53 338 70 295 70 250L70 93C70 30 121-20 183-20L183-12C125-12 78 35 78 93L78 250C78 296 61 340 30 374C61 409 78 453 78 499L78 572C78 630 125 677 183 677L183 685C121 685 70 634 70 572L70 499C70 453 53 410 22 377L20 374Z"  horiz-adv-x="198" vert-adv-y="1000"  />

      
      <glyph glyph-name="uni7d" unicode="&#x7d;" d="M15-20C77-20 128 30 128 93L128 250C128 295 145 338 175 372L178 374L175 377C145 410 128 453 128 499L128 572C128 634 77 685 15 685L15 677C73 677 120 630 120 572L120 499C120 453 137 409 167 374C137 340 120 296 120 250L120 93C120 35 73-12 15-12Z"  horiz-adv-x="198" vert-adv-y="1000"  />

      
      <glyph glyph-name="uni2d" unicode="&#x2d;" d="M311 299L12 299L12 292L311 292Z"  horiz-adv-x="323" vert-adv-y="1000"  />

      
      <glyph glyph-name="uni5f" unicode="&#x5f;" d="M12-11L12-20L715-20L715-11Z"  horiz-adv-x="727" vert-adv-y="1000"  />

      
      <glyph glyph-name="uni2b" unicode="&#x2b;" d="M15 303L15 296L161 296L161 150L168 150L168 296L314 296L314 303L168 303L168 449L161 449L161 303Z"  horiz-adv-x="329" vert-adv-y="1000"  />

      
      <glyph glyph-name="uni3d" unicode="&#x3d;" d="M15 301L15 294L314 294L314 301ZM314 190L314 197L15 197L15 190Z"  horiz-adv-x="329" vert-adv-y="1000"  />

      
      <glyph glyph-name="uni3a" unicode="&#x3a;" d="M15 28L43 0L72 28L43 57ZM72 217L43 246L15 217L43 189Z"  horiz-adv-x="87" vert-adv-y="1000"  />

      
      <glyph glyph-name="uni3b" unicode="&#x3b;" d="M31 30L55 7L15-33L20-38L89 30L60 59ZM89 219L60 248L31 219L60 191Z"  horiz-adv-x="104" vert-adv-y="1000"  />

      
      <glyph glyph-name="uni22" unicode="&#x22;" d="M90 624L117 596L145 624L123 646L161 685L156 690ZM43 596L71 624L48 646L86 685L81 690L15 624Z"  horiz-adv-x="176" vert-adv-y="1000"  />

      
      <glyph glyph-name="uni201C" unicode="&#x201C;" d="M90 621L117 593L145 621L123 643L161 682L156 687ZM43 593L71 621L48 643L86 682L81 687L15 621Z"  horiz-adv-x="176" vert-adv-y="1000"  />

      
      <glyph glyph-name="uni201D" unicode="&#x201D;" d="M53 643L31 621L59 593L86 621L20 687L15 682ZM128 643L105 621L133 593L161 621L95 687L90 682Z"  horiz-adv-x="176" vert-adv-y="1000"  />

      
      <glyph glyph-name="uni27" unicode="&#x27;" d="M15 683L53 644L31 622L59 594L86 622L20 688Z"  horiz-adv-x="101" vert-adv-y="1000"  />

      
      <glyph glyph-name="unib4" unicode="&#xb4;" d="M81 688L15 622L42 594L70 622L48 644L86 683Z"  horiz-adv-x="101" vert-adv-y="1000"  />

      
      <glyph glyph-name="uni7c" unicode="&#x7c;" d="M23 685L15 685L15-20L23-20Z"  horiz-adv-x="38" vert-adv-y="1000"  />

      
      <glyph glyph-name="uni2f" unicode="&#x2f;" d="M254 682L247 685L0-17L7-20Z"  horiz-adv-x="254" vert-adv-y="1000"  />

      
      <glyph glyph-name="uni5c" unicode="&#x5c;" d="M247-20L254-17L7 685L0 682Z"  horiz-adv-x="254" vert-adv-y="1000"  />

      
      <glyph glyph-name="uni3f" unicode="&#x3f;" d="M25 459L32 457C40 503 72 547 114 568C124 574 134 578 145 581C156 585 167 587 178 588C202 590 226 587 248 579C270 571 290 559 306 543L308 541C310 539 312 537 314 534C347 498 360 448 349 399C338 349 303 307 255 287C218 271 194 235 194 194L194 92L200 92L200 194C200 232 223 267 258 281C308 302 344 345 356 398C367 449 354 500 319 539L313 545C297 562 277 575 256 583C231 593 205 597 179 595C100 588 42 534 25 459ZM197-19L223 7L197 33L171 7Z"  horiz-adv-x="385" vert-adv-y="1000"  />

      
      <glyph glyph-name="uni3c" unicode="&#x3c;" d="M128 276L27 377L128 477L122 483L15 377L122 270Z"  horiz-adv-x="143" vert-adv-y="1000"  />

      
      <glyph glyph-name="uni3e" unicode="&#x3e;" d="M21 270L128 377L21 483L15 477L116 377L15 276Z"  horiz-adv-x="143" vert-adv-y="1000"  />

      
      <glyph glyph-name="uni2e" unicode="&#x2e;" d="M15 18L43-10L72 18L43 47Z"  horiz-adv-x="87" vert-adv-y="1000"  />

      
      <glyph glyph-name="uni2c" unicode="&#x2c;" d="M20-50L86 16L59 44L31 16L53-6L15-45Z"  horiz-adv-x="101" vert-adv-y="1000"  />

      
      <glyph glyph-name="uni60" unicode="&#x60;" d="M15 683L53 644L31 622L59 594L86 622L20 688Z"  horiz-adv-x="101" vert-adv-y="1000"  />

      
      <glyph glyph-name="uniba" unicode="&#xba;" d="M20 178C20 152 41 131 67 131C93 131 114 152 114 178C114 204 93 225 67 225C41 225 20 204 20 178ZM67 218C89 218 107 200 107 178C107 156 89 138 67 138C45 138 27 156 27 178C27 200 45 218 67 218Z"  horiz-adv-x="134" vert-adv-y="1000"  />

      
      <glyph glyph-name="unib0" unicode="&#xb0;" d="M0 640C0 614 21 593 47 593C73 593 94 614 94 640C94 666 73 687 47 687C21 687 0 666 0 640ZM47 680C69 680 87 662 87 640C87 618 69 600 47 600C25 600 7 618 7 640C7 662 25 680 47 680Z"  horiz-adv-x="94" vert-adv-y="1000"  />

      
      <glyph glyph-name="uni2020" unicode="&#x2020;" d="M15 257L15 249L111 249L111 0L119 0L119 249L215 249L215 257L119 257L119 377L111 377L111 257Z"  horiz-adv-x="230" vert-adv-y="1000"  />

      
      <glyph glyph-name="uni2021" unicode="&#x2021;" d="M15 249L111 249L111 127L15 127L15 119L111 119L111 0L119 0L119 119L215 119L215 127L119 127L119 249L215 249L215 257L119 257L119 377L111 377L111 257L15 257Z"  horiz-adv-x="230" vert-adv-y="1000"  />

      
      <glyph glyph-name="uni02DC" unicode="&#x02DC;" d="M20 180C33 193 49 199 64 199C80 199 96 193 108 180C122 167 139 160 157 160C175 160 193 167 206 180L201 186C189 174 173 168 157 168C142 168 126 174 113 186C100 200 82 206 64 206C46 206 29 200 15 186Z"  horiz-adv-x="221" vert-adv-y="1000"  />

      
      <glyph glyph-name="unia9" unicode="&#xa9;" d="M0 641C0 615 21 594 47 594C73 594 94 615 94 641C94 667 73 688 47 688C21 688 0 667 0 641ZM47 681C69 681 87 663 87 641C87 619 69 601 47 601C25 601 7 619 7 641C7 663 25 681 47 681ZM22 641C22 627 33 616 47 616C61 616 72 627 72 641L65 641C65 631 57 623 47 623C37 623 29 631 29 641C29 651 37 659 47 659L47 666C33 666 22 655 22 641Z"  horiz-adv-x="94" vert-adv-y="1000"  />

      
      <glyph glyph-name="uniae" unicode="&#xae;" d="M49 670L49 593L57 593L57 656L81 640L106 656L106 593L113 593L113 670L81 649ZM0 669L0 661L17 661L17 593L25 593L25 661L42 661L42 669Z"  horiz-adv-x="113" vert-adv-y="1000"  />

      
      <glyph glyph-name="unid7" unicode="&#xd7;" d="M20 192L123 295L227 192L231 197L128 300L231 404L227 408L123 305L20 408L15 404L118 300L15 197Z"  horiz-adv-x="246" vert-adv-y="1000"  />

      
      <glyph glyph-name="unidf" unicode="&#xdf;" d="M17 669L17 661C33 661 46 648 46 632L46 35C46 19 33 6 17 6L17-2L118-2L118 6C110 6 103 9 99 14C94 19 91 25 91 33L91 632C91 647 102 660 118 661L215 661C311 661 356 562 356 478C356 433 344 392 325 360C314 343 315 321 327 305L441 191C464 168 478 136 477 104C475-1 373-103 268-105C236-106 205-92 182-69L154-41L149-47L176-74C213-111 262-130 311-130C360-130 409-111 446-74C484-36 504 14 502 68C500 117 479 164 444 199L335 307C328 314 329 325 337 331C380 367 406 421 405 482C402 586 314 669 210 669Z"  horiz-adv-x="510" vert-adv-y="1000"  />

      
      <glyph glyph-name="unic2" unicode="&#xc2;" d="M0 0L85 0L85 8C70 8 58 21 59 36C59 39 59 41 60 43L158 324C160 330 165 333 170 332C210 326 241 292 242 251C243 207 271 168 313 159C336 154 357 158 375 167C392 175 407 189 416 206C417 209 420 211 422 211C426 212 431 210 433 205L495 25C497 17 491 8 482 8L482 0L569 0L569 8C557 8 546 16 542 27L324 660L335 660L335 662L336 662L336 670L237 670L206 584C223 584 235 567 229 551L52 45C44 23 23 8 0 8ZM169 355L269 640C269 640 269 641 269 641C273 646 281 645 283 638L416 253C417 250 418 247 418 243C416 199 377 165 334 165C287 165 250 201 250 249C250 294 219 331 177 340C170 341 166 348 169 355ZM230 685L284 739L338 685L343 691L284 750L224 691Z"  horiz-adv-x="569" vert-adv-y="1000"  />

      
      <glyph glyph-name="unic4" unicode="&#xc4;" d="M0 0L85 0L85 8C70 8 58 21 59 36C59 39 59 41 60 43L158 325C160 330 165 333 170 332C210 326 241 292 242 251C243 208 271 169 314 159C338 154 360 158 378 169C394 177 407 190 416 206C417 209 420 211 422 211C426 212 431 210 433 205L495 25C498 17 491 8 482 8L482 0L569 0L569 8C557 8 546 16 542 27L323 661L335 661L335 662L336 662L336 670L237 670L207 586C207 586 207 586 208 586L207 584C223 584 235 567 229 552L52 45C44 23 23 8 0 8ZM169 355L269 640C269 640 269 641 269 641C273 646 281 645 283 639L416 253C417 250 418 247 418 243C414 199 380 166 335 166C287 166 250 200 250 249C250 294 219 331 177 340C170 341 166 348 169 355ZM198 716L227 687L256 716L227 745ZM341 687L369 716L341 745L312 716Z"  horiz-adv-x="569" vert-adv-y="1000"  />

      
      <glyph glyph-name="unic0" unicode="&#xc0;" d="M0 0L85 0L85 8C67 8 54 26 60 44L158 325C160 330 165 333 170 332C210 326 241 292 242 251C243 208 271 169 314 159C332 155 350 157 366 163C388 171 405 186 416 206C417 209 420 211 422 211C426 212 431 210 433 205L495 25C498 17 491 8 482 8L482 0L569 0L569 8C557 8 546 16 542 27L323 661L336 661L336 670L237 670L237 669L236 669L207 586C207 586 207 586 208 586L207 584C222 584 233 570 231 556C231 555 230 554 230 553L52 45C44 23 23 8 0 8ZM169 355L269 640C269 640 269 641 269 641C273 646 281 645 283 639L416 254C417 250 418 247 418 243C414 199 380 166 335 166C287 166 250 200 250 249C250 294 219 331 177 340C170 341 166 348 169 355ZM299 976L337 937L315 915L343 887L370 915L304 981ZM258 729L304 683L310 689L263 735Z"  horiz-adv-x="569" vert-adv-y="1000"  />

      
      <glyph glyph-name="unic5" unicode="&#xc5;" d="M0 0L85 0L85 8C70 8 58 21 59 36C59 39 59 41 60 43L158 324C160 330 165 333 170 332C210 326 241 292 242 251C243 207 271 168 313 159C336 154 357 158 375 167C392 175 407 189 416 206C417 209 420 211 422 211C426 212 431 210 433 205L495 25C497 17 491 8 482 8L482 0L569 0L569 8C557 8 546 16 542 27L324 660L335 660L335 662L336 662L336 670L237 670L206 584C223 584 235 567 229 551L52 45C44 23 23 8 0 8ZM169 355L269 640C269 640 269 641 269 641C273 646 281 645 283 638L416 253C417 250 418 247 418 243C416 199 377 165 334 165C287 165 250 201 250 249C250 294 219 331 177 340C170 341 166 348 169 355ZM242 723C242 700 261 681 284 681C307 681 325 700 325 723C325 746 307 765 284 765C261 765 242 746 242 723ZM250 723C250 742 265 757 284 757C302 757 318 742 318 723C318 704 302 689 284 689C265 689 250 704 250 723Z"  horiz-adv-x="569" vert-adv-y="1000"  />

      
      <glyph glyph-name="unic3" unicode="&#xc3;" d="M0 0L85 0L85 8C67 8 54 26 60 44L158 325C160 330 165 334 171 333C211 327 242 293 243 251C244 208 272 169 314 160C358 150 397 172 416 206C420 214 431 214 434 205L496 25C499 17 492 8 483 8L483 0L569 0L569 8C556 8 545 16 541 27L323 662L336 662L336 670L237 670L207 585C224 585 236 569 230 553L52 45C44 23 23 8 0 8ZM169 354L269 640C271 647 281 647 284 640L417 254C418 251 419 247 419 244C416 200 379 165 335 165C287 165 250 200 250 249C250 294 219 331 177 339C170 341 166 348 169 354ZM237 704L242 698C248 704 255 706 262 706C269 706 277 704 282 698C288 691 298 688 307 688C316 688 325 691 332 698L326 704C321 699 314 696 307 696C299 696 292 699 287 704C280 711 271 714 262 714C253 714 244 711 237 704Z"  horiz-adv-x="569" vert-adv-y="1000"  />

      
      <glyph glyph-name="uni7e" unicode="&#x7e;" d="M20 212C33 225 49 231 64 231C80 231 96 225 108 212C122 199 139 192 157 192C175 192 193 199 206 212L201 218C189 206 173 200 157 200C142 200 126 206 113 218C100 232 82 238 64 238C46 238 29 232 15 218Z"  horiz-adv-x="221" vert-adv-y="1000"  />

      
      <glyph glyph-name="unie2" unicode="&#xe2;" d="M52 22C79-9 119-24 158-19C193-15 224 4 244 32C248 38 258 35 258 28L258 1L329 1L329 8C321 8 315 12 310 16C305 21 302 28 302 35L302 237C302 279 297 313 266 344C243 366 212 377 181 378C113 378 58 323 58 256L66 256C66 319 117 371 181 371C201 371 220 358 234 339C240 331 239 321 232 314C187 273 138 239 85 209C55 193 32 162 25 128C16 91 27 51 52 22ZM63 183C71 191 79 197 89 203C148 235 196 270 236 307C242 313 251 310 254 302C256 295 258 284 258 268L258 86C254 61 243 38 224 20L223 19C212 9 198 4 181 4C119 4 59 63 48 122C43 147 48 169 63 183ZM121 446L175 499L228 446L234 451L175 510L116 451Z"  horiz-adv-x="344" vert-adv-y="1000"  />

      
      <glyph glyph-name="unie4" unicode="&#xe4;" d="M52 22C79-9 119-24 158-19C193-15 224 4 244 32C248 38 258 35 258 28L258 1L329 1L329 8C321 8 315 12 310 16C305 21 302 28 302 35L302 237C302 279 297 313 266 344C243 366 212 377 181 378C113 378 58 323 58 256L66 256C66 319 117 371 181 371C201 371 220 358 234 339C240 331 239 321 232 314C187 273 138 239 85 209C55 193 32 162 25 128C16 91 27 51 52 22ZM63 183C71 191 79 197 89 203C148 235 196 270 236 307C242 313 251 310 254 302C256 295 258 284 258 268L258 86C254 61 243 38 224 20L223 19C212 9 198 4 181 4C119 4 59 63 48 122C43 147 48 169 63 183ZM232 468L261 497L232 526L203 497ZM90 497L119 468L148 497L119 526Z"  horiz-adv-x="344" vert-adv-y="1000"  />

      
      <glyph glyph-name="unie0" unicode="&#xe0;" d="M52 22C79-9 119-24 158-19C193-15 224 4 244 32C248 38 258 35 258 28L258 1L329 1L329 8C321 8 315 12 310 16C305 21 302 28 302 35L302 237C302 279 297 313 266 344C243 366 212 377 181 378C113 378 58 323 58 256L66 256C66 319 117 371 181 371C201 371 220 358 234 339C240 331 239 321 232 314C187 273 138 239 85 209C55 193 32 162 25 128C16 91 27 51 52 22ZM63 183C71 191 79 197 89 203C148 235 196 270 236 307C242 313 251 310 254 302C256 295 258 284 258 268L258 86C254 61 243 38 224 20L223 19C212 9 198 4 181 4C119 4 59 63 48 122C43 147 48 169 63 183ZM196 448L201 454L155 500L150 494Z"  horiz-adv-x="344" vert-adv-y="1000"  />

      
      <glyph glyph-name="unie5" unicode="&#xe5;" d="M52 22C79-9 119-24 158-19C193-15 224 4 244 32C248 38 258 35 258 28L258 1L329 1L329 8C321 8 315 12 310 16C305 21 302 28 302 35L302 237C302 279 297 313 266 344C243 366 212 377 181 378C113 378 58 323 58 256L66 256C66 319 117 371 181 371C201 371 220 358 234 339C240 331 239 321 232 314C187 273 138 239 85 209C55 193 32 162 25 128C16 91 27 51 52 22ZM63 183C71 191 79 197 89 203C148 235 196 270 236 307C242 313 251 310 254 302C256 295 258 284 258 268L258 86C254 61 243 38 224 20L223 19C212 9 198 4 181 4C119 4 59 63 48 122C43 147 48 169 63 183ZM176 448C199 448 217 466 217 489C217 512 199 531 176 531C153 531 134 512 134 489C134 466 153 448 176 448ZM142 489C142 508 157 523 176 523C194 523 210 508 210 489C210 470 194 455 176 455C157 455 142 470 142 489Z"  horiz-adv-x="344" vert-adv-y="1000"  />

      
      <glyph glyph-name="unie3" unicode="&#xe3;" d="M52 22C79-9 119-24 158-19C193-15 224 4 244 32C248 38 258 35 258 28L258 1L329 1L329 8C321 8 315 12 310 16C305 21 302 28 302 35L302 237C302 279 297 313 266 344C243 366 212 377 181 378C113 378 58 323 58 256L66 256C66 319 117 371 181 371C201 371 220 358 234 339C240 331 239 321 232 314C187 273 138 239 85 209C55 193 32 162 25 128C16 91 27 51 52 22ZM63 183C71 191 79 197 89 203C148 235 196 270 236 307C242 313 251 310 254 302C256 295 258 284 258 268L258 86C254 61 243 38 224 20L223 19C212 9 198 4 181 4C119 4 59 63 48 122C43 147 48 169 63 183ZM129 463L134 458C140 464 147 466 154 466C161 466 168 464 173 458C180 451 189 448 198 448C207 448 216 451 223 458L217 463C212 458 205 456 198 456C191 456 184 458 178 463C172 470 163 474 154 474C145 474 136 470 129 463Z"  horiz-adv-x="344" vert-adv-y="1000"  />

      
      <glyph glyph-name="unic7" unicode="&#xc7;" d="M29 301C44 132 181-4 350-19C363-21 377-21 390-21L390-64C390-104 358-137 317-137C269-137 230-176 230-224C230-272 269-311 317-311L453-311C497-311 534-275 534-230L526-230C526-270 493-303 453-303L317-303C273-303 238-268 238-224C238-180 273-145 317-145C362-145 398-108 398-64L398-20C586-12 736 144 736 333L736 341L674 341L674 333C691 333 705 320 706 304L707 301C712 217 685 150 631 93L622 84C565 30 488 4 404 9C226 21 70 177 58 356C52 437 77 512 128 568C129 570 131 571 132 573C134 575 136 577 138 578C190 630 260 658 337 658L348 658C365 657 378 643 378 626L386 626L386 687L378 687C282 686 195 647 132 583C61 512 19 411 29 301Z"  horiz-adv-x="764" vert-adv-y="1000"  />

      
      <glyph glyph-name="unie7" unicode="&#xe7;" d="M25 175C27 67 114-20 222-20L225-20L225-37C225-56 209-71 191-71C166-71 146-91 146-115C146-140 166-160 191-160L257-160C280-160 299-141 299-118L291-118C291-137 276-152 257-152L191-152C170-152 154-136 154-115C154-95 170-79 191-79C213-79 232-60 232-37L232-20C282-17 328 3 363 39L364 39L364 40C400 77 420 126 420 177L392 177C393 172 394 166 394 161C400 115 387 74 358 45C332 18 296 5 258 5C210 5 157 26 115 67C40 140 27 249 86 310C112 336 147 349 186 349L202 349C209 348 216 347 222 346L222 375L220 375C167 374 118 353 81 315C44 277 24 227 25 175Z"  horiz-adv-x="440" vert-adv-y="1000"  />

      
      <glyph glyph-name="unica" unicode="&#xca;" d="M371 0L371 36L363 36L363 35C363 20 351 8 335 8L119 8C103 8 90 21 90 37L90 250C90 271 108 288 129 288L234 288C255 288 273 271 273 250L280 250L280 335L273 335C273 313 255 296 234 296L129 296C108 296 90 313 90 335L90 633C90 649 103 662 119 662L335 662C351 662 363 650 363 634L371 634L371 670L17 670L17 662C25 662 32 659 37 653C43 648 46 641 46 633L46 37C46 21 33 8 17 8L17 0ZM140 687L194 741L248 687L253 692L194 752L134 692Z"  horiz-adv-x="379" vert-adv-y="1000"  />

      
      <glyph glyph-name="unicb" unicode="&#xcb;" d="M370 0L370 36L363 36L363 35C363 20 350 8 335 8L119 8C103 8 90 21 90 37L90 249C90 271 108 288 129 288L234 288C255 288 272 271 272 249L280 249L280 334L272 334C272 313 255 296 234 296L129 296C108 296 90 313 90 334L90 632C90 648 103 661 119 661L335 661C350 661 363 649 363 634L370 634L370 669L17 669L17 661C33 661 46 648 46 632L46 37C46 21 33 8 17 8L17 0ZM222 717L251 688L280 717L251 746ZM137 688L166 717L137 746L108 717Z"  horiz-adv-x="378" vert-adv-y="1000"  />

      
      <glyph glyph-name="unic8" unicode="&#xc8;" d="M17 0L371 0L371 36L363 36L363 35C363 20 351 8 335 8L119 8C103 8 90 21 90 37L90 250C90 271 108 288 129 288L234 288C255 288 273 271 273 250L280 250L280 335L273 335C273 313 255 296 234 296L129 296C108 296 90 313 90 335L90 633C90 649 103 662 119 662L335 662C351 662 363 649 363 634L371 634L371 669L17 669L17 662C25 662 32 658 37 653C43 648 46 641 46 633L46 37C46 21 33 8 17 8ZM313 937L291 915L319 887L346 915L280 981L275 976ZM168 730L214 684L220 689L173 736Z"  horiz-adv-x="379" vert-adv-y="1000"  />

      
      <glyph glyph-name="unic9" unicode="&#xc9;" d="M17 669L17 662C25 662 32 658 37 653C43 648 46 641 46 633L46 37C46 21 33 8 17 8L17 0L371 0L371 36L363 36L363 35C363 20 351 8 335 8L119 8C103 8 90 21 90 37L90 250C90 271 108 288 129 288L234 288C255 288 273 271 273 250L280 250L280 335L273 335C273 313 255 296 234 296L129 296C108 296 90 313 90 335L90 633C90 649 103 662 119 662L335 662C351 662 363 649 363 634L371 634L371 669ZM273 915L300 887L328 915L306 937L344 976L339 981ZM168 689L173 684L220 730L214 736Z"  horiz-adv-x="379" vert-adv-y="1000"  />

      
      <glyph glyph-name="uniea" unicode="&#xea;" d="M25 177C26 122 51 62 96 28L99 25C133-3 177-18 222-18L224-18C333-16 419 70 419 179L391 179C399 130 394 84 357 47C331 20 296 7 258 7C217 7 174 22 136 51C130 56 128 64 132 71C187 163 226 268 226 376L219 376C167 375 118 354 81 316C44 279 24 229 25 177ZM86 311C112 337 146 351 186 351L199 351C201 351 203 351 207 350C212 348 217 343 217 337C212 287 194 192 127 77C123 71 114 70 109 75C78 106 63 142 52 184C44 231 54 278 86 311ZM163 447L169 442L222 495L275 442L280 447L222 505Z"  horiz-adv-x="438" vert-adv-y="1000"  />

      
      <glyph glyph-name="unieb" unicode="&#xeb;" d="M25 177C26 122 51 62 96 28L99 25C133-3 177-18 222-18L224-18C333-16 419 70 419 179L391 179C399 130 394 84 357 47C331 20 296 7 258 7C217 7 174 22 136 51C130 56 128 64 132 71C187 163 226 268 226 376L219 376C167 375 118 354 81 316C44 279 24 229 25 177ZM86 311C112 337 146 351 186 351L199 351C201 351 203 351 207 350C212 348 217 343 217 337C212 287 194 192 127 77C123 71 114 70 109 75C78 106 63 142 52 184C44 231 54 278 86 311ZM277 443L306 472L277 500L249 472ZM166 443L194 472L166 500L137 472Z"  horiz-adv-x="438" vert-adv-y="1000"  />

      
      <glyph glyph-name="unie8" unicode="&#xe8;" d="M25 177C26 122 51 62 96 28L99 25C133-3 177-18 222-18L224-18C333-16 419 70 419 179L391 179C399 130 394 84 357 47C331 20 296 7 258 7C217 7 174 22 136 51C130 56 128 64 132 71C187 163 226 268 226 376L219 376C167 375 118 354 81 316C44 279 24 229 25 177ZM86 311C112 337 146 351 186 351L199 351C201 351 203 351 207 350C212 348 217 343 217 337C212 287 194 192 127 77C123 71 114 70 109 75C78 106 63 142 52 184C44 231 54 278 86 311ZM241 443L247 449L202 494L196 489Z"  horiz-adv-x="438" vert-adv-y="1000"  />

      
      <glyph glyph-name="unie9" unicode="&#xe9;" d="M25 177C26 122 51 62 96 28L99 25C133-3 177-18 222-18L224-18C333-16 419 70 419 179L391 179C399 130 394 84 357 47C331 20 296 7 258 7C217 7 174 22 136 51C130 56 128 64 132 71C187 163 226 268 226 376L219 376C167 375 118 354 81 316C44 279 24 229 25 177ZM86 311C112 337 146 351 186 351L199 351C201 351 203 351 207 350C212 348 217 343 217 337C212 287 194 192 127 77C123 71 114 70 109 75C78 106 63 142 52 184C44 231 54 278 86 311ZM241 494L196 449L202 443L247 489Z"  horiz-adv-x="438" vert-adv-y="1000"  />

      
      <glyph glyph-name="uniec" unicode="&#xec;" d="M117 0L117 8C110 8 103 11 98 16C93 20 90 27 90 35L90 338C90 354 102 366 117 367L117 375L17 375L17 367C33 367 46 354 46 338L46 37C46 21 33 8 17 8L17 0ZM87 454L93 459L47 505L41 500Z"  horiz-adv-x="127" vert-adv-y="1000"  />

      
      <glyph glyph-name="uniee" unicode="&#xee;" d="M26 367C34 367 41 364 47 359C52 353 55 346 55 338L55 37C55 21 42 8 26 8L26 0L126 0L126 8C119 8 112 11 107 16C102 20 99 27 99 35L99 338C99 354 111 366 126 367L126 375L26 375ZM22 454L76 508L130 454L136 459L76 519L17 459Z"  horiz-adv-x="146" vert-adv-y="1000"  />

      
      <glyph glyph-name="unief" unicode="&#xef;" d="M33 0L134 0L134 8C126 8 119 11 115 16C110 20 107 27 107 35L107 338C107 354 118 366 134 367L134 375L33 375L33 367C41 367 49 364 54 359C59 353 62 346 62 338L62 37C62 21 49 8 33 8ZM121 454L150 483L121 512L92 483ZM46 454L75 483L46 512L17 483Z"  horiz-adv-x="160" vert-adv-y="1000"  />

      
      <glyph glyph-name="unied" unicode="&#xed;" d="M117 0L117 8C110 8 103 11 98 16C93 20 90 27 90 35L90 338C90 354 102 366 117 367L117 375L17 375L17 367C33 367 46 354 46 338L46 37C46 21 33 8 17 8L17 0ZM47 454L93 500L87 505L41 459Z"  horiz-adv-x="127" vert-adv-y="1000"  />

      
      <glyph glyph-name="unicc" unicode="&#xcc;" d="M8 669L8 662C16 662 23 658 28 653C34 648 37 641 37 633L37 37C37 21 24 8 8 8L8 0L108 0L108 8C101 8 94 11 89 16C84 20 81 27 81 35L81 633C81 648 93 660 108 661L108 669ZM195 937L173 915L201 887L228 915L162 981L157 976ZM32 730L79 684L84 689L38 736Z"  horiz-adv-x="125" vert-adv-y="1000"  />

      
      <glyph glyph-name="unicd" unicode="&#xcd;" d="M8 662C16 662 23 658 28 653C34 648 37 641 37 633L37 37C37 21 24 8 8 8L8 0L109 0L109 8C93 8 82 19 82 35L82 633C82 649 92 659 108 661L108 662C108 662 109 662 109 662L109 670L8 670ZM142 915L170 887L176 893L182 887L210 915L188 937L226 976L221 981L176 936L175 937L213 976L208 981ZM38 684L84 730L79 736L32 689Z"  horiz-adv-x="128" vert-adv-y="1000"  />

      
      <glyph glyph-name="unice" unicode="&#xce;" d="M117 0L117 8C109 8 103 11 98 16C93 20 90 27 90 35L90 633C90 648 102 660 117 661L117 669L16 669L16 662C32 662 45 649 45 633L45 37C45 21 32 8 16 8L16 0ZM7 692L12 687L71 741L121 687L126 692L72 752Z"  horiz-adv-x="144" vert-adv-y="1000"  />

      
      <glyph glyph-name="unicf" unicode="&#xcf;" d="M25 662C40 662 54 648 54 633L54 37C54 21 41 8 25 8L25 0L125 0L125 8C118 8 111 11 106 16C101 20 98 27 98 35L98 633C98 648 110 660 125 661L125 669L25 669ZM84 717L113 688L142 717L113 746ZM8 717L37 688L66 717L37 746Z"  horiz-adv-x="159" vert-adv-y="1000"  />

      
      <glyph glyph-name="unid2" unicode="&#xd2;" d="M130 87C199 19 289-16 379-16C469-16 559 19 627 87C763 224 764 447 627 584C559 652 469 686 379 686C289 686 199 652 130 584C-7 447-7 224 130 87ZM135 578C188 631 260 657 334 657C423 657 517 620 590 547C724 413 738 209 621 92C568 39 496 13 422 13C333 13 239 50 166 123C32 257 18 461 135 578ZM399 697L405 703L357 751L351 745Z"  horiz-adv-x="757" vert-adv-y="1000"  />

      
      <glyph glyph-name="unid6" unicode="&#xd6;" d="M130 86C199 18 289-17 379-17C469-17 559 18 627 86C763 223 764 446 627 583C559 651 469 685 379 685C289 685 199 651 130 583C-7 446-7 223 130 86ZM135 577C188 630 260 656 334 656C423 656 517 619 590 546C724 412 738 208 621 91C568 38 496 12 422 12C333 12 239 49 166 122C32 256 18 460 135 577ZM407 740L437 710L467 740L437 770ZM289 740L319 710L349 740L319 770Z"  horiz-adv-x="757" vert-adv-y="1000"  />

      
      <glyph glyph-name="unid4" unicode="&#xd4;" d="M130 88C199 20 289-15 379-15C469-15 559 20 627 88C763 225 764 448 627 585C559 653 469 687 379 687C289 687 199 653 130 585C-7 448-7 225 130 88ZM135 579C188 632 260 658 334 658C423 658 517 621 590 548C724 414 738 210 621 93C568 40 496 14 422 14C333 14 239 51 166 124C32 258 18 462 135 579ZM322 711L378 767L434 711L440 716L378 778L316 716Z"  horiz-adv-x="757" vert-adv-y="1000"  />

      
      <glyph glyph-name="unid5" unicode="&#xd5;" d="M130 88C199 20 289-15 379-15C469-15 559 20 627 88C763 225 764 448 627 585C559 653 469 687 379 687C289 687 199 653 130 585C-7 448-7 225 130 88ZM135 579C188 632 260 658 334 658C423 658 517 621 590 548C724 414 738 210 621 93C568 40 496 14 422 14C333 14 239 51 166 124C32 258 18 462 135 579ZM335 713C341 719 348 721 355 721C362 721 370 719 375 713C382 706 391 702 401 702C411 702 420 706 427 713L422 718C417 713 409 710 402 710C394 710 387 713 381 718C374 725 365 729 355 729C346 729 336 725 329 718Z"  horiz-adv-x="757" vert-adv-y="1000"  />

      
      <glyph glyph-name="unid3" unicode="&#xd3;" d="M130 88C199 20 289-15 379-15C469-15 559 20 627 88C763 225 764 448 627 585C559 653 469 687 379 687C289 687 199 653 130 585C-7 448-7 225 130 88ZM135 579C188 632 260 658 334 658C423 658 517 621 590 548C724 414 738 210 621 93C568 40 496 14 422 14C333 14 239 51 166 124C32 258 18 462 135 579ZM351 704L357 698L405 746L399 752Z"  horiz-adv-x="757" vert-adv-y="1000"  />

      
      <glyph glyph-name="unif4" unicode="&#xf4;" d="M84 38C123 1 172-18 222-18C271-18 320 0 358 36L368 46C402 84 419 131 419 179C419 288 331 376 222 376C173 376 124 358 86 322L76 312C5 234 8 112 84 38ZM82 307L91 316C117 340 150 351 186 351C286 351 383 262 394 163C399 120 388 80 362 51L353 42C328 19 294 7 258 7C156 7 63 95 50 195C45 239 56 278 82 307ZM169 445L222 498L275 445L280 451L222 509L163 451Z"  horiz-adv-x="444" vert-adv-y="1000"  />

      
      <glyph glyph-name="unif5" unicode="&#xf5;" d="M84 38C123 1 172-18 222-18C271-18 320 0 358 36L368 46C402 84 419 131 419 179C419 288 331 376 222 376C173 376 124 358 86 322L76 312C5 234 8 112 84 38ZM82 307L91 316C117 340 150 351 186 351C286 351 383 262 394 163C399 120 388 80 362 51L353 42C328 19 294 7 258 7C156 7 63 95 50 195C45 239 56 278 82 307ZM181 455C186 461 193 463 200 463C207 463 214 461 219 455C226 449 235 445 244 445C253 445 262 449 268 455L263 461C258 456 251 453 244 453C237 453 230 456 224 461C218 468 209 471 200 471C191 471 182 468 175 461Z"  horiz-adv-x="444" vert-adv-y="1000"  />

      
      <glyph glyph-name="unif6" unicode="&#xf6;" d="M84 38C123 1 172-18 222-18C271-18 320 0 358 36L368 46C402 84 419 131 419 179C419 288 331 376 222 376C173 376 124 358 86 322L76 312C5 234 8 112 84 38ZM82 307L91 316C117 340 150 351 186 351C286 351 383 262 394 163C399 120 388 80 362 51L353 42C328 19 294 7 258 7C156 7 63 95 50 195C45 239 56 278 82 307ZM278 445L306 474L278 502L249 474ZM138 474L166 445L194 474L166 502Z"  horiz-adv-x="444" vert-adv-y="1000"  />

      
      <glyph glyph-name="unif3" unicode="&#xf3;" d="M84 38C123 1 172-18 222-18C271-18 320 0 358 36L368 46C402 84 419 131 419 179C419 288 331 376 222 376C173 376 124 358 86 322L76 312C5 234 8 112 84 38ZM82 307L91 316C117 340 150 351 186 351C286 351 383 262 394 163C399 120 388 80 362 51L353 42C328 19 294 7 258 7C156 7 63 95 50 195C45 239 56 278 82 307ZM202 445L247 491L242 496L197 451Z"  horiz-adv-x="444" vert-adv-y="1000"  />

      
      <glyph glyph-name="unif2" unicode="&#xf2;" d="M84 38C123 1 172-18 222-18C271-18 320 0 358 36L368 46C402 84 419 131 419 179C419 288 331 376 222 376C173 376 124 358 86 322L76 312C5 234 8 112 84 38ZM82 307L91 316C117 340 150 351 186 351C286 351 383 262 394 163C399 120 388 80 362 51L353 42C328 19 294 7 258 7C156 7 63 95 50 195C45 239 56 278 82 307ZM242 445L247 451L202 496L197 491Z"  horiz-adv-x="444" vert-adv-y="1000"  />

      
      <glyph glyph-name="unid1" unicode="&#xd1;" d="M118 0L118 8C92 8 71 29 71 54L71 609C71 616 81 617 83 611L277 0L371 0L371 8C345 8 324 29 324 54L324 616C324 642 345 663 371 663L371 670L270 670L270 663C295 663 316 642 316 616L316 61C316 55 307 53 305 59L113 663L110 670L17 670L17 663C43 663 64 642 64 616L64 54C64 29 43 8 17 8L17 0ZM146 704L152 699C158 705 165 707 172 707C179 707 186 705 191 699C198 692 207 688 216 688C226 688 234 692 241 699L236 704C231 699 223 697 216 697C209 697 202 699 197 704C190 711 181 715 172 715C162 715 153 711 146 704Z"  horiz-adv-x="388" vert-adv-y="1000"  />

      
      <glyph glyph-name="unif1" unicode="&#xf1;" d="M15 0L118 0L118 8C102 8 89 21 89 37L90 273L90 308C92 351 130 369 168 369C206 369 247 352 247 307L247 269L246 55L246 37C246 21 232 9 217 9L217 1L290 0L319 0L319 8C304 8 290 22 290 37L292 253L292 256C290 324 235 377 168 377C149 377 129 371 112 362C101 357 88 364 88 376L88 377L15 377L15 369C30 369 44 355 44 340L44 37C44 23 29 9 15 9ZM125 466C131 472 138 474 145 474C152 474 159 472 164 466C171 459 180 455 189 455C198 455 207 459 214 466L209 471C204 466 196 464 189 464C182 464 175 466 170 471C163 478 154 482 145 482C136 482 127 478 120 471Z"  horiz-adv-x="329" vert-adv-y="1000"  />

      
      <glyph glyph-name="unidb" unicode="&#xdb;" d="M15 662C30 662 44 649 44 634L44 197C44 80 138-17 256-17C373-17 468 79 468 197L468 622C468 644 486 662 509 662L509 670L409 670L409 662C437 662 460 639 460 611L460 197C460 83 369-9 256-9L245-9C156-5 88 72 88 161L88 634C88 649 99 661 114 662L114 670L15 670ZM208 684L262 737L315 684L321 689L262 748L203 689Z"  horiz-adv-x="524" vert-adv-y="1000"  />

      
      <glyph glyph-name="unidc" unicode="&#xdc;" d="M15 662C30 662 44 649 44 634L44 197C44 80 138-17 256-17C373-17 468 79 468 197L468 622C468 644 486 662 509 662L509 670L409 670L409 662C437 662 460 639 460 611L460 197C460 83 369-9 256-9L245-9C156-5 88 72 88 161L88 634C88 649 99 661 114 662L114 670L15 670ZM318 685L347 714L318 743L289 714ZM205 685L234 714L205 743L177 714Z"  horiz-adv-x="524" vert-adv-y="1000"  />

      
      <glyph glyph-name="unida" unicode="&#xda;" d="M15 662C31 662 39 652 44 638L28 622L44 605L44 197C44 80 138-17 256-17C373-17 468 79 468 197L468 622C468 644 486 662 509 662L509 670L409 670L409 662C437 662 460 639 460 611L460 197C460 83 369-9 256-9L245-9C156-5 88 72 88 161L88 634C88 649 99 661 114 662L114 670L86 670L99 683L94 688L76 670L15 670ZM242 681L287 727L282 732L236 686Z"  horiz-adv-x="524" vert-adv-y="1000"  />

      
      <glyph glyph-name="unid9" unicode="&#xd9;" d="M44 634L44 197C44 80 138-17 256-17C373-17 468 79 468 197L468 622C468 644 486 662 509 662L509 670L409 670L409 662C437 662 460 639 460 611L460 197C460 83 369-9 256-9L245-9C156-5 88 72 88 161L88 609L101 622L88 635C89 650 99 661 114 662L114 670L53 670L35 688L30 683L43 670L15 670L15 662C30 662 44 649 44 634ZM236 727L282 681L287 686L242 732Z"  horiz-adv-x="524" vert-adv-y="1000"  />

      
      <glyph glyph-name="unifb" unicode="&#xfb;" d="M10 376L10 368C18 368 25 365 30 359C36 354 39 347 39 339L38 106L37 106L37 104C39 38 94-17 160-17C190-17 219-5 240 12L240 0L313 0L313 8C297 8 284 21 284 37L284 339C284 341 284 343 285 345L285 346C285 347 286 348 286 348C287 352 289 356 292 359C293 359 294 360 294 360C295 361 295 362 296 362C297 363 298 363 300 364L301 365C302 365 304 366 305 366C307 367 309 367 311 367L313 367L313 376L211 376L211 368C219 368 226 365 231 359C236 354 240 347 239 339L239 87L238 72L238 52C238 29 225 8 204-1L203-1C190-6 176-9 160-9C122-9 82 8 82 52L82 91L83 322L83 339C83 345 85 350 89 356L92 359C92 360 93 360 94 361L95 362C97 363 98 364 99 364L100 365C101 366 103 366 105 367L110 367L110 368L112 368L112 375L39 376ZM108 453L162 507L215 453L221 459L162 518L102 459Z"  horiz-adv-x="328" vert-adv-y="1000"  />

      
      <glyph glyph-name="unifc" unicode="&#xfc;" d="M10 368C18 368 25 365 30 359C36 354 39 347 39 339L38 106L37 106L37 104C39 38 94-17 160-17C190-17 219-5 240 12L240 0L313 0L313 8C297 8 284 21 284 37L284 339C284 341 284 343 285 345L285 346C285 347 286 348 286 348C287 352 289 356 292 359C293 359 294 360 294 360C295 361 295 362 296 362C297 363 298 363 300 364L301 365C302 365 304 366 305 366C307 367 309 367 311 367L313 367L313 376L211 376L211 368C219 368 226 365 231 359C236 354 240 347 239 339L239 87L238 72L238 52C238 29 225 8 204-1L203-1C190-6 176-9 160-9C122-9 82 8 82 52L82 91L83 322L83 339C83 345 85 350 89 356L92 359C92 360 93 360 94 361L95 362C97 363 98 364 99 364L100 365C101 366 103 366 105 367L110 367L110 368L112 368L112 375L39 376L10 376ZM218 453L247 482L218 511L189 482ZM76 482L105 453L134 482L105 511Z"  horiz-adv-x="328" vert-adv-y="1000"  />

      
      <glyph glyph-name="unifa" unicode="&#xfa;" d="M10 376L10 368C18 368 25 365 30 359C36 354 39 347 39 339L38 106L37 106L37 104C39 38 94-17 160-17C190-17 219-5 240 12L240 0L313 0L313 8C297 8 284 21 284 37L284 339C284 341 284 343 285 345L285 346C285 347 286 348 286 348C287 352 289 356 292 359C293 359 294 360 294 360C295 361 295 362 296 362C297 363 298 363 300 364L301 365C302 365 304 366 305 366C307 367 309 367 311 367L313 367L313 376L211 376L211 368C219 368 226 365 231 359C236 354 240 347 239 339L239 87L238 72L238 52C238 29 225 8 204-1L203-1C190-6 176-9 160-9C122-9 82 8 82 52L82 91L83 322L83 339C83 345 85 350 89 356L92 359C92 360 93 360 94 361L95 362C97 363 98 364 99 364L100 365C101 366 103 366 105 367L110 367L110 368L112 368L112 375L39 376ZM136 459L141 453L187 499L182 505Z"  horiz-adv-x="328" vert-adv-y="1000"  />

      
      <glyph glyph-name="unif9" unicode="&#xf9;" d="M10 376L10 368C18 368 25 365 30 359C36 354 39 347 39 339L38 106L37 106L37 104C39 38 94-17 160-17C190-17 219-5 240 12L240 0L313 0L313 8C297 8 284 21 284 37L284 339C284 341 284 343 285 345L285 346C285 347 286 348 286 348C287 352 289 356 292 359C293 359 294 360 294 360C295 361 295 362 296 362C297 363 298 363 300 364L301 365C302 365 304 366 305 366C307 367 309 367 311 367L313 367L313 376L211 376L211 368C219 368 226 365 231 359C236 354 240 347 239 339L239 87L238 72L238 52C238 29 225 8 204-1L203-1C190-6 176-9 160-9C122-9 82 8 82 52L82 91L83 322L83 339C83 345 85 350 89 356L92 359C92 360 93 360 94 361L95 362C97 363 98 364 99 364L100 365C101 366 103 366 105 367L110 367L110 368L112 368L112 375L39 376ZM182 453L187 459L141 505L136 499Z"  horiz-adv-x="328" vert-adv-y="1000"  />

      
      <glyph glyph-name="uniFB00" unicode="&#xFB00;" d="M10 366L28 366C34 366 40 361 40 355L39 54L39 37C39 21 26 8 10 8L10 0L116 0L116 8L115 8C108 8 100 11 95 17C90 22 87 29 87 37L86 54L86 99L85 345L85 354C85 361 91 366 98 366L238 366C244 366 250 361 250 355L249 54L249 37C249 21 236 8 220 8L220 0L325 0L325 8C317 8 310 11 305 17C300 22 296 29 296 37L296 99L295 345L295 354C295 361 301 366 307 366L421 366L421 374L307 374C300 374 295 380 295 387L295 500C295 538 321 570 356 580C361 581 367 582 372 582L378 582C422 582 460 546 460 501L460 500L467 500C467 551 427 590 377 590L335 590C329 590 323 590 318 589C279 579 250 543 250 501L250 483C244 494 237 504 230 512C214 527 192 537 168 537L125 537C119 537 114 536 108 535C69 525 40 490 40 448L40 386C40 379 34 374 28 374L10 374ZM85 387L85 446C85 491 124 529 168 529C191 529 219 518 232 498C242 485 249 469 250 452L250 386C250 379 244 374 238 374L98 374C91 374 85 380 85 387Z"  horiz-adv-x="437" vert-adv-y="1000"  />

      
      <glyph glyph-name="uniFB01" unicode="&#xFB01;" d="M28 370C35 370 40 364 41 358L39 55L39 37C39 21 26 8 10 8L10 0L116 0L116 8C108 8 101 12 96 17C90 22 87 29 87 37L87 100L86 343L86 357C86 364 91 370 98 370L205 370C213 370 220 366 225 361C231 356 234 348 234 340L234 37C234 21 221 8 205 8L205 0L305 0L305 8C290 8 278 20 278 35L278 340C278 356 290 368 305 369L305 377L98 377C91 377 86 383 86 390L86 503C86 541 112 574 147 584C157 587 177 587 187 584C216 579 241 556 248 527C251 518 248 508 242 501L226 486L255 457L284 486L266 504C262 508 259 513 258 518C250 562 213 594 169 594L126 594C78 594 41 553 41 505L41 389C40 382 35 377 28 377L10 377L10 370Z"  horiz-adv-x="320" vert-adv-y="1000"  />

      
      <glyph glyph-name="uniFB02" unicode="&#xFB02;" d="M10 8L10 0L116 0L116 8C108 8 101 11 96 17C90 22 87 29 87 37L87 100L86 343L86 357C86 364 91 369 98 369L137 369L137 377L98 377C91 377 86 383 86 390L86 503C86 541 112 574 147 583C153 586 161 587 168 587C187 587 207 578 207 557L207 37C207 21 194 8 178 8L178 0L279 0L279 8C264 8 252 20 252 35L252 527C252 566 203 594 169 594L126 594C120 594 114 594 109 593C69 582 41 547 41 504L41 389C40 382 35 377 28 377L10 377L10 369L28 369C35 369 40 364 41 358L39 54L39 37C39 21 26 8 10 8Z"  horiz-adv-x="294" vert-adv-y="1000"  />

      
      <glyph glyph-name="uniFB03" unicode="&#xFB03;" d="M10 0L116 0L116 8L115 8C100 8 87 22 87 37L86 54L86 99L85 346L85 355C85 362 91 367 98 367L238 367C244 367 250 362 250 356L249 54L249 37C249 21 236 8 220 8L220 0L325 0L325 8C310 8 296 22 296 37L296 99L295 341L295 355C295 362 301 367 307 367L413 367C421 367 429 364 434 359C439 353 442 346 442 338L442 37C442 21 429 8 413 8L413 0L513 0L513 8C506 8 499 11 494 16C489 20 486 27 486 35L486 338C486 353 498 366 513 367L513 375L307 375C301 375 295 380 295 387L295 500C295 538 321 572 356 580C370 583 380 584 396 581C411 577 425 569 436 558L442 552C447 546 451 538 454 530C459 518 456 504 447 495L434 483L463 454L492 483L475 499C471 504 467 511 466 517C460 558 418 591 377 591L335 591C329 591 323 590 318 589C279 579 250 543 250 501L250 483C232 515 208 537 168 537L125 537C119 537 114 536 108 535C69 525 40 491 40 448L40 387C40 380 34 375 28 375L10 375L10 367L28 367C34 367 40 362 40 356L39 54L39 37C39 21 26 8 10 8ZM85 447C85 491 124 529 168 529C212 529 248 495 250 451L250 387C250 380 244 375 238 375L98 375C91 375 85 381 85 387Z"  horiz-adv-x="528" vert-adv-y="1000"  />

      
      <glyph glyph-name="uniFB04" unicode="&#xFB04;" d="M10 375L10 367L28 367C34 367 40 362 40 356L39 54L39 37C39 21 26 8 10 8L10 0L116 0L116 8L115 8C108 8 100 11 95 17C90 22 87 29 87 37L86 54L86 99L85 346L85 355C85 362 91 367 98 367L238 367C244 367 250 362 250 355L249 54L249 37C249 21 236 8 220 8L220 0L325 0L325 8C317 8 310 11 305 17C300 22 296 29 296 37L296 99L295 341L295 355C295 362 301 367 307 367L346 367L346 375L307 375C301 375 295 380 295 387L295 500C295 538 321 570 356 580C361 581 367 582 372 582C381 582 393 583 401 579C403 578 405 576 407 574C413 569 416 562 416 554L416 37C416 21 403 8 387 8L387 0L487 0L487 8C480 8 473 11 468 16C463 20 460 27 460 35L460 512C460 550 427 590 387 590L335 590C329 590 323 590 318 589C279 579 250 543 250 501L250 483C234 516 206 537 168 537L125 537C119 537 114 536 108 535C69 525 40 490 40 448L40 386C40 380 34 375 28 375ZM85 447C85 485 111 517 147 526L162 529L168 529C191 529 219 518 232 498C243 485 249 469 250 451L250 386C250 380 244 375 238 375L98 375C91 375 85 380 85 387Z"  horiz-adv-x="502" vert-adv-y="1000"  />

      
      <glyph glyph-name="uniFB06" unicode="&#xFB06;" d="M24 236C29 217 40 200 54 186L65 176C77 167 89 160 103 155C119 148 135 143 151 137C159 134 167 132 175 129L198 122C211 117 223 109 232 98C256 74 246 39 225 18C208 2 185-8 161-8L158-8C134-8 111-1 94 12C91 15 87 17 84 20C69 35 61 53 61 72L53 72L53-12L61-12L61 8C61 17 72 22 79 15C106-12 140-15 158-15L161-15C169-15 177-14 184-13C219-5 256 18 264 55C269 74 266 95 257 113C243 138 225 150 201 162L165 176C148 181 132 187 116 192C89 201 61 218 49 245C43 259 40 274 43 289C46 304 54 318 65 330C92 359 135 372 176 367C220 363 266 334 279 290L288 290L288 316C280 320 272 325 265 331C234 362 217 392 223 438C229 493 274 537 329 543C402 552 465 495 465 423C465 383 443 343 409 321L409 312L410 69L410 67C410 26 438-9 476-18C482-19 487-20 493-20L535-20C581-20 619 16 623 62L623 69L616 69L616 68C616 24 581-10 538-10C496-10 454 21 454 67L455 300L455 330C455 348 469 363 487 363L515 363L515 370L487 370C475 370 466 382 469 393C472 409 473 425 471 441C463 499 416 545 358 551C280 559 215 499 215 423C215 410 217 398 220 386C223 376 214 366 203 369C188 374 171 376 154 376L153 376C99 376 43 347 25 294C19 275 18 255 24 236Z"  horiz-adv-x="623" vert-adv-y="1000"  />

      
      <glyph glyph-name="uni01C9" unicode="&#x01C9;" d="M38 578C43 573 46 565 46 557L46 0L45-219L45-225C45-265 73-301 113-309L172-310C177-310 183-309 189-308C228-298 257-263 257-220L257 12L258 323L258 340C258 356 271 369 287 369L287 377L181 377L181 369C197 369 210 356 210 340L211 323L212-14L212-220C212-258 186-289 150-300C145-301 140-302 135-302L129-302C109-302 90-296 90-273L91 0L91 594L17 594L17 586C25 586 32 583 38 578ZM233 457L262 486L233 515L204 486Z"  horiz-adv-x="302" vert-adv-y="1000"  />

      
      <glyph glyph-name="uni01CC" unicode="&#x01CC;" d="M15 8L15 0L118 0L118 8C103 8 91 19 89 34L89 37L90 273L90 287L91 308C91 352 129 368 168 368C206 368 248 354 248 308L248 268L246-219L246-225C246-265 274-301 314-309L373-310C378-310 384-309 390-308C429-298 458-263 458-220L458 12L459 323L459 340C459 356 472 369 488 369L488 377L382 377L382 369C398 369 411 356 411 340L412 323L413-14L413-220C413-258 387-289 351-300C346-301 341-302 336-302L330-302C310-302 291-296 291-273L292 0L292 30C291 126 293 271 290 276C280 334 228 377 169 377C149 377 130 372 112 363C102 357 89 365 89 377L15 377L15 369C23 369 30 366 36 361C41 355 44 348 44 340L44 36C44 22 28 8 15 8ZM405 486L434 457L463 486L434 515Z"  horiz-adv-x="503" vert-adv-y="1000"  />

      

  </font>
</defs>
</svg>
