<svg width="189" height="189" viewBox="0 0 189 189" fill="none" xmlns="http://www.w3.org/2000/svg">
<g clip-path="url(#clip0_77_13351)">
<rect width="189" height="189" fill="white"/>
<rect width="189" height="189" fill="#0D0D10"/>
<path d="M72.1604 148.331H55.8456V147.027H57.961L22.4047 43.4057C21.7382 41.3478 20.2893 40.3043 18 40.3043V39H31.8806V40.3043C31.1272 40.3043 30.5766 40.5362 30.2578 40.971C29.939 41.4057 29.7652 41.8985 29.7652 42.4492C29.7652 43.1158 33.1846 53.1156 40.0525 72.4775L64.5101 143.461C64.713 144.012 65.1766 144.273 65.8141 144.273C66.3647 144.273 66.7415 144.012 66.9443 143.461C89.8951 77.8397 101.37 44.9419 101.37 44.71C101.37 43.5216 100.936 42.4782 100.066 41.6086C99.1971 40.7391 98.1539 40.3043 96.9658 40.3043V39H110.846V40.3043C106.934 40.3043 104.094 42.3043 102.356 46.3332C79.9555 110.419 68.741 142.65 68.741 143.085C68.741 143.954 69.0307 144.824 69.6393 145.693C70.2478 146.563 71.2331 146.998 72.653 146.998L72.1604 148.302V148.331Z" fill="#FF6624" stroke="#FF6624" stroke-miterlimit="10"/>
<path d="M75.652 102.63C76.8463 100.44 78.3392 98.2165 80.1307 95.9601C86.9649 87.2 96.1547 79.9663 107.7 74.259C101.795 72.7989 96.1215 72.2017 90.6806 72.4671C84.8417 72.8653 79.7989 74.4912 75.5524 77.3449C70.5097 80.7958 68.0878 85.2091 68.2869 90.5846C68.486 95.6283 70.941 99.6433 75.652 102.63ZM145.421 104.422C147.743 103.161 149.767 102.032 151.492 101.037C153.217 100.041 154.644 99.1124 155.772 98.2496C160.217 94.9978 163.402 91.3146 165.327 87.2C166.388 85.01 166.919 82.8531 166.919 80.7295C166.919 76.8803 164.995 73.9271 161.146 71.8698C157.431 69.9453 152.487 68.983 146.317 68.983C136.629 68.983 126.477 71.173 115.861 75.5531C120.97 77.7431 125.98 80.5967 130.89 84.114C134.207 86.4368 137.293 89.1909 140.146 92.3764C143.795 96.4246 145.62 99.9419 145.62 102.928C145.62 103.26 145.554 103.758 145.421 104.422ZM169.009 86.5032C164.696 94.4669 156.303 101.369 143.828 107.209L143.629 107.308C143.099 107.507 142.701 107.607 142.435 107.607C142.037 107.607 141.904 107.441 142.037 107.109C142.17 106.777 142.468 106.412 142.933 106.014C143.464 105.085 143.729 104.09 143.729 103.028C143.729 100.041 141.772 96.3914 137.857 92.0778C135.07 89.0914 132.482 86.7354 130.094 85.01C124.985 81.3599 119.643 78.4731 114.07 76.3494C100.998 82.0568 90.6807 89.8214 83.1165 99.6433C81.7895 101.369 80.5952 103.061 79.5335 104.72C83.7801 106.446 88.3252 107.308 93.1688 107.308C99.1405 107.308 102.69 106.213 103.818 104.023C103.951 103.692 104.183 103.625 104.515 103.824C104.913 104.023 105.013 104.322 104.814 104.72C104.216 105.915 102.657 106.91 100.136 107.707C97.6808 108.437 94.7613 108.802 91.3773 108.802C86.7327 108.802 82.4198 108.038 78.4387 106.512C75.1211 112.219 73.4623 117.495 73.4623 122.34C73.4623 129.175 76.6141 134.584 82.9175 138.566C89.3536 142.481 97.913 144.439 108.596 144.439C109.923 144.439 111.283 144.406 112.676 144.34C114.07 144.273 115.496 144.174 116.956 144.041C124.918 143.377 131.388 142.382 136.364 141.055C145.321 138.798 152.454 135.215 157.762 130.304C158.227 129.905 158.592 129.706 158.857 129.706C159.255 129.706 159.421 130.005 159.355 130.602C159.222 131.133 158.957 131.598 158.559 131.996C154.179 135.779 147.312 139.329 137.956 142.647C134.042 143.975 130.359 145.07 126.909 145.932C123.458 146.795 120.207 147.426 117.155 147.824C113.837 148.222 110.619 148.421 107.501 148.421C92.2399 148.421 81.4246 144.074 75.0548 135.38C68.7514 126.554 68.6187 116.268 74.6567 104.521C69.4149 101.269 66.794 96.5905 66.794 90.485C66.6613 84.5786 69.2158 79.734 74.4576 75.9512C78.9695 72.5003 84.344 70.6421 90.5811 70.3766C96.6191 70.1112 103.055 71.0735 109.89 73.2635C123.226 67.158 136.563 64.1052 149.9 64.1052C157.265 64.1052 162.772 65.6316 166.421 68.6844C169.473 71.1398 171 74.4249 171 78.5395C171 81.3268 170.336 83.9813 169.009 86.5032Z" fill="#FFF0D4"/>
</g>
<defs>
<clipPath id="clip0_77_13351">
<rect width="189" height="189" fill="white"/>
</clipPath>
</defs>
</svg>
