<svg width="808" height="333" viewBox="0 0 808 333" fill="none" xmlns="http://www.w3.org/2000/svg">
<path d="M68.0405 139.919H47.8459V138.305H50.4644L6.4522 10.0412C5.6272 7.4939 3.83371 6.20229 1 6.20229V4.58779H18.1816V6.20229C17.249 6.20229 16.5675 6.48932 16.1729 7.02748C15.7783 7.56565 15.5631 8.17558 15.5631 8.85726C15.5631 9.68245 19.7957 22.0603 28.2969 46.0267L58.5709 133.892C58.822 134.573 59.3959 134.896 60.1851 134.896C60.8666 134.896 61.3329 134.573 61.584 133.892C89.9928 52.6642 104.197 11.9428 104.197 11.6557C104.197 10.1847 103.659 8.89313 102.583 7.8168C101.507 6.74046 100.216 6.20229 98.745 6.20229V4.58779H115.927V6.20229C111.084 6.20229 107.569 8.67787 105.417 13.6649C77.6895 92.9909 63.8079 132.887 63.8079 133.425C63.8079 134.502 64.1666 135.578 64.9199 136.654C65.6731 137.731 66.8927 138.269 68.6503 138.269L68.0405 139.883V139.919Z" fill="#0D0D10"/>
<path d="M233.83 139.919H213.421V138.305C216.111 138.305 218.191 137.444 219.698 135.686C221.168 133.928 221.922 132.062 221.922 130.017L221.707 128.618C218.622 112.329 211.089 98.9466 199.18 88.542C187.272 78.1016 173.103 72.8993 156.675 72.8993H143.546C141 72.8993 138.812 73.7962 136.982 75.626C135.153 77.4558 134.256 79.7161 134.256 82.4069V132.887C134.256 134.502 134.758 135.829 135.763 136.834C136.767 137.838 138.094 138.341 139.708 138.341V139.955H119.298V138.341C120.913 138.341 122.276 137.766 123.423 136.618C124.571 135.47 125.145 134.107 125.145 132.492V11.871C125.145 10.2565 124.571 8.89313 123.423 7.74504C122.276 6.59695 120.913 6.0229 119.298 6.0229V4.4084H139.708V6.0229C138.094 6.16642 136.767 6.77634 135.763 7.85268C134.758 8.92901 134.256 10.2924 134.256 11.9069V61.9924C134.256 64.5397 135.153 66.7642 136.982 68.6657C138.812 70.5672 141 71.5 143.546 71.5H162.127C166.826 71.5 170.807 69.8138 174.036 66.4413C177.264 63.0687 178.878 59.0863 178.878 54.5298V19.5489C178.878 14.4183 180.707 10.0771 184.33 6.52519C187.953 2.97328 192.257 1.17939 197.243 1.17939H205.924C213.062 1.17939 218.514 4.48015 222.28 11.0817C225.114 15.6741 228.952 17.9344 233.795 17.9344V19.5489H213.385V17.9344C216.075 17.9344 217.976 16.7145 219.052 14.3107C219.447 13.4855 219.662 12.6962 219.662 11.871C219.662 10.4 219.052 8.96489 217.833 7.63741C214.604 4.26489 210.623 2.57863 205.924 2.57863C203.628 2.57863 202.229 2.72214 201.691 2.97328C193.334 6.05878 189.173 11.584 189.173 19.5489V54.4939C189.173 59.4809 187.451 63.7145 184.007 67.2306C180.564 70.7466 176.295 72.6123 171.202 72.8993C185.084 76.1283 196.669 82.9092 206.031 93.2062C215.393 103.503 221.204 115.666 223.5 129.658C223.895 132.205 225.078 134.286 227.051 135.937C228.988 137.551 231.248 138.376 233.83 138.376V139.991V139.919Z" fill="#0D0D10"/>
<path d="M288.352 143.363C276.515 143.363 266.4 139.13 258.078 130.627C249.721 122.16 245.56 111.97 245.56 100.131V11.871C245.56 10.2565 244.986 8.89313 243.838 7.74504C242.69 6.59695 241.327 6.0229 239.713 6.0229V4.62367H259.693V6.0229C258.222 6.16641 256.966 6.81222 255.962 7.96031C254.958 9.1084 254.456 10.4359 254.456 11.9069V107.45C254.456 116.455 257.469 124.276 263.531 130.878C270.131 138.161 278.417 141.785 288.352 141.785C299.795 141.785 309.551 137.731 317.622 129.55C325.693 121.406 329.746 111.612 329.746 100.166V16.4992C329.746 13.5214 328.742 11.0458 326.733 9.03665C324.724 7.02748 322.214 6.0229 319.272 6.0229V4.62367H339.467V6.0229C337.315 6.0229 335.378 6.84809 333.728 8.4626C332.042 10.0771 331.217 12.0145 331.217 14.3107V100.166C331.217 112.006 327.056 122.195 318.698 130.663C310.341 139.13 300.261 143.399 288.424 143.399L288.352 143.363Z" fill="#0D0D10"/>
<path d="M392.554 143.973C384.734 143.973 377.489 141.139 370.745 135.506C369.669 134.573 368.521 134.107 367.302 134.107C365.939 134.107 364.755 134.609 363.679 135.614C362.603 136.618 362.065 137.874 362.065 139.345H360.666V112.473H362.065C362.065 120.294 364.719 126.967 370.028 132.564C375.337 138.161 381.973 141.354 389.936 142.144H390.761C396.823 142.144 402.347 140.601 407.332 137.515C415.69 132.134 419.851 125.209 419.851 116.706V115.307C419.851 110.607 418.631 106.158 416.228 101.96C412.462 95.5023 406.005 90.7665 396.858 87.8245C394.312 86.9993 391.335 85.8153 387.963 84.2008C386.349 83.5191 384.77 82.8733 383.228 82.2634C381.686 81.6535 380.251 81.0435 378.995 80.4336C377.704 79.8237 376.413 79.2497 375.05 78.7115C363.32 73.0428 355.788 63.8939 352.416 51.229C351.591 48 351.196 44.771 351.196 41.542C351.196 38.8512 351.447 36.1603 352.021 33.4695C354.03 24.4641 358.478 17.0374 365.365 11.2611C372.897 4.80306 381.865 1.57405 392.231 1.57405C394.922 1.57405 397.612 1.89695 400.302 2.57863C407.297 4.04962 413.359 7.02748 418.488 11.4763C420.102 12.6962 421.716 13.3061 423.33 13.3061C425.196 13.3061 426.846 12.6962 428.173 11.4763C429.5 10.2565 430.181 8.57023 430.181 6.41756H431.58V34.0794L430.181 34.2947C426.559 19.3336 417.376 9.50306 402.705 4.80306C399.477 3.87023 396.177 3.40382 392.805 3.40382C382.726 3.40382 374.009 6.77634 366.764 13.4855C359.482 20.2305 355.859 28.5542 355.859 38.5283C355.859 42.2954 356.541 45.9909 357.868 49.6504C361.634 60.0191 368.45 67.2306 378.278 71.2489L384.734 73.868C387.819 75.0878 390.868 76.3436 393.81 77.7069L397.648 79.3214C401.163 80.6848 404.499 82.2275 407.727 83.9497C413.107 86.784 417.34 90.8741 420.461 96.2558L421.86 99.0901C423.725 103.539 424.693 108.06 424.693 112.616C424.693 122.447 420.712 130.447 412.785 136.654C407.799 140.565 404.248 142.502 402.095 142.502C399.011 143.435 395.818 143.902 392.59 143.902L392.554 143.973Z" fill="#0D0D10"/>
<path d="M496.146 139.919L456.976 16.4992C456.833 16.1046 456.582 15.8176 456.151 15.6741C455.757 15.6741 455.362 15.7458 455.039 15.8893C454.716 16.0328 454.537 16.3557 454.537 16.8939V128.976C454.537 131.524 455.47 133.712 457.371 135.542C459.272 137.372 461.46 138.269 464.042 138.269V139.883H443.633V138.269C446.323 138.269 448.583 137.372 450.412 135.542C452.241 133.712 453.138 131.524 453.138 128.976V15.4947C453.138 12.8038 452.241 10.5794 450.412 8.82138C448.583 7.06336 446.323 6.20229 443.633 6.20229V4.58779H462.428L501.813 128.008C501.957 128.402 502.136 128.618 502.423 128.618H502.818C503.643 128.618 504.037 128.295 504.037 127.613V15.4947C504.037 12.8038 503.14 10.5794 501.311 8.82138C499.482 7.06336 497.294 6.20229 494.747 6.20229V4.58779H515.157V6.20229C512.61 6.20229 510.386 7.06336 508.485 8.82138C506.584 10.5794 505.651 12.8038 505.651 15.4947V129.012C505.651 131.56 506.584 133.748 508.485 135.578C510.35 137.408 512.574 138.305 515.157 138.305V139.919H496.146Z" fill="#0D0D10"/>
<path d="M590.627 143.758C581.48 143.758 572.513 142 563.76 138.52C555.008 135.004 547.117 129.766 540.122 122.77C526.133 108.239 519.138 91.4123 519.138 72.2893C519.138 66.226 520.322 58.7275 522.654 49.758C525.021 40.7886 530.832 31.5321 540.122 21.9886C547.117 14.9924 555.008 9.71833 563.76 6.23817C572.513 2.72214 581.444 1 590.627 1C599.809 1 608.705 2.75802 617.386 6.23817C626.066 9.7542 633.922 14.9924 640.916 21.9886C654.905 36.268 661.936 53.0229 661.936 72.2893C661.936 78.3527 660.752 85.8871 658.385 94.9283C656.017 103.97 650.206 113.226 640.916 122.805C633.922 129.802 626.066 135.076 617.386 138.556C608.705 142.036 599.774 143.794 590.627 143.794V143.758ZM599.522 137.695C607.055 137.695 614.301 136.331 621.224 133.641C628.147 130.95 634.316 126.895 639.697 121.514C650.458 110.069 655.838 96.5428 655.838 80.9C655.838 79.5367 655.515 74.155 654.834 64.755C654.152 55.3191 647.014 43.5512 633.419 29.4153C625.887 22.0244 617.637 16.4275 608.669 12.6603C599.702 8.89313 590.734 6.99161 581.695 6.99161C574.163 6.99161 566.917 8.35497 559.994 11.0458C553.071 13.7366 546.83 17.7908 541.306 23.1725C530.545 34.4741 525.165 47.8206 525.165 63.1764C525.165 64.7909 525.451 70.3161 526.061 79.7519C526.671 89.1878 533.845 101.028 547.583 115.307C555.116 122.698 563.402 128.295 572.405 132.062C581.408 135.829 590.447 137.731 599.451 137.731L599.522 137.695Z" fill="#0D0D10"/>
<path d="M755.807 139.919H735.612V138.305C737.226 138.305 738.589 137.731 739.737 136.583C740.885 135.434 741.459 134.071 741.459 132.457L741.244 11.6557C741.244 10.5794 740.921 9.57481 740.239 8.64199L740.024 8.24733C739.092 6.88397 737.621 6.23817 735.576 6.23817H691.744C689.986 6.23817 688.587 6.81222 687.511 7.96031C686.435 9.1084 685.897 10.4718 685.897 12.0863V72.4687C685.897 74.6214 686.65 76.4512 688.121 77.9222C689.591 79.3932 691.421 80.1466 693.573 80.1466H714.987C717.139 80.1466 719.005 79.3573 720.547 77.8145C722.089 76.2718 722.879 74.4062 722.879 72.2535H724.493V89.439H722.879C722.879 87.2863 722.125 85.4207 720.655 83.8779C719.184 82.3352 717.283 81.5458 714.987 81.5458H693.573C691.421 81.5458 689.591 82.2993 688.121 83.7703C686.65 85.2413 685.897 87.1428 685.897 89.439V132.851C685.897 134.322 686.435 135.614 687.511 136.69C688.587 137.766 689.878 138.305 691.349 138.305V139.919H670.939V138.305C672.553 138.305 673.916 137.731 675.064 136.583C676.212 135.434 676.786 134.071 676.786 132.457V12.0863C676.786 10.4718 676.212 9.1084 675.064 7.96031C673.916 6.81222 672.553 6.23817 670.939 6.23817V4.62367H807.244V11.6916H805.845C805.845 10.2206 805.271 8.92901 804.123 7.85268C802.976 6.77634 801.648 6.23817 800.178 6.23817H756.166C754.552 6.23817 753.189 6.81222 752.041 7.96031C750.893 9.1084 750.319 10.4718 750.319 12.0863V72.4687C750.319 74.6214 751.072 76.4512 752.543 77.9222C754.013 79.3932 755.843 80.1466 757.995 80.1466H779.589C781.597 80.1466 783.427 79.3214 785.041 77.7069C786.655 76.0924 787.48 74.2626 787.48 72.2535H788.879V89.439H787.48C787.48 87.2863 786.691 85.4207 785.148 83.8779C783.606 82.3352 781.741 81.5458 779.589 81.5458H757.995C755.843 81.5458 754.013 82.2993 752.543 83.7703C751.072 85.2413 750.319 87.1428 750.319 89.439V132.851C750.319 134.322 750.857 135.614 751.933 136.69C753.009 137.766 754.3 138.305 755.771 138.305V139.919H755.807Z" fill="#0D0D10"/>
<path d="M289.321 268.003C289.106 226.205 288.855 184.372 288.639 142.574L289.321 268.003Z" fill="#0D0D10"/>
<path d="M287.527 268.003C288.926 232.412 288.066 193.844 286.738 158.253C286.523 155.634 286.738 153.015 286.2 150.431C285.555 147.812 283.761 145.229 283.725 142.61L293.589 142.538C293.589 145.157 291.796 147.776 291.186 150.396C290.505 155.526 290.541 168.514 290.254 173.931C289.859 192.086 290.074 218.241 290.11 236.646C290.218 247.086 290.433 257.563 291.15 268.003H287.527Z" fill="#0D0D10"/>
<path d="M265.217 269.725C265.217 270.228 277.161 269.869 289.213 269.869C302.198 269.869 314.466 270.335 314.502 269.797C314.502 269.331 305.749 267.752 297.75 265.851C296.28 265.492 291.545 264.344 290.397 262.442C290.289 262.263 289.895 261.509 289.285 261.509C288.639 261.509 288.173 262.299 288.03 262.478C286.846 264.344 282.362 265.707 280.067 266.389C273.036 268.541 265.181 269.331 265.217 269.725Z" fill="#0D0D10"/>
<path d="M289.321 268.003C289.106 226.205 288.855 184.372 288.639 142.574M68.0405 139.919H47.8459V138.305H50.4644L6.4522 10.0412C5.6272 7.4939 3.83371 6.20229 1 6.20229V4.58779H18.1816V6.20229C17.249 6.20229 16.5675 6.48932 16.1729 7.02748C15.7783 7.56565 15.5631 8.17558 15.5631 8.85726C15.5631 9.68245 19.7957 22.0603 28.2969 46.0267L58.5709 133.892C58.822 134.573 59.3959 134.896 60.1851 134.896C60.8666 134.896 61.3329 134.573 61.584 133.892C89.9928 52.6642 104.197 11.9428 104.197 11.6557C104.197 10.1847 103.659 8.89313 102.583 7.8168C101.507 6.74046 100.216 6.20229 98.745 6.20229V4.58779H115.927V6.20229C111.084 6.20229 107.569 8.67787 105.417 13.6649C77.6895 92.9909 63.8079 132.887 63.8079 133.425C63.8079 134.502 64.1666 135.578 64.9199 136.654C65.6731 137.731 66.8927 138.269 68.6503 138.269L68.0405 139.883V139.919ZM233.83 139.919H213.421V138.305C216.111 138.305 218.191 137.444 219.698 135.686C221.168 133.928 221.922 132.062 221.922 130.017L221.707 128.618C218.622 112.329 211.089 98.9466 199.18 88.542C187.272 78.1016 173.103 72.8993 156.675 72.8993H143.546C141 72.8993 138.812 73.7962 136.982 75.626C135.153 77.4558 134.256 79.7161 134.256 82.4069V132.887C134.256 134.502 134.758 135.829 135.763 136.834C136.767 137.838 138.094 138.341 139.708 138.341V139.955H119.298V138.341C120.913 138.341 122.276 137.766 123.423 136.618C124.571 135.47 125.145 134.107 125.145 132.492V11.871C125.145 10.2565 124.571 8.89313 123.423 7.74504C122.276 6.59695 120.913 6.0229 119.298 6.0229V4.4084H139.708V6.0229C138.094 6.16642 136.767 6.77634 135.763 7.85268C134.758 8.92901 134.256 10.2924 134.256 11.9069V61.9924C134.256 64.5397 135.153 66.7642 136.982 68.6657C138.812 70.5672 141 71.5 143.546 71.5H162.127C166.826 71.5 170.807 69.8138 174.036 66.4413C177.264 63.0687 178.878 59.0863 178.878 54.5298V19.5489C178.878 14.4183 180.707 10.0771 184.33 6.52519C187.953 2.97328 192.257 1.17939 197.243 1.17939H205.924C213.062 1.17939 218.514 4.48015 222.28 11.0817C225.114 15.6741 228.952 17.9344 233.795 17.9344V19.5489H213.385V17.9344C216.075 17.9344 217.976 16.7145 219.052 14.3107C219.447 13.4855 219.662 12.6962 219.662 11.871C219.662 10.4 219.052 8.96489 217.833 7.63741C214.604 4.26489 210.623 2.57863 205.924 2.57863C203.628 2.57863 202.229 2.72214 201.691 2.97328C193.334 6.05878 189.173 11.584 189.173 19.5489V54.4939C189.173 59.4809 187.451 63.7145 184.007 67.2306C180.564 70.7466 176.295 72.6123 171.202 72.8993C185.084 76.1283 196.669 82.9092 206.031 93.2062C215.393 103.503 221.204 115.666 223.5 129.658C223.895 132.205 225.078 134.286 227.051 135.937C228.988 137.551 231.248 138.376 233.83 138.376V139.991V139.919ZM288.352 143.363C276.515 143.363 266.4 139.13 258.078 130.627C249.721 122.16 245.56 111.97 245.56 100.131V11.871C245.56 10.2565 244.986 8.89313 243.838 7.74504C242.69 6.59695 241.327 6.0229 239.713 6.0229V4.62367H259.693V6.0229C258.222 6.16641 256.966 6.81222 255.962 7.96031C254.958 9.1084 254.456 10.4359 254.456 11.9069V107.45C254.456 116.455 257.469 124.276 263.531 130.878C270.131 138.161 278.417 141.785 288.352 141.785C299.795 141.785 309.551 137.731 317.622 129.55C325.693 121.406 329.746 111.612 329.746 100.166V16.4992C329.746 13.5214 328.742 11.0458 326.733 9.03665C324.724 7.02748 322.214 6.0229 319.272 6.0229V4.62367H339.467V6.0229C337.315 6.0229 335.378 6.84809 333.728 8.4626C332.042 10.0771 331.217 12.0145 331.217 14.3107V100.166C331.217 112.006 327.056 122.195 318.698 130.663C310.341 139.13 300.261 143.399 288.424 143.399L288.352 143.363ZM392.554 143.973C384.735 143.973 377.489 141.139 370.745 135.506C369.669 134.573 368.521 134.107 367.302 134.107C365.939 134.107 364.755 134.609 363.679 135.614C362.603 136.618 362.065 137.874 362.065 139.345H360.666V112.473H362.065C362.065 120.294 364.719 126.967 370.028 132.564C375.337 138.161 381.973 141.354 389.936 142.144H390.761C396.823 142.144 402.347 140.601 407.332 137.515C415.69 132.134 419.851 125.209 419.851 116.706V115.307C419.851 110.607 418.631 106.158 416.228 101.96C412.462 95.5023 406.005 90.7665 396.858 87.8245C394.312 86.9993 391.335 85.8153 387.963 84.2008C386.349 83.5191 384.77 82.8733 383.228 82.2634C381.686 81.6535 380.251 81.0436 378.995 80.4336C377.704 79.8237 376.413 79.2497 375.05 78.7115C363.32 73.0428 355.788 63.8939 352.416 51.229C351.591 48 351.196 44.771 351.196 41.542C351.196 38.8512 351.447 36.1603 352.021 33.4695C354.03 24.4641 358.478 17.0374 365.365 11.2611C372.897 4.80306 381.865 1.57405 392.231 1.57405C394.921 1.57405 397.612 1.89695 400.302 2.57863C407.297 4.04962 413.359 7.02748 418.488 11.4763C420.102 12.6962 421.716 13.3061 423.33 13.3061C425.196 13.3061 426.846 12.6962 428.173 11.4763C429.5 10.2565 430.181 8.57023 430.181 6.41756H431.58V34.0794L430.181 34.2947C426.559 19.3336 417.376 9.50306 402.705 4.80306C399.477 3.87023 396.177 3.40382 392.805 3.40382C382.726 3.40382 374.009 6.77634 366.764 13.4855C359.482 20.2305 355.859 28.5542 355.859 38.5283C355.859 42.2954 356.541 45.9909 357.868 49.6504C361.634 60.0191 368.45 67.2306 378.278 71.2489L384.734 73.868C387.819 75.0878 390.868 76.3436 393.81 77.7069L397.648 79.3214C401.163 80.6848 404.499 82.2275 407.727 83.9497C413.107 86.784 417.34 90.8741 420.461 96.2558L421.86 99.0901C423.725 103.539 424.693 108.06 424.693 112.616C424.693 122.447 420.712 130.447 412.785 136.654C407.799 140.565 404.248 142.502 402.095 142.502C399.011 143.435 395.818 143.902 392.59 143.902L392.554 143.973ZM496.146 139.919L456.976 16.4992C456.833 16.1046 456.582 15.8176 456.151 15.6741C455.757 15.6741 455.362 15.7458 455.039 15.8893C454.716 16.0328 454.537 16.3557 454.537 16.8939V128.976C454.537 131.524 455.47 133.712 457.371 135.542C459.272 137.372 461.46 138.269 464.042 138.269V139.883H443.633V138.269C446.323 138.269 448.583 137.372 450.412 135.542C452.241 133.712 453.138 131.524 453.138 128.976V15.4947C453.138 12.8038 452.241 10.5794 450.412 8.82138C448.583 7.06336 446.323 6.20229 443.633 6.20229V4.58779H462.428L501.813 128.008C501.957 128.402 502.136 128.618 502.423 128.618H502.818C503.643 128.618 504.037 128.295 504.037 127.613V15.4947C504.037 12.8038 503.14 10.5794 501.311 8.82138C499.482 7.06336 497.294 6.20229 494.747 6.20229V4.58779H515.157V6.20229C512.61 6.20229 510.386 7.06336 508.485 8.82138C506.584 10.5794 505.651 12.8038 505.651 15.4947V129.012C505.651 131.56 506.584 133.748 508.485 135.578C510.35 137.408 512.574 138.305 515.157 138.305V139.919H496.146ZM590.627 143.758C581.48 143.758 572.513 142 563.76 138.52C555.008 135.004 547.117 129.766 540.122 122.77C526.133 108.239 519.138 91.4123 519.138 72.2893C519.138 66.226 520.322 58.7275 522.654 49.758C525.021 40.7886 530.832 31.5321 540.122 21.9886C547.117 14.9924 555.008 9.71833 563.76 6.23817C572.513 2.72214 581.444 1 590.627 1C599.809 1 608.705 2.75802 617.386 6.23817C626.066 9.7542 633.922 14.9924 640.916 21.9886C654.905 36.268 661.936 53.0229 661.936 72.2893C661.936 78.3527 660.752 85.8871 658.385 94.9283C656.017 103.97 650.206 113.226 640.916 122.805C633.922 129.802 626.066 135.076 617.386 138.556C608.705 142.036 599.774 143.794 590.627 143.794V143.758ZM599.522 137.695C607.055 137.695 614.301 136.331 621.224 133.641C628.147 130.95 634.316 126.895 639.697 121.514C650.458 110.069 655.838 96.5428 655.838 80.9C655.838 79.5367 655.515 74.155 654.834 64.755C654.152 55.3191 647.014 43.5512 633.419 29.4153C625.887 22.0244 617.637 16.4275 608.669 12.6603C599.702 8.89313 590.734 6.99161 581.695 6.99161C574.163 6.99161 566.917 8.35497 559.994 11.0458C553.071 13.7366 546.83 17.7908 541.306 23.1725C530.545 34.4741 525.165 47.8206 525.165 63.1764C525.165 64.7909 525.451 70.3161 526.061 79.7519C526.671 89.1878 533.845 101.028 547.583 115.307C555.116 122.698 563.402 128.295 572.405 132.062C581.408 135.829 590.447 137.731 599.451 137.731L599.522 137.695ZM755.807 139.919H735.612V138.305C737.226 138.305 738.589 137.731 739.737 136.583C740.885 135.434 741.459 134.071 741.459 132.457L741.244 11.6557C741.244 10.5794 740.921 9.57481 740.239 8.64199L740.024 8.24733C739.092 6.88397 737.621 6.23817 735.576 6.23817H691.744C689.986 6.23817 688.587 6.81222 687.511 7.96031C686.435 9.1084 685.897 10.4718 685.897 12.0863V72.4687C685.897 74.6214 686.65 76.4512 688.121 77.9222C689.591 79.3932 691.421 80.1466 693.573 80.1466H714.987C717.139 80.1466 719.005 79.3573 720.547 77.8145C722.089 76.2718 722.879 74.4062 722.879 72.2535H724.493V89.439H722.879C722.879 87.2863 722.125 85.4207 720.655 83.8779C719.184 82.3352 717.283 81.5458 714.987 81.5458H693.573C691.421 81.5458 689.591 82.2993 688.121 83.7703C686.65 85.2413 685.897 87.1428 685.897 89.439V132.851C685.897 134.322 686.435 135.614 687.511 136.69C688.587 137.766 689.878 138.305 691.349 138.305V139.919H670.939V138.305C672.553 138.305 673.916 137.731 675.064 136.583C676.212 135.434 676.786 134.071 676.786 132.457V12.0863C676.786 10.4718 676.212 9.1084 675.064 7.96031C673.916 6.81222 672.553 6.23817 670.939 6.23817V4.62367H807.244V11.6916H805.845C805.845 10.2206 805.271 8.92901 804.123 7.85268C802.976 6.77634 801.648 6.23817 800.178 6.23817H756.166C754.551 6.23817 753.189 6.81222 752.041 7.96031C750.893 9.1084 750.319 10.4718 750.319 12.0863V72.4687C750.319 74.6214 751.072 76.4512 752.543 77.9222C754.013 79.3932 755.843 80.1466 757.995 80.1466H779.589C781.597 80.1466 783.427 79.3214 785.041 77.7069C786.655 76.0924 787.48 74.2626 787.48 72.2535H788.879V89.439H787.48C787.48 87.2863 786.691 85.4207 785.148 83.8779C783.606 82.3352 781.741 81.5458 779.589 81.5458H757.995C755.843 81.5458 754.013 82.2993 752.543 83.7703C751.072 85.2413 750.319 87.1428 750.319 89.439V132.851C750.319 134.322 750.857 135.614 751.933 136.69C753.009 137.766 754.3 138.305 755.771 138.305V139.919H755.807ZM287.527 268.003C288.926 232.412 288.066 193.844 286.738 158.253C286.523 155.634 286.738 153.015 286.2 150.431C285.555 147.812 283.761 145.229 283.725 142.61L293.589 142.538C293.589 145.157 291.796 147.776 291.186 150.396C290.505 155.526 290.541 168.514 290.254 173.931C289.859 192.086 290.074 218.241 290.11 236.646C290.218 247.086 290.433 257.563 291.15 268.003H287.527ZM265.217 269.725C265.217 270.228 277.161 269.869 289.213 269.869C302.198 269.869 314.466 270.335 314.502 269.797C314.502 269.331 305.749 267.752 297.75 265.851C296.28 265.492 291.545 264.344 290.397 262.442C290.289 262.263 289.895 261.509 289.285 261.509C288.639 261.509 288.173 262.299 288.03 262.478C286.846 264.344 282.362 265.707 280.067 266.389C273.036 268.541 265.181 269.331 265.217 269.725Z" stroke="#1A1C1D" stroke-miterlimit="10"/>
<path d="M376.316 218.967C377.766 216.31 379.578 213.613 381.752 210.875C390.046 200.246 401.198 191.469 415.209 184.544C408.042 182.772 401.158 182.047 394.555 182.37C387.469 182.853 381.349 184.826 376.196 188.288C370.076 192.475 367.137 197.83 367.378 204.352C367.62 210.472 370.599 215.344 376.316 218.967ZM460.986 221.141C463.805 219.611 466.261 218.243 468.354 217.035C470.448 215.827 472.179 214.7 473.548 213.653C478.943 209.707 482.808 205.238 485.143 200.246C486.432 197.588 487.076 194.971 487.076 192.395C487.076 187.724 484.741 184.141 480.07 181.645C475.561 179.31 469.562 178.142 462.073 178.142C450.317 178.142 437.997 180.799 425.113 186.114C431.314 188.771 437.393 192.234 443.352 196.501C447.378 199.32 451.122 202.661 454.585 206.526C459.014 211.438 461.228 215.706 461.228 219.33C461.228 219.732 461.147 220.336 460.986 221.141ZM489.612 199.4C484.378 209.063 474.192 217.437 459.054 224.523L458.812 224.644C458.168 224.886 457.685 225.007 457.363 225.007C456.88 225.007 456.719 224.805 456.88 224.403C457.041 224 457.403 223.557 457.967 223.074C458.611 221.947 458.933 220.739 458.933 219.45C458.933 215.827 456.558 211.398 451.807 206.164C448.425 202.541 445.284 199.682 442.386 197.588C436.185 193.16 429.703 189.657 422.939 187.08C407.076 194.005 394.555 203.426 385.375 215.344C383.765 217.437 382.315 219.491 381.027 221.504C386.18 223.597 391.696 224.644 397.574 224.644C404.822 224.644 409.13 223.316 410.498 220.658C410.659 220.256 410.941 220.175 411.344 220.417C411.827 220.658 411.948 221.021 411.706 221.504C410.982 222.953 409.089 224.161 406.029 225.127C403.05 226.013 399.507 226.456 395.4 226.456C389.764 226.456 384.53 225.53 379.698 223.678C375.672 230.603 373.659 237.004 373.659 242.883C373.659 251.177 377.484 257.739 385.134 262.571C392.944 267.321 403.332 269.697 416.296 269.697C417.907 269.697 419.557 269.657 421.248 269.576C422.939 269.496 424.67 269.375 426.442 269.214C436.105 268.409 443.956 267.201 449.995 265.59C460.866 262.852 469.522 258.504 475.964 252.545C476.527 252.062 476.97 251.821 477.292 251.821C477.775 251.821 477.977 252.183 477.896 252.908C477.735 253.552 477.413 254.116 476.93 254.599C471.615 259.189 463.281 263.497 451.928 267.523C447.177 269.133 442.708 270.462 438.52 271.509C434.333 272.555 430.388 273.32 426.684 273.804C422.657 274.287 418.752 274.528 414.967 274.528C396.447 274.528 383.322 269.254 375.592 258.705C367.942 247.996 367.781 235.515 375.109 221.262C368.747 217.317 365.567 211.64 365.567 204.232C365.405 197.065 368.506 191.187 374.867 186.597C380.343 182.41 386.865 180.155 394.434 179.833C401.762 179.511 409.572 180.679 417.866 183.336C434.051 175.928 450.237 172.224 466.422 172.224C475.36 172.224 482.043 174.076 486.472 177.78C490.176 180.759 492.028 184.745 492.028 189.737C492.028 193.119 491.223 196.34 489.612 199.4Z" fill="#0D0D10"/>
<path d="M527.929 254.478C518.508 264.463 510.496 269.093 503.893 268.368C501.719 268.127 499.706 266.798 497.854 264.382C496.002 261.645 494.875 258.222 494.472 254.116C492.942 256.209 491.372 258.142 489.761 259.913C488.232 261.604 486.581 263.175 484.809 264.624C481.588 267.201 478.931 268.489 476.838 268.489C473.858 268.489 472.368 266.597 472.368 262.812C472.368 259.591 473.496 256.25 475.75 252.787C480.984 244.815 486.863 239.299 493.385 236.24C496.203 234.951 498.82 234.307 501.236 234.307C501.88 234.307 502.565 234.428 503.289 234.669C504.095 234.83 504.819 235.112 505.463 235.515C506.188 235.837 506.752 236.24 507.154 236.723C507.638 237.206 507.879 237.769 507.879 238.414C507.879 238.655 507.718 238.897 507.396 239.138C507.154 239.299 506.832 239.46 506.43 239.621C506.108 239.702 505.786 239.823 505.463 239.984C505.141 240.145 504.98 240.266 504.98 240.346C502.001 245.741 500.511 250.895 500.511 255.807C500.511 261.926 502.887 264.986 507.638 264.986C512.63 264.986 518.871 261 526.359 253.029C526.923 252.304 527.487 251.942 528.05 251.942C528.453 251.942 528.654 252.223 528.654 252.787C528.654 253.431 528.413 253.995 527.929 254.478ZM497.854 238.534C491.171 238.373 485.413 243.044 480.582 252.545C479.213 255.122 478.528 257.417 478.528 259.43C478.528 261.604 479.293 262.691 480.823 262.691C482.273 262.691 484.165 261.725 486.5 259.793C490.687 256.25 493.425 252.707 494.714 249.163C495.277 245.137 496.324 241.594 497.854 238.534Z" fill="#0D0D10"/>
<path d="M527.069 234.911C527.633 234.911 528.196 234.911 528.76 234.911C529.404 234.911 530.048 234.871 530.692 234.79C531.095 234.71 531.578 234.669 532.142 234.669C532.786 234.669 533.43 234.669 534.074 234.669C534.638 233.623 535.443 232.133 536.49 230.2C537.537 228.268 538.865 225.852 540.476 222.953C541.362 221.343 542.408 219.611 543.616 217.759C544.824 215.907 546.193 213.854 547.723 211.599C549.333 209.989 551.508 209.184 554.245 209.184C556.581 209.184 557.748 209.788 557.748 210.996C557.748 211.237 557.627 211.519 557.386 211.841C555.695 214.176 553.561 217.236 550.984 221.021C548.407 224.805 545.388 229.395 541.925 234.79H560.768C561.976 235.193 562.58 235.716 562.58 236.36C562.58 237.568 561.13 238.333 558.231 238.655C557.748 238.736 555.977 238.776 552.917 238.776C549.857 238.776 545.428 238.816 539.63 238.897C535.685 246.305 533.712 252.344 533.712 257.014C533.712 262.248 535.967 264.866 540.476 264.866C542.731 264.866 545.146 264.141 547.723 262.691C549.495 261.645 551.306 260.356 553.158 258.826C555.091 257.216 557.104 255.283 559.198 253.029C560.003 252.223 560.647 251.861 561.13 251.942C561.533 251.942 561.734 252.223 561.734 252.787C561.734 253.27 561.533 253.794 561.13 254.357C552.031 263.939 544.22 268.61 537.698 268.368C532.544 268.207 529.444 265.55 528.397 260.396C528.236 259.591 528.116 258.786 528.035 257.981C527.955 257.176 527.914 256.37 527.914 255.565C527.914 250.653 529.283 245.097 532.021 238.897C530.249 238.977 528.961 239.018 528.156 239.018C527.431 239.018 527.23 239.058 527.552 239.138C525.7 238.897 524.693 238.092 524.532 236.723C524.291 235.515 525.136 234.911 527.069 234.911Z" fill="#0D0D10"/>
<path d="M602.008 254.478C599.109 258.021 594.52 261.403 588.239 264.624C581.314 268.247 575.275 270.059 570.121 270.059C562.632 270.059 558.888 265.953 558.888 257.739C558.888 254.76 559.895 251.217 561.908 247.11C563.921 242.762 566.457 239.138 569.517 236.24C572.98 232.938 576.241 231.287 579.301 231.287C583.327 231.287 585.34 233.26 585.34 237.206C585.34 239.621 584.293 242.198 582.199 244.936C578.495 249.526 573.1 252.707 566.014 254.478C565.692 255.847 565.531 257.296 565.531 258.826C565.531 264.302 568.068 267.04 573.141 267.04C577.167 267.04 582.159 265.389 588.118 262.087C590.856 260.558 593.231 259.068 595.244 257.618C597.257 256.088 598.948 254.559 600.317 253.029C601.847 251.418 602.612 251.338 602.612 252.787C602.612 253.27 602.411 253.834 602.008 254.478ZM579.784 243.124C581.314 240.548 582.079 238.333 582.079 236.481C582.079 235.032 581.596 234.307 580.629 234.307C578.938 234.307 576.603 236.28 573.624 240.225C570.725 244.252 568.43 248.278 566.739 252.304C573.1 250.291 577.449 247.231 579.784 243.124Z" fill="#0D0D10"/>
<path d="M657.918 254.84C649.061 262.49 641.492 267.442 635.211 269.697C631.909 270.905 629.131 271.509 626.877 271.509C621.159 271.509 618.261 268.449 618.18 262.329C618.019 257.82 619.911 252.103 623.857 245.178C621.844 245.419 619.952 244.775 618.18 243.245C616.489 241.635 615.684 239.823 615.764 237.81C612.463 244.01 607.39 249.928 600.546 255.565C599.982 256.129 599.338 256.411 598.613 256.411C598.13 256.411 597.888 256.209 597.888 255.807C597.888 255.404 598.251 254.881 598.975 254.236C604.854 249.083 609.846 242.561 613.953 234.669C613.631 233.784 613.47 233.139 613.47 232.737C613.228 231.69 613.107 230.563 613.107 229.355C613.107 226.295 613.993 223.839 615.764 221.987C617.294 220.296 619.026 219.45 620.958 219.45C623.293 219.45 624.501 220.578 624.582 222.832C624.823 225.973 622.689 230.241 618.18 235.636C618.1 238.132 619.388 239.38 622.045 239.38C623.012 239.38 624.219 239.179 625.669 238.776C627.199 238.293 628.286 238.051 628.93 238.051C631.346 238.051 632.553 239.259 632.553 241.675C632.553 242.561 632.231 243.567 631.587 244.694C631.185 245.339 630.661 246.265 630.017 247.473C629.453 248.6 628.809 249.969 628.084 251.579C626.474 255.122 625.467 257.779 625.065 259.551C624.823 260.678 624.702 261.685 624.702 262.571C624.702 265.872 626.273 267.523 629.413 267.523C633.359 267.523 638.271 265.792 644.149 262.329C646.726 260.88 649.061 259.39 651.154 257.86C653.248 256.25 655.1 254.639 656.71 253.029C657.435 252.304 658.039 251.942 658.522 251.942C659.005 251.942 659.247 252.183 659.247 252.666C659.247 253.23 658.804 253.955 657.918 254.84Z" fill="#0D0D10"/>
<path d="M686.396 214.015C686.396 218.041 684.625 220.054 681.082 220.054C679.874 220.054 678.787 219.571 677.82 218.605C676.935 217.639 676.492 216.592 676.492 215.465C676.492 213.935 677.176 212.606 678.545 211.479C679.833 210.593 681.001 210.15 682.048 210.15C684.947 210.15 686.396 211.438 686.396 214.015ZM691.469 254.236C682.37 263.899 674.559 268.61 668.037 268.368C660.629 268.207 657.287 263.054 658.012 252.908C658.414 248.076 660.79 242.48 665.138 236.119C666.024 234.75 667.755 234.065 670.332 234.065C672.264 234.065 673.231 234.589 673.231 235.636C673.231 235.797 673.15 236.119 672.989 236.602C671.62 239.098 670.493 241.031 669.607 242.4C668.802 243.768 668.319 244.614 668.158 244.936C667.272 246.627 666.547 248.157 665.983 249.526C665.5 250.895 665.178 252.143 665.017 253.27C664.776 254.72 664.655 256.088 664.655 257.377C664.655 262.691 666.547 265.349 670.332 265.349C675.485 265.349 681.887 261.242 689.537 253.029C690.342 252.223 690.986 251.821 691.469 251.821C691.872 251.982 692.073 252.264 692.073 252.666C692.073 253.149 691.872 253.673 691.469 254.236Z" fill="#0D0D10"/>
<path d="M689.831 267.402C689.509 268.207 688.945 268.61 688.14 268.61C687.335 268.61 686.61 268.247 685.966 267.523C685.241 266.718 684.959 266.033 685.12 265.469C685.684 264.262 686.449 262.571 687.415 260.396C688.382 258.142 689.549 255.404 690.918 252.183C694.3 244.372 695.991 239.621 695.991 237.931C696.233 237.447 697.521 236.642 699.856 235.515C702.433 234.307 703.721 234.629 703.721 236.481C702.03 241.715 698.487 249.888 693.092 261C696.071 257.779 699.252 254.357 702.634 250.734C706.097 247.03 709.76 243.084 713.625 238.897C715.397 236.884 716.806 235.877 717.853 235.877C718.417 235.877 718.698 236.28 718.698 237.085C718.698 237.568 718.578 238.212 718.336 239.018C715.598 248.197 714.229 254.639 714.229 258.343C714.229 262.691 715.719 264.866 718.698 264.866C721.597 264.866 724.858 263.416 728.482 260.517C729.126 259.954 730.092 259.028 731.381 257.739C732.75 256.451 734.4 254.8 736.333 252.787C736.897 252.223 737.38 251.942 737.782 251.942C738.105 251.942 738.346 252.183 738.507 252.666C738.668 253.149 738.547 253.592 738.145 253.995C729.931 263.013 722.684 267.523 716.404 267.523C710.767 267.523 707.949 263.134 707.949 254.357C707.949 252.425 708.069 250.291 708.311 247.956C707.264 248.922 705.976 250.13 704.446 251.579C702.996 253.029 701.225 254.72 699.131 256.652C698.085 257.618 697.078 258.585 696.112 259.551C695.226 260.517 694.38 261.524 693.575 262.571C692.931 263.376 692.287 264.181 691.643 264.986C691.079 265.792 690.475 266.597 689.831 267.402Z" fill="#0D0D10"/>
<path d="M781.481 240.346C781.078 240.749 780.756 240.95 780.515 240.95C780.032 240.95 779.79 240.709 779.79 240.225C779.79 240.064 779.911 239.783 780.152 239.38C781.441 237.85 782.085 236.481 782.085 235.273C782.085 232.697 779.267 231.408 773.63 231.408C766.383 231.408 758.935 234.991 751.285 242.158C744.521 248.68 741.139 254.075 741.139 258.343C741.139 260.034 741.984 260.88 743.675 260.88C744.722 260.88 746.212 260.437 748.144 259.551C752.815 257.538 756.72 254.599 759.861 250.734C761.068 249.123 762.155 246.627 763.122 243.245C763.766 240.668 764.169 238.333 764.33 236.24C764.652 234.71 766.141 233.945 768.799 233.945C771.295 233.945 772.462 234.629 772.301 235.998C772.14 238.092 771.577 241.554 770.61 246.385C769.644 251.136 768.235 257.256 766.383 264.745C769.523 264.262 772.181 264.181 774.355 264.503C780.394 265.228 783.414 267.241 783.414 270.542C783.414 272.555 782.206 274.689 779.79 276.944C779.468 277.266 779.146 277.427 778.824 277.427C778.341 277.427 778.099 277.226 778.099 276.823C778.099 276.501 778.26 276.179 778.582 275.857C780.273 274.327 781.119 272.878 781.119 271.509C781.119 268.851 778.461 267.523 773.147 267.523C772.261 267.603 771.174 267.724 769.886 267.885C768.597 267.966 767.108 268.127 765.417 268.368C760.666 286.405 752.815 300.9 741.864 311.851C735.824 318.051 728.94 323.003 721.209 326.707C712.835 330.894 704.662 332.988 696.69 332.988C690.651 332.988 685.86 331.458 682.317 328.398C678.774 325.419 677.002 321.514 677.002 316.682C677.002 311.046 679.821 305.288 685.457 299.41C691.657 292.888 700.716 286.969 712.634 281.655C724.471 276.34 739.891 271.267 758.894 266.436C759.216 264.906 759.619 262.933 760.102 260.517C760.666 258.021 761.31 255.001 762.035 251.458L759.136 254.357C757.123 256.37 755.392 258.061 753.942 259.43C752.493 260.719 751.325 261.725 750.439 262.45C746.655 265.429 743.273 266.919 740.293 266.919C736.75 266.919 734.979 264.584 734.979 259.913C734.979 253.149 739.971 245.902 749.956 238.172C758.089 231.811 766.302 228.63 774.596 228.63C781.038 228.63 784.259 230.482 784.259 234.186C784.259 235.958 783.333 238.011 781.481 240.346ZM758.17 269.818C749.473 272.233 742.83 274.166 738.24 275.615C733.409 277.145 728.94 278.635 724.833 280.084C720.726 281.614 716.942 283.185 713.479 284.795C708.567 287.05 704.219 289.465 700.435 292.042C696.65 294.699 693.469 297.558 690.892 300.618C686.383 306.013 684.129 311.207 684.129 316.199C684.129 320.306 685.658 323.486 688.718 325.741C691.778 328.076 695.845 329.244 700.918 329.244C711.788 329.244 722.417 324.654 732.805 315.474C745.125 304.523 753.58 289.304 758.17 269.818Z" fill="#0D0D10"/>
</svg>
