<svg width="727" height="98" viewBox="0 0 727 98" fill="none" xmlns="http://www.w3.org/2000/svg">
<path d="M198.35 39H192.85V38.56C193.29 38.56 193.657 38.4133 193.95 38.12C194.28 37.79 194.445 37.405 194.445 36.965V24.37C194.445 24.04 194.317 23.765 194.06 23.545C193.84 23.325 193.565 23.215 193.235 23.215H184.16C183.83 23.215 183.555 23.325 183.335 23.545C183.115 23.765 183.005 24.04 183.005 24.37V37.075C183.005 37.955 183.5 38.45 184.49 38.56V39H178.935V38.56C179.375 38.56 179.742 38.4133 180.035 38.12C180.365 37.79 180.53 37.405 180.53 36.965V4.185C180.53 3.745 180.365 3.37833 180.035 3.085C179.742 2.755 179.375 2.59 178.935 2.59V2.15H184.49V2.59C183.5 2.77333 183.005 3.305 183.005 4.185V21.565C183.005 21.895 183.115 22.1883 183.335 22.445C183.555 22.665 183.83 22.775 184.16 22.775H193.235C193.565 22.775 193.84 22.665 194.06 22.445C194.317 22.1883 194.445 21.895 194.445 21.565V4.185C194.445 3.745 194.28 3.37833 193.95 3.085C193.657 2.755 193.29 2.59 192.85 2.59V2.15H198.35V2.59C197.91 2.62667 197.543 2.79167 197.25 3.085C196.993 3.37833 196.865 3.745 196.865 4.185V37.075C196.865 37.515 197.012 37.8817 197.305 38.175C197.635 38.4317 197.983 38.56 198.35 38.56V39ZM236.065 39H231.39V38.56C231.646 38.56 231.83 38.4867 231.94 38.34C232.05 38.1567 232.105 37.9917 232.105 37.845L228.64 27.725C228.53 27.4683 228.365 27.34 228.145 27.34C227.925 27.34 227.76 27.45 227.65 27.67C226.66 29.43 225.156 30.31 223.14 30.31C221.49 30.31 220.188 29.6683 219.235 28.385C218.538 27.4683 218.171 26.4233 218.135 25.25C218.098 24.04 217.713 23.0317 216.98 22.225C216.246 21.3817 215.311 20.8683 214.175 20.685H214.065C213.808 20.685 213.606 20.8317 213.46 21.125C209.83 31.575 208.015 36.8917 208.015 37.075C208.015 37.405 208.125 37.735 208.345 38.065C208.601 38.395 208.968 38.56 209.445 38.56V39H204.77V38.56C206.053 38.56 207.006 37.8817 207.63 36.525C214.193 17.7517 217.475 8.27333 217.475 8.09C217.475 7.79666 217.365 7.50333 217.145 7.21C216.961 6.91667 216.631 6.77 216.155 6.77L217.805 2.15H223.25V2.59H222.535L234.58 37.515C234.69 37.8083 234.873 38.065 235.13 38.285C235.423 38.4683 235.735 38.56 236.065 38.56V39ZM223.14 29.925C224.386 29.925 225.45 29.5217 226.33 28.715C227.21 27.8717 227.705 26.8267 227.815 25.58C227.815 25.3967 226.568 21.6933 224.075 14.47C221.581 7.21 220.298 3.56166 220.225 3.525C220.151 3.48833 220.078 3.47 220.005 3.47C219.931 3.47 219.84 3.48833 219.73 3.525C219.656 3.56166 218.685 6.25666 216.815 11.61C214.945 16.9267 214.01 19.64 214.01 19.75C214.01 20.0433 214.175 20.2267 214.505 20.3C215.678 20.5567 216.631 21.1433 217.365 22.06C218.135 22.9767 218.52 24.095 218.52 25.415C218.52 26.6983 218.96 27.78 219.84 28.66C220.756 29.5033 221.856 29.925 223.14 29.925ZM273.703 39H268.148V38.56C268.881 38.56 269.45 38.3217 269.853 37.845C270.256 37.3683 270.458 36.855 270.458 36.305L270.403 35.92C269.56 31.4833 267.506 27.8533 264.243 25.03C261.016 22.17 257.166 20.74 252.693 20.74H249.118C248.421 20.74 247.816 20.9967 247.303 21.51C246.826 21.9867 246.588 22.5917 246.588 23.325V37.075C246.588 37.515 246.716 37.8817 246.973 38.175C247.266 38.4317 247.633 38.56 248.073 38.56V39H242.518V38.56C242.958 38.56 243.325 38.4133 243.618 38.12C243.948 37.79 244.113 37.405 244.113 36.965V4.13C244.113 3.69 243.948 3.32333 243.618 3.03C243.325 2.7 242.958 2.535 242.518 2.535V2.095H248.073V2.535C247.633 2.57166 247.266 2.73666 246.973 3.03C246.716 3.32333 246.588 3.69 246.588 4.13V17.77C246.588 18.4667 246.826 19.0717 247.303 19.585C247.816 20.0983 248.421 20.355 249.118 20.355H254.178C255.461 20.355 256.543 19.8967 257.423 18.98C258.303 18.0633 258.743 16.9817 258.743 15.735V6.22C258.743 4.82667 259.238 3.65333 260.228 2.7C261.218 1.71 262.391 1.215 263.748 1.215H266.113C268.056 1.215 269.541 2.11333 270.568 3.91C271.338 5.15667 272.383 5.78 273.703 5.78V6.22H268.148V5.78C268.881 5.78 269.395 5.45 269.688 4.79C269.798 4.57 269.853 4.35 269.853 4.13C269.853 3.72667 269.688 3.34166 269.358 2.975C268.478 2.05833 267.396 1.6 266.113 1.6C265.49 1.6 265.105 1.63667 264.958 1.71C262.685 2.55333 261.548 4.05667 261.548 6.22V15.735C261.548 17.0917 261.071 18.2467 260.118 19.2C259.201 20.1533 258.046 20.6667 256.653 20.74C260.43 21.62 263.583 23.4717 266.113 26.295C268.68 29.0817 270.275 32.3817 270.898 36.195C271.008 36.8917 271.32 37.46 271.833 37.9C272.383 38.34 273.006 38.56 273.703 38.56V39ZM300.102 40.045C297.609 40.045 295.17 39.5683 292.787 38.615C290.404 37.6617 288.259 36.2317 286.352 34.325C282.539 30.365 280.632 25.7817 280.632 20.575C280.632 18.925 280.944 16.89 281.567 14.47C282.227 12.0133 283.822 9.48333 286.352 6.88C288.259 4.97333 290.404 3.54333 292.787 2.59C295.17 1.63666 297.609 1.16 300.102 1.16C302.595 1.16 305.015 1.63666 307.362 2.59C309.745 3.54333 311.89 4.97333 313.797 6.88C317.61 10.7667 319.517 15.3317 319.517 20.575C319.517 22.225 319.187 24.2783 318.527 26.735C317.904 29.1917 316.327 31.7217 313.797 34.325C311.89 36.2317 309.745 37.6617 307.362 38.615C305.015 39.5683 302.595 40.045 300.102 40.045ZM302.522 38.395C304.575 38.395 306.537 38.0283 308.407 37.295C310.314 36.5617 312 35.4617 313.467 33.995C316.4 30.8783 317.867 27.1933 317.867 22.94C317.867 22.5733 317.775 21.1067 317.592 18.54C317.409 15.9733 315.465 12.765 311.762 8.915C309.709 6.89833 307.454 5.37666 304.997 4.35C302.577 3.32333 300.139 2.81 297.682 2.81C295.629 2.81 293.649 3.17666 291.742 3.91C289.872 4.64333 288.185 5.74333 286.682 7.21C283.749 10.29 282.282 13.92 282.282 18.1C282.282 18.54 282.355 20.0433 282.502 22.61C282.685 25.1767 284.647 28.4033 288.387 32.29C290.44 34.3067 292.695 35.8283 295.152 36.855C297.609 37.8817 300.065 38.395 302.522 38.395ZM332.538 39H326.983V38.56C327.423 38.56 327.79 38.4133 328.083 38.12C328.413 37.79 328.578 37.405 328.578 36.965V4.185C328.578 3.745 328.413 3.37833 328.083 3.085C327.79 2.755 327.423 2.59 326.983 2.59V2.15H343.703C346.6 2.15 349.056 3.14 351.073 5.12C353.09 7.1 354.153 9.575 354.263 12.545C354.226 15.5517 353.163 18.1 351.073 20.19C348.983 22.2433 346.453 23.27 343.483 23.27H340.073C336.516 23.27 333.675 24.8467 331.548 28C331.218 28.55 331.053 29.155 331.053 29.815V37.075C331.053 37.955 331.548 38.45 332.538 38.56V39ZM331.933 26.295C332.153 26.295 332.373 26.2033 332.593 26.02C334.683 23.8933 337.176 22.83 340.073 22.83H343.703C344.473 22.83 345.298 22.72 346.178 22.5C347.791 21.7667 349.093 20.52 350.083 18.76C351.073 17 351.568 14.9833 351.568 12.71C351.568 10.4 351.055 8.365 350.028 6.605C349.038 4.80833 347.736 3.56167 346.123 2.865C345.39 2.68166 344.583 2.59 343.703 2.59H332.538C331.548 2.77333 331.053 3.305 331.053 4.185V25.36C331.053 25.6167 331.145 25.8367 331.328 26.02C331.511 26.2033 331.713 26.295 331.933 26.295ZM400.145 39H396.515V38.56C396.882 38.56 397.065 38.34 397.065 37.9L388.045 4.295C388.009 4.03833 387.862 3.91 387.605 3.91C387.312 3.91 387.147 4.03833 387.11 4.295L381.555 24.48C381.519 24.7367 381.5 25.0117 381.5 25.305L381.555 26.13L384.69 37.735C384.837 38.285 385.204 38.56 385.79 38.56V39H382.105V38.56C382.509 38.56 382.71 38.34 382.71 37.9L373.69 4.295C373.58 4.03833 373.434 3.91 373.25 3.91C373.03 3.91 372.865 4.03833 372.755 4.295C366.742 26.2217 363.735 37.24 363.735 37.35C363.735 37.6067 363.845 37.8817 364.065 38.175C364.285 38.4317 364.597 38.56 365 38.56V39H361.315V38.56C361.829 38.56 362.269 38.4133 362.635 38.12C363.039 37.8267 363.314 37.4417 363.46 36.965L371.38 7.925C371.38 7.66833 371.289 7.41166 371.105 7.155C370.922 6.89833 370.629 6.77 370.225 6.77L371.49 2.15H375.78V2.59H375.23L380.785 23.105C380.859 23.325 381.005 23.435 381.225 23.435C381.445 23.435 381.574 23.325 381.61 23.105C384.36 13.0217 385.735 7.94333 385.735 7.87C385.735 7.61333 385.644 7.375 385.46 7.155C385.277 6.89833 384.984 6.77 384.58 6.77L385.9 2.15H390.135V2.59H389.585L399.045 37.735C399.302 38.285 399.669 38.56 400.145 38.56V39ZM426.053 39H420.498V38.56C421.195 38.56 421.782 38.3217 422.258 37.845C422.772 37.3317 423.028 36.7267 423.028 36.03V5.505C423.028 5.285 422.937 5.175 422.753 5.175C422.717 5.175 422.662 5.19333 422.588 5.23C422.515 5.23 418.885 16.4867 411.698 39H406.583V38.56C407.317 38.56 407.922 38.3217 408.398 37.845C408.912 37.3317 409.168 36.7267 409.168 36.03V5.12C409.168 4.42333 408.912 3.83666 408.398 3.36C407.922 2.84666 407.317 2.59 406.583 2.59V2.15H412.138V2.59C411.442 2.59 410.837 2.84666 410.323 3.36C409.81 3.83666 409.553 4.42333 409.553 5.12V35.645C409.553 35.755 409.59 35.8283 409.663 35.865C409.737 35.9017 409.81 35.92 409.883 35.92C410.067 35.92 410.177 35.865 410.213 35.755L420.883 2.15H426.053V2.59C425.357 2.59 424.752 2.84666 424.238 3.36C423.725 3.83666 423.468 4.42333 423.468 5.12V36.03C423.468 36.7267 423.725 37.3317 424.238 37.845C424.752 38.3217 425.357 38.56 426.053 38.56V39ZM444.957 39H439.402V38.56C439.842 38.56 440.208 38.4133 440.502 38.12C440.832 37.79 440.997 37.405 440.997 36.965V4.185C440.997 3.23166 440.465 2.7 439.402 2.59H434.452C434.012 2.59 433.645 2.73666 433.352 3.03C433.058 3.32333 432.912 3.69 432.912 4.13H432.472V2.15H451.887V4.13H451.447C451.447 3.69 451.3 3.32333 451.007 3.03C450.713 2.73666 450.347 2.59 449.907 2.59H444.957C444.517 2.62667 444.15 2.79167 443.857 3.085C443.6 3.37833 443.472 3.745 443.472 4.185V37.075C443.472 37.515 443.6 37.8817 443.857 38.175C444.15 38.4317 444.517 38.56 444.957 38.56V39ZM505.651 39H477.546V38.56C477.986 38.56 478.353 38.4133 478.646 38.12C478.976 37.79 479.141 37.405 479.141 36.965V4.185C479.141 3.745 478.976 3.37833 478.646 3.085C478.353 2.755 477.986 2.59 477.546 2.59V2.15H496.576C499.473 2.15 501.948 3.17667 504.001 5.23C506.055 7.28333 507.081 9.75833 507.081 12.655C507.081 14.0117 506.825 15.3317 506.311 16.615C506.238 16.7617 506.201 16.9083 506.201 17.055C506.201 17.6417 506.513 17.99 507.136 18.1C509.483 18.4667 511.5 19.5117 513.186 21.235C515.203 23.325 516.211 25.745 516.211 28.495V28.66C516.065 31.5933 514.983 34.05 512.966 36.03C510.95 38.01 508.511 39 505.651 39ZM505.651 38.56C506.971 38.56 507.98 38.3583 508.676 37.955C511.83 35.865 513.406 32.7117 513.406 28.495C513.406 24.315 511.903 21.1983 508.896 19.145C508.566 18.925 508.145 18.76 507.631 18.65C507.155 18.5033 506.66 18.43 506.146 18.43C505.633 18.43 505.211 18.65 504.881 19.09C502.718 21.8033 499.95 23.16 496.576 23.16H491.681C488.895 23.16 486.511 24.15 484.531 26.13C482.551 28.0733 481.561 30.4567 481.561 33.28V37.075C481.561 37.4783 481.708 37.8267 482.001 38.12C482.331 38.4133 482.698 38.56 483.101 38.56H505.651ZM482.276 28.055C482.46 28.055 482.606 27.9633 482.716 27.78C484.916 24.4433 487.905 22.775 491.681 22.775H496.576C498.373 22.775 499.84 22.2617 500.976 21.235C502.113 20.2083 502.956 18.925 503.506 17.385C504.093 15.8083 504.386 14.2317 504.386 12.655C504.386 8.51167 502.883 5.41333 499.876 3.36C499.106 2.88333 498.41 2.645 497.786 2.645C497.383 2.57166 496.98 2.535 496.576 2.535L483.101 2.59C482.698 2.59 482.331 2.73666 482.001 3.03C481.708 3.32333 481.561 3.67166 481.561 4.075V27.45C481.561 27.8533 481.8 28.055 482.276 28.055ZM542.476 39.99L541.211 39.935C536.481 39.4217 532.503 37.5517 529.276 34.325C526.049 31.0983 524.179 27.12 523.666 22.39L523.611 21.125C523.611 15.4417 525.499 10.7117 529.276 6.935C532.906 3.305 537.398 1.39833 542.751 1.215H543.191V4.57H542.751C542.751 4.09333 542.586 3.69 542.256 3.36C541.963 3.03 541.578 2.84667 541.101 2.81H540.551C536.334 2.81 532.686 4.27666 529.606 7.21C526.673 10.1433 525.206 13.81 525.206 18.21L525.261 19.365C525.738 24.3883 527.754 28.6967 531.311 32.29C534.904 35.8467 539.213 37.8633 544.236 38.34L545.336 38.395C549.553 38.395 553.146 37.02 556.116 34.27L556.666 33.72C559.416 30.9333 560.791 27.4683 560.791 23.325V22.335C560.791 21.8583 560.608 21.455 560.241 21.125C559.874 20.795 559.453 20.63 558.976 20.63V20.19H562.386C562.386 25.8733 560.479 30.6033 556.666 34.38C552.889 38.12 548.159 39.99 542.476 39.99ZM589.872 39H570.402V38.56C570.842 38.56 571.208 38.4133 571.502 38.12C571.832 37.79 571.997 37.405 571.997 36.965V4.185C571.997 3.745 571.832 3.37833 571.502 3.085C571.208 2.755 570.842 2.59 570.402 2.59V2.15H589.872V4.075H589.432C589.432 3.67166 589.285 3.32333 588.992 3.03C588.698 2.73666 588.35 2.59 587.947 2.59H576.067C575.59 2.59 575.205 2.755 574.912 3.085C574.618 3.37833 574.472 3.745 574.472 4.185V20.575C574.472 21.1617 574.673 21.675 575.077 22.115C575.48 22.5183 575.975 22.72 576.562 22.72H582.337C582.96 22.72 583.473 22.5183 583.877 22.115C584.28 21.675 584.482 21.1617 584.482 20.575H584.922V25.25H584.482C584.482 24.6633 584.28 24.1683 583.877 23.765C583.473 23.325 582.96 23.105 582.337 23.105H576.562C575.975 23.105 575.48 23.325 575.077 23.765C574.673 24.1683 574.472 24.6633 574.472 25.25V36.965C574.472 37.405 574.618 37.79 574.912 38.12C575.205 38.4133 575.59 38.56 576.067 38.56H587.947C588.35 38.56 588.698 38.4133 588.992 38.12C589.285 37.8267 589.432 37.46 589.432 37.02H589.872V39ZM615.222 39H610.547V38.56C610.803 38.56 610.987 38.4867 611.097 38.34C611.207 38.1567 611.262 37.9917 611.262 37.845L605.487 20.85C605.377 20.6667 605.23 20.575 605.047 20.575C604.863 20.575 604.717 20.6667 604.607 20.85C600.867 31.5567 598.997 36.965 598.997 37.075C598.997 37.4783 599.143 37.8267 599.437 38.12C599.73 38.4133 600.078 38.56 600.482 38.56V39H595.807V38.56C597.09 38.56 598.043 37.8817 598.667 36.525L604.607 19.585L604.717 18.98L604.607 18.375L599.547 3.8C599.217 2.99333 598.612 2.59 597.732 2.59V2.15H602.462V2.59H601.747L605.762 14.305C605.835 14.4517 605.963 14.525 606.147 14.525C606.293 14.525 606.403 14.4517 606.477 14.305C608.823 7.55833 609.997 4.09333 609.997 3.91C609.997 3.61667 609.887 3.32333 609.667 3.03C609.483 2.73666 609.153 2.59 608.677 2.59L608.842 2.15H613.572V2.59H612.307C611.94 2.59 611.592 2.7 611.262 2.92C610.932 3.14 610.712 3.43333 610.602 3.8L606.532 15.35C606.495 15.5333 606.477 15.735 606.477 15.955L606.532 16.56L613.737 37.515C613.847 37.845 614.03 38.1017 614.287 38.285C614.58 38.4683 614.892 38.56 615.222 38.56V39ZM657.106 38.56C657.986 38.56 658.793 38.4683 659.526 38.285C661.14 37.5883 662.441 36.36 663.431 34.6C664.458 32.8033 664.971 30.75 664.971 28.44C664.971 26.1667 664.476 24.15 663.486 22.39C662.496 20.63 661.195 19.3833 659.581 18.65C659.068 18.5033 658.628 18.4117 658.261 18.375C657.931 18.3383 656.318 18.32 653.421 18.32C650.561 18.32 648.086 17.2567 645.996 15.13C645.776 14.9467 645.556 14.855 645.336 14.855C645.116 14.855 644.915 14.9467 644.731 15.13C644.548 15.2767 644.456 15.4967 644.456 15.79V36.965C644.456 37.845 644.951 38.3767 645.941 38.56H657.106ZM644.456 4.185V11.335C644.456 11.995 644.621 12.6 644.951 13.15C647.078 16.3033 649.92 17.88 653.476 17.88H656.886C659.856 17.88 662.386 18.925 664.476 21.015C666.566 23.0683 667.63 25.5983 667.666 28.605C667.556 31.575 666.493 34.05 664.476 36.03C662.46 38.01 660.003 39 657.106 39H640.386V38.56C640.826 38.56 641.193 38.4133 641.486 38.12C641.816 37.79 641.981 37.405 641.981 36.965V4.185C641.981 3.745 641.816 3.36 641.486 3.03C641.193 2.73666 640.826 2.59 640.386 2.59V2.15H663.266V4.075H662.826C662.826 3.67166 662.68 3.32333 662.386 3.03C662.093 2.73666 661.726 2.59 661.286 2.59H646.051C645.575 2.59 645.19 2.755 644.896 3.085C644.603 3.37833 644.456 3.745 644.456 4.185ZM695.124 39H675.654V38.56C676.094 38.56 676.46 38.4133 676.754 38.12C677.084 37.79 677.249 37.405 677.249 36.965V4.185C677.249 3.745 677.084 3.37833 676.754 3.085C676.46 2.755 676.094 2.59 675.654 2.59V2.15H695.124V4.075H694.684C694.684 3.67166 694.537 3.32333 694.244 3.03C693.95 2.73666 693.602 2.59 693.199 2.59H681.319C680.842 2.59 680.457 2.755 680.164 3.085C679.87 3.37833 679.724 3.745 679.724 4.185V20.575C679.724 21.1617 679.925 21.675 680.329 22.115C680.732 22.5183 681.227 22.72 681.814 22.72H687.589C688.212 22.72 688.725 22.5183 689.129 22.115C689.532 21.675 689.734 21.1617 689.734 20.575H690.174V25.25H689.734C689.734 24.6633 689.532 24.1683 689.129 23.765C688.725 23.325 688.212 23.105 687.589 23.105H681.814C681.227 23.105 680.732 23.325 680.329 23.765C679.925 24.1683 679.724 24.6633 679.724 25.25V36.965C679.724 37.405 679.87 37.79 680.164 38.12C680.457 38.4133 680.842 38.56 681.319 38.56H693.199C693.602 38.56 693.95 38.4133 694.244 38.12C694.537 37.8267 694.684 37.46 694.684 37.02H695.124V39ZM712.444 39.99C709.804 39.99 707.365 38.9817 705.129 36.965L702.324 33.665L703.699 32.29L704.029 32.565C703.735 32.895 703.589 33.2617 703.589 33.665C703.589 34.0683 703.735 34.435 704.029 34.765L705.459 36.69C706.779 37.9733 708.319 38.615 710.079 38.615C712.939 38.615 715.487 37.4783 717.724 35.205C719.96 32.9317 721.17 30.3283 721.354 27.395C721.354 25.5617 720.712 24.0033 719.429 22.72L718.384 21.675C718.2 21.4917 717.999 21.4 717.779 21.4C717.669 21.4 717.54 21.4367 717.394 21.51C715.854 22.3533 714.204 22.775 712.444 22.775H708.209C707.622 22.775 707.127 22.9767 706.724 23.38C706.357 23.7833 706.174 24.2967 706.174 24.92H705.734V20.355H706.174C706.174 20.905 706.357 21.3817 706.724 21.785C707.127 22.1883 707.622 22.39 708.209 22.39H712.444C714.167 22.39 715.597 21.8767 716.734 20.85C717.87 19.8233 718.714 18.5583 719.264 17.055C719.814 15.515 720.089 13.9933 720.089 12.49C720.089 10.9867 719.814 9.48333 719.264 7.98C718.714 6.44 717.87 5.15667 716.734 4.13C715.597 3.10333 714.167 2.59 712.444 2.59H703.589C703.185 2.59 702.819 2.755 702.489 3.085C702.195 3.37833 702.049 3.72667 702.049 4.13H701.609V2.205H712.169C714.992 2.205 717.412 3.15833 719.429 5.065C721.482 6.97167 722.582 9.37333 722.729 12.27C722.692 15.6067 721.464 18.3017 719.044 20.355C718.824 20.575 718.714 20.8133 718.714 21.07C718.714 21.2533 718.805 21.455 718.989 21.675C719.172 21.8583 719.355 22.06 719.539 22.28C721.519 24.2233 722.582 26.57 722.729 29.32V29.595C722.729 32.455 721.72 34.9117 719.704 36.965C717.687 38.9817 715.267 39.99 712.444 39.99ZM191.915 57.59L201.375 92.735C201.632 93.285 201.998 93.56 202.475 93.56V94H198.845V93.56C199.028 93.56 199.175 93.4867 199.285 93.34C199.395 93.1567 199.432 92.9733 199.395 92.79L190.375 59.295C190.265 59.0383 190.1 58.91 189.88 58.91C189.697 58.91 189.55 59.0383 189.44 59.295L186.855 68.755L180.475 92.02C180.365 92.4233 180.438 92.79 180.695 93.12C180.952 93.4133 181.282 93.56 181.685 93.56V94H178V93.56C178.513 93.56 178.953 93.4133 179.32 93.12C179.723 92.8267 179.998 92.4417 180.145 91.965L188.01 63.2C188.12 62.8333 188.065 62.5033 187.845 62.21C187.625 61.9167 187.313 61.77 186.91 61.77L188.175 57.15H192.465V57.59H191.915ZM229.095 94H223.54V93.56C224.237 93.56 224.824 93.3217 225.3 92.845C225.814 92.3317 226.07 91.7267 226.07 91.03V60.505C226.07 60.285 225.979 60.175 225.795 60.175C225.759 60.175 225.704 60.1933 225.63 60.23C225.557 60.23 221.927 71.4867 214.74 94H209.625V93.56C210.359 93.56 210.964 93.3217 211.44 92.845C211.954 92.3317 212.21 91.7267 212.21 91.03V60.12C212.21 59.4233 211.954 58.8367 211.44 58.36C210.964 57.8467 210.359 57.59 209.625 57.59V57.15H215.18V57.59C214.484 57.59 213.879 57.8467 213.365 58.36C212.852 58.8367 212.595 59.4233 212.595 60.12V90.645C212.595 90.755 212.632 90.8283 212.705 90.865C212.779 90.9017 212.852 90.92 212.925 90.92C213.109 90.92 213.219 90.865 213.255 90.755L223.925 57.15H229.095V57.59C228.399 57.59 227.794 57.8467 227.28 58.36C226.767 58.8367 226.51 59.4233 226.51 60.12V91.03C226.51 91.7267 226.767 92.3317 227.28 92.845C227.794 93.3217 228.399 93.56 229.095 93.56V94ZM257.349 93.56C257.715 93.5233 258.027 93.3767 258.284 93.12L258.339 93.065C258.632 92.7717 258.779 92.405 258.779 91.965V59.185C258.779 58.745 258.614 58.3783 258.284 58.085C257.99 57.755 257.624 57.59 257.184 57.59V57.15H262.739V57.59H262.849C262.372 57.59 261.987 57.755 261.694 58.085C261.4 58.3783 261.254 58.745 261.254 59.185V91.965C261.254 92.405 261.419 92.79 261.749 93.12C262.079 93.4133 262.445 93.56 262.849 93.56H262.739V94H236.394V93.56C236.834 93.56 237.219 93.395 237.549 93.065C237.769 92.845 237.897 92.5883 237.934 92.295C237.97 92.185 237.989 92.075 237.989 91.965V59.185C237.989 58.745 237.824 58.3783 237.494 58.085C237.2 57.755 236.834 57.59 236.394 57.59V57.15H241.949V57.59C241.509 57.59 241.16 57.7367 240.904 58.03C240.61 58.2867 240.464 58.635 240.464 59.075V92.075C240.464 92.515 240.61 92.8633 240.904 93.12C241.16 93.4133 241.509 93.56 241.949 93.56H246.844C247.797 93.56 248.329 93.0283 248.439 91.965V59.185C248.439 58.745 248.274 58.3783 247.944 58.085C247.65 57.755 247.284 57.59 246.844 57.59V57.15H252.399V57.59C251.959 57.59 251.61 57.7367 251.354 58.03C251.06 58.2867 250.914 58.635 250.914 59.075V91.965C250.914 92.625 251.207 93.0833 251.794 93.34C252.344 93.6333 254.195 93.7067 257.349 93.56ZM290.045 94H284.545V93.56C284.985 93.56 285.352 93.4133 285.645 93.12C285.975 92.79 286.14 92.405 286.14 91.965V79.37C286.14 79.04 286.012 78.765 285.755 78.545C285.535 78.325 285.26 78.215 284.93 78.215H275.855C275.525 78.215 275.25 78.325 275.03 78.545C274.81 78.765 274.7 79.04 274.7 79.37V92.075C274.7 92.955 275.195 93.45 276.185 93.56V94H270.63V93.56C271.07 93.56 271.437 93.4133 271.73 93.12C272.06 92.79 272.225 92.405 272.225 91.965V59.185C272.225 58.745 272.06 58.3783 271.73 58.085C271.437 57.755 271.07 57.59 270.63 57.59V57.15H276.185V57.59C275.195 57.7733 274.7 58.305 274.7 59.185V76.565C274.7 76.895 274.81 77.1883 275.03 77.445C275.25 77.665 275.525 77.775 275.855 77.775H284.93C285.26 77.775 285.535 77.665 285.755 77.445C286.012 77.1883 286.14 76.895 286.14 76.565V59.185C286.14 58.745 285.975 58.3783 285.645 58.085C285.352 57.755 284.985 57.59 284.545 57.59V57.15H290.045V57.59C289.605 57.6267 289.239 57.7917 288.945 58.085C288.689 58.3783 288.56 58.745 288.56 59.185V92.075C288.56 92.515 288.707 92.8817 289 93.175C289.33 93.4317 289.679 93.56 290.045 93.56V94ZM316.87 94H311.315V93.56C312.012 93.56 312.598 93.3217 313.075 92.845C313.588 92.3317 313.845 91.7267 313.845 91.03V60.505C313.845 60.285 313.753 60.175 313.57 60.175C313.533 60.175 313.478 60.1933 313.405 60.23C313.332 60.23 309.702 71.4867 302.515 94H297.4V93.56C298.133 93.56 298.738 93.3217 299.215 92.845C299.728 92.3317 299.985 91.7267 299.985 91.03V60.12C299.985 59.4233 299.728 58.8367 299.215 58.36C298.738 57.8467 298.133 57.59 297.4 57.59V57.15H302.955V57.59C302.258 57.59 301.653 57.8467 301.14 58.36C300.627 58.8367 300.37 59.4233 300.37 60.12V90.645C300.37 90.755 300.407 90.8283 300.48 90.865C300.553 90.9017 300.627 90.92 300.7 90.92C300.883 90.92 300.993 90.865 301.03 90.755L311.7 57.15H316.87V57.59C316.173 57.59 315.568 57.8467 315.055 58.36C314.542 58.8367 314.285 59.4233 314.285 60.12V91.03C314.285 91.7267 314.542 92.3317 315.055 92.845C315.568 93.3217 316.173 93.56 316.87 93.56V94ZM342.703 94H338.028V93.56C338.285 93.56 338.468 93.4867 338.578 93.34C338.688 93.1567 338.743 92.9917 338.743 92.845L332.968 75.85C332.858 75.6667 332.711 75.575 332.528 75.575C332.345 75.575 332.198 75.6667 332.088 75.85C328.348 86.5567 326.478 91.965 326.478 92.075C326.478 92.4783 326.625 92.8267 326.918 93.12C327.211 93.4133 327.56 93.56 327.963 93.56V94H323.288V93.56C324.571 93.56 325.525 92.8817 326.148 91.525L332.088 74.585L332.198 73.98L332.088 73.375L327.028 58.8C326.698 57.9933 326.093 57.59 325.213 57.59V57.15H329.943V57.59H329.228L333.243 69.305C333.316 69.4517 333.445 69.525 333.628 69.525C333.775 69.525 333.885 69.4517 333.958 69.305C336.305 62.5583 337.478 59.0933 337.478 58.91C337.478 58.6167 337.368 58.3233 337.148 58.03C336.965 57.7367 336.635 57.59 336.158 57.59L336.323 57.15H341.053V57.59H339.788C339.421 57.59 339.073 57.7 338.743 57.92C338.413 58.14 338.193 58.4333 338.083 58.8L334.013 70.35C333.976 70.5333 333.958 70.735 333.958 70.955L334.013 71.56L341.218 92.515C341.328 92.845 341.511 93.1017 341.768 93.285C342.061 93.4683 342.373 93.56 342.703 93.56V94ZM387.778 94.99L386.513 94.935C381.783 94.4217 377.804 92.5517 374.578 89.325C371.351 86.0983 369.481 82.12 368.968 77.39L368.913 76.125C368.913 70.4417 370.801 65.7117 374.578 61.935C378.208 58.305 382.699 56.3983 388.053 56.215H388.493V59.57H388.053C388.053 59.0933 387.888 58.69 387.558 58.36C387.264 58.03 386.879 57.8467 386.403 57.81H385.853C381.636 57.81 377.988 59.2767 374.908 62.21C371.974 65.1433 370.508 68.81 370.508 73.21L370.563 74.365C371.039 79.3883 373.056 83.6967 376.613 87.29C380.206 90.8467 384.514 92.8633 389.538 93.34L390.638 93.395C394.854 93.395 398.448 92.02 401.418 89.27L401.968 88.72C404.718 85.9333 406.093 82.4683 406.093 78.325V77.335C406.093 76.8583 405.909 76.455 405.543 76.125C405.176 75.795 404.754 75.63 404.278 75.63V75.19H407.688C407.688 80.8733 405.781 85.6033 401.968 89.38C398.191 93.12 393.461 94.99 387.778 94.99ZM428.684 57.59L438.144 92.735C438.4 93.285 438.767 93.56 439.244 93.56V94H435.614V93.56C435.797 93.56 435.944 93.4867 436.054 93.34C436.164 93.1567 436.2 92.9733 436.164 92.79L427.144 59.295C427.034 59.0383 426.869 58.91 426.649 58.91C426.465 58.91 426.319 59.0383 426.209 59.295L423.624 68.755L417.244 92.02C417.134 92.4233 417.207 92.79 417.464 93.12C417.72 93.4133 418.05 93.56 418.454 93.56V94H414.769V93.56C415.282 93.56 415.722 93.4133 416.089 93.12C416.492 92.8267 416.767 92.4417 416.914 91.965L424.779 63.2C424.889 62.8333 424.834 62.5033 424.614 62.21C424.394 61.9167 424.082 61.77 423.679 61.77L424.944 57.15H429.234V57.59H428.684ZM466.359 95.045C463.866 95.045 461.427 94.5683 459.044 93.615C456.661 92.6617 454.516 91.2317 452.609 89.325C448.796 85.365 446.889 80.7817 446.889 75.575C446.889 73.925 447.201 71.89 447.824 69.47C448.484 67.0133 450.079 64.4833 452.609 61.88C454.516 59.9733 456.661 58.5433 459.044 57.59C461.427 56.6367 463.866 56.16 466.359 56.16C468.852 56.16 471.272 56.6367 473.619 57.59C476.002 58.5433 478.147 59.9733 480.054 61.88C483.867 65.7667 485.774 70.3317 485.774 75.575C485.774 77.225 485.444 79.2783 484.784 81.735C484.161 84.1917 482.584 86.7217 480.054 89.325C478.147 91.2317 476.002 92.6617 473.619 93.615C471.272 94.5683 468.852 95.045 466.359 95.045ZM468.779 93.395C470.832 93.395 472.794 93.0283 474.664 92.295C476.571 91.5617 478.257 90.4617 479.724 88.995C482.657 85.8783 484.124 82.1933 484.124 77.94C484.124 77.5733 484.032 76.1067 483.849 73.54C483.666 70.9733 481.722 67.765 478.019 63.915C475.966 61.8983 473.711 60.3767 471.254 59.35C468.834 58.3233 466.396 57.81 463.939 57.81C461.886 57.81 459.906 58.1767 457.999 58.91C456.129 59.6433 454.442 60.7433 452.939 62.21C450.006 65.29 448.539 68.92 448.539 73.1C448.539 73.54 448.612 75.0433 448.759 77.61C448.942 80.1767 450.904 83.4033 454.644 87.29C456.697 89.3067 458.952 90.8283 461.409 91.855C463.866 92.8817 466.322 93.395 468.779 93.395ZM521.84 94H493.735V93.56C494.175 93.56 494.541 93.4133 494.835 93.12C495.165 92.79 495.33 92.405 495.33 91.965V59.185C495.33 58.745 495.165 58.3783 494.835 58.085C494.541 57.755 494.175 57.59 493.735 57.59V57.15H512.765C515.661 57.15 518.136 58.1767 520.19 60.23C522.243 62.2833 523.27 64.7583 523.27 67.655C523.27 69.0117 523.013 70.3317 522.5 71.615C522.426 71.7617 522.39 71.9083 522.39 72.055C522.39 72.6417 522.701 72.99 523.325 73.1C525.671 73.4667 527.688 74.5117 529.375 76.235C531.391 78.325 532.4 80.745 532.4 83.495V83.66C532.253 86.5933 531.171 89.05 529.155 91.03C527.138 93.01 524.7 94 521.84 94ZM521.84 93.56C523.16 93.56 524.168 93.3583 524.865 92.955C528.018 90.865 529.595 87.7117 529.595 83.495C529.595 79.315 528.091 76.1983 525.085 74.145C524.755 73.925 524.333 73.76 523.82 73.65C523.343 73.5033 522.848 73.43 522.335 73.43C521.821 73.43 521.4 73.65 521.07 74.09C518.906 76.8033 516.138 78.16 512.765 78.16H507.87C505.083 78.16 502.7 79.15 500.72 81.13C498.74 83.0733 497.75 85.4567 497.75 88.28V92.075C497.75 92.4783 497.896 92.8267 498.19 93.12C498.52 93.4133 498.886 93.56 499.29 93.56H521.84ZM498.465 83.055C498.648 83.055 498.795 82.9633 498.905 82.78C501.105 79.4433 504.093 77.775 507.87 77.775H512.765C514.561 77.775 516.028 77.2617 517.165 76.235C518.301 75.2083 519.145 73.925 519.695 72.385C520.281 70.8083 520.575 69.2317 520.575 67.655C520.575 63.5117 519.071 60.4133 516.065 58.36C515.295 57.8833 514.598 57.645 513.975 57.645C513.571 57.5717 513.168 57.535 512.765 57.535L499.29 57.59C498.886 57.59 498.52 57.7367 498.19 58.03C497.896 58.3233 497.75 58.6717 497.75 59.075V82.45C497.75 82.8533 497.988 83.055 498.465 83.055Z" fill="#0D0D10"/>
<path d="M95.0137 89L69.863 62.4894L131.342 0L136 4.73404L100.603 41.6596L121.096 62.4894L95.0137 89ZM26.0822 89L0 62.4894L61.4794 0L66.137 4.73404L30.7397 41.6596L52.1644 62.4894L26.0822 89Z" fill="#0D0D10"/>
</svg>
