<svg width="189" height="189" viewBox="0 0 189 189" fill="none" xmlns="http://www.w3.org/2000/svg">
<g clip-path="url(#clip0_111_1227)">
<path fill-rule="evenodd" clip-rule="evenodd" d="M57.0606 48.7749L57.0634 48.7721C65.8935 43.6625 73.1172 46.7054 73.1172 55.5355V92.2673C72.7183 92.5239 72.3335 92.7861 71.9597 93.0538V57.301C71.9597 49.1068 65.2548 46.2814 57.0606 51.0256L57.0578 51.0284C48.8636 55.7698 42.1615 66.3542 42.1615 74.5485V117.609L65.1684 104.294C65.174 105.01 65.2493 105.719 65.3971 106.413L41.0068 120.532V74.1273C41.0068 65.2972 48.2305 53.89 57.0606 48.7804V48.7749Z" fill="#FFF0D4"/>
<path fill-rule="evenodd" clip-rule="evenodd" d="M135.249 48.7749L135.246 48.7721C126.416 43.6625 119.192 46.7054 119.192 55.5355V92.2673C119.591 92.5239 119.976 92.7861 120.35 93.0538V57.301C120.35 49.1068 127.055 46.2814 135.249 51.0256L135.252 51.0284C143.446 55.7698 150.151 66.3542 150.151 74.5485V117.609L127.144 104.294C127.138 105.01 127.063 105.719 126.915 106.413L151.306 120.532V74.1273C151.306 65.2972 144.082 53.89 135.252 48.7804L135.249 48.7749Z" fill="#FFF0D4"/>
<path d="M57.8299 66.5518C57.8299 65.8112 57.5285 65.3854 57.1567 65.6006C56.7848 65.8158 56.4834 66.5906 56.4834 67.3312V105.061C56.4834 105.801 56.7848 106.227 57.1567 106.012C57.5285 105.797 57.8299 105.022 57.8299 104.281V66.5518Z" fill="#FFF0D4"/>
<path d="M134.479 66.5518C134.479 65.8112 134.78 65.3854 135.152 65.6006C135.524 65.8158 135.825 66.5906 135.825 67.3312V105.061C135.825 105.801 135.524 106.227 135.152 106.012C134.78 105.797 134.479 105.022 134.479 104.281V66.5518Z" fill="#FFF0D4"/>
<path d="M69.3171 78.5144C69.3171 78.491 63.8735 81.6226 57.1585 85.5091C50.4436 89.3955 45 92.5651 45 92.5886V93.7825C45 93.8059 50.4436 90.6743 57.1585 86.7878C63.8735 82.9014 69.3171 79.7318 69.3171 79.7083V78.5144Z" fill="#FFF0D4"/>
<path d="M122.992 78.5144C122.992 78.491 128.435 81.6226 135.15 85.5091C141.865 89.3955 147.309 92.5651 147.309 92.5886V93.7825C147.309 93.8059 141.865 90.6743 135.15 86.7878C128.435 82.9014 122.992 79.7318 122.992 79.7083V78.5144Z" fill="#FFF0D4"/>
<path d="M69.3171 89.6206C69.3171 89.5972 63.8735 92.7288 57.1585 96.6153C50.4436 100.502 45 103.671 45 103.695V104.889C45 104.912 50.4436 101.78 57.1585 97.894C63.8735 94.0076 69.3171 90.838 69.3171 90.8145V89.6206Z" fill="#FFF0D4"/>
<path d="M122.992 89.6206C122.992 89.5972 128.435 92.7288 135.15 96.6153C141.865 100.502 147.309 103.671 147.309 103.695V104.889C147.309 104.912 141.865 101.78 135.15 97.894C128.435 94.0076 122.992 90.838 122.992 90.8145V89.6206Z" fill="#FFF0D4"/>
<path d="M69.3171 64.9517C69.3171 64.9282 63.8735 68.0599 57.1585 71.9463C50.4436 75.8328 45 79.0024 45 79.0258V80.2197C45 80.2432 50.4436 77.1115 57.1585 73.2251C63.8735 69.3386 69.3171 66.169 69.3171 66.1456V64.9517Z" fill="#FFF0D4"/>
<path d="M122.992 64.9517C122.992 64.9282 128.435 68.0599 135.15 71.9463C141.865 75.8328 147.309 79.0024 147.309 79.0258V80.2197C147.309 80.2432 141.865 77.1115 135.15 73.2251C128.435 69.3386 122.992 66.169 122.992 66.1456V64.9517Z" fill="#FFF0D4"/>
<path d="M95.3291 22.3459C95.3263 22.1312 95.5578 21.9527 95.8451 21.9527C96.1324 21.9499 96.3667 22.1256 96.3667 22.3403L97.1085 83.8891C97.1113 84.1039 96.8798 84.2824 96.5926 84.2824C96.3053 84.2852 96.071 84.1094 96.071 83.8947L95.3291 22.3459Z" fill="#FFF0D4"/>
<path d="M95.3177 21.6819C95.5576 21.5759 95.8755 21.6289 96.0289 21.799C96.1823 21.9691 96.1098 22.195 95.87 22.301L20.825 55.3541C20.5851 55.46 20.2672 55.407 20.1138 55.2369C19.9604 55.0668 20.0329 54.8409 20.2728 54.7349L95.3177 21.6819Z" fill="#FFF0D4"/>
<path d="M95.3317 22.3068C95.0862 22.2037 95.0026 21.9805 95.1504 21.8048C95.2954 21.6319 95.6134 21.5733 95.8616 21.6765L174.677 54.7296C174.923 54.8327 175.006 55.0559 174.859 55.2316C174.714 55.4045 174.396 55.4631 174.147 55.3599L95.3317 22.3068Z" fill="#FFF0D4"/>
<path fill-rule="evenodd" clip-rule="evenodd" d="M95.9757 87.6458C111.795 87.6458 124.616 95.4077 124.616 104.98C124.616 114.555 111.792 122.314 95.9757 122.314C80.159 122.314 67.335 114.552 67.335 104.98C67.335 95.4049 80.159 87.6458 95.9757 87.6458ZM95.9757 88.4155C111.413 88.4155 123.93 95.6671 123.93 104.612C123.93 113.556 111.416 120.808 95.9757 120.808C80.5383 120.808 68.0211 113.556 68.0211 104.612C68.0211 95.6671 80.5355 88.4155 95.9757 88.4155Z" fill="#FFF0D4"/>
<path d="M97.1113 125.677C97.1113 125.201 96.7255 124.815 96.2495 124.815C95.7735 124.815 95.3877 125.201 95.3877 125.677V149.934C95.3877 150.41 95.7735 150.795 96.2495 150.795C96.7255 150.795 97.1113 150.41 97.1113 149.934V125.677Z" fill="#FFF0D4"/>
<path fill-rule="evenodd" clip-rule="evenodd" d="M69.2847 114.571C69.7588 114.571 70.1465 114.959 70.1465 115.433V120.18C69.5915 119.639 69.0141 119.162 68.4229 118.758V115.436C68.4229 114.962 68.8105 114.574 69.2847 114.574V114.571Z" fill="#FFF0D4"/>
<path fill-rule="evenodd" clip-rule="evenodd" d="M122.98 114.571C122.506 114.571 122.118 114.959 122.118 115.433V120.18C122.673 119.639 123.251 119.162 123.842 118.758V115.436C123.842 114.962 123.454 114.574 122.98 114.574V114.571Z" fill="#FFF0D4"/>
<path fill-rule="evenodd" clip-rule="evenodd" d="M77.2058 127.565C84.2203 127.565 89.9072 130.968 89.9072 135.168C89.9072 139.366 84.2203 142.771 77.2058 142.771C75.1336 142.771 73.1784 142.476 71.4492 141.949C72.2553 141.868 72.9999 141.594 73.6637 141.156C74.6985 141.332 75.7946 141.43 76.9297 141.43C83.325 141.43 88.5098 138.412 88.5098 134.689C88.5098 130.965 83.325 127.948 76.9297 127.948C76.7345 127.948 76.5392 127.95 76.344 127.956C76.305 127.833 76.2687 127.71 76.2269 127.588C76.5504 127.574 76.8739 127.565 77.203 127.565H77.2058Z" fill="#FFF0D4"/>
<path fill-rule="evenodd" clip-rule="evenodd" d="M115.059 127.565C108.044 127.565 102.357 130.968 102.357 135.168C102.357 139.366 108.044 142.771 115.059 142.771C117.131 142.771 119.086 142.476 120.815 141.949C120.009 141.868 119.265 141.594 118.601 141.156C117.566 141.332 116.47 141.43 115.335 141.43C108.94 141.43 103.755 138.412 103.755 134.689C103.755 130.965 108.94 127.948 115.335 127.948C115.53 127.948 115.725 127.95 115.921 127.956C115.96 127.833 115.996 127.71 116.038 127.588C115.714 127.574 115.391 127.565 115.062 127.565H115.059Z" fill="#FFF0D4"/>
<path d="M78.5586 145.117C78.5586 144.884 78.1727 144.696 77.6968 144.696C77.2208 144.696 76.835 144.884 76.835 145.117V156.97C76.835 157.203 77.2208 157.392 77.6968 157.392C78.1727 157.392 78.5586 157.203 78.5586 156.97V145.117Z" fill="#FFF0D4"/>
<path d="M115.43 145.117C115.43 144.884 115.044 144.696 114.568 144.696C114.092 144.696 113.706 144.884 113.706 145.117V156.97C113.706 157.203 114.092 157.392 114.568 157.392C115.044 157.392 115.43 157.203 115.43 156.97V145.117Z" fill="#FFF0D4"/>
<path d="M89.4863 140.389C89.4863 140.182 89.1005 140.013 88.6245 140.013C88.1485 140.013 87.7627 140.182 87.7627 140.389V150.943C87.7627 151.151 88.1485 151.32 88.6245 151.32C89.1005 151.32 89.4863 151.151 89.4863 150.943V140.389Z" fill="#FFF0D4"/>
<path d="M104.502 140.389C104.502 140.182 104.116 140.013 103.64 140.013C103.164 140.013 102.778 140.182 102.778 140.389V150.943C102.778 151.151 103.164 151.32 103.64 151.32C104.116 151.32 104.502 151.151 104.502 150.943V140.389Z" fill="#FFF0D4"/>
<path d="M66.418 141.17C66.418 140.963 66.0321 140.794 65.5562 140.794C65.0802 140.794 64.6943 140.963 64.6943 141.17V151.724C64.6943 151.932 65.0802 152.101 65.5562 152.101C66.0321 152.101 66.418 151.932 66.418 151.724V141.17Z" fill="#FFF0D4"/>
<path d="M127.57 141.17C127.57 140.963 127.184 140.794 126.708 140.794C126.233 140.794 125.847 140.963 125.847 141.17V151.724C125.847 151.932 126.233 152.101 126.708 152.101C127.184 152.101 127.57 151.932 127.57 151.724V141.17Z" fill="#FFF0D4"/>
<path fill-rule="evenodd" clip-rule="evenodd" d="M64.5384 119.106C68.669 119.106 73.204 123.881 74.6655 129.769C76.1269 135.659 73.9598 140.431 69.8292 140.431C65.6959 140.431 61.1637 135.656 59.7022 129.769C58.2407 123.878 60.4078 119.106 64.5384 119.106ZM64.8173 121.106C68.259 121.106 72.0354 125.083 73.2514 129.989C74.4674 134.895 72.6629 138.872 69.2212 138.872C65.7795 138.872 62.0032 134.895 60.7871 129.989C59.5711 125.083 61.3756 121.106 64.8173 121.106Z" fill="#FFF0D4"/>
<path fill-rule="evenodd" clip-rule="evenodd" d="M127.727 119.106C123.596 119.106 119.061 123.881 117.6 129.769C116.138 135.659 118.305 140.431 122.436 140.431C126.569 140.431 131.101 135.656 132.563 129.769C134.024 123.878 131.857 119.106 127.727 119.106ZM127.448 121.106C124.006 121.106 120.23 125.083 119.014 129.989C117.798 134.895 119.602 138.872 123.044 138.872C126.486 138.872 130.262 134.895 131.478 129.989C132.694 125.083 130.889 121.106 127.448 121.106Z" fill="#FFF0D4"/>
<path d="M65.9884 113.394C66.2283 113.247 66.5462 113.325 66.6968 113.567C66.8475 113.81 66.7721 114.128 66.5295 114.276L32.6453 134.923C31.9397 134.89 31.1894 134.931 30.5061 135.015L65.9856 113.394H65.9884ZM25.4579 139.302L19.6483 142.841C19.4085 142.989 19.0905 142.911 18.9399 142.668C18.7893 142.426 18.8646 142.108 19.1073 141.963L25.9404 137.799C25.7285 138.239 25.5305 138.75 25.4607 139.302H25.4579Z" fill="#FFF0D4"/>
<path d="M125.191 114.85C124.951 114.702 124.876 114.387 125.024 114.142C125.175 113.899 125.49 113.821 125.732 113.969L172.614 142.537C172.853 142.685 172.929 143 172.781 143.243C172.63 143.485 172.315 143.564 172.072 143.416L125.191 114.847V114.85Z" fill="#FFF0D4"/>
<path d="M55.8083 124.294C55.9059 124.236 56.0314 124.266 56.0927 124.364C56.1541 124.461 56.1234 124.587 56.0258 124.648L37.2388 136.097C37.1411 136.156 37.0156 136.125 36.9543 136.028C36.8957 135.93 36.9236 135.804 37.0212 135.743L55.8083 124.294Z" fill="#FFF0D4"/>
<path d="M46.8581 132.837C46.9557 132.778 47.0812 132.809 47.1425 132.907C47.2011 133.004 47.1732 133.13 47.0756 133.191L36.996 139.332C36.996 139.179 36.9876 139.023 36.9681 138.864L46.8581 132.84V132.837ZM29.4572 143.926L28.2886 144.64C28.1909 144.699 28.0654 144.668 28.0041 144.57C27.9455 144.473 27.9734 144.347 28.071 144.286L28.8519 143.809C28.9607 143.837 29.0723 143.859 29.1866 143.881C29.2759 143.898 29.3651 143.912 29.4572 143.926Z" fill="#FFF0D4"/>
<path d="M56.6227 130.396C56.7203 130.338 56.8458 130.368 56.9072 130.466C56.9685 130.564 56.9379 130.689 56.8403 130.751L38.0532 142.2C37.9556 142.258 37.8301 142.228 37.7687 142.13C37.7102 142.032 37.738 141.907 37.8357 141.845L56.6227 130.396Z" fill="#FFF0D4"/>
<path d="M55.8083 136.365C55.9059 136.306 56.0314 136.337 56.0927 136.435C56.1541 136.532 56.1234 136.658 56.0258 136.719L37.2388 148.168C37.1411 148.227 37.0156 148.196 36.9543 148.098C36.8957 148.001 36.9236 147.875 37.0212 147.814L55.8083 136.365Z" fill="#FFF0D4"/>
<path d="M60.9118 137.849C60.9815 137.807 61.0763 137.829 61.1181 137.899C61.1628 137.971 61.1405 138.063 61.0707 138.105L47.3096 146.489C47.2398 146.531 47.145 146.509 47.1032 146.439C47.0585 146.366 47.0809 146.274 47.1506 146.233L60.9118 137.849Z" fill="#FFF0D4"/>
<path d="M136.248 125.044C136.15 124.986 136.024 125.016 135.963 125.114C135.904 125.212 135.932 125.337 136.03 125.399L154.817 136.848C154.915 136.906 155.04 136.875 155.102 136.778C155.163 136.68 155.132 136.555 155.035 136.493L136.248 125.044Z" fill="#FFF0D4"/>
<path d="M145.2 133.59C145.102 133.531 144.977 133.562 144.915 133.66C144.857 133.757 144.885 133.883 144.982 133.944L163.769 145.393C163.867 145.452 163.992 145.421 164.054 145.323C164.115 145.226 164.084 145.1 163.987 145.039L145.2 133.59Z" fill="#FFF0D4"/>
<path d="M135.436 131.147C135.338 131.088 135.213 131.119 135.152 131.216C135.093 131.314 135.121 131.439 135.218 131.501L154.006 142.95C154.103 143.008 154.229 142.978 154.29 142.88C154.351 142.783 154.321 142.657 154.223 142.596L135.436 131.147Z" fill="#FFF0D4"/>
<path d="M136.248 137.115C136.15 137.057 136.024 137.087 135.963 137.185C135.904 137.282 135.932 137.408 136.03 137.469L154.817 148.918C154.915 148.977 155.04 148.946 155.102 148.849C155.163 148.751 155.132 148.626 155.035 148.564L136.248 137.115Z" fill="#FFF0D4"/>
<path d="M131.145 138.599C131.076 138.554 130.981 138.579 130.939 138.649C130.894 138.722 130.917 138.814 130.987 138.856L144.748 147.239C144.817 147.281 144.912 147.259 144.954 147.189C144.999 147.117 144.976 147.025 144.907 146.983L131.145 138.599Z" fill="#FFF0D4"/>
<path d="M136.786 105.343C136.786 105.527 136.878 105.68 136.992 105.683C137.106 105.688 137.198 105.543 137.198 105.359L137.171 69.6622C137.171 69.4781 137.079 69.3247 136.964 69.3219C136.85 69.3164 136.758 69.4614 136.758 69.6455L136.786 105.343Z" fill="#FFF0D4"/>
<path d="M54.8404 104.729C54.8404 104.913 54.9324 105.066 55.0468 105.069C55.1611 105.075 55.2532 104.93 55.2532 104.745L55.2253 69.0484C55.2253 68.8644 55.1332 68.711 55.0189 68.7082C54.9045 68.7026 54.8125 68.8476 54.8125 69.0317L54.8404 104.729Z" fill="#FFF0D4"/>
<path d="M69.3013 92.217C69.3013 92.4011 69.3934 92.5545 69.5077 92.5573C69.6221 92.5629 69.7141 92.4179 69.7141 92.2338L69.6862 56.5367C69.6862 56.3526 69.5942 56.1992 69.4798 56.1964C69.3655 56.1909 69.2734 56.3359 69.2734 56.52L69.3013 92.217Z" fill="#FFF0D4"/>
<path d="M122.938 93.5503C122.938 93.7344 123.03 93.8878 123.144 93.8906C123.259 93.8961 123.351 93.7511 123.351 93.567L123.323 57.87C123.323 57.6859 123.231 57.5325 123.117 57.5297C123.002 57.5241 122.91 57.6691 122.91 57.8532L122.938 93.5503Z" fill="#FFF0D4"/>
<path d="M147.041 109.958C147.041 110.142 147.133 110.296 147.247 110.299C147.361 110.304 147.453 110.159 147.453 109.975L147.425 74.2779C147.425 74.0938 147.333 73.9404 147.219 73.9377C147.105 73.9321 147.013 74.0771 147.013 74.2612L147.041 109.958Z" fill="#FFF0D4"/>
<path d="M44.9947 110.575C44.9947 110.759 45.0867 110.912 45.2011 110.915C45.3154 110.921 45.4075 110.776 45.4075 110.591L45.3796 74.8944C45.3796 74.7103 45.2875 74.5569 45.1732 74.5541C45.0588 74.5485 44.9668 74.6936 44.9668 74.8776L44.9947 110.575Z" fill="#FFF0D4"/>
<path fill-rule="evenodd" clip-rule="evenodd" d="M95.9757 85.7466C111.795 85.7466 124.616 93.0344 124.616 102.021C124.616 111.01 111.792 118.295 95.9757 118.295C80.159 118.295 67.335 111.007 67.335 102.021C67.335 93.0316 80.159 85.7466 95.9757 85.7466ZM95.9757 86.4689C111.413 86.4689 123.93 93.277 123.93 101.675C123.93 110.073 111.416 116.881 95.9757 116.881C80.5383 116.881 68.0211 110.073 68.0211 101.675C68.0211 93.277 80.5355 86.4689 95.9757 86.4689Z" fill="#FFF0D4"/>
<path fill-rule="evenodd" clip-rule="evenodd" d="M76.9883 127.565C83.7406 127.565 89.2155 130.843 89.2155 134.884C89.2155 138.925 83.7406 142.202 76.9883 142.202C74.9941 142.202 73.1115 141.915 71.4492 141.41C72.2246 141.332 72.9414 141.067 73.5801 140.649C74.5757 140.819 75.6328 140.911 76.7233 140.911C82.8787 140.911 87.8684 138.005 87.8684 134.424C87.8684 130.84 82.8787 127.936 76.7233 127.936C76.5337 127.936 76.3468 127.939 76.1599 127.945C76.1237 127.828 76.0874 127.708 76.0484 127.591C76.358 127.577 76.6731 127.568 76.9883 127.568V127.565Z" fill="#FFF0D4"/>
<path fill-rule="evenodd" clip-rule="evenodd" d="M115.263 127.566C108.494 127.566 103.008 130.851 103.008 134.901C103.008 138.953 108.494 142.236 115.263 142.236C117.263 142.236 119.148 141.949 120.816 141.441C120.038 141.363 119.321 141.098 118.679 140.677C117.681 140.847 116.621 140.939 115.528 140.939C109.356 140.939 104.355 138.027 104.355 134.435C104.355 130.843 109.358 127.931 115.528 127.931C115.718 127.931 115.904 127.934 116.091 127.939C116.128 127.819 116.164 127.702 116.203 127.585C115.89 127.571 115.578 127.563 115.26 127.563L115.263 127.566Z" fill="#FFF0D4"/>
<path d="M94.6261 64.5442C94.6233 64.4745 94.548 64.4187 94.4587 64.4187C94.3667 64.4187 94.2942 64.4745 94.297 64.5414L94.7599 84.1568C94.7627 84.2265 94.838 84.2823 94.9273 84.2823C95.0193 84.2823 95.0918 84.2265 95.089 84.1596L94.6261 64.5442Z" fill="#FFF0D4"/>
<path d="M98.5225 26.0637C98.5198 25.994 98.4444 25.9382 98.3552 25.9382C98.2632 25.9382 98.1906 25.994 98.1934 26.061L98.6564 45.6763C98.6592 45.7461 98.7345 45.8018 98.8238 45.8018C98.9158 45.8018 98.9883 45.7461 98.9855 45.6791L98.5225 26.0637Z" fill="#FFF0D4"/>
<path fill-rule="evenodd" clip-rule="evenodd" d="M79.9557 110.675C84.1226 111.23 88.6938 110.028 90.1665 107.995C91.6391 105.959 89.4552 103.862 85.2884 103.307C81.1216 102.752 76.5503 103.954 75.0777 105.987C73.6051 108.023 75.7889 110.12 79.9557 110.675ZM80.2374 109.956C83.707 110.416 87.5169 109.417 88.744 107.722C89.9712 106.026 88.1528 104.277 84.6804 103.817C81.2108 103.354 77.401 104.355 76.1738 106.051C74.9466 107.747 76.7651 109.495 80.2374 109.956Z" fill="#FFF0D4"/>
<path fill-rule="evenodd" clip-rule="evenodd" d="M109.829 111.478C105.606 112.039 100.976 110.823 99.4843 108.762C97.9921 106.7 100.204 104.572 104.426 104.012C108.649 103.451 113.279 104.667 114.771 106.728C116.263 108.789 114.051 110.918 109.829 111.478ZM109.542 110.75C106.025 111.219 102.167 110.204 100.923 108.488C99.6795 106.77 101.523 104.999 105.04 104.531C108.557 104.062 112.414 105.077 113.658 106.793C114.902 108.511 113.059 110.282 109.542 110.75Z" fill="#FFF0D4"/>
<path fill-rule="evenodd" clip-rule="evenodd" d="M95.131 91.0095C95.5019 90.9649 95.8031 91.2326 95.8031 91.6091V98.8188H96.0179V95.6114C96.0179 95.2405 96.3191 94.9142 96.69 94.8919C97.061 94.8668 97.3622 95.1512 97.3622 95.5222V98.816H97.8698C98.0929 98.816 98.277 98.9973 98.277 99.2205C98.277 99.4436 98.0929 99.6277 97.8698 99.6277L95.078 99.6332C95.0556 99.6332 95.0361 99.6332 95.0166 99.6332L91.9765 99.6416C91.7534 99.6416 91.5693 99.4603 91.5693 99.2372C91.5693 99.0141 91.7534 98.83 91.9765 98.83L92.8802 98.8272V98.8188V96.7326C92.8802 96.3617 93.1842 96.0437 93.5523 96.0242C93.9233 96.0047 94.2245 96.2947 94.2245 96.6657V98.7519C94.2245 98.777 94.2245 98.7993 94.2217 98.8244H94.4504V91.7765C94.4504 91.4 94.7544 91.0569 95.1226 91.0095H95.131Z" fill="#FFF0D4"/>
<path d="M19.821 84.6895C19.8517 85.0131 20.5853 92.3427 23.1428 92.3427C24.5178 92.3427 25.4243 92.3789 26.208 92.471C26.9917 92.563 27.6471 92.708 28.5173 92.9256C29.6971 93.2212 30.2409 95.0983 30.478 96.4035L30.7988 92.8893L30.8015 92.8754C30.8043 92.867 31.9088 89.5564 28.3081 88.7281C22.783 87.4535 22.6742 87.1829 20.2283 81.0247L20.0721 80.6315L19.8238 84.6923L19.821 84.6895ZM30.6426 99.7002C30.4362 102.121 29.9927 106.706 29.3512 110.329C29.4126 110.279 29.4879 110.22 29.5716 110.156L31.7693 108.366C33.6547 105.864 35.0744 105.457 36.1788 106.268C38.0308 107.632 38.8842 112.558 39.5871 116.61C39.8966 118.406 40.1783 120.03 40.4991 121.078L40.658 121.6L40.2704 121.215C38.1479 119.109 37.0323 116.577 36.0673 114.382C34.921 111.782 33.9922 109.671 31.853 109.392C31.245 109.314 30.3246 109.925 29.7752 110.343L29.3094 110.723L29.2871 110.695C29.2285 111.007 29.1699 111.311 29.1086 111.604L29.1253 111.701L29.0863 111.71C28.9859 112.187 28.8827 112.636 28.7739 113.049C28.1575 115.394 27.9707 118.576 28.1185 121.594C28.1659 122.579 28.2496 123.544 28.3639 124.456C28.4364 124.406 28.5201 124.347 28.6205 124.28L30.8852 122.693C33.9281 119.748 35.7661 119.887 37.01 121.151C37.9276 122.082 38.4937 123.627 38.9902 124.975C39.3109 125.845 39.601 126.634 39.9273 127.097L40.1449 127.404L39.7795 127.317C37.5594 126.79 36.3908 125.736 35.3784 124.827C34.2014 123.767 33.2447 122.902 31.0135 123.374C30.3497 123.513 29.3596 124.132 28.7823 124.52C28.6651 124.604 28.5368 124.698 28.4113 124.785C28.6679 126.67 29.064 128.307 29.5688 129.373C31.1 132.611 32.2965 137.548 32.3021 137.562L32.0259 137.628C32.0231 137.615 30.8322 132.709 29.3122 129.496C28.5229 127.828 27.9958 124.81 27.8396 121.611C27.8145 121.078 27.7977 120.537 27.7922 119.999L27.4547 119.533C27.0503 119.014 26.3419 118.217 25.6781 118.041C23.3548 117.425 21.5782 118.629 19.3943 120.113C17.5536 121.363 15.4283 122.807 12.4356 123.552L11.8723 123.692L12.3073 123.307C13.0409 122.657 13.9557 121.569 14.9681 120.364C17.0125 117.932 19.4501 115.034 21.6702 114.228C23.4106 113.598 25.0003 114.217 26.1494 117.249L27.7169 119.413L27.7894 119.508C27.7977 117.143 28.0209 114.814 28.5006 112.982C28.6093 112.563 28.7153 112.106 28.8185 111.621L28.6512 110.842C28.3806 109.749 27.8173 107.975 26.8773 107.225C23.6616 104.654 20.0693 105.309 15.6458 106.115C11.9476 106.79 7.67473 107.568 2.55125 106.678L1.97949 106.578L2.53172 106.402C4.12148 105.895 6.28579 104.835 8.68158 103.661C13.5011 101.298 19.2465 98.4842 23.2125 98.7547C26.2861 98.9639 28.2886 100.989 27.9902 106.411L28.9329 110.815L28.9552 110.909C29.6469 107.27 30.1238 102.378 30.3469 99.7894L30.3274 99.7839C30.3274 99.7839 30.3386 99.7309 30.3609 99.6444C30.3916 99.2986 30.4139 98.9974 30.4334 98.7519L30.3581 97.6977C30.3581 97.6865 30.0764 93.6145 28.4448 93.2073C27.5858 92.9925 26.9387 92.8475 26.1717 92.7582C25.4019 92.669 24.5067 92.6327 23.14 92.6327C20.2673 92.6327 19.5366 84.7314 19.5338 84.7091C19.425 83.546 19.7736 80.7514 19.8601 79.3457L20.4876 80.9215C22.8806 86.9487 22.9866 87.2108 28.3667 88.452C32.1431 89.3221 31.1446 92.7192 31.0721 92.9507L30.6119 98.0184L30.7541 98.0296L30.8908 97.4717C31.139 94.4456 32.2044 93.6507 33.479 93.7456C34.4134 93.8153 35.4453 94.3759 36.3434 94.864C36.9207 95.1764 37.4423 95.4608 37.8272 95.5529L38.1925 95.6421L37.8606 95.8178C36.4187 96.582 35.2975 96.5653 34.3241 96.5541C33.2113 96.5402 32.3048 96.529 31.3454 97.8064C31.0609 98.1857 30.8266 98.9667 30.7011 99.4408C30.6788 99.5273 30.6593 99.6137 30.6398 99.703L30.6426 99.7002ZM33.4623 94.0245C32.3857 93.9464 31.4765 94.6297 31.206 97.1845L31.2534 97.1956L31.1781 97.5108L31.1725 97.5666C32.1989 96.2362 33.1583 96.2473 34.3353 96.2641C35.2027 96.2752 36.1928 96.2892 37.4255 95.7146C37.0713 95.5752 36.6586 95.3493 36.2151 95.1094C35.3393 94.6325 34.3381 94.0886 33.4651 94.0245H33.4623ZM36.8064 121.346C35.7186 120.239 34.0982 120.11 31.4068 122.587L31.4458 122.643L31.0693 122.908L30.9661 123.008L30.9494 122.992L30.7262 123.148C30.8043 123.123 30.8768 123.103 30.9494 123.089C33.3228 122.59 34.3269 123.496 35.5652 124.609C36.4968 125.449 37.5678 126.414 39.5006 126.946C39.2301 126.458 38.9874 125.792 38.7197 125.067C38.2344 123.745 37.6766 122.23 36.8036 121.343L36.8064 121.346ZM25.943 117.505L25.8956 117.38L25.6418 117.029L25.731 116.964C24.674 114.454 23.2767 113.941 21.7678 114.491C19.6174 115.271 17.2077 118.139 15.1856 120.543C14.3461 121.541 13.5736 122.462 12.907 123.125C15.5705 122.361 17.5257 121.034 19.2326 119.873C21.475 118.351 23.299 117.112 25.7478 117.762C25.9681 117.821 26.1912 117.938 26.406 118.088L25.9765 117.497L25.9402 117.511L25.943 117.505ZM36.0171 106.486C35.0967 105.808 33.889 106.143 32.263 108.176L32.3299 108.26L31.9702 108.553L31.8753 108.681L31.8419 108.656L31.1334 109.233C31.4012 109.136 31.6606 109.085 31.8893 109.116C34.1819 109.414 35.1413 111.59 36.3211 114.267C37.2191 116.306 38.2483 118.641 40.0919 120.629C39.8241 119.586 39.5815 118.18 39.3165 116.652C38.622 112.65 37.7797 107.783 36.0171 106.486ZM27.6918 106.662L27.7057 106.422L27.5495 105.691L27.7336 105.652C27.8089 100.986 25.9598 99.2149 23.193 99.028C19.3023 98.7631 13.5931 101.56 8.8043 103.906C6.65952 104.958 4.69882 105.917 3.15647 106.478C7.98711 107.211 12.0535 106.472 15.5956 105.825C20.086 105.005 23.7369 104.341 27.0531 106.994C27.4993 107.351 27.8619 107.914 28.1547 108.53L27.7559 106.664L27.689 106.659L27.6918 106.662Z" fill="#FFF0D4"/>
<path fill-rule="evenodd" clip-rule="evenodd" d="M29.2458 144.244C32.6708 144.947 36.4276 143.424 37.6381 140.838C38.8485 138.253 37.0524 135.587 33.6302 134.881C30.2053 134.178 26.4484 135.701 25.238 138.287C24.0275 140.872 25.8237 143.538 29.2458 144.244ZM29.4773 143.329C32.3305 143.915 35.4598 142.646 36.4667 140.493C37.4763 138.339 35.9786 136.117 33.1282 135.531C30.275 134.945 27.1457 136.214 26.1388 138.367C25.132 140.521 26.6269 142.743 29.4773 143.329Z" fill="#FFF0D4"/>
<path fill-rule="evenodd" clip-rule="evenodd" d="M31.3398 141.003C33.3452 141.416 35.5457 140.524 36.2541 139.009C36.9626 137.495 35.9111 135.933 33.9058 135.52C31.9004 135.107 29.6999 136 28.9915 137.514C28.283 139.029 29.3345 140.59 31.3398 141.003ZM31.4765 140.468C33.1471 140.811 34.9795 140.066 35.5708 138.805C36.1621 137.545 35.2863 136.242 33.6157 135.899C31.9451 135.556 30.1127 136.301 29.5214 137.562C28.9301 138.822 29.8059 140.125 31.4765 140.468Z" fill="#FFF0D4"/>
<path fill-rule="evenodd" clip-rule="evenodd" d="M32.0512 138.462C32.7596 138.607 33.5406 138.292 33.7888 137.757C34.0398 137.221 33.6689 136.669 32.9576 136.521C32.2492 136.376 31.4683 136.691 31.2201 137.227C30.9691 137.762 31.34 138.314 32.0512 138.462ZM32.0986 138.273C32.6899 138.395 33.337 138.13 33.5461 137.684C33.7553 137.238 33.4457 136.778 32.8545 136.655C32.2632 136.532 31.6161 136.797 31.4069 137.243C31.1978 137.69 31.5073 138.15 32.0986 138.273Z" fill="#FFF0D4"/>
<path d="M170.062 83.4222L157.805 76.7744V113.547L170.062 120.195V83.4222Z" stroke="#FFF0D4" stroke-width="0.813999" stroke-miterlimit="22.9256"/>
<path d="M167.326 90.1468L160.541 86.467V106.822L167.326 110.502V90.1468Z" stroke="#FFF0D4" stroke-width="0.450574" stroke-miterlimit="22.9256"/>
<path d="M99.8132 19.9361C99.7073 19.8915 99.5873 19.9445 99.5427 20.0476C99.4981 20.1536 99.5483 20.2736 99.6515 20.3182L119.989 28.7104C120.095 28.7551 120.215 28.7021 120.26 28.5989C120.304 28.4929 120.254 28.373 120.151 28.3283L99.8132 19.9361Z" fill="#FFF0D4"/>
<path d="M73.2625 27.7175C73.1565 27.7621 73.0366 27.7092 72.9919 27.606C72.9473 27.5 72.9975 27.38 73.1007 27.3354L93.4385 18.9432C93.5444 18.8985 93.6644 18.9515 93.709 19.0547C93.7536 19.1607 93.7034 19.2806 93.6002 19.3253L73.2625 27.7175Z" fill="#FFF0D4"/>
</g>
<defs>
<clipPath id="clip0_111_1227">
<rect width="189" height="189" fill="white"/>
</clipPath>
</defs>
</svg>
