<svg width="189" height="189" viewBox="0 0 189 189" fill="none" xmlns="http://www.w3.org/2000/svg">
<path d="M111.106 36.7821L110.428 36.8571L110.503 37.0033L110.396 36.9641L110.118 36.907L109.701 36.8571L109.158 36.8178L108.502 36.7928L107.731 36.7821L106.854 36.7857L105.873 36.8035L104.792 36.8357L103.611 36.882L102.337 36.9391L100.971 37.0105L99.5187 37.0925L97.981 37.1888L96.3614 37.2959L94.6632 37.4172L92.8901 37.5492L91.0457 37.6919L89.1299 37.8489L87.1499 38.0165L85.1056 38.1949L83.0008 38.384L80.8388 38.5838L78.6234 38.7943L76.3579 39.0154L74.0426 39.2438L71.6844 39.4828L69.2834 39.7325L66.8468 39.9894L64.3744 40.257L61.8664 40.5352L61.7915 39.861L64.2995 39.5827L66.7754 39.3151L69.2156 39.0547L71.6166 38.805L73.9748 38.5659L76.2902 38.334L78.5591 38.1128L80.7746 37.9024L82.9366 37.7026L85.0414 37.5135L87.0892 37.3351L89.0728 37.1674L90.9886 37.0105L92.8366 36.8678L94.6132 36.7358L96.315 36.6145L97.9382 36.5074L99.4794 36.4111L100.935 36.3255L102.305 36.2541L103.582 36.1971L104.767 36.1507L105.855 36.1186L106.843 36.1007L107.731 36.0972L108.516 36.1079L109.194 36.1328L109.761 36.1721L110.225 36.2292L110.589 36.3077L110.881 36.4325L111.106 36.775V36.7821ZM111.106 36.7821C111.128 36.9677 110.992 37.1353 110.803 37.1567C110.614 37.1781 110.446 37.0426 110.425 36.8571L111.103 36.7821H111.106ZM62.3231 44.6415L62.2482 43.9672L64.7526 43.6854L67.2249 43.4036L69.6616 43.1182L72.059 42.8328L74.4136 42.5474L76.7218 42.2619L78.9801 41.9765L81.1884 41.6947L83.3397 41.4129L85.4339 41.1346L87.4674 40.8563L89.4367 40.5816L91.3382 40.3105L93.1719 40.0429L94.9308 39.7825L96.6147 39.5256L98.2165 39.2759L99.7363 39.0297L101.17 38.7907L102.519 38.5588L103.775 38.334L104.934 38.1164L105.997 37.9095L106.957 37.7097L107.813 37.5206L108.562 37.3423L109.198 37.1746L109.718 37.0176L110.114 36.8785L110.375 36.7607L110.471 36.7001L110.432 36.8606L111.11 36.7857L110.967 37.171L110.71 37.3601L110.375 37.5171L109.936 37.674L109.39 37.8381L108.737 38.013L107.974 38.1949L107.107 38.3876L106.137 38.5873L105.066 38.7978L103.9 39.0154L102.64 39.2402L101.288 39.4721L99.8504 39.7111L98.3271 39.9573L96.7217 40.207L95.0378 40.4639L93.2754 40.7243L91.4417 40.9919L89.5366 41.263L87.5637 41.5377L85.5302 41.816L83.4324 42.0943L81.2776 42.3761L79.0693 42.6579L76.8075 42.9434L74.4992 43.2288L72.1446 43.5142L69.7472 43.7996L67.3106 44.085L64.8382 44.3668L62.3302 44.6487L62.3231 44.6415ZM62.3231 44.6415C62.134 44.6629 61.9663 44.5274 61.9449 44.3418C61.9235 44.1563 62.0591 43.9887 62.2482 43.9672L62.3231 44.6415ZM13.0084 47.7203L13.6863 47.6454L13.6114 47.4992L13.7184 47.5384L13.9967 47.5955L14.4141 47.6454L14.9563 47.6847L15.6128 47.7096L16.3834 47.7203L17.261 47.7168L18.2421 47.6989L19.3231 47.6668L20.5039 47.6204L21.7776 47.5634L23.1439 47.492L24.5959 47.41L26.1336 47.3136L27.7533 47.2066L29.4514 47.0853L31.2245 46.9533L33.0689 46.8106L34.9847 46.6536L36.9647 46.486L39.009 46.3076L41.1138 46.1185L43.2758 45.9187L45.4913 45.7082L47.7567 45.487L50.072 45.2587L52.4302 45.0197L54.8312 44.77L57.2678 44.5131L59.7402 44.2455L62.2482 43.9672L62.3231 44.6415L59.8151 44.9198L57.3392 45.1874L54.899 45.4478L52.498 45.6975L50.1398 45.9366L47.8244 46.1684L45.5555 46.3896L43.34 46.6001L41.178 46.7999L39.0732 46.989L37.0254 47.1674L35.0418 47.335L33.126 47.492L31.278 47.6347L29.5014 47.7667L27.7996 47.888L26.1764 47.9986L24.6352 48.0949L23.1796 48.1806L21.8097 48.2519L20.5325 48.309L19.348 48.3554L18.2599 48.3875L17.2717 48.4053L16.3834 48.4089L15.5985 48.3982L14.9207 48.3732L14.3499 48.334L13.8861 48.2769L13.5222 48.1984L13.2296 48.0735L13.0049 47.731L13.0084 47.7203ZM13.0084 47.7203C12.987 47.5348 13.1226 47.3672 13.3117 47.3457C13.5008 47.3243 13.6685 47.4599 13.6899 47.6454L13.012 47.7203H13.0084ZM61.7915 39.861L61.8664 40.5352L59.362 40.8171L56.8897 41.0989L54.453 41.3843L52.0556 41.6697L49.701 41.9551L47.3928 42.2405L45.1345 42.5259L42.9262 42.8078L40.7749 43.0896L38.6807 43.3679L36.6472 43.6462L34.6779 43.9209L32.7764 44.192L30.9427 44.4596L29.1839 44.72L27.5 44.9769L25.8981 45.2266L24.3783 45.4728L22.9442 45.7118L21.5956 45.9437L20.3398 46.1684L19.1804 46.3861L18.1172 46.593L17.1575 46.7928L16.3013 46.9818L15.5521 47.1602L14.9171 47.3279L14.3962 47.4849L14.0002 47.624L13.7398 47.7417L13.6435 47.8024L13.6827 47.6419L13.0049 47.7168L13.1476 47.3315L13.4045 47.1424L13.7398 46.9854L14.1786 46.8284L14.7245 46.6643L15.3773 46.4895L16.1408 46.3076L17.0077 46.1149L17.9781 45.9151L19.0484 45.7047L20.215 45.487L21.4743 45.2623L22.8264 45.0304L24.2642 44.7914L25.7875 44.5452L27.3929 44.2955L29.0768 44.0386L30.8392 43.7782L32.6729 43.5106L34.578 43.2395L36.5509 42.9648L38.5844 42.6865L40.6822 42.4082L42.837 42.1264L45.0453 41.8445L47.3072 41.5591L49.6154 41.2737L51.97 40.9883L54.3674 40.7029L56.804 40.4175L59.2764 40.1357L61.7844 39.8538L61.7915 39.861ZM61.7915 39.861C61.9806 39.8396 62.1483 39.9751 62.1697 40.1606C62.1911 40.3462 62.0555 40.5138 61.8664 40.5352L61.7915 39.861Z" fill="#FF6624"/>
<path fill-rule="evenodd" clip-rule="evenodd" d="M73.6698 87.6953C73.8482 87.8844 73.9552 88.0913 73.9802 88.3161C74.13 89.6646 71.251 91.0917 67.5478 91.5055C63.8447 91.9193 60.7195 91.1594 60.5696 89.8109C60.5518 89.6646 60.5732 89.5148 60.6267 89.3685C61.5222 90.3175 64.205 90.7884 67.2945 90.4424C70.5945 90.0749 73.2417 88.9012 73.6698 87.6953Z" fill="#FF6624"/>
<path d="M13.3633 47.856C19.5102 52.9469 25.6572 58.0378 32.3678 63.9564C39.082 69.875 46.3598 76.6178 51.4436 82.1047C56.5274 87.5916 59.4172 91.8192 61.3615 94.7875C63.3058 97.7557 64.3047 99.4645 65.425 102.522C66.5452 105.583 67.7903 109.992 68.5073 114.998C69.2244 120.003 69.4135 125.601 69.2137 129.143C69.0139 132.686 68.4289 134.177 68.147 135.019C67.8652 135.861 67.8866 136.057 68.3111 136.307C68.7357 136.557 69.5598 136.86 70.4231 136.963C71.2865 137.067 72.1855 136.963 73.0845 136.863" stroke="#FF6624" stroke-width="1.1516" stroke-miterlimit="22.9256" stroke-linecap="round" stroke-linejoin="round"/>
<path d="M110.754 36.9995C105.881 43.3177 101.007 49.6394 95.7631 56.8888C90.5188 64.1381 84.9034 72.3221 80.8792 78.8258C76.8549 85.3259 74.4254 90.1493 73.1161 95.754C71.8068 101.359 71.6177 107.752 72.0494 113.695C72.4811 119.642 73.5264 125.144 74.5003 128.554C75.4743 131.968 76.3733 133.292 76.8335 134.052C77.2938 134.812 77.3152 135.008 76.9584 135.343C76.6016 135.679 75.8632 136.157 75.0426 136.446C74.2256 136.735 73.3266 136.835 72.4276 136.935" stroke="#FF6624" stroke-width="1.1516" stroke-miterlimit="22.9256" stroke-linecap="round" stroke-linejoin="round"/>
<path fill-rule="evenodd" clip-rule="evenodd" d="M99.6311 139.1C102.653 139.082 104.422 139.261 104.465 139.66C104.59 140.795 90.7442 143.267 73.5307 145.187C56.3207 147.106 42.268 147.741 42.1395 146.61C42.0932 146.2 43.8912 145.611 47.02 144.937C52.589 144.905 62.4177 144.198 73.5771 142.953C84.5402 141.73 94.137 140.285 99.6275 139.1H99.6311Z" fill="#FF6624"/>
<path d="M42.5469 146.307C47.6556 144.291 52.7609 142.279 57.2667 140.399C61.769 138.519 65.6719 136.778 68.4974 135.757C71.3265 134.737 73.0818 134.437 75.6255 134.412C78.1691 134.387 81.4977 134.634 85.7717 135.329C90.0456 136.021 95.265 137.159 98.5686 137.944C101.872 138.729 103.263 139.157 104.651 139.589" stroke="#FF6624" stroke-width="1.1516" stroke-miterlimit="22.9256" stroke-linecap="round" stroke-linejoin="round"/>
<path d="M28.7581 50.6421C26.5212 50.8133 24.2844 50.981 23.6601 51.5875C23.0357 52.1904 24.0204 53.2286 26.6354 55.5689C29.2504 57.9092 33.4959 61.5482 38.6011 66.1825C43.7063 70.8167 49.6748 76.4428 53.2781 79.8177C56.8778 83.1962 58.1122 84.3236 59.2895 85.1227C60.4668 85.9219 61.587 86.3892 62.7072 86.8601" stroke="#FF6624" stroke-width="1.1516" stroke-miterlimit="22.9256" stroke-linecap="round" stroke-linejoin="round"/>
<path d="M104.48 41.0132C103.866 41.9122 103.256 42.8112 100.388 43.5069C97.5195 44.2026 92.3893 44.6949 91.4189 45.0231C90.445 45.3478 93.6308 45.5083 95.7892 45.7045C97.9476 45.9008 99.0821 46.1291 98.2294 48.0841C97.3803 50.0392 94.5441 53.7173 91.7079 57.3777C88.8717 61.038 86.0319 64.6769 83.4026 68.9259C80.7697 73.1749 78.3437 78.0375 76.3138 80.756C74.2838 83.4745 72.6463 84.0524 71.0088 84.6304" stroke="#FF6624" stroke-width="1.1516" stroke-miterlimit="22.9256" stroke-linecap="round" stroke-linejoin="round"/>
<path d="M69.5066 107.092C62.0432 94.0347 72.036 91.9976 69.8455 101.748" stroke="#FF6624" stroke-width="1.1516" stroke-miterlimit="22.9256" stroke-linecap="round" stroke-linejoin="round"/>
<path d="M70.7054 124.638C70.7411 124.449 70.9551 124.313 71.1799 124.338C71.4047 124.359 71.5581 124.534 71.5224 124.723L70.7054 124.641V124.638ZM70.6876 131.48L69.8635 131.577L69.8456 131.416L69.8349 131.252L69.8278 131.081L69.8242 130.906V130.727L69.8278 130.542L69.8349 130.353L69.8456 130.16L69.8599 129.964L69.8777 129.761L69.8956 129.554L69.917 129.343L69.9419 129.129L69.9669 128.912L69.9955 128.69L70.0276 128.469L70.0597 128.244L70.0954 128.016L70.131 127.784L70.1703 127.552L70.2095 127.317L70.2523 127.078L70.2951 126.839L70.338 126.596L70.3843 126.354L70.4307 126.111L70.4771 125.865L70.5235 125.619L70.5698 125.373L70.6162 125.126L70.6626 124.88L70.709 124.634L71.526 124.716L71.4796 124.962L71.4332 125.208L71.3868 125.455L71.3404 125.701L71.2941 125.943L71.2477 126.186L71.2013 126.429L71.1585 126.668L71.1157 126.907L71.0729 127.146L71.0336 127.381L70.9944 127.613L70.9551 127.845L70.9195 128.073L70.8838 128.298L70.8517 128.519L70.8196 128.737L70.791 128.951L70.7661 129.161L70.7411 129.368L70.7197 129.572L70.7018 129.771L70.6876 129.964L70.6769 130.153L70.6662 130.339L70.659 130.517L70.6555 130.692V130.859L70.659 131.02L70.6662 131.177L70.6769 131.327L70.6911 131.47L70.6876 131.48ZM70.6876 131.48C70.709 131.669 70.5449 131.844 70.3165 131.869C70.0882 131.894 69.8849 131.766 69.8635 131.577L70.6876 131.48ZM72.0789 133.275L72.0754 133.963H71.9826L71.8899 133.96L71.7971 133.953L71.7043 133.938L71.6116 133.92L71.5188 133.899L71.4261 133.87L71.3369 133.838L71.2477 133.803L71.1585 133.76L71.0693 133.714L70.9837 133.664L70.8981 133.606L70.816 133.546L70.7375 133.482L70.659 133.41L70.5841 133.335L70.5128 133.253L70.445 133.168L70.3808 133.075L70.3201 132.979L70.2595 132.879L70.2024 132.772L70.1489 132.661L70.0989 132.543L70.0525 132.422L70.0097 132.297L69.9705 132.165L69.9384 132.026L69.9098 131.883L69.8849 131.734L69.8635 131.58L70.6876 131.484L70.7054 131.619L70.7268 131.748L70.7518 131.873L70.7803 131.99L70.8124 132.101L70.8481 132.204L70.8838 132.304L70.923 132.397L70.9658 132.486L71.0087 132.568L71.055 132.643L71.1014 132.715L71.1478 132.779L71.1977 132.839L71.2477 132.897L71.2976 132.946L71.3476 132.993L71.3975 133.036L71.4475 133.075L71.4974 133.111L71.5474 133.143L71.5973 133.171L71.6473 133.196L71.6972 133.218L71.7471 133.235L71.7971 133.25L71.8435 133.26L71.8899 133.271L71.9362 133.278L71.9826 133.282L72.0254 133.285H72.0682L72.0789 133.275ZM72.0789 133.275C72.3073 133.268 72.4928 133.417 72.4928 133.606C72.4928 133.796 72.3037 133.956 72.0754 133.963L72.0789 133.275ZM73.1777 132.358L73.9662 132.543L73.9412 132.608L73.9127 132.672L73.8841 132.732L73.852 132.797L73.8163 132.857L73.7807 132.918L73.7414 132.979L73.7022 133.039L73.6594 133.1L73.6166 133.157L73.5702 133.214L73.5202 133.271L73.4703 133.325L73.4168 133.378L73.3597 133.432L73.3026 133.482L73.242 133.532L73.1813 133.578L73.1171 133.624L73.0493 133.667L72.9815 133.71L72.9102 133.749L72.8353 133.785L72.7603 133.821L72.6819 133.853L72.5998 133.881L72.5177 133.906L72.4321 133.928L72.3465 133.945L72.2573 133.96L72.1681 133.97L72.0789 133.974L72.0825 133.285L72.1253 133.282L72.1681 133.278L72.2109 133.271L72.2537 133.264L72.293 133.253L72.3322 133.243L72.3715 133.228L72.4107 133.214L72.45 133.196L72.4892 133.175L72.5284 133.153L72.5677 133.128L72.6069 133.103L72.6462 133.075L72.6854 133.046L72.7247 133.014L72.7603 132.982L72.796 132.95L72.8317 132.914L72.8674 132.879L72.8995 132.839L72.9316 132.8L72.9637 132.761L72.9922 132.718L73.0208 132.675L73.0493 132.633L73.0743 132.59L73.0993 132.547L73.1207 132.504L73.1421 132.461L73.1599 132.418L73.1777 132.372V132.358ZM73.1777 132.358C73.2491 132.176 73.481 132.065 73.6986 132.119C73.9162 132.169 74.0375 132.361 73.9662 132.543L73.1777 132.358ZM73.1599 130.788L73.9805 130.653L73.9912 130.706L74.0019 130.76L74.0126 130.813L74.0233 130.87L74.034 130.927L74.0447 130.981L74.0554 131.038L74.0661 131.095L74.0732 131.152L74.0803 131.209L74.0875 131.266L74.0946 131.323L74.1017 131.38L74.1089 131.437L74.1125 131.494L74.116 131.552L74.1196 131.612V131.673V131.734V131.794L74.116 131.855L74.1125 131.915L74.1053 131.976L74.0982 132.037L74.0875 132.097L74.0768 132.158L74.0625 132.219L74.0482 132.279L74.0304 132.344L74.0126 132.408L73.9912 132.472L73.9697 132.536L73.1813 132.351L73.1992 132.304L73.2134 132.258L73.2277 132.215L73.2384 132.169L73.2491 132.122L73.2598 132.076L73.2669 132.03L73.2741 131.983L73.2812 131.937L73.2848 131.89L73.2883 131.844L73.2919 131.798V131.751V131.705V131.655L73.2883 131.605L73.2848 131.555L73.2812 131.505L73.2776 131.455L73.2705 131.405L73.2634 131.355L73.2562 131.305L73.2491 131.255L73.242 131.206L73.2348 131.156L73.2241 131.102L73.2134 131.049L73.2027 130.995L73.192 130.942L73.1813 130.888L73.1706 130.834L73.1599 130.781V130.788ZM73.1599 130.788C73.1242 130.603 73.2776 130.421 73.5024 130.381C73.7271 130.342 73.9412 130.463 73.9769 130.653L73.1563 130.788H73.1599Z" fill="#FF6624"/>
<path fill-rule="evenodd" clip-rule="evenodd" d="M85.1008 43.7175C86.8881 43.6676 87.8977 43.7247 87.9156 43.8995C87.9869 44.5274 75.3434 46.4503 59.6818 48.1984C44.0165 49.9465 31.2624 50.8527 31.1946 50.2248C31.1732 50.0357 32.2899 49.7325 34.2842 49.3543C38.8935 49.2259 48.6686 48.4053 59.9565 47.146C70.9339 45.9223 80.4272 44.6094 85.1008 43.7211V43.7175Z" fill="#FF6624"/>
<path fill-rule="evenodd" clip-rule="evenodd" d="M41.694 58.1946C45.736 63.0037 53.4634 72.101 57.7088 76.8031C61.9578 81.5016 62.7248 81.8084 61.1551 79.5572C59.5854 77.3096 55.6717 72.5041 52.3253 68.3122C48.979 64.1167 46.1962 60.5313 45.2473 58.6227C44.2983 56.714 45.1831 56.4857 47.3486 58.8225C49.5141 61.1557 52.9604 66.0539 54.3981 67.8663C55.8323 69.675 55.2579 68.3978 53.7667 65.7079C52.2754 63.0179 49.8709 58.9116 48.376 56.3715C46.8812 53.8314 46.2961 52.8575 45.1617 52.5935C44.0272 52.3295 42.3468 52.779 40.8841 52.8539C39.4214 52.9288 38.1763 52.6363 37.734 52.7504C37.2916 52.8646 37.6519 53.3855 41.6975 58.1981L41.694 58.1946Z" fill="#FF6624"/>
<path d="M69.8032 106.928C69.8959 107.085 69.8389 107.281 69.6747 107.374C69.5106 107.463 69.3002 107.41 69.2074 107.256L69.8032 106.931V106.928ZM70.2099 102.08L69.5428 101.94L69.714 101.123L69.821 100.374L69.8674 99.6928L69.8603 99.0792L69.8067 98.5334L69.7104 98.0553L69.5784 97.645L69.4215 97.3026L69.2431 97.0278L69.054 96.8209L68.8613 96.6747L68.6723 96.5855L68.4903 96.5462L68.3119 96.5498L68.1336 96.5997L67.9516 96.6961L67.7697 96.8495L67.5913 97.0671L67.4272 97.3489L67.288 97.695L67.1774 98.1088L67.1061 98.5869L67.0776 99.1327L67.099 99.7428L67.1774 100.417L67.3201 101.156L67.5306 101.958L67.8125 102.825L68.1764 103.756L68.6259 104.748L69.1646 105.804L69.7996 106.921L69.2038 107.245L68.5545 106.104L68.0016 105.023L67.5413 104.002L67.1667 103.043L66.8706 102.14L66.653 101.298L66.5032 100.517L66.4175 99.7963L66.3926 99.1327L66.4247 98.5298L66.5067 97.984L66.6352 97.4988L66.8064 97.0742L67.0205 96.7068L67.2702 96.4L67.5556 96.1609L67.8731 95.9897L68.212 95.8969L68.5617 95.8862L68.9042 95.9611L69.2288 96.1145L69.5249 96.3393L69.7889 96.6319L70.0172 96.985L70.2099 97.4025L70.3633 97.8805L70.4703 98.4192L70.531 99.0221L70.5381 99.6857L70.4882 100.413L70.3776 101.205L70.1992 102.062L70.2099 102.08ZM70.2099 102.08C70.1671 102.254 69.9851 102.365 69.7996 102.329C69.6141 102.29 69.4999 102.119 69.5428 101.94L70.2099 102.08Z" fill="#FF6624"/>
<path d="M69.8034 106.935C69.8961 107.085 69.8355 107.274 69.6714 107.36C69.5073 107.445 69.3004 107.395 69.2076 107.249L69.8034 106.935ZM70.2315 102.283L69.5679 102.154L69.7427 101.37L69.8533 100.649L69.9033 99.9961L69.8997 99.4074L69.8462 98.883L69.7534 98.4263L69.625 98.0339L69.468 97.7057L69.2932 97.4452L69.1041 97.2455L68.9151 97.1063L68.7295 97.0207L68.5476 96.985L68.3728 96.9886L68.1944 97.035L68.0125 97.1313L67.8269 97.2811L67.6486 97.488L67.4845 97.7592L67.3418 98.0945L67.2312 98.4905L67.1562 98.9508L67.1241 99.4752L67.142 100.06L67.2169 100.71L67.356 101.42L67.5629 102.19L67.8412 103.021L68.2015 103.91L68.6439 104.859L69.1791 105.868L69.8105 106.939L69.2147 107.253L68.5726 106.161L68.0267 105.126L67.5701 104.149L67.199 103.228L66.9101 102.365L66.696 101.559L66.5498 100.809L66.4677 100.117L66.4463 99.4823L66.482 98.9044L66.5676 98.3835L66.6996 97.9162L66.8744 97.5059L67.0885 97.1527L67.3418 96.8601L67.6272 96.6283L67.9447 96.4641L68.2872 96.375L68.6368 96.3643L68.9793 96.4356L69.3004 96.5819L69.5965 96.7959L69.8605 97.0742L70.0888 97.4131L70.2779 97.8127L70.4277 98.2693L70.5347 98.7866L70.5918 99.3646L70.5954 100.003L70.5419 100.702L70.4277 101.462L70.2458 102.283H70.2315ZM70.2315 102.283C70.1887 102.451 70.0032 102.558 69.8212 102.522C69.6393 102.486 69.5251 102.322 69.5679 102.154L70.2315 102.283Z" fill="#FF6624"/>
<path d="M70.7065 124.641C70.7458 124.466 70.9598 124.337 71.1846 124.355C71.4093 124.373 71.5628 124.534 71.5235 124.708L70.7065 124.637V124.641ZM70.6352 130.994L69.8111 131.091L69.7968 130.941L69.7861 130.788L69.779 130.631L69.7754 130.466V130.299L69.779 130.128L69.7861 129.953L69.7968 129.774L69.8111 129.592L69.8289 129.403L69.8503 129.211L69.8753 129.014L69.9003 128.815L69.9288 128.615L69.9609 128.412L69.993 128.205L70.0287 127.994L70.0644 127.784L70.1036 127.57L70.1429 127.352L70.1857 127.134L70.2285 126.913L70.2713 126.692L70.3177 126.467L70.364 126.242L70.4104 126.014L70.4604 125.786L70.5103 125.557L70.5603 125.329L70.6102 125.101L70.6601 124.872L70.7101 124.644L71.5271 124.715L71.4771 124.944L71.4272 125.172L71.3772 125.4L71.3273 125.629L71.2773 125.857L71.231 126.082L71.1846 126.307L71.1382 126.531L71.0918 126.753L71.049 126.974L71.0062 127.191L70.9634 127.409L70.9242 127.623L70.8849 127.834L70.8492 128.044L70.8136 128.251L70.7815 128.454L70.7529 128.654L70.7244 128.85L70.6994 129.043L70.678 129.232L70.6601 129.418L70.6423 129.6L70.628 129.774L70.6173 129.946L70.6102 130.113L70.6066 130.274V130.431L70.6102 130.581L70.6173 130.727L70.628 130.866L70.6423 130.998L70.6352 130.994ZM70.6352 130.994C70.6566 131.169 70.4889 131.333 70.2606 131.358C70.0323 131.383 69.8289 131.266 69.8111 131.091L70.6352 130.994ZM72.0087 132.65L71.998 133.292H71.9052L71.8125 133.288L71.7197 133.281L71.627 133.271L71.5342 133.256L71.4414 133.235L71.3487 133.21L71.2559 133.181L71.1667 133.149L71.0776 133.11L70.9919 133.067L70.9063 133.021L70.8243 132.967L70.7422 132.91L70.6637 132.85L70.5888 132.785L70.5139 132.714L70.4425 132.639L70.3747 132.561L70.3105 132.475L70.2499 132.386L70.1928 132.293L70.1393 132.197L70.0893 132.093L70.043 131.986L70.0001 131.872L69.9609 131.754L69.9252 131.633L69.8931 131.505L69.8646 131.373L69.8396 131.233L69.8182 131.091L70.6423 130.994L70.6601 131.119L70.6816 131.241L70.7065 131.355L70.7351 131.462L70.7672 131.565L70.7993 131.662L70.835 131.754L70.8742 131.84L70.9134 131.922L70.9563 131.997L70.9991 132.068L71.0454 132.132L71.0918 132.193L71.1382 132.25L71.1882 132.3L71.2381 132.347L71.288 132.389L71.338 132.429L71.3879 132.464L71.4379 132.496L71.4878 132.525L71.5378 132.55L71.5877 132.571L71.6377 132.589L71.6876 132.603L71.7376 132.618L71.7839 132.628L71.8303 132.636L71.8767 132.643L71.9231 132.646H71.9695H72.0123L72.0087 132.65ZM72.0087 132.65C72.237 132.643 72.4225 132.778 72.419 132.957C72.4154 133.135 72.2263 133.285 71.998 133.292L72.0087 132.65ZM73.1146 131.79L73.9031 131.954L73.8781 132.011L73.8496 132.068L73.821 132.125L73.7889 132.182L73.7532 132.24L73.7176 132.297L73.6783 132.354L73.6355 132.411L73.5927 132.464L73.5463 132.518L73.4999 132.571L73.45 132.625L73.4001 132.675L73.3465 132.725L73.2895 132.775L73.2324 132.821L73.1717 132.867L73.1075 132.914L73.0433 132.957L72.9755 132.999L72.9042 133.039L72.8328 133.074L72.7579 133.11L72.683 133.142L72.6045 133.171L72.5224 133.196L72.4404 133.221L72.3547 133.242L72.2691 133.26L72.1799 133.274L72.0908 133.285L71.998 133.288L72.0087 132.646L72.0515 132.643L72.0943 132.639L72.1371 132.632L72.1799 132.625L72.2192 132.614L72.2584 132.603L72.2977 132.589L72.3369 132.575L72.3762 132.557L72.4154 132.539L72.4546 132.518L72.4939 132.496L72.5331 132.471L72.5724 132.446L72.6116 132.418L72.6509 132.389L72.6865 132.357L72.7222 132.325L72.7579 132.293L72.7936 132.257L72.8257 132.222L72.8578 132.186L72.8899 132.147L72.922 132.108L72.9505 132.068L72.9791 132.029L73.0041 131.99L73.029 131.951L73.0504 131.908L73.0718 131.865L73.0932 131.822L73.1111 131.779L73.1146 131.79ZM73.1146 131.79C73.186 131.619 73.4215 131.519 73.6391 131.562C73.8567 131.608 73.9744 131.783 73.9031 131.954L73.1146 131.79ZM73.1075 130.334L73.9281 130.199L73.9388 130.249L73.9495 130.299L73.9602 130.349L73.9709 130.399L73.9816 130.449L73.9923 130.502L74.003 130.556L74.0101 130.609L74.0172 130.663L74.0244 130.716L74.0315 130.77L74.0386 130.823L74.0458 130.877L74.0493 130.93L74.0529 130.984L74.0565 131.037L74.0601 131.091V131.148V131.205L74.0565 131.262L74.0529 131.319L74.0493 131.376L74.0422 131.433L74.0351 131.49L74.0244 131.547L74.0137 131.604L73.9994 131.662L73.9851 131.719L73.9673 131.776L73.9495 131.833L73.9281 131.89L73.9031 131.947L73.1146 131.783L73.1325 131.74L73.1468 131.697L73.161 131.654L73.1753 131.612L73.186 131.569L73.1967 131.526L73.2038 131.483L73.211 131.44L73.2181 131.398L73.2217 131.355L73.2252 131.312L73.2288 131.269V131.223V131.176V131.13V131.084L73.2252 131.037L73.2217 130.991L73.2181 130.944L73.2145 130.898L73.2074 130.852L73.2003 130.805L73.1931 130.759L73.186 130.713L73.1789 130.666L73.1717 130.62L73.161 130.57L73.1503 130.52L73.1396 130.47L73.1289 130.42L73.1182 130.37L73.1075 130.32V130.334ZM73.1075 130.334C73.0718 130.16 73.2288 129.992 73.4536 129.953C73.6783 129.917 73.8924 130.028 73.9281 130.199L73.1075 130.334Z" fill="#FF6624"/>
<path d="M70.709 124.644C70.7482 124.477 70.9623 124.355 71.1835 124.373C71.4082 124.391 71.5581 124.541 71.5188 124.705L70.709 124.644ZM70.5984 130.702L69.7779 130.799L69.7636 130.656L69.7529 130.51L69.7458 130.36L69.7422 130.206L69.7458 130.046L69.7529 129.882L69.7636 129.714L69.7743 129.543L69.7886 129.368L69.8064 129.19L69.8278 129.008L69.8528 128.822L69.8813 128.633L69.9099 128.44L69.942 128.244L69.9741 128.048L70.0098 127.848L70.049 127.645L70.0882 127.441L70.1311 127.235L70.1739 127.024L70.2167 126.814L70.2631 126.603L70.3094 126.389L70.3558 126.175L70.4058 125.957L70.4557 125.74L70.5056 125.522L70.5556 125.304L70.6055 125.087L70.6555 124.869L70.7054 124.652L71.5153 124.712L71.4653 124.93L71.4154 125.147L71.3654 125.365L71.3155 125.583L71.2655 125.8L71.2156 126.018L71.1657 126.232L71.1193 126.446L71.0729 126.657L71.0265 126.867L70.9837 127.074L70.9409 127.281L70.9017 127.484L70.8624 127.688L70.8267 127.887L70.7911 128.084L70.7589 128.276L70.7268 128.465L70.6983 128.654L70.6733 128.84L70.6484 129.022L70.6269 129.197L70.6091 129.368L70.5948 129.536L70.5841 129.7L70.577 129.86L70.5734 130.014L70.5699 130.164L70.5734 130.306L70.5806 130.445L70.5913 130.577L70.6055 130.702H70.5984ZM70.5984 130.702C70.6198 130.866 70.4521 131.023 70.2238 131.048C69.9991 131.073 69.7993 130.963 69.7779 130.795L70.5984 130.699V130.702ZM71.9684 132.276L71.9541 132.882H71.8613L71.7686 132.878L71.6758 132.871L71.5831 132.861L71.4903 132.846L71.3975 132.828L71.3048 132.807L71.2156 132.779L71.1264 132.746L71.0372 132.711L70.948 132.672L70.8624 132.629L70.7804 132.579L70.6983 132.525L70.6198 132.468L70.5449 132.408L70.47 132.34L70.3986 132.268L70.3308 132.193L70.2666 132.115L70.206 132.029L70.1489 131.94L70.0954 131.847L70.0454 131.751L69.9991 131.648L69.9562 131.541L69.917 131.43L69.8813 131.312L69.8492 131.191L69.8207 131.066L69.7993 130.934L69.7814 130.799L70.602 130.702L70.6198 130.824L70.6412 130.938L70.6662 131.048L70.6947 131.152L70.7233 131.248L70.7554 131.341L70.7911 131.426L70.8303 131.508L70.8695 131.587L70.9124 131.658L70.9552 131.726L71.0015 131.787L71.0479 131.844L71.0943 131.897L71.1442 131.947L71.1942 131.994L71.2441 132.033L71.2941 132.069L71.344 132.101L71.394 132.129L71.4439 132.158L71.4939 132.183L71.5438 132.204L71.5938 132.222L71.6437 132.236L71.6937 132.247L71.7436 132.258L71.79 132.265L71.8364 132.272L71.8827 132.276H71.9291H71.9719H71.9684ZM71.9684 132.276C72.1967 132.268 72.3751 132.397 72.3715 132.561C72.3679 132.729 72.1788 132.871 71.9541 132.878L71.9684 132.272V132.276ZM73.0814 131.448L73.8627 131.601L73.8378 131.658L73.8092 131.715L73.7771 131.772L73.745 131.83L73.7093 131.883L73.6737 131.937L73.6344 131.99L73.5952 132.044L73.5524 132.097L73.506 132.151L73.4596 132.201L73.4097 132.251L73.3597 132.3L73.3062 132.347L73.2491 132.393L73.192 132.44L73.1314 132.482L73.0672 132.525L73.003 132.568L72.9352 132.607L72.8638 132.647L72.7925 132.682L72.7175 132.714L72.6391 132.746L72.5606 132.775L72.4785 132.8L72.3965 132.821L72.3108 132.839L72.2252 132.857L72.136 132.871L72.0468 132.882L71.9541 132.889L71.9684 132.283L72.0112 132.279L72.054 132.276L72.0968 132.268L72.1396 132.261L72.1788 132.251L72.2181 132.24L72.2573 132.226L72.2966 132.211L72.3358 132.193L72.3751 132.176L72.4143 132.154L72.4535 132.133L72.4928 132.108L72.532 132.083L72.5713 132.058L72.6105 132.029L72.6462 132.001L72.6819 131.972L72.7175 131.94L72.7532 131.908L72.7889 131.872L72.821 131.837L72.8531 131.801L72.8817 131.765L72.9102 131.726L72.9387 131.687L72.9637 131.648L72.9887 131.608L73.0137 131.569L73.0351 131.53L73.0565 131.491L73.0743 131.451L73.0814 131.448ZM73.0814 131.448C73.1528 131.287 73.3882 131.187 73.6023 131.23C73.8164 131.273 73.9341 131.437 73.8627 131.601L73.0814 131.448ZM73.085 130.056L73.8984 129.924L73.9091 129.971L73.9198 130.017L73.9305 130.067L73.9412 130.117L73.9519 130.167L73.9626 130.217L73.9698 130.267L73.9769 130.317L73.984 130.367L73.9912 130.417L73.9983 130.467L74.0054 130.517L74.0126 130.567L74.0161 130.617L74.0197 130.67L74.0233 130.724L74.0268 130.777V130.831V130.884L74.0233 130.938L74.0197 130.991L74.0161 131.045L74.009 131.098L74.0019 131.152L73.9912 131.205L73.9805 131.262L73.9662 131.319L73.9519 131.376L73.9341 131.434L73.9163 131.491L73.8948 131.548L73.8699 131.605L73.0886 131.451L73.1064 131.412L73.1207 131.373L73.135 131.334L73.1492 131.294L73.1599 131.255L73.1706 131.216L73.1778 131.177L73.1849 131.134L73.192 131.091L73.1956 131.048L73.1992 131.005L73.2027 130.963V130.92V130.877V130.834V130.791L73.1992 130.749L73.1956 130.706L73.192 130.663L73.1885 130.62L73.1813 130.574L73.1742 130.527L73.1671 130.481L73.1599 130.435L73.1528 130.388L73.1457 130.342L73.1385 130.296L73.1278 130.249L73.1171 130.203L73.1064 130.156L73.0957 130.11L73.085 130.064V130.056ZM73.085 130.056C73.0529 129.892 73.2063 129.732 73.4311 129.696C73.6558 129.66 73.8663 129.764 73.8984 129.928L73.085 130.06V130.056Z" fill="#FF6624"/>
<path d="M14.5449 47.856C20.5706 52.847 26.5926 57.838 33.1748 63.6389C39.7534 69.4398 46.8922 76.0505 51.8761 81.4304C56.86 86.8068 59.6926 90.9523 61.5977 93.8599C63.5028 96.7675 64.4839 98.4442 65.5827 101.445C66.6815 104.445 67.9016 108.769 68.6044 113.674C69.3073 118.58 69.4928 124.067 69.2966 127.538C69.1039 131.013 68.5295 132.472 68.2513 133.296C67.9765 134.12 67.998 134.313 68.4118 134.559C68.8256 134.805 69.6355 135.101 70.481 135.201C71.3265 135.301 72.2077 135.201 73.0889 135.105" stroke="#FF6624" stroke-width="1.13352" stroke-miterlimit="22.9256" stroke-linecap="round" stroke-linejoin="round"/>
<path d="M110.103 37.2029L109.593 36.789C109.707 36.6428 109.914 36.6142 110.053 36.7284C110.193 36.8426 110.218 37.0566 110.103 37.2029ZM94.8164 56.5106L95.3015 55.8399L95.7832 55.1728L96.2648 54.5128L96.7429 53.8563L97.2209 53.2035L97.6954 52.5577L98.1663 51.9156L98.6372 51.277L99.1046 50.6419L99.5719 50.0105L100.039 49.3826L100.503 48.7583L100.967 48.1375L101.427 47.5203L101.887 46.9067L102.348 46.2966L102.808 45.6901L103.264 45.0837L103.721 44.4807L104.178 43.8814L104.631 43.282L105.084 42.6862L105.537 42.0905L105.99 41.4982L106.443 40.906L106.896 40.3138L107.346 39.7252L107.795 39.1365L108.694 37.9592L109.593 36.7855L110.103 37.1993L109.204 38.373L108.305 39.5503L107.856 40.139L107.406 40.7276L106.953 41.3199L106.5 41.9121L106.047 42.5043L105.594 43.1001L105.141 43.6959L104.688 44.2952L104.231 44.8946L103.775 45.4975L103.318 46.104L102.861 46.7105L102.401 47.3205L101.941 47.9341L101.481 48.5513L101.017 49.1721L100.553 49.7929L100.086 50.4172L99.6183 51.0451L99.151 51.6801L98.68 52.3187L98.2091 52.9609L97.7346 53.6066L97.2602 54.2559L96.7821 54.9123L96.3041 55.5723L95.8224 56.2359L95.3372 56.9066L94.8128 56.5106H94.8164ZM94.8164 56.5106L95.3408 56.9066C95.2302 57.0565 95.0268 57.0921 94.8806 56.9815C94.7379 56.8709 94.7093 56.6605 94.8164 56.5106ZM80.0965 78.2728L80.4747 77.6628L80.8636 77.042L81.2596 76.4141L81.6627 75.7791L82.073 75.1334L82.494 74.4805L82.9185 73.8205L83.3502 73.1569L83.789 72.4862L84.2349 71.8084L84.6844 71.127L85.1411 70.442L85.6013 69.7535L86.0651 69.0614L86.536 68.3657L87.0105 67.6664L87.4886 66.9636L87.9702 66.2608L88.4518 65.558L88.937 64.8516L89.4258 64.1452L89.9145 63.4388L90.4033 62.736L90.8956 62.0332L91.3879 61.3304L91.8802 60.6312L92.3726 59.9355L92.8649 59.2434L93.3572 58.5548L93.846 57.8699L94.3347 57.1885L94.8199 56.5106L95.3444 56.9066L94.8592 57.5809L94.3704 58.2623L93.8817 58.9473L93.3929 59.6358L92.9006 60.3279L92.4082 61.0236L91.9159 61.7228L91.4236 62.4221L90.9348 63.1249L90.4461 63.8277L89.9573 64.5305L89.4721 65.2333L88.9869 65.9362L88.5053 66.639L88.0273 67.3418L87.5528 68.041L87.0819 68.7403L86.6145 69.4359L86.1507 70.1281L85.6905 70.8166L85.2338 71.5016L84.7843 72.183L84.342 72.8573L83.9031 73.528L83.4715 74.1915L83.0469 74.848L82.6295 75.4973L82.2192 76.1394L81.8161 76.7745L81.4201 77.4024L81.0348 78.0195L80.6566 78.626L80.1072 78.2693L80.0965 78.2728ZM80.0965 78.2728L80.6459 78.6296C80.5461 78.7901 80.3463 78.8365 80.1929 78.7402C80.0395 78.6403 79.9966 78.4334 80.0965 78.2728ZM72.2764 95.1511L72.4084 94.6266L72.5475 94.1093L72.6938 93.5956L72.8472 93.0819L73.0042 92.5717L73.1683 92.0651L73.3395 91.5585L73.5179 91.0555L73.7034 90.5524L73.8961 90.0494L74.0959 89.5464L74.3028 89.0434L74.5168 88.5403L74.738 88.0373L74.9664 87.5307L75.2018 87.0241L75.448 86.5139L75.7013 86.0002L75.9617 85.4829L76.2293 84.962L76.504 84.4376L76.7894 83.9096L77.0819 83.3745L77.3816 82.8358L77.692 82.2899L78.0095 81.737L78.3342 81.1769L78.6695 80.6096L79.012 80.0352L79.3652 79.4537L79.7255 78.8615L80.0965 78.2621L80.6459 78.6189L80.2785 79.2183L79.9182 79.8069L79.5685 80.3884L79.226 80.9592L78.8943 81.5229L78.5696 82.0794L78.2557 82.6289L77.9489 83.1711L77.6492 83.7063L77.3602 84.2343L77.0784 84.7587L76.8037 85.276L76.5397 85.7897L76.2828 86.2999L76.0331 86.8065L75.7905 87.3095L75.555 87.809L75.3303 88.3084L75.1126 88.8043L74.9021 89.3002L74.6988 89.7961L74.5026 90.2885L74.3135 90.7808L74.1315 91.2731L73.9567 91.769L73.7891 92.2649L73.625 92.7644L73.468 93.2638L73.3181 93.7668L73.1754 94.2734L73.0399 94.7836L72.9114 95.2973L72.2764 95.1439V95.1511ZM72.2764 95.1511L72.9114 95.3045C72.8651 95.4864 72.6867 95.6006 72.5119 95.5578C72.3371 95.5149 72.23 95.333 72.2764 95.1511ZM70.885 113.035L70.8601 112.479L70.8387 111.919L70.8208 111.359L70.8066 110.795L70.7959 110.231L70.7887 109.664L70.7852 109.097V108.529L70.7923 107.962L70.803 107.391L70.8173 106.821L70.8351 106.25L70.8601 105.679L70.8886 105.108L70.9207 104.537L70.9564 103.97L70.9992 103.403L71.0456 102.836L71.0991 102.272L71.1562 101.708L71.2204 101.148L71.2882 100.588L71.3631 100.032L71.4416 99.475L71.5272 98.922L71.6164 98.3726L71.7127 97.8267L71.8162 97.2845L71.9232 96.7458L72.0374 96.2106L72.1587 95.6791L72.2835 95.1511L72.9186 95.3045L72.7937 95.8218L72.676 96.3462L72.5654 96.8742L72.4584 97.4058L72.3585 97.9409L72.2621 98.4796L72.1729 99.0219L72.0909 99.5677L72.0124 100.117L71.9411 100.667L71.8733 101.22L71.8126 101.776L71.7555 102.333L71.7056 102.893L71.6592 103.453L71.6164 104.013L71.5807 104.577L71.5486 105.14L71.5201 105.704L71.4951 106.268L71.4773 106.831L71.463 107.395L71.4523 107.959L71.4487 108.522V109.086L71.4523 109.65L71.4594 110.21L71.4701 110.77L71.4844 111.326L71.5022 111.883L71.5236 112.436L71.5486 112.989L70.8958 113.039L70.885 113.035ZM70.885 113.035L71.5379 112.985C71.5486 113.171 71.4095 113.335 71.2275 113.346C71.0456 113.36 70.8922 113.217 70.885 113.032V113.035ZM72.9507 127.83L72.8686 127.505L72.7866 127.167L72.7045 126.817L72.6225 126.457L72.5404 126.086L72.4584 125.704L72.3763 125.311L72.2978 124.908L72.2193 124.498L72.1408 124.077L72.0624 123.645L71.9874 123.206L71.9125 122.761L71.8376 122.304L71.7662 121.84L71.6949 121.369L71.6271 120.891L71.5593 120.406L71.4951 119.914L71.4309 119.414L71.3702 118.908L71.3132 118.397L71.2561 117.88L71.2026 117.359L71.1526 116.831L71.1027 116.3L71.0563 115.765L71.0135 115.226L70.9742 114.684L70.9386 114.138L70.9065 113.588L70.8779 113.035L71.5308 112.985L71.5593 113.535L71.5914 114.081L71.6271 114.623L71.6663 115.162L71.7092 115.697L71.7555 116.228L71.8019 116.756L71.8519 117.277L71.9054 117.794L71.9625 118.308L72.0195 118.815L72.0802 119.314L72.1408 119.81L72.2051 120.299L72.2728 120.781L72.3406 121.255L72.412 121.722L72.4833 122.183L72.5547 122.636L72.6296 123.078L72.7045 123.513L72.7794 123.938L72.8579 124.355L72.9364 124.762L73.0149 125.158L73.0934 125.547L73.1719 125.925L73.2539 126.292L73.336 126.649L73.418 126.992L73.5001 127.323L73.5821 127.645L72.9471 127.83H72.9507ZM72.9507 127.83L73.5857 127.645C73.6321 127.823 73.5286 128.012 73.3538 128.062C73.179 128.112 73.0006 128.008 72.9542 127.83H72.9507ZM75.1126 133.36L75.027 133.214L74.9343 133.049L74.8843 132.96L74.8308 132.868L74.7773 132.768L74.7202 132.664L74.6595 132.554L74.5989 132.436L74.5347 132.315L74.4705 132.186L74.4027 132.051L74.3349 131.908L74.2671 131.758L74.1958 131.601L74.1244 131.433L74.0531 131.259L73.9781 131.077L73.9032 130.887L73.8283 130.688L73.7498 130.481L73.6713 130.263L73.5928 130.035L73.5144 129.796L73.4359 129.55L73.3574 129.293L73.2753 129.025L73.1933 128.747L73.1112 128.458L73.0292 128.155L72.9471 127.841L73.5821 127.655L73.6642 127.962L73.7427 128.258L73.8212 128.544L73.8997 128.818L73.9781 129.079L74.0566 129.328L74.1351 129.571L74.21 129.803L74.2849 130.024L74.3599 130.235L74.4348 130.438L74.5097 130.631L74.5811 130.813L74.6524 130.987L74.7202 131.155L74.788 131.316L74.8558 131.465L74.92 131.608L74.9842 131.744L75.0484 131.872L75.1091 131.997L75.1697 132.115L75.2268 132.225L75.2839 132.332L75.3374 132.432L75.3909 132.529L75.4408 132.621L75.4908 132.707L75.5835 132.871L75.6692 133.021L75.1019 133.371L75.1126 133.36ZM75.1126 133.36L75.6799 133.01C75.7691 133.171 75.7156 133.378 75.5586 133.474C75.4016 133.57 75.2018 133.52 75.1126 133.36ZM75.2696 134.22L75.2946 134.195L75.316 134.17L75.3374 134.148L75.3552 134.13L75.3695 134.113L75.3802 134.098L75.3909 134.084L75.398 134.073L75.4016 134.066L75.4052 134.059L75.4087 134.052V134.045V134.041V134.034V134.023V134.013V133.998L75.4052 133.981L75.4016 133.959L75.3945 133.934L75.3838 133.906L75.3731 133.874L75.3588 133.838L75.341 133.799L75.3231 133.756L75.3017 133.709L75.2767 133.66L75.2482 133.606L75.2197 133.549L75.1875 133.488L75.1519 133.424L75.1126 133.356L75.6799 133.007L75.7191 133.078L75.7584 133.146L75.794 133.21L75.8261 133.274L75.8583 133.335L75.8868 133.396L75.9153 133.453L75.9403 133.51L75.9653 133.563L75.9867 133.617L76.0045 133.67L76.0224 133.724L76.0366 133.777L76.0473 133.831L76.058 133.884L76.0652 133.941L76.0687 133.998V134.056L76.0616 134.113L76.0509 134.17L76.0366 134.223L76.0188 134.277L75.9974 134.33L75.9724 134.38L75.9439 134.427L75.9153 134.469L75.8832 134.512L75.8511 134.555L75.819 134.594L75.7833 134.63L75.7477 134.666L75.712 134.701L75.2732 134.209L75.2696 134.22ZM75.2696 134.22L75.7084 134.712C75.5728 134.84 75.3659 134.833 75.2446 134.698C75.1233 134.562 75.134 134.348 75.2696 134.22ZM73.5286 135.24L73.5964 135.215L73.6642 135.186L73.732 135.158L73.7998 135.129L73.8675 135.101L73.9353 135.072L73.9995 135.04L74.0638 135.008L74.128 134.976L74.1922 134.944L74.2564 134.912L74.3171 134.88L74.3777 134.844L74.4384 134.808L74.4954 134.773L74.5525 134.737L74.6096 134.701L74.6631 134.666L74.7166 134.63L74.7701 134.594L74.8201 134.559L74.87 134.523L74.9164 134.487L74.9628 134.455L75.0056 134.423L75.0484 134.391L75.0877 134.359L75.1269 134.327L75.1626 134.295L75.1982 134.266L75.2304 134.237L75.2589 134.209L75.6977 134.701L75.6585 134.737L75.6192 134.773L75.5764 134.808L75.5336 134.844L75.4872 134.883L75.4408 134.922L75.3909 134.962L75.341 135.001L75.2874 135.04L75.2339 135.079L75.1768 135.119L75.1198 135.158L75.0627 135.197L75.002 135.236L74.9414 135.276L74.8772 135.315L74.813 135.354L74.7487 135.393L74.681 135.433L74.6132 135.472L74.5454 135.511L74.474 135.547L74.4027 135.582L74.3313 135.618L74.26 135.654L74.1851 135.689L74.1101 135.725L74.0352 135.757L73.9603 135.789L73.8818 135.821L73.8033 135.85L73.7248 135.879L73.5179 135.24H73.5286ZM73.5286 135.24L73.7355 135.879C73.5643 135.939 73.3788 135.85 73.3217 135.672C73.2646 135.497 73.3574 135.301 73.5286 135.24ZM71.0848 135.707L71.2454 135.689L71.4059 135.672L71.4844 135.661L71.5629 135.65L71.6414 135.64L71.7199 135.629L71.7983 135.618L71.8768 135.607L71.9553 135.597L72.0338 135.586L72.1123 135.575L72.1908 135.565L72.2693 135.55L72.3478 135.536L72.4262 135.522L72.5012 135.508L72.5761 135.493L72.651 135.479L72.7259 135.465L72.8008 135.447L72.8758 135.429L72.9507 135.411L73.0256 135.393L73.0969 135.376L73.1683 135.354L73.2397 135.333L73.311 135.311L73.3824 135.29L73.4537 135.265L73.5251 135.24L73.732 135.879L73.6535 135.907L73.575 135.936L73.4965 135.961L73.418 135.986L73.3395 136.011L73.2611 136.032L73.1826 136.053L73.1005 136.075L73.0185 136.096L72.9364 136.114L72.8544 136.132L72.7723 136.15L72.6902 136.168L72.6082 136.182L72.5261 136.196L72.4441 136.21L72.362 136.225L72.28 136.239L72.1979 136.253L72.1159 136.264L72.0338 136.275L71.9518 136.285L71.8697 136.296L71.7876 136.307L71.7056 136.317L71.6235 136.328L71.5415 136.339L71.4594 136.349L71.2953 136.367L71.1348 136.385L71.0741 135.711L71.0848 135.707ZM71.0848 135.707L71.1455 136.382C70.9671 136.403 70.8066 136.267 70.7887 136.082C70.7709 135.896 70.9065 135.729 71.0848 135.707Z" fill="#FF6624"/>
<path d="M111.105 36.3431L110.427 36.4216L110.502 36.5536L110.395 36.5179L110.117 36.468L109.699 36.4287L109.157 36.4002L108.501 36.3859H107.73L106.852 36.4002L105.871 36.4287L104.79 36.4715L103.609 36.525L102.336 36.5928L100.969 36.6749L99.5173 36.7676L97.9797 36.8747L96.36 36.9924L94.6619 37.1208L92.8888 37.2635L91.0443 37.4169L89.1286 37.581L87.1486 37.7558L85.1043 37.9414L82.9995 38.1376L80.8375 38.3445L78.622 38.5621L76.3566 38.7904L74.0413 39.0259L71.6831 39.2721L69.2821 39.5289L66.8455 39.7929L64.3731 40.0641L61.8651 40.3459L61.7902 39.7359L64.2982 39.454L66.7741 39.1793L69.2143 38.9153L71.6153 38.6584L73.9771 38.4123L76.2924 38.1768L78.5614 37.9485L80.7769 37.7309L82.9388 37.524L85.0437 37.3277L87.0915 37.1422L89.0751 36.9674L90.9908 36.8033L92.8388 36.6499L94.6155 36.5072L96.3172 36.3752L97.9405 36.2575L99.4817 36.1504L100.937 36.0577L102.307 35.9756L103.584 35.9078L104.769 35.8508L105.857 35.808L106.845 35.7794L107.733 35.7651H108.518L109.196 35.7794L109.763 35.808L110.227 35.8543L110.591 35.9185L110.884 36.0291L111.108 36.336L111.105 36.3431ZM111.105 36.3431C111.126 36.5108 110.991 36.6642 110.802 36.6856C110.616 36.707 110.445 36.5892 110.423 36.418L111.101 36.3395L111.105 36.3431ZM62.3218 44.0526L62.2469 43.4426L64.7513 43.1572L67.2236 42.8718L69.6603 42.5828L72.0577 42.2938L74.4123 42.0048L76.7205 41.7194L78.9788 41.434L81.1871 41.1522L83.3384 40.8703L85.4325 40.5921L87.4661 40.3174L89.4354 40.0462L91.3369 39.7787L93.1706 39.5147L94.9295 39.2578L96.6133 39.0045L98.2188 38.7583L99.7385 38.5193L101.173 38.2874L102.521 38.0627L103.777 37.845L104.937 37.6345L106 37.4348L106.959 37.2421L107.816 37.0602L108.565 36.8889L109.2 36.7284L109.721 36.5821L110.117 36.4501L110.377 36.3395L110.473 36.2824L110.434 36.4287L111.112 36.3502L110.969 36.6998L110.712 36.8711L110.377 37.0174L109.938 37.1636L109.392 37.317L108.74 37.4811L107.976 37.656L107.109 37.8415L106.139 38.0341L105.069 38.2375L103.902 38.448L102.643 38.6656L101.29 38.8939L99.8527 39.1294L98.3294 39.3684L96.7239 39.6146L95.04 39.8679L93.2777 40.1247L91.4439 40.3887L89.5388 40.6563L87.566 40.9274L85.5324 41.2021L83.4347 41.4804L81.2799 41.7622L79.0716 42.0476L76.8097 42.3331L74.5015 42.6185L72.1469 42.9074L69.7495 43.1964L67.3128 43.4854L64.8405 43.7708L62.3325 44.0562L62.3218 44.0526ZM62.3218 44.0526C62.1327 44.074 61.965 43.9563 61.9436 43.7851C61.9222 43.6174 62.0578 43.464 62.2469 43.4426L62.3218 44.0526ZM13.0071 47.4525L13.685 47.374L13.6101 47.242L13.7171 47.2777L13.9954 47.3277L14.4128 47.3669L14.955 47.3954L15.6115 47.4097H16.3821L17.2597 47.3954L18.2408 47.3669L19.3218 47.3241L20.5026 47.2706L21.7762 47.2028L23.1426 47.1207L24.5946 47.028L26.1323 46.921L27.7519 46.8032L29.4501 46.6748L31.2232 46.5321L33.0676 46.3787L34.9834 46.2146L36.9634 46.0398L39.0077 45.8543L41.1125 45.658L43.2745 45.4511L45.4899 45.2335L47.7554 45.0052L50.0707 44.7697L52.4289 44.5235L54.8299 44.2667L57.2665 44.0027L59.7388 43.7315L62.2469 43.4497L62.3218 44.0598L59.8138 44.3416L57.3379 44.6163L54.8976 44.8803L52.4967 45.1372L50.1349 45.3833L47.8196 45.6188L45.5506 45.8471L43.3351 46.0647L41.1732 46.2717L39.0683 46.4679L37.0205 46.6534L35.0369 46.8282L33.1211 46.9923L31.2731 47.1457L29.4965 47.2884L27.7947 47.4204L26.1715 47.5381L24.6303 47.6452L23.1747 47.7379L21.8048 47.82L20.5276 47.8878L19.3432 47.9449L18.255 47.9877L17.2668 48.0162L16.3785 48.0305H15.5936L14.9158 48.0162L14.3485 47.9877L13.8848 47.9413L13.5209 47.8771L13.2283 47.7665L13.0036 47.4597L13.0071 47.4525ZM13.0071 47.4525C12.9857 47.2849 13.1213 47.1314 13.3104 47.11C13.4959 47.0886 13.6671 47.2064 13.6885 47.3776L13.0107 47.4561L13.0071 47.4525ZM61.7902 39.743L61.8651 40.353L59.3607 40.6385L56.8884 40.9239L54.4517 41.2128L52.0543 41.5018L49.6997 41.7908L47.3915 42.0762L45.1332 42.3616L42.9249 42.6434L40.7736 42.9253L38.6794 43.2035L36.6459 43.4782L34.6766 43.7494L32.7751 44.0169L30.9414 44.281L29.1825 44.5378L27.4986 44.7911L25.8932 45.0373L24.3734 45.2763L22.9393 45.5082L21.5907 45.733L20.3349 45.9506L19.1755 46.1611L18.1123 46.3609L17.1527 46.5535L16.2964 46.7354L15.5473 46.9067L14.9122 47.0672L14.3914 47.2135L13.9954 47.3455L13.7349 47.4561L13.6386 47.5132L13.6778 47.3669L13 47.4454L13.1427 47.0958L13.3996 46.9245L13.7349 46.7783L14.1737 46.632L14.7196 46.4786L15.3724 46.3145L16.1359 46.1397L17.0028 45.9541L17.9732 45.7615L19.0435 45.5581L20.2101 45.3477L21.4694 45.13L22.8215 44.9017L24.2593 44.6663L25.7826 44.4272L27.388 44.1811L29.0719 43.9278L30.8343 43.6709L32.6681 43.4069L34.5731 43.1393L36.546 42.8682L38.5795 42.5935L40.6773 42.3152L42.8321 42.0334L45.0404 41.748L47.3023 41.4626L49.6105 41.1772L51.9651 40.8882L54.3625 40.5992L56.7992 40.3102L59.2715 40.0248L61.7795 39.7394L61.7902 39.743ZM61.7902 39.743C61.9793 39.7216 62.147 39.8393 62.1684 40.0106C62.1898 40.1782 62.0542 40.3316 61.8651 40.353L61.7902 39.743Z" fill="#FF6624"/>
<path d="M90.049 117.013C90.659 117.502 91.8042 118.208 93.3312 119.15C94.2659 119.724 95.3433 120.391 96.5348 121.151C97.4981 121.768 98.5184 122.432 99.5851 123.128C102.054 124.74 104.776 126.517 107.434 128.083C109.21 129.128 110.962 130.085 112.61 130.984C114.508 132.018 116.274 132.981 117.776 133.92C120.534 135.643 122.443 137.298 123.698 138.386L123.788 138.465C124.408 139.003 124.861 139.389 125.211 139.674C125.554 139.952 125.796 140.127 125.999 140.241C126.135 140.316 126.249 140.356 126.513 140.113L126.524 140.102C126.884 139.767 127.437 139.025 128.4 137.541C130.102 134.929 133.045 130.07 135.329 126.299L136.367 124.587C137.965 121.954 138.925 120.391 140.074 118.518L142.136 115.154C143.359 113.156 144.94 110.57 146.427 108.122C147.819 105.839 149.146 103.656 150.045 102.165C151.747 99.3498 151.736 99.3213 150.858 96.5065L150.751 96.1604C150.234 94.4944 149.478 91.9578 148.554 88.8112C147.662 85.7716 146.631 82.2112 145.532 78.3689C144.294 74.0414 142.949 69.2751 141.711 64.7764C140.701 61.1089 139.781 57.6805 139.071 54.9014C137.501 48.7402 136.923 45.5757 136.606 43.8526L136.595 43.8026C136.442 42.9607 136.353 42.479 136.267 42.2579L136.271 42.2686C136.11 42.422 135.86 42.743 135.354 43.3995C134.893 43.9953 134.226 44.8586 133.242 46.093C132.517 46.9992 131.593 48.1444 130.623 49.3431C128.811 51.5835 126.838 54.0237 125.625 55.6006C124.708 56.7957 124.234 57.4879 124.019 57.9909C123.823 58.4547 123.859 58.7615 123.962 59.1967C123.994 59.3252 124.037 59.4893 124.084 59.6676C124.341 60.6345 124.69 61.9473 124.394 63.3137C124.077 64.7871 123.017 66.2712 120.937 69.1824L120.391 69.9458C118.996 71.9044 117.198 74.4553 115.661 76.7171C114.519 78.3974 113.509 79.9315 112.899 80.9625C111.875 82.6928 112.04 82.8212 112.186 82.939C112.271 83.0067 112.357 83.0745 112.407 83.2137C112.493 83.4563 112.396 83.8844 112 84.6906C111.629 85.4434 110.984 86.5672 109.956 88.2475C108.907 89.9671 107.455 92.2682 105.925 94.6478C104.469 96.9096 102.935 99.2571 101.594 101.251C100.224 103.292 99.0678 104.951 98.0261 106.371C96.9844 107.794 96.0532 108.986 95.1328 110.095C94.3408 111.048 93.5666 111.933 92.8567 112.707C91.9113 113.741 91.0729 114.605 90.4664 115.211L90.3273 115.35C90.0633 115.611 89.8528 115.821 89.7136 115.993C89.4389 116.335 89.4889 116.563 90.0383 117.006L90.049 117.013ZM93.1028 119.521C91.5616 118.572 90.4129 117.862 89.7778 117.352C88.9573 116.695 88.9038 116.328 89.3818 115.729C89.5388 115.532 89.7564 115.315 90.0276 115.047L90.1667 114.908C90.7661 114.312 91.5973 113.456 92.5427 112.421C93.2562 111.64 94.0304 110.759 94.8081 109.824C95.7143 108.733 96.6419 107.545 97.6836 106.121C98.7253 104.698 99.8812 103.042 101.24 101.016C102.568 99.0394 104.102 96.6955 105.564 94.4194C107.095 92.0363 108.543 89.7388 109.592 88.0263C110.613 86.3567 111.251 85.2436 111.619 84.5051C111.957 83.8201 112.054 83.4991 112.007 83.3671C112 83.3457 111.965 83.3171 111.929 83.2886C111.636 83.0603 111.319 82.8105 112.535 80.7485C113.145 79.7174 114.159 78.1762 115.311 76.4816C116.863 74.1948 118.657 71.6511 120.045 69.6997L120.591 68.9362C122.635 66.0714 123.677 64.6159 123.977 63.2281C124.251 61.9616 123.916 60.7058 123.673 59.7854C123.631 59.6213 123.588 59.4679 123.549 59.3073C123.424 58.7829 123.381 58.4119 123.631 57.8303C123.862 57.2881 124.351 56.571 125.293 55.3437C126.51 53.7597 128.483 51.3195 130.295 49.0755C131.251 47.8911 132.164 46.7637 132.91 45.829C133.916 44.5696 134.569 43.7206 135.018 43.1391C135.539 42.4648 135.792 42.1366 135.978 41.9582C136.303 41.6478 136.495 41.6228 136.681 42.108C136.781 42.3649 136.873 42.8643 137.03 43.7313L137.041 43.7812C137.355 45.4936 137.929 48.6403 139.499 54.8015C140.22 57.627 141.14 61.0483 142.136 64.6694C143.345 69.0682 144.697 73.8523 145.957 78.2583C147.077 82.1755 148.104 85.7324 148.975 88.697C149.895 91.8401 150.655 94.3766 151.172 96.0391L151.279 96.3852C152.214 99.3855 152.221 99.4176 150.423 102.397C149.56 103.827 148.225 106.021 146.802 108.358C145.311 110.805 143.734 113.392 142.51 115.39L140.448 118.754C139.249 120.705 138.247 122.339 136.741 124.819L135.703 126.531C133.416 130.306 130.466 135.175 128.768 137.783C127.783 139.296 127.209 140.063 126.824 140.423L126.813 140.434C126.331 140.88 126.085 140.791 125.789 140.62C125.564 140.491 125.304 140.306 124.943 140.013C124.59 139.728 124.134 139.335 123.506 138.793L123.417 138.714C122.171 137.637 120.281 135.996 117.548 134.291C116.042 133.352 114.291 132.396 112.407 131.369C110.755 130.47 109 129.51 107.22 128.461C104.548 126.888 101.826 125.108 99.3532 123.495C98.2758 122.792 97.2484 122.118 96.3065 121.519C95.1185 120.762 94.0411 120.095 93.1064 119.521H93.1028Z" fill="#FF6624"/>
<path d="M122.639 137.477C123.031 137.805 123.391 138.119 123.712 138.397L123.791 138.465C124.412 139.004 124.865 139.389 125.214 139.674C125.557 139.953 125.8 140.128 126.003 140.242C126.138 140.317 126.253 140.356 126.517 140.113L126.527 140.103C126.888 139.767 127.441 139.025 128.404 137.541C130.106 134.93 133.049 130.071 135.332 126.3L136.37 124.587C137.969 121.954 138.928 120.392 140.077 118.519L142.139 115.154C143.363 113.157 144.943 110.57 146.431 108.123C147.822 105.84 149.149 103.656 150.048 102.165C151.75 99.3501 151.739 99.3216 150.862 96.5068L150.755 96.1607C150.237 94.4946 149.481 91.9581 148.557 88.8115C147.665 85.7719 146.634 82.2115 145.535 78.3692C144.297 74.0417 142.952 69.2754 141.714 64.7767C140.705 61.1092 139.784 57.6808 139.074 54.9017C137.505 48.7404 136.927 45.576 136.609 43.8529L136.599 43.8029C136.445 42.961 136.356 42.4793 136.27 42.2582L136.274 42.2689C136.113 42.4223 135.864 42.7433 135.357 43.3998C134.897 43.9956 134.23 44.8589 133.245 46.0933C132.521 46.9995 131.597 48.1447 130.626 49.3434C128.814 51.5838 126.841 54.024 125.628 55.6009C124.711 56.796 124.237 57.4881 124.023 57.9912C123.827 58.455 123.862 58.7618 123.966 59.197C123.998 59.3255 124.041 59.4896 124.087 59.6679C124.344 60.6348 124.694 61.9476 124.397 63.314C124.08 64.7874 123.02 66.2715 120.94 69.1827L120.395 69.9461C119 71.9047 117.202 74.4556 115.664 76.7174C114.522 78.3977 113.513 79.9318 112.903 80.9628C112.639 81.4123 112.45 81.762 112.325 82.0331C112.207 82.2828 112.143 82.4683 112.111 82.6039L112.121 82.7645L112.136 82.8857L112.193 82.9321C112.278 82.9999 112.364 83.0641 112.414 83.2068C112.443 83.2853 112.453 83.3781 112.443 83.4887C112.435 83.5636 112.421 83.6492 112.393 83.7455C112.492 83.9739 112.621 84.22 112.76 84.4947C112.867 84.7016 112.985 84.93 113.106 85.1761C113.591 86.175 114.159 87.5807 114.811 89.9067C115.461 92.2221 116.199 95.4543 117.023 100.11C118.254 107.056 119.692 117.199 120.855 125.408C121.244 128.151 121.6 130.673 121.922 132.864V132.871C122.054 133.77 122.178 134.612 122.303 135.422V135.429C122.417 136.178 122.528 136.856 122.632 137.466L122.639 137.477ZM123.427 138.729C123.102 138.447 122.735 138.13 122.296 137.762C122.257 137.73 122.228 137.684 122.221 137.63C122.111 136.981 121.996 136.278 121.879 135.508V135.5C121.765 134.758 121.636 133.902 121.497 132.946V132.939C121.194 130.859 120.826 128.28 120.43 125.479C119.267 117.277 117.833 107.149 116.599 100.196C115.775 95.5542 115.043 92.3363 114.398 90.0352C113.755 87.7412 113.195 86.357 112.721 85.3759C112.599 85.1297 112.485 84.9086 112.382 84.7052C112.225 84.402 112.086 84.1344 111.972 83.8633C111.95 83.8169 111.943 83.7598 111.961 83.7063C111.993 83.6064 112.011 83.5243 112.014 83.4637C112.018 83.4173 112.018 83.3852 112.007 83.3638C112 83.3424 111.964 83.3139 111.929 83.2853C111.872 83.2389 111.811 83.1926 111.758 83.1141C111.74 83.0891 111.725 83.057 111.718 83.0213C111.708 82.9535 111.7 82.8857 111.693 82.8108C111.686 82.743 111.683 82.6753 111.683 82.6039C111.683 82.5825 111.683 82.5647 111.686 82.5433C111.722 82.372 111.8 82.1508 111.939 81.8511C112.075 81.5622 112.268 81.1983 112.535 80.7416C113.145 79.7106 114.159 78.1694 115.311 76.4748C116.863 74.188 118.657 71.6443 120.045 69.6928L120.591 68.9294C122.635 66.0646 123.677 64.609 123.976 63.2212C124.251 61.9548 123.916 60.699 123.673 59.7785C123.63 59.6144 123.588 59.461 123.548 59.3005C123.424 58.776 123.381 58.405 123.63 57.8235C123.862 57.2812 124.351 56.5641 125.293 55.3369C126.509 53.7529 128.482 51.3127 130.295 49.0687C131.251 47.8842 132.164 46.7569 132.91 45.8222C133.916 44.5628 134.569 43.7137 135.018 43.1322C135.539 42.4579 135.792 42.1297 135.978 41.9513C136.302 41.641 136.495 41.616 136.681 42.1012C136.781 42.358 136.873 42.8575 137.03 43.7244L137.041 43.7744C137.355 45.4868 137.929 48.6334 139.499 54.7946C140.22 57.6202 141.14 61.0415 142.135 64.6625C143.345 69.0614 144.697 73.8455 145.956 78.2515C147.077 82.1687 148.104 85.7255 148.975 88.6902C149.895 91.8332 150.655 94.3698 151.172 96.0323L151.279 96.3783C152.214 99.3787 152.221 99.4108 150.423 102.39C149.56 103.82 148.225 106.014 146.802 108.351C145.311 110.798 143.734 113.385 142.51 115.383L140.448 118.747C139.249 120.699 138.247 122.332 136.741 124.812L135.703 126.524C133.416 130.299 130.466 135.169 128.768 137.777C127.783 139.289 127.209 140.056 126.823 140.417L126.813 140.427C126.331 140.873 126.085 140.784 125.789 140.613C125.564 140.484 125.304 140.299 124.943 140.006C124.59 139.721 124.133 139.328 123.506 138.786L123.427 138.718V138.729Z" fill="#FF6624"/>
<path d="M140.565 118.704L140.53 118.758C140.43 118.883 140.248 118.904 140.12 118.804C139.417 118.244 138.828 117.77 138.357 117.384C137.858 116.974 137.462 116.642 137.183 116.4C136.584 115.875 136.57 115.804 135.357 109.743L135.146 108.694C134.44 105.172 133.38 99.9103 132.182 94.302C130.976 88.6652 129.62 82.6253 128.311 77.5094C127.251 73.3603 126.235 69.8641 125.346 66.8067C124.861 65.1335 124.411 63.5923 124.015 62.1474C124.008 62.1225 124.001 62.0939 124.001 62.0654C123.976 61.227 123.766 60.435 123.598 59.8C123.555 59.6394 123.516 59.486 123.473 59.3183C123.345 58.7796 123.302 58.3979 123.559 57.795C123.791 57.2456 124.287 56.5249 125.228 55.2941C126.441 53.7137 128.418 51.2699 130.234 49.0259C131.183 47.8521 132.089 46.7355 132.849 45.7794C133.855 44.52 134.508 43.6745 134.957 43.0894C135.482 42.4116 135.735 42.0834 135.924 41.9014C136.306 41.5411 136.527 41.5126 136.745 42.0762C136.848 42.3402 136.941 42.8433 137.098 43.7102L137.109 43.7601C137.422 45.469 137.993 48.612 139.567 54.7768C140.291 57.6166 141.208 61.0343 142.203 64.6412C143.409 69.0222 144.761 73.8098 146.024 78.2265C147.148 82.1544 148.175 85.7113 149.042 88.6652C149.962 91.8083 150.722 94.3448 151.24 96.0073L151.347 96.3534C152.289 99.3858 152.299 99.4179 150.483 102.425C149.631 103.838 148.296 106.032 146.862 108.387C145.371 110.834 143.794 113.421 142.57 115.419L140.562 118.697L140.565 118.704ZM140.227 118.144L142.078 115.122C143.302 113.125 144.879 110.538 146.37 108.091C147.751 105.822 149.078 103.642 149.987 102.133C151.671 99.3466 151.661 99.318 150.794 96.5353L150.687 96.1893C150.169 94.5232 149.41 91.9831 148.489 88.8401C147.594 85.7898 146.563 82.2258 145.467 78.3977C144.233 74.081 142.892 69.3218 141.646 64.8053C140.633 61.1271 139.713 57.6951 139.006 54.9302C137.437 48.769 136.855 45.601 136.541 43.8779L136.531 43.8279C136.402 43.1215 136.317 42.6685 136.245 42.4152C136.085 42.59 135.842 42.9039 135.417 43.4533C134.957 44.0491 134.29 44.9125 133.302 46.1468C132.592 47.0352 131.661 48.1875 130.683 49.3969C128.871 51.6373 126.902 54.074 125.689 55.6544C124.775 56.8424 124.301 57.5345 124.09 58.0304C123.901 58.4764 123.937 58.7725 124.037 59.1899C124.065 59.3112 124.112 59.4789 124.158 59.6573C124.333 60.3101 124.547 61.1271 124.579 62.0226C124.972 63.4496 125.418 64.9872 125.903 66.6533C126.798 69.7428 127.826 73.2747 128.875 77.3739C130.18 82.4791 131.54 88.5332 132.749 94.1879C133.965 99.871 135.018 105.098 135.714 108.587L135.924 109.635C137.098 115.508 137.112 115.575 137.562 115.968C137.811 116.186 138.2 116.51 138.721 116.938C139.149 117.288 139.652 117.695 140.219 118.148L140.227 118.144Z" fill="#FF6624"/>
<path d="M136.356 42.3974C136.224 42.3046 136.196 42.1227 136.289 41.9907C136.381 41.8587 136.563 41.8301 136.695 41.9229L144.505 47.4883C144.637 47.5811 144.665 47.763 144.573 47.895C144.48 48.027 144.298 48.0556 144.166 47.9628L136.356 42.3974Z" fill="#FF6624"/>
<path d="M152.178 52.8966C152.039 52.8181 151.985 52.6433 152.064 52.5006C152.142 52.3614 152.317 52.3079 152.46 52.3864C154.468 53.4888 156.477 54.5912 157.8 55.3475C159.135 56.111 159.805 56.5391 160.476 56.9708L160.515 57.0029C160.619 57.0956 160.644 57.2526 160.565 57.3739C160.487 57.4952 160.333 57.5416 160.205 57.4845L160.159 57.4595C159.499 57.0385 158.839 56.614 157.508 55.8505C156.163 55.0835 154.169 53.9883 152.174 52.893L152.178 52.8966Z" fill="#FF6624"/>
<path d="M173.32 61.9156C173.177 61.8443 173.116 61.6695 173.191 61.5268C173.259 61.3912 173.416 61.3341 173.552 61.3841C174.668 61.8015 175.788 62.2189 175.567 63.4818C175.403 64.4236 174.372 65.79 172.389 68.43L171.275 69.9142C169.866 71.8014 168.097 74.2095 166.306 76.6818C164.654 78.9651 162.995 81.284 161.597 83.2819C158.664 87.4702 156.73 90.442 155.492 92.3435L155.443 92.422C154.825 93.371 154.383 94.0453 154.033 94.5661C153.684 95.087 153.423 95.458 153.163 95.8005C152.646 96.4783 152.15 97.0242 151.65 97.5665C151.543 97.6842 151.358 97.6913 151.24 97.5843C151.122 97.4773 151.115 97.2918 151.222 97.174C151.711 96.6389 152.2 96.1073 152.699 95.4509C152.945 95.1262 153.202 94.7623 153.548 94.245C153.898 93.7242 154.337 93.0535 154.95 92.1081L155 92.0296C156.238 90.1316 158.172 87.1634 161.119 82.9537C162.56 80.8952 164.215 78.5798 165.831 76.3429C167.629 73.8563 169.399 71.4482 170.805 69.5681L171.918 68.084C173.848 65.5189 174.847 64.1918 174.986 63.3855C175.125 62.5971 174.233 62.2653 173.341 61.9335L173.313 61.9192L173.32 61.9156Z" fill="#FF6624"/>
<path d="M139.642 55.9114C139.556 56.0469 139.378 56.0898 139.242 56.0041C139.107 55.9185 139.064 55.7401 139.15 55.6046L139.182 55.5546C142.061 50.9703 144.943 46.3859 147.562 42.1369C149.228 39.4327 150.784 36.8748 152.082 34.7378C152.913 33.3714 153.652 32.1584 154.123 31.3878C154.876 30.157 155.404 29.3186 155.828 28.7871C156.313 28.1806 156.699 27.9487 157.127 28.0093C157.558 28.07 157.987 28.4482 158.311 29.1474C158.572 29.7039 158.779 30.4781 158.871 31.4735C158.978 32.5937 158.946 33.9957 158.696 35.6796C158.482 37.1316 158.101 38.7941 157.508 40.6635C156.931 42.4901 156.142 44.5237 155.286 46.5286C154.266 48.9154 153.149 51.2593 152.171 53.1643C151.269 54.9196 150.484 56.3002 149.745 57.5025C149.01 58.6977 148.304 59.7394 147.562 60.8132C146.827 61.8799 146.057 62.9716 145.272 64.074C144.38 65.3262 143.631 66.3715 142.878 67.4204C142.785 67.5524 142.603 67.5809 142.471 67.4882C142.339 67.3954 142.311 67.2135 142.403 67.0815C143.256 65.8899 144.116 64.6948 144.797 63.7351C145.586 62.6291 146.353 61.5374 147.084 60.4814C147.812 59.4326 148.504 58.4051 149.25 57.1993C149.988 55.997 150.766 54.6306 151.654 52.9003C152.628 51.0095 153.738 48.6763 154.751 46.3039C155.596 44.3203 156.374 42.3082 156.952 40.4923C157.537 38.6514 157.908 37.021 158.119 35.5976C158.361 33.9601 158.393 32.6044 158.29 31.5305C158.201 30.6065 158.015 29.8966 157.78 29.3971C157.544 28.8941 157.277 28.623 157.038 28.5909C156.838 28.5623 156.613 28.73 156.274 29.1545C155.875 29.654 155.357 30.4817 154.612 31.6982C153.959 32.7649 153.309 33.8281 152.571 35.0482C151.258 37.2066 149.688 39.7895 148.047 42.4509C145.389 46.7641 142.528 51.3163 139.663 55.8721L139.631 55.9221L139.642 55.9114Z" fill="#FF6624"/>
<path d="M146.884 80.392C146.788 80.5204 146.602 80.5419 146.478 80.4455C146.349 80.3492 146.328 80.1637 146.424 80.0388C147.444 78.7224 148.465 77.4095 149.524 76.0467C150.541 74.741 151.494 73.528 152.314 72.5005C152.678 72.0439 153.081 71.5444 153.456 71.0806C154.58 69.6857 155.454 68.6012 156.039 67.72C156.417 67.1527 156.674 66.6711 156.87 66.1966C157.066 65.7221 157.202 65.2476 157.337 64.6947L157.444 64.2451C157.698 63.182 158.004 61.9048 158.736 60.5135C159.139 59.7464 159.671 58.958 160.377 57.8984C161.123 56.7818 162.072 55.3654 163.295 53.3462C165.165 50.2567 167.637 45.8079 169.428 42.5864L170.694 40.3103C171.576 38.7405 172.054 37.9628 172.175 37.9093C172.478 37.7808 172.553 37.9664 172.425 38.4373L172.4 38.448L172.275 38.6727L172.393 38.5586C172.264 38.9689 172.011 39.5539 171.643 40.3103C171.329 40.9524 170.844 41.9442 170.302 43.0502C168.964 45.7758 167.28 49.2007 166.171 51.6159C165.411 53.2713 164.926 54.445 164.644 55.2691C164.405 55.9719 164.316 56.3929 164.33 56.6391C164.365 56.6141 164.405 56.5784 164.451 56.5356C164.844 56.1753 165.479 55.3405 166.47 53.7493C167.965 51.3519 170.252 47.2742 172 44.1561C172.496 43.2714 172.946 42.4686 173.391 41.6838C174.283 40.1069 174.79 39.3078 174.979 39.2757C175.461 39.1936 175.232 40.0641 174.469 41.855C173.837 43.3356 172.871 45.5475 171.879 47.7808C170.898 49.9927 169.881 52.2581 169.139 53.8813C168.8 54.6198 168.511 55.237 168.279 55.7329C167.598 57.192 167.434 57.5417 167.48 57.6844C167.548 57.6701 167.644 57.6166 167.78 57.4989C168.115 57.217 168.593 56.6355 169.26 55.5474C170.612 53.3569 172.706 49.1686 174.255 46.0719L175.015 44.5521C175.796 43.0002 176.31 42.0156 176.656 41.3984C177.027 40.7384 177.241 40.4565 177.398 40.3459C177.466 40.2996 177.541 40.2674 177.615 40.2639C177.812 40.2496 177.944 40.3424 177.979 40.5743C177.994 40.6563 177.986 40.7669 177.958 40.9167C177.876 41.3591 177.566 42.301 176.827 44.1276C175.835 46.5821 174.055 50.6776 172.721 53.7529L171.758 55.9684C171.122 57.4382 170.798 58.2159 170.662 58.6298C170.609 58.801 170.47 58.7761 170.52 58.7903C170.577 58.8082 170.677 58.8082 170.926 58.5763C171.269 58.2552 171.772 57.5773 172.525 56.2145C173.295 54.8196 174.308 52.7361 175.297 50.6277C176.288 48.5157 177.262 46.3644 177.944 44.8411L178.308 44.0312C179.175 42.1012 179.463 41.4519 179.706 41.3663C179.942 41.2806 180.07 41.3841 180.148 41.6089C180.22 41.8122 180.255 42.3152 180.038 43.3748C179.895 44.0741 179.642 45.0337 179.214 46.3466C178.711 47.8914 177.962 49.9356 177.141 52.0583C176.267 54.3166 175.304 56.6712 174.465 58.6084C173.652 60.4885 172.953 61.9726 172.289 63.1749C171.615 64.395 170.973 65.3404 170.277 66.1288C169.578 66.9208 168.825 67.5559 168.054 68.0803C167.284 68.6012 166.506 69.0079 165.75 69.3432C164.993 69.6786 164.262 69.9426 163.591 70.1531C162.928 70.3636 162.314 70.5241 161.793 70.6525L161.59 70.7025C160.709 70.9165 160.084 71.0664 158.904 71.8298C158.176 72.3007 157.237 72.9964 156.221 73.949C155.432 74.6875 154.597 75.5793 153.773 76.6389C152.824 77.859 151.897 79.3003 150.976 80.8487C150.052 82.4041 149.135 84.0737 148.215 85.7434C148.137 85.8825 147.962 85.936 147.819 85.8575C147.68 85.7791 147.626 85.6042 147.705 85.4615C148.625 83.7883 149.542 82.1152 150.473 80.5526C151.408 78.9793 152.35 77.5201 153.313 76.2822C154.155 75.1976 155.011 74.2843 155.821 73.5244C156.87 72.5433 157.837 71.8227 158.59 71.3375C159.852 70.5241 160.516 70.3636 161.454 70.1352L161.658 70.0853C162.161 69.9604 162.756 69.807 163.42 69.5965C164.076 69.3896 164.786 69.1327 165.518 68.8081C166.249 68.4834 166.998 68.0946 167.73 67.5951C168.457 67.0992 169.175 66.4963 169.842 65.74C170.509 64.9801 171.13 64.0703 171.779 62.8895C172.439 61.6908 173.127 60.2245 173.934 58.3729C174.765 56.4536 175.725 54.1061 176.599 51.8442C177.416 49.7358 178.158 47.7059 178.661 46.1647C179.082 44.8732 179.331 43.9349 179.471 43.2571C179.524 42.9966 179.563 42.779 179.588 42.5971L178.475 45.0765C177.794 46.5928 176.823 48.7405 175.821 50.8739C174.822 53.0037 173.802 55.1014 173.031 56.4964C172.246 57.9198 171.704 58.6441 171.322 59.0008C170.848 59.4468 170.545 59.4111 170.345 59.3469C170.034 59.247 169.892 59.1292 170.109 58.455C170.248 58.0233 170.58 57.2349 171.226 55.74L172.189 53.521C173.523 50.4529 175.297 46.368 176.288 43.9099C176.656 42.9966 176.916 42.3152 177.091 41.8086C176.745 42.4294 176.253 43.3784 175.532 44.809L174.772 46.3252C173.217 49.4361 171.115 53.6352 169.753 55.8471C169.046 56.9923 168.525 57.6202 168.154 57.9377C167.933 58.1268 167.744 58.2195 167.587 58.2516C167.366 58.2944 167.198 58.2302 167.08 58.1125C167.016 58.0483 166.97 57.9698 166.938 57.8913C166.799 57.5238 166.973 57.1492 167.751 55.4796C167.976 55.0016 168.254 54.4058 168.607 53.6316C169.328 52.0654 170.345 49.7965 171.344 47.5382C172.096 45.84 172.831 44.1632 173.413 42.8183L172.507 44.4344C170.759 47.5524 168.468 51.6373 166.963 54.049C165.939 55.6901 165.268 56.5677 164.844 56.9566C164.669 57.1171 164.519 57.2099 164.39 57.2491C164.173 57.3133 164.009 57.2563 163.887 57.1064C163.823 57.0279 163.784 56.928 163.763 56.8103C163.705 56.4892 163.788 55.9577 164.091 55.0765C164.376 54.2381 164.869 53.0501 165.643 51.3698C166.37 49.7858 167.348 47.7558 168.318 45.7722C166.813 48.4622 165.14 51.4161 163.798 53.6387C162.582 55.6509 161.622 57.085 160.862 58.2124C160.163 59.2541 159.642 60.0318 159.253 60.7739C158.554 62.0975 158.258 63.339 158.012 64.37L157.901 64.8231C157.758 65.3975 157.616 65.8969 157.405 66.4071C157.195 66.9173 156.92 67.431 156.52 68.0304C155.921 68.9294 155.04 70.0246 153.905 71.4338C153.57 71.8512 153.21 72.2972 152.767 72.8502C151.9 73.9383 150.959 75.137 149.977 76.3928C149.043 77.5915 147.962 78.9864 146.877 80.3813L146.884 80.392ZM172.435 38.4373L172.4 38.5586C172.51 38.448 172.546 38.398 172.435 38.4373ZM175.079 39.85C175.072 39.85 175.004 39.9749 174.872 40.2175C175.097 39.9571 175.222 39.8286 175.079 39.85ZM167.487 57.6986C167.491 57.7022 167.491 57.7022 167.487 57.6986V57.6986Z" fill="#FF6624"/>
<path d="M139.643 55.451C139.579 55.5544 139.443 55.583 139.343 55.5223C139.24 55.4581 139.211 55.3225 139.272 55.2226L143.203 48.9152L147.106 42.6612C148.398 40.5956 149.743 38.4479 151.013 36.4251C152.097 34.6984 153.06 33.1679 153.795 32.0048C154.577 30.7704 155.105 29.9463 155.519 29.4326C155.979 28.8582 156.325 28.6477 156.707 28.7048C157.103 28.7619 157.499 29.1222 157.777 29.8108C157.991 30.3459 158.144 31.0987 158.166 32.0798C158.191 33.1786 158.055 34.5699 157.727 36.2039C157.427 37.6951 156.971 39.4004 156.328 41.2841C155.711 43.0929 154.926 45.0693 154.091 46.9994C153.118 49.2469 152.083 51.4196 151.173 53.1855C150.324 54.8373 149.589 56.1324 148.89 57.2669C148.194 58.3942 147.534 59.3717 146.839 60.3778C146.146 61.3803 145.422 62.4077 144.684 63.4459C143.87 64.5911 143.15 65.5972 142.433 66.5961C142.361 66.6924 142.226 66.7174 142.126 66.646C142.026 66.5747 142.005 66.4391 142.076 66.3392C142.871 65.2333 143.663 64.1273 144.327 63.189C145.066 62.1473 145.79 61.1198 146.478 60.1245C147.163 59.1327 147.82 58.1659 148.519 57.0314C149.215 55.9005 149.946 54.6126 150.784 52.9786C151.69 51.2127 152.725 49.0472 153.688 46.8174C154.516 44.9052 155.297 42.9395 155.915 41.1343C156.546 39.2756 157.003 37.5881 157.299 36.1075C157.62 34.4986 157.755 33.1429 157.73 32.0762C157.709 31.1557 157.57 30.4565 157.374 29.9606C157.16 29.4326 156.892 29.1615 156.646 29.1258C156.435 29.0973 156.207 29.2614 155.857 29.6966C155.458 30.1925 154.933 31.0095 154.163 32.226C153.428 33.389 152.465 34.916 151.38 36.6462C150.253 38.4407 148.901 40.6027 147.474 42.8824L143.571 49.1363L139.639 55.4438L139.643 55.451Z" fill="#FF6624"/>
<path d="M146.403 79.6606C146.328 79.7534 146.189 79.7712 146.096 79.6963C146.003 79.6214 145.985 79.4822 146.06 79.3895C148.176 76.7209 150.291 74.0559 152.004 71.9546C152.396 71.473 152.789 70.9985 153.153 70.5561C154.287 69.179 155.168 68.1088 155.764 67.2347C156.149 66.671 156.413 66.193 156.613 65.7221C156.817 65.2511 156.959 64.7802 157.102 64.238L157.216 63.7991C157.48 62.761 157.798 61.5123 158.54 60.1495C158.95 59.3967 159.485 58.619 160.199 57.5809C160.955 56.4785 161.918 55.08 163.156 53.0928C165.036 50.0711 167.551 45.6865 169.374 42.5114C169.838 41.7016 170.259 40.9702 170.666 40.2638C171.551 38.7333 172.022 37.977 172.129 37.9342C172.346 37.8414 172.396 37.9806 172.3 38.3373C172.296 38.3409 172.239 38.4337 172.129 38.6192L172.257 38.4765C172.129 38.8618 171.865 39.4397 171.483 40.2032C171.04 41.0808 170.605 41.937 170.12 42.8896C168.754 45.5724 167.038 48.9473 165.91 51.3197C165.129 52.9573 164.633 54.1096 164.344 54.9159C164.066 55.6936 163.98 56.1288 164.023 56.3607L164.027 56.3821C164.08 56.3572 164.155 56.3037 164.251 56.218C164.647 55.8613 165.297 55.03 166.31 53.4496C167.83 51.0843 170.152 47.0636 171.922 43.9991C172.475 43.043 172.978 42.1725 173.327 41.5731C174.219 40.0426 174.719 39.2685 174.879 39.2399C175.268 39.1721 175.018 39.9927 174.269 41.6837C173.631 43.125 172.642 45.3012 171.626 47.5096C170.612 49.7143 169.574 51.9405 168.832 53.496C168.493 54.2059 168.197 54.8195 167.958 55.3154C167.241 56.7924 167.08 57.1278 167.141 57.2883C167.148 57.3026 167.152 57.3133 167.159 57.3204C167.166 57.3276 167.18 57.3276 167.209 57.3204C167.287 57.3061 167.398 57.2455 167.548 57.1206C167.887 56.8388 168.376 56.2573 169.06 55.1763C170.43 53.0143 172.56 48.8974 174.137 45.8507L174.911 44.3558C175.7 42.8396 176.221 41.8728 176.577 41.2592C176.948 40.6206 177.155 40.3494 177.305 40.246C177.362 40.2067 177.423 40.1818 177.487 40.1782H177.494C177.644 40.1711 177.744 40.246 177.773 40.4315V40.4422C177.78 40.5136 177.773 40.6099 177.748 40.7454C177.662 41.1736 177.341 42.0976 176.592 43.8813C175.568 46.3144 173.759 50.3244 172.396 53.339L171.415 55.5152C170.766 56.9637 170.43 57.7271 170.291 58.1374C170.216 58.3586 170.177 58.3693 170.188 58.3729L170.202 58.3764C170.277 58.3943 170.405 58.3836 170.669 58.141C171.019 57.8163 171.529 57.1456 172.3 55.7935C173.078 54.4271 174.112 52.3758 175.122 50.2959C176.124 48.2302 177.123 46.1075 177.822 44.6056L178.193 43.81C179.068 41.9299 179.36 41.302 179.574 41.2271C179.756 41.1629 179.86 41.2449 179.924 41.4269C179.992 41.6159 180.02 42.0976 179.792 43.1215C179.642 43.8029 179.378 44.7447 178.939 46.0255C178.422 47.5417 177.655 49.5467 176.813 51.6266C175.914 53.8492 174.933 56.161 174.08 58.0589C173.252 59.8998 172.542 61.3554 171.865 62.5434C171.183 63.7385 170.537 64.6661 169.842 65.4402C169.143 66.218 168.39 66.8459 167.626 67.3632C166.866 67.8769 166.089 68.28 165.332 68.6154C164.583 68.9507 163.855 69.2147 163.185 69.4288C162.514 69.6428 161.907 69.8069 161.397 69.9354L161.183 69.9889C160.302 70.2101 159.674 70.3671 158.486 71.1305C157.755 71.6014 156.809 72.2971 155.782 73.2461C154.986 73.981 154.144 74.8658 153.31 75.9146C151.394 78.3263 149.532 81.6049 147.673 84.8871C147.612 84.9906 147.48 85.0298 147.377 84.9692C147.273 84.9085 147.234 84.7765 147.295 84.673C149.164 81.3766 151.034 78.0837 152.967 75.6435C153.816 74.5768 154.676 73.6742 155.486 72.9286C156.535 71.9618 157.502 71.2482 158.251 70.7702C159.503 69.9675 160.159 69.8034 161.08 69.5715L161.29 69.518C161.797 69.3895 162.4 69.229 163.049 69.0185C163.706 68.808 164.415 68.5476 165.15 68.2194C165.882 67.8947 166.635 67.5023 167.377 67.0028C168.115 66.5069 168.839 65.9004 169.514 65.1513C170.191 64.3985 170.819 63.4959 171.483 62.3293C172.15 61.1556 172.856 59.7107 173.677 57.8805C174.53 55.9861 175.511 53.6815 176.403 51.466C177.241 49.3933 178.004 47.3954 178.522 45.8863C178.957 44.6163 179.214 43.6923 179.36 43.0287C179.467 42.5506 179.513 42.2153 179.528 41.9834C179.36 42.3259 179.068 42.9573 178.582 43.9991L178.211 44.7947C177.519 46.2788 176.531 48.3836 175.507 50.4885C174.49 52.5755 173.456 54.634 172.671 56.0111C171.879 57.406 171.337 58.1124 170.958 58.462C170.527 58.8616 170.256 58.8473 170.077 58.7974L170.059 58.7938C169.792 58.7118 169.667 58.6083 169.874 57.9983C170.017 57.5773 170.356 56.8031 171.012 55.3404L171.993 53.1642C173.359 50.1389 175.179 46.1111 176.185 43.7172C176.745 42.3865 177.059 41.5517 177.212 41.0487C177.137 41.1664 177.052 41.3091 176.952 41.4839C176.606 42.0833 176.085 43.043 175.297 44.5663L174.522 46.0576C172.942 49.115 170.805 53.2427 169.428 55.4153C168.714 56.5391 168.197 57.1527 167.823 57.4596C167.608 57.6379 167.43 57.7236 167.287 57.7521C167.095 57.7878 166.948 57.7307 166.849 57.6308C166.795 57.5773 166.756 57.5131 166.731 57.4453C166.606 57.1099 166.781 56.746 167.566 55.1299C167.79 54.6661 168.069 54.0882 168.44 53.314C169.189 51.7372 170.224 49.5146 171.23 47.3312C172.232 45.1514 173.21 43.0002 173.852 41.5517L173.705 41.7979C173.263 42.5542 172.806 43.3462 172.3 44.2203C170.523 47.292 168.197 51.3162 166.677 53.6886C165.639 55.3047 164.968 56.1645 164.544 56.5463C164.38 56.6961 164.237 56.7817 164.119 56.8174C163.934 56.8709 163.795 56.8245 163.695 56.6961C163.641 56.6283 163.609 56.5427 163.591 56.4392C163.541 56.136 163.627 55.6294 163.934 54.7732C164.23 53.9455 164.733 52.7789 165.514 51.1378C166.549 48.9616 168.079 45.9434 169.382 43.3855C167.601 46.4892 165.293 50.4956 163.531 53.3283C162.296 55.3119 161.326 56.7211 160.563 57.8306C159.856 58.858 159.325 59.6286 158.929 60.36C158.215 61.6693 157.905 62.893 157.648 63.9062L157.534 64.3485C157.387 64.9087 157.238 65.3974 157.027 65.8897C156.813 66.3856 156.538 66.8887 156.135 67.4773C155.532 68.3585 154.644 69.4395 153.499 70.8273C153.149 71.2518 152.771 71.7085 152.35 72.2258C150.659 74.295 148.536 76.9778 146.41 79.657L146.403 79.6606ZM172.296 38.3409L172.253 38.4836C172.368 38.3552 172.403 38.2981 172.296 38.3409ZM174.947 39.6752C174.943 39.6752 174.836 39.8536 174.629 40.2067C174.897 39.8429 175.068 39.6538 174.947 39.6752Z" fill="#FF6624"/>
<path d="M162.425 57.7844C162.379 57.7166 162.4 57.6274 162.465 57.5811C162.532 57.5347 162.622 57.5561 162.668 57.6203L162.671 57.6239C162.825 57.8344 162.982 58.0448 163.164 58.1233C163.331 58.1911 163.553 58.1697 163.702 58.1519L163.763 58.1447C163.849 58.1376 163.906 58.1376 163.945 58.1376C163.995 58.1412 164.024 58.1519 164.052 58.159C164.127 58.184 164.17 58.266 164.145 58.341C164.12 58.4159 164.038 58.4587 163.963 58.4337C163.952 58.4301 163.942 58.4266 163.92 58.423C163.892 58.4194 163.852 58.423 163.788 58.4266L163.731 58.4337C163.553 58.4515 163.285 58.4801 163.053 58.3838C162.796 58.2767 162.614 58.0341 162.436 57.788L162.425 57.7737V57.7844Z" fill="#FF6624"/>
<path d="M165.25 58.8868C165.203 58.8191 165.225 58.7299 165.289 58.6835C165.357 58.6407 165.446 58.6585 165.492 58.7227L165.496 58.7263C165.649 58.9368 165.806 59.1473 165.992 59.2258C166.159 59.2935 166.38 59.2721 166.53 59.2543L166.591 59.2472C166.776 59.2293 166.83 59.2472 166.883 59.265C166.958 59.29 167.001 59.372 166.98 59.447C166.955 59.5254 166.873 59.5647 166.798 59.5433C166.773 59.5361 166.744 59.5254 166.623 59.5397L166.566 59.5468C166.388 59.5647 166.12 59.5932 165.888 59.4969C165.631 59.3899 165.449 59.1473 165.271 58.9011L165.26 58.8868H165.25Z" fill="#FF6624"/>
<path d="M168.557 59.843C168.511 59.7752 168.529 59.686 168.596 59.6397C168.664 59.5933 168.753 59.6147 168.8 59.6789L168.803 59.6825C168.957 59.893 169.114 60.1034 169.299 60.1819C169.467 60.2497 169.688 60.2283 169.838 60.2105L169.898 60.2033C169.988 60.1962 170.041 60.1962 170.08 60.1962C170.13 60.1998 170.159 60.2105 170.187 60.2176C170.262 60.2426 170.305 60.3246 170.28 60.3995C170.255 60.4745 170.173 60.5173 170.098 60.4923C170.088 60.4887 170.077 60.4852 170.055 60.4816C170.027 60.478 169.988 60.4816 169.923 60.4852L169.866 60.4923C169.688 60.5101 169.42 60.5387 169.189 60.4424C168.932 60.3353 168.75 60.0927 168.571 59.8466L168.561 59.8323L168.557 59.843Z" fill="#FF6624"/>
<path d="M160.316 68.2515C160.366 68.3086 160.362 68.3942 160.308 68.4513C160.251 68.5084 160.159 68.5084 160.102 68.4513L160.08 68.4263C159.923 68.2123 159.766 68.0018 159.481 67.8627C159.345 67.7984 159.178 67.7485 158.914 67.8234C158.621 67.9055 158.211 68.1338 157.615 68.6297C157.005 69.1363 156.199 69.9247 155.321 70.8701C154.451 71.8048 153.505 72.8929 152.603 74.0096C150.787 76.2572 149.138 78.6367 147.49 81.0163L147.487 81.0199C147.44 81.0877 147.351 81.1019 147.283 81.0591C147.215 81.0128 147.201 80.9236 147.244 80.8558L147.248 80.8522C148.899 78.4691 150.551 76.0824 152.371 73.8277C153.277 72.7039 154.226 71.6122 155.1 70.6739C155.985 69.7249 156.798 68.9294 157.422 68.4085C158.054 67.8841 158.5 67.6379 158.828 67.5451C159.185 67.4453 159.413 67.513 159.602 67.6022C159.952 67.7699 160.13 68.0125 160.308 68.2551L160.316 68.2515Z" fill="#FF6624"/>
<path d="M131.631 57.1332C134.305 53.644 136.403 50.7624 136.318 50.6968C136.232 50.6313 133.995 53.4066 131.322 56.8958C128.648 60.3849 126.55 63.2665 126.635 63.3321C126.721 63.3976 128.958 60.6223 131.631 57.1332Z" fill="#FF6624"/>
<path d="M133.446 62.6942C136.12 59.2051 138.218 56.3234 138.132 56.2579C138.047 56.1923 135.81 58.9677 133.136 62.4568C130.462 65.9459 128.364 68.8276 128.45 68.8931C128.535 68.9587 130.772 66.1833 133.446 62.6942Z" fill="#FF6624"/>
<path d="M135.827 68.8417C138.501 65.3525 140.599 62.4709 140.513 62.4053C140.428 62.3398 138.191 65.1151 135.517 68.6043C132.843 72.0934 130.745 74.975 130.831 75.0406C130.916 75.1061 133.153 72.3308 135.827 68.8417Z" fill="#FF6624"/>
<path d="M136.965 76.1566C139.639 72.6675 141.737 69.7858 141.652 69.7203C141.566 69.6547 139.329 72.4301 136.656 75.9192C133.982 79.4083 131.884 82.29 131.969 82.3555C132.055 82.4211 134.292 79.6457 136.965 76.1566Z" fill="#FF6624"/>
<path d="M138.692 83.0799C141.366 79.5908 143.464 76.7092 143.378 76.6436C143.293 76.5781 141.056 79.3534 138.382 82.8425C135.708 86.3317 133.61 89.2133 133.696 89.2789C133.781 89.3444 136.018 86.5691 138.692 83.0799Z" fill="#FF6624"/>
<path d="M139.877 91.162C142.55 87.6729 144.648 84.7912 144.563 84.7257C144.477 84.6601 142.241 87.4354 139.567 90.9246C136.893 94.4137 134.795 97.2953 134.88 97.3609C134.966 97.4265 137.203 94.6511 139.877 91.162Z" fill="#FF6624"/>
<path d="M143.415 97.8534C146.088 94.3643 148.187 91.4826 148.101 91.4171C148.015 91.3515 145.779 94.1269 143.105 97.616C140.431 101.105 138.333 103.987 138.419 104.052C138.504 104.118 140.741 101.343 143.415 97.8534Z" fill="#FF6624"/>
<path d="M108.399 99.2718C111.073 95.7827 113.171 92.9011 113.085 92.8355C113 92.77 110.763 95.5453 108.089 99.0344C105.416 102.524 103.317 105.405 103.403 105.471C103.489 105.536 105.725 102.761 108.399 99.2718Z" fill="#FF6624"/>
<path d="M108.538 107.177C111.211 103.688 113.31 100.806 113.224 100.741C113.138 100.675 110.902 103.451 108.228 106.94C105.554 110.429 103.456 113.31 103.542 113.376C103.627 113.442 105.864 110.666 108.538 107.177Z" fill="#FF6624"/>
<path d="M110.744 113.41C113.418 109.921 115.516 107.039 115.43 106.974C115.345 106.908 113.108 109.683 110.434 113.173C107.76 116.662 105.662 119.543 105.748 119.609C105.833 119.674 108.07 116.899 110.744 113.41Z" fill="#FF6624"/>
<path d="M112.375 120.516C114.55 117.677 116.256 115.333 116.187 115.28C116.117 115.227 114.298 117.484 112.123 120.322C109.948 123.161 108.241 125.505 108.311 125.558C108.38 125.611 110.2 123.354 112.375 120.516Z" fill="#FF6624"/>
</svg>
