<svg width="1377" height="568" viewBox="0 0 1377 568" fill="none" xmlns="http://www.w3.org/2000/svg">
<path d="M115.386 237.929H80.9442V235.175H85.41L10.3467 16.4199C8.9396 12.0754 5.88078 9.87258 1.04785 9.87258V7.11902H30.3513V9.87258C28.7607 9.87258 27.5984 10.3621 26.9254 11.28C26.2525 12.1978 25.8855 13.238 25.8855 14.4007C25.8855 15.808 33.1043 36.9187 47.6031 77.7937L99.2359 227.649C99.6641 228.811 100.643 229.362 101.989 229.362C103.151 229.362 103.946 228.811 104.375 227.649C152.826 89.1139 177.052 19.663 177.052 19.1735C177.052 16.6647 176.135 14.4619 174.299 12.6261C172.464 10.7904 170.262 9.87258 167.753 9.87258V7.11902H197.057V9.87258C188.798 9.87258 182.803 14.0947 179.132 22.6002C131.843 157.892 108.168 225.935 108.168 226.853C108.168 228.689 108.779 230.525 110.064 232.36C111.349 234.196 113.429 235.114 116.426 235.114L115.386 237.867V237.929Z" fill="#FF6624"/>
<path d="M398.144 237.929H363.334V235.175C367.922 235.175 371.471 233.706 374.04 230.708C376.548 227.71 377.833 224.528 377.833 221.04L377.466 218.654C372.205 190.873 359.358 168.049 339.047 150.304C318.737 132.498 294.572 123.625 266.553 123.625H244.163C239.819 123.625 236.087 125.155 232.967 128.276C229.847 131.396 228.318 135.251 228.318 139.841V225.935C228.318 228.689 229.174 230.953 230.887 232.666C232.6 234.38 234.864 235.236 237.617 235.236V237.99H202.807V235.236C205.56 235.236 207.885 234.257 209.843 232.299C211.8 230.341 212.779 228.016 212.779 225.262V19.5406C212.779 16.7871 211.8 14.4619 209.843 12.5038C207.885 10.5457 205.56 9.56663 202.807 9.56663V6.81307H237.617V9.56663C234.864 9.81139 232.6 10.8516 230.887 12.6873C229.174 14.523 228.318 16.8483 228.318 19.6018V105.023C228.318 109.368 229.847 113.162 232.967 116.405C236.087 119.648 239.819 121.239 244.163 121.239H275.852C283.866 121.239 290.657 118.363 296.163 112.611C301.668 106.859 304.421 100.067 304.421 92.2958V32.6353C304.421 23.8851 307.541 16.4811 313.72 10.4233C319.899 4.36546 327.24 1.30595 335.744 1.30595H350.548C362.722 1.30595 372.021 6.93545 378.445 18.1945C383.278 26.0268 389.824 29.8818 398.082 29.8818V32.6353H363.273V29.8818C367.861 29.8818 371.104 27.8013 372.939 23.7016C373.612 22.2942 373.979 20.948 373.979 19.5406C373.979 17.0318 372.939 14.5842 370.859 12.3202C365.353 6.56831 358.562 3.69237 350.548 3.69237C346.633 3.69237 344.247 3.93713 343.33 4.36546C329.076 9.62782 321.979 19.0511 321.979 32.6353V92.2346C321.979 100.74 319.043 107.961 313.17 113.957C307.297 119.954 300.017 123.136 291.33 123.625C315.005 129.132 334.765 140.697 350.732 158.259C366.699 175.82 376.609 196.564 380.525 220.428C381.198 224.773 383.217 228.322 386.581 231.136C389.885 233.89 393.739 235.297 398.144 235.297V238.051V237.929Z" fill="#FF6624"/>
<path d="M491.132 243.803C470.943 243.803 453.692 236.582 439.499 222.08C425.245 207.639 418.148 190.261 418.148 170.069V19.5406C418.148 16.7871 417.169 14.4619 415.212 12.5038C413.254 10.5457 410.929 9.56663 408.177 9.56663V7.18021H442.252V9.56663C439.744 9.81139 437.602 10.9128 435.889 12.8709C434.176 14.829 433.32 17.093 433.32 19.6018V182.551C433.32 197.91 438.459 211.25 448.798 222.509C460.054 234.93 474.186 241.11 491.132 241.11C510.647 241.11 527.287 234.196 541.052 220.245C554.816 206.354 561.729 189.649 561.729 170.13V27.4342C561.729 22.3554 560.016 18.1333 556.59 14.7066C553.164 11.28 548.882 9.56663 543.866 9.56663V7.18021H578.308V9.56663C574.637 9.56663 571.334 10.974 568.52 13.7276C565.644 16.4811 564.237 19.7854 564.237 23.7016V170.13C564.237 190.323 557.141 207.701 542.887 222.142C528.633 236.582 511.442 243.864 491.254 243.864L491.132 243.803Z" fill="#FF6624"/>
<path d="M668.849 244.843C655.513 244.843 643.155 240.009 631.654 230.402C629.818 228.811 627.861 228.016 625.781 228.016C623.456 228.016 621.437 228.872 619.602 230.586C617.767 232.299 616.849 234.441 616.849 236.95H614.463V191.118H616.849C616.849 204.458 621.376 215.839 630.43 225.385C639.484 234.93 650.802 240.376 664.383 241.722H665.79C676.129 241.722 685.55 239.091 694.054 233.829C708.308 224.65 715.404 212.841 715.404 198.338V195.952C715.404 187.936 713.324 180.349 709.225 173.189C702.802 162.175 691.79 154.098 676.19 149.08C671.847 147.673 666.769 145.654 661.018 142.9C658.265 141.738 655.574 140.636 652.943 139.596C650.313 138.556 647.865 137.515 645.724 136.475C643.522 135.435 641.32 134.456 638.995 133.538C618.99 123.87 606.143 108.266 600.393 86.6663C598.986 81.1592 598.313 75.6521 598.313 70.145C598.313 65.5557 598.741 60.9664 599.72 56.3772C603.146 41.0184 610.731 28.352 622.477 18.5004C635.324 7.48616 650.618 1.97904 668.298 1.97904C672.887 1.97904 677.475 2.52976 682.063 3.69237C693.992 6.20117 704.331 11.28 713.079 18.8675C715.832 20.948 718.585 21.9882 721.338 21.9882C724.519 21.9882 727.333 20.948 729.597 18.8675C731.861 16.7871 733.023 13.9111 733.023 10.2397H735.409V57.4174L733.023 57.7845C726.844 32.2682 711.183 15.5021 686.162 7.48616C680.656 5.89522 675.028 5.09975 669.277 5.09975C652.087 5.09975 637.221 10.8516 624.863 22.2942C612.444 33.798 606.266 47.9941 606.266 65.005C606.266 71.43 607.428 77.7325 609.691 83.9739C616.115 101.658 627.738 113.957 644.501 120.81L655.513 125.277C660.774 127.358 665.974 129.499 670.99 131.825L677.536 134.578C683.531 136.904 689.221 139.535 694.727 142.472C703.903 147.306 711.122 154.282 716.444 163.46L718.83 168.294C722.011 175.882 723.663 183.592 723.663 191.363C723.663 208.129 716.872 221.774 703.352 232.36C694.849 239.03 688.792 242.334 685.122 242.334C679.861 243.925 674.416 244.721 668.91 244.721L668.849 244.843Z" fill="#FF6624"/>
<path d="M845.526 237.929L778.722 27.4342C778.477 26.7611 778.049 26.2716 777.315 26.0268C776.642 26.0268 775.969 26.1492 775.418 26.3939C774.868 26.6387 774.562 27.1894 774.562 28.1073V219.266C774.562 223.61 776.152 227.343 779.395 230.463C782.637 233.584 786.369 235.114 790.773 235.114V237.867H755.964V235.114C760.552 235.114 764.406 233.584 767.526 230.463C770.646 227.343 772.176 223.61 772.176 219.266V25.7209C772.176 21.1316 770.646 17.3378 767.526 14.3395C764.406 11.3411 760.552 9.87258 755.964 9.87258V7.11902H788.02L855.192 217.613C855.437 218.287 855.743 218.654 856.232 218.654H856.905C858.312 218.654 858.985 218.103 858.985 216.94V25.7209C858.985 21.1316 857.456 17.3378 854.336 14.3395C851.216 11.3411 847.484 9.87258 843.14 9.87258V7.11902H877.95V9.87258C873.606 9.87258 869.813 11.3411 866.571 14.3395C863.329 17.3378 861.738 21.1316 861.738 25.7209V219.327C861.738 223.671 863.329 227.404 866.571 230.525C869.752 233.645 873.545 235.175 877.95 235.175V237.929H845.526Z" fill="#FF6624"/>
<path d="M1006.66 244.476C991.065 244.476 975.771 241.478 960.844 235.542C945.917 229.546 932.458 220.612 920.528 208.68C896.67 183.898 884.74 155.199 884.74 122.585C884.74 112.244 886.759 99.4551 890.736 84.1575C894.773 68.86 904.684 53.0729 920.528 36.7963C932.458 24.8642 945.917 15.8692 960.844 9.93377C975.771 3.93713 991.004 1 1006.66 1C1022.33 1 1037.5 3.99832 1052.3 9.93377C1067.11 15.9304 1080.5 24.8642 1092.43 36.7963C1116.29 61.15 1128.28 89.7258 1128.28 122.585C1128.28 132.926 1126.26 145.776 1122.23 161.196C1118.19 176.616 1108.28 192.403 1092.43 208.741C1080.5 220.673 1067.11 229.668 1052.3 235.603C1037.5 241.539 1022.26 244.537 1006.66 244.537V244.476ZM1021.84 234.135C1034.68 234.135 1047.04 231.81 1058.85 227.22C1070.66 222.631 1081.18 215.717 1090.35 206.538C1108.71 187.018 1117.88 163.95 1117.88 137.271C1117.88 134.945 1117.33 125.767 1116.17 109.735C1115.01 93.642 1102.83 73.5716 1079.65 49.4627C1066.8 36.8575 1052.73 27.3118 1037.44 20.8868C1022.14 14.4619 1006.85 11.2188 991.432 11.2188C978.585 11.2188 966.227 13.544 954.42 18.1333C942.613 22.7225 931.969 29.637 922.547 38.8156C904.194 58.0905 895.018 80.8533 895.018 107.043C895.018 109.796 895.507 119.22 896.547 135.313C897.587 151.406 909.823 171.598 933.253 195.952C946.1 208.557 960.232 218.103 975.587 224.528C990.943 230.953 1006.36 234.196 1021.71 234.196L1021.84 234.135Z" fill="#FF6624"/>
<path d="M1288.38 237.929H1253.94V235.175C1256.69 235.175 1259.02 234.196 1260.97 232.238C1262.93 230.28 1263.91 227.955 1263.91 225.201L1263.54 19.1735C1263.54 17.3378 1262.99 15.6245 1261.83 14.0335L1261.46 13.3604C1259.87 11.0352 1257.37 9.93377 1253.88 9.93377H1179.12C1176.12 9.93377 1173.74 10.9128 1171.9 12.8709C1170.07 14.829 1169.15 17.1542 1169.15 19.9078V122.891C1169.15 126.562 1170.43 129.683 1172.94 132.192C1175.45 134.701 1178.57 135.986 1182.24 135.986H1218.76C1222.43 135.986 1225.61 134.639 1228.25 132.008C1230.88 129.377 1232.22 126.195 1232.22 122.524H1234.97V151.834H1232.22C1232.22 148.163 1230.94 144.981 1228.43 142.349C1225.92 139.718 1222.68 138.372 1218.76 138.372H1182.24C1178.57 138.372 1175.45 139.657 1172.94 142.166C1170.43 144.675 1169.15 147.918 1169.15 151.834V225.874C1169.15 228.383 1170.07 230.586 1171.9 232.421C1173.74 234.257 1175.94 235.175 1178.45 235.175V237.929H1143.64V235.175C1146.39 235.175 1148.72 234.196 1150.67 232.238C1152.63 230.28 1153.61 227.955 1153.61 225.201V19.9078C1153.61 17.1542 1152.63 14.829 1150.67 12.8709C1148.72 10.9128 1146.39 9.93377 1143.64 9.93377V7.18021H1376.11V19.2347H1373.72C1373.72 16.7259 1372.74 14.523 1370.79 12.6873C1368.83 10.8516 1366.57 9.93377 1364.06 9.93377H1288.99C1286.24 9.93377 1283.92 10.9128 1281.96 12.8709C1280 14.829 1279.02 17.1542 1279.02 19.9078V122.891C1279.02 126.562 1280.31 129.683 1282.81 132.192C1285.32 134.701 1288.44 135.986 1292.11 135.986H1328.94C1332.37 135.986 1335.49 134.578 1338.24 131.825C1340.99 129.071 1342.4 125.95 1342.4 122.524H1344.79V151.834H1342.4C1342.4 148.163 1341.05 144.981 1338.42 142.349C1335.79 139.718 1332.61 138.372 1328.94 138.372H1292.11C1288.44 138.372 1285.32 139.657 1282.81 142.166C1280.31 144.675 1279.02 147.918 1279.02 151.834V225.874C1279.02 228.383 1279.94 230.586 1281.77 232.421C1283.61 234.257 1285.81 235.175 1288.32 235.175V237.929H1288.38Z" fill="#FF6624"/>
<path d="M492.783 456.378C492.416 385.091 491.988 313.743 491.621 242.457L492.783 456.378Z" fill="#FF6624"/>
<path d="M489.725 456.378C492.11 395.677 490.642 329.897 488.379 269.197C488.012 264.73 488.379 260.263 487.461 255.857C486.36 251.39 483.301 246.985 483.24 242.518L500.063 242.395C500.063 246.862 497.005 251.329 495.965 255.796C494.802 264.546 494.863 286.697 494.374 295.937C493.701 326.899 494.068 371.507 494.129 402.897C494.313 420.704 494.68 438.571 495.903 456.378H489.725Z" fill="#FF6624"/>
<path d="M451.673 459.315C451.673 460.172 472.045 459.56 492.6 459.56C514.746 459.56 535.668 460.355 535.729 459.437C535.729 458.642 520.802 455.949 507.16 452.706C504.652 452.094 496.576 450.136 494.619 446.893C494.435 446.587 493.762 445.302 492.722 445.302C491.621 445.302 490.826 446.648 490.581 446.954C488.562 450.136 480.915 452.462 477 453.624C465.009 457.296 451.612 458.642 451.673 459.315Z" fill="#FF6624"/>
<path d="M492.783 456.378C492.416 385.091 491.988 313.743 491.621 242.457M115.386 237.929H80.9442V235.175H85.41L10.3467 16.4199C8.9396 12.0754 5.88078 9.87258 1.04785 9.87258V7.11902H30.3513V9.87258C28.7607 9.87258 27.5984 10.3621 26.9254 11.28C26.2525 12.1978 25.8855 13.238 25.8855 14.4007C25.8855 15.808 33.1043 36.9187 47.6031 77.7937L99.2359 227.649C99.6641 228.811 100.643 229.362 101.989 229.362C103.151 229.362 103.946 228.811 104.375 227.649C152.826 89.1139 177.052 19.663 177.052 19.1735C177.052 16.6647 176.135 14.4619 174.299 12.6261C172.464 10.7904 170.262 9.87258 167.753 9.87258V7.11902H197.057V9.87258C188.798 9.87258 182.803 14.0947 179.132 22.6002C131.843 157.892 108.168 225.935 108.168 226.853C108.168 228.689 108.779 230.525 110.064 232.36C111.349 234.196 113.429 235.114 116.426 235.114L115.386 237.867V237.929ZM398.144 237.929H363.334V235.175C367.922 235.175 371.471 233.706 374.04 230.708C376.548 227.71 377.833 224.528 377.833 221.04L377.466 218.654C372.205 190.873 359.358 168.049 339.047 150.304C318.737 132.498 294.572 123.625 266.553 123.625H244.163C239.819 123.625 236.087 125.155 232.967 128.276C229.847 131.396 228.318 135.251 228.318 139.841V225.935C228.318 228.689 229.174 230.953 230.887 232.666C232.6 234.38 234.864 235.236 237.617 235.236V237.99H202.807V235.236C205.56 235.236 207.885 234.257 209.843 232.299C211.8 230.341 212.779 228.016 212.779 225.262V19.5406C212.779 16.7871 211.8 14.4619 209.843 12.5038C207.885 10.5457 205.56 9.56663 202.807 9.56663V6.81307H237.617V9.56663C234.864 9.81139 232.6 10.8516 230.887 12.6873C229.174 14.523 228.318 16.8483 228.318 19.6018V105.023C228.318 109.368 229.847 113.162 232.967 116.405C236.087 119.648 239.819 121.239 244.163 121.239H275.852C283.866 121.239 290.657 118.363 296.163 112.611C301.668 106.859 304.421 100.067 304.421 92.2958V32.6353C304.421 23.8851 307.541 16.4811 313.72 10.4233C319.899 4.36546 327.24 1.30595 335.744 1.30595H350.548C362.722 1.30595 372.021 6.93545 378.445 18.1945C383.278 26.0268 389.824 29.8818 398.082 29.8818V32.6353H363.273V29.8818C367.861 29.8818 371.104 27.8013 372.939 23.7016C373.612 22.2942 373.979 20.948 373.979 19.5406C373.979 17.0318 372.939 14.5842 370.859 12.3202C365.353 6.56831 358.562 3.69237 350.548 3.69237C346.633 3.69237 344.247 3.93713 343.33 4.36546C329.075 9.62782 321.979 19.0511 321.979 32.6353V92.2346C321.979 100.74 319.043 107.961 313.17 113.957C307.297 119.954 300.017 123.136 291.33 123.625C315.005 129.132 334.765 140.697 350.732 158.259C366.699 175.82 376.609 196.564 380.525 220.428C381.198 224.773 383.217 228.322 386.581 231.136C389.885 233.89 393.739 235.297 398.144 235.297V238.051V237.929ZM491.132 243.803C470.943 243.803 453.692 236.582 439.499 222.08C425.245 207.639 418.148 190.261 418.148 170.069V19.5406C418.148 16.7871 417.169 14.4619 415.212 12.5038C413.254 10.5457 410.929 9.56663 408.177 9.56663V7.18021H442.252V9.56663C439.744 9.81139 437.602 10.9128 435.889 12.8709C434.176 14.829 433.32 17.093 433.32 19.6018V182.551C433.32 197.91 438.459 211.25 448.798 222.509C460.054 234.93 474.186 241.11 491.132 241.11C510.647 241.11 527.287 234.196 541.052 220.245C554.816 206.354 561.729 189.649 561.729 170.13V27.4342C561.729 22.3554 560.016 18.1333 556.59 14.7066C553.164 11.28 548.882 9.56663 543.866 9.56663V7.18021H578.308V9.56663C574.637 9.56663 571.334 10.974 568.52 13.7276C565.644 16.4811 564.237 19.7854 564.237 23.7016V170.13C564.237 190.323 557.141 207.701 542.887 222.142C528.633 236.582 511.442 243.864 491.254 243.864L491.132 243.803ZM668.849 244.843C655.513 244.843 643.155 240.009 631.654 230.402C629.818 228.811 627.861 228.016 625.781 228.016C623.456 228.016 621.437 228.872 619.602 230.586C617.767 232.299 616.849 234.441 616.849 236.95H614.463V191.118H616.849C616.849 204.458 621.376 215.839 630.43 225.385C639.484 234.93 650.802 240.376 664.383 241.722H665.79C676.129 241.722 685.55 239.091 694.054 233.829C708.308 224.65 715.404 212.841 715.404 198.338V195.952C715.404 187.936 713.324 180.349 709.225 173.189C702.802 162.175 691.79 154.098 676.19 149.08C671.847 147.673 666.769 145.654 661.018 142.9C658.265 141.738 655.574 140.636 652.943 139.596C650.313 138.556 647.865 137.515 645.724 136.475C643.522 135.435 641.32 134.456 638.995 133.538C618.99 123.87 606.143 108.266 600.393 86.6663C598.986 81.1592 598.313 75.6521 598.313 70.145C598.313 65.5557 598.741 60.9664 599.72 56.3772C603.146 41.0184 610.731 28.352 622.477 18.5004C635.324 7.48616 650.618 1.97904 668.298 1.97904C672.887 1.97904 677.475 2.52976 682.063 3.69237C693.992 6.20117 704.331 11.28 713.079 18.8675C715.832 20.948 718.585 21.9882 721.338 21.9882C724.519 21.9882 727.334 20.948 729.597 18.8675C731.861 16.7871 733.023 13.9111 733.023 10.2397H735.409V57.4174L733.023 57.7845C726.844 32.2682 711.183 15.5021 686.162 7.48616C680.656 5.89522 675.028 5.09975 669.277 5.09975C652.087 5.09975 637.221 10.8516 624.863 22.2942C612.444 33.798 606.266 47.9941 606.266 65.005C606.266 71.43 607.428 77.7325 609.691 83.9739C616.115 101.658 627.738 113.957 644.501 120.81L655.513 125.277C660.774 127.358 665.974 129.499 670.99 131.825L677.536 134.578C683.531 136.904 689.221 139.535 694.727 142.472C703.903 147.306 711.122 154.282 716.444 163.46L718.83 168.294C722.011 175.882 723.663 183.592 723.663 191.363C723.663 208.129 716.872 221.774 703.352 232.36C694.849 239.03 688.792 242.334 685.122 242.334C679.861 243.925 674.416 244.721 668.91 244.721L668.849 244.843ZM845.526 237.929L778.722 27.4342C778.477 26.7611 778.049 26.2716 777.315 26.0268C776.642 26.0268 775.969 26.1492 775.418 26.3939C774.868 26.6387 774.562 27.1894 774.562 28.1073V219.266C774.562 223.61 776.152 227.343 779.395 230.463C782.637 233.584 786.369 235.114 790.773 235.114V237.867H755.964V235.114C760.552 235.114 764.406 233.584 767.526 230.463C770.646 227.343 772.176 223.61 772.176 219.266V25.7209C772.176 21.1316 770.646 17.3378 767.526 14.3395C764.406 11.3411 760.552 9.87258 755.964 9.87258V7.11902H788.02L855.192 217.613C855.437 218.287 855.743 218.654 856.232 218.654H856.905C858.312 218.654 858.985 218.103 858.985 216.94V25.7209C858.985 21.1316 857.456 17.3378 854.336 14.3395C851.216 11.3411 847.484 9.87258 843.14 9.87258V7.11902H877.95V9.87258C873.606 9.87258 869.813 11.3411 866.571 14.3395C863.329 17.3378 861.738 21.1316 861.738 25.7209V219.327C861.738 223.671 863.329 227.404 866.571 230.525C869.752 233.645 873.545 235.175 877.95 235.175V237.929H845.526ZM1006.66 244.476C991.065 244.476 975.771 241.478 960.844 235.542C945.917 229.546 932.458 220.612 920.528 208.68C896.67 183.898 884.74 155.199 884.74 122.585C884.74 112.244 886.759 99.4551 890.736 84.1575C894.773 68.86 904.684 53.0729 920.528 36.7963C932.458 24.8642 945.917 15.8692 960.844 9.93377C975.771 3.93713 991.004 1 1006.66 1C1022.33 1 1037.5 3.99832 1052.3 9.93377C1067.11 15.9304 1080.5 24.8642 1092.43 36.7963C1116.29 61.15 1128.28 89.7258 1128.28 122.585C1128.28 132.926 1126.26 145.776 1122.23 161.196C1118.19 176.616 1108.28 192.403 1092.43 208.741C1080.5 220.673 1067.11 229.668 1052.3 235.603C1037.5 241.539 1022.26 244.537 1006.66 244.537V244.476ZM1021.84 234.135C1034.68 234.135 1047.04 231.81 1058.85 227.22C1070.66 222.631 1081.18 215.717 1090.35 206.538C1108.71 187.018 1117.88 163.95 1117.88 137.271C1117.88 134.945 1117.33 125.767 1116.17 109.735C1115.01 93.642 1102.83 73.5716 1079.65 49.4627C1066.8 36.8575 1052.73 27.3118 1037.44 20.8868C1022.14 14.4619 1006.85 11.2188 991.432 11.2188C978.585 11.2188 966.227 13.544 954.42 18.1333C942.613 22.7225 931.969 29.637 922.547 38.8156C904.194 58.0905 895.018 80.8533 895.018 107.043C895.018 109.796 895.507 119.22 896.547 135.313C897.587 151.406 909.823 171.598 933.253 195.952C946.1 208.557 960.232 218.103 975.587 224.528C990.943 230.953 1006.36 234.196 1021.71 234.196L1021.84 234.135ZM1288.38 237.929H1253.94V235.175C1256.69 235.175 1259.02 234.196 1260.97 232.238C1262.93 230.28 1263.91 227.955 1263.91 225.201L1263.54 19.1735C1263.54 17.3378 1262.99 15.6245 1261.83 14.0335L1261.46 13.3604C1259.87 11.0352 1257.37 9.93377 1253.88 9.93377H1179.12C1176.12 9.93377 1173.74 10.9128 1171.9 12.8709C1170.07 14.829 1169.15 17.1542 1169.15 19.9078V122.891C1169.15 126.562 1170.43 129.683 1172.94 132.192C1175.45 134.701 1178.57 135.986 1182.24 135.986H1218.76C1222.43 135.986 1225.62 134.639 1228.25 132.008C1230.88 129.377 1232.22 126.195 1232.22 122.524H1234.97V151.834H1232.22C1232.22 148.163 1230.94 144.981 1228.43 142.349C1225.92 139.718 1222.68 138.372 1218.76 138.372H1182.24C1178.57 138.372 1175.45 139.657 1172.94 142.166C1170.43 144.675 1169.15 147.918 1169.15 151.834V225.874C1169.15 228.383 1170.07 230.586 1171.9 232.421C1173.74 234.257 1175.94 235.175 1178.45 235.175V237.929H1143.64V235.175C1146.39 235.175 1148.72 234.196 1150.67 232.238C1152.63 230.28 1153.61 227.955 1153.61 225.201V19.9078C1153.61 17.1542 1152.63 14.829 1150.67 12.8709C1148.72 10.9128 1146.39 9.93377 1143.64 9.93377V7.18021H1376.11V19.2347H1373.72C1373.72 16.7259 1372.74 14.523 1370.79 12.6873C1368.83 10.8516 1366.57 9.93377 1364.06 9.93377H1288.99C1286.24 9.93377 1283.92 10.9128 1281.96 12.8709C1280 14.829 1279.02 17.1542 1279.02 19.9078V122.891C1279.02 126.562 1280.31 129.683 1282.81 132.192C1285.32 134.701 1288.44 135.986 1292.11 135.986H1328.94C1332.37 135.986 1335.49 134.578 1338.24 131.825C1340.99 129.071 1342.4 125.95 1342.4 122.524H1344.79V151.834H1342.4C1342.4 148.163 1341.05 144.981 1338.42 142.349C1335.79 139.718 1332.61 138.372 1328.94 138.372H1292.11C1288.44 138.372 1285.32 139.657 1282.81 142.166C1280.31 144.675 1279.02 147.918 1279.02 151.834V225.874C1279.02 228.383 1279.94 230.586 1281.77 232.421C1283.61 234.257 1285.81 235.175 1288.32 235.175V237.929H1288.38ZM489.725 456.378C492.11 395.677 490.642 329.897 488.379 269.197C488.012 264.73 488.379 260.263 487.461 255.857C486.36 251.39 483.301 246.985 483.24 242.518L500.063 242.395C500.063 246.862 497.005 251.329 495.965 255.796C494.802 264.546 494.863 286.697 494.374 295.937C493.701 326.899 494.068 371.507 494.129 402.897C494.313 420.704 494.68 438.571 495.903 456.378H489.725ZM451.673 459.315C451.673 460.172 472.045 459.56 492.6 459.56C514.746 459.56 535.668 460.355 535.729 459.437C535.729 458.642 520.802 455.949 507.16 452.706C504.652 452.094 496.576 450.136 494.619 446.893C494.435 446.587 493.762 445.302 492.722 445.302C491.621 445.302 490.826 446.648 490.581 446.954C488.562 450.136 480.915 452.462 477 453.624C465.009 457.296 451.612 458.642 451.673 459.315Z" stroke="#FF6624" stroke-miterlimit="10"/>
<path d="M641.155 372.746C643.627 368.214 646.717 363.613 650.425 358.944C664.57 340.816 683.591 325.847 707.487 314.036C695.264 311.015 683.522 309.779 672.261 310.328C660.175 311.152 649.738 314.517 640.949 320.422C630.511 327.563 625.499 336.696 625.911 347.82C626.323 358.257 631.404 366.566 641.155 372.746ZM785.561 376.454C790.367 373.845 794.556 371.51 798.127 369.45C801.697 367.39 804.65 365.467 806.985 363.682C816.186 356.953 822.778 349.331 826.761 340.816C828.958 336.284 830.057 331.821 830.057 327.426C830.057 319.461 826.074 313.349 818.109 309.092C810.418 305.109 800.187 303.118 787.415 303.118C767.364 303.118 746.352 307.65 724.379 316.714C734.953 321.246 745.322 327.151 755.485 334.43C762.351 339.237 768.737 344.936 774.643 351.528C782.196 359.905 785.973 367.184 785.973 373.364C785.973 374.051 785.835 375.081 785.561 376.454ZM834.383 339.374C825.456 355.854 808.083 370.137 782.265 382.222L781.853 382.428C780.754 382.84 779.93 383.046 779.381 383.046C778.557 383.046 778.282 382.703 778.557 382.016C778.831 381.329 779.449 380.574 780.411 379.75C781.509 377.827 782.059 375.767 782.059 373.57C782.059 367.39 778.007 359.837 769.905 350.91C764.137 344.73 758.781 339.855 753.837 336.284C743.262 328.731 732.207 322.757 720.671 318.362C693.616 330.173 672.261 346.241 656.605 366.566C653.858 370.137 651.386 373.639 649.189 377.072C657.978 380.643 667.385 382.428 677.411 382.428C689.771 382.428 697.118 380.162 699.453 375.63C699.727 374.943 700.208 374.806 700.895 375.218C701.719 375.63 701.925 376.248 701.513 377.072C700.277 379.544 697.049 381.604 691.831 383.252C686.749 384.763 680.707 385.518 673.703 385.518C664.089 385.518 655.163 383.939 646.923 380.78C640.056 392.591 636.623 403.509 636.623 413.534C636.623 427.679 643.146 438.872 656.193 447.112C669.514 455.215 687.23 459.266 709.341 459.266C712.087 459.266 714.903 459.197 717.787 459.06C720.671 458.923 723.623 458.717 726.645 458.442C743.125 457.069 756.515 455.009 766.815 452.262C785.355 447.593 800.118 440.177 811.105 430.014C812.066 429.19 812.821 428.778 813.371 428.778C814.195 428.778 814.538 429.396 814.401 430.632C814.126 431.731 813.577 432.692 812.753 433.516C803.689 441.344 789.475 448.691 770.111 455.558C762.008 458.305 754.386 460.571 747.245 462.356C740.103 464.141 733.374 465.446 727.057 466.27C720.19 467.094 713.529 467.506 707.075 467.506C675.488 467.506 653.103 458.511 639.919 440.52C626.872 422.255 626.597 400.968 639.095 376.66C628.245 369.931 622.821 360.249 622.821 347.614C622.546 335.391 627.833 325.366 638.683 317.538C648.021 310.397 659.145 306.551 672.055 306.002C684.552 305.453 697.873 307.444 712.019 311.976C739.623 299.341 767.227 293.024 794.831 293.024C810.075 293.024 821.473 296.183 829.027 302.5C835.344 307.581 838.503 314.379 838.503 322.894C838.503 328.662 837.129 334.155 834.383 339.374Z" fill="#FFF0D4"/>
<path d="M899.733 433.31C883.665 450.339 870 458.236 858.739 457C855.031 456.588 851.598 454.322 848.439 450.202C845.28 445.533 843.358 439.696 842.671 432.692C840.062 436.263 837.384 439.559 834.637 442.58C832.028 445.464 829.212 448.142 826.191 450.614C820.698 455.009 816.166 457.206 812.595 457.206C807.514 457.206 804.973 453.979 804.973 447.524C804.973 442.031 806.896 436.331 810.741 430.426C819.668 416.83 829.693 407.423 840.817 402.204C845.624 400.007 850.087 398.908 854.207 398.908C855.306 398.908 856.473 399.114 857.709 399.526C859.082 399.801 860.318 400.281 861.417 400.968C862.653 401.517 863.614 402.204 864.301 403.028C865.125 403.852 865.537 404.813 865.537 405.912C865.537 406.324 865.262 406.736 864.713 407.148C864.301 407.423 863.752 407.697 863.065 407.972C862.516 408.109 861.966 408.315 861.417 408.59C860.868 408.865 860.593 409.071 860.593 409.208C855.512 418.409 852.971 427.199 852.971 435.576C852.971 446.013 857.022 451.232 865.125 451.232C873.64 451.232 884.283 444.434 897.055 430.838C898.016 429.602 898.978 428.984 899.939 428.984C900.626 428.984 900.969 429.465 900.969 430.426C900.969 431.525 900.557 432.486 899.733 433.31ZM848.439 406.118C837.04 405.843 827.221 413.809 818.981 430.014C816.646 434.409 815.479 438.323 815.479 441.756C815.479 445.464 816.784 447.318 819.393 447.318C821.865 447.318 825.092 445.67 829.075 442.374C836.216 436.331 840.886 430.289 843.083 424.246C844.044 417.379 845.83 411.337 848.439 406.118Z" fill="#FFF0D4"/>
<path d="M898.265 399.938C899.227 399.938 900.188 399.938 901.149 399.938C902.248 399.938 903.347 399.869 904.445 399.732C905.132 399.595 905.956 399.526 906.917 399.526C908.016 399.526 909.115 399.526 910.213 399.526C911.175 397.741 912.548 395.2 914.333 391.904C916.119 388.608 918.385 384.488 921.131 379.544C922.642 376.797 924.427 373.845 926.487 370.686C928.547 367.527 930.882 364.025 933.491 360.18C936.238 357.433 939.946 356.06 944.615 356.06C948.598 356.06 950.589 357.09 950.589 359.15C950.589 359.562 950.383 360.043 949.971 360.592C947.087 364.575 943.448 369.793 939.053 376.248C934.659 382.703 929.509 390.531 923.603 399.732H955.739C957.799 400.419 958.829 401.311 958.829 402.41C958.829 404.47 956.357 405.775 951.413 406.324C950.589 406.461 947.568 406.53 942.349 406.53C937.131 406.53 929.577 406.599 919.689 406.736C912.96 419.371 909.595 429.671 909.595 437.636C909.595 446.563 913.441 451.026 921.131 451.026C924.977 451.026 929.097 449.79 933.491 447.318C936.513 445.533 939.603 443.335 942.761 440.726C946.057 437.979 949.491 434.683 953.061 430.838C954.435 429.465 955.533 428.847 956.357 428.984C957.044 428.984 957.387 429.465 957.387 430.426C957.387 431.25 957.044 432.143 956.357 433.104C940.839 449.447 927.517 457.412 916.393 457C907.604 456.725 902.317 452.193 900.531 443.404C900.257 442.031 900.051 440.657 899.913 439.284C899.776 437.911 899.707 436.537 899.707 435.164C899.707 426.787 902.042 417.311 906.711 406.736C903.69 406.873 901.493 406.942 900.119 406.942C898.883 406.942 898.54 407.011 899.089 407.148C895.931 406.736 894.214 405.363 893.939 403.028C893.527 400.968 894.969 399.938 898.265 399.938Z" fill="#FFF0D4"/>
<path d="M1026.08 433.31C1021.13 439.353 1013.3 445.121 1002.59 450.614C990.781 456.794 980.481 459.884 971.691 459.884C958.919 459.884 952.533 452.88 952.533 438.872C952.533 433.791 954.25 427.748 957.683 420.744C961.117 413.328 965.443 407.148 970.661 402.204C976.567 396.573 982.129 393.758 987.347 393.758C994.214 393.758 997.647 397.123 997.647 403.852C997.647 407.972 995.862 412.367 992.291 417.036C985.974 424.864 976.773 430.289 964.687 433.31C964.138 435.645 963.863 438.117 963.863 440.726C963.863 450.065 968.189 454.734 976.841 454.734C983.708 454.734 992.223 451.919 1002.39 446.288C1007.05 443.679 1011.11 441.138 1014.54 438.666C1017.97 436.057 1020.86 433.447 1023.19 430.838C1025.8 428.091 1027.11 427.954 1027.11 430.426C1027.11 431.25 1026.76 432.211 1026.08 433.31ZM988.171 413.946C990.781 409.551 992.085 405.775 992.085 402.616C992.085 400.144 991.261 398.908 989.613 398.908C986.729 398.908 982.747 402.273 977.665 409.002C972.721 415.869 968.807 422.735 965.923 429.602C976.773 426.169 984.189 420.95 988.171 413.946Z" fill="#FFF0D4"/>
<path d="M1121.43 433.928C1106.32 446.975 1093.41 455.421 1082.7 459.266C1077.07 461.326 1072.33 462.356 1068.49 462.356C1058.74 462.356 1053.79 457.137 1053.66 446.7C1053.38 439.009 1056.61 429.259 1063.34 417.448C1059.91 417.86 1056.68 416.761 1053.66 414.152C1050.77 411.405 1049.4 408.315 1049.54 404.882C1043.91 415.457 1035.25 425.551 1023.58 435.164C1022.62 436.125 1021.52 436.606 1020.28 436.606C1019.46 436.606 1019.05 436.263 1019.05 435.576C1019.05 434.889 1019.67 433.997 1020.9 432.898C1030.93 424.109 1039.44 412.985 1046.45 399.526C1045.9 398.015 1045.62 396.917 1045.62 396.23C1045.21 394.445 1045 392.522 1045 390.462C1045 385.243 1046.52 381.055 1049.54 377.896C1052.15 375.012 1055.1 373.57 1058.39 373.57C1062.38 373.57 1064.44 375.493 1064.57 379.338C1064.99 384.694 1061.35 391.973 1053.66 401.174C1053.52 405.431 1055.72 407.56 1060.25 407.56C1061.9 407.56 1063.96 407.217 1066.43 406.53C1069.04 405.706 1070.89 405.294 1071.99 405.294C1076.11 405.294 1078.17 407.354 1078.17 411.474C1078.17 412.985 1077.62 414.701 1076.52 416.624C1075.84 417.723 1074.94 419.302 1073.84 421.362C1072.88 423.285 1071.78 425.619 1070.55 428.366C1067.8 434.409 1066.09 438.941 1065.4 441.962C1064.99 443.885 1064.78 445.601 1064.78 447.112C1064.78 452.743 1067.46 455.558 1072.81 455.558C1079.54 455.558 1087.92 452.605 1097.95 446.7C1102.34 444.228 1106.32 441.687 1109.89 439.078C1113.47 436.331 1116.62 433.585 1119.37 430.838C1120.61 429.602 1121.64 428.984 1122.46 428.984C1123.28 428.984 1123.7 429.396 1123.7 430.22C1123.7 431.181 1122.94 432.417 1121.43 433.928Z" fill="#FFF0D4"/>
<path d="M1170 364.3C1170 371.167 1166.98 374.6 1160.94 374.6C1158.88 374.6 1157.02 373.776 1155.37 372.128C1153.86 370.48 1153.11 368.695 1153.11 366.772C1153.11 364.163 1154.28 361.897 1156.61 359.974C1158.81 358.463 1160.8 357.708 1162.58 357.708C1167.53 357.708 1170 359.905 1170 364.3ZM1178.65 432.898C1163.13 449.378 1149.81 457.412 1138.69 457C1126.05 456.725 1120.35 447.936 1121.59 430.632C1122.28 422.392 1126.33 412.847 1133.74 401.998C1135.25 399.663 1138.21 398.496 1142.6 398.496C1145.9 398.496 1147.55 399.389 1147.55 401.174C1147.55 401.449 1147.41 401.998 1147.13 402.822C1144.8 407.079 1142.88 410.375 1141.37 412.71C1139.99 415.045 1139.17 416.487 1138.89 417.036C1137.38 419.92 1136.15 422.529 1135.19 424.864C1134.36 427.199 1133.81 429.327 1133.54 431.25C1133.13 433.722 1132.92 436.057 1132.92 438.254C1132.92 447.318 1136.15 451.85 1142.6 451.85C1151.39 451.85 1162.31 444.846 1175.36 430.838C1176.73 429.465 1177.83 428.778 1178.65 428.778C1179.34 429.053 1179.68 429.533 1179.68 430.22C1179.68 431.044 1179.34 431.937 1178.65 432.898Z" fill="#FFF0D4"/>
<path d="M1175.86 455.352C1175.31 456.725 1174.35 457.412 1172.97 457.412C1171.6 457.412 1170.36 456.794 1169.27 455.558C1168.03 454.185 1167.55 453.017 1167.82 452.056C1168.79 449.996 1170.09 447.112 1171.74 443.404C1173.39 439.559 1175.38 434.889 1177.71 429.396C1183.48 416.075 1186.36 407.972 1186.36 405.088C1186.78 404.264 1188.97 402.891 1192.96 400.968C1197.35 398.908 1199.55 399.457 1199.55 402.616C1196.66 411.543 1190.62 425.482 1181.42 444.434C1186.5 438.941 1191.93 433.104 1197.69 426.924C1203.6 420.607 1209.85 413.877 1216.44 406.736C1219.46 403.303 1221.86 401.586 1223.65 401.586C1224.61 401.586 1225.09 402.273 1225.09 403.646C1225.09 404.47 1224.89 405.569 1224.47 406.942C1219.8 422.598 1217.47 433.585 1217.47 439.902C1217.47 447.318 1220.01 451.026 1225.09 451.026C1230.04 451.026 1235.6 448.554 1241.78 443.61C1242.88 442.649 1244.52 441.069 1246.72 438.872C1249.06 436.675 1251.87 433.859 1255.17 430.426C1256.13 429.465 1256.95 428.984 1257.64 428.984C1258.19 428.984 1258.6 429.396 1258.88 430.22C1259.15 431.044 1258.94 431.799 1258.26 432.486C1244.25 447.867 1231.89 455.558 1221.18 455.558C1211.56 455.558 1206.76 448.073 1206.76 433.104C1206.76 429.808 1206.96 426.169 1207.38 422.186C1205.59 423.834 1203.39 425.894 1200.78 428.366C1198.31 430.838 1195.29 433.722 1191.72 437.018C1189.93 438.666 1188.22 440.314 1186.57 441.962C1185.06 443.61 1183.62 445.327 1182.24 447.112C1181.15 448.485 1180.05 449.859 1178.95 451.232C1177.99 452.605 1176.96 453.979 1175.86 455.352Z" fill="#FFF0D4"/>
<path d="M1332.17 409.208C1331.48 409.895 1330.93 410.238 1330.52 410.238C1329.7 410.238 1329.28 409.826 1329.28 409.002C1329.28 408.727 1329.49 408.247 1329.9 407.56C1332.1 404.951 1333.2 402.616 1333.2 400.556C1333.2 396.161 1328.39 393.964 1318.78 393.964C1306.42 393.964 1293.72 400.075 1280.67 412.298C1269.13 423.422 1263.36 432.623 1263.36 439.902C1263.36 442.786 1264.81 444.228 1267.69 444.228C1269.48 444.228 1272.02 443.473 1275.31 441.962C1283.28 438.529 1289.94 433.516 1295.29 426.924C1297.35 424.177 1299.21 419.92 1300.86 414.152C1301.96 409.757 1302.64 405.775 1302.92 402.204C1303.47 399.595 1306.01 398.29 1310.54 398.29C1314.8 398.29 1316.79 399.457 1316.51 401.792C1316.24 405.363 1315.28 411.268 1313.63 419.508C1311.98 427.611 1309.58 438.048 1306.42 450.82C1311.77 449.996 1316.31 449.859 1320.01 450.408C1330.31 451.644 1335.46 455.077 1335.46 460.708C1335.46 464.141 1333.4 467.781 1329.28 471.626C1328.74 472.175 1328.19 472.45 1327.64 472.45C1326.81 472.45 1326.4 472.107 1326.4 471.42C1326.4 470.871 1326.68 470.321 1327.22 469.772C1330.11 467.163 1331.55 464.691 1331.55 462.356C1331.55 457.824 1327.02 455.558 1317.95 455.558C1316.44 455.695 1314.59 455.901 1312.39 456.176C1310.2 456.313 1307.65 456.588 1304.77 457C1296.67 487.763 1283.28 512.483 1264.6 531.16C1254.3 541.735 1242.56 550.181 1229.37 556.498C1215.09 563.639 1201.15 567.21 1187.56 567.21C1177.26 567.21 1169.09 564.601 1163.04 559.382C1157 554.301 1153.98 547.64 1153.98 539.4C1153.98 529.787 1158.79 519.967 1168.4 509.942C1178.97 498.818 1194.42 488.724 1214.75 479.66C1234.94 470.596 1261.24 461.944 1293.65 453.704C1294.2 451.095 1294.88 447.73 1295.71 443.61C1296.67 439.353 1297.77 434.203 1299 428.16L1294.06 433.104C1290.63 436.537 1287.67 439.421 1285.2 441.756C1282.73 443.953 1280.74 445.67 1279.23 446.906C1272.77 451.987 1267 454.528 1261.92 454.528C1255.88 454.528 1252.86 450.545 1252.86 442.58C1252.86 431.044 1261.37 418.684 1278.4 405.5C1292.27 394.651 1306.28 389.226 1320.43 389.226C1331.41 389.226 1336.91 392.385 1336.91 398.702C1336.91 401.723 1335.33 405.225 1332.17 409.208ZM1292.41 459.472C1277.58 463.592 1266.25 466.888 1258.42 469.36C1250.18 471.969 1242.56 474.51 1235.55 476.982C1228.55 479.591 1222.1 482.269 1216.19 485.016C1207.81 488.861 1200.4 492.981 1193.94 497.376C1187.49 501.908 1182.06 506.783 1177.67 512.002C1169.98 521.203 1166.13 530.061 1166.13 538.576C1166.13 545.58 1168.74 551.005 1173.96 554.85C1179.18 558.833 1186.11 560.824 1194.77 560.824C1213.31 560.824 1231.43 552.996 1249.15 537.34C1270.16 518.663 1284.58 492.707 1292.41 459.472Z" fill="#FFF0D4"/>
</svg>
