<svg width="28" height="28" viewBox="0 0 28 28" fill="none" xmlns="http://www.w3.org/2000/svg">
<path d="M3.49967 5.83366L12.5671 12.8861C13.4097 13.5415 14.5896 13.5415 15.4322 12.8861L24.4997 5.83366M6.06634 23.3337H21.933C23.2398 23.3337 23.8932 23.3337 24.3923 23.0793C24.8314 22.8556 25.1883 22.4987 25.412 22.0596C25.6663 21.5605 25.6663 20.9071 25.6663 19.6003V8.40033C25.6663 7.09354 25.6663 6.44014 25.412 5.94101C25.1883 5.50197 24.8314 5.14501 24.3923 4.92131C23.8932 4.66699 23.2398 4.66699 21.933 4.66699H6.06634C4.75955 4.66699 4.10616 4.66699 3.60703 4.92131C3.16799 5.14501 2.81103 5.50197 2.58733 5.94101C2.33301 6.44014 2.33301 7.09354 2.33301 8.40033V19.6003C2.33301 20.9071 2.33301 21.5605 2.58733 22.0596C2.81103 22.4987 3.16799 22.8556 3.60703 23.0793C4.10616 23.3337 4.75955 23.3337 6.06634 23.3337Z" stroke="#1A1C1D" stroke-width="1.5"/>
</svg>
