<svg width="298" height="52" viewBox="0 0 298 52" fill="none" xmlns="http://www.w3.org/2000/svg">
<path d="M11.2221 21H8.22207V20.76C8.46207 20.76 8.66207 20.68 8.82207 20.52C9.00207 20.34 9.09207 20.13 9.09207 19.89V13.02C9.09207 12.84 9.02207 12.69 8.88207 12.57C8.76207 12.45 8.61207 12.39 8.43207 12.39H3.48207C3.30207 12.39 3.15207 12.45 3.03207 12.57C2.91207 12.69 2.85207 12.84 2.85207 13.02V19.95C2.85207 20.43 3.12207 20.7 3.66207 20.76V21H0.63207V20.76C0.87207 20.76 1.07207 20.68 1.23207 20.52C1.41207 20.34 1.50207 20.13 1.50207 19.89V2.01C1.50207 1.77 1.41207 1.57 1.23207 1.41C1.07207 1.23 0.87207 1.14 0.63207 1.14V0.899999H3.66207V1.14C3.12207 1.24 2.85207 1.53 2.85207 2.01V11.49C2.85207 11.67 2.91207 11.83 3.03207 11.97C3.15207 12.09 3.30207 12.15 3.48207 12.15H8.43207C8.61207 12.15 8.76207 12.09 8.88207 11.97C9.02207 11.83 9.09207 11.67 9.09207 11.49V2.01C9.09207 1.77 9.00207 1.57 8.82207 1.41C8.66207 1.23 8.46207 1.14 8.22207 1.14V0.899999H11.2221V1.14C10.9821 1.16 10.7821 1.25 10.6221 1.41C10.4821 1.57 10.4121 1.77 10.4121 2.01V19.95C10.4121 20.19 10.4921 20.39 10.6521 20.55C10.8321 20.69 11.0221 20.76 11.2221 20.76V21ZM31.7936 21H29.2436V20.76C29.3836 20.76 29.4836 20.72 29.5436 20.64C29.6036 20.54 29.6336 20.45 29.6336 20.37L27.7436 14.85C27.6836 14.71 27.5936 14.64 27.4736 14.64C27.3536 14.64 27.2636 14.7 27.2036 14.82C26.6636 15.78 25.8436 16.26 24.7436 16.26C23.8436 16.26 23.1336 15.91 22.6136 15.21C22.2336 14.71 22.0336 14.14 22.0136 13.5C21.9936 12.84 21.7836 12.29 21.3836 11.85C20.9836 11.39 20.4736 11.11 19.8536 11.01H19.7936C19.6536 11.01 19.5436 11.09 19.4636 11.25C17.4836 16.95 16.4936 19.85 16.4936 19.95C16.4936 20.13 16.5536 20.31 16.6736 20.49C16.8136 20.67 17.0136 20.76 17.2736 20.76V21H14.7236V20.76C15.4236 20.76 15.9436 20.39 16.2836 19.65C19.8636 9.41 21.6536 4.24 21.6536 4.14C21.6536 3.98 21.5936 3.82 21.4736 3.66C21.3736 3.5 21.1936 3.42 20.9336 3.42L21.8336 0.899999H24.8036V1.14H24.4136L30.9836 20.19C31.0436 20.35 31.1436 20.49 31.2836 20.61C31.4436 20.71 31.6136 20.76 31.7936 20.76V21ZM24.7436 16.05C25.4236 16.05 26.0036 15.83 26.4836 15.39C26.9636 14.93 27.2336 14.36 27.2936 13.68C27.2936 13.58 26.6136 11.56 25.2536 7.62C23.8936 3.66 23.1936 1.67 23.1536 1.65C23.1136 1.63 23.0736 1.62 23.0336 1.62C22.9936 1.62 22.9436 1.63 22.8836 1.65C22.8436 1.67 22.3136 3.14 21.2936 6.06C20.2736 8.96 19.7636 10.44 19.7636 10.5C19.7636 10.66 19.8536 10.76 20.0336 10.8C20.6736 10.94 21.1936 11.26 21.5936 11.76C22.0136 12.26 22.2236 12.87 22.2236 13.59C22.2236 14.29 22.4636 14.88 22.9436 15.36C23.4436 15.82 24.0436 16.05 24.7436 16.05ZM52.3237 21H49.2937V20.76C49.6937 20.76 50.0037 20.63 50.2237 20.37C50.4437 20.11 50.5537 19.83 50.5537 19.53L50.5237 19.32C50.0637 16.9 48.9437 14.92 47.1637 13.38C45.4037 11.82 43.3037 11.04 40.8637 11.04H38.9137C38.5337 11.04 38.2037 11.18 37.9237 11.46C37.6637 11.72 37.5337 12.05 37.5337 12.45V19.95C37.5337 20.19 37.6037 20.39 37.7437 20.55C37.9037 20.69 38.1037 20.76 38.3437 20.76V21H35.3137V20.76C35.5537 20.76 35.7537 20.68 35.9137 20.52C36.0937 20.34 36.1837 20.13 36.1837 19.89V1.98C36.1837 1.74 36.0937 1.54 35.9137 1.38C35.7537 1.2 35.5537 1.11 35.3137 1.11V0.87H38.3437V1.11C38.1037 1.13 37.9037 1.22 37.7437 1.38C37.6037 1.54 37.5337 1.74 37.5337 1.98V9.42C37.5337 9.8 37.6637 10.13 37.9237 10.41C38.2037 10.69 38.5337 10.83 38.9137 10.83H41.6737C42.3737 10.83 42.9637 10.58 43.4437 10.08C43.9237 9.58 44.1637 8.99 44.1637 8.31V3.12C44.1637 2.36 44.4337 1.72 44.9737 1.2C45.5137 0.659999 46.1537 0.389999 46.8937 0.389999H48.1837C49.2437 0.389999 50.0537 0.879999 50.6137 1.86C51.0337 2.54 51.6037 2.88 52.3237 2.88V3.12H49.2937V2.88C49.6937 2.88 49.9737 2.7 50.1337 2.34C50.1937 2.22 50.2237 2.1 50.2237 1.98C50.2237 1.76 50.1337 1.55 49.9537 1.35C49.4737 0.85 48.8837 0.6 48.1837 0.6C47.8437 0.6 47.6337 0.62 47.5537 0.659999C46.3137 1.12 45.6937 1.94 45.6937 3.12V8.31C45.6937 9.05 45.4337 9.68 44.9137 10.2C44.4137 10.72 43.7837 11 43.0237 11.04C45.0837 11.52 46.8037 12.53 48.1837 14.07C49.5837 15.59 50.4537 17.39 50.7937 19.47C50.8537 19.85 51.0237 20.16 51.3037 20.4C51.6037 20.64 51.9437 20.76 52.3237 20.76V21ZM66.7232 21.57C65.3632 21.57 64.0332 21.31 62.7332 20.79C61.4332 20.27 60.2632 19.49 59.2232 18.45C57.1432 16.29 56.1032 13.79 56.1032 10.95C56.1032 10.05 56.2732 8.94 56.6132 7.62C56.9732 6.28 57.8432 4.9 59.2232 3.48C60.2632 2.44 61.4332 1.66 62.7332 1.14C64.0332 0.619999 65.3632 0.359999 66.7232 0.359999C68.0832 0.359999 69.4032 0.619999 70.6832 1.14C71.9832 1.66 73.1532 2.44 74.1932 3.48C76.2732 5.6 77.3132 8.09 77.3132 10.95C77.3132 11.85 77.1332 12.97 76.7732 14.31C76.4332 15.65 75.5732 17.03 74.1932 18.45C73.1532 19.49 71.9832 20.27 70.6832 20.79C69.4032 21.31 68.0832 21.57 66.7232 21.57ZM68.0432 20.67C69.1632 20.67 70.2332 20.47 71.2532 20.07C72.2932 19.67 73.2132 19.07 74.0132 18.27C75.6132 16.57 76.4132 14.56 76.4132 12.24C76.4132 12.04 76.3632 11.24 76.2632 9.84C76.1632 8.44 75.1032 6.69 73.0832 4.59C71.9632 3.49 70.7332 2.66 69.3932 2.1C68.0732 1.54 66.7432 1.26 65.4032 1.26C64.2832 1.26 63.2032 1.46 62.1632 1.86C61.1432 2.26 60.2232 2.86 59.4032 3.66C57.8032 5.34 57.0032 7.32 57.0032 9.6C57.0032 9.84 57.0432 10.66 57.1232 12.06C57.2232 13.46 58.2932 15.22 60.3332 17.34C61.4532 18.44 62.6832 19.27 64.0232 19.83C65.3632 20.39 66.7032 20.67 68.0432 20.67ZM84.4155 21H81.3855V20.76C81.6255 20.76 81.8255 20.68 81.9855 20.52C82.1655 20.34 82.2555 20.13 82.2555 19.89V2.01C82.2555 1.77 82.1655 1.57 81.9855 1.41C81.8255 1.23 81.6255 1.14 81.3855 1.14V0.899999H90.5055C92.0855 0.899999 93.4255 1.44 94.5255 2.52C95.6255 3.6 96.2055 4.95 96.2655 6.57C96.2455 8.21 95.6655 9.6 94.5255 10.74C93.3855 11.86 92.0055 12.42 90.3855 12.42H88.5255C86.5855 12.42 85.0355 13.28 83.8755 15C83.6955 15.3 83.6055 15.63 83.6055 15.99V19.95C83.6055 20.43 83.8755 20.7 84.4155 20.76V21ZM84.0855 14.07C84.2055 14.07 84.3255 14.02 84.4455 13.92C85.5855 12.76 86.9455 12.18 88.5255 12.18H90.5055C90.9255 12.18 91.3755 12.12 91.8555 12C92.7355 11.6 93.4455 10.92 93.9855 9.96C94.5255 9 94.7955 7.9 94.7955 6.66C94.7955 5.4 94.5155 4.29 93.9555 3.33C93.4155 2.35 92.7055 1.67 91.8255 1.29C91.4255 1.19 90.9855 1.14 90.5055 1.14H84.4155C83.8755 1.24 83.6055 1.53 83.6055 2.01V13.56C83.6055 13.7 83.6555 13.82 83.7555 13.92C83.8555 14.02 83.9655 14.07 84.0855 14.07ZM121.292 21H119.312V20.76C119.512 20.76 119.612 20.64 119.612 20.4L114.692 2.07C114.672 1.93 114.592 1.86 114.452 1.86C114.292 1.86 114.202 1.93 114.182 2.07L111.152 13.08C111.132 13.22 111.122 13.37 111.122 13.53L111.152 13.98L112.862 20.31C112.942 20.61 113.142 20.76 113.462 20.76V21H111.452V20.76C111.672 20.76 111.782 20.64 111.782 20.4L106.862 2.07C106.802 1.93 106.722 1.86 106.622 1.86C106.502 1.86 106.412 1.93 106.352 2.07C103.072 14.03 101.432 20.04 101.432 20.1C101.432 20.24 101.492 20.39 101.612 20.55C101.732 20.69 101.902 20.76 102.122 20.76V21H100.112V20.76C100.392 20.76 100.632 20.68 100.832 20.52C101.052 20.36 101.202 20.15 101.282 19.89L105.602 4.05C105.602 3.91 105.552 3.77 105.452 3.63C105.352 3.49 105.192 3.42 104.972 3.42L105.662 0.899999H108.002V1.14H107.702L110.732 12.33C110.772 12.45 110.852 12.51 110.972 12.51C111.092 12.51 111.162 12.45 111.182 12.33C112.682 6.83 113.432 4.06 113.432 4.02C113.432 3.88 113.382 3.75 113.282 3.63C113.182 3.49 113.022 3.42 112.802 3.42L113.522 0.899999H115.832V1.14H115.532L120.692 20.31C120.832 20.61 121.032 20.76 121.292 20.76V21ZM135.424 21H132.394V20.76C132.774 20.76 133.094 20.63 133.354 20.37C133.634 20.09 133.774 19.76 133.774 19.38V2.73C133.774 2.61 133.724 2.55 133.624 2.55C133.604 2.55 133.574 2.56 133.534 2.58C133.494 2.58 131.514 8.72 127.594 21H124.804V20.76C125.204 20.76 125.534 20.63 125.794 20.37C126.074 20.09 126.214 19.76 126.214 19.38V2.52C126.214 2.14 126.074 1.82 125.794 1.56C125.534 1.28 125.204 1.14 124.804 1.14V0.899999H127.834V1.14C127.454 1.14 127.124 1.28 126.844 1.56C126.564 1.82 126.424 2.14 126.424 2.52V19.17C126.424 19.23 126.444 19.27 126.484 19.29C126.524 19.31 126.564 19.32 126.604 19.32C126.704 19.32 126.764 19.29 126.784 19.23L132.604 0.899999H135.424V1.14C135.044 1.14 134.714 1.28 134.434 1.56C134.154 1.82 134.014 2.14 134.014 2.52V19.38C134.014 19.76 134.154 20.09 134.434 20.37C134.714 20.63 135.044 20.76 135.424 20.76V21ZM145.735 21H142.705V20.76C142.945 20.76 143.145 20.68 143.305 20.52C143.485 20.34 143.575 20.13 143.575 19.89V2.01C143.575 1.49 143.285 1.2 142.705 1.14H140.005C139.765 1.14 139.565 1.22 139.405 1.38C139.245 1.54 139.165 1.74 139.165 1.98H138.925V0.899999H149.515V1.98H149.275C149.275 1.74 149.195 1.54 149.035 1.38C148.875 1.22 148.675 1.14 148.435 1.14H145.735C145.495 1.16 145.295 1.25 145.135 1.41C144.995 1.57 144.925 1.77 144.925 2.01V19.95C144.925 20.19 144.995 20.39 145.135 20.55C145.295 20.69 145.495 20.76 145.735 20.76V21ZM178.841 21H163.511V20.76C163.751 20.76 163.951 20.68 164.111 20.52C164.291 20.34 164.381 20.13 164.381 19.89V2.01C164.381 1.77 164.291 1.57 164.111 1.41C163.951 1.23 163.751 1.14 163.511 1.14V0.899999H173.891C175.471 0.899999 176.821 1.46 177.941 2.58C179.061 3.7 179.621 5.05 179.621 6.63C179.621 7.37 179.481 8.09 179.201 8.79C179.161 8.87 179.141 8.95 179.141 9.03C179.141 9.35 179.311 9.54 179.651 9.6C180.931 9.8 182.031 10.37 182.951 11.31C184.051 12.45 184.601 13.77 184.601 15.27V15.36C184.521 16.96 183.931 18.3 182.831 19.38C181.731 20.46 180.401 21 178.841 21ZM178.841 20.76C179.561 20.76 180.111 20.65 180.491 20.43C182.211 19.29 183.071 17.57 183.071 15.27C183.071 12.99 182.251 11.29 180.611 10.17C180.431 10.05 180.201 9.96 179.921 9.9C179.661 9.82 179.391 9.78 179.111 9.78C178.831 9.78 178.601 9.9 178.421 10.14C177.241 11.62 175.731 12.36 173.891 12.36H171.221C169.701 12.36 168.401 12.9 167.321 13.98C166.241 15.04 165.701 16.34 165.701 17.88V19.95C165.701 20.17 165.781 20.36 165.941 20.52C166.121 20.68 166.321 20.76 166.541 20.76H178.841ZM166.091 15.03C166.191 15.03 166.271 14.98 166.331 14.88C167.531 13.06 169.161 12.15 171.221 12.15H173.891C174.871 12.15 175.671 11.87 176.291 11.31C176.911 10.75 177.371 10.05 177.671 9.21C177.991 8.35 178.151 7.49 178.151 6.63C178.151 4.37 177.331 2.68 175.691 1.56C175.271 1.3 174.891 1.17 174.551 1.17C174.331 1.13 174.111 1.11 173.891 1.11L166.541 1.14C166.321 1.14 166.121 1.22 165.941 1.38C165.781 1.54 165.701 1.73 165.701 1.95V14.7C165.701 14.92 165.831 15.03 166.091 15.03ZM198.927 21.54L198.237 21.51C195.657 21.23 193.487 20.21 191.727 18.45C189.967 16.69 188.947 14.52 188.667 11.94L188.637 11.25C188.637 8.15 189.667 5.57 191.727 3.51C193.707 1.53 196.157 0.489999 199.077 0.389999H199.317V2.22H199.077C199.077 1.96 198.987 1.74 198.807 1.56C198.647 1.38 198.437 1.28 198.177 1.26H197.877C195.577 1.26 193.587 2.06 191.907 3.66C190.307 5.26 189.507 7.26 189.507 9.66L189.537 10.29C189.797 13.03 190.897 15.38 192.837 17.34C194.797 19.28 197.147 20.38 199.887 20.64L200.487 20.67C202.787 20.67 204.747 19.92 206.367 18.42L206.667 18.12C208.167 16.6 208.917 14.71 208.917 12.45V11.91C208.917 11.65 208.817 11.43 208.617 11.25C208.417 11.07 208.187 10.98 207.927 10.98V10.74H209.787C209.787 13.84 208.747 16.42 206.667 18.48C204.607 20.52 202.027 21.54 198.927 21.54ZM224.779 21H214.159V20.76C214.399 20.76 214.599 20.68 214.759 20.52C214.939 20.34 215.029 20.13 215.029 19.89V2.01C215.029 1.77 214.939 1.57 214.759 1.41C214.599 1.23 214.399 1.14 214.159 1.14V0.899999H224.779V1.95H224.539C224.539 1.73 224.459 1.54 224.299 1.38C224.139 1.22 223.949 1.14 223.729 1.14H217.249C216.989 1.14 216.779 1.23 216.619 1.41C216.459 1.57 216.379 1.77 216.379 2.01V10.95C216.379 11.27 216.489 11.55 216.709 11.79C216.929 12.01 217.199 12.12 217.519 12.12H220.669C221.009 12.12 221.289 12.01 221.509 11.79C221.729 11.55 221.839 11.27 221.839 10.95H222.079V13.5H221.839C221.839 13.18 221.729 12.91 221.509 12.69C221.289 12.45 221.009 12.33 220.669 12.33H217.519C217.199 12.33 216.929 12.45 216.709 12.69C216.489 12.91 216.379 13.18 216.379 13.5V19.89C216.379 20.13 216.459 20.34 216.619 20.52C216.779 20.68 216.989 20.76 217.249 20.76H223.729C223.949 20.76 224.139 20.68 224.299 20.52C224.459 20.36 224.539 20.16 224.539 19.92H224.779V21ZM238.607 21H236.057V20.76C236.197 20.76 236.297 20.72 236.357 20.64C236.417 20.54 236.447 20.45 236.447 20.37L233.297 11.1C233.237 11 233.157 10.95 233.057 10.95C232.957 10.95 232.877 11 232.817 11.1C230.777 16.94 229.757 19.89 229.757 19.95C229.757 20.17 229.837 20.36 229.997 20.52C230.157 20.68 230.347 20.76 230.567 20.76V21H228.017V20.76C228.717 20.76 229.237 20.39 229.577 19.65L232.817 10.41L232.877 10.08L232.817 9.75L230.057 1.8C229.877 1.36 229.547 1.14 229.067 1.14V0.899999H231.647V1.14H231.257L233.447 7.53C233.487 7.61 233.557 7.65 233.657 7.65C233.737 7.65 233.797 7.61 233.837 7.53C235.117 3.85 235.757 1.96 235.757 1.86C235.757 1.7 235.697 1.54 235.577 1.38C235.477 1.22 235.297 1.14 235.037 1.14L235.127 0.899999H237.707V1.14H237.017C236.817 1.14 236.627 1.2 236.447 1.32C236.267 1.44 236.147 1.6 236.087 1.8L233.867 8.1C233.847 8.2 233.837 8.31 233.837 8.43L233.867 8.76L237.797 20.19C237.857 20.37 237.957 20.51 238.097 20.61C238.257 20.71 238.427 20.76 238.607 20.76V21Z" fill="#FF6624"/>
<path d="M261.453 20.76C261.933 20.76 262.373 20.71 262.773 20.61C263.653 20.23 264.363 19.56 264.903 18.6C265.463 17.62 265.743 16.5 265.743 15.24C265.743 14 265.473 12.9 264.933 11.94C264.393 10.98 263.683 10.3 262.803 9.9C262.523 9.82 262.283 9.77 262.083 9.75C261.903 9.73 261.023 9.72 259.443 9.72C257.883 9.72 256.533 9.14 255.393 7.98C255.273 7.88 255.153 7.83 255.033 7.83C254.913 7.83 254.803 7.88 254.703 7.98C254.603 8.06 254.553 8.18 254.553 8.34V19.89C254.553 20.37 254.823 20.66 255.363 20.76H261.453ZM254.553 2.01V5.91C254.553 6.27 254.643 6.6 254.823 6.9C255.983 8.62 257.533 9.48 259.473 9.48H261.333C262.953 9.48 264.333 10.05 265.473 11.19C266.613 12.31 267.193 13.69 267.213 15.33C267.153 16.95 266.573 18.3 265.473 19.38C264.373 20.46 263.033 21 261.453 21H252.333V20.76C252.573 20.76 252.773 20.68 252.933 20.52C253.113 20.34 253.203 20.13 253.203 19.89V2.01C253.203 1.77 253.113 1.56 252.933 1.38C252.773 1.22 252.573 1.14 252.333 1.14V0.899999H264.813V1.95H264.573C264.573 1.73 264.493 1.54 264.333 1.38C264.173 1.22 263.973 1.14 263.733 1.14H255.423C255.163 1.14 254.953 1.23 254.793 1.41C254.633 1.57 254.553 1.77 254.553 2.01ZM282.19 21H271.57V20.76C271.81 20.76 272.01 20.68 272.17 20.52C272.35 20.34 272.44 20.13 272.44 19.89V2.01C272.44 1.77 272.35 1.57 272.17 1.41C272.01 1.23 271.81 1.14 271.57 1.14V0.899999H282.19V1.95H281.95C281.95 1.73 281.87 1.54 281.71 1.38C281.55 1.22 281.36 1.14 281.14 1.14H274.66C274.4 1.14 274.19 1.23 274.03 1.41C273.87 1.57 273.79 1.77 273.79 2.01V10.95C273.79 11.27 273.9 11.55 274.12 11.79C274.34 12.01 274.61 12.12 274.93 12.12H278.08C278.42 12.12 278.7 12.01 278.92 11.79C279.14 11.55 279.25 11.27 279.25 10.95H279.49V13.5H279.25C279.25 13.18 279.14 12.91 278.92 12.69C278.7 12.45 278.42 12.33 278.08 12.33H274.93C274.61 12.33 274.34 12.45 274.12 12.69C273.9 12.91 273.79 13.18 273.79 13.5V19.89C273.79 20.13 273.87 20.34 274.03 20.52C274.19 20.68 274.4 20.76 274.66 20.76H281.14C281.36 20.76 281.55 20.68 281.71 20.52C281.87 20.36 281.95 20.16 281.95 19.92H282.19V21ZM291.637 21.54C290.197 21.54 288.867 20.99 287.647 19.89L286.117 18.09L286.867 17.34L287.047 17.49C286.887 17.67 286.807 17.87 286.807 18.09C286.807 18.31 286.887 18.51 287.047 18.69L287.827 19.74C288.547 20.44 289.387 20.79 290.347 20.79C291.907 20.79 293.297 20.17 294.517 18.93C295.737 17.69 296.397 16.27 296.497 14.67C296.497 13.67 296.147 12.82 295.447 12.12L294.877 11.55C294.777 11.45 294.667 11.4 294.547 11.4C294.487 11.4 294.417 11.42 294.337 11.46C293.497 11.92 292.597 12.15 291.637 12.15H289.327C289.007 12.15 288.737 12.26 288.517 12.48C288.317 12.7 288.217 12.98 288.217 13.32H287.977V10.83H288.217C288.217 11.13 288.317 11.39 288.517 11.61C288.737 11.83 289.007 11.94 289.327 11.94H291.637C292.577 11.94 293.357 11.66 293.977 11.1C294.597 10.54 295.057 9.85 295.357 9.03C295.657 8.19 295.807 7.36 295.807 6.54C295.807 5.72 295.657 4.9 295.357 4.08C295.057 3.24 294.597 2.54 293.977 1.98C293.357 1.42 292.577 1.14 291.637 1.14H286.807C286.587 1.14 286.387 1.23 286.207 1.41C286.047 1.57 285.967 1.76 285.967 1.98H285.727V0.929999H291.487C293.027 0.929999 294.347 1.45 295.447 2.49C296.567 3.53 297.167 4.84 297.247 6.42C297.227 8.24 296.557 9.71 295.237 10.83C295.117 10.95 295.057 11.08 295.057 11.22C295.057 11.32 295.107 11.43 295.207 11.55C295.307 11.65 295.407 11.76 295.507 11.88C296.587 12.94 297.167 14.22 297.247 15.72V15.87C297.247 17.43 296.697 18.77 295.597 19.89C294.497 20.99 293.177 21.54 291.637 21.54ZM61.3224 31.14L66.4824 50.31C66.6224 50.61 66.8224 50.76 67.0824 50.76V51H65.1024V50.76C65.2024 50.76 65.2824 50.72 65.3424 50.64C65.4024 50.54 65.4224 50.44 65.4024 50.34L60.4824 32.07C60.4224 31.93 60.3324 31.86 60.2124 31.86C60.1124 31.86 60.0324 31.93 59.9724 32.07L58.5624 37.23L55.0824 49.92C55.0224 50.14 55.0624 50.34 55.2024 50.52C55.3424 50.68 55.5224 50.76 55.7424 50.76V51H53.7324V50.76C54.0124 50.76 54.2524 50.68 54.4524 50.52C54.6724 50.36 54.8224 50.15 54.9024 49.89L59.1924 34.2C59.2524 34 59.2224 33.82 59.1024 33.66C58.9824 33.5 58.8124 33.42 58.5924 33.42L59.2824 30.9H61.6224V31.14H61.3224ZM81.6027 51H78.5727V50.76C78.9527 50.76 79.2727 50.63 79.5327 50.37C79.8127 50.09 79.9527 49.76 79.9527 49.38V32.73C79.9527 32.61 79.9027 32.55 79.8027 32.55C79.7827 32.55 79.7527 32.56 79.7127 32.58C79.6727 32.58 77.6927 38.72 73.7727 51H70.9827V50.76C71.3827 50.76 71.7127 50.63 71.9727 50.37C72.2527 50.09 72.3927 49.76 72.3927 49.38V32.52C72.3927 32.14 72.2527 31.82 71.9727 31.56C71.7127 31.28 71.3827 31.14 70.9827 31.14V30.9H74.0127V31.14C73.6327 31.14 73.3027 31.28 73.0227 31.56C72.7427 31.82 72.6027 32.14 72.6027 32.52V49.17C72.6027 49.23 72.6227 49.27 72.6627 49.29C72.7027 49.31 72.7427 49.32 72.7827 49.32C72.8827 49.32 72.9427 49.29 72.9627 49.23L78.7827 30.9H81.6027V31.14C81.2227 31.14 80.8927 31.28 80.6127 31.56C80.3327 31.82 80.1927 32.14 80.1927 32.52V49.38C80.1927 49.76 80.3327 50.09 80.6127 50.37C80.8927 50.63 81.2227 50.76 81.6027 50.76V51ZM97.0135 50.76C97.2135 50.74 97.3835 50.66 97.5235 50.52L97.5535 50.49C97.7135 50.33 97.7935 50.13 97.7935 49.89V32.01C97.7935 31.77 97.7035 31.57 97.5235 31.41C97.3635 31.23 97.1635 31.14 96.9235 31.14V30.9H99.9535V31.14H100.014C99.7535 31.14 99.5435 31.23 99.3835 31.41C99.2235 31.57 99.1435 31.77 99.1435 32.01V49.89C99.1435 50.13 99.2335 50.34 99.4135 50.52C99.5935 50.68 99.7935 50.76 100.014 50.76H99.9535V51H85.5835V50.76C85.8235 50.76 86.0335 50.67 86.2135 50.49C86.3335 50.37 86.4035 50.23 86.4235 50.07C86.4435 50.01 86.4535 49.95 86.4535 49.89V32.01C86.4535 31.77 86.3635 31.57 86.1835 31.41C86.0235 31.23 85.8235 31.14 85.5835 31.14V30.9H88.6135V31.14C88.3735 31.14 88.1835 31.22 88.0435 31.38C87.8835 31.52 87.8035 31.71 87.8035 31.95V49.95C87.8035 50.19 87.8835 50.38 88.0435 50.52C88.1835 50.68 88.3735 50.76 88.6135 50.76H91.2835C91.8035 50.76 92.0935 50.47 92.1535 49.89V32.01C92.1535 31.77 92.0635 31.57 91.8835 31.41C91.7235 31.23 91.5235 31.14 91.2835 31.14V30.9H94.3135V31.14C94.0735 31.14 93.8835 31.22 93.7435 31.38C93.5835 31.52 93.5035 31.71 93.5035 31.95V49.89C93.5035 50.25 93.6635 50.5 93.9835 50.64C94.2835 50.8 95.2935 50.84 97.0135 50.76ZM114.848 51H111.848V50.76C112.088 50.76 112.288 50.68 112.448 50.52C112.628 50.34 112.718 50.13 112.718 49.89V43.02C112.718 42.84 112.648 42.69 112.508 42.57C112.388 42.45 112.238 42.39 112.058 42.39H107.108C106.928 42.39 106.778 42.45 106.658 42.57C106.538 42.69 106.478 42.84 106.478 43.02V49.95C106.478 50.43 106.748 50.7 107.288 50.76V51H104.258V50.76C104.498 50.76 104.698 50.68 104.858 50.52C105.038 50.34 105.128 50.13 105.128 49.89V32.01C105.128 31.77 105.038 31.57 104.858 31.41C104.698 31.23 104.498 31.14 104.258 31.14V30.9H107.288V31.14C106.748 31.24 106.478 31.53 106.478 32.01V41.49C106.478 41.67 106.538 41.83 106.658 41.97C106.778 42.09 106.928 42.15 107.108 42.15H112.058C112.238 42.15 112.388 42.09 112.508 41.97C112.648 41.83 112.718 41.67 112.718 41.49V32.01C112.718 31.77 112.628 31.57 112.448 31.41C112.288 31.23 112.088 31.14 111.848 31.14V30.9H114.848V31.14C114.608 31.16 114.408 31.25 114.248 31.41C114.108 31.57 114.038 31.77 114.038 32.01V49.95C114.038 50.19 114.118 50.39 114.278 50.55C114.458 50.69 114.648 50.76 114.848 50.76V51ZM129.48 51H126.45V50.76C126.83 50.76 127.15 50.63 127.41 50.37C127.69 50.09 127.83 49.76 127.83 49.38V32.73C127.83 32.61 127.78 32.55 127.68 32.55C127.66 32.55 127.63 32.56 127.59 32.58C127.55 32.58 125.57 38.72 121.65 51H118.86V50.76C119.26 50.76 119.59 50.63 119.85 50.37C120.13 50.09 120.27 49.76 120.27 49.38V32.52C120.27 32.14 120.13 31.82 119.85 31.56C119.59 31.28 119.26 31.14 118.86 31.14V30.9H121.89V31.14C121.51 31.14 121.18 31.28 120.9 31.56C120.62 31.82 120.48 32.14 120.48 32.52V49.17C120.48 49.23 120.5 49.27 120.54 49.29C120.58 49.31 120.62 49.32 120.66 49.32C120.76 49.32 120.82 49.29 120.84 49.23L126.66 30.9H129.48V31.14C129.1 31.14 128.77 31.28 128.49 31.56C128.21 31.82 128.07 32.14 128.07 32.52V49.38C128.07 49.76 128.21 50.09 128.49 50.37C128.77 50.63 129.1 50.76 129.48 50.76V51ZM143.57 51H141.02V50.76C141.16 50.76 141.26 50.72 141.32 50.64C141.38 50.54 141.41 50.45 141.41 50.37L138.26 41.1C138.2 41 138.12 40.95 138.02 40.95C137.92 40.95 137.84 41 137.78 41.1C135.74 46.94 134.72 49.89 134.72 49.95C134.72 50.17 134.8 50.36 134.96 50.52C135.12 50.68 135.31 50.76 135.53 50.76V51H132.98V50.76C133.68 50.76 134.2 50.39 134.54 49.65L137.78 40.41L137.84 40.08L137.78 39.75L135.02 31.8C134.84 31.36 134.51 31.14 134.03 31.14V30.9H136.61V31.14H136.22L138.41 37.53C138.45 37.61 138.52 37.65 138.62 37.65C138.7 37.65 138.76 37.61 138.8 37.53C140.08 33.85 140.72 31.96 140.72 31.86C140.72 31.7 140.66 31.54 140.54 31.38C140.44 31.22 140.26 31.14 140 31.14L140.09 30.9H142.67V31.14H141.98C141.78 31.14 141.59 31.2 141.41 31.32C141.23 31.44 141.11 31.6 141.05 31.8L138.83 38.1C138.81 38.2 138.8 38.31 138.8 38.43L138.83 38.76L142.76 50.19C142.82 50.37 142.92 50.51 143.06 50.61C143.22 50.71 143.39 50.76 143.57 50.76V51ZM168.157 51.54L167.467 51.51C164.887 51.23 162.717 50.21 160.957 48.45C159.197 46.69 158.177 44.52 157.897 41.94L157.867 41.25C157.867 38.15 158.897 35.57 160.957 33.51C162.937 31.53 165.387 30.49 168.307 30.39H168.547V32.22H168.307C168.307 31.96 168.217 31.74 168.037 31.56C167.877 31.38 167.667 31.28 167.407 31.26H167.107C164.807 31.26 162.817 32.06 161.137 33.66C159.537 35.26 158.737 37.26 158.737 39.66L158.767 40.29C159.027 43.03 160.127 45.38 162.067 47.34C164.027 49.28 166.377 50.38 169.117 50.64L169.717 50.67C172.017 50.67 173.977 49.92 175.597 48.42L175.897 48.12C177.397 46.6 178.147 44.71 178.147 42.45V41.91C178.147 41.65 178.047 41.43 177.847 41.25C177.647 41.07 177.417 40.98 177.157 40.98V40.74H179.017C179.017 43.84 177.977 46.42 175.897 48.48C173.837 50.52 171.257 51.54 168.157 51.54ZM190.469 31.14L195.629 50.31C195.769 50.61 195.969 50.76 196.229 50.76V51H194.249V50.76C194.349 50.76 194.429 50.72 194.489 50.64C194.549 50.54 194.569 50.44 194.549 50.34L189.629 32.07C189.569 31.93 189.479 31.86 189.359 31.86C189.259 31.86 189.179 31.93 189.119 32.07L187.709 37.23L184.229 49.92C184.169 50.14 184.209 50.34 184.349 50.52C184.489 50.68 184.669 50.76 184.889 50.76V51H182.879V50.76C183.159 50.76 183.399 50.68 183.599 50.52C183.819 50.36 183.969 50.15 184.049 49.89L188.339 34.2C188.399 34 188.369 33.82 188.249 33.66C188.129 33.5 187.959 33.42 187.739 33.42L188.429 30.9H190.769V31.14H190.469ZM211.019 51.57C209.659 51.57 208.329 51.31 207.029 50.79C205.729 50.27 204.559 49.49 203.519 48.45C201.439 46.29 200.399 43.79 200.399 40.95C200.399 40.05 200.569 38.94 200.909 37.62C201.269 36.28 202.139 34.9 203.519 33.48C204.559 32.44 205.729 31.66 207.029 31.14C208.329 30.62 209.659 30.36 211.019 30.36C212.379 30.36 213.699 30.62 214.979 31.14C216.279 31.66 217.449 32.44 218.489 33.48C220.569 35.6 221.609 38.09 221.609 40.95C221.609 41.85 221.429 42.97 221.069 44.31C220.729 45.65 219.869 47.03 218.489 48.45C217.449 49.49 216.279 50.27 214.979 50.79C213.699 51.31 212.379 51.57 211.019 51.57ZM212.339 50.67C213.459 50.67 214.529 50.47 215.549 50.07C216.589 49.67 217.509 49.07 218.309 48.27C219.909 46.57 220.709 44.56 220.709 42.24C220.709 42.04 220.659 41.24 220.559 39.84C220.459 38.44 219.399 36.69 217.379 34.59C216.259 33.49 215.029 32.66 213.689 32.1C212.369 31.54 211.039 31.26 209.699 31.26C208.579 31.26 207.499 31.46 206.459 31.86C205.439 32.26 204.519 32.86 203.699 33.66C202.099 35.34 201.299 37.32 201.299 39.6C201.299 39.84 201.339 40.66 201.419 42.06C201.519 43.46 202.589 45.22 204.629 47.34C205.749 48.44 206.979 49.27 208.319 49.83C209.659 50.39 210.999 50.67 212.339 50.67ZM241.281 51H225.951V50.76C226.191 50.76 226.391 50.68 226.551 50.52C226.731 50.34 226.821 50.13 226.821 49.89V32.01C226.821 31.77 226.731 31.57 226.551 31.41C226.391 31.23 226.191 31.14 225.951 31.14V30.9H236.331C237.911 30.9 239.261 31.46 240.381 32.58C241.501 33.7 242.061 35.05 242.061 36.63C242.061 37.37 241.921 38.09 241.641 38.79C241.601 38.87 241.581 38.95 241.581 39.03C241.581 39.35 241.751 39.54 242.091 39.6C243.371 39.8 244.471 40.37 245.391 41.31C246.491 42.45 247.041 43.77 247.041 45.27V45.36C246.961 46.96 246.371 48.3 245.271 49.38C244.171 50.46 242.841 51 241.281 51ZM241.281 50.76C242.001 50.76 242.551 50.65 242.931 50.43C244.651 49.29 245.511 47.57 245.511 45.27C245.511 42.99 244.691 41.29 243.051 40.17C242.871 40.05 242.641 39.96 242.361 39.9C242.101 39.82 241.831 39.78 241.551 39.78C241.271 39.78 241.041 39.9 240.861 40.14C239.681 41.62 238.171 42.36 236.331 42.36H233.661C232.141 42.36 230.841 42.9 229.761 43.98C228.681 45.04 228.141 46.34 228.141 47.88V49.95C228.141 50.17 228.221 50.36 228.381 50.52C228.561 50.68 228.761 50.76 228.981 50.76H241.281ZM228.531 45.03C228.631 45.03 228.711 44.98 228.771 44.88C229.971 43.06 231.601 42.15 233.661 42.15H236.331C237.311 42.15 238.111 41.87 238.731 41.31C239.351 40.75 239.811 40.05 240.111 39.21C240.431 38.35 240.591 37.49 240.591 36.63C240.591 34.37 239.771 32.68 238.131 31.56C237.711 31.3 237.331 31.17 236.991 31.17C236.771 31.13 236.551 31.11 236.331 31.11L228.981 31.14C228.761 31.14 228.561 31.22 228.381 31.38C228.221 31.54 228.141 31.73 228.141 31.95V44.7C228.141 44.92 228.271 45.03 228.531 45.03Z" fill="white"/>
</svg>
