<svg width="539" height="191" viewBox="0 0 539 191" fill="none" xmlns="http://www.w3.org/2000/svg">
<path d="M209.349 49H202.349V48.44C202.909 48.44 203.376 48.2533 203.749 47.88C204.169 47.46 204.379 46.97 204.379 46.41V30.38C204.379 29.96 204.216 29.61 203.889 29.33C203.609 29.05 203.259 28.91 202.839 28.91H191.289C190.869 28.91 190.519 29.05 190.239 29.33C189.959 29.61 189.819 29.96 189.819 30.38V46.55C189.819 47.67 190.449 48.3 191.709 48.44V49H184.639V48.44C185.199 48.44 185.666 48.2533 186.039 47.88C186.459 47.46 186.669 46.97 186.669 46.41V4.69C186.669 4.13 186.459 3.66333 186.039 3.29C185.666 2.87 185.199 2.66 184.639 2.66V2.1H191.709V2.66C190.449 2.89333 189.819 3.57 189.819 4.69V26.81C189.819 27.23 189.959 27.6033 190.239 27.93C190.519 28.21 190.869 28.35 191.289 28.35H202.839C203.259 28.35 203.609 28.21 203.889 27.93C204.216 27.6033 204.379 27.23 204.379 26.81V4.69C204.379 4.13 204.169 3.66333 203.749 3.29C203.376 2.87 202.909 2.66 202.349 2.66V2.1H209.349V2.66C208.789 2.70666 208.323 2.91666 207.949 3.29C207.623 3.66333 207.459 4.13 207.459 4.69V46.55C207.459 47.11 207.646 47.5767 208.019 47.95C208.439 48.2767 208.883 48.44 209.349 48.44V49ZM257.35 49H251.4V48.44C251.726 48.44 251.96 48.3467 252.1 48.16C252.24 47.9267 252.31 47.7167 252.31 47.53L247.9 34.65C247.76 34.3233 247.55 34.16 247.27 34.16C246.99 34.16 246.78 34.3 246.64 34.58C245.38 36.82 243.466 37.94 240.9 37.94C238.8 37.94 237.143 37.1233 235.93 35.49C235.043 34.3233 234.576 32.9933 234.53 31.5C234.483 29.96 233.993 28.6767 233.06 27.65C232.126 26.5767 230.936 25.9233 229.49 25.69H229.35C229.023 25.69 228.766 25.8767 228.58 26.25C223.96 39.55 221.65 46.3167 221.65 46.55C221.65 46.97 221.79 47.39 222.07 47.81C222.396 48.23 222.863 48.44 223.47 48.44V49H217.52V48.44C219.153 48.44 220.366 47.5767 221.16 45.85C229.513 21.9567 233.69 9.89333 233.69 9.66C233.69 9.28666 233.55 8.91333 233.27 8.54C233.036 8.16667 232.616 7.98 232.01 7.98L234.11 2.1H241.04V2.66H240.13L255.46 47.11C255.6 47.4833 255.833 47.81 256.16 48.09C256.533 48.3233 256.93 48.44 257.35 48.44V49ZM240.9 37.45C242.486 37.45 243.84 36.9367 244.96 35.91C246.08 34.8367 246.71 33.5067 246.85 31.92C246.85 31.6867 245.263 26.9733 242.09 17.78C238.916 8.54 237.283 3.89666 237.19 3.85C237.096 3.80333 237.003 3.78 236.91 3.78C236.816 3.78 236.7 3.80333 236.56 3.85C236.466 3.89666 235.23 7.32666 232.85 14.14C230.47 20.9067 229.28 24.36 229.28 24.5C229.28 24.8733 229.49 25.1067 229.91 25.2C231.403 25.5267 232.616 26.2733 233.55 27.44C234.53 28.6067 235.02 30.03 235.02 31.71C235.02 33.3433 235.58 34.72 236.7 35.84C237.866 36.9133 239.266 37.45 240.9 37.45ZM305.253 49H298.183V48.44C299.116 48.44 299.84 48.1367 300.353 47.53C300.866 46.9233 301.123 46.27 301.123 45.57L301.053 45.08C299.98 39.4333 297.366 34.8133 293.213 31.22C289.106 27.58 284.206 25.76 278.513 25.76H273.963C273.076 25.76 272.306 26.0867 271.653 26.74C271.046 27.3467 270.743 28.1167 270.743 29.05V46.55C270.743 47.11 270.906 47.5767 271.233 47.95C271.606 48.2767 272.073 48.44 272.633 48.44V49H265.563V48.44C266.123 48.44 266.59 48.2533 266.963 47.88C267.383 47.46 267.593 46.97 267.593 46.41V4.62C267.593 4.06 267.383 3.59333 266.963 3.22C266.59 2.8 266.123 2.59 265.563 2.59V2.03H272.633V2.59C272.073 2.63666 271.606 2.84666 271.233 3.22C270.906 3.59333 270.743 4.06 270.743 4.62V21.98C270.743 22.8667 271.046 23.6367 271.653 24.29C272.306 24.9433 273.076 25.27 273.963 25.27H280.403C282.036 25.27 283.413 24.6867 284.533 23.52C285.653 22.3533 286.213 20.9767 286.213 19.39V7.28C286.213 5.50667 286.843 4.01333 288.103 2.8C289.363 1.54 290.856 0.909997 292.583 0.909997H295.593C298.066 0.909997 299.956 2.05333 301.263 4.34C302.243 5.92666 303.573 6.72 305.253 6.72V7.28H298.183V6.72C299.116 6.72 299.77 6.3 300.143 5.46C300.283 5.18 300.353 4.9 300.353 4.62C300.353 4.10666 300.143 3.61666 299.723 3.15C298.603 1.98333 297.226 1.4 295.593 1.4C294.8 1.4 294.31 1.44667 294.123 1.54C291.23 2.61333 289.783 4.52666 289.783 7.28V19.39C289.783 21.1167 289.176 22.5867 287.963 23.8C286.796 25.0133 285.326 25.6667 283.553 25.76C288.36 26.88 292.373 29.2367 295.593 32.83C298.86 36.3767 300.89 40.5767 301.683 45.43C301.823 46.3167 302.22 47.04 302.873 47.6C303.573 48.16 304.366 48.44 305.253 48.44V49ZM338.852 50.33C335.679 50.33 332.575 49.7233 329.542 48.51C326.509 47.2967 323.779 45.4767 321.352 43.05C316.499 38.01 314.072 32.1767 314.072 25.55C314.072 23.45 314.469 20.86 315.262 17.78C316.102 14.6533 318.132 11.4333 321.352 8.12C323.779 5.69333 326.509 3.87333 329.542 2.66C332.575 1.44666 335.679 0.839998 338.852 0.839998C342.025 0.839998 345.105 1.44666 348.092 2.66C351.125 3.87333 353.855 5.69333 356.282 8.12C361.135 13.0667 363.562 18.8767 363.562 25.55C363.562 27.65 363.142 30.2633 362.302 33.39C361.509 36.5167 359.502 39.7367 356.282 43.05C353.855 45.4767 351.125 47.2967 348.092 48.51C345.105 49.7233 342.025 50.33 338.852 50.33ZM341.932 48.23C344.545 48.23 347.042 47.7633 349.422 46.83C351.849 45.8967 353.995 44.4967 355.862 42.63C359.595 38.6633 361.462 33.9733 361.462 28.56C361.462 28.0933 361.345 26.2267 361.112 22.96C360.879 19.6933 358.405 15.61 353.692 10.71C351.079 8.14333 348.209 6.20666 345.082 4.9C342.002 3.59333 338.899 2.94 335.772 2.94C333.159 2.94 330.639 3.40666 328.212 4.34C325.832 5.27333 323.685 6.67333 321.772 8.54C318.039 12.46 316.172 17.08 316.172 22.4C316.172 22.96 316.265 24.8733 316.452 28.14C316.685 31.4067 319.182 35.5133 323.942 40.46C326.555 43.0267 329.425 44.9633 332.552 46.27C335.679 47.5767 338.805 48.23 341.932 48.23ZM380.134 49H373.064V48.44C373.624 48.44 374.091 48.2533 374.464 47.88C374.884 47.46 375.094 46.97 375.094 46.41V4.69C375.094 4.13 374.884 3.66333 374.464 3.29C374.091 2.87 373.624 2.66 373.064 2.66V2.1H394.344C398.031 2.1 401.157 3.36 403.724 5.88C406.291 8.4 407.644 11.55 407.784 15.33C407.737 19.1567 406.384 22.4 403.724 25.06C401.064 27.6733 397.844 28.98 394.064 28.98H389.724C385.197 28.98 381.581 30.9867 378.874 35C378.454 35.7 378.244 36.47 378.244 37.31V46.55C378.244 47.67 378.874 48.3 380.134 48.44V49ZM379.364 32.83C379.644 32.83 379.924 32.7133 380.204 32.48C382.864 29.7733 386.037 28.42 389.724 28.42H394.344C395.324 28.42 396.374 28.28 397.494 28C399.547 27.0667 401.204 25.48 402.464 23.24C403.724 21 404.354 18.4333 404.354 15.54C404.354 12.6 403.701 10.01 402.394 7.77C401.134 5.48333 399.477 3.89667 397.424 3.01C396.491 2.77666 395.464 2.66 394.344 2.66H380.134C378.874 2.89333 378.244 3.57 378.244 4.69V31.64C378.244 31.9667 378.361 32.2467 378.594 32.48C378.827 32.7133 379.084 32.83 379.364 32.83ZM466.18 49H461.56V48.44C462.026 48.44 462.26 48.16 462.26 47.6L450.78 4.83C450.733 4.50333 450.546 4.34 450.22 4.34C449.846 4.34 449.636 4.50333 449.59 4.83L442.52 30.52C442.473 30.8467 442.45 31.1967 442.45 31.57L442.52 32.62L446.51 47.39C446.696 48.09 447.163 48.44 447.91 48.44V49H443.22V48.44C443.733 48.44 443.99 48.16 443.99 47.6L432.51 4.83C432.37 4.50333 432.183 4.34 431.95 4.34C431.67 4.34 431.46 4.50333 431.32 4.83C423.666 32.7367 419.84 46.76 419.84 46.9C419.84 47.2267 419.98 47.5767 420.26 47.95C420.54 48.2767 420.936 48.44 421.45 48.44V49H416.76V48.44C417.413 48.44 417.973 48.2533 418.44 47.88C418.953 47.5067 419.303 47.0167 419.49 46.41L429.57 9.45C429.57 9.12333 429.453 8.79666 429.22 8.47C428.986 8.14333 428.613 7.98 428.1 7.98L429.71 2.1H435.17V2.66H434.47L441.54 28.77C441.633 29.05 441.82 29.19 442.1 29.19C442.38 29.19 442.543 29.05 442.59 28.77C446.09 15.9367 447.84 9.47333 447.84 9.38C447.84 9.05333 447.723 8.75 447.49 8.47C447.256 8.14333 446.883 7.98 446.37 7.98L448.05 2.1H453.44V2.66H452.74L464.78 47.39C465.106 48.09 465.573 48.44 466.18 48.44V49ZM499.154 49H492.084V48.44C492.97 48.44 493.717 48.1367 494.324 47.53C494.977 46.8767 495.304 46.1067 495.304 45.22V6.37C495.304 6.09 495.187 5.95 494.954 5.95C494.907 5.95 494.837 5.97333 494.744 6.02C494.65 6.02 490.03 20.3467 480.884 49H474.374V48.44C475.307 48.44 476.077 48.1367 476.684 47.53C477.337 46.8767 477.664 46.1067 477.664 45.22V5.88C477.664 4.99333 477.337 4.24666 476.684 3.64C476.077 2.98666 475.307 2.66 474.374 2.66V2.1H481.444V2.66C480.557 2.66 479.787 2.98666 479.134 3.64C478.48 4.24666 478.154 4.99333 478.154 5.88V44.73C478.154 44.87 478.2 44.9633 478.294 45.01C478.387 45.0567 478.48 45.08 478.574 45.08C478.807 45.08 478.947 45.01 478.994 44.87L492.574 2.1H499.154V2.66C498.267 2.66 497.497 2.98666 496.844 3.64C496.19 4.24666 495.864 4.99333 495.864 5.88V45.22C495.864 46.1067 496.19 46.8767 496.844 47.53C497.497 48.1367 498.267 48.44 499.154 48.44V49ZM523.212 49H516.142V48.44C516.702 48.44 517.169 48.2533 517.542 47.88C517.962 47.46 518.172 46.97 518.172 46.41V4.69C518.172 3.47666 517.496 2.8 516.142 2.66H509.842C509.282 2.66 508.816 2.84666 508.442 3.22C508.069 3.59333 507.882 4.06 507.882 4.62H507.322V2.1H532.032V4.62H531.472C531.472 4.06 531.286 3.59333 530.912 3.22C530.539 2.84666 530.072 2.66 529.512 2.66H523.212C522.652 2.70666 522.186 2.91666 521.812 3.29C521.486 3.66333 521.322 4.13 521.322 4.69V46.55C521.322 47.11 521.486 47.5767 521.812 47.95C522.186 48.2767 522.652 48.44 523.212 48.44V49ZM254.247 119H218.477V118.44C219.037 118.44 219.504 118.253 219.877 117.88C220.297 117.46 220.507 116.97 220.507 116.41V74.69C220.507 74.13 220.297 73.6633 219.877 73.29C219.504 72.87 219.037 72.66 218.477 72.66V72.1H242.697C246.384 72.1 249.534 73.4067 252.147 76.02C254.76 78.6333 256.067 81.7833 256.067 85.47C256.067 87.1967 255.74 88.8767 255.087 90.51C254.994 90.6967 254.947 90.8833 254.947 91.07C254.947 91.8167 255.344 92.26 256.137 92.4C259.124 92.8667 261.69 94.1967 263.837 96.39C266.404 99.05 267.687 102.13 267.687 105.63V105.84C267.5 109.573 266.124 112.7 263.557 115.22C260.99 117.74 257.887 119 254.247 119ZM254.247 118.44C255.927 118.44 257.21 118.183 258.097 117.67C262.11 115.01 264.117 110.997 264.117 105.63C264.117 100.31 262.204 96.3433 258.377 93.73C257.957 93.45 257.42 93.24 256.767 93.1C256.16 92.9133 255.53 92.82 254.877 92.82C254.224 92.82 253.687 93.1 253.267 93.66C250.514 97.1133 246.99 98.84 242.697 98.84H236.467C232.92 98.84 229.887 100.1 227.367 102.62C224.847 105.093 223.587 108.127 223.587 111.72V116.55C223.587 117.063 223.774 117.507 224.147 117.88C224.567 118.253 225.034 118.44 225.547 118.44H254.247ZM224.497 105.07C224.73 105.07 224.917 104.953 225.057 104.72C227.857 100.473 231.66 98.35 236.467 98.35H242.697C244.984 98.35 246.85 97.6967 248.297 96.39C249.744 95.0833 250.817 93.45 251.517 91.49C252.264 89.4833 252.637 87.4767 252.637 85.47C252.637 80.1967 250.724 76.2533 246.897 73.64C245.917 73.0333 245.03 72.73 244.237 72.73C243.724 72.6367 243.21 72.59 242.697 72.59L225.547 72.66C225.034 72.66 224.567 72.8467 224.147 73.22C223.774 73.5933 223.587 74.0367 223.587 74.55V104.3C223.587 104.813 223.89 105.07 224.497 105.07ZM301.115 120.26L299.505 120.19C293.485 119.537 288.422 117.157 284.315 113.05C280.208 108.943 277.828 103.88 277.175 97.86L277.105 96.25C277.105 89.0167 279.508 82.9967 284.315 78.19C288.935 73.57 294.652 71.1433 301.465 70.91H302.025V75.18H301.465C301.465 74.5733 301.255 74.06 300.835 73.64C300.462 73.22 299.972 72.9867 299.365 72.94H298.665C293.298 72.94 288.655 74.8067 284.735 78.54C281.002 82.2733 279.135 86.94 279.135 92.54L279.205 94.01C279.812 100.403 282.378 105.887 286.905 110.46C291.478 114.987 296.962 117.553 303.355 118.16L304.755 118.23C310.122 118.23 314.695 116.48 318.475 112.98L319.175 112.28C322.675 108.733 324.425 104.323 324.425 99.05V97.79C324.425 97.1833 324.192 96.67 323.725 96.25C323.258 95.83 322.722 95.62 322.115 95.62V95.06H326.455C326.455 102.293 324.028 108.313 319.175 113.12C314.368 117.88 308.348 120.26 301.115 120.26ZM361.437 119H336.657V118.44C337.217 118.44 337.683 118.253 338.057 117.88C338.477 117.46 338.687 116.97 338.687 116.41V74.69C338.687 74.13 338.477 73.6633 338.057 73.29C337.683 72.87 337.217 72.66 336.657 72.66V72.1H361.437V74.55H360.877C360.877 74.0367 360.69 73.5933 360.317 73.22C359.943 72.8467 359.5 72.66 358.987 72.66H343.867C343.26 72.66 342.77 72.87 342.397 73.29C342.023 73.6633 341.837 74.13 341.837 74.69V95.55C341.837 96.2967 342.093 96.95 342.607 97.51C343.12 98.0233 343.75 98.28 344.497 98.28H351.847C352.64 98.28 353.293 98.0233 353.807 97.51C354.32 96.95 354.577 96.2967 354.577 95.55H355.137V101.5H354.577C354.577 100.753 354.32 100.123 353.807 99.61C353.293 99.05 352.64 98.77 351.847 98.77H344.497C343.75 98.77 343.12 99.05 342.607 99.61C342.093 100.123 341.837 100.753 341.837 101.5V116.41C341.837 116.97 342.023 117.46 342.397 117.88C342.77 118.253 343.26 118.44 343.867 118.44H358.987C359.5 118.44 359.943 118.253 360.317 117.88C360.69 117.507 360.877 117.04 360.877 116.48H361.437V119ZM393.7 119H387.75V118.44C388.077 118.44 388.31 118.347 388.45 118.16C388.59 117.927 388.66 117.717 388.66 117.53L381.31 95.9C381.17 95.6667 380.984 95.55 380.75 95.55C380.517 95.55 380.33 95.6667 380.19 95.9C375.43 109.527 373.05 116.41 373.05 116.55C373.05 117.063 373.237 117.507 373.61 117.88C373.984 118.253 374.427 118.44 374.94 118.44V119H368.99V118.44C370.624 118.44 371.837 117.577 372.63 115.85L380.19 94.29L380.33 93.52L380.19 92.75L373.75 74.2C373.33 73.1733 372.56 72.66 371.44 72.66V72.1H377.46V72.66H376.55L381.66 87.57C381.754 87.7567 381.917 87.85 382.15 87.85C382.337 87.85 382.477 87.7567 382.57 87.57C385.557 78.9833 387.05 74.5733 387.05 74.34C387.05 73.9667 386.91 73.5933 386.63 73.22C386.397 72.8467 385.977 72.66 385.37 72.66L385.58 72.1H391.6V72.66H389.99C389.524 72.66 389.08 72.8 388.66 73.08C388.24 73.36 387.96 73.7333 387.82 74.2L382.64 88.9C382.594 89.1333 382.57 89.39 382.57 89.67L382.64 90.44L391.81 117.11C391.95 117.53 392.184 117.857 392.51 118.09C392.884 118.323 393.28 118.44 393.7 118.44V119Z" fill="#FF6624"/>
<path d="M447.008 118.44C448.128 118.44 449.155 118.323 450.088 118.09C452.141 117.203 453.798 115.64 455.058 113.4C456.365 111.113 457.018 108.5 457.018 105.56C457.018 102.667 456.388 100.1 455.128 97.86C453.868 95.62 452.211 94.0333 450.158 93.1C449.505 92.9133 448.945 92.7967 448.478 92.75C448.058 92.7033 446.005 92.68 442.318 92.68C438.678 92.68 435.528 91.3267 432.868 88.62C432.588 88.3867 432.308 88.27 432.028 88.27C431.748 88.27 431.491 88.3867 431.258 88.62C431.025 88.8067 430.908 89.0867 430.908 89.46V116.41C430.908 117.53 431.538 118.207 432.798 118.44H447.008ZM430.908 74.69V83.79C430.908 84.63 431.118 85.4 431.538 86.1C434.245 90.1133 437.861 92.12 442.388 92.12H446.728C450.508 92.12 453.728 93.45 456.388 96.11C459.048 98.7233 460.401 101.943 460.448 105.77C460.308 109.55 458.955 112.7 456.388 115.22C453.821 117.74 450.695 119 447.008 119H425.728V118.44C426.288 118.44 426.755 118.253 427.128 117.88C427.548 117.46 427.758 116.97 427.758 116.41V74.69C427.758 74.13 427.548 73.64 427.128 73.22C426.755 72.8467 426.288 72.66 425.728 72.66V72.1H454.848V74.55H454.288C454.288 74.0367 454.101 73.5933 453.728 73.22C453.355 72.8467 452.888 72.66 452.328 72.66H432.938C432.331 72.66 431.841 72.87 431.468 73.29C431.095 73.6633 430.908 74.13 430.908 74.69ZM495.394 119H470.614V118.44C471.174 118.44 471.64 118.253 472.014 117.88C472.434 117.46 472.644 116.97 472.644 116.41V74.69C472.644 74.13 472.434 73.6633 472.014 73.29C471.64 72.87 471.174 72.66 470.614 72.66V72.1H495.394V74.55H494.834C494.834 74.0367 494.647 73.5933 494.274 73.22C493.9 72.8467 493.457 72.66 492.944 72.66H477.824C477.217 72.66 476.727 72.87 476.354 73.29C475.98 73.6633 475.794 74.13 475.794 74.69V95.55C475.794 96.2967 476.05 96.95 476.564 97.51C477.077 98.0233 477.707 98.28 478.454 98.28H485.804C486.597 98.28 487.25 98.0233 487.764 97.51C488.277 96.95 488.534 96.2967 488.534 95.55H489.094V101.5H488.534C488.534 100.753 488.277 100.123 487.764 99.61C487.25 99.05 486.597 98.77 485.804 98.77H478.454C477.707 98.77 477.077 99.05 476.564 99.61C476.05 100.123 475.794 100.753 475.794 101.5V116.41C475.794 116.97 475.98 117.46 476.354 117.88C476.727 118.253 477.217 118.44 477.824 118.44H492.944C493.457 118.44 493.9 118.253 494.274 117.88C494.647 117.507 494.834 117.04 494.834 116.48H495.394V119ZM517.437 120.26C514.077 120.26 510.974 118.977 508.127 116.41L504.557 112.21L506.307 110.46L506.727 110.81C506.354 111.23 506.167 111.697 506.167 112.21C506.167 112.723 506.354 113.19 506.727 113.61L508.547 116.06C510.227 117.693 512.187 118.51 514.427 118.51C518.067 118.51 521.311 117.063 524.157 114.17C527.004 111.277 528.544 107.963 528.777 104.23C528.777 101.897 527.961 99.9133 526.327 98.28L524.997 96.95C524.764 96.7167 524.507 96.6 524.227 96.6C524.087 96.6 523.924 96.6467 523.737 96.74C521.777 97.8133 519.677 98.35 517.437 98.35H512.047C511.301 98.35 510.671 98.6067 510.157 99.12C509.691 99.6333 509.457 100.287 509.457 101.08H508.897V95.27H509.457C509.457 95.97 509.691 96.5767 510.157 97.09C510.671 97.6033 511.301 97.86 512.047 97.86H517.437C519.631 97.86 521.451 97.2067 522.897 95.9C524.344 94.5933 525.417 92.9833 526.117 91.07C526.817 89.11 527.167 87.1733 527.167 85.26C527.167 83.3467 526.817 81.4333 526.117 79.52C525.417 77.56 524.344 75.9267 522.897 74.62C521.451 73.3133 519.631 72.66 517.437 72.66H506.167C505.654 72.66 505.187 72.87 504.767 73.29C504.394 73.6633 504.207 74.1067 504.207 74.62H503.647V72.17H517.087C520.681 72.17 523.761 73.3833 526.327 75.81C528.941 78.2367 530.341 81.2933 530.527 84.98C530.481 89.2267 528.917 92.6567 525.837 95.27C525.557 95.55 525.417 95.8533 525.417 96.18C525.417 96.4133 525.534 96.67 525.767 96.95C526.001 97.1833 526.234 97.44 526.467 97.72C528.987 100.193 530.341 103.18 530.527 106.68V107.03C530.527 110.67 529.244 113.797 526.677 116.41C524.111 118.977 521.031 120.26 517.437 120.26ZM105.128 142.66L117.168 187.39C117.495 188.09 117.961 188.44 118.568 188.44V189H113.948V188.44C114.181 188.44 114.368 188.347 114.508 188.16C114.648 187.927 114.695 187.693 114.648 187.46L103.168 144.83C103.028 144.503 102.818 144.34 102.538 144.34C102.305 144.34 102.118 144.503 101.978 144.83L98.688 156.87L90.568 186.48C90.428 186.993 90.5213 187.46 90.848 187.88C91.1746 188.253 91.5946 188.44 92.108 188.44V189H87.418V188.44C88.0713 188.44 88.6313 188.253 89.098 187.88C89.6113 187.507 89.9613 187.017 90.148 186.41L100.158 149.8C100.298 149.333 100.228 148.913 99.948 148.54C99.668 148.167 99.2713 147.98 98.758 147.98L100.368 142.1H105.828V142.66H105.128ZM152.449 189H145.379V188.44C146.265 188.44 147.012 188.137 147.619 187.53C148.272 186.877 148.599 186.107 148.599 185.22V146.37C148.599 146.09 148.482 145.95 148.249 145.95C148.202 145.95 148.132 145.973 148.039 146.02C147.945 146.02 143.325 160.347 134.179 189H127.669V188.44C128.602 188.44 129.372 188.137 129.979 187.53C130.632 186.877 130.959 186.107 130.959 185.22V145.88C130.959 144.993 130.632 144.247 129.979 143.64C129.372 142.987 128.602 142.66 127.669 142.66V142.1H134.739V142.66C133.852 142.66 133.082 142.987 132.429 143.64C131.775 144.247 131.449 144.993 131.449 145.88V184.73C131.449 184.87 131.495 184.963 131.589 185.01C131.682 185.057 131.775 185.08 131.869 185.08C132.102 185.08 132.242 185.01 132.289 184.87L145.869 142.1H152.449V142.66C151.562 142.66 150.792 142.987 150.139 143.64C149.485 144.247 149.159 144.993 149.159 145.88V185.22C149.159 186.107 149.485 186.877 150.139 187.53C150.792 188.137 151.562 188.44 152.449 188.44V189ZM188.407 188.44C188.874 188.393 189.271 188.207 189.597 187.88L189.667 187.81C190.041 187.437 190.227 186.97 190.227 186.41V144.69C190.227 144.13 190.017 143.663 189.597 143.29C189.224 142.87 188.757 142.66 188.197 142.66V142.1H195.267V142.66H195.407C194.801 142.66 194.311 142.87 193.937 143.29C193.564 143.663 193.377 144.13 193.377 144.69V186.41C193.377 186.97 193.587 187.46 194.007 187.88C194.427 188.253 194.894 188.44 195.407 188.44H195.267V189H161.737V188.44C162.297 188.44 162.787 188.23 163.207 187.81C163.487 187.53 163.651 187.203 163.697 186.83C163.744 186.69 163.767 186.55 163.767 186.41V144.69C163.767 144.13 163.557 143.663 163.137 143.29C162.764 142.87 162.297 142.66 161.737 142.66V142.1H168.807V142.66C168.247 142.66 167.804 142.847 167.477 143.22C167.104 143.547 166.917 143.99 166.917 144.55V186.55C166.917 187.11 167.104 187.553 167.477 187.88C167.804 188.253 168.247 188.44 168.807 188.44H175.037C176.251 188.44 176.927 187.763 177.067 186.41V144.69C177.067 144.13 176.857 143.663 176.437 143.29C176.064 142.87 175.597 142.66 175.037 142.66V142.1H182.107V142.66C181.547 142.66 181.104 142.847 180.777 143.22C180.404 143.547 180.217 143.99 180.217 144.55V186.41C180.217 187.25 180.591 187.833 181.337 188.16C182.037 188.533 184.394 188.627 188.407 188.44ZM230.021 189H223.021V188.44C223.581 188.44 224.048 188.253 224.421 187.88C224.841 187.46 225.051 186.97 225.051 186.41V170.38C225.051 169.96 224.888 169.61 224.561 169.33C224.281 169.05 223.931 168.91 223.511 168.91H211.961C211.541 168.91 211.191 169.05 210.911 169.33C210.631 169.61 210.491 169.96 210.491 170.38V186.55C210.491 187.67 211.121 188.3 212.381 188.44V189H205.311V188.44C205.871 188.44 206.338 188.253 206.711 187.88C207.131 187.46 207.341 186.97 207.341 186.41V144.69C207.341 144.13 207.131 143.663 206.711 143.29C206.338 142.87 205.871 142.66 205.311 142.66V142.1H212.381V142.66C211.121 142.893 210.491 143.57 210.491 144.69V166.81C210.491 167.23 210.631 167.603 210.911 167.93C211.191 168.21 211.541 168.35 211.961 168.35H223.511C223.931 168.35 224.281 168.21 224.561 167.93C224.888 167.603 225.051 167.23 225.051 166.81V144.69C225.051 144.13 224.841 143.663 224.421 143.29C224.048 142.87 223.581 142.66 223.021 142.66V142.1H230.021V142.66C229.461 142.707 228.994 142.917 228.621 143.29C228.294 143.663 228.131 144.13 228.131 144.69V186.55C228.131 187.11 228.318 187.577 228.691 187.95C229.111 188.277 229.554 188.44 230.021 188.44V189ZM264.161 189H257.091V188.44C257.978 188.44 258.725 188.137 259.331 187.53C259.985 186.877 260.311 186.107 260.311 185.22V146.37C260.311 146.09 260.195 145.95 259.961 145.95C259.915 145.95 259.845 145.973 259.751 146.02C259.658 146.02 255.038 160.347 245.891 189H239.381V188.44C240.315 188.44 241.085 188.137 241.691 187.53C242.345 186.877 242.671 186.107 242.671 185.22V145.88C242.671 144.993 242.345 144.247 241.691 143.64C241.085 142.987 240.315 142.66 239.381 142.66V142.1H246.451V142.66C245.565 142.66 244.795 142.987 244.141 143.64C243.488 144.247 243.161 144.993 243.161 145.88V184.73C243.161 184.87 243.208 184.963 243.301 185.01C243.395 185.057 243.488 185.08 243.581 185.08C243.815 185.08 243.955 185.01 244.001 184.87L257.581 142.1H264.161V142.66C263.275 142.66 262.505 142.987 261.851 143.64C261.198 144.247 260.871 144.993 260.871 145.88V185.22C260.871 186.107 261.198 186.877 261.851 187.53C262.505 188.137 263.275 188.44 264.161 188.44V189ZM297.04 189H291.09V188.44C291.417 188.44 291.65 188.347 291.79 188.16C291.93 187.927 292 187.717 292 187.53L284.65 165.9C284.51 165.667 284.323 165.55 284.09 165.55C283.857 165.55 283.67 165.667 283.53 165.9C278.77 179.527 276.39 186.41 276.39 186.55C276.39 187.063 276.577 187.507 276.95 187.88C277.323 188.253 277.767 188.44 278.28 188.44V189H272.33V188.44C273.963 188.44 275.177 187.577 275.97 185.85L283.53 164.29L283.67 163.52L283.53 162.75L277.09 144.2C276.67 143.173 275.9 142.66 274.78 142.66V142.1H280.8V142.66H279.89L285 157.57C285.093 157.757 285.257 157.85 285.49 157.85C285.677 157.85 285.817 157.757 285.91 157.57C288.897 148.983 290.39 144.573 290.39 144.34C290.39 143.967 290.25 143.593 289.97 143.22C289.737 142.847 289.317 142.66 288.71 142.66L288.92 142.1H294.94V142.66H293.33C292.863 142.66 292.42 142.8 292 143.08C291.58 143.36 291.3 143.733 291.16 144.2L285.98 158.9C285.933 159.133 285.91 159.39 285.91 159.67L285.98 160.44L295.15 187.11C295.29 187.53 295.523 187.857 295.85 188.09C296.223 188.323 296.62 188.44 297.04 188.44V189ZM354.408 190.26L352.798 190.19C346.778 189.537 341.714 187.157 337.608 183.05C333.501 178.943 331.121 173.88 330.468 167.86L330.398 166.25C330.398 159.017 332.801 152.997 337.608 148.19C342.228 143.57 347.944 141.143 354.758 140.91H355.318V145.18H354.758C354.758 144.573 354.548 144.06 354.128 143.64C353.754 143.22 353.264 142.987 352.658 142.94H351.958C346.591 142.94 341.948 144.807 338.028 148.54C334.294 152.273 332.428 156.94 332.428 162.54L332.498 164.01C333.104 170.403 335.671 175.887 340.198 180.46C344.771 184.987 350.254 187.553 356.648 188.16L358.048 188.23C363.414 188.23 367.988 186.48 371.768 182.98L372.468 182.28C375.968 178.733 377.718 174.323 377.718 169.05V167.79C377.718 167.183 377.484 166.67 377.018 166.25C376.551 165.83 376.014 165.62 375.408 165.62V165.06H379.748C379.748 172.293 377.321 178.313 372.468 183.12C367.661 187.88 361.641 190.26 354.408 190.26ZM406.47 142.66L418.51 187.39C418.836 188.09 419.303 188.44 419.91 188.44V189H415.29V188.44C415.523 188.44 415.71 188.347 415.85 188.16C415.99 187.927 416.036 187.693 415.99 187.46L404.51 144.83C404.37 144.503 404.16 144.34 403.88 144.34C403.646 144.34 403.46 144.503 403.32 144.83L400.03 156.87L391.91 186.48C391.77 186.993 391.863 187.46 392.19 187.88C392.516 188.253 392.936 188.44 393.45 188.44V189H388.76V188.44C389.413 188.44 389.973 188.253 390.44 187.88C390.953 187.507 391.303 187.017 391.49 186.41L401.5 149.8C401.64 149.333 401.57 148.913 401.29 148.54C401.01 148.167 400.613 147.98 400.1 147.98L401.71 142.1H407.17V142.66H406.47ZM454.42 190.33C451.247 190.33 448.144 189.723 445.11 188.51C442.077 187.297 439.347 185.477 436.92 183.05C432.067 178.01 429.64 172.177 429.64 165.55C429.64 163.45 430.037 160.86 430.83 157.78C431.67 154.653 433.7 151.433 436.92 148.12C439.347 145.693 442.077 143.873 445.11 142.66C448.144 141.447 451.247 140.84 454.42 140.84C457.594 140.84 460.674 141.447 463.66 142.66C466.694 143.873 469.424 145.693 471.85 148.12C476.704 153.067 479.13 158.877 479.13 165.55C479.13 167.65 478.71 170.263 477.87 173.39C477.077 176.517 475.07 179.737 471.85 183.05C469.424 185.477 466.694 187.297 463.66 188.51C460.674 189.723 457.594 190.33 454.42 190.33ZM457.5 188.23C460.114 188.23 462.61 187.763 464.99 186.83C467.417 185.897 469.564 184.497 471.43 182.63C475.164 178.663 477.03 173.973 477.03 168.56C477.03 168.093 476.914 166.227 476.68 162.96C476.447 159.693 473.974 155.61 469.26 150.71C466.647 148.143 463.777 146.207 460.65 144.9C457.57 143.593 454.467 142.94 451.34 142.94C448.727 142.94 446.207 143.407 443.78 144.34C441.4 145.273 439.254 146.673 437.34 148.54C433.607 152.46 431.74 157.08 431.74 162.4C431.74 162.96 431.834 164.873 432.02 168.14C432.254 171.407 434.75 175.513 439.51 180.46C442.124 183.027 444.994 184.963 448.12 186.27C451.247 187.577 454.374 188.23 457.5 188.23ZM525.032 189H489.262V188.44C489.822 188.44 490.289 188.253 490.662 187.88C491.082 187.46 491.292 186.97 491.292 186.41V144.69C491.292 144.13 491.082 143.663 490.662 143.29C490.289 142.87 489.822 142.66 489.262 142.66V142.1H513.482C517.169 142.1 520.319 143.407 522.932 146.02C525.546 148.633 526.852 151.783 526.852 155.47C526.852 157.197 526.526 158.877 525.872 160.51C525.779 160.697 525.732 160.883 525.732 161.07C525.732 161.817 526.129 162.26 526.922 162.4C529.909 162.867 532.476 164.197 534.622 166.39C537.189 169.05 538.472 172.13 538.472 175.63V175.84C538.286 179.573 536.909 182.7 534.342 185.22C531.776 187.74 528.672 189 525.032 189ZM525.032 188.44C526.712 188.44 527.996 188.183 528.882 187.67C532.896 185.01 534.902 180.997 534.902 175.63C534.902 170.31 532.989 166.343 529.162 163.73C528.742 163.45 528.206 163.24 527.552 163.1C526.946 162.913 526.316 162.82 525.662 162.82C525.009 162.82 524.472 163.1 524.052 163.66C521.299 167.113 517.776 168.84 513.482 168.84H507.252C503.706 168.84 500.672 170.1 498.152 172.62C495.632 175.093 494.372 178.127 494.372 181.72V186.55C494.372 187.063 494.559 187.507 494.932 187.88C495.352 188.253 495.819 188.44 496.332 188.44H525.032ZM495.282 175.07C495.516 175.07 495.702 174.953 495.842 174.72C498.642 170.473 502.446 168.35 507.252 168.35H513.482C515.769 168.35 517.636 167.697 519.082 166.39C520.529 165.083 521.602 163.45 522.302 161.49C523.049 159.483 523.422 157.477 523.422 155.47C523.422 150.197 521.509 146.253 517.682 143.64C516.702 143.033 515.816 142.73 515.022 142.73C514.509 142.637 513.996 142.59 513.482 142.59L496.332 142.66C495.819 142.66 495.352 142.847 494.932 143.22C494.559 143.593 494.372 144.037 494.372 144.55V174.3C494.372 174.813 494.676 175.07 495.282 175.07Z" fill="white"/>
<path d="M142.699 49L129.014 34.7021L162.466 1L165 3.55319L145.74 23.4681L156.89 34.7021L142.699 49ZM105.192 49L91 34.7021L124.452 1L126.986 3.55319L107.726 23.4681L119.384 34.7021L105.192 49Z" fill="#FF6624"/>
</svg>
