<svg width="28" height="25" viewBox="0 0 28 25" fill="none" xmlns="http://www.w3.org/2000/svg">
<path d="M26.4783 1.00662C26.2385 0.799326 25.9466 0.661661 25.6342 0.608539C25.3218 0.555417 25.0008 0.588862 24.7061 0.705253L1.76041 9.72741C1.41044 9.86501 1.11441 10.1123 0.916598 10.4324C0.718787 10.7524 0.629838 11.1279 0.663059 11.5028C0.69628 11.8776 0.849886 12.2317 1.10089 12.5118C1.3519 12.792 1.6868 12.9833 2.0555 13.0571L8.08373 14.2638V21.754C8.08342 22.0987 8.18533 22.4357 8.37654 22.7224C8.56776 23.0091 8.83967 23.2325 9.15786 23.3644C9.47604 23.4963 9.82618 23.5307 10.1639 23.4633C10.5017 23.3959 10.8118 23.2297 11.0551 22.9857L14.4455 19.5925L19.5162 24.0586C19.8316 24.3389 20.2386 24.4939 20.6603 24.4944C20.8437 24.4942 21.0258 24.4653 21.2003 24.4087C21.4879 24.3174 21.7467 24.1521 21.9506 23.9295C22.1546 23.7068 22.2967 23.4346 22.3627 23.1398L27.0391 2.7159C27.1103 2.40689 27.0957 2.08427 26.9968 1.78298C26.898 1.48169 26.7187 1.21321 26.4783 1.00662ZM2.14917 11.3708C2.14112 11.3168 2.15245 11.2618 2.18115 11.2153C2.20985 11.1689 2.25406 11.1342 2.30592 11.1173L21.5057 3.56805L8.65681 12.8557L2.34805 11.5928C2.29401 11.5854 2.24438 11.559 2.20796 11.5183C2.17155 11.4777 2.15072 11.4254 2.14917 11.3708ZM10.0001 21.93C9.96537 21.9648 9.92107 21.9885 9.87283 21.9981C9.8246 22.0077 9.7746 22.0028 9.72917 21.9839C9.68373 21.9651 9.64489 21.9332 9.61757 21.8923C9.59025 21.8513 9.57567 21.8032 9.57567 21.754V15.3033L13.3233 18.604L10.0001 21.93ZM20.9084 22.8062C20.8988 22.8483 20.8785 22.8871 20.8494 22.9188C20.8202 22.9506 20.7834 22.9743 20.7424 22.9875C20.7014 23.0008 20.6577 23.0031 20.6155 22.9944C20.5733 22.9856 20.5341 22.9661 20.5018 22.9376L10.0242 13.7093L25.5632 2.47711L20.9084 22.8062Z" fill="#1A1C1D"/>
</svg>
