<svg width="182" height="34" viewBox="0 0 182 34" fill="none" xmlns="http://www.w3.org/2000/svg">
<path fill-rule="evenodd" clip-rule="evenodd" d="M175.907 29.4246V22.8893H174.708L171.529 27.0444V22.8893H170.145V29.4246H171.344L174.523 25.2711V29.4246H175.907ZM173.002 21.2552C172.929 21.2576 172.855 21.2447 172.787 21.2173C172.718 21.1899 172.656 21.1487 172.604 21.0961C172.552 21.0436 172.512 20.9809 172.485 20.9119C172.459 20.843 172.447 20.7694 172.451 20.6957H171.529C171.529 21.5364 172.128 22.1433 173.004 22.1433C173.878 22.1433 174.479 21.5364 174.479 20.6957H173.556C173.559 20.7694 173.547 20.843 173.521 20.9119C173.494 20.9809 173.454 21.0436 173.402 21.0961C173.35 21.1487 173.288 21.1899 173.22 21.2173C173.151 21.2447 173.076 21.2576 173.002 21.2552ZM168.202 29.4246V22.8893H167.004L163.824 27.0444V22.8893H162.441V29.4246H163.639L166.819 25.2711V29.4246H168.202ZM156.856 29.4246H158.24V24.1505H161.236V22.8893H156.856V29.4246ZM148.502 26.1577C148.502 28.0243 150.023 29.5652 152.006 29.5652C153.988 29.5652 155.508 28.0243 155.508 26.1562C155.508 24.2912 153.988 22.7487 152.006 22.7487C150.023 22.7487 148.502 24.2896 148.502 26.1577ZM149.931 26.1577C149.931 24.9439 150.853 24.0099 152.006 24.0099C153.158 24.0099 154.08 24.9439 154.08 26.1577C154.08 27.37 153.158 28.304 152.006 28.304C150.853 28.304 149.931 27.3715 149.931 26.1577ZM147.155 22.8893H142.5V24.9072C142.5 27.6971 142.038 28.1634 141.393 28.1634C141.162 28.1634 140.932 28.0717 140.932 28.0717V29.4062C140.932 29.4062 141.3 29.5652 141.762 29.5652C143.006 29.5652 143.882 28.6786 143.882 24.8965V24.1505H145.771V29.4246H147.155V22.8893ZM133.407 26.1577C133.407 28.0243 134.928 29.5652 136.911 29.5652C138.894 29.5652 140.413 28.0243 140.413 26.1562C140.413 24.2912 138.894 22.7487 136.911 22.7487C134.928 22.7487 133.407 24.2896 133.407 26.1577ZM134.837 26.1577C134.837 24.9439 135.758 24.0099 136.911 24.0099C138.064 24.0099 138.986 24.9439 138.986 26.1577C138.986 27.37 138.064 28.304 136.911 28.304C135.758 28.304 134.837 27.3715 134.837 26.1577ZM132.061 22.8893H130.677V25.5034H127.912V22.8893H126.528V29.4246H127.912V26.7646H130.679V29.4246H132.061V22.8893ZM122.19 27.0444L123.757 29.4246H125.323L123.066 26.0171L125.14 22.8893H123.572L122.19 24.9898L120.806 22.8893H119.239L121.314 26.0171L119.054 29.4246H120.621L122.19 27.0444ZM114.76 28.1649V26.7172H117.389V25.4576H114.76V24.1505H118.126V22.8893H113.378V29.4246H118.218V28.1649H114.76ZM107.01 22.8909V24.1505H108.855V29.4246H110.237V24.1505H112.08V22.8893H107.011L107.01 22.8909ZM178.631 15.0517L180.201 17.5801H181.771L179.509 13.9602L181.586 10.6368H180.016L178.631 12.8687L177.248 10.6368H175.678L177.755 13.9602L175.493 17.5801H177.063L178.631 15.0517ZM168.607 14.2583H169.807C170.362 14.2583 170.778 14.7031 170.778 15.2489C170.781 15.3783 170.758 15.507 170.711 15.6274C170.663 15.7478 170.592 15.8576 170.502 15.9501C170.412 16.0427 170.304 16.1163 170.184 16.1665C170.065 16.2167 169.937 16.2426 169.807 16.2425H168.607V14.2583ZM169.855 17.5801C171.192 17.5801 172.163 16.559 172.163 15.2489C172.163 13.9296 171.192 12.9176 169.855 12.9176H168.607V10.6368H167.222V17.5801H169.855ZM172.9 17.5801H174.286V10.6368H172.9V17.5801ZM163.2 11.8765C163.66 11.8765 163.939 12.1731 163.939 12.621C163.939 13.0674 163.66 13.364 163.2 13.364H161.907V11.8765H163.2ZM161.907 16.3404V14.5548H163.384C163.891 14.5548 164.261 14.9523 164.261 15.4476C164.265 15.5644 164.244 15.6807 164.201 15.7895C164.159 15.8983 164.094 15.9974 164.013 16.0808C163.931 16.1641 163.833 16.2301 163.725 16.2747C163.617 16.3193 163.501 16.3416 163.384 16.3404H161.907ZM163.449 17.5801C164.769 17.5801 165.646 16.6186 165.646 15.547C165.646 14.3561 164.584 13.9097 164.584 13.9097C164.584 13.9097 165.322 13.4633 165.322 12.4727C165.322 11.5295 164.492 10.6368 163.292 10.6368H160.522V17.5801H163.449ZM152.155 14.1084C152.155 16.0927 153.679 17.73 155.664 17.73C157.65 17.73 159.172 16.0927 159.172 14.1069C159.172 12.1242 157.65 10.4885 155.664 10.4885C153.679 10.4885 152.155 12.1242 152.155 14.1084ZM153.586 14.1084C153.586 12.8182 154.51 11.8261 155.665 11.8261C156.818 11.8261 157.741 12.8197 157.741 14.1084C157.741 15.3987 156.818 16.3908 155.664 16.3908C154.51 16.3908 153.586 15.3971 153.586 14.1084ZM148.638 10.4885C146.65 10.4885 145.129 12.1242 145.129 14.1084C145.129 16.0927 146.652 17.73 148.638 17.73C150.437 17.73 151.36 16.3404 151.36 16.3404L150.529 15.3987C150.529 15.3987 149.884 16.3908 148.638 16.3908C147.436 16.3908 146.513 15.3971 146.513 14.1084C146.513 12.8182 147.436 11.8261 148.638 11.8261C149.838 11.8261 150.437 12.8197 150.437 12.8197L151.315 11.8765C151.315 11.8765 150.437 10.4885 148.638 10.4885ZM143.552 10.6368H142.168V13.4144H139.398V10.6368H138.013V17.5801H139.398V14.752H142.168V17.5801H143.552V10.6368ZM134.774 15.9429L135.329 17.5801H136.806L134.268 10.6368H132.79L130.252 17.5801H131.729L132.282 15.9444H134.774V15.9429ZM134.314 14.6542H132.744L133.528 12.3718L134.314 14.6542ZM129.043 10.6368H127.659V13.4144H124.889V10.6368H123.504V17.5801H124.889V14.752H127.659V17.5801H129.043V10.6368ZM121.558 17.5801V10.6368H120.358L117.174 15.0517V10.6368H115.787V17.5801H116.989L120.173 13.1652V17.5801H121.558ZM112.92 14.0091C112.92 14.9018 112.319 15.547 111.35 15.5959V12.4223C112.319 12.4712 112.92 13.1163 112.92 14.0091ZM111.35 16.8861C113.105 16.8372 114.305 15.547 114.305 14.0091C114.305 12.4712 113.105 11.181 111.35 11.1321V10.3876H109.965V11.1321C108.211 11.181 107.011 12.4712 107.011 14.0091C107.011 15.547 108.211 16.8372 109.965 16.8861V17.7789H111.35V16.8861ZM108.396 14.0091C108.396 13.1163 108.995 12.4712 109.965 12.4223V15.5959C108.995 15.547 108.396 14.9018 108.396 14.0091ZM136.902 1.18169C137.457 1.18169 137.873 1.57457 137.873 2.05611C137.873 2.53765 137.457 2.93206 136.902 2.93206H135.607V1.18169H136.902ZM134.221 0.00152787V6.12401H135.607V4.11222H136.948C138.288 4.11222 139.261 3.21946 139.261 2.05611C139.261 0.901937 138.288 0.00152787 136.948 0.00152787H134.221ZM127.835 0.00152787V1.18169H129.685V6.12401H131.07V1.18169H132.92V0.00152787H127.835ZM126.533 0.00152787H125.146V2.45052H122.372V0.00152787H120.985V6.12401H122.372V3.63221H125.146V6.12401H126.533V0.00152787ZM115.939 4.94231V3.58788H118.574V2.40619H115.939V1.18322H119.314V0.00152787H114.552V6.12401H119.406V4.94231H115.939ZM107.011 6.12401H111.817V7.39283H113.205V4.94231H112.42V0.00152787H111.033V4.94231H108.398V0.00152787H107.011V6.12401ZM46.1349 29.5652H53.5491V27.3639C61.3807 27.3639 67.4313 23.1676 67.4313 14.9722C67.4313 6.86237 61.3211 2.58046 53.5476 2.58046V0.00152787H46.1334V2.58046C38.2972 2.58046 32.2512 6.76912 32.2512 14.9722C32.2512 23.1171 38.3354 27.3639 46.1349 27.3639V29.5652ZM53.5491 21.3515V8.5944C57.6491 8.5944 60.5323 10.7208 60.5323 14.9722C60.5323 19.2678 57.6858 21.3515 53.5491 21.3515ZM39.1059 14.9722C39.1059 10.7208 42.0441 8.5944 46.1349 8.5944V21.3515C42.0089 21.3515 39.1059 19.2678 39.1059 14.9722ZM95.2828 0.00152787H70.3649V6.59026H79.0204V29.5652H86.583V6.58873H95.2828V0.00152787ZM17.4823 23.9396H7.49067V0H0V30.7484H21.5395V34H28.3499L29.3191 23.9411H25.0143V0.00152787H17.4808V23.9411" fill="#FFF0D4"/>
</svg>
