<svg width="158" height="54" viewBox="0 0 158 54" fill="none" xmlns="http://www.w3.org/2000/svg">
<g clip-path="url(#clip0_77_25602)">
<path d="M158 31.8789C157.884 31.8789 157.76 31.8624 157.645 31.8624C155.705 31.8624 153.766 31.8624 151.827 31.8624H151.472V23.7996H157.925V25.6768H153.683V26.8841H157.513V28.6703H153.683V29.9273C153.741 29.9273 153.799 29.9438 153.857 29.9438C155.185 29.9438 156.506 29.9438 157.835 29.9438C157.892 29.9438 157.95 29.9273 158.008 29.919V31.8789H158Z" fill="#FFF0D4"/>
<path d="M150.011 23.7748V31.8376H147.799V27.4382L147.733 27.4216C147.667 27.5043 147.609 27.587 147.552 27.6697C146.652 28.9846 145.744 30.2912 144.853 31.6143C144.729 31.8045 144.589 31.8706 144.366 31.8624C143.788 31.8458 143.202 31.8624 142.608 31.8624V23.7996H144.803V28.2982C144.911 28.1494 144.977 28.0749 145.034 27.984C145.951 26.6526 146.867 25.3295 147.774 23.9898C147.882 23.8327 147.989 23.7665 148.179 23.7748C148.781 23.7913 149.384 23.7748 150.011 23.7748Z" fill="#FFF0D4"/>
<path d="M103.234 23.7996V28.2982C103.341 28.1576 103.399 28.0832 103.457 28.0005C104.373 26.6608 105.297 25.3294 106.213 23.9815C106.312 23.8327 106.42 23.7748 106.601 23.7748C107.204 23.783 107.806 23.7748 108.433 23.7748V31.8293H106.238V27.4382C106.238 27.4382 106.197 27.4216 106.172 27.4134C106.114 27.4961 106.048 27.5788 105.99 27.6615C105.091 28.968 104.191 30.2664 103.308 31.5812C103.16 31.8045 103.003 31.8706 102.755 31.8624C102.194 31.8458 101.633 31.8624 101.047 31.8624V23.7996H103.234Z" fill="#FFF0D4"/>
<path d="M69.5708 23.7913H76.008V25.6768H71.7743V26.8841H75.6201V28.6621H71.7743V29.9438H76.0823V31.8376H69.5708V23.7913Z" fill="#FFF0D4"/>
<path d="M120.301 26.9007H124.13V28.6621H120.301V29.9438H124.601V31.8458H118.089V23.7996H124.543V25.6768H120.301V26.9007Z" fill="#FFF0D4"/>
<path d="M60.1626 30.101C60.2946 30.101 60.3854 30.101 60.468 30.101C61.0952 30.1258 61.351 29.9935 61.5161 29.3732C61.6729 28.7778 61.7802 28.1494 61.8132 27.5374C61.8792 26.4045 61.8792 25.2633 61.9039 24.1221C61.9039 24.0146 61.9039 23.9071 61.9039 23.7913H68.0936V31.8376H65.8818V25.7677H63.9589C63.9589 26.3383 64.0084 26.9172 63.9506 27.4795C63.8516 28.3809 63.6948 29.2823 63.538 30.1754C63.4967 30.3904 63.3894 30.6054 63.2822 30.8039C62.9108 31.4985 62.3661 31.9533 61.5491 31.9533C61.1034 31.9533 60.666 31.8955 60.2286 31.8376C60.1544 31.8293 60.0388 31.697 60.0388 31.6226C60.0636 31.1181 60.1131 30.6137 60.1543 30.101H60.1626Z" fill="#FFF0D4"/>
<path d="M80.2912 28.8605C80.0271 29.15 79.7795 29.4146 79.5484 29.6958C79.4907 29.7619 79.4824 29.8777 79.4824 29.9687C79.4824 30.5806 79.4824 31.1925 79.4824 31.8293H77.2624V23.7913H79.4742V27.033C79.5897 26.9089 79.664 26.8345 79.73 26.7518C80.5223 25.8174 81.3145 24.8746 82.1151 23.9402C82.1811 23.8575 82.3049 23.7748 82.3957 23.7748C83.2044 23.7582 84.0215 23.7748 84.9045 23.7748C83.8647 24.9573 82.8661 26.0985 81.8592 27.248C82.9073 28.7778 83.9472 30.2912 85.0201 31.8541C84.1205 31.8541 83.2705 31.8541 82.4287 31.8458C82.3544 31.8458 82.2554 31.7301 82.1976 31.6474C81.6199 30.8039 81.0505 29.9604 80.481 29.1169C80.4232 29.0342 80.3655 28.9598 80.2912 28.8605Z" fill="#FFF0D4"/>
<path d="M134.199 23.7996H136.419V26.9585C136.419 26.9585 136.476 27.0082 136.509 27.0247C136.542 26.9585 136.567 26.8841 136.617 26.8262C137.417 25.8835 138.218 24.9408 139.01 23.9898C139.134 23.8409 139.266 23.7748 139.464 23.7748C140.231 23.783 140.999 23.7748 141.841 23.7748C140.801 24.9656 139.802 26.0985 138.795 27.248C139.835 28.7696 140.875 30.2829 141.94 31.8376C141.808 31.8458 141.725 31.8541 141.643 31.8541C140.982 31.8541 140.314 31.8376 139.654 31.8624C139.357 31.8706 139.191 31.7631 139.035 31.5233C138.457 30.6385 137.855 29.7702 137.236 28.844C136.963 29.1417 136.707 29.4229 136.468 29.7123C136.419 29.7785 136.427 29.9025 136.427 29.9935C136.427 30.5971 136.427 31.2008 136.427 31.821H134.199V23.783V23.7996Z" fill="#FFF0D4"/>
<path d="M52.0996 30.2994C52.636 29.919 53.156 29.5469 53.7007 29.1665C54.4269 29.9025 55.2522 30.2912 56.2673 29.8694C56.8285 29.6379 57.1668 29.1913 57.3484 28.5711H54.7323V27.0082H57.3401C57.1091 26.4045 56.7624 25.9827 56.2013 25.7512C55.409 25.4287 54.6332 25.6354 53.7254 26.4045C53.4861 26.1978 53.2385 25.991 52.9909 25.776C52.7433 25.561 52.4957 25.3543 52.2564 25.1393C53.123 23.8492 55.1284 23.2703 56.845 23.8079C58.5781 24.3454 59.7417 25.9662 59.7335 27.8351C59.7335 29.7206 58.5781 31.3083 56.8532 31.8293C55.0624 32.3668 53.0569 31.7301 52.0996 30.2994Z" fill="#FFF0D4"/>
<path d="M93.2811 23.7748C94.3787 23.7748 95.4516 23.7748 96.5245 23.7748C96.8959 23.7748 97.2755 23.783 97.6469 23.8492C99.8916 24.2544 100.395 26.082 99.9329 27.5953C99.6028 28.6869 98.7362 29.1996 97.6799 29.4311C97.2755 29.5138 96.8546 29.5221 96.4419 29.5469C96.1366 29.5634 95.8312 29.5469 95.5011 29.5469V31.8376H93.2729V23.7748H93.2811ZM95.5176 27.7855C95.8642 27.7855 96.1779 27.7855 96.4915 27.7855C96.5987 27.7855 96.706 27.7855 96.8133 27.7772C97.391 27.7193 97.7954 27.3472 97.8284 26.8428C97.8697 26.2474 97.6138 25.8174 97.0527 25.7264C96.5575 25.6437 96.0376 25.6602 95.5176 25.6272V27.7855Z" fill="#FFF0D4"/>
<path d="M114.408 23.7913H116.637V31.8376H114.408V29.0921C113.987 29.2244 113.6 29.3981 113.203 29.4477C112.683 29.5138 112.131 29.5469 111.619 29.4559C110.455 29.2575 109.729 28.3974 109.671 27.1653C109.622 26.1399 109.655 25.1062 109.655 24.0725C109.655 23.9815 109.655 23.8988 109.655 23.7913H111.899C111.899 23.8906 111.899 23.9981 111.899 24.0973C111.899 24.7919 111.899 25.4866 111.899 26.1812C111.899 26.3879 111.924 26.5947 111.974 26.7932C112.056 27.1405 112.287 27.3638 112.642 27.4299C113.195 27.5291 113.723 27.4382 114.218 27.1736C114.367 27.0909 114.417 26.9916 114.417 26.818C114.408 25.8174 114.417 24.8167 114.417 23.7913H114.408Z" fill="#FFF0D4"/>
<path d="M133.2 30.1754C132.441 31.5647 130.468 32.3172 128.694 31.9203C126.928 31.5233 125.599 29.9852 125.508 28.2321C125.401 26.1399 126.449 24.4612 128.257 23.8492C130.113 23.2207 132.069 23.7996 133.126 25.3295C132.597 25.7429 132.061 26.1564 131.516 26.5781C131.335 26.4128 131.178 26.2391 130.988 26.0985C130.369 25.6437 129.692 25.5031 128.975 25.8174C128.257 26.1316 127.91 26.7353 127.819 27.4961C127.761 27.9922 127.819 28.4801 128.05 28.9432C128.603 30.0017 129.924 30.3242 130.889 29.6213C131.12 29.4559 131.318 29.2409 131.566 29.0259C132.094 29.4063 132.647 29.795 133.2 30.1837V30.1754Z" fill="#FFF0D4"/>
<path d="M92.2743 23.7996V25.7264H89.8645V31.8376H87.6197V25.7429H85.2181V23.7996H92.2743Z" fill="#FFF0D4"/>
<path d="M81.4055 40.4958C81.4055 40.4958 81.3643 40.4793 81.3478 40.471C81.29 40.5537 81.2322 40.6364 81.1745 40.7191C80.2667 42.0422 79.3588 43.3571 78.4593 44.6885C78.3438 44.8621 78.2117 44.9365 77.9971 44.9283C77.4112 44.9117 76.8335 44.9283 76.2228 44.9283V36.8655H78.3933V41.298C78.3933 41.298 78.4263 41.3145 78.4428 41.331C78.5006 41.2483 78.5583 41.1739 78.6161 41.0912C79.5322 39.7516 80.4565 38.4202 81.3725 37.0722C81.4881 36.9068 81.6036 36.8407 81.8099 36.8407C82.4041 36.8572 82.9901 36.8407 83.6008 36.8407V44.9035H81.4055V40.4958Z" fill="#FFF0D4"/>
<path d="M60.9056 36.849H67.3593V38.7344H63.1338V39.9666H66.9631V41.7362H63.1256V43.0015H67.417V44.9035H60.9056V36.849Z" fill="#FFF0D4"/>
<path d="M58.2234 39.644C58.0501 39.4787 57.9098 39.3215 57.7447 39.1975C57.1423 38.7261 56.4656 38.569 55.7393 38.8584C55.0213 39.1396 54.6499 39.735 54.5344 40.471C54.4436 41.0829 54.5179 41.6784 54.8728 42.2076C55.467 43.0842 56.6471 43.324 57.5137 42.7286C57.7695 42.5549 58.0006 42.3234 58.2729 42.0836C58.5288 42.2655 58.8011 42.464 59.0817 42.6624C59.354 42.8609 59.6264 43.0511 59.8987 43.2496C59.0569 44.6967 57.0515 45.4244 55.2276 44.9531C53.445 44.49 52.2154 42.8774 52.1906 40.9837C52.1741 38.999 53.346 37.3699 55.1616 36.849C56.969 36.328 58.9414 36.9813 59.8079 38.4036C59.2798 38.8088 58.7516 39.2223 58.2069 39.644H58.2234Z" fill="#FFF0D4"/>
<path d="M70.5696 38.8006H68.1598V36.849H75.1912V38.784H72.8061V44.8869H70.5696V38.7923V38.8006Z" fill="#FFF0D4"/>
<path d="M118.262 10.7254V18.7716H116.059V12.6852H114.161C114.161 12.8258 114.161 12.9747 114.161 13.1152C114.161 14.3474 114.095 15.5713 113.806 16.7704C113.756 16.9606 113.698 17.1508 113.632 17.3327C113.187 18.4987 112.452 19.0114 111.206 18.8708C110.183 18.7551 109.159 18.7881 108.128 18.7799C107.922 18.7799 107.831 18.7137 107.765 18.5318C107.641 18.1845 107.501 17.8454 107.352 17.5146C107.311 17.4319 107.187 17.341 107.104 17.341C106.197 17.3244 105.281 17.3244 104.373 17.341C104.282 17.341 104.142 17.4402 104.1 17.5312C103.935 17.8785 103.812 18.2506 103.655 18.5979C103.622 18.6724 103.506 18.7633 103.432 18.7716C102.722 18.7881 102.004 18.7716 101.245 18.7716C102.4 16.0427 103.539 13.3385 104.678 10.6261C105.363 10.6261 106.032 10.6179 106.7 10.6344C106.783 10.6344 106.89 10.775 106.931 10.8742C107.963 13.2972 108.978 15.7201 110.001 18.1431C110.042 18.2424 110.084 18.3416 110.183 18.4408C110.224 17.9695 110.274 17.4981 110.315 17.0185C110.455 17.0185 110.595 17.0102 110.727 17.0185C111.148 17.0598 111.47 16.8779 111.586 16.4892C111.751 15.9352 111.899 15.3646 111.941 14.7857C112.04 13.4378 112.064 12.0816 112.114 10.7005H118.246L118.262 10.7254ZM104.835 15.5796H106.626C106.329 14.827 106.048 14.0993 105.735 13.3054C105.421 14.0993 105.132 14.8353 104.835 15.5796Z" fill="#FFF0D4"/>
<path d="M82.082 18.7799H79.9032V14.2482C79.7959 14.397 79.7299 14.4715 79.6804 14.5541C78.7643 15.8938 77.84 17.2252 76.924 18.5731C76.8084 18.7385 76.6929 18.8047 76.4948 18.7964C75.9006 18.7799 75.3064 18.7964 74.6957 18.7964V10.7254H76.8992V15.224C77.0147 15.0669 77.0808 14.9924 77.1385 14.9097C78.0463 13.5866 78.9624 12.2718 79.8537 10.9404C79.9775 10.7584 80.1013 10.7005 80.3076 10.7088C80.8936 10.7254 81.4713 10.7088 82.0737 10.7088V18.7799H82.082Z" fill="#FFF0D4"/>
<path d="M83.2621 14.7361C83.2621 12.3627 85.152 10.5352 87.6031 10.5352C90.0789 10.5352 91.9441 12.3545 91.9441 14.7609C91.9441 17.126 90.0459 18.9453 87.5783 18.9453C85.119 18.9453 83.2539 17.126 83.2621 14.7361ZM85.5482 14.7361C85.5399 15.96 86.4395 16.9275 87.6031 16.9358C88.775 16.944 89.6663 16.0096 89.6746 14.7609C89.6746 13.5453 88.775 12.5777 87.6196 12.5612C86.4477 12.5447 85.5564 13.4791 85.5482 14.7361Z" fill="#FFF0D4"/>
<path d="M132.573 13.7189V10.7254H134.809V18.7716H132.589V15.7367H129.725V18.7716H127.489V10.7254H129.701V13.7189H132.573Z" fill="#FFF0D4"/>
<path d="M98.2327 18.7716V15.7367H95.3525V18.7716H93.1407V10.7254H95.3442V13.7189H98.2162V10.7254H100.428V18.7716H98.2327Z" fill="#FFF0D4"/>
<path d="M66.3109 13.843V15.5878H62.465V16.8779H66.7565V18.7716H60.245V10.7254H66.6905V12.6025H62.4485V13.843H66.3109Z" fill="#FFF0D4"/>
<path d="M154.203 16.8779V18.7716H147.692V10.7254H154.137V12.6025H149.895V13.843H153.741V15.5878H149.904V16.8862H154.203V16.8779Z" fill="#FFF0D4"/>
<path d="M52.5039 10.7667C53.9234 10.7667 55.3264 10.7005 56.7293 10.7832C58.0415 10.8577 59.0071 11.7508 59.2299 12.8754C59.5931 14.7278 58.545 16.1915 56.6551 16.4148C56.0279 16.4892 55.3924 16.4809 54.7239 16.514V18.7799H52.5039V10.7667ZM54.7322 12.6191V14.7278C55.0788 14.7278 55.4006 14.7278 55.7225 14.7278C55.8628 14.7278 56.0031 14.7113 56.1351 14.6947C56.6963 14.6038 57.0512 14.2068 57.0595 13.6693C57.0677 13.1152 56.7376 12.7018 56.1599 12.6356C55.6977 12.586 55.2191 12.6273 54.7322 12.6273V12.6191Z" fill="#FFF0D4"/>
<path d="M119.723 18.7716V10.7254H121.935V13.2476C122.281 13.2476 122.603 13.2228 122.925 13.2476C123.462 13.2889 124.023 13.2972 124.534 13.4378C125.896 13.8016 126.548 14.7278 126.515 16.1254C126.49 17.3823 125.698 18.3416 124.402 18.6476C124.081 18.722 123.734 18.7716 123.404 18.7716C122.248 18.7881 121.085 18.7716 119.929 18.7716C119.863 18.7716 119.797 18.7633 119.715 18.7551L119.723 18.7716ZM121.951 16.9192C122.521 16.8861 123.065 16.9027 123.594 16.82C124.047 16.7538 124.262 16.4231 124.27 15.9765C124.287 15.5299 124.081 15.1661 123.643 15.0917C123.09 14.9924 122.512 15.0007 121.943 14.9594V16.9275L121.951 16.9192Z" fill="#FFF0D4"/>
<path d="M136.27 10.7254H138.473V13.2558C138.886 13.2558 139.274 13.231 139.654 13.2558C140.124 13.2889 140.603 13.3137 141.057 13.4378C142.418 13.8099 143.087 14.7443 143.037 16.1254C142.996 17.4402 142.195 18.3829 140.875 18.6724C140.627 18.7303 140.363 18.7799 140.116 18.7799C138.837 18.7881 137.566 18.7799 136.262 18.7799V10.7171L136.27 10.7254ZM138.49 16.8862C138.993 16.8862 139.488 16.9192 139.975 16.8779C140.504 16.8283 140.809 16.4644 140.817 15.9765C140.834 15.5051 140.545 15.1165 140.033 15.0586C139.53 15.0007 139.018 15.0503 138.49 15.0503V16.8944V16.8862Z" fill="#FFF0D4"/>
<path d="M67.9449 10.7171H73.7136V12.6687H70.1649V18.7716H67.9532V10.7171H67.9449Z" fill="#FFF0D4"/>
<path d="M146.231 10.7254V18.7716H144.019V10.7254H146.231Z" fill="#FFF0D4"/>
<path d="M18.2308 18.3749C17.942 19.2101 17.6614 20.0453 17.3725 20.8806C17.1002 21.6662 16.8196 22.46 16.539 23.2456C15.8705 23.3201 15.2021 23.4028 14.5418 23.4689C14.3603 23.4855 14.3025 23.593 14.2447 23.7418C14.0219 24.4116 13.7908 25.0732 13.568 25.7348C12.1073 30.0018 10.6548 34.2689 9.19401 38.536C9.12799 38.7427 9.13624 38.8585 9.32606 38.9825C9.80472 39.2885 10.2834 39.6193 10.762 39.9335C10.7786 39.9418 10.7951 39.9583 10.8116 39.9666C10.3907 41.2401 9.96152 42.5054 9.51587 43.8368C8.94643 43.3489 8.4265 42.9023 7.88182 42.4309C7.79103 42.679 7.70851 42.9106 7.62598 43.1504C6.43757 46.6401 5.24092 50.1299 4.05251 53.6196C3.97824 53.8511 3.88746 53.9421 3.62337 53.9421C2.44321 53.9256 1.27132 53.9421 0.0664062 53.9421C0.388266 52.9829 0.710125 52.0484 1.02373 51.1139C4.0195 42.3482 7.01527 33.5825 10.011 24.8168C10.0853 24.6101 10.0523 24.4861 9.88725 24.3372C9.37557 23.8741 8.8804 23.3862 8.31921 22.8652C8.39349 22.8156 8.45951 22.7743 8.52553 22.7329C9.40858 22.1293 10.2916 21.5256 11.1664 20.9136C11.282 20.8309 11.3975 20.7234 11.4388 20.5994C13.7908 13.7688 16.1264 6.92986 18.4619 0.0909648C18.4702 0.0661562 18.4702 0.0330781 18.4784 0C19.7659 0 21.0533 0 22.3407 0C22.0931 0.752527 21.8538 1.50505 21.598 2.24931C19.7494 7.66585 17.9007 13.0741 16.0521 18.4907C16.0191 18.5816 16.0026 18.6809 15.9778 18.7718C15.9613 18.8049 15.9531 18.8297 15.9366 18.8628C15.9531 18.8628 15.9696 18.8628 15.9943 18.8628C16.7453 18.6974 17.4963 18.532 18.2473 18.3749H18.2308Z" fill="#FFF0D4"/>
<path d="M29.8673 53.9338C28.6541 53.3136 27.4162 52.7348 26.2443 52.0484C24.4287 50.9816 22.8359 49.6089 21.4659 48.0046C21.4247 47.955 21.3834 47.8971 21.3421 47.8392C22.2417 47.7896 23.133 47.7482 24.0326 47.6986C25.4025 49.3277 27.0531 50.6178 28.91 51.6515C30.8659 52.743 32.9621 53.4542 35.1491 53.8925C35.1904 53.8925 35.2234 53.9173 35.2564 53.9338C33.4573 53.9338 31.6582 53.9338 29.859 53.9338H29.8673Z" fill="#FFF0D4"/>
<path d="M17.9337 41.6867C17.2322 39.5201 16.9351 37.2873 16.9434 35.0132C17.7852 34.7403 18.6187 34.4674 19.4605 34.1945C19.4275 36.1461 19.6008 38.0646 20.0795 39.9583C20.2033 40.438 20.3518 40.9093 20.4839 41.3807C19.6338 41.4799 18.7838 41.5792 17.9337 41.6867Z" fill="#FFF0D4"/>
<path d="M17.4386 30.5724C17.8182 28.5629 18.4619 26.6361 19.2789 24.759C19.4523 24.362 19.6421 23.9734 19.8319 23.5764C20.5086 23.7914 21.1853 24.0147 21.8538 24.2297C20.9708 26.0655 20.3353 27.9758 19.9474 29.9688C19.1139 30.1672 18.2804 30.3657 17.4468 30.5642L17.4386 30.5724Z" fill="#FFF0D4"/>
<path d="M23.2155 18.1185C24.8248 16.0015 26.6652 14.1078 28.7119 12.4291C28.9842 13.2312 29.2483 14.0417 29.5207 14.8438C28.0847 15.8858 26.789 17.0766 25.6419 18.4328C24.8331 18.3253 24.0243 18.226 23.2155 18.1185Z" fill="#FFF0D4"/>
<path d="M24.0399 47.6984C24.8487 47.533 25.674 47.4172 26.4745 47.1939C31.6986 45.7385 35.3463 42.5382 37.2362 37.3284C39.1343 42.8772 41.016 48.393 42.9141 53.9336C42.8151 53.9336 42.7491 53.9501 42.6913 53.9501C40.2897 53.9501 37.8799 53.9501 35.4783 53.9501C35.4123 53.9501 35.338 53.9501 35.272 53.9419C35.239 53.9253 35.1977 53.9088 35.1647 53.9005C32.9695 53.4622 30.8815 52.7511 28.9256 51.6595C27.0687 50.6258 25.4182 49.3357 24.0482 47.7066L24.0399 47.6984Z" fill="#FFF0D4"/>
<path d="M29.8664 53.9336C28.0591 53.9336 26.2434 53.9419 24.4361 53.9419C18.4198 53.9419 12.3952 53.9419 6.37894 53.9419H6.04883C7.20422 50.5596 8.35136 47.2022 9.4985 43.8531C10.1092 44.25 10.6869 44.6635 11.2976 45.0273C13.988 46.6316 16.893 47.533 20.0126 47.7728C20.4582 47.8059 20.9039 47.8224 21.3495 47.839C21.3908 47.8968 21.4321 47.9547 21.4733 48.0044C22.8433 49.6169 24.4278 50.9814 26.2517 52.0481C27.4236 52.7345 28.6615 53.3051 29.8747 53.9336H29.8664Z" fill="#FFF0D4"/>
<path d="M21.853 24.2295C24.8652 25.5278 27.0605 27.5952 27.9023 30.8534C28.8596 34.5498 27.4153 37.9569 24.1142 39.9664C22.9918 40.6527 21.7787 41.1241 20.4912 41.3805C20.3509 40.9091 20.2024 40.4377 20.0869 39.9581C19.6082 38.0644 19.4349 36.1376 19.4679 34.1942C19.5504 34.1612 19.6247 34.1198 19.7155 34.095C21.0689 33.6567 22.4141 33.2102 23.7676 32.7719C24.3783 32.5734 24.9973 32.3667 25.608 32.1682C25.608 32.1517 25.608 32.1269 25.5997 32.1103H19.5009C19.8475 31.672 20.1611 31.2751 20.4665 30.8864C20.7801 30.4978 21.0854 30.1008 21.4486 29.6543C20.8956 29.7783 20.4252 29.8776 19.9548 29.9768C20.3427 27.9838 20.9782 26.0653 21.8612 24.2377L21.853 24.2295Z" fill="#FFF0D4"/>
<path d="M18.2382 18.3829C18.3785 17.9198 18.5106 17.4567 18.6674 17.0019C20.5573 11.4613 22.4554 5.92074 24.3453 0.388429C24.3783 0.297465 24.4113 0.2065 24.4608 0.065918C24.5021 0.140344 24.5269 0.181691 24.5434 0.214769C25.9381 4.28338 27.3246 8.35198 28.7193 12.4289C26.6643 14.1158 24.824 16.0096 23.2229 18.1183C22.0015 18.1431 20.7801 18.1596 19.5587 18.2093C19.113 18.2258 18.6756 18.325 18.2382 18.3829Z" fill="#FFF0D4"/>
<path d="M10.8024 39.9746C10.8024 39.9746 10.7694 39.9498 10.7529 39.9416C10.8107 39.8506 10.885 39.7762 10.918 39.6769C11.0665 39.28 11.1986 38.8748 11.3306 38.4696C11.9413 36.6916 12.5438 34.9137 13.1545 33.1357C13.1958 33.0034 13.2205 32.8794 13.4186 32.8794C14.6317 32.8877 15.8532 32.8794 17.0663 32.8794C17.0416 33.144 17.0251 33.4086 17.0003 33.6815C16.6537 34.2108 16.3071 34.74 15.9687 35.2693L15.9605 35.2858C15.9605 35.2858 15.9605 35.2858 15.9605 35.2941C15.9605 35.2858 15.9605 35.2693 15.9605 35.261C16.2823 35.1783 16.6124 35.0956 16.9343 35.0129C16.9343 37.287 17.2149 39.5198 17.9246 41.6864C15.5561 41.7774 13.3278 41.2564 11.2151 40.1897C11.0748 40.1152 10.9345 40.0491 10.7942 39.9746H10.8024Z" fill="#FFF0D4"/>
<path d="M37.2279 37.2953C35.3215 31.7299 33.4481 26.2472 31.5748 20.7645C34.2157 22.3357 36.1633 24.4858 37.2527 27.3554C38.5071 30.6384 38.2925 33.9214 37.2197 37.2953H37.2279Z" fill="#FFF0D4"/>
<path d="M16.5381 23.2537C17.6523 23.2041 18.7416 23.3116 19.8228 23.5762C19.6412 23.9731 19.4431 24.3618 19.2698 24.7587C18.4528 26.6276 17.8173 28.5627 17.4295 30.5722C17.0663 30.6632 16.7115 30.7624 16.3483 30.8451C15.4983 31.0436 14.6483 31.2338 13.7982 31.424C13.79 31.424 13.7817 31.4074 13.7735 31.3991C13.7735 31.3495 13.7735 31.2999 13.7982 31.2503C14.7143 28.5792 15.6221 25.9082 16.5381 23.2454V23.2537Z" fill="#FFF0D4"/>
<path d="M25.6492 18.4243C26.7964 17.0681 28.0921 15.8772 29.5281 14.8353C29.8004 15.5961 30.0728 16.3569 30.3368 17.1177C30.7 18.1679 31.0548 19.2099 31.4097 20.2601C31.4427 20.3593 31.4592 20.4668 31.484 20.5743C31.4345 20.5578 31.3684 20.5495 31.3272 20.5247C29.6106 19.5324 27.7702 18.8543 25.8226 18.4656C25.7648 18.4573 25.707 18.4325 25.6492 18.416V18.4243Z" fill="#FFF0D4"/>
<path d="M31.4766 20.583C31.4766 20.583 31.5022 20.6 31.5193 20.6085L31.4936 20.6255C31.4936 20.6255 31.4936 20.6 31.4851 20.583H31.4766Z" fill="#FFF0D4"/>
<path d="M17.0753 32.8798C17.2238 32.8715 17.3641 32.8632 17.5869 32.8467C17.3724 33.1609 17.1825 33.4173 17.001 33.6819C17.0257 33.4173 17.0422 33.1526 17.067 32.8798H17.0753Z" fill="#FFF0D4"/>
<path d="M13.8003 31.4242C13.8003 31.4242 13.7661 31.4327 13.749 31.4412C13.749 31.4327 13.7661 31.4157 13.7746 31.4072C13.7832 31.4072 13.7917 31.4242 13.8003 31.4327V31.4242Z" fill="#FFF0D4"/>
</g>
<defs>
<clipPath id="clip0_77_25602">
<rect width="158" height="54" fill="white"/>
</clipPath>
</defs>
</svg>
