<svg width="406" height="52" viewBox="0 0 406 52" fill="none" xmlns="http://www.w3.org/2000/svg">
<g clip-path="url(#clip0_77_25612)">
<path d="M79.9447 10.0083C85.5787 10.0083 90.1429 12.4578 92.0684 14.2775L88.8592 18.1267C87.2903 16.727 83.7958 14.8374 79.9447 14.8374C72.8845 14.8374 68.4629 19.5965 68.4629 26.1052C68.4629 32.614 72.6706 37.373 80.0161 37.373C84.295 37.373 88.0034 35.1335 89.5724 33.5938L92.6389 37.583C90.7134 39.5426 85.8639 42.2021 79.9447 42.2021C69.5327 42.2021 63.1143 35.3434 63.1143 26.0352C63.1143 16.867 69.7466 10.0083 79.9447 10.0083Z" fill="#FFF0D4"/>
<path d="M112.036 10.0083C121.664 10.0083 128.653 16.867 128.653 26.1752C128.653 35.4834 121.664 42.3421 112.036 42.3421C102.409 42.3421 95.4199 35.4834 95.4199 26.1752C95.4199 16.867 102.409 10.0083 112.036 10.0083ZM112.036 37.443C118.526 37.443 123.376 32.614 123.376 26.1752C123.376 19.6664 118.598 14.9074 112.036 14.9074C105.547 14.9074 100.697 19.7364 100.697 26.1752C100.697 32.614 105.547 37.443 112.036 37.443Z" fill="#FFF0D4"/>
<path d="M161.744 32.6138C161.744 37.1629 158.748 41.5721 151.118 41.5721H134.358V10.708H150.119C156.538 10.708 160.175 14.5573 160.175 18.9664C160.175 21.4159 159.034 23.6555 156.252 25.4752C159.034 26.385 161.744 28.4146 161.744 32.6138ZM139.493 15.5371V23.7955L149.477 23.7255C153.043 23.7255 154.897 21.7659 154.897 19.4563C154.897 17.3567 153.328 15.5371 150.19 15.5371H139.493ZM151.403 36.743C155.04 36.743 156.466 34.7834 156.466 32.6138C156.466 30.3042 154.826 28.3446 151.545 28.3446H139.564V36.743H151.403Z" fill="#FFF0D4"/>
<path d="M182.426 25.6851L196.332 41.5721H189.486L177.862 28.0647H171.871V41.5721H166.665V10.708H171.871V23.4456H177.862L189.201 10.708H196.118L182.426 25.6851Z" fill="#FFF0D4"/>
<path d="M212.307 10.0083C221.935 10.0083 228.924 16.867 228.924 26.1752C228.924 35.4834 221.935 42.3421 212.307 42.3421C202.679 42.3421 195.69 35.4834 195.69 26.1752C195.69 16.867 202.679 10.0083 212.307 10.0083ZM212.307 37.443C218.797 37.443 223.646 32.614 223.646 26.1752C223.646 19.6664 218.868 14.9074 212.307 14.9074C205.817 14.9074 200.968 19.7364 200.968 26.1752C200.968 32.614 205.817 37.443 212.307 37.443Z" fill="#FFF0D4"/>
<path d="M263.797 10.708H268.789V41.5721H263.583V18.6165L253.242 32.1939H250.104L239.764 18.6165V41.5721H234.558V10.708H239.55L251.673 26.525L263.797 10.708Z" fill="#FFF0D4"/>
<path d="M292.465 23.3056C299.383 23.3056 303.163 27.2948 303.163 32.4038C303.163 37.5129 299.383 41.5721 292.822 41.5721H275.706V10.708H300.239V15.5371H280.912V23.3056H292.465ZM292.608 36.743C296.174 36.743 297.814 34.7834 297.814 32.4738C297.814 30.1643 296.174 28.2046 292.608 28.2046H280.912V36.743H292.608Z" fill="#FFF0D4"/>
<path d="M331.903 41.5721L328.48 33.8736H313.575L310.152 41.5721H304.518L318.21 10.708H323.915L337.608 41.5721H331.903ZM315.643 29.2544H326.483L321.063 16.9368L315.643 29.2544Z" fill="#FFF0D4"/>
<path d="M364.779 10.708H369.985V41.5721H364.779V28.3446H346.594V41.5721H341.388V10.708H346.594V23.5155H364.779V10.708Z" fill="#FFF0D4"/>
<path d="M392.664 25.6851L406.642 41.5721H399.724L388.1 28.0647H382.109V41.5721H376.903V10.708H382.109V23.4456H388.1L399.439 10.708H406.357L392.664 25.6851Z" fill="#FFF0D4"/>
<path d="M0.855469 26.1748C0.855469 40.3121 12.5512 51.7899 27.0283 51.7899C27.3849 51.7899 27.7415 51.7899 28.098 51.7899V42.0617H27.0283C18.0425 42.0617 10.8397 34.9231 10.8397 26.1748C10.8397 17.4265 18.1139 10.2879 27.0283 10.2879H28.098V0.489746C27.7415 0.489746 27.3849 0.489746 27.0283 0.489746C12.5512 0.489746 0.855469 11.9675 0.855469 26.1748Z" fill="#FFF0D4"/>
<path d="M32.235 0.97998V14.3474H27.0289C20.3252 14.3474 14.9766 19.5964 14.9766 26.1751C14.9766 32.6839 20.3966 38.0029 27.0289 38.0029H32.235V51.3703C44.1447 48.9907 53.1304 38.6327 53.1304 26.2451C53.1304 13.7175 44.1447 3.35952 32.235 0.97998Z" fill="#FFF0D4"/>
</g>
<defs>
<clipPath id="clip0_77_25612">
<rect width="406" height="52" fill="white"/>
</clipPath>
</defs>
</svg>
