<svg width="160" height="52" viewBox="0 0 160 52" fill="none" xmlns="http://www.w3.org/2000/svg">
<g clip-path="url(#clip0_77_25625)">
<path d="M152.641 19.2839H159.982C159.054 12.2493 153.836 8.55176 146.583 8.55176C139.242 8.55176 134.333 12.3847 134.333 18.9682C134.333 26.4536 140.657 28.1219 144.018 28.7985C148.352 29.6552 152.597 29.7455 152.597 33.5331C152.597 36.1034 150.474 37.366 147.467 37.366C143.753 37.366 141.276 35.4721 140.657 32.0453H133.404C133.846 39.4404 139.109 43.4085 146.848 43.4085C154.012 43.4085 159.894 40.0717 159.894 32.8569C159.894 25.1008 153.128 23.703 148.396 22.9814C145.168 22.4855 141.63 22.0345 141.63 18.5623C141.63 16.1274 143.443 14.6394 146.494 14.6394C150.032 14.6394 152.155 16.6686 152.641 19.2839Z" fill="#FFF0D4"/>
<path d="M129.38 9.6792H122.437V42.3713H129.38V9.6792Z" fill="#FFF0D4"/>
<path d="M101.475 30.963H110.541C109.125 34.4804 105.941 36.1485 102.271 36.1485C95.8143 36.1485 92.8071 31.0532 92.8071 26.0028C92.8071 20.9072 95.6373 15.7216 102.227 15.7216C106.251 15.7216 109.258 17.6155 110.408 20.9974L117.882 20.9975C116.599 13.3769 110.054 9.00293 102.315 9.00293C92.7629 9.00293 85.5986 15.6314 85.5986 26.093C85.5986 36.6898 93.3818 42.9577 102.271 42.9577C111.027 42.9577 117.882 37.1408 117.882 28.032V25.3715H101.475V30.963Z" fill="#FFF0D4"/>
<path d="M69.7227 9.00293C61.7625 9.00293 55.8808 14.0983 55.9251 22.5757H63.0893C63.0008 18.8782 65.3003 15.4962 69.3689 15.4962C72.9069 15.4962 74.9853 18.0215 74.9853 20.9072C74.9853 23.7932 72.9068 25.4166 69.0593 27.1753C63.7967 29.5652 60.0379 31.0983 56.1903 32.4511V42.3715H82.9898V35.6977H64.5917C64.5917 35.6977 64.6529 35.6782 64.6831 35.6689C67.8124 34.7021 70.1633 33.6517 72.9511 32.406C78.9211 29.7005 82.3264 26.3184 82.3264 20.5466C82.3264 13.467 77.1965 9.00293 69.7227 9.00293Z" fill="#FFF0D4"/>
<path d="M37.0857 30.873C28.0641 30.9181 26.6048 36.4645 26.1184 41.1541L25.8974 43.2283H24.084L23.863 41.1541C23.3766 36.4645 21.873 30.9181 13.1609 30.873C11.7016 27.8065 11.0825 25.3264 11.0825 22.5307C11.0825 15.5415 16.6989 9.00283 25.0127 9.00283C33.3267 9.00283 38.8546 15.4961 38.8546 22.576C38.8546 25.3264 38.5893 27.8065 37.0857 30.873ZM24.9244 0.525391C11.2153 0.525391 -0.0175781 11.9791 -0.0175781 26.0027C-0.0175781 40.0718 11.2153 51.5253 24.9244 51.5253C38.7661 51.5253 49.9547 40.0718 49.9547 26.0027C49.9547 11.9791 38.7661 0.525391 24.9244 0.525391Z" fill="#FFF0D4"/>
</g>
<defs>
<clipPath id="clip0_77_25625">
<rect width="160" height="51" fill="white" transform="translate(0 0.5)"/>
</clipPath>
</defs>
</svg>
