<svg width="141" height="54" viewBox="0 0 141 54" fill="none" xmlns="http://www.w3.org/2000/svg">
<path d="M28.0353 53.9988C23.4654 53.9308 19.1183 52.9692 15.031 50.8995C13.0201 49.8814 11.1804 48.6131 9.54061 47.0588C9.48546 47.0058 9.40387 46.9596 9.38319 46.8951C9.35331 46.7994 9.33033 46.6691 9.374 46.5941C9.40387 46.5422 9.56934 46.5192 9.64288 46.5538C9.91177 46.6771 10.1669 46.8316 10.4289 46.9712C11.9847 47.8013 13.5579 48.5865 15.2838 49.0132C17.474 49.5551 19.6998 49.7534 21.944 49.6047C26.5335 49.3003 30.6461 47.7241 34.2002 44.7712C36.8983 42.5297 38.8702 39.7417 40.2203 36.5052C41.0293 34.5669 41.5981 32.5607 41.8658 30.476C42.0623 28.9482 42.06 27.4159 41.8969 25.8812C41.6234 23.3122 40.865 20.8944 39.6918 18.6033C38.7012 16.6685 37.4338 14.9298 35.9652 13.334C35.8859 13.2475 35.8572 13.1149 35.8055 13.003C35.9377 12.9904 36.079 12.9408 36.2008 12.9708C38.823 13.6188 41.1833 14.8145 43.2976 16.4875C47.1724 19.5534 49.7406 23.476 50.8771 28.3118C51.1402 29.4325 51.254 30.5728 51.3206 31.727C51.4711 34.3352 51.0529 36.8488 50.2117 39.3001C49.1155 42.4986 47.4355 45.3419 44.9753 47.686C42.5679 49.9806 39.7492 51.5775 36.6053 52.6141C34.8288 53.1998 33.0132 53.6022 31.1505 53.7752C30.114 53.872 29.073 53.9262 28.0342 54L28.0353 53.9988Z" fill="#FFF0D4"/>
<path d="M20.2915 46.8628C13.4303 46.6852 8.01114 43.8096 3.96287 38.3085C2.1404 35.8318 0.905123 33.0888 0.353556 30.0529C0.215665 29.2965 0.116843 28.5286 0.0651337 27.7607C0.00538068 26.8636 -0.0118558 25.9608 0.00767887 25.0626C0.021468 24.4422 0.111097 23.8231 0.196131 23.2074C0.887887 18.2032 2.89076 13.7595 5.97494 9.79883C8.92352 6.0123 12.5501 3.08822 17.0189 1.27798C17.6475 1.02316 18.3001 0.832908 18.9413 0.609221C19.0976 0.555029 19.2734 0.514673 19.3205 0.709534C19.3424 0.79947 19.2321 0.966658 19.1355 1.03238C17.9543 1.84872 16.7086 2.58205 15.5894 3.47449C13.467 5.16598 11.91 7.34173 10.6495 9.7308C9.35558 12.1833 8.54547 14.796 8.29726 17.5598C8.18465 18.8178 8.12834 20.1011 8.23521 21.3556C8.57764 25.3624 9.9646 28.999 12.3513 32.2367C14.2461 34.8068 16.5018 36.9825 19.3079 38.5414C21.266 39.6287 23.3504 40.3459 25.5486 40.7633C27.2183 41.0815 28.9006 41.1496 30.5863 41.0781C32.0031 41.0181 33.4027 40.7691 34.7874 40.452C34.8816 40.4301 34.9896 40.4704 35.0919 40.482C35.0517 40.5904 35.0402 40.7253 34.9666 40.8025C33.6222 42.2346 32.0675 43.3922 30.3427 44.3192C27.7894 45.6913 25.0672 46.5042 22.1806 46.7487C21.5417 46.8029 20.9017 46.8282 20.2904 46.8651L20.2915 46.8628Z" fill="#FFF0D4"/>
<path d="M54.8426 26.4496C54.8173 28.2853 54.6427 30.1013 54.2233 31.8896C54.2141 31.9265 54.198 31.9622 54.1922 32.0003C54.1635 32.1606 54.1095 32.3381 53.9164 32.2782C53.8268 32.2505 53.736 32.0718 53.7291 31.9553C53.6912 31.3535 53.6774 30.7516 53.6614 30.1485C53.5683 26.6722 52.4697 23.5048 50.6691 20.5738C47.801 15.9052 43.7699 12.7229 38.5105 11.149C37.2982 10.7858 36.0595 10.5379 34.8001 10.4307C30.2094 10.0409 25.8429 10.8273 21.7877 13.0676C18.4243 14.9263 15.8653 17.6152 13.9681 20.9486C13.0879 22.4959 12.4111 24.1321 11.8905 25.8351C11.8607 25.9319 11.7779 26.0115 11.7193 26.1003C11.64 26.008 11.5113 25.925 11.4895 25.8212C11.2689 24.7743 10.9621 23.7308 10.8759 22.6712C10.3197 15.8268 12.5042 9.9902 17.4775 5.26741C20.1836 2.69732 23.4551 1.15803 27.1069 0.454686C28.0388 0.274814 28.9937 0.21947 29.936 0.0960963C31.0517 -0.0503379 32.1675 -0.00998199 33.2833 0.0880251C36.7467 0.392424 39.9009 1.56966 42.7783 3.50328C46.9185 6.28669 49.9084 10.0536 52.0469 14.532C53.2523 17.0559 54.0762 19.7056 54.5013 22.4717C54.6323 23.3226 54.6772 24.1874 54.7518 25.0476C54.7921 25.5145 54.8139 25.9827 54.8438 26.4496H54.8426Z" fill="#FFF0D4"/>
<path d="M130.427 25.5226C130.796 25.5226 131.091 25.5445 131.382 25.5169C131.731 25.4834 131.932 25.6552 132.106 25.925C133.087 27.4482 134.073 28.9679 135.058 30.4898C136.933 33.3874 138.812 36.2826 140.676 39.1871C140.834 39.4339 140.91 39.7406 140.988 40.0288C141.043 40.2306 140.898 40.3563 140.714 40.3989C140.566 40.4324 140.41 40.4462 140.258 40.4462C137.999 40.4485 135.739 40.4439 133.48 40.452C133.087 40.4531 132.817 40.3113 132.6 39.9781C130.615 36.9226 128.62 33.874 126.629 30.8231C126.337 30.3757 126.183 30.3676 125.828 30.7723C125.126 31.5725 124.43 32.3785 123.717 33.1695C123.489 33.422 123.4 33.6906 123.402 34.0285C123.414 35.8537 123.408 37.679 123.407 39.5042C123.407 40.1845 123.147 40.4462 122.474 40.4462C120.779 40.4462 119.084 40.4462 117.389 40.4462C116.725 40.4462 116.462 40.1868 116.462 39.5296C116.462 31.1517 116.462 22.7738 116.462 14.3959C116.462 13.7295 116.717 13.4724 117.378 13.4724C119.092 13.4724 120.805 13.4724 122.52 13.4724C123.139 13.4724 123.407 13.7422 123.407 14.3694C123.407 17.3096 123.407 20.2487 123.412 23.1889C123.412 23.3261 123.432 23.4875 123.506 23.5948C123.661 23.8231 123.946 23.7758 124.177 23.5025C125.057 22.4625 125.936 21.4225 126.815 20.3824C128.666 18.1928 130.52 16.0032 132.369 13.8113C132.57 13.5727 132.805 13.4677 133.118 13.4689C135.224 13.4758 137.331 13.4724 139.437 13.4735C139.541 13.4735 139.649 13.4712 139.752 13.492C140.134 13.5704 140.314 13.8921 140.156 14.2518C140.08 14.4224 139.957 14.5781 139.833 14.7211C136.772 18.2367 133.706 21.7488 130.643 25.262C130.588 25.3254 130.536 25.3923 130.43 25.5215L130.427 25.5226Z" fill="#FFF0D4"/>
<path d="M65.5969 27.2729C65.6165 23.6155 66.615 20.4378 68.9098 17.7282C70.8081 15.4867 73.2304 14.0927 76.0732 13.4366C76.7868 13.2717 77.5269 13.2198 78.2565 13.1276C79.4987 12.9696 80.7374 13.0434 81.9693 13.2337C84.2008 13.5796 86.2669 14.3406 88.0825 15.7173C88.9684 16.3883 89.7303 17.1793 90.3358 18.1156C90.5611 18.4649 90.5415 18.6748 90.2428 18.9504C88.9948 20.0999 87.7446 21.2483 86.4921 22.3933C86.1911 22.6689 85.9061 22.6562 85.6464 22.3518C84.3835 20.8748 82.7863 19.9535 80.8719 19.7436C78.4519 19.4784 76.2111 19.9546 74.4461 21.8145C73.7544 22.5432 73.2982 23.4114 72.9856 24.3627C72.5593 25.6633 72.4731 27.0123 72.6995 28.3348C73.3039 31.8619 75.6021 33.6203 78.0957 34.1184C78.7955 34.2579 79.5263 34.364 80.233 34.3225C82.7461 34.1749 84.8489 33.1522 86.4634 31.1805C86.4875 31.1505 86.5105 31.1194 86.5358 31.0917C86.7989 30.7977 87.1103 30.7804 87.3792 31.0698C88.4984 32.2689 89.6131 33.4727 90.7242 34.6788C90.9564 34.9301 90.9506 35.1434 90.7311 35.4559C89.5671 37.1163 88.0606 38.3765 86.2703 39.3047C84.9868 39.97 83.6309 40.4278 82.2094 40.6687C81.5016 40.7887 80.7834 40.8624 80.0664 40.904C79.3781 40.9432 78.6794 40.9697 77.9945 40.904C74.2531 40.5419 70.992 39.1871 68.5639 36.18C67.3332 34.6557 66.5197 32.9204 66.0819 31.0156C65.8946 30.2004 65.7911 29.3656 65.6785 28.5355C65.6165 28.0742 65.6165 27.6038 65.5958 27.2706L65.5969 27.2729Z" fill="#FFF0D4"/>
<path d="M101.816 19.9201C101.816 20.0654 101.816 20.1784 101.816 20.2914C101.816 26.6999 101.819 33.1084 101.81 39.5169C101.81 39.7441 101.761 40.015 101.631 40.1834C101.51 40.3413 101.249 40.4705 101.047 40.4728C99.247 40.4947 97.4464 40.4947 95.6457 40.4808C95.1229 40.4774 94.8575 40.1499 94.8575 39.5872C94.8575 35.0144 94.8575 30.4403 94.8575 25.8674C94.8575 22.0624 94.8575 18.2574 94.8575 14.4525C94.8575 13.7549 95.1321 13.4816 95.8342 13.4816C101.359 13.4816 106.884 13.4816 112.409 13.4816C113.128 13.4816 113.402 13.7537 113.402 14.4698C113.402 15.9595 113.402 17.448 113.402 18.9377C113.402 19.6399 113.126 19.9189 112.431 19.9189C109.012 19.9189 105.593 19.9189 102.175 19.9189C102.062 19.9189 101.951 19.9189 101.814 19.9189L101.816 19.9201Z" fill="#FFF0D4"/>
</svg>
