<svg width="279" height="34" viewBox="0 0 279 34" fill="none" xmlns="http://www.w3.org/2000/svg">
<g clip-path="url(#clip0_77_25636)">
<path fill-rule="evenodd" clip-rule="evenodd" d="M192.054 17.9215H203.591V27.9321C203.591 29.5811 203.475 30.5123 203.242 30.881C203.009 31.463 202.66 31.8316 202.292 32.0644C201.71 32.4136 200.876 32.53 199.946 32.53H198.879V33.4806H216.059V32.6658H214.992C214.042 32.6658 213.344 32.433 212.763 32.2002C212.181 31.851 211.813 31.6182 211.696 31.1332C211.463 30.6675 211.347 29.7169 211.347 28.0679V6.86332C211.347 5.21429 211.463 4.14727 211.696 3.79806C211.929 3.33245 212.278 2.98325 212.646 2.61464C213.228 2.26543 214.062 2.14903 214.992 2.14903H216.059V1.19841H198.996V2.01323H200.062C201.012 2.01323 201.71 2.12963 202.292 2.47884C202.874 2.82804 203.242 3.17725 203.358 3.66226C203.475 4.01146 203.707 5.07848 203.707 6.72751V15.7875H192.17V6.74691C192.17 5.09788 192.17 4.03086 192.403 3.68166C192.636 3.21605 192.985 2.86684 193.353 2.49824C193.935 2.14903 194.652 2.03263 195.583 2.03263H196.766V1.21781H179.586V2.03263H180.769C181.719 2.03263 182.417 2.14903 182.999 2.49824C183.464 2.84744 183.949 3.19665 184.065 3.68166C184.298 4.03086 184.298 5.09788 184.298 6.74691V27.9321C184.298 29.5811 184.298 30.5123 184.065 30.881C183.833 31.463 183.484 31.8316 183.115 32.0644C182.533 32.4136 181.816 32.53 180.885 32.53H179.703V33.4806H196.882V32.6658H195.699C194.749 32.6658 194.051 32.433 193.469 32.2002C193.004 31.851 192.519 31.6182 192.403 31.1332C192.17 30.6675 192.17 29.7169 192.17 28.0679V17.9409H192.054V17.9215ZM130.413 3.09965H133.826C136.288 3.09965 137.936 3.21605 138.886 3.56526C140.418 4.03086 141.601 4.74868 142.415 5.67989C143.113 6.74691 143.831 8.39594 144.296 10.7434H145.246V1.33421H117.945V2.14903H119.128C120.194 2.14903 121.009 2.26543 121.59 2.84744C122.056 3.08025 122.289 3.54586 122.541 4.03086C122.541 4.38007 122.657 5.33069 122.657 6.74691V27.9321C122.657 29.5811 122.541 30.5123 122.424 30.881C122.192 31.463 121.843 31.8316 121.474 32.0644C120.892 32.4136 120.175 32.53 119.244 32.53H118.062V33.4806H146.293L147.825 23.2372H146.875C146.061 26.0697 144.762 28.1843 142.881 29.6005C141.116 30.9004 138.654 31.5988 135.59 31.5988H133.593C132.643 31.5988 132.061 31.4824 131.596 31.2496C131.13 31.0168 130.898 30.6675 130.646 30.2989C130.529 29.9497 130.529 28.8827 130.529 27.1173V18.0573C132.061 18.0573 133.244 18.1737 134.058 18.6393C134.873 19.1049 135.59 19.9392 136.172 21.1032C136.754 22.2866 137.238 23.8192 137.471 25.5847H138.421V8.62875H137.471C137.238 11.0926 136.521 12.9744 135.706 14.2742C134.756 15.5741 133.244 16.1561 131.227 16.1561H130.646V3.09965H130.413ZM57.7007 33.4612H68.4041V32.6464C67.2213 32.6464 66.2905 32.53 65.6894 32.1808C65.2241 32.0644 64.7393 31.7152 64.5066 31.366C64.274 31.0168 64.1576 30.5511 64.1576 30.0661C64.1576 29.5811 64.274 29.1155 64.3903 28.5335C64.623 27.9515 64.972 26.7681 65.8058 25.119L72.2821 10.7628L79.2237 26.7681C79.9217 28.4171 80.4065 29.4841 80.5229 29.8333C80.6392 30.1825 80.6392 30.5317 80.6392 30.9004C80.6392 31.366 80.5229 31.7152 80.1738 31.851C79.5921 32.2002 78.642 32.433 77.2265 32.433H76.7612V33.5H92.5253V32.6852C91.2262 32.5688 90.2954 32.2196 89.9464 31.6182C89.4811 31.1526 88.5309 29.2707 87.2318 26.2055L75.9468 0.5H75.1324L63.8474 25.0996C62.5483 28.0485 61.5012 29.9303 60.9001 30.7451C59.95 31.8122 58.9029 32.3942 57.7201 32.627C57.7007 32.6464 57.7007 33.4612 57.7007 33.4612ZM13.2393 3.09965H16.652C19.1145 3.09965 20.879 3.21605 21.7128 3.56526C23.2446 4.03086 24.4274 4.74868 25.3581 5.67989C26.1725 6.74691 26.8899 8.39594 27.3553 10.7434H28.3054V1.33421H0.771484V2.14903H1.83793C2.90439 2.14903 3.71877 2.26543 4.30047 2.84744C4.76583 3.08025 4.99851 3.54586 5.25059 4.03086C5.36693 4.38007 5.36693 5.33069 5.36693 6.74691V27.9321C5.36693 29.5811 5.25058 30.5123 5.0179 30.881C4.78522 31.463 4.55254 31.8316 4.06779 32.0644C3.48609 32.4136 2.65232 32.53 1.7216 32.53H0.771484V33.4806H29.1198L30.6516 23.2372H29.7015C28.8871 26.0697 27.588 28.1843 25.8235 29.6005C23.9426 30.9004 21.4801 31.5988 18.4165 31.5988H16.4193C15.4692 31.5988 14.7711 31.4824 14.4221 31.2496C13.9567 31.0168 13.6077 30.6675 13.472 30.2989C13.3557 29.9497 13.2393 28.8827 13.2393 27.1173V18.0573C14.7711 18.0573 15.9539 18.1737 16.7683 18.6393C17.5827 19.1049 18.3001 19.9392 18.9982 21.1032C19.5799 22.2866 19.9483 23.8192 20.2973 25.5847H21.1117V8.62875H20.2973C19.9483 11.0926 19.3472 12.9744 18.4165 14.2742C17.4663 15.5741 15.9539 16.1561 13.9374 16.1561H13.2393V3.09965ZM46.4157 14.2742C44.8839 14.2742 43.5848 15.4577 43.5848 16.9903C43.5848 18.5229 44.8839 19.7064 46.4157 19.7064C47.9475 19.7064 49.1303 18.4065 49.1303 16.9903C49.1303 15.5741 47.9475 14.2742 46.4157 14.2742ZM103.946 14.2742C102.414 14.2742 101.115 15.4577 101.115 16.9903C101.115 18.5229 102.414 19.7064 103.946 19.7064C105.477 19.7064 106.776 18.4065 106.776 16.9903C106.757 15.5741 105.477 14.2742 103.946 14.2742ZM164.636 14.2742C163.105 14.2742 161.806 15.4577 161.806 16.9903C161.806 18.5229 163.105 19.7064 164.636 19.7064C166.168 19.7064 167.467 18.4065 167.467 16.9903C167.467 15.5741 166.285 14.2742 164.636 14.2742ZM231.939 14.2742C230.408 14.2742 229.108 15.4577 229.108 16.9903C229.108 18.5229 230.408 19.7064 231.939 19.7064C233.471 19.7064 234.77 18.4065 234.77 16.9903C234.751 15.5741 233.471 14.2742 231.939 14.2742ZM258.058 7.09612L249.235 26.1667C248.169 28.6305 247.238 30.2795 246.521 31.1138C245.823 31.8122 244.756 32.2972 243.573 32.53V33.4806H254.393V32.6658C252.745 32.5494 251.678 32.3166 251.213 32.0838C250.515 31.6182 250.147 30.9004 250.147 30.0855C250.147 29.3871 250.379 28.5529 250.845 27.5053L252.26 24.3236H258.135H263.894L265.659 28.3201C266.124 29.3871 266.357 29.9691 266.357 30.0855C266.473 30.3183 266.589 30.6675 266.589 30.9004C266.589 31.366 266.357 31.7152 266.008 31.9674C265.542 32.3166 264.592 32.5494 263.293 32.5494H262.711V33.5H278.359V32.6852C277.409 32.6852 276.595 32.336 276.013 31.8704C275.199 31.2884 274.366 29.6393 273.182 27.1561L261.412 0.558201H260.947L258.058 7.09612ZM258.058 22.5194H253.113L258.058 11.5776V11.4612L263.002 22.5194H258.058Z" fill="#FFF0D4"/>
</g>
<defs>
<clipPath id="clip0_77_25636">
<rect width="278" height="33" fill="white" transform="translate(0.771484 0.5)"/>
</clipPath>
</defs>
</svg>
