<svg width="260" height="54" viewBox="0 0 260 54" fill="none" xmlns="http://www.w3.org/2000/svg">
<g clip-path="url(#clip0_77_25582)">
<path d="M37.9664 0H16.085C7.21162 0 0 7.20265 0 16.0571V37.9191C0 46.7735 7.21162 53.9762 16.085 53.9762H37.9664C46.8318 53.9762 54.0434 46.7735 54.0434 37.9191V16.0571C54.0434 7.20265 46.8318 0 37.9664 0Z" fill="#FFF0D4"/>
<path d="M44.0813 33.6229L44.0654 33.8612C43.9859 34.7982 43.3975 35.7432 42.4275 35.7432C41.6801 35.7432 41.0838 35.4653 40.5908 34.9015C40.0024 34.2265 39.4776 33.4165 38.937 31.9394C40.4556 26.8015 45.1309 10.3473 45.1309 10.3473H36.2575C36.2575 10.3473 35.4385 14.2067 34.6991 17.7167C34.6593 17.6294 34.6275 17.55 34.5877 17.4626C33.8483 15.8823 32.6715 14.1273 31.3517 12.8965C29.0617 10.7523 26.3743 9.7041 23.1302 9.7041C18.6538 9.7041 14.8611 11.3559 11.8636 14.6197C8.88193 17.8676 7.30762 22.0288 7.30762 26.6585C7.30762 31.8123 8.80242 36.0529 11.7523 39.2453C14.8293 42.5806 18.5027 44.1291 23.3211 44.1291C26.1278 44.1291 28.8073 43.2953 31.288 41.6594C32.8942 40.6032 34.3572 39.1341 35.7406 37.2362C36.3211 39.1103 36.9095 40.3967 37.6091 41.3576C38.7382 42.9062 40.4397 43.7956 42.2605 43.7956C44.0813 43.7956 45.8942 42.8267 46.7767 41.2623C47.5639 39.8726 47.8819 38.1573 47.8819 35.3303V33.615H44.0654L44.0813 33.6229ZM29.2128 36.9106C27.8691 38.88 26.1119 39.9123 24.1321 39.9123C21.8263 39.9123 20.085 38.88 18.8049 36.7517C17.4611 34.5203 16.7773 31.177 16.7773 26.8094C16.7773 22.807 17.5009 19.6226 18.9241 17.3515C20.2599 15.2153 21.9376 14.2226 24.2036 14.2226C26.2153 14.2226 27.7896 15.0565 29.1572 16.8591C30.6202 18.7888 31.8605 21.9812 32.7431 26.0788C31.6299 31.6217 30.5406 34.9729 29.2208 36.9026" fill="#1A1C1D"/>
<path d="M81.0928 11.1335C80.4806 8.37795 78.7393 6.44824 74.9148 6.44824C71.3209 6.44824 69.3491 8.37001 68.7368 11.1335L65.9619 23.6171H68.9277C69.6035 23.6171 70.2793 23.0771 70.4225 22.4179L70.987 19.8768H78.8506L79.4151 22.4179C79.5582 23.0771 80.2341 23.6171 80.9099 23.6171H83.8757L81.1008 11.1335M71.7662 16.3588L72.7442 11.9356C72.9032 11.2209 73.4598 10.125 74.9228 10.125C76.3858 10.125 76.9423 11.2129 77.1014 11.9356L78.0793 16.3588H71.7741H71.7662Z" fill="#FFF0D4"/>
<path d="M91.1912 10.6171H97.8065V23.6169H101.901V6.85303H89.5453C88.1937 6.85303 87.0885 7.95685 87.0885 9.30685V17.7801C87.0885 18.9157 86.5637 19.6304 85.6573 19.813L84.8145 20.0116L85.5778 23.6089H86.357C89.1557 23.6089 91.1833 21.5283 91.1833 17.9786V10.6092" fill="#FFF0D4"/>
<path d="M137.505 6.85282H136.011V4.90723H133.14C132.464 4.90723 131.908 5.45517 131.908 6.13017V6.85282H130.413C125.348 6.85282 122.184 10.2993 122.184 15.2308C122.184 20.1622 125.348 23.6166 130.413 23.6166H131.908V25.6496H134.778C135.454 25.6496 136.011 25.0937 136.011 24.4266V23.6166H137.505C142.57 23.6166 145.735 20.1702 145.735 15.2308C145.735 10.2913 142.57 6.85282 137.505 6.85282ZM130.421 19.916C127.614 19.916 126.286 18.1452 126.286 15.2387C126.286 12.3322 127.614 10.5613 130.421 10.5613H131.916V19.916H130.421ZM137.505 19.916H136.011V10.5613H137.505C140.312 10.5613 141.632 12.3322 141.632 15.2387C141.632 18.1452 140.304 19.916 137.505 19.916Z" fill="#FFF0D4"/>
<path d="M114.614 11.1094H108.731V6.86084H104.636V22.3938C104.636 23.0688 105.192 23.6167 105.868 23.6167H114.614C118.184 23.6167 120.872 20.9326 120.872 17.3591C120.872 13.7855 118.614 11.1014 114.614 11.1014M114.614 19.8526H108.731V14.8655H114.614C115.616 14.8655 116.777 15.755 116.777 17.3591C116.777 18.9632 115.608 19.8526 114.614 19.8526Z" fill="#FFF0D4"/>
<path d="M161.018 11.1335C160.405 8.37795 158.664 6.44824 154.84 6.44824C151.246 6.44824 149.274 8.37001 148.662 11.1335L145.887 23.6171H148.852C149.528 23.6171 150.204 23.0771 150.347 22.4179L150.912 19.8768H158.775L159.332 22.4179C159.475 23.0771 160.151 23.6171 160.827 23.6171H163.793L161.018 11.1335ZM151.683 16.3588L152.653 11.9356C152.812 11.2209 153.369 10.125 154.832 10.125C156.295 10.125 156.851 11.2129 157.01 11.9356L157.988 16.3588H151.683Z" fill="#FFF0D4"/>
<path d="M184.775 38.4432C185.499 37.7285 185.96 36.7676 185.96 35.4256C185.96 32.4556 183.654 30.375 180.68 30.375H170.662C169.986 30.375 169.43 30.9229 169.43 31.5979V45.9079C169.43 46.5829 169.986 47.1388 170.662 47.1388H181.309C184.449 47.1388 186.532 44.8994 186.532 41.9294C186.532 40.4365 185.825 39.2612 184.775 38.4432ZM180.68 33.8532C181.221 33.8532 181.969 34.4647 181.969 35.505C181.969 36.5453 181.221 37.0932 180.68 37.1568H173.453V33.8532H180.68ZM181.006 43.6606H173.453V40.3571H181.006C181.555 40.4206 182.295 40.9606 182.295 42.0088C182.295 43.0571 181.555 43.6606 181.006 43.6606Z" fill="#FFF0D4"/>
<path d="M157.71 29.9932C152.645 29.9932 149.106 33.5985 149.106 38.7602C149.106 43.922 152.645 47.5273 157.71 47.5273H159.109C164.174 47.5273 167.712 43.922 167.712 38.7602C167.712 33.5985 164.174 29.9932 159.109 29.9932H157.71ZM153.527 38.7602C153.527 35.7585 155.133 33.4555 157.956 33.4555H158.862C161.685 33.4555 163.291 35.7505 163.291 38.7602C163.291 41.7699 161.685 44.0649 158.862 44.0649H157.956C155.133 44.0649 153.527 41.762 153.527 38.7602Z" fill="#FFF0D4"/>
<path d="M81.2366 30.375L81.7773 32.9082C81.9204 33.5832 82.5883 34.1312 83.2641 34.1312H87.0806V47.1309H91.1754V34.1312H94.8727C95.5485 34.1312 96.2164 33.5832 96.3595 32.9082L96.9002 30.375H81.2207" fill="#FFF0D4"/>
<path d="M219.267 30.375V37.0376H211.292V30.375H207.197V47.1388H211.292V40.6271H219.267V47.1388H223.362V30.375H219.267Z" fill="#FFF0D4"/>
<path d="M128.927 34.655C128.315 31.8994 126.573 29.9697 122.749 29.9697C119.155 29.9697 117.183 31.8915 116.571 34.655L113.796 47.1385H116.762C117.437 47.1385 118.113 46.5985 118.256 45.9394L118.813 43.3983H126.677L127.233 45.9394C127.376 46.5985 128.052 47.1385 128.728 47.1385H131.694L128.919 34.655M119.592 39.8803L120.57 35.4571C120.729 34.7424 121.286 33.6465 122.749 33.6465C124.212 33.6465 124.768 34.7424 124.927 35.4571L125.905 39.8724H119.6L119.592 39.8803Z" fill="#FFF0D4"/>
<path d="M202.609 34.655C201.997 31.8994 200.256 29.9697 196.431 29.9697C192.838 29.9697 190.866 31.8915 190.253 34.655L187.479 47.1385H190.444C191.12 47.1385 191.796 46.5985 191.939 45.9394L192.504 43.3983H200.367L200.932 45.9394C201.075 46.5985 201.751 47.1385 202.427 47.1385H205.4L202.625 34.655M193.291 39.8803L194.269 35.4571C194.428 34.7424 194.984 33.6465 196.447 33.6465C197.91 33.6465 198.467 34.7424 198.626 35.4571L199.604 39.8724H193.299L193.291 39.8803Z" fill="#FFF0D4"/>
<path d="M82.5164 47.099V47.1466H74.5096C69.6595 47.1466 66.2803 43.7002 66.2803 38.7608C66.2803 33.8213 69.6674 30.3828 74.5096 30.3828H80.5842L79.9879 32.9478C79.8368 33.6069 79.161 34.139 78.4852 34.139H74.5096C71.9176 34.139 70.3751 36.0687 70.3751 38.7608C70.3751 41.4528 71.9176 43.3825 74.5096 43.3825H80.4252C81.1011 43.3825 81.7769 43.9225 81.928 44.5816L82.5084 47.099" fill="#FFF0D4"/>
<path d="M107.897 30.375H99.1504C98.4745 30.375 97.918 30.9309 97.918 31.6059V47.1468H102.013V42.8903H107.889C111.896 42.8903 114.154 40.1982 114.154 36.6326C114.154 33.0671 111.459 30.375 107.889 30.375M107.889 39.1262H102.013V34.1471H107.889C108.89 34.1471 110.059 35.0365 110.059 36.6406C110.059 38.2447 108.89 39.1341 107.889 39.1341" fill="#FFF0D4"/>
<path d="M258.1 43.6049H249.275V40.3887H258.871V37.1566H249.275V33.9246H258.1C258.824 33.9246 259.404 33.6069 259.603 32.7255L260.152 30.3828H246.412C245.736 30.3828 245.18 30.9308 245.18 31.6058V45.9158C245.18 46.5908 245.736 47.1466 246.412 47.1466H260.152L259.603 44.804C259.404 43.9225 258.832 43.6049 258.1 43.6049Z" fill="#FFF0D4"/>
<path d="M226.176 47.1466V30.3828H230.271V41.4449L237.371 31.3755C237.768 30.8355 238.651 30.3908 239.327 30.3908H242.364V47.1546H238.269V36.0925L231.169 46.1619C230.771 46.7019 229.889 47.1546 229.213 47.1546H226.176" fill="#FFF0D4"/>
<path d="M144.066 38.6734L149.782 30.3828H146.022C145.211 30.3828 144.638 30.629 144.137 31.4152L141.092 36.1958H140.551L137.498 31.4152C136.997 30.629 136.425 30.3828 135.606 30.3828H131.726L137.57 38.856L131.853 47.1466H135.614C136.433 47.1466 137.005 46.9005 137.506 46.1143L140.559 41.3337H141.1L144.145 46.1143C144.646 46.9005 145.219 47.1466 146.03 47.1466H149.918L144.074 38.6734" fill="#FFF0D4"/>
</g>
<defs>
<clipPath id="clip0_77_25582">
<rect width="260" height="54" fill="white"/>
</clipPath>
</defs>
</svg>
