<svg width="29" height="29" viewBox="0 0 29 29" fill="none" xmlns="http://www.w3.org/2000/svg">
<path d="M28.2697 13.8125C28.2697 21.2609 22.1853 27.2988 14.6785 27.2988C12.2953 27.2988 10.0565 26.6897 8.10865 25.6208L0.583984 28.0119L3.03725 20.7761C1.79969 18.7439 1.08694 16.3605 1.08694 13.8125C1.08694 6.36412 7.17195 0.326172 14.6785 0.326172C22.1859 0.326172 28.2697 6.36412 28.2697 13.8125ZM14.6785 2.47397C8.37721 2.47397 3.25166 7.56045 3.25166 13.8125C3.25166 16.2934 4.06039 18.5911 5.42837 20.4601L4.00071 24.6711L8.39197 23.2755C10.1962 24.4601 12.3575 25.151 14.6788 25.151C20.9791 25.151 26.1056 20.0652 26.1056 13.8131C26.1056 7.56106 20.9794 2.47397 14.6785 2.47397ZM21.5418 16.9185C21.4578 16.781 21.236 16.698 20.9031 16.5328C20.5697 16.3676 18.9313 15.5675 18.6268 15.4576C18.3213 15.3475 18.0986 15.2921 17.8768 15.6228C17.655 15.9538 17.0164 16.698 16.8217 16.9185C16.6272 17.1397 16.4331 17.1674 16.0997 17.0019C15.7668 16.8367 14.6935 16.4872 13.4209 15.3614C12.4307 14.4853 11.7619 13.4037 11.5675 13.0724C11.3734 12.7417 11.5472 12.5629 11.7136 12.3984C11.8638 12.2501 12.0471 12.0123 12.2135 11.8194C12.3806 11.6262 12.4359 11.4887 12.5464 11.2679C12.658 11.0473 12.6024 10.8544 12.5187 10.6886C12.4356 10.5234 11.7687 8.89675 11.4912 8.23475C11.2138 7.57337 10.9366 7.6835 10.7419 7.6835C10.5478 7.6835 10.3254 7.65581 10.1033 7.65581C9.88115 7.65581 9.52001 7.73856 9.21454 8.06925C8.90939 8.40025 8.04897 9.20006 8.04897 10.8264C8.04897 12.4531 9.24223 14.0248 9.40927 14.245C9.57569 14.4653 11.7133 17.9118 15.1002 19.2355C18.4874 20.5586 18.4874 20.1171 19.0983 20.0618C19.7087 20.0067 21.0689 19.2623 21.3477 18.4908C21.6245 17.718 21.6245 17.0563 21.5418 16.9185Z" fill="#1A1C1D"/>
</svg>
