<svg width="322" height="345" viewBox="0 0 322 345" fill="none" xmlns="http://www.w3.org/2000/svg">
<g clip-path="url(#clip0_78_38501)">
<path d="M95.8398 277.133C96.5621 277.431 96.9077 278.257 96.6137 278.982C96.3153 279.705 95.4892 280.05 94.7647 279.756L94.7558 279.752C67.7475 268.664 40.7347 257.574 34.6922 245.304C30.2753 236.343 36.6365 227.393 42.5657 219.054C45.0132 215.614 47.3796 212.278 48.7717 209.207C51.2161 203.808 50.7239 198.874 50.2724 194.367C49.8643 190.316 49.4893 186.581 51.0892 182.866C54.3216 175.342 65.5763 168.993 75.1243 163.604L76.5741 162.786C79.959 160.868 82.8163 159.216 85.4473 157.699C90.9006 154.547 95.4052 151.945 99.1738 150.07C99.9459 149.688 100.489 149.423 101.024 149.165C105.479 147.02 108.806 145.413 111.116 139.472C112.466 136 113.513 131.073 114.174 125.7C114.856 120.14 115.111 114.14 114.85 108.801C114.602 103.729 113.88 99.205 113.256 95.3152C112.569 91.0204 112.003 87.4739 112.302 84.6199C112.512 82.613 113.154 80.9545 114.026 79.7959C114.668 78.9445 115.447 78.3369 116.296 78.0236C117.226 77.6772 118.208 77.6764 119.174 78.0719C120.021 78.4176 120.826 79.0653 121.532 80.0539C123.676 83.0701 124.938 89.5579 126.103 95.5641C126.404 97.1058 126.698 98.6167 126.99 100.002C127.694 103.312 128.425 106.003 129.293 108.364C130.153 110.706 131.156 112.744 132.407 114.761C133.661 116.774 135.158 118.768 137.167 120.681C139.188 122.603 141.726 124.457 145.057 126.188C147.984 127.71 151.517 129.137 154.914 130.328C157.37 131.188 159.745 131.929 161.768 132.49L160.876 132.042C159.815 131.52 158.454 130.886 157.325 130.36C155.179 129.361 153.912 128.77 151.153 126.7C149.634 125.561 147.653 123.962 145.545 122.004C143.927 120.504 142.238 118.795 140.634 116.936C138.823 114.832 137.092 112.51 135.599 110.228C134.041 107.85 132.745 105.518 131.867 103.517C130.98 101.5 130.509 99.8087 130.25 98.2814C129.99 96.7806 129.945 95.4618 129.895 94.141C129.867 93.359 130.477 92.7052 131.259 92.6769C132.041 92.6485 132.694 93.2583 132.722 94.0403C132.769 95.2507 132.813 96.4656 133.043 97.8102C133.267 99.1307 133.677 100.603 134.46 102.374C135.281 104.24 136.5 106.433 137.968 108.676C139.381 110.839 141.034 113.06 142.783 115.085C144.327 116.873 145.935 118.5 147.469 119.923C149.49 121.798 151.39 123.337 152.848 124.431C155.345 126.303 156.527 126.853 158.525 127.784C159.466 128.222 160.599 128.75 162.119 129.502C163.434 130.153 164.796 130.858 166.041 131.58C167.418 132.379 168.687 133.249 169.103 133.922C170.374 135.981 169.691 137.119 165.306 136.27C162.93 135.812 158.577 134.613 153.975 132.998C150.466 131.767 146.806 130.285 143.751 128.699C140.169 126.839 137.416 124.826 135.219 122.734C133.009 120.63 131.369 118.454 130.008 116.26C128.65 114.074 127.561 111.871 126.636 109.34C125.713 106.827 124.95 104.018 124.219 100.592C123.912 99.1673 123.62 97.6519 123.319 96.0992C122.206 90.3789 121.007 84.1989 119.22 81.6925C118.846 81.1634 118.463 80.8379 118.096 80.6889C117.821 80.5771 117.543 80.5782 117.285 80.6761C116.943 80.8005 116.604 81.0841 116.288 81.5042C115.706 82.2744 115.272 83.4406 115.12 84.9241C114.862 87.41 115.401 90.7803 116.056 94.8748C116.689 98.8174 117.421 103.412 117.677 108.667C117.948 114.17 117.683 120.344 116.982 126.048C116.297 131.639 115.19 136.811 113.751 140.508C111.039 147.489 107.279 149.298 102.253 151.722C101.6 152.034 100.924 152.363 100.435 152.604C96.6471 154.487 92.221 157.049 86.859 160.145C84.0626 161.76 81.0182 163.52 77.9685 165.246L76.5187 166.064C67.3494 171.237 56.5432 177.337 53.6847 183.988C52.3842 187.013 52.7211 190.409 53.0901 194.087C53.578 198.949 54.1073 204.272 51.3422 210.383C49.8398 213.702 47.3943 217.137 44.8726 220.69C39.4158 228.366 33.5612 236.604 37.2332 244.051C42.8026 255.358 69.3212 266.246 95.8353 277.131L95.8398 277.133Z" fill="#E9D8B9"/>
<path d="M146.912 150.395C142.532 151.642 138.875 152.834 135.813 154.14C132.791 155.431 130.365 156.825 128.41 158.493C126.881 159.798 125.603 161.313 124.265 162.898C122.145 165.411 119.876 168.095 116.107 170.581C111.838 173.39 105.709 175.885 100.134 178.151C97.6944 179.141 95.3595 180.092 93.3593 180.993C90.1034 182.459 87.6827 183.828 85.8123 185.269C83.9745 186.686 82.6716 188.184 81.6322 189.935C80.5845 191.705 79.7918 193.745 79.1838 195.905C78.5718 198.084 78.1382 200.396 77.8102 202.691C77.4858 204.956 77.2605 207.206 77.133 209.317C77.0068 211.472 76.9822 213.467 77.0692 215.176C77.1447 216.711 77.307 218.024 77.5183 219.115C77.7633 220.38 78.068 221.329 78.3714 221.988C78.8652 223.058 79.3624 223.289 79.8596 223.521C80.2134 223.686 80.371 224.108 80.204 224.467C80.0392 224.821 79.6168 224.978 79.2585 224.811C78.5284 224.471 77.7982 224.131 77.0836 222.588C76.7333 221.83 76.3899 220.765 76.1219 219.386C75.898 218.24 75.7273 216.863 75.6518 215.247C75.5609 213.476 75.5839 211.425 75.7158 209.235C75.8448 207.098 76.0733 204.805 76.4072 202.485C76.745 200.145 77.1882 197.778 77.8201 195.52C78.4583 193.25 79.2965 191.099 80.4162 189.211C81.5486 187.306 82.9607 185.68 84.9456 184.145C86.9047 182.631 89.419 181.213 92.7797 179.698C94.8235 178.774 97.1563 177.827 99.5984 176.833C105.119 174.59 111.179 172.124 115.329 169.395C118.916 167.031 121.119 164.421 123.178 161.978C124.544 160.356 125.852 158.812 127.485 157.414C129.558 155.642 132.107 154.174 135.251 152.831C138.36 151.504 142.074 150.295 146.519 149.029C192.373 135.952 189.338 138.289 146.903 150.391L146.912 150.395Z" fill="#E9D8B9"/>
<path d="M100.523 283.23C99.8654 282.803 99.6777 281.931 100.099 281.271C100.526 280.614 101.398 280.426 102.058 280.848C107.257 284.208 112.453 287.566 117.667 290.344C122.826 293.091 128.018 295.286 133.289 296.362C138.545 297.437 143.904 297.414 149.157 296.857C154.489 296.293 159.709 295.186 164.603 294.124C169.504 293.059 174.081 292.034 178.113 290.88C182.039 289.754 185.394 288.52 187.924 287.021C190.336 285.588 191.998 283.892 193.38 281.335C194.832 278.653 196.011 274.987 197.411 269.723C198.825 264.406 200.445 257.5 201.492 250.244C202.533 243.036 203.005 235.481 202.136 228.816C200.482 216.126 193.897 206.493 189.562 200.155L188.979 199.3C186.709 195.969 185.177 193.571 184.604 191.395C183.959 188.93 184.494 186.927 186.506 184.68C189.663 181.156 196.757 176.975 205.089 172.067L207.534 170.621C212.161 167.886 217.067 164.937 221.85 161.691C226.612 158.456 231.282 154.901 235.49 150.913C239.842 146.79 243.684 142.216 246.582 137.448C249.223 133.101 251.084 128.602 251.832 124.142C252.525 119.999 252.263 115.869 251.521 112.383C250.63 108.211 249.128 105.068 247.805 104.059C247.274 103.654 246.641 104.171 245.969 105.156C244.881 106.754 243.834 109.341 242.843 111.96L242.194 113.692C240.351 118.619 238.474 123.633 234.684 128.819C232.423 131.916 229.483 135.056 226.251 137.606C223.364 139.882 220.235 141.696 217.123 142.607C213.75 143.599 210.43 143.53 206.928 142.82C203.522 142.127 200.003 140.847 196.075 139.345C192.196 137.865 187.886 136.163 184.093 134.406C180.241 132.623 176.965 130.797 175.284 129.103C174.411 128.227 173.905 127.337 173.735 126.484C173.541 125.543 173.734 124.684 174.262 123.938C174.72 123.295 175.424 122.778 176.329 122.414C177.827 121.82 179.997 121.62 182.603 121.983C186.607 122.551 191.657 124.44 196.422 126.23C199.105 127.234 201.694 128.206 203.886 128.861C206.79 129.729 209.01 130.054 210.831 129.926C212.543 129.808 213.921 129.283 215.204 128.425C216.95 127.265 218.605 125.478 220.262 123.688C221.286 122.578 222.315 121.47 223.356 120.5C224.811 119.143 226.34 118.002 227.908 116.977C229.478 115.947 231.003 115.071 232.529 114.195C233.206 113.807 234.075 114.037 234.462 114.714C234.85 115.391 234.62 116.26 233.943 116.648C232.418 117.524 230.887 118.398 229.463 119.337C228.041 120.272 226.639 121.315 225.29 122.573C224.27 123.521 223.304 124.565 222.345 125.607C220.569 127.522 218.798 129.44 216.779 130.778C215.09 131.9 213.283 132.596 211.021 132.747C208.865 132.893 206.317 132.535 203.076 131.57C200.785 130.884 198.149 129.896 195.419 128.875C190.783 127.136 185.867 125.298 182.204 124.78C180.114 124.483 178.45 124.613 177.379 125.041C176.978 125.198 176.703 125.38 176.571 125.569C176.505 125.664 176.479 125.778 176.507 125.905C176.573 126.219 176.828 126.621 177.296 127.09C178.726 128.525 181.719 130.176 185.293 131.83C188.925 133.511 193.208 135.201 197.091 136.683C200.923 138.146 204.342 139.396 207.501 140.033C210.561 140.651 213.436 140.715 216.329 139.865C219.081 139.059 221.888 137.422 224.504 135.364C227.521 132.985 230.276 130.043 232.4 127.134C235.966 122.252 237.776 117.419 239.553 112.669L240.206 110.928C241.257 108.157 242.379 105.397 243.639 103.547C245.322 101.081 247.238 100.033 249.53 101.782C251.328 103.154 253.279 106.947 254.307 111.772C255.115 115.562 255.396 120.06 254.637 124.592C253.828 129.428 251.837 134.264 249.018 138.9C245.981 143.897 241.977 148.667 237.456 152.952C233.145 157.034 228.347 160.688 223.451 164.012C218.577 167.325 213.636 170.29 208.994 173.035L206.542 174.483C198.41 179.277 191.49 183.354 188.629 186.547C187.336 187.989 186.978 189.213 187.354 190.653C187.811 192.387 189.224 194.584 191.333 197.676L191.916 198.531C196.403 205.093 203.22 215.068 204.966 228.428C205.872 235.377 205.387 243.193 204.314 250.633C203.247 258.025 201.602 265.045 200.168 270.44C198.717 275.893 197.475 279.731 195.893 282.658C194.244 285.707 192.261 287.728 189.388 289.437C186.63 291.075 183.054 292.397 178.903 293.582C174.859 294.741 170.205 295.779 165.218 296.864C160.228 297.947 154.911 299.074 149.464 299.65C143.942 300.234 138.294 300.259 132.731 299.117C127.177 297.98 121.741 295.688 116.36 292.821C111.034 289.98 105.787 286.592 100.542 283.2L100.523 283.23Z" fill="#E9D8B9"/>
<path d="M159.127 113.762C159.383 114.056 159.353 114.505 159.055 114.759C158.761 115.015 158.312 114.985 158.058 114.687C155.891 112.189 153.719 109.689 151.834 107.289C149.918 104.859 148.273 102.517 147.158 100.335C146.378 98.804 145.856 97.3503 145.696 96.0657C145.579 95.1004 145.667 94.2202 145.996 93.457C146.337 92.667 146.927 92.0315 147.808 91.5803C148.416 91.2693 149.155 91.052 150.045 90.9432C153.282 90.5482 158.628 91.5826 164.267 92.6775C166.843 93.1741 169.481 93.689 171.932 94.0676C176.999 94.8577 181.591 95.1591 186.093 95.4519C188.647 95.622 191.172 95.784 193.695 96.0323C197.261 96.3799 200.921 96.8907 204.148 97.6523C207.419 98.4238 210.251 99.4595 212.118 100.847C214.07 102.296 214.967 104.105 215.293 105.99C215.613 107.819 215.392 109.685 215.095 111.34C214.796 113 214.423 114.468 213.783 115.691C213.107 116.979 212.139 117.978 210.693 118.613C209.308 119.222 207.498 119.481 205.01 119.45C202.602 119.424 199.518 119.127 195.525 118.619C191.017 118.046 185.338 117.2 180.336 116.2C176.479 115.434 173.015 114.572 170.756 113.678C169.173 113.05 168.147 112.386 167.556 111.724C167.054 111.163 166.837 110.587 166.85 110.021C166.865 109.45 167.109 108.926 167.53 108.467C168.064 107.882 168.893 107.379 169.873 107.007C171.31 106.461 173.1 106.165 175.076 106.066C177.288 105.952 179.743 106.076 182.204 106.35C184.511 106.607 186.82 106.985 189.134 107.436C191.379 107.871 193.717 108.388 196.057 108.9C196.437 108.984 196.68 109.364 196.595 109.745C196.511 110.125 196.131 110.368 195.75 110.284C193.481 109.783 191.213 109.282 188.868 108.827C186.587 108.387 184.311 108.008 182.053 107.763C179.658 107.498 177.276 107.381 175.148 107.491C173.311 107.584 171.671 107.85 170.378 108.344C169.597 108.64 168.96 109.013 168.58 109.431C168.385 109.651 168.269 109.864 168.264 110.074C168.259 110.284 168.365 110.525 168.609 110.797C169.065 111.303 169.918 111.837 171.284 112.381C173.459 113.247 176.842 114.081 180.619 114.832C185.599 115.821 191.235 116.664 195.712 117.234C199.639 117.733 202.669 118.027 205.034 118.054C207.316 118.082 208.941 117.857 210.127 117.336L210.129 117.331C211.254 116.836 212.004 116.056 212.534 115.049C213.099 113.976 213.433 112.638 213.707 111.102C213.981 109.567 214.188 107.859 213.907 106.25C213.634 104.694 212.892 103.198 211.281 102C209.583 100.741 206.924 99.7797 203.826 99.0454C200.682 98.3058 197.084 97.8021 193.566 97.4554C190.994 97.2063 188.514 97.043 186.007 96.8783C181.479 96.5795 176.859 96.2811 171.726 95.4818C169.168 95.0863 166.559 94.5795 164.009 94.0843C158.484 93.015 153.242 92.002 150.226 92.3688C149.503 92.4574 148.92 92.6218 148.462 92.8556C147.891 93.1457 147.517 93.5496 147.301 94.0377C147.078 94.5502 147.023 95.1841 147.111 95.9069C147.246 97.022 147.717 98.3157 148.423 99.7024C149.486 101.785 151.083 104.055 152.951 106.425C154.843 108.822 156.987 111.299 159.134 113.771L159.127 113.762Z" fill="#E9D8B9"/>
<path d="M109.595 141.871C109.945 141.483 110.546 141.458 110.929 141.805C111.316 142.155 111.342 142.756 110.994 143.139C109.657 144.605 108.314 146.073 107.539 147.489C106.849 148.749 106.603 150.003 107.232 151.239C108.559 153.842 113.496 156.737 119.851 160.461L121.894 161.658L124.901 163.44C131.7 167.475 139.567 172.143 148.054 175.993C152.888 178.185 157.94 180.119 162.749 181.661C167.621 183.222 172.247 184.384 176.158 185.012C179.988 185.624 183.103 185.712 185.666 185.5C188.199 185.283 190.192 184.773 191.793 184.166C193.782 183.419 195.19 182.527 196.142 181.923C196.84 181.479 197.335 181.165 197.786 181.075C199.039 180.83 199.485 181.534 199.329 182.911C199.252 183.568 198.987 184.475 198.594 185.53C198.205 186.575 197.681 187.793 196.953 188.866C196.169 190.011 195.152 190.976 193.801 191.394C192.203 191.887 190.359 191.552 187.375 191.007C185.637 190.688 183.495 190.301 180.773 189.965C177.996 189.62 174.59 189.325 171.073 189.023C165.555 188.546 159.775 188.045 155.588 187.273C149.555 186.158 146.923 184.507 141.51 181.112C140.619 180.556 139.659 179.95 138.755 179.398C134.227 176.607 127.991 172.944 121.8 169.313C117.726 166.919 113.667 164.537 110.255 162.501C105.782 159.828 102.163 157.602 99.6043 155.723C96.8694 153.718 95.2373 152.015 94.8981 150.461C94.3495 147.964 96.7318 146.408 99.127 144.835C99.9369 144.302 100.751 143.771 101.408 143.215C102.497 142.294 103.159 141.283 103.612 140.229C104.077 139.137 104.334 137.953 104.586 136.768C104.698 136.258 105.202 135.937 105.707 136.047C106.216 136.159 106.538 136.663 106.428 137.168C106.153 138.436 105.879 139.704 105.339 140.968C104.782 142.268 103.965 143.518 102.624 144.654C101.902 145.267 101.025 145.84 100.161 146.407C98.3106 147.618 96.4735 148.823 96.7417 150.049C96.9695 151.093 98.3578 152.454 100.723 154.188C103.259 156.046 106.821 158.24 111.223 160.868C114.788 162.998 118.761 165.329 122.754 167.675C129.031 171.356 135.352 175.07 139.74 177.774C140.844 178.458 141.711 178.997 142.509 179.495C147.728 182.766 150.264 184.356 155.93 185.404C160.015 186.162 165.759 186.656 171.239 187.132C174.761 187.437 178.178 187.731 181.007 188.084C183.769 188.427 185.948 188.826 187.713 189.147C190.417 189.638 192.09 189.943 193.241 189.59C194.113 189.32 194.815 188.633 195.382 187.801C196.001 186.895 196.464 185.808 196.816 184.865C197.022 184.318 197.185 183.827 197.3 183.416L197.152 183.511C196.129 184.163 194.619 185.123 192.459 185.932L192.457 185.937C190.713 186.591 188.555 187.151 185.818 187.386C183.116 187.616 179.846 187.521 175.853 186.882C171.872 186.243 167.152 185.059 162.167 183.462C157.291 181.899 152.174 179.941 147.269 177.715C138.676 173.821 130.767 169.128 123.934 165.072L120.931 163.292L118.888 162.095C112.264 158.213 107.122 155.196 105.542 152.104C104.57 150.201 104.896 148.379 105.87 146.592C106.758 144.966 108.17 143.421 109.584 141.872L109.595 141.871Z" fill="#E9D8B9"/>
<path d="M162.675 186.245C163.196 186.215 163.64 186.607 163.674 187.13C163.704 187.651 163.312 188.095 162.793 188.132L162.786 188.134C156.045 188.516 149.306 188.905 144.805 190.504C142.786 191.222 141.208 192.188 140.048 193.25C138.758 194.427 137.996 195.713 137.711 196.873C137.61 197.289 137.57 197.679 137.597 198.03C137.632 198.494 137.779 198.905 138.039 199.223C138.3 199.541 138.696 199.78 139.226 199.906C139.637 200.006 140.12 200.045 140.674 200.003C142.865 199.841 146.165 198.548 149.061 197.411C150.288 196.93 151.45 196.473 152.448 196.132C154.343 195.493 155.727 195.271 156.595 195.632C157.787 196.127 158.046 197.256 157.315 199.2C156.726 200.769 155.395 203.099 153.727 205.288C152.357 207.082 150.744 208.8 149.098 209.958C147.265 211.247 145.403 211.841 143.588 211.863C141.625 211.886 139.742 211.249 138.032 210.098C136.525 209.085 135.165 207.688 133.978 206.093C132.664 204.325 131.556 202.304 130.711 200.291C129.902 198.366 129.323 196.438 129.222 194.701C129.112 192.818 129.548 191.145 130.802 189.881C132.878 187.789 137.081 187.097 140.383 186.552L141.476 186.369C143.065 186.095 144.289 185.82 145.336 185.55C146.429 185.263 147.253 185.004 148.077 184.744C148.575 184.589 149.102 184.862 149.257 185.359C149.412 185.857 149.139 186.384 148.642 186.539C147.734 186.826 146.832 187.114 145.815 187.376C144.748 187.654 143.478 187.934 141.795 188.224L140.695 188.41C137.655 188.908 133.786 189.548 132.15 191.201C131.319 192.036 131.04 193.22 131.118 194.586C131.206 196.094 131.724 197.813 132.457 199.551C133.243 201.421 134.279 203.305 135.5 204.954C136.568 206.395 137.781 207.641 139.09 208.518C140.484 209.457 142.006 209.981 143.571 209.957C145.018 209.939 146.526 209.453 148.02 208.398C149.486 207.369 150.957 205.792 152.229 204.127C153.793 202.08 155.023 199.932 155.554 198.511C155.842 197.74 155.938 197.381 155.871 197.35C155.48 197.184 154.517 197.401 153.059 197.899L153.056 197.904C152.104 198.229 150.964 198.674 149.757 199.147C146.741 200.332 143.298 201.684 140.814 201.868C140.046 201.925 139.368 201.87 138.781 201.728C137.83 201.497 137.103 201.033 136.582 200.409C136.067 199.782 135.778 199.009 135.717 198.147C135.677 197.588 135.727 197.001 135.875 196.404C136.24 194.906 137.186 193.285 138.771 191.837C140.101 190.62 141.89 189.517 144.17 188.709C148.931 187.018 155.803 186.626 162.674 186.234L162.675 186.245Z" fill="#E9D8B9"/>
<path d="M172.225 197.373C172.049 197.024 172.192 196.6 172.546 196.427C172.894 196.251 173.318 196.394 173.494 196.743C179.781 209.154 186.067 221.57 187.75 231.531C188.603 236.568 188.275 240.969 187.29 244.768C186.305 248.568 184.662 251.756 182.88 254.377C181.171 256.885 179.327 258.878 177.441 260.398C175.363 262.075 173.234 263.193 171.179 263.801C169.844 264.198 168.534 264.389 167.38 264.326C166.423 264.273 165.566 264.054 164.876 263.64C164.139 263.198 163.597 262.548 163.336 261.668C163.202 261.219 163.144 260.712 163.172 260.147C163.337 257.067 166.202 252.076 168.82 247.521C169.282 246.717 169.735 245.931 170.123 245.239C171.533 242.739 172.675 240.544 173.626 238.479C174.575 236.408 175.337 234.445 175.982 232.417C176.559 230.592 177.042 228.702 177.423 226.96C177.886 224.842 178.194 222.941 178.335 221.643C178.457 220.528 178.446 219.896 178.374 219.513C178.322 219.238 178.221 219.115 178.123 218.987C177.878 218.682 177.927 218.236 178.232 217.991C178.537 217.746 178.983 217.796 179.228 218.1C179.438 218.362 179.647 218.628 179.763 219.244C179.861 219.748 179.876 220.513 179.739 221.79C179.596 223.125 179.277 225.075 178.8 227.258C178.413 229.035 177.918 230.964 177.32 232.844C176.659 234.93 175.879 236.944 174.901 239.067C173.925 241.197 172.761 243.425 171.349 245.93C170.905 246.721 170.476 247.464 170.042 248.222C167.504 252.639 164.719 257.482 164.576 260.223C164.554 260.622 164.594 260.968 164.68 261.264C164.833 261.777 165.151 262.159 165.59 262.424C166.075 262.715 166.712 262.87 167.445 262.912C168.434 262.964 169.582 262.795 170.764 262.446C172.649 261.885 174.613 260.853 176.538 259.296C178.32 257.858 180.067 255.967 181.695 253.574C183.401 251.07 184.973 248.024 185.907 244.402C186.847 240.783 187.153 236.58 186.341 231.758C184.695 222.01 178.458 209.689 172.216 197.369L172.215 197.358L172.225 197.373Z" fill="#E9D8B9"/>
<path d="M95.3632 210.907C95.0947 211.191 94.6463 211.205 94.3626 210.937C94.0788 210.668 94.0642 210.22 94.3327 209.936C99.1926 204.746 104.055 199.552 107.09 194.734C108.471 192.542 109.484 190.402 110.422 188.423C111.577 185.99 112.622 183.794 114.099 181.958C115.467 180.261 117.187 178.898 119.023 177.976C120.894 177.037 122.897 176.552 124.772 176.635C126.642 176.716 128.362 177.354 130.006 178.261C131.609 179.149 133.131 180.295 134.648 181.438C134.959 181.67 135.022 182.119 134.79 182.431C134.558 182.742 134.108 182.806 133.797 182.573C132.32 181.46 130.839 180.345 129.322 179.507C127.849 178.69 126.321 178.12 124.707 178.05C123.078 177.978 121.319 178.407 119.662 179.238C118.004 180.069 116.449 181.302 115.207 182.844C113.831 184.559 112.821 186.679 111.705 189.027C110.749 191.046 109.71 193.228 108.287 195.488C105.173 200.439 100.271 205.674 95.3698 210.904L95.3632 210.907Z" fill="#E9D8B9"/>
<path d="M104.034 242.902C104.052 242.502 104.495 242.277 105.029 242.406C105.563 242.535 105.988 242.967 105.973 243.375L105.973 243.386C105.594 251.748 105.214 260.11 106.783 265.284C108.228 270.047 111.474 272.148 116.077 275.116L116.606 275.455L116.604 275.459L118.294 276.558C123.082 279.666 128.924 283.462 134.646 286.182C141.042 289.221 147.411 290.972 153.775 292.722L153.8 292.728C154.332 292.883 154.723 293.332 154.676 293.725C154.625 294.115 154.164 294.309 153.634 294.161C147.149 292.377 140.668 290.596 134.04 287.448C128.13 284.64 122.2 280.787 117.342 277.63L115.661 276.536L115.659 276.54L115.13 276.201C110.101 272.953 106.551 270.662 104.9 265.22C103.261 259.821 103.649 251.36 104.032 242.896L104.034 242.902Z" fill="#E9D8B9"/>
<path d="M195.483 87.6291C195.727 87.6776 195.925 87.8512 195.918 88.0172C195.91 88.1877 195.702 88.2819 195.451 88.2358L195.435 88.234C177.515 84.6347 159.589 81.0332 149.694 81.2108C139.969 81.3859 138.043 85.2758 136.11 89.168C136.034 89.3183 135.783 89.3651 135.547 89.2766C135.31 89.1881 135.176 88.995 135.247 88.8426C137.249 84.8025 139.258 80.76 149.46 80.5783C159.488 80.397 177.489 84.0118 195.483 87.6291Z" fill="#E9D8B9"/>
<path fill-rule="evenodd" clip-rule="evenodd" d="M82.5761 161.967C79.6967 164.497 72.3713 169.912 67.229 174.561C62.0823 179.208 59.112 183.092 57.3662 188.009C55.616 192.925 55.0904 198.874 53.6031 202.979C52.1157 207.085 49.669 209.353 46.8474 213.655C44.0301 217.958 40.8445 224.293 39.7936 229.954C38.7406 235.62 39.8224 240.611 46.1673 247.095C52.5143 253.574 64.131 261.543 71.1118 265.995C78.0926 270.447 80.4444 271.389 76.1363 269.497C71.8328 267.607 60.8717 262.887 53.2364 258.752C45.6011 254.617 41.298 251.064 38.5029 247.516C35.7078 243.967 34.414 240.425 34.7303 236.505C35.0445 232.589 36.9688 228.295 40.1804 222.981C43.3941 217.662 47.8951 211.324 49.8236 205.019C51.7521 198.715 51.1085 192.455 51.4558 187.895C51.7986 183.333 53.1323 180.47 55.5223 177.75C57.9123 175.03 61.3586 172.454 66.0007 169.545C70.6472 166.639 76.4895 163.401 80.1915 161.598C83.8914 159.799 85.4535 159.442 82.574 161.972L82.5761 161.967Z" fill="#E9D8B9"/>
<path fill-rule="evenodd" clip-rule="evenodd" d="M92.3524 276.31C91.5011 276.066 91.4513 276.665 92.7006 277.634C93.95 278.603 96.5029 279.945 100.583 282.233C104.663 284.521 110.28 287.759 116.86 290.742C123.442 293.733 130.986 296.473 141.33 296.373C151.674 296.274 164.807 293.335 172.817 291.762C180.828 290.188 183.709 289.982 186.772 288.393C189.836 286.8 193.081 283.824 195.993 277.318C198.906 270.818 201.484 260.792 202.591 250.855C203.699 240.918 203.332 231.069 202.587 230.76C201.843 230.452 200.715 239.681 198.789 247.808C196.864 255.93 194.135 262.946 190.319 268.562C186.503 274.179 181.595 278.397 177.806 281.626C174.017 284.856 171.349 287.097 166.835 288.478C162.321 289.86 155.961 290.381 150.188 291.061C144.414 291.741 139.228 292.575 133.91 292.186C128.595 291.798 123.15 290.194 116.899 287.745C110.647 285.297 103.588 282.008 99.2255 279.823C94.8629 277.638 93.2036 276.554 92.3479 276.308L92.3524 276.31Z" fill="#E9D8B9"/>
<path fill-rule="evenodd" clip-rule="evenodd" d="M178.089 219.468C178.039 219.33 178.321 221.708 176.316 226.188C174.304 230.671 169.998 237.258 166.197 243.345C162.397 249.431 159.095 255.02 158.82 259.766C158.542 264.517 161.289 268.425 165.344 269.774C169.398 271.123 174.763 269.903 179.036 265.389C183.309 260.874 186.48 253.061 187.8 246.904C189.12 240.746 188.587 236.239 188.16 236.079C187.734 235.918 187.409 240.102 186.254 243.822C185.103 247.545 183.117 250.801 181.34 253.458C179.562 256.114 177.985 258.166 176.073 260.023C174.161 261.88 171.919 263.546 169.903 263.964C167.888 264.383 166.109 263.555 164.925 262.692C163.74 261.829 163.148 260.937 163.686 259.29C164.22 257.641 165.882 255.243 167.722 251.879C169.561 248.516 171.575 244.192 173.122 241.118C174.669 238.043 175.75 236.225 176.637 233.737C177.525 231.244 178.221 228.09 178.377 225.18C178.533 222.27 178.146 219.614 178.092 219.474L178.089 219.468Z" fill="#E9D8B9"/>
<path fill-rule="evenodd" clip-rule="evenodd" d="M104.816 248.997C104.946 246.026 105.222 242.343 105.385 238.624C105.546 234.909 105.593 231.158 106.359 228.554C107.129 225.952 108.621 224.493 108.772 226.685C108.919 228.874 107.72 234.712 107.707 239.046C107.694 243.38 108.864 246.215 108.821 248.72C108.777 251.224 107.524 253.399 106.932 255.888C106.341 258.372 106.412 261.169 106.239 262.921C106.064 264.677 105.649 265.394 105.761 266.591C105.874 267.789 106.526 269.467 106.516 269.653C106.507 269.834 105.846 268.528 105.438 266.081C105.03 263.633 104.88 260.057 104.795 257.139C104.71 254.22 104.688 251.963 104.816 248.997Z" fill="#E9D8B9"/>
<path d="M100.581 143.059C102.261 140.178 103.941 137.296 105.219 135.35C105.895 134.319 106.479 133.511 107.037 133.051C107.854 132.374 108.588 132.307 109.321 133.074C109.813 133.587 110.247 134.585 110.603 135.645C110.936 136.64 111.209 137.716 111.384 138.452C111.571 139.231 111.647 139.665 111.644 140.012C111.638 140.446 111.534 140.67 111.36 141.042L110.11 143.725L108.825 143.126L110.075 140.443C110.171 140.237 110.229 140.111 110.232 139.987C110.233 139.775 110.169 139.434 110.013 138.773C109.848 138.074 109.588 137.053 109.263 136.089C108.964 135.198 108.623 134.385 108.3 134.049C108.22 133.962 108.097 134.003 107.94 134.132C107.52 134.482 107.011 135.188 106.405 136.116C105.115 138.089 103.456 140.925 101.801 143.764L100.578 143.053L100.581 143.059Z" fill="#E9D8B9"/>
<path fill-rule="evenodd" clip-rule="evenodd" d="M131.721 170.718C131.493 171.675 131.222 173.403 131.258 173.921C131.299 174.442 131.647 173.753 131.953 172.805C132.261 171.864 132.524 170.667 132.578 170.059C132.632 169.452 132.474 169.428 132.306 169.507C132.134 169.585 131.951 169.767 131.721 170.718Z" fill="#E9D8B9"/>
<path fill-rule="evenodd" clip-rule="evenodd" d="M125.481 166.933C125.253 167.89 124.978 169.616 125.019 170.137C125.06 170.657 125.408 169.969 125.714 169.021C126.021 168.079 126.285 166.882 126.339 166.275C126.393 165.667 126.235 165.643 126.067 165.723C125.894 165.801 125.711 165.982 125.481 166.933Z" fill="#E9D8B9"/>
<path fill-rule="evenodd" clip-rule="evenodd" d="M119.973 163.473C119.746 164.43 119.475 166.158 119.511 166.677C119.552 167.197 119.9 166.509 120.206 165.561C120.514 164.619 120.777 163.422 120.831 162.815C120.885 162.207 120.727 162.183 120.559 162.263C120.387 162.341 120.204 162.523 119.973 163.473Z" fill="#E9D8B9"/>
<path fill-rule="evenodd" clip-rule="evenodd" d="M113.973 159.456C113.746 160.413 113.475 162.141 113.511 162.66C113.552 163.18 113.9 162.492 114.206 161.543C114.514 160.602 114.777 159.405 114.831 158.798C114.885 158.19 114.727 158.166 114.559 158.246C114.387 158.323 114.204 158.505 113.973 159.456Z" fill="#E9D8B9"/>
<path fill-rule="evenodd" clip-rule="evenodd" d="M108.267 155.849C108.04 156.806 107.769 158.534 107.805 159.053C107.846 159.573 108.194 158.885 108.5 157.937C108.807 156.995 109.071 155.798 109.125 155.191C109.179 154.583 109.021 154.559 108.853 154.639C108.681 154.717 108.498 154.899 108.267 155.849Z" fill="#E9D8B9"/>
<path fill-rule="evenodd" clip-rule="evenodd" d="M104.201 152.232C103.973 153.189 103.698 154.915 103.739 155.435C103.78 155.956 104.128 155.268 104.433 154.319C104.741 153.378 105.004 152.181 105.058 151.573C105.112 150.966 104.955 150.942 104.787 151.022C104.614 151.099 104.431 151.281 104.201 152.232Z" fill="#E9D8B9"/>
<path fill-rule="evenodd" clip-rule="evenodd" d="M104.769 141.477C105.865 141.36 108.394 141.442 109.618 141.718C110.841 141.993 110.761 142.458 109.991 142.742C109.22 143.027 107.762 143.127 106.711 143.008C105.657 142.894 105.011 142.56 104.514 142.236C104.016 141.911 103.674 141.593 104.769 141.477Z" fill="#E9D8B9"/>
<path fill-rule="evenodd" clip-rule="evenodd" d="M192.332 187.411C192.104 188.368 191.833 190.096 191.87 190.614C191.911 191.135 192.259 190.446 192.564 189.498C192.872 188.556 193.135 187.36 193.189 186.752C193.243 186.145 193.086 186.12 192.917 186.2C192.745 186.278 192.562 186.46 192.332 187.411Z" fill="#E9D8B9"/>
<path fill-rule="evenodd" clip-rule="evenodd" d="M178.149 187.254C177.921 188.211 177.651 189.939 177.687 190.457C177.728 190.978 178.076 190.29 178.381 189.341C178.689 188.4 178.953 187.203 179.007 186.595C179.061 185.988 178.903 185.964 178.735 186.044C178.562 186.121 178.379 186.303 178.149 187.254Z" fill="#E9D8B9"/>
<path fill-rule="evenodd" clip-rule="evenodd" d="M169.367 185.709C169.139 186.666 168.868 188.394 168.905 188.912C168.946 189.433 169.294 188.745 169.599 187.796C169.907 186.855 170.17 185.658 170.224 185.051C170.278 184.443 170.121 184.419 169.953 184.499C169.78 184.576 169.597 184.758 169.367 185.709Z" fill="#E9D8B9"/>
<path fill-rule="evenodd" clip-rule="evenodd" d="M162.831 183.346C162.603 184.303 162.332 186.031 162.369 186.549C162.41 187.07 162.758 186.381 163.063 185.433C163.371 184.491 163.634 183.295 163.688 182.687C163.742 182.08 163.585 182.056 163.417 182.135C163.244 182.213 163.061 182.395 162.831 183.346Z" fill="#E9D8B9"/>
<path fill-rule="evenodd" clip-rule="evenodd" d="M154.628 182.747C154.4 183.704 154.129 185.431 154.166 185.95C154.207 186.471 154.555 185.782 154.86 184.834C155.168 183.892 155.431 182.695 155.485 182.088C155.539 181.481 155.381 181.456 155.213 181.536C155.041 181.614 154.858 181.796 154.628 182.747Z" fill="#E9D8B9"/>
<path fill-rule="evenodd" clip-rule="evenodd" d="M147.514 179.433C147.287 180.39 147.016 182.118 147.052 182.637C147.093 183.157 147.441 182.469 147.747 181.521C148.055 180.579 148.318 179.382 148.372 178.775C148.426 178.167 148.268 178.143 148.1 178.223C147.928 178.301 147.745 178.482 147.514 179.433Z" fill="#E9D8B9"/>
<path fill-rule="evenodd" clip-rule="evenodd" d="M140.162 174.819C139.934 175.776 139.663 177.504 139.7 178.023C139.741 178.543 140.089 177.855 140.394 176.907C140.702 175.965 140.965 174.768 141.019 174.161C141.073 173.554 140.916 173.529 140.748 173.609C140.575 173.687 140.392 173.869 140.162 174.819Z" fill="#E9D8B9"/>
<path fill-rule="evenodd" clip-rule="evenodd" d="M148.652 185.732C148.424 186.689 148.154 188.417 148.19 188.935C148.231 189.456 148.579 188.768 148.884 187.819C149.192 186.878 149.455 185.681 149.509 185.073C149.563 184.466 149.406 184.442 149.238 184.522C149.065 184.599 148.882 184.781 148.652 185.732Z" fill="#E9D8B9"/>
<path fill-rule="evenodd" clip-rule="evenodd" d="M141.825 187.644C141.597 188.601 141.326 190.329 141.363 190.848C141.404 191.368 141.752 190.68 142.057 189.731C142.365 188.79 142.628 187.593 142.682 186.986C142.736 186.378 142.579 186.354 142.411 186.434C142.238 186.511 142.055 186.693 141.825 187.644Z" fill="#E9D8B9"/>
<path fill-rule="evenodd" clip-rule="evenodd" d="M134.891 189.67C135.504 190.436 136.704 191.709 137.137 191.998C137.569 192.286 137.24 191.588 136.685 190.768C136.13 189.947 135.345 189.009 134.896 188.593C134.447 188.176 134.335 188.288 134.294 188.47C134.252 188.653 134.279 188.911 134.893 189.676L134.891 189.67Z" fill="#E9D8B9"/>
<path fill-rule="evenodd" clip-rule="evenodd" d="M131.446 197.062C132.06 197.828 133.26 199.101 133.692 199.39C134.125 199.678 133.796 198.98 133.241 198.16C132.685 197.339 131.901 196.401 131.452 195.985C131.003 195.568 130.891 195.68 130.849 195.862C130.808 196.045 130.835 196.303 131.449 197.069L131.446 197.062Z" fill="#E9D8B9"/>
<path fill-rule="evenodd" clip-rule="evenodd" d="M137.373 206.644C138.341 206.496 140.046 206.09 140.513 205.861C140.981 205.626 140.208 205.566 139.22 205.64C138.231 205.714 137.023 205.92 136.443 206.102C135.857 206.282 135.895 206.436 136.031 206.564C136.167 206.693 136.402 206.797 137.371 206.649L137.373 206.644Z" fill="#E9D8B9"/>
<path fill-rule="evenodd" clip-rule="evenodd" d="M145.529 205.412C146.444 206.912 147.85 209.71 148.07 210.619C148.289 211.528 147.316 210.54 146.275 209.101C145.233 207.662 144.131 205.769 143.707 204.759C143.284 203.749 143.537 203.627 143.867 203.667C144.202 203.708 144.615 203.911 145.525 205.41L145.529 205.412Z" fill="#E9D8B9"/>
<path d="M107.236 291.918C91.152 284.54 76.446 277.504 65.8849 272.137C55.5415 266.887 49.0791 263.195 48.9559 262.254C48.9532 262.237 48.9546 262.21 48.9651 262.188C49.033 261.925 49.7946 261.963 51.1585 262.277C52.5424 262.595 54.5241 263.185 57.0033 264.019C68.1384 267.756 89.196 276.23 113.195 287.235C128.858 294.418 145.64 302.661 158.593 309.355C172.108 316.338 181.722 321.782 181.842 322.743C181.842 322.754 181.84 322.77 181.836 322.79C181.76 323.07 180.624 322.852 178.604 322.216L178.631 322.229C176.543 321.572 173.548 320.477 169.841 319.039C155.498 313.458 129.76 302.253 107.234 291.923L107.236 291.918ZM78.2957 276.915C87.4081 281.542 100.129 287.632 114.068 294.022C131.995 302.242 151.424 310.748 161.083 314.506C162.629 315.107 163.877 315.563 164.743 315.835L164.774 315.85C165.702 316.14 166.231 316.234 166.275 316.091L166.274 316.058C166.178 315.293 157.674 310.519 145.711 304.335C134.107 298.34 119.498 291.153 106.365 285.128C90.8637 278.021 77.3179 272.566 70.1949 270.175C68.4231 269.578 67.0299 269.164 66.0798 268.945C65.1097 268.722 64.5718 268.695 64.5217 268.884L64.5208 268.933C64.6159 269.653 69.8715 272.636 78.2933 276.908L78.2957 276.915Z" fill="#E9D8B9"/>
<path fill-rule="evenodd" clip-rule="evenodd" d="M132.305 96.376C132.779 94.4104 133.768 92.7334 134.631 91.1019C135.495 89.4704 136.232 87.8889 137.626 86.2427C139.019 84.5964 141.062 82.8924 143.438 81.7584C145.814 80.6244 148.529 80.0625 156.443 80.9084C164.361 81.7564 177.483 84.0143 185.178 85.6689C192.873 87.3235 195.144 88.3815 197.228 90.1102C199.312 91.8389 201.219 94.2381 203.152 96.0218C205.085 97.8056 207.036 98.9764 207.114 98.647C207.191 98.3176 205.385 96.4839 202.922 93.7773C200.462 91.0662 197.339 87.4737 191.49 85.038C185.642 82.6024 177.07 81.3193 169.103 80.4704C161.134 79.6261 153.77 79.216 147.9 78.6737C142.033 78.1269 137.661 77.4479 135.001 78.2913C132.34 79.1347 131.391 81.5116 130.47 83.7107C129.547 85.9143 128.655 87.9468 128.449 89.7812C128.243 91.6155 128.735 93.2514 129.431 95.3967C130.125 97.5466 131.023 100.206 131.448 100.404C131.878 100.605 131.836 98.3437 132.312 96.3736L132.305 96.376Z" fill="#E9D8B9"/>
<path fill-rule="evenodd" clip-rule="evenodd" d="M195.721 109.245C196.536 108.889 197.503 109.34 198.286 110.059C199.068 110.778 199.671 111.767 197.464 112.326C195.256 112.889 190.245 113.03 187.243 112.957C184.241 112.883 183.254 112.603 183.681 112.388C184.104 112.171 185.942 112.029 187.826 111.963C189.71 111.898 191.647 111.917 192.945 111.344C194.242 110.77 194.904 109.606 195.719 109.25L195.721 109.245Z" fill="#E9D8B9"/>
<path d="M242.255 108.611C241.886 106.444 241.519 104.283 240.87 102.176C240.231 100.084 239.317 98.0552 237.858 96.1433C236.356 94.1729 234.269 92.3226 232.216 91.0663C230.302 89.8967 228.423 89.2502 227.095 89.5148C225.186 89.8907 224.316 92.2608 223.471 94.5773C223.12 95.5422 222.768 96.4962 222.34 97.3218C221.586 98.7755 220.608 99.7867 219.581 100.518C218.56 101.248 217.493 101.7 216.55 102.04C214.689 102.722 213.323 102.974 211.951 103.229L211.902 102.972L211.808 102.715L211.852 102.703C213.194 102.456 214.533 102.202 216.363 101.539C217.27 101.208 218.292 100.78 219.264 100.087C220.229 99.397 221.149 98.4516 221.858 97.0809C222.27 96.2911 222.613 95.3441 222.962 94.3946C223.863 91.9351 224.78 89.4288 226.989 88.9915C228.46 88.7007 230.471 89.3812 232.493 90.6119C234.602 91.8999 236.744 93.7973 238.285 95.8241C239.788 97.7945 240.727 99.8844 241.386 102.029C242.039 104.16 242.411 106.345 242.783 108.53L242.257 108.618L242.255 108.611Z" fill="#E9D8B9"/>
<path fill-rule="evenodd" clip-rule="evenodd" d="M53.5381 197.197C54.5046 203.138 55.6575 215.595 58.8549 225.792C62.0524 235.989 67.29 243.926 67.2639 244.262C67.2333 244.597 61.9391 237.332 58.1786 228.683C54.4136 220.032 52.1909 209.988 51.2506 203.71C50.3146 197.435 50.6631 194.92 51.2285 193.378C51.794 191.837 52.5716 191.256 53.5381 197.197Z" fill="#E9D8B9"/>
<path fill-rule="evenodd" clip-rule="evenodd" d="M188.443 271.08C184.11 272.611 175.338 276.403 167.333 278.001C159.327 279.599 152.09 278.997 151.875 279.143C151.663 279.283 158.472 280.171 165.65 279.518C172.828 278.866 180.373 276.677 184.919 275.005C189.469 273.335 191.022 272.178 191.85 271.233C192.677 270.288 192.778 269.555 188.446 271.086L188.443 271.08Z" fill="#E9D8B9"/>
<path fill-rule="evenodd" clip-rule="evenodd" d="M184.479 184.783C181.248 181.516 174.078 175.199 169.221 168.634C164.367 162.076 161.824 155.27 161.604 155.135C161.383 154.999 163.487 161.541 167.134 167.755C170.781 173.969 175.978 179.863 179.43 183.265C182.882 186.667 184.59 187.577 185.795 187.926C187.003 188.271 187.711 188.05 184.475 184.781L184.479 184.783Z" fill="#E9D8B9"/>
<path fill-rule="evenodd" clip-rule="evenodd" d="M184.482 186.998C185.746 182.576 187.735 173.23 191.066 165.774C194.402 158.321 199.082 152.769 199.093 152.512C199.099 152.253 194.434 157.294 190.812 163.524C187.185 169.751 184.6 177.173 183.33 181.854C182.06 186.535 182.102 188.469 182.394 189.69C182.687 190.911 183.225 191.418 184.489 186.996L184.482 186.998Z" fill="#E9D8B9"/>
<path fill-rule="evenodd" clip-rule="evenodd" d="M176.17 220.406C173.598 224.218 168.812 232.49 163.333 238.542C157.853 244.594 151.68 248.424 151.59 248.666C151.504 248.909 157.5 245.563 162.877 240.761C168.254 235.96 173.013 229.709 175.67 225.658C178.328 221.601 178.887 219.746 178.989 218.496C179.092 217.246 178.736 216.595 176.164 220.408L176.17 220.406Z" fill="#E9D8B9"/>
<path fill-rule="evenodd" clip-rule="evenodd" d="M184.18 187.075C184.042 184.094 183.331 177.934 183.844 172.666C184.355 167.391 186.087 163.007 186.041 162.849C185.994 162.691 184.167 166.753 183.222 171.334C182.28 175.917 182.224 181.011 182.408 184.15C182.592 187.29 183.022 188.472 183.453 189.163C183.883 189.854 184.32 190.052 184.184 187.077L184.18 187.075Z" fill="#E9D8B9"/>
<path fill-rule="evenodd" clip-rule="evenodd" d="M124.822 161.937C124.684 158.955 123.972 152.795 124.486 147.527C124.997 142.252 126.729 137.868 126.682 137.71C126.636 137.552 124.809 141.614 123.863 146.195C122.922 150.779 122.866 155.873 123.05 159.012C123.233 162.151 123.664 163.333 124.094 164.024C124.525 164.715 124.961 164.913 124.826 161.939L124.822 161.937Z" fill="#E9D8B9"/>
<path d="M69.4348 122.775C68.5863 122.548 67.727 122.497 67.0276 122.629C66.3766 122.751 65.8713 123.028 65.651 123.455C65.611 123.529 65.58 123.607 65.5601 123.685C65.4638 124.044 65.5265 124.471 65.7276 124.87C65.9192 125.243 66.2448 125.585 66.6867 125.818C66.8483 125.904 67.0337 125.974 67.232 126.029C68.0316 126.243 69.08 126.181 70.0021 125.945C70.9548 125.702 71.7571 125.29 71.9965 124.835L72.0007 124.826C72.0195 124.786 72.0383 124.745 72.046 124.705C72.102 124.491 72.0141 124.271 71.8313 124.055C71.6007 123.789 71.2286 123.523 70.789 123.296C70.3763 123.082 69.9114 122.898 69.4414 122.772L69.4348 122.775ZM66.5379 121.867C67.3451 121.714 68.3371 121.772 69.3171 122.033C69.8739 122.183 70.4326 122.4 70.9307 122.664C71.5274 122.975 72.0509 123.361 72.407 123.767C72.8088 124.226 73.0013 124.714 72.8813 125.171C72.861 125.238 72.8342 125.307 72.8029 125.374L72.7987 125.383C72.5047 125.944 71.5962 126.431 70.5225 126.7C69.4972 126.959 68.2986 127.027 67.3453 126.768C67.0556 126.688 66.783 126.583 66.5384 126.453C65.8116 126.07 65.2832 125.508 64.9726 124.911C64.6783 124.337 64.5842 123.732 64.7206 123.228C64.7507 123.117 64.7897 123.01 64.8422 122.909C65.13 122.361 65.7505 122.012 66.5379 121.867Z" fill="#E9D8B9"/>
<path d="M88.4385 116.666C87.8299 116.24 87.3289 115.713 87.0337 115.188C86.7432 114.676 86.6495 114.164 86.817 113.746C86.848 113.667 86.888 113.593 86.9348 113.528L86.9456 113.517C87.1648 113.21 87.5453 112.978 88.0023 112.875C88.4835 112.766 89.0525 112.797 89.6049 113.027C89.7928 113.104 89.9791 113.207 90.1616 113.33C90.7544 113.742 91.2823 114.446 91.6222 115.145C91.976 115.871 92.1314 116.614 91.9552 117.039C91.9322 117.088 91.9072 117.142 91.8753 117.187C91.6775 117.471 91.3161 117.592 90.8671 117.584C90.4667 117.578 90.0081 117.462 89.5497 117.276C89.1696 117.121 88.7835 116.908 88.4365 116.67L88.4385 116.666ZM87.6901 115.101C87.948 115.554 88.3764 116.015 88.9038 116.381C89.1968 116.583 89.5178 116.76 89.8331 116.89C90.1709 117.031 90.4936 117.111 90.7524 117.117C90.9581 117.12 91.1268 117.062 91.2204 116.931C91.2375 116.906 91.2565 116.877 91.2667 116.844C91.4119 116.497 91.2658 115.851 90.9517 115.203C90.6492 114.577 90.1921 113.955 89.6939 113.608C89.57 113.523 89.4443 113.454 89.3212 113.402C88.9835 113.261 88.636 113.246 88.3393 113.31C88.0229 113.381 87.7555 113.545 87.598 113.766L87.5938 113.775C87.5598 113.825 87.5282 113.881 87.5076 113.937C87.3729 114.261 87.4573 114.676 87.6967 115.099L87.6901 115.101Z" fill="#E9D8B9"/>
<path d="M73.7757 146.935C73.2487 147.305 72.8214 147.766 72.5664 148.22C72.3305 148.644 72.2514 149.06 72.3841 149.384C72.4056 149.443 72.4358 149.495 72.4726 149.545C72.6312 149.766 72.9012 149.935 73.2192 150.002C73.5171 150.064 73.8637 150.046 74.2025 149.904L74.209 149.901C74.3314 149.849 74.4556 149.782 74.577 149.696C75.0736 149.344 75.5252 148.726 75.824 148.096C76.1332 147.444 76.2791 146.803 76.1302 146.456C76.1183 146.423 76.0998 146.393 76.0836 146.369C75.9916 146.239 75.822 146.181 75.6166 146.189C75.3581 146.194 75.0399 146.281 74.7011 146.423C74.3886 146.555 74.0663 146.732 73.7736 146.939L73.7757 146.935ZM71.9099 148.143C72.2049 147.615 72.6986 147.082 73.3059 146.656C73.653 146.414 74.0362 146.2 74.4143 146.044C74.8689 145.852 75.3301 145.74 75.7277 145.729C76.174 145.718 76.5398 145.834 76.74 146.118C76.7698 146.159 76.8 146.212 76.8192 146.264C76.9967 146.69 76.847 147.433 76.4957 148.164C76.1591 148.863 75.6391 149.57 75.0471 149.986C74.8692 150.111 74.6863 150.211 74.5027 150.289L74.4941 150.296C73.9389 150.528 73.3717 150.563 72.8913 150.46C72.4265 150.358 72.0442 150.125 71.8234 149.815C71.775 149.743 71.7332 149.669 71.7024 149.595C71.5296 149.182 71.6236 148.664 71.9102 148.154L71.9099 148.143Z" fill="#E9D8B9"/>
<path d="M176.595 68.9168C175.986 68.4914 175.485 67.9636 175.19 67.4389C174.899 66.9274 174.806 66.4148 174.973 65.9967C175.004 65.9184 175.044 65.8443 175.091 65.7789L175.102 65.7676C175.321 65.4607 175.702 65.2291 176.159 65.1257C176.64 65.0173 177.209 65.0479 177.761 65.278C177.949 65.3546 178.135 65.4577 178.318 65.5809C178.911 65.9934 179.439 66.6974 179.778 67.3955C180.132 68.122 180.288 68.865 180.111 69.29C180.088 69.3393 180.063 69.3931 180.032 69.4382C179.834 69.7223 179.472 69.8429 179.023 69.8355C178.623 69.8289 178.164 69.7134 177.706 69.5271C177.326 69.3718 176.94 69.1592 176.593 68.9212L176.595 68.9168ZM175.846 67.3522C176.104 67.8049 176.533 68.2662 177.06 68.6319C177.353 68.8338 177.674 69.0106 177.989 69.1411C178.327 69.2821 178.65 69.3616 178.909 69.3677C179.114 69.3708 179.283 69.313 179.377 69.1822C179.394 69.1574 179.413 69.1281 179.423 69.0947C179.568 68.7479 179.422 68.1019 179.108 67.4539C178.805 66.8277 178.348 66.2058 177.85 65.8592C177.726 65.7742 177.601 65.7048 177.477 65.6529C177.14 65.5119 176.792 65.4973 176.496 65.5608C176.179 65.6315 175.912 65.7959 175.754 66.017L175.75 66.0259C175.716 66.0755 175.684 66.1317 175.664 66.1875C175.529 66.5119 175.614 66.9275 175.853 67.3498L175.846 67.3522Z" fill="#E9D8B9"/>
<path d="M219.421 203.836C218.812 203.411 218.311 202.883 218.016 202.358C217.726 201.847 217.632 201.334 217.799 200.916C217.83 200.838 217.87 200.764 217.917 200.698L217.928 200.687C218.147 200.38 218.528 200.149 218.985 200.045C219.466 199.937 220.035 199.967 220.587 200.197C220.775 200.274 220.962 200.377 221.144 200.5C221.737 200.913 222.265 201.617 222.605 202.315C222.958 203.041 223.114 203.784 222.938 204.209C222.915 204.259 222.89 204.313 222.858 204.358C222.66 204.642 222.298 204.762 221.849 204.755C221.449 204.748 220.991 204.633 220.532 204.447C220.152 204.291 219.766 204.079 219.419 203.841L219.421 203.836ZM218.673 202.272C218.93 202.724 219.359 203.186 219.886 203.551C220.179 203.753 220.5 203.93 220.816 204.061C221.153 204.202 221.476 204.281 221.735 204.287C221.941 204.29 222.109 204.232 222.203 204.102C222.22 204.077 222.239 204.048 222.249 204.014C222.394 203.667 222.248 203.021 221.934 202.373C221.632 201.747 221.175 201.125 220.676 200.779C220.552 200.694 220.427 200.624 220.304 200.572C219.966 200.431 219.618 200.417 219.322 200.48C219.005 200.551 218.738 200.715 218.58 200.936L218.576 200.945C218.542 200.995 218.511 201.051 218.49 201.107C218.355 201.431 218.44 201.847 218.679 202.269L218.673 202.272Z" fill="#E9D8B9"/>
<path d="M32.3382 206.639C31.8112 207.01 31.3839 207.471 31.1289 207.924C30.893 208.349 30.8139 208.765 30.9466 209.088C30.9681 209.147 30.9983 209.199 31.0351 209.249C31.1937 209.47 31.4637 209.64 31.7817 209.706C32.0796 209.769 32.4262 209.75 32.765 209.608L32.7716 209.606C32.8939 209.554 33.0181 209.486 33.1395 209.401C33.6361 209.049 34.0877 208.43 34.3865 207.801C34.6957 207.149 34.8416 206.508 34.6928 206.16C34.6808 206.128 34.6623 206.097 34.6461 206.073C34.5541 205.943 34.3845 205.886 34.1791 205.894C33.9206 205.899 33.6024 205.985 33.2636 206.127C32.9511 206.26 32.6288 206.437 32.3361 206.644L32.3382 206.639ZM30.4724 207.848C30.7674 207.32 31.2611 206.786 31.8684 206.361C32.2155 206.119 32.5987 205.905 32.9768 205.748C33.4314 205.556 33.8926 205.444 34.2902 205.433C34.7365 205.423 35.1023 205.539 35.3025 205.823C35.3323 205.864 35.3625 205.916 35.3817 205.969C35.5592 206.395 35.4095 207.138 35.0582 207.868C34.7216 208.568 34.2016 209.274 33.6096 209.691C33.4317 209.815 33.2488 209.915 33.0652 209.993L33.0587 209.996C32.5035 210.228 31.9363 210.264 31.4559 210.16C30.991 210.058 30.6088 209.825 30.388 209.515C30.3396 209.443 30.2978 209.369 30.267 209.295C30.0942 208.882 30.1882 208.364 30.4748 207.854L30.4724 207.848Z" fill="#E9D8B9"/>
<path d="M230.7 61.4836C230.173 61.8542 229.746 62.315 229.491 62.7687C229.255 63.1932 229.176 63.6088 229.309 63.9324C229.33 63.9915 229.361 64.0437 229.397 64.0936C229.556 64.3147 229.826 64.4841 230.144 64.5504C230.442 64.6129 230.789 64.5944 231.127 64.4524L231.134 64.45C231.256 64.3979 231.38 64.3303 231.502 64.2452C231.998 63.8931 232.45 63.2747 232.749 62.645C233.058 61.993 233.204 61.3521 233.055 61.0047C233.043 60.9719 233.025 60.9414 233.008 60.9175C232.916 60.7874 232.747 60.7302 232.541 60.7381C232.283 60.7431 231.965 60.8293 231.626 60.9714C231.313 61.1039 230.991 61.2809 230.698 61.4881L230.7 61.4836ZM228.835 62.6919C229.13 62.164 229.623 61.6307 230.231 61.2048C230.578 60.963 230.961 60.7489 231.339 60.5924C231.794 60.4007 232.255 60.2884 232.653 60.2774C233.099 60.2672 233.465 60.383 233.665 60.6671C233.695 60.7083 233.725 60.7605 233.744 60.8131C233.922 61.2393 233.772 61.982 233.421 62.7126C233.084 63.4118 232.564 64.1184 231.972 64.535C231.794 64.6594 231.611 64.7595 231.428 64.8376L231.421 64.84C230.866 65.0721 230.299 65.1078 229.818 65.0039C229.353 64.9019 228.971 64.6692 228.75 64.3592C228.702 64.2876 228.66 64.2136 228.629 64.1392C228.456 63.7261 228.551 63.2083 228.837 62.6984L228.835 62.6919Z" fill="#E9D8B9"/>
<path d="M153.399 254.318C152.872 254.689 152.444 255.149 152.189 255.603C151.954 256.028 151.874 256.443 152.007 256.767C152.029 256.826 152.059 256.878 152.096 256.928C152.254 257.149 152.524 257.319 152.842 257.385C153.14 257.447 153.487 257.429 153.826 257.287L153.832 257.284C153.954 257.232 154.079 257.165 154.2 257.08C154.697 256.728 155.148 256.109 155.447 255.48C155.756 254.827 155.902 254.187 155.753 253.839C155.741 253.806 155.723 253.776 155.707 253.752C155.615 253.622 155.445 253.565 155.24 253.573C154.981 253.578 154.663 253.664 154.324 253.806C154.012 253.938 153.689 254.115 153.397 254.323L153.399 254.318ZM151.533 255.526C151.828 254.999 152.322 254.465 152.929 254.039C153.276 253.797 153.659 253.583 154.037 253.427C154.492 253.235 154.953 253.123 155.351 253.112C155.797 253.102 156.163 253.218 156.363 253.502C156.393 253.543 156.423 253.595 156.442 253.648C156.62 254.074 156.47 254.816 156.119 255.547C155.782 256.246 155.262 256.953 154.67 257.37C154.492 257.494 154.309 257.594 154.126 257.672L154.117 257.679C153.562 257.911 152.995 257.947 152.514 257.843C152.049 257.741 151.667 257.508 151.446 257.198C151.398 257.127 151.356 257.053 151.325 256.978C151.153 256.565 151.247 256.047 151.533 255.537L151.533 255.526Z" fill="#E9D8B9"/>
<path fill-rule="evenodd" clip-rule="evenodd" d="M102.62 281.219C100.642 278.935 95.8753 274.189 93.5802 270.176C91.2807 266.16 91.4466 262.878 91.2797 262.757C91.1082 262.634 90.5995 265.668 91.8048 269.13C93.0081 272.597 95.93 276.494 98.077 278.906C100.224 281.319 101.6 282.238 102.696 282.787C103.793 283.336 104.602 283.505 102.624 281.221L102.62 281.219Z" fill="#E9D8B9"/>
<path d="M244.389 250.501C243.862 250.871 243.435 251.332 243.18 251.786C242.944 252.21 242.865 252.626 242.997 252.949C243.019 253.009 243.049 253.061 243.086 253.111C243.244 253.332 243.514 253.501 243.832 253.568C244.13 253.63 244.477 253.612 244.816 253.469L244.822 253.467C244.945 253.415 245.069 253.347 245.19 253.262C245.687 252.91 246.139 252.292 246.437 251.662C246.746 251.01 246.892 250.369 246.744 250.022C246.732 249.989 246.713 249.959 246.697 249.935C246.605 249.805 246.435 249.747 246.23 249.755C245.971 249.76 245.653 249.846 245.314 249.989C245.002 250.121 244.68 250.298 244.387 250.505L244.389 250.501ZM242.523 251.709C242.818 251.181 243.312 250.648 243.919 250.222C244.266 249.98 244.649 249.766 245.028 249.61C245.482 249.418 245.943 249.305 246.341 249.294C246.787 249.284 247.153 249.4 247.353 249.684C247.383 249.725 247.413 249.778 247.432 249.83C247.61 250.256 247.46 250.999 247.109 251.73C246.772 252.429 246.252 253.135 245.66 253.552C245.483 253.676 245.3 253.777 245.116 253.855L245.107 253.862C244.552 254.094 243.985 254.129 243.505 254.025C243.04 253.923 242.657 253.691 242.437 253.381C242.388 253.309 242.346 253.235 242.316 253.161C242.143 252.748 242.237 252.23 242.524 251.72L242.523 251.709Z" fill="#E9D8B9"/>
<path d="M134.746 245.198C134.219 245.569 133.792 246.029 133.537 246.483C133.301 246.908 133.222 247.323 133.355 247.647C133.376 247.706 133.407 247.758 133.443 247.808C133.602 248.029 133.872 248.198 134.19 248.265C134.488 248.327 134.834 248.309 135.173 248.167L135.18 248.164C135.302 248.112 135.426 248.045 135.548 247.96C136.044 247.607 136.496 246.989 136.795 246.359C137.104 245.707 137.25 245.066 137.101 244.719C137.089 244.686 137.07 244.656 137.054 244.632C136.962 244.502 136.793 244.445 136.587 244.452C136.329 244.457 136.011 244.544 135.672 244.686C135.359 244.818 135.037 244.995 134.744 245.202L134.746 245.198ZM132.881 246.406C133.176 245.878 133.669 245.345 134.277 244.919C134.624 244.677 135.007 244.463 135.385 244.307C135.84 244.115 136.301 244.003 136.698 243.992C137.145 243.982 137.51 244.097 137.711 244.381C137.741 244.423 137.771 244.475 137.79 244.527C137.967 244.954 137.818 245.696 137.466 246.427C137.13 247.126 136.61 247.833 136.018 248.249C135.84 248.374 135.657 248.474 135.473 248.552L135.465 248.559C134.91 248.791 134.342 248.827 133.862 248.723C133.397 248.621 133.015 248.388 132.794 248.078C132.746 248.006 132.704 247.932 132.673 247.858C132.5 247.445 132.594 246.927 132.881 246.417L132.881 246.406Z" fill="#E9D8B9"/>
<path fill-rule="evenodd" clip-rule="evenodd" d="M134.513 245.056C133.407 245.839 132.698 246.986 133.019 247.747C133.337 248.505 134.676 248.884 135.786 248.103C136.892 247.321 137.767 245.384 137.452 244.621C137.135 243.862 135.623 244.276 134.517 245.058L134.513 245.056Z" fill="#E9D8B9"/>
<path d="M119.887 258.139C119.964 259.156 120.175 260.307 120.485 261.361L120.487 261.368C120.773 262.346 121.129 263.232 121.519 263.834L121.535 263.857C121.798 264.253 122.075 264.523 122.324 264.634C122.449 264.692 122.567 264.709 122.663 264.677C122.757 264.65 122.84 264.58 122.905 264.463C123.014 264.263 123.06 263.919 123.026 263.407C122.953 262.452 122.596 260.96 122.147 259.524C121.682 258.042 121.135 256.654 120.713 256.015L120.697 255.991C120.575 255.809 120.47 255.706 120.385 255.666C120.313 255.633 120.247 255.646 120.189 255.689C120.126 255.742 120.067 255.845 120.02 255.981C119.867 256.428 119.822 257.225 119.889 258.134L119.887 258.139ZM120.047 261.517C119.693 260.3 119.446 258.969 119.358 257.8C119.279 256.694 119.338 255.713 119.537 255.146C119.611 254.929 119.708 254.767 119.823 254.673C119.946 254.573 120.091 254.553 120.259 254.626C120.443 254.712 120.649 254.911 120.875 255.246L120.896 255.272C121.411 256.062 122.049 257.652 122.573 259.313C123.072 260.909 123.475 262.607 123.559 263.748C123.616 264.527 123.532 265.06 123.357 265.388C123.252 265.579 123.118 265.691 122.964 265.739C122.813 265.783 122.64 265.757 122.459 265.678C122.116 265.524 121.73 265.148 121.368 264.603L121.347 264.577C120.848 263.81 120.398 262.717 120.056 261.533L120.054 261.526L120.047 261.517Z" fill="#E9D8B9"/>
<path fill-rule="evenodd" clip-rule="evenodd" d="M119.624 257.967C119.782 260.108 120.513 262.798 121.429 264.201C122.346 265.604 123.443 265.717 123.285 263.577C123.126 261.437 121.716 257.045 120.8 255.642C119.883 254.239 119.465 255.827 119.624 257.967Z" fill="#E9D8B9"/>
<path d="M154.472 165.352C154.549 166.369 154.76 167.519 155.07 168.574L155.072 168.581C155.353 169.557 155.714 170.445 156.104 171.046L156.12 171.07C156.383 171.465 156.66 171.736 156.909 171.847C157.034 171.905 157.152 171.922 157.248 171.89C157.342 171.863 157.424 171.792 157.49 171.676C157.599 171.476 157.645 171.132 157.611 170.62C157.538 169.664 157.181 168.173 156.732 166.737C156.267 165.255 155.72 163.866 155.298 163.228L155.282 163.204C155.16 163.022 155.055 162.919 154.97 162.879C154.898 162.846 154.832 162.859 154.774 162.902C154.711 162.955 154.652 163.058 154.605 163.194C154.451 163.641 154.407 164.438 154.474 165.347L154.472 165.352ZM154.632 168.73C154.278 167.513 154.031 166.182 153.943 165.013C153.864 163.907 153.923 162.926 154.122 162.359C154.196 162.142 154.293 161.98 154.408 161.886C154.531 161.786 154.676 161.766 154.844 161.839C155.028 161.924 155.234 162.124 155.46 162.459L155.481 162.485C155.996 163.275 156.634 164.865 157.158 166.526C157.657 168.122 158.06 169.82 158.144 170.961C158.201 171.74 158.116 172.273 157.942 172.601C157.837 172.792 157.703 172.904 157.549 172.952C157.398 172.996 157.225 172.97 157.044 172.891C156.701 172.737 156.315 172.361 155.953 171.816L155.932 171.79C155.433 171.023 154.983 169.93 154.641 168.745L154.639 168.739L154.632 168.73Z" fill="#E9D8B9"/>
<path fill-rule="evenodd" clip-rule="evenodd" d="M154.21 165.18C154.368 167.32 155.099 170.011 156.015 171.414C156.932 172.817 158.029 172.93 157.871 170.789C157.712 168.649 156.302 164.257 155.386 162.854C154.469 161.451 154.051 163.039 154.21 165.18Z" fill="#E9D8B9"/>
<path d="M204.264 106.752C204.319 107.454 204.465 108.253 204.675 108.983C204.873 109.659 205.12 110.275 205.39 110.69C205.574 110.973 205.77 111.162 205.945 111.243C206.03 111.283 206.112 111.294 206.18 111.276C206.243 111.257 206.304 111.209 206.346 111.13C206.422 110.991 206.455 110.756 206.43 110.4C206.383 109.741 206.133 108.708 205.823 107.713C205.5 106.685 205.118 105.727 204.834 105.284C204.744 105.149 204.671 105.072 204.608 105.043C204.559 105.02 204.513 105.025 204.474 105.062C204.429 105.101 204.391 105.17 204.358 105.264C204.254 105.57 204.22 106.121 204.269 106.755L204.264 106.752ZM204.375 109.089C204.129 108.249 203.959 107.325 203.9 106.517C203.841 105.754 203.884 105.076 204.024 104.683C204.077 104.533 204.14 104.421 204.22 104.355C204.307 104.286 204.406 104.272 204.518 104.324C204.648 104.385 204.798 104.531 204.957 104.774C205.312 105.321 205.758 106.423 206.117 107.572C206.464 108.677 206.742 109.848 206.799 110.638C206.838 111.174 206.78 111.545 206.658 111.772C206.586 111.902 206.493 111.984 206.386 112.016C206.281 112.043 206.161 112.031 206.035 111.972C205.794 111.86 205.523 111.597 205.269 111.207C204.923 110.674 204.612 109.914 204.373 109.093L204.375 109.089Z" fill="#E9D8B9"/>
<path fill-rule="evenodd" clip-rule="evenodd" d="M204.081 106.629C204.188 108.108 204.699 109.971 205.332 110.941C205.964 111.912 206.725 111.988 206.618 110.51C206.506 109.029 205.529 105.99 204.896 105.019C204.264 104.048 203.971 105.144 204.081 106.629Z" fill="#E9D8B9"/>
<path d="M124.277 122.642C124.332 123.343 124.477 124.142 124.688 124.872C124.885 125.548 125.132 126.165 125.403 126.579C125.587 126.862 125.783 127.051 125.957 127.132C126.042 127.172 126.124 127.183 126.192 127.165C126.256 127.146 126.317 127.098 126.359 127.019C126.434 126.88 126.468 126.645 126.442 126.29C126.395 125.63 126.146 124.597 125.835 123.602C125.513 122.574 125.131 121.616 124.847 121.173C124.757 121.038 124.684 120.961 124.621 120.932C124.572 120.909 124.525 120.914 124.487 120.951C124.441 120.99 124.403 121.059 124.371 121.153C124.266 121.459 124.233 122.01 124.281 122.644L124.277 122.642ZM124.388 124.978C124.141 124.138 123.972 123.214 123.912 122.406C123.854 121.643 123.897 120.965 124.036 120.572C124.09 120.422 124.153 120.31 124.233 120.244C124.319 120.175 124.418 120.161 124.53 120.213C124.66 120.274 124.81 120.42 124.97 120.663C125.325 121.211 125.771 122.313 126.13 123.461C126.477 124.566 126.754 125.737 126.812 126.527C126.851 127.063 126.792 127.434 126.67 127.661C126.599 127.791 126.506 127.873 126.399 127.905C126.293 127.932 126.173 127.92 126.048 127.862C125.806 127.749 125.536 127.487 125.282 127.096C124.936 126.564 124.625 125.803 124.386 124.982L124.388 124.978Z" fill="#E9D8B9"/>
<path fill-rule="evenodd" clip-rule="evenodd" d="M124.096 122.525C124.204 124.004 124.715 125.867 125.347 126.837C125.98 127.808 126.74 127.884 126.633 126.406C126.522 124.925 125.545 121.886 124.912 120.915C124.28 119.944 123.987 121.04 124.096 122.525Z" fill="#E9D8B9"/>
<path d="M66.5606 200.079C67.2195 199.6 68.0336 199.14 68.8353 198.788C69.6193 198.439 70.3996 198.192 71.0297 198.115C71.4924 198.058 71.8671 198.096 72.109 198.209C72.2344 198.267 72.3228 198.346 72.3676 198.449C72.4125 198.552 72.4138 198.678 72.3556 198.814C72.2626 199.049 72.0141 199.337 71.5784 199.652C70.9368 200.116 69.8618 200.657 68.793 201.102C67.6827 201.566 66.5521 201.934 65.9043 202.014C65.6112 202.046 65.4072 202.028 65.2774 201.967L65.2639 201.961C65.1585 201.906 65.1098 201.824 65.1047 201.718C65.104 201.614 65.1448 201.491 65.2295 201.356L65.2424 201.34C65.4625 200.985 65.9494 200.524 66.5585 200.083L66.5606 200.079ZM68.9519 199.088C68.2574 199.397 67.5477 199.797 66.9798 200.208C66.4704 200.576 66.0739 200.948 65.9068 201.224L65.9006 201.238C65.8478 201.328 65.8189 201.401 65.8204 201.457C65.8195 201.505 65.8449 201.544 65.8876 201.57L65.8966 201.574C65.9593 201.603 66.0701 201.611 66.2265 201.591C66.751 201.53 67.7324 201.202 68.7224 200.786C69.684 200.383 70.6349 199.91 71.1702 199.521C71.4585 199.312 71.6193 199.131 71.6751 198.988C71.7081 198.905 71.7105 198.83 71.68 198.767C71.6495 198.703 71.5883 198.648 71.5032 198.608C71.3285 198.527 71.058 198.499 70.7231 198.539C70.2317 198.599 69.6028 198.802 68.9563 199.09L68.9519 199.088Z" fill="#E9D8B9"/>
<path fill-rule="evenodd" clip-rule="evenodd" d="M66.7677 200.137C67.9685 199.268 69.7237 198.461 70.8739 198.32C72.0241 198.18 72.5716 198.713 71.3708 199.582C70.1655 200.449 67.2098 201.657 66.0596 201.797C64.9094 201.938 65.5603 201.009 66.7677 200.137Z" fill="#E9D8B9"/>
<path d="M148.953 214.258C149.612 213.78 150.426 213.32 151.228 212.968C152.012 212.619 152.792 212.372 153.422 212.294C153.885 212.237 154.26 212.276 154.502 212.388C154.627 212.447 154.715 212.526 154.76 212.629C154.805 212.731 154.806 212.857 154.748 212.994C154.655 213.229 154.407 213.516 153.971 213.831C153.329 214.296 152.254 214.836 151.186 215.282C150.075 215.746 148.945 216.114 148.297 216.194C148.004 216.226 147.8 216.207 147.67 216.147L147.656 216.141C147.551 216.086 147.502 216.003 147.497 215.897C147.497 215.793 147.537 215.671 147.622 215.536L147.635 215.52C147.855 215.164 148.342 214.704 148.951 214.263L148.953 214.258ZM151.344 213.268C150.65 213.576 149.94 213.977 149.372 214.388C148.863 214.756 148.466 215.127 148.299 215.404L148.293 215.418C148.24 215.507 148.211 215.581 148.213 215.636C148.212 215.685 148.237 215.724 148.28 215.75L148.289 215.754C148.352 215.783 148.463 215.791 148.619 215.771C149.144 215.71 150.125 215.382 151.115 214.965C152.077 214.563 153.027 214.09 153.563 213.701C153.851 213.492 154.012 213.311 154.068 213.168C154.101 213.085 154.103 213.01 154.073 212.946C154.042 212.883 153.981 212.827 153.896 212.788C153.721 212.706 153.451 212.678 153.116 212.719C152.624 212.779 151.995 212.982 151.349 213.27L151.344 213.268Z" fill="#E9D8B9"/>
<path fill-rule="evenodd" clip-rule="evenodd" d="M149.163 214.323C150.364 213.454 152.119 212.647 153.269 212.506C154.42 212.366 154.967 212.899 153.766 213.768C152.561 214.635 149.605 215.843 148.455 215.983C147.305 216.124 147.956 215.195 149.163 214.323Z" fill="#E9D8B9"/>
</g>
<defs>
<clipPath id="clip0_78_38501">
<rect width="227.153" height="274.697" fill="white" transform="translate(116.001) rotate(24.979)"/>
</clipPath>
</defs>
</svg>
