<svg width="369" height="489" viewBox="0 0 369 489" fill="none" xmlns="http://www.w3.org/2000/svg">
<g clip-path="url(#clip0_78_38575)">
<path d="M187.856 174.802C189.051 174.233 190.48 174.741 191.054 175.934C191.626 177.131 191.124 178.568 189.927 179.141L189.902 179.153L189.904 179.159C182.965 182.422 176.023 185.682 170.427 189.417L170.423 189.425C168.053 191.006 165.918 192.669 163.925 194.217C160.946 196.531 158.267 198.611 155.552 199.922C154.269 200.542 153.074 200.945 151.885 201.345C149.227 202.244 146.604 203.13 143.765 206.896C141.409 210.021 138.88 215.001 137.51 220.182C136.46 224.147 136.111 228.179 137.09 231.442C138.245 235.271 141.464 238.408 144.432 241.301C147.553 244.344 150.445 247.162 151.312 250.816C152.32 255.063 150.32 259.429 148.382 263.663C147.068 266.533 145.786 269.335 145.847 271.428C145.961 275.273 151.225 278.522 157.308 282.278C158.404 282.955 159.515 283.64 160.262 284.115C164.647 286.89 169.139 290.027 172.72 293.141C175.783 295.8 178.205 298.484 179.41 300.99C180.842 303.963 180.577 306.366 180.326 308.649C180.146 310.262 179.979 311.784 180.904 313.103C182.083 314.791 184.761 316.644 188.405 318.372C192.169 320.157 196.892 321.749 202.045 322.852C205.753 323.648 209.694 324.189 213.636 324.735C221.149 325.769 228.662 326.804 235.027 329.59C239.573 331.577 243.416 334.414 246.62 337.657L246.626 337.665C250.429 341.507 253.325 345.928 255.424 350.167C256.244 351.823 256.978 353.555 257.671 355.189C259.65 359.86 261.256 363.643 265.137 364.394C267.296 364.812 270.408 364.523 274.214 364.17C281.039 363.538 289.962 362.709 300.891 365.096C311.362 367.378 323.498 372.607 334.168 377.209C340.923 380.12 347.083 382.771 351.751 384.201C357.041 385.822 360.053 385.817 361.645 384.831C362.941 384.027 363.351 382.185 363.395 379.981C363.445 377.618 363.066 374.853 362.707 372.2C362.178 368.315 361.673 364.646 362.436 361.922C362.609 361.306 362.837 360.75 363.122 360.249C364.069 358.573 365.535 357.532 367.295 357.069C368.849 356.66 370.625 356.731 372.427 357.234C373.514 357.537 374.618 357.999 375.688 358.606C378.87 360.404 381.728 363.415 384.627 366.476C385.881 367.799 387.142 369.13 388.347 370.279C390.308 372.15 392.349 373.781 394.527 375.277C396.711 376.78 399.038 378.145 401.55 379.481C404.036 380.8 406.699 382.084 409.19 382.874C411.415 383.576 413.461 383.872 415.006 383.39C416.434 382.947 417.616 381.703 418.652 379.888C419.876 377.737 420.855 374.876 421.73 371.57C422.712 367.885 423.553 363.69 423.98 359.607C424.333 356.23 424.396 352.942 424.01 350.119C423.605 347.181 422.696 344.732 421.285 342.54C419.844 340.299 417.85 338.29 415.323 336.293C412.307 333.905 408.506 331.517 405.065 329.358C402.453 327.717 400.044 326.205 398.18 324.809C394.428 321.996 393.418 320.041 392.3 317.869C392.092 317.464 391.875 317.044 391.622 316.598C390.274 314.22 387.892 311.16 385.513 308.106C385.434 308.005 385.366 307.9 385.304 307.793C384.724 306.777 384.959 305.463 385.907 304.714C386.855 303.966 388.195 304.051 389.045 304.857C389.136 304.944 389.223 305.038 389.306 305.141C391.804 308.349 394.301 311.556 395.809 314.214C396.085 314.706 396.333 315.184 396.574 315.654C397.434 317.318 398.204 318.818 401.059 320.96C402.655 322.156 405.035 323.649 407.62 325.273C411.161 327.499 415.081 329.957 418.314 332.516C421.237 334.831 423.579 337.209 425.331 339.929C427.116 342.703 428.267 345.788 428.774 349.472C429.219 352.708 429.155 356.381 428.761 360.114C428.308 364.458 427.411 368.905 426.378 372.805C425.398 376.496 424.28 379.736 422.846 382.261C421.218 385.124 419.162 387.136 416.445 387.983C413.843 388.795 410.834 388.431 407.742 387.456C404.918 386.564 402.002 385.165 399.303 383.731C396.633 382.316 394.156 380.855 391.809 379.241C389.451 377.621 387.22 375.833 385.043 373.757C383.671 372.446 382.406 371.113 381.152 369.79C378.51 367.002 375.903 364.255 373.337 362.806C372.585 362.384 371.837 362.065 371.122 361.865C370.139 361.591 369.239 361.533 368.519 361.726C368.007 361.86 367.583 362.148 367.329 362.604C367.229 362.786 367.141 362.993 367.075 363.226C366.581 364.989 367.015 368.175 367.479 371.546C367.864 374.382 368.271 377.336 368.21 380.074C368.131 383.79 367.205 387.037 364.178 388.914C361.448 390.608 357.139 390.88 350.334 388.799C345.492 387.316 339.182 384.599 332.262 381.614C321.809 377.11 309.921 371.988 299.866 369.795C289.671 367.569 281.171 368.358 274.663 368.959C270.464 369.351 267.036 369.667 264.219 369.124C257.842 367.894 255.787 363.045 253.247 357.061C252.617 355.573 251.949 353.999 251.107 352.299C249.213 348.473 246.607 344.492 243.197 341.045C240.388 338.198 237.035 335.719 233.097 333.994C227.37 331.489 220.168 330.499 212.968 329.505C208.928 328.947 204.883 328.391 201.032 327.566C195.547 326.39 190.46 324.67 186.353 322.724C181.955 320.64 178.607 318.232 176.954 315.872C174.987 313.061 175.253 310.663 175.535 308.122C175.715 306.499 175.9 304.791 175.075 303.074C174.182 301.223 172.174 299.047 169.568 296.783C166.214 293.87 161.919 290.874 157.695 288.204C156.469 287.431 155.62 286.903 154.793 286.391C147.523 281.904 141.232 278.021 141.04 271.567C140.947 268.381 142.466 265.056 144.024 261.658C145.618 258.174 147.265 254.588 146.632 251.927C146.094 249.653 143.683 247.306 141.077 244.765C137.681 241.455 133.996 237.869 132.481 232.836C131.218 228.644 131.608 223.709 132.863 218.957C134.396 213.16 137.256 207.55 139.921 204.01C143.65 199.058 146.98 197.935 150.346 196.799C151.396 196.445 152.453 196.084 153.468 195.597C155.704 194.518 158.192 192.583 160.96 190.438C163.06 188.808 165.31 187.058 167.75 185.432L167.752 185.438C173.711 181.459 180.784 178.139 187.854 174.816L187.856 174.822L187.856 174.802Z" fill="#E9D8B9"/>
<path d="M169.6 184.157C170.481 184.255 171.117 185.048 171.022 185.931C170.924 186.811 170.131 187.448 169.249 187.354C163.807 186.759 158.363 186.159 153.611 186.397C149.034 186.626 145.028 187.611 142.164 190.116C138.536 193.29 136.438 199.157 133.938 206.156C132.346 210.608 130.593 215.505 128.154 220.553C125.622 225.79 122.413 231.075 119.219 236.328C114.382 244.29 109.582 252.182 107.498 259.344C105.811 265.146 105.877 270.564 106.961 275.662C108.058 280.835 110.202 285.725 112.63 290.384C115.065 295.06 117.788 299.496 121.396 303.959C124.994 308.413 129.493 312.901 135.489 317.68C140.204 321.44 145.828 325.375 151.571 329.386C160.691 335.765 170.11 342.348 176.773 348.838C182.808 354.714 186.536 360.453 189.92 365.66C192.601 369.784 195.056 373.567 198.259 376.726C201.822 380.241 206.4 383.093 211.225 385.514C216.081 387.95 221.26 389.972 225.919 391.793L226.014 391.828C235.366 395.481 242.632 398.322 252.264 403.19C253.864 403.998 255.474 404.836 257.148 405.703C265.747 410.167 276.111 415.552 289.112 419.442C301.049 423.011 315.28 425.339 328.623 427.521C332.464 428.147 336.231 428.766 340.476 429.509C343.891 430.109 346.73 430.637 349.458 431.143C361.59 433.399 371.548 435.249 378.442 434.078C386.179 432.763 390.379 427.404 394.505 422.142L395.281 421.147C397.125 418.81 398.93 416.616 400.818 414.32C403.771 410.725 406.928 406.885 410.485 402.218C413.681 398.015 417.215 393.128 420.183 388.633C422.625 384.933 424.677 381.524 425.824 379.029C427.863 374.589 426.745 373.505 425.53 372.523C424.871 372.09 424.614 371.227 424.961 370.492C425.339 369.69 426.296 369.346 427.099 369.724L427.095 369.732C427.207 369.785 427.313 369.85 427.411 369.93C429.649 371.722 431.882 373.517 428.731 380.375C427.499 383.059 425.368 386.607 422.865 390.405C419.857 394.964 416.279 399.914 413.044 404.166C409.442 408.899 406.273 412.754 403.308 416.362C401.388 418.697 399.554 420.931 397.81 423.139L397.037 424.127C392.529 429.882 387.935 435.734 378.983 437.256C371.538 438.518 361.325 436.621 348.877 434.309C345.864 433.747 342.714 433.165 339.921 432.673C336.552 432.08 332.371 431.397 328.103 430.702C314.656 428.504 300.316 426.159 288.188 422.529C274.947 418.57 264.414 413.096 255.682 408.564C253.978 407.678 252.344 406.829 250.822 406.063C241.38 401.289 234.149 398.465 224.848 394.831L224.77 394.799C220.073 392.965 214.845 390.924 209.79 388.39C204.692 385.835 199.84 382.8 196.014 379.025C192.565 375.623 190.015 371.697 187.234 367.414C183.952 362.363 180.341 356.8 174.532 351.148C168.039 344.827 158.738 338.324 149.727 332.025C143.923 327.966 138.239 323.993 133.482 320.198C127.307 315.271 122.65 310.621 118.9 305.984C115.156 301.354 112.326 296.74 109.792 291.871C107.248 286.992 104.996 281.846 103.826 276.331C102.639 270.746 102.569 264.812 104.42 258.454C106.625 250.87 111.527 242.812 116.471 234.676C119.64 229.465 122.824 224.222 125.266 219.167C127.628 214.283 129.351 209.459 130.922 205.071C133.577 197.651 135.801 191.424 140.05 187.709C143.539 184.654 148.204 183.462 153.453 183.205C158.528 182.953 164.067 183.559 169.604 184.169L169.6 184.157Z" fill="#E9D8B9"/>
<path d="M217.715 196.449C218.739 196.43 219.583 197.247 219.603 198.271C219.622 199.296 218.805 200.14 217.781 200.16C212.978 200.247 208.174 200.339 203.803 201.518C199.583 202.656 195.665 204.85 192.353 209.154C189.06 213.437 186.328 219.781 184.42 226.455C182.324 233.787 181.241 241.465 181.505 247.235C181.955 257.031 186.509 261.238 191.111 265.487L191.115 265.488C191.292 265.65 191.316 265.671 192.299 266.588C195.091 269.203 197.78 271.984 200.281 274.925C202.602 277.649 204.782 280.536 206.767 283.58C207.544 284.776 208.307 286.024 209.077 287.289C212.116 292.275 215.334 297.545 221.728 302.639C225.115 305.338 229.398 308.007 233.751 310.415C239.825 313.777 246.007 316.619 250.107 318.332C253.383 319.701 255.152 320.296 255.995 320.206C256.026 320.201 256.108 319.8 256.239 319.067C256.421 318.06 256.575 316.751 256.761 315.136C257.165 311.651 257.722 306.795 259.082 300.488C260.12 295.668 261.626 289.97 263.23 284.759C264.749 279.819 266.359 275.308 267.74 272.378L267.748 272.381C269.013 269.699 270.196 268.153 271.163 267.467C271.852 266.977 272.543 266.786 273.21 266.851C274.039 266.935 274.684 267.366 275.137 268.082C275.577 268.782 275.782 269.806 275.713 270.988C275.591 272.995 274.73 275.629 273.518 279.328C272.734 281.725 271.796 284.582 270.892 287.732C269.641 292.091 268.322 297.373 267.228 302.557C266.258 307.16 265.468 311.629 265.083 315.209C264.682 318.895 264.694 321.653 265.269 324.003C265.828 326.282 266.952 328.266 268.788 330.464C270.792 332.858 273.601 335.476 276.862 337.945C279.949 340.284 283.413 342.478 286.949 344.219C290.596 346.012 294.351 347.338 298.105 348.317C301.88 349.302 305.631 349.924 309.258 350.312C312.772 350.69 316.197 350.846 319.497 350.821C322.978 350.793 326.317 350.552 329.471 350.141C332.433 349.757 335.218 349.22 337.609 348.103C339.888 347.035 341.872 345.394 343.41 342.752C345.09 339.86 346.305 335.743 347.497 331.684C348.716 327.545 349.914 323.464 351.62 320.496C353.889 316.554 356.852 314.74 359.581 313.07C361.015 312.19 362.378 311.359 363.395 310.277C364.723 308.868 365.646 306.858 366.368 304.48C367.137 301.949 367.684 298.987 368.245 295.864C368.821 292.666 369.405 289.316 369.737 286.574C370.057 283.919 370.175 281.735 369.864 280.656C369.84 280.582 369.73 280.588 369.579 280.629C368.734 280.87 367.538 281.575 366.348 282.278C366.247 282.337 366.141 282.385 366.035 282.423C365.07 282.773 364.005 282.271 363.659 281.307C363.338 280.414 363.746 279.436 364.571 279.02C365.923 278.222 367.279 277.437 368.565 277.067C370.842 276.418 372.641 276.866 373.431 279.64C373.89 281.252 373.79 283.917 373.413 287.024C373.048 290.043 372.463 293.374 371.898 296.528C371.317 299.758 370.751 302.829 369.922 305.561C369.044 308.446 367.874 310.939 366.099 312.82C364.762 314.239 363.177 315.21 361.511 316.23C359.179 317.658 356.648 319.207 354.845 322.339C353.33 324.972 352.196 328.825 351.046 332.733C349.783 337.027 348.501 341.39 346.623 344.618C344.663 347.988 342.121 350.089 339.186 351.462C336.368 352.783 333.241 353.392 329.953 353.818C326.662 354.248 323.178 354.498 319.53 354.526C316.122 354.553 312.557 354.385 308.855 353.991C305.038 353.582 301.106 352.929 297.165 351.905C293.201 350.875 289.217 349.465 285.316 347.548C281.542 345.69 277.871 343.369 274.628 340.913C271.143 338.269 268.115 335.451 265.944 332.856C263.733 330.218 262.371 327.779 261.665 324.899C260.975 322.09 260.948 318.94 261.396 314.813C261.807 311.034 262.61 306.445 263.592 301.785C264.695 296.571 266.038 291.197 267.325 286.719L267.329 286.711C268.331 283.231 269.229 280.477 269.987 278.166C270.683 276.049 271.251 274.306 271.612 272.93C271.449 273.243 271.278 273.587 271.101 273.962L271.109 273.966C269.791 276.761 268.246 281.092 266.782 285.853C265.213 290.95 263.738 296.53 262.72 301.266C261.386 307.469 260.84 312.184 260.45 315.567C260.252 317.27 260.095 318.65 259.897 319.742C259.442 322.226 258.766 323.64 256.401 323.896C254.844 324.064 252.57 323.373 248.681 321.749C244.474 319.995 238.152 317.087 231.97 313.665C227.443 311.16 222.979 308.377 219.432 305.553C212.538 300.062 209.139 294.492 205.925 289.224C205.183 288.005 204.45 286.806 203.671 285.604C201.801 282.731 199.712 279.97 197.466 277.335C195.036 274.481 192.446 271.801 189.777 269.298L188.605 268.214C183.44 263.441 178.33 258.719 177.81 247.396C177.527 241.251 178.665 233.135 180.865 225.428C182.891 218.337 185.833 211.55 189.413 206.894C193.297 201.845 197.896 199.27 202.854 197.933C207.656 196.635 212.694 196.546 217.725 196.449L217.715 196.449Z" fill="#E9D8B9"/>
<path d="M379.15 281.302C378.7 280.382 379.083 279.269 380.007 278.822C380.926 278.372 382.039 278.755 382.486 279.678C384.22 283.233 385.952 286.792 387.273 290.177C388.636 293.67 389.553 296.981 389.575 299.925C389.6 302.82 388.787 305.155 387.959 307.532C387.178 309.769 386.385 312.05 386.484 314.737C386.578 317.279 387.445 320.416 388.336 323.628C389.395 327.445 390.484 331.365 390.493 334.946C390.503 338.484 389.459 341.588 387.67 343.975C385.797 346.478 383.122 348.179 379.987 348.775C377.076 349.33 373.786 348.91 370.595 347.772C367.345 346.616 364.167 344.707 361.58 342.331C359.067 340.024 357.116 337.283 355.447 334.325C353.807 331.419 352.476 328.386 351.151 325.35C350.744 324.412 351.171 323.32 352.11 322.913C353.048 322.507 354.139 322.934 354.546 323.872C355.846 326.847 357.152 329.819 358.666 332.505C360.152 335.138 361.879 337.568 364.089 339.595C366.323 341.644 369.056 343.289 371.842 344.28C374.435 345.205 377.051 345.555 379.301 345.128C381.508 344.71 383.39 343.513 384.706 341.757C386.023 339.997 386.795 337.657 386.788 334.951C386.778 331.867 385.761 328.201 384.771 324.63C383.818 321.199 382.89 317.849 382.78 314.874C382.655 311.497 383.568 308.877 384.465 306.304C385.183 304.242 385.893 302.209 385.875 299.961L385.879 299.953C385.861 297.539 385.038 294.648 383.82 291.521C382.555 288.285 380.854 284.794 379.158 281.305L379.15 281.302Z" fill="#E9D8B9"/>
<path d="M230.374 220.537C231.374 220.32 232.36 220.961 232.576 221.961C232.792 222.961 232.152 223.947 231.152 224.164C226.29 225.204 221.429 226.245 217.429 227.589C213.662 228.853 210.674 230.358 209.253 232.347C207.43 234.899 208.002 238.838 208.504 242.266C208.791 244.232 209.058 246.056 208.909 247.655C208.865 248.131 208.788 248.573 208.685 248.988C210.708 248.205 212.906 247.124 214.377 245.743C215.347 244.834 216.092 243.687 216.826 242.555C218.668 239.715 220.451 236.968 225.52 236.119C228.936 235.548 233.9 235.976 238.206 236.932C242.733 237.935 246.708 239.633 247.853 241.52C249.839 244.799 246.383 247.029 242.033 249.838C239.789 251.288 237.237 252.935 235.32 254.827C232.432 257.682 230.751 261.34 229.276 264.563C228.229 266.845 227.276 268.929 226.004 270.569C224.465 272.561 222.646 273.699 221.177 274.486L221.744 274.597C223.205 274.851 224.984 274.792 226.581 274.003C226.791 273.897 227.01 273.776 227.222 273.637C229.346 272.257 231.262 269.208 233.111 266.268C234.553 263.976 235.958 261.74 237.553 260.126C237.937 259.736 238.353 259.371 238.79 259.035L238.788 259.029C240.621 257.614 242.561 256.997 244.352 257.017C246.235 257.036 247.934 257.759 249.182 258.992L249.257 259.071C249.455 259.271 249.629 259.471 249.781 259.665L249.886 259.816C252.048 262.763 251.868 267.334 251.578 274.664L251.557 275.215C251.417 278.823 251.26 283.141 251.24 287.011C251.23 288.563 251.247 289.996 251.289 291.211C251.712 290.147 252.194 288.92 252.637 287.782C254.536 283.134 258.333 249.628 259.289 250.001C259.692 269.105 258.482 283.023 256.054 289.237C254.652 292.831 252.988 297.053 251.182 297.646L251.174 297.642C249.777 298.101 248.725 297.6 248.139 295.821C247.647 294.33 247.505 290.949 247.52 286.994C247.54 283.29 247.7 278.823 247.847 275.076L247.868 274.524C248.123 268.013 248.283 263.95 246.916 262.037L246.841 261.948C246.762 261.847 246.687 261.758 246.622 261.689L246.572 261.64C245.996 261.071 245.201 260.74 244.304 260.727C243.315 260.715 242.193 261.098 241.06 261.97L241.058 261.964C240.783 262.175 240.496 262.431 240.195 262.738C238.897 264.053 237.598 266.115 236.265 268.239C234.21 271.51 232.073 274.904 229.245 276.743C228.92 276.956 228.581 277.147 228.232 277.319C225.824 278.516 223.212 278.612 221.102 278.247C219.05 277.889 217.33 276.986 216.573 276.15C216.488 276.061 216.414 275.968 216.347 275.863C216.296 275.785 216.244 275.698 216.201 275.604C215.131 273.435 216.494 272.736 218.637 271.638C219.903 270.991 221.737 270.05 223.084 268.309C224.097 267 224.969 265.099 225.924 263.011C227.539 259.493 229.37 255.496 232.723 252.183C234.906 250.025 237.633 248.266 240.029 246.722C242.692 245.006 244.807 243.636 244.69 243.449C244.093 242.46 241.053 241.364 237.41 240.554C233.506 239.689 229.085 239.288 226.135 239.78C222.686 240.36 221.338 242.433 219.952 244.575C219.098 245.89 218.234 247.225 216.92 248.45C214.974 250.27 212.245 251.609 209.819 252.534C207.457 253.436 205.374 253.952 204.66 254.122C203.193 254.47 202.522 254.486 202.13 252.783L202.136 252.781C201.851 251.554 202.293 251.206 203.093 250.69C203.526 250.411 205.036 249.434 205.23 247.315C205.336 246.17 205.1 244.55 204.842 242.799C204.243 238.691 203.552 233.968 206.245 230.202C208.2 227.474 211.812 225.566 216.251 224.077C220.458 222.664 225.422 221.604 230.382 220.541L230.374 220.537ZM219.586 273.96C219.387 273.647 219.277 273.468 219.467 273.86L219.473 273.868C219.5 273.895 219.538 273.927 219.588 273.956L219.586 273.96Z" fill="#E9D8B9"/>
<path d="M305.617 285.049C305.045 284.204 305.273 283.048 306.128 282.475C306.985 281.898 308.145 282.118 308.721 282.966C310.38 285.407 312.037 287.852 313.387 290.255C314.789 292.756 315.827 295.178 316.136 297.431C316.461 299.844 315.966 302.002 314.959 303.962L314.961 303.968C314.013 305.814 312.609 307.446 311.027 308.94C310.544 309.395 309.982 309.892 309.441 310.368L309.443 310.374C308.876 310.873 308.344 311.34 307.948 311.714C309.998 312.022 313.715 311.959 317.409 311.451C320.545 311.017 323.578 310.276 325.379 309.178C327.861 307.669 327.894 304.981 327.934 302.165C327.952 300.812 327.974 299.431 328.189 298.064C328.54 295.863 329.388 293.764 330.421 291.914C331.764 289.511 333.447 287.504 334.772 286.235C335.909 285.147 336.87 284.526 337.668 284.21C339.226 283.597 340.361 283.972 341.149 284.66C341.868 285.287 342.074 285.936 342.37 286.861C342.496 287.257 342.651 287.745 342.919 288.345C343.248 289.085 343.746 289.974 344.258 290.762C344.598 291.293 344.928 291.761 345.2 292.085C345.648 291.9 346.231 291.658 347.046 291.418C349.562 290.676 363.62 291.02 364.028 293.642C347.9 293.362 350.352 294.299 348.101 294.965C347.43 295.166 346.959 295.359 346.599 295.511C344.957 296.191 344.355 296.444 342.912 295.085C342.385 294.588 341.726 293.721 341.11 292.772C340.5 291.82 339.901 290.752 339.504 289.867C339.179 289.138 338.979 288.517 338.816 288.005L338.755 287.782C338.404 287.977 337.946 288.328 337.353 288.892C336.239 289.963 334.821 291.656 333.679 293.694C332.838 295.2 332.154 296.888 331.876 298.626C331.691 299.784 331.676 300.996 331.66 302.189C331.606 306.058 331.553 309.751 327.299 312.338C325 313.737 321.461 314.641 317.898 315.132C313.547 315.73 309.019 315.733 306.712 315.265L306.57 315.237C304.068 314.686 303.277 313.508 303.575 311.873L303.601 311.714C303.912 310.299 305.342 309.036 306.965 307.61L306.967 307.616C307.436 307.203 307.927 306.771 308.456 306.269C309.759 305.038 310.901 303.723 311.632 302.296L311.636 302.298C312.307 300.989 312.641 299.556 312.423 297.96C312.185 296.208 311.31 294.205 310.111 292.073C308.861 289.849 307.233 287.446 305.607 285.05L305.617 285.049ZM345.373 292.288L345.482 292.398C345.671 292.575 345.52 292.43 345.373 292.288Z" fill="#E9D8B9"/>
<path d="M126.999 53.7269C126.303 52.979 126.345 51.8033 127.093 51.1067C127.841 50.4102 129.016 50.4521 129.712 51.2C148.107 70.7262 166.499 90.2506 181.667 110.993C189.266 121.383 196.022 132.03 202.106 142.458C208.192 152.881 213.616 163.105 218.537 172.628C220.198 175.841 221.958 179.277 223.655 182.6C231.122 197.193 237.417 209.501 243.238 217.486C246.717 222.265 250.044 225.512 253.295 227.992C256.566 230.49 259.798 232.244 263.028 233.991C263.93 234.48 264.263 235.603 263.775 236.505C263.286 237.407 262.163 237.741 261.261 237.252C257.891 235.429 254.523 233.602 251.047 230.948C247.547 228.273 243.972 224.786 240.242 219.67C234.238 211.433 227.885 199.009 220.35 184.282C218.758 181.169 217.111 177.948 215.238 174.327C210.34 164.859 204.951 154.696 198.9 144.333C192.853 133.971 186.156 123.416 178.667 113.175C163.664 92.6618 145.335 73.2011 127.011 53.7424L126.989 53.7172L126.999 53.7269Z" fill="#E9D8B9"/>
<path d="M184.615 115.809C183.603 115.639 182.923 114.679 183.096 113.672C183.266 112.659 184.226 111.98 185.232 112.152C199.43 114.528 213.632 116.905 226.384 119.399C239.231 121.909 250.691 124.546 259.382 127.438C268.227 130.384 274.253 133.611 278.969 137.689C283.696 141.777 287.031 146.643 290.52 152.89C294.318 159.692 298.329 168.176 301.392 177.189C303.881 184.511 305.747 192.193 306.38 199.636C307.052 207.522 306.329 215.066 305.648 222.138C304.926 229.703 304.252 236.72 305.477 242.812C306.625 248.53 309.479 253.6 313.051 257.963C316.689 262.406 321.067 266.115 325.177 269.058C329.271 271.984 333.093 274.142 336.97 275.604C340.801 277.049 344.689 277.814 348.953 277.97C354.137 278.16 359.934 277.463 364.442 276.924C367.655 276.535 370.243 276.229 371.735 276.346C372.721 276.426 373.451 276.731 373.903 277.188L374.007 277.3C374.811 278.192 374.794 279.169 373.97 280.162L373.966 280.17C373.655 280.55 373.146 280.925 372.467 281.259L372.469 281.265C370.603 282.181 366.548 283.197 360.599 283.398C355.086 283.585 347.842 283.087 340.021 281.859C333.077 280.766 325.65 279.094 318.548 276.795C311.437 274.496 304.664 271.581 298.537 268.394C291.661 264.82 285.574 260.896 280.716 257.117C271.451 249.918 266.663 243.322 261.877 236.723C261.277 235.894 261.458 234.734 262.289 234.131C263.118 233.531 264.277 233.711 264.88 234.542C269.52 240.936 274.161 247.336 282.982 254.184C287.677 257.832 293.565 261.629 300.234 265.095C306.201 268.197 312.791 271.035 319.693 273.27C322.716 274.246 325.808 275.108 328.892 275.86C326.974 274.766 325.036 273.505 323.038 272.075C318.689 268.965 314.054 265.033 310.196 260.325C306.272 255.538 303.13 249.932 301.85 243.541C300.52 236.927 301.217 229.643 301.972 221.781C302.632 214.89 303.337 207.537 302.69 199.95C302.084 192.833 300.286 185.441 297.886 178.376C294.903 169.596 290.998 161.333 287.295 154.702C283.997 148.804 280.888 144.235 276.558 140.495C272.219 136.746 266.579 133.745 258.211 130.956C249.685 128.117 238.374 125.516 225.67 123.035C212.876 120.536 198.748 118.168 184.621 115.807L184.615 115.809Z" fill="#E9D8B9"/>
<path d="M305.381 246.802C304.749 246.631 304.365 245.987 304.526 245.345C304.689 244.7 305.343 244.305 305.988 244.468L306.062 244.488C320.169 248.671 334.278 252.849 354.906 253.723C365.497 254.169 377.827 253.751 390.449 252.485C402.476 251.28 414.764 249.315 426.054 246.601C437.458 243.863 447.85 240.364 457.112 236.241C466.591 232.019 474.884 227.146 481.883 221.759C495.711 211.117 504.564 198.383 513.422 185.65L513.5 185.546C513.902 185.076 514.608 184.985 515.118 185.352C515.624 185.718 515.762 186.407 515.451 186.934L515.397 187.016C506.441 199.897 497.48 212.776 483.349 223.656C476.196 229.164 467.733 234.139 458.082 238.435C448.689 242.619 438.161 246.161 426.611 248.938C415.213 251.674 402.817 253.661 390.677 254.876C377.955 256.148 365.505 256.573 354.796 256.121C333.841 255.234 319.603 251.019 305.373 246.798L305.381 246.802Z" fill="#E9D8B9"/>
<path d="M304.476 197.402C303.833 197.557 303.182 197.157 303.033 196.511C302.878 195.867 303.277 195.216 303.923 195.067C313.922 192.681 323.925 190.297 334.071 188.416C344.275 186.526 354.654 185.135 365.379 184.746C374.828 184.405 384.546 184.839 393.834 185.7C405.626 186.794 416.707 188.579 425.644 190.338C431.871 191.566 437.06 192.779 441.629 193.849C448.72 195.509 454.309 196.817 459.927 197.265C464.525 197.633 469.194 197.424 473.699 196.922C478.234 196.42 482.59 195.624 486.529 194.813C490.462 194.003 493.997 193.18 497.154 192.195C500.259 191.229 502.977 190.109 505.329 188.701C506.688 187.887 507.952 186.965 509.076 186.144C510.478 185.116 511.689 184.233 512.749 183.786C514.518 183.044 515.85 183.282 516.688 185.282C517.419 187.032 517.548 190.69 517.101 195.363C516.68 199.752 515.772 205.092 514.397 210.607C512.998 216.233 511.118 222.061 508.888 228.095C506.68 234.061 504.1 240.297 501.282 246.761C498.476 253.197 495.441 259.842 491.87 265.946C488.269 272.105 484.125 277.705 479.136 281.975C474.393 286.034 468.916 288.877 463.025 290.745C456.481 292.818 449.434 293.692 442.332 293.691C435.63 293.688 428.889 292.911 422.289 291.731C415.728 290.56 409.293 288.99 403.176 287.394C397.106 285.815 391.328 284.204 385.693 282.581C379.761 280.873 374.472 279.291 369.191 277.714C368.555 277.521 368.193 276.853 368.383 276.21C368.576 275.574 369.245 275.211 369.887 275.402C375.488 277.076 381.091 278.747 386.364 280.267C391.938 281.876 397.687 283.474 403.782 285.064C409.829 286.642 416.203 288.198 422.718 289.362C429.194 290.517 435.798 291.284 442.33 291.284C449.198 291.287 455.998 290.448 462.291 288.452C467.89 286.676 473.091 283.985 477.565 280.155C482.333 276.075 486.313 270.685 489.787 264.745C493.294 258.746 496.295 252.173 499.075 245.803C501.843 239.457 504.396 233.287 506.62 227.265C508.823 221.311 510.675 215.562 512.05 210.027C513.404 204.59 514.297 199.375 514.701 195.135C515.11 190.853 515.042 187.615 514.457 186.216C514.315 185.876 514.042 185.855 513.671 186.012C512.849 186.356 511.751 187.156 510.483 188.086C509.312 188.944 507.998 189.9 506.555 190.767C504.02 192.285 501.131 193.475 497.86 194.495C494.646 195.497 491.029 196.339 487 197.167C482.976 197.993 478.539 198.804 473.942 199.316C469.309 199.83 464.487 200.04 459.719 199.661C453.907 199.199 448.243 197.876 441.061 196.192C436.514 195.127 431.352 193.918 425.159 192.701C416.272 190.95 405.272 189.18 393.595 188.09C384.406 187.237 374.793 186.808 365.448 187.145C354.841 187.531 344.578 188.904 334.491 190.775C324.35 192.655 314.402 195.025 304.459 197.398L304.476 197.402Z" fill="#E9D8B9"/>
<path d="M180.986 114.742C181.236 113.747 182.247 113.145 183.241 113.395C184.236 113.644 184.838 114.655 184.588 115.65C182.877 122.475 181.169 129.306 179.443 136.266C177.839 142.742 176.461 148.353 175.545 152.23C174.66 155.98 174.157 158.29 174.694 160.183C175.239 162.119 176.936 164.076 180.489 167.239C184.195 170.543 189.806 175.043 195.801 179.607C202.041 184.355 208.701 189.174 214.062 192.785C219.297 196.312 223.245 198.657 226.551 200.41C229.886 202.183 232.598 203.374 235.308 204.569C236.243 204.985 236.665 206.077 236.248 207.013C235.831 207.948 234.74 208.371 233.804 207.954C231.016 206.727 228.229 205.501 224.812 203.685C221.362 201.853 217.294 199.442 211.993 195.869C206.598 192.237 199.873 187.368 193.551 182.557C187.502 177.953 181.817 173.394 178.022 170.009C173.909 166.337 171.895 163.924 171.122 161.178C170.337 158.392 170.911 155.706 171.935 151.372C172.926 147.17 174.291 141.606 175.84 135.363C177.267 129.604 179.128 122.171 180.99 114.734L180.986 114.742Z" fill="#E9D8B9"/>
<path d="M328.532 253.585C327.554 252.948 327.195 252.032 327.729 251.542C328.262 251.052 329.493 251.173 330.471 251.81C336.687 255.873 342.906 259.942 349.591 263.797C356.177 267.595 363.187 271.174 371.048 274.295C378.957 277.438 387.762 280.141 397.018 282.631C406.271 285.115 416.093 287.409 425.921 289.7C427.036 289.963 428.014 290.795 428.109 291.557C428.203 292.319 427.378 292.725 426.262 292.462C416.453 290.174 406.643 287.887 397.149 285.333C387.653 282.783 378.593 280 370.402 276.742C362.164 273.468 354.844 269.739 347.985 265.777C341.223 261.877 334.876 257.728 328.534 253.581L328.532 253.585Z" fill="#E9D8B9"/>
<path d="M211.129 344.249C210.925 344.04 210.929 343.71 211.137 343.506C211.344 343.306 211.676 343.306 211.88 343.515L211.89 343.524C216.573 348.45 221.255 353.376 223.087 359.3C224.095 362.562 224.223 366.077 224.33 368.934C224.413 371.179 224.481 373.011 224.933 373.844C225.398 374.698 226.535 374.365 227.709 373.728C228.608 373.239 229.521 372.577 230.243 372.048L230.458 371.891C232.345 370.517 232.727 370.38 233.103 370.245L233.105 370.241C233.499 370.099 233.892 369.958 234.762 370.037C235.14 370.073 235.602 370.149 236.068 370.247C236.574 370.354 237.114 370.491 237.569 370.623C237.984 370.746 238.319 370.864 238.61 370.982C238.912 371.105 239.128 371.207 239.324 371.299C239.799 371.523 240.202 371.713 240.998 372.879C241.37 373.425 241.815 374.167 242.263 374.905C242.718 375.657 243.172 376.412 243.497 376.892C243.823 377.368 244.06 377.641 244.25 377.809C244.413 377.949 244.555 378.021 244.694 378.087C244.958 378.211 245.068 378.526 244.945 378.786C244.821 379.049 244.506 379.159 244.246 379.037C244.039 378.939 243.831 378.841 243.559 378.601C243.31 378.385 243.018 378.052 242.632 377.485C242.248 376.923 241.804 376.187 241.361 375.451C240.916 374.709 240.47 373.967 240.129 373.47C239.5 372.549 239.209 372.411 238.87 372.251C238.662 372.153 238.439 372.048 238.209 371.955C237.96 371.852 237.66 371.744 237.266 371.627C236.865 371.506 236.359 371.38 235.849 371.271C235.408 371.18 234.984 371.107 234.662 371.077C234.035 371.021 233.747 371.124 233.459 371.228C233.154 371.337 232.843 371.449 231.074 372.738L230.858 372.895C230.107 373.444 229.161 374.135 228.21 374.652C226.543 375.56 224.87 375.932 224.008 374.345C223.435 373.294 223.365 371.353 223.279 368.97C223.179 366.171 223.049 362.733 222.083 359.608C220.326 353.919 215.728 349.082 211.129 344.249Z" fill="#E9D8B9"/>
<path d="M321.091 408.057C321.345 408.201 321.428 408.523 321.283 408.777C321.139 409.031 320.817 409.114 320.563 408.97C318.451 407.749 316.334 406.527 315.44 405.3C314.354 403.816 314.766 402.445 318.159 401.312C321.235 400.283 327.077 399.387 333.054 398.97C338.411 398.597 343.899 398.608 347.617 399.259C355.725 400.676 355.697 405.059 355.676 407.504L355.675 407.621C355.662 409.737 355.749 410.081 355.833 410.389L355.848 410.45C355.928 410.726 356.021 411.014 356.421 411.471C356.642 411.727 356.945 412.026 357.267 412.324C357.646 412.669 358.047 413.009 358.383 413.27C359.012 413.757 359.447 414.001 359.821 414.212C359.987 414.305 360.139 414.386 360.362 414.442C360.612 414.501 360.966 414.537 361.548 414.523C362.14 414.509 363.007 414.44 363.874 414.37C364.731 414.301 365.594 414.23 366.269 414.216C366.955 414.198 367.396 414.245 367.718 414.319C368.069 414.402 368.271 414.511 368.471 414.625C368.727 414.765 368.819 415.087 368.677 415.337C368.537 415.593 368.215 415.685 367.965 415.543C367.829 415.469 367.691 415.39 367.479 415.343C367.233 415.286 366.873 415.253 366.296 415.264C365.705 415.278 364.832 415.349 363.965 415.419C363.108 415.488 362.251 415.557 361.58 415.573C360.899 415.588 360.452 415.544 360.119 415.464C359.759 415.378 359.547 415.258 359.319 415.131C358.914 414.906 358.45 414.648 357.746 414.102C357.378 413.816 356.952 413.459 356.565 413.101C356.204 412.769 355.87 412.441 355.627 412.161C355.078 411.526 354.954 411.126 354.838 410.73L354.827 410.691C354.72 410.308 354.613 409.926 354.625 407.613L354.626 407.497C354.644 405.368 354.669 401.559 347.433 400.29C343.806 399.653 338.409 399.646 333.124 400.013C327.233 400.422 321.491 401.302 318.486 402.305C316.118 403.096 315.705 403.888 316.282 404.672C317.044 405.715 319.065 406.882 321.085 408.049L321.091 408.057Z" fill="#E9D8B9"/>
<path d="M127.163 50.2857C129.895 47.2017 132.633 44.1155 134.584 41.3022C134.216 39.4845 134.254 37.9259 134.472 36.5112C134.688 35.1004 135.092 33.8315 135.547 32.8653C135.852 32.2186 136.199 31.6794 136.545 31.2963C137.079 30.7133 137.694 30.4325 138.326 30.5304C138.481 30.5545 138.622 30.5966 138.754 30.6587L138.776 30.674C139.556 31.0567 140.072 32.3004 139.979 34.0084C139.909 35.3565 139.506 37.1329 138.601 39.0532C138.583 39.0694 138.493 39.2709 138.474 39.3108C138.088 40.0996 137.613 40.9102 137.075 41.7401C137.609 43.6803 138.685 45.9831 140.609 48.8329C142.226 51.2199 144.398 53.9375 147.02 57.2134C151.021 62.2184 156.043 68.5047 161.635 76.7384C166.277 83.5824 171.349 91.8301 176.638 100.78C181.986 109.84 187.411 119.367 192.839 128.89L190.826 130.034C185.322 120.373 179.82 110.708 174.649 101.955C169.414 93.0891 164.374 84.896 159.72 78.0364C154.141 69.8183 149.174 63.6018 145.219 58.653C142.542 55.3073 140.325 52.5295 138.697 50.1269C137.148 47.8351 136.1 45.8476 135.419 44.0825C133.534 46.5803 131.22 49.1927 128.905 51.8051L127.172 50.2756L127.163 50.2857ZM136.655 37.7261C137.314 36.236 137.607 34.9005 137.663 33.8824L137.669 33.7974L137.642 33.8533C137.268 34.6477 136.939 35.6978 136.758 36.8669C136.715 37.1443 136.682 37.4313 136.655 37.7261Z" fill="#E9D8B9"/>
<path fill-rule="evenodd" clip-rule="evenodd" d="M320.55 243.839C331.048 239.009 353.906 229.867 370.423 219.834C386.944 209.802 397.119 198.877 397.794 198.698C398.469 198.518 389.637 209.086 375.893 218.289C362.148 227.493 343.49 235.331 332.322 240.342C321.154 245.353 317.469 247.529 314.697 248.359C311.92 249.188 310.053 248.668 320.55 243.839Z" fill="#E9D8B9"/>
<path fill-rule="evenodd" clip-rule="evenodd" d="M367.323 251.921C379.517 247.891 405.831 240.379 425.445 231.806C445.059 223.233 457.965 213.595 458.728 213.457C459.486 213.317 448.1 222.681 431.633 230.6C415.167 238.52 393.623 244.998 380.667 249.166C367.715 253.336 363.351 255.192 360.208 255.847C357.061 256.501 355.134 255.953 367.323 251.921Z" fill="#E9D8B9"/>
<path fill-rule="evenodd" clip-rule="evenodd" d="M213.337 153.516C222.537 157.19 241.715 166.004 257.705 170.352C273.695 174.7 286.495 174.577 287.002 174.889C287.513 175.203 275.729 175.952 262.022 173.602C248.32 171.25 232.693 165.8 222.982 161.812C213.276 157.826 209.485 155.302 207.197 153.305C204.913 151.311 204.131 149.844 213.331 153.518L213.337 153.516Z" fill="#E9D8B9"/>
<path fill-rule="evenodd" clip-rule="evenodd" d="M227.047 184.717C235.611 192.761 253.2 210.892 268.539 222.477C283.878 234.063 296.961 239.104 297.41 239.682C297.86 240.26 285.672 236.363 272.22 228.049C258.768 219.734 244.047 206.996 235.037 198.375C226.027 189.755 222.724 185.255 220.837 181.984C218.95 178.713 218.483 176.672 227.047 184.717Z" fill="#E9D8B9"/>
<path fill-rule="evenodd" clip-rule="evenodd" d="M196.812 141.094C197.792 146.26 200.285 157.381 201.186 165.745C202.086 174.109 201.401 179.71 201.5 180.03C201.598 180.349 202.481 175.383 202.245 168.631C202.009 161.878 200.656 153.345 199.581 147.855C198.504 142.37 197.71 139.936 197.041 138.323C196.376 136.711 195.841 135.922 196.814 141.09L196.812 141.094Z" fill="#E9D8B9"/>
<path d="M292.749 290.923C293.769 292.414 295.037 293.314 295.048 293.373C295.057 293.436 293.812 292.664 292.767 291.497C289.335 287.674 286.142 280.581 287.045 275.604C287.09 275.362 287.146 275.12 287.222 274.887C287.622 273.593 288.423 272.599 289.54 271.999C290.618 271.419 291.968 271.226 293.5 271.504C293.847 271.565 294.214 271.655 294.592 271.775C296.423 272.341 298.496 273.552 300.442 275.158C302.311 276.698 304.092 278.611 305.446 280.674C306.751 282.656 307.666 284.771 308.22 286.75C308.853 289.01 309.015 291.117 308.755 292.673C308.751 292.681 308.741 292.744 308.739 292.758C308.452 294.36 307.713 295.421 306.738 296.05C305.76 296.677 304.581 296.838 303.398 296.637C303.39 296.633 303.34 296.624 303.325 296.627C302.209 296.428 301.079 295.905 300.144 295.22C299.174 294.514 298.39 293.612 298.011 292.687C297.447 291.318 297.764 290.096 298.067 288.926C298.167 288.549 298.261 288.174 298.31 287.831C298.388 287.272 298.342 286.738 298.247 286.279C297.785 284.021 296.358 286.178 296.448 287.465C296.522 288.51 297.506 289.277 297.466 289.311C297.423 289.35 296.349 288.658 295.935 287.789C295.505 286.889 296.17 282.303 297.846 283.093C298.296 282.978 298.657 282.998 299.086 283.351C299.319 283.549 299.51 283.839 299.716 284.321C299.877 284.695 300.077 285.233 300.208 285.876C300.341 286.534 300.408 287.302 300.297 288.109C300.234 288.552 300.121 288.987 300.005 289.43C299.782 290.286 299.55 291.182 299.859 291.933C300.095 292.508 300.638 293.106 301.327 293.611C302.031 294.124 302.871 294.515 303.688 294.666L303.736 294.678C304.455 294.798 305.14 294.721 305.67 294.385C306.195 294.047 306.605 293.415 306.785 292.412L306.799 292.351C307.015 291.066 306.863 289.267 306.31 287.294C305.809 285.501 304.978 283.582 303.789 281.777C302.548 279.889 300.913 278.132 299.188 276.709C297.428 275.259 295.593 274.174 294.004 273.684C293.714 273.596 293.43 273.525 293.147 273.475C292.072 273.28 291.169 273.396 290.485 273.762C289.839 274.106 289.373 274.701 289.129 275.489C289.084 275.634 289.043 275.795 289.015 275.967C288.73 277.546 291.146 288.571 292.753 290.925L292.749 290.923Z" fill="#E9D8B9"/>
<path d="M322.712 322.521C326.352 322.695 328.898 323.442 329.031 323.417C329.165 323.392 326.889 322.602 323.907 322.221C314.133 320.974 297.757 321.759 288.002 325.387C287.529 325.563 287.063 325.754 286.622 325.956C284.178 327.063 282.574 328.395 281.953 329.815C281.355 331.187 281.698 332.613 283.116 333.96C283.441 334.264 283.827 334.573 284.278 334.879C286.456 336.354 290.097 337.715 294.475 338.735C298.681 339.718 303.604 340.399 308.602 340.589C313.403 340.774 318.269 340.501 322.654 339.954C327.657 339.326 332.092 338.323 335.153 337.21C335.173 337.199 335.296 337.155 335.32 337.147C338.459 335.982 340.247 334.673 340.997 333.372C341.753 332.07 341.43 330.829 340.364 329.78C340.348 329.772 340.305 329.728 340.301 329.716C339.272 328.733 337.573 327.918 335.652 327.378C333.662 326.82 331.369 326.549 329.251 326.687C326.119 326.894 323.772 327.876 321.534 328.817C320.809 329.124 320.093 329.421 319.411 329.656C318.309 330.038 317.177 330.286 316.173 330.451C311.262 331.244 314.929 328.66 317.623 328.037C319.819 327.53 321.937 328.075 321.991 328.012C322.045 327.95 320.028 327.282 318.008 327.354C315.92 327.429 306.833 330.61 309.384 331.813C309.401 332.314 309.632 332.662 310.599 332.879C311.132 332.999 311.839 333.02 312.945 332.96C313.803 332.911 315.023 332.808 316.417 332.582C317.853 332.351 319.471 331.992 321.065 331.436C321.944 331.133 322.779 330.78 323.631 330.421C325.274 329.731 326.988 329.012 328.705 328.899C330.014 328.814 331.55 329.011 332.967 329.41C334.415 329.815 335.686 330.419 336.439 331.14L336.484 331.181C337.128 331.821 337.35 332.531 336.945 333.233C336.541 333.936 335.462 334.681 333.493 335.412L333.376 335.454C330.845 336.374 327.062 337.216 322.691 337.765C318.719 338.264 314.301 338.508 309.934 338.343C305.359 338.167 300.83 337.539 296.954 336.634C292.998 335.711 289.749 334.511 287.865 333.232C287.522 332.997 287.22 332.757 286.96 332.512C285.965 331.57 285.704 330.622 286.081 329.751C286.439 328.929 287.404 328.145 288.887 327.473C289.161 327.348 289.47 327.22 289.806 327.096C292.899 325.948 316.961 322.23 322.696 322.503L322.712 322.521Z" fill="#E9D8B9"/>
<path d="M216.93 225.119C217.949 226.61 219.218 227.51 219.229 227.569C219.238 227.632 217.993 226.859 216.947 225.693C213.516 221.869 210.323 214.777 211.225 209.8C211.271 209.558 211.327 209.316 211.402 209.083C211.803 207.789 212.603 206.795 213.721 206.194C214.799 205.615 216.149 205.421 217.681 205.7C218.028 205.761 218.395 205.851 218.773 205.971C220.604 206.536 222.677 207.748 224.622 209.353C226.491 210.893 228.272 212.807 229.627 214.87C230.931 216.852 231.846 218.967 232.401 220.946C233.033 223.206 233.196 225.313 232.936 226.868C232.932 226.876 232.922 226.94 232.92 226.954C232.633 228.556 231.893 229.617 230.919 230.246C229.94 230.873 228.762 231.034 227.579 230.833C227.571 230.829 227.521 230.82 227.505 230.823C226.389 230.623 225.26 230.101 224.324 229.416C223.355 228.709 222.57 227.808 222.192 226.883C221.627 225.514 221.945 224.292 222.248 223.122C222.348 222.745 222.442 222.369 222.491 222.027C222.569 221.468 222.523 220.934 222.428 220.474C221.965 218.217 220.538 220.374 220.629 221.661C220.702 222.706 221.687 223.473 221.647 223.507C221.604 223.546 220.53 222.854 220.115 221.985C219.686 221.085 220.351 216.499 222.027 217.289C222.476 217.174 222.838 217.193 223.267 217.547C223.5 217.745 223.69 218.034 223.897 218.517C224.057 218.891 224.257 219.429 224.388 220.072C224.522 220.73 224.589 221.498 224.477 222.304C224.414 222.748 224.302 223.183 224.186 223.626C223.963 224.482 223.73 225.378 224.04 226.129C224.276 226.704 224.819 227.301 225.508 227.807C226.212 228.319 227.052 228.711 227.869 228.862L227.917 228.874C228.636 228.994 229.321 228.917 229.85 228.581C230.375 228.243 230.785 227.611 230.966 226.608L230.98 226.547C231.195 225.262 231.044 223.463 230.491 221.49C229.99 219.697 229.158 217.777 227.97 215.973C226.728 214.084 225.093 212.328 223.369 210.905C221.608 209.455 219.773 208.37 218.185 207.88C217.895 207.792 217.611 207.721 217.327 207.671C216.253 207.476 215.35 207.592 214.665 207.957C214.02 208.302 213.554 208.897 213.309 209.685C213.265 209.83 213.223 209.991 213.196 210.163C212.91 211.741 215.327 222.767 216.934 225.121L216.93 225.119Z" fill="#E9D8B9"/>
<path fill-rule="evenodd" clip-rule="evenodd" d="M121.19 252.209C119.95 257.798 116.567 269.598 115.829 279.058C115.09 288.518 116.993 295.637 116.848 295.964C116.702 296.285 114.51 289.811 114.192 281.878C113.874 273.944 115.431 264.548 116.819 258.634C118.201 252.723 119.411 250.292 120.471 248.767C121.528 247.24 122.434 246.623 121.198 252.213L121.19 252.209Z" fill="#E9D8B9"/>
<path fill-rule="evenodd" clip-rule="evenodd" d="M177.173 183.604C175.774 184.906 169.656 189.088 165.067 193.595C160.478 198.102 157.413 202.937 153.23 206.46C149.047 209.982 143.747 212.192 142.39 217.325C141.033 222.458 143.622 230.52 144.751 235.142C145.877 239.767 145.543 240.952 144.397 241.48C143.252 242.004 141.301 241.869 139.676 240.318C138.055 238.768 136.76 235.805 136.35 232.752C135.94 229.699 136.411 226.559 137.049 222.712C137.688 218.865 138.489 214.31 139.691 210.333C140.891 206.361 142.493 202.963 145.075 200.931C147.658 198.899 151.229 198.226 155.865 195.873C160.508 193.519 166.218 189.487 170.736 186.684C175.253 183.88 178.571 182.307 177.171 183.608L177.173 183.604Z" fill="#E9D8B9"/>
<path fill-rule="evenodd" clip-rule="evenodd" d="M251.933 346.335C252.506 344.531 257.833 349.395 263.147 352.745C268.462 356.09 273.767 357.918 280.406 358.808C287.049 359.701 295.03 359.648 303.562 360.923C312.097 362.2 321.183 364.801 328.659 367.487C336.135 370.172 342.006 372.94 346.604 373.762C351.203 374.583 354.535 373.465 357.249 369.25C359.963 365.035 362.066 357.731 364.752 355.24C367.439 352.75 370.712 355.078 375.617 358.23C380.521 361.382 387.051 365.359 393.873 369.195C400.696 373.027 407.81 376.718 413.169 375.097C418.529 373.476 422.134 366.544 423.563 360.659C424.991 354.774 424.247 349.938 424.257 350.392C424.267 350.846 425.033 356.589 424.803 362.312C424.569 368.033 423.34 373.734 421.255 377.68C419.168 381.629 416.228 383.83 411.291 383.127C406.354 382.424 399.423 378.82 392.86 374.437C386.297 370.054 380.102 364.888 375.813 362.812C371.523 360.736 369.146 361.743 367.404 366.026C365.665 370.305 364.569 377.864 362.451 382.356C360.331 386.851 357.192 388.284 351.126 386.883C345.059 385.482 336.075 381.246 325.603 377.538C315.133 373.836 303.175 370.662 293.581 369.5C283.986 368.338 276.747 369.185 271.499 368.79C266.253 368.39 262.992 366.74 259.271 361.677C255.551 356.615 251.365 348.141 251.935 346.331L251.933 346.335Z" fill="#E9D8B9"/>
<path fill-rule="evenodd" clip-rule="evenodd" d="M138.961 300.725C138.879 303.858 138.011 310.325 139.114 315.881C140.216 321.436 143.286 326.08 143.216 326.247C143.143 326.413 139.93 322.106 138.151 317.271C136.372 312.436 136.028 307.072 136.183 303.773C136.334 300.472 136.979 299.239 137.659 298.52C138.336 297.8 139.046 297.598 138.968 300.733L138.961 300.725Z" fill="#E9D8B9"/>
<path fill-rule="evenodd" clip-rule="evenodd" d="M181.582 338.081C181.499 341.214 180.631 347.68 181.734 353.236C182.836 358.792 185.906 363.435 185.837 363.603C185.763 363.768 182.55 359.462 180.771 354.627C178.992 349.791 178.648 344.427 178.803 341.128C178.954 337.828 179.599 336.594 180.279 335.876C180.956 335.155 181.666 334.953 181.588 338.088L181.582 338.081Z" fill="#E9D8B9"/>
<path fill-rule="evenodd" clip-rule="evenodd" d="M391.172 402.247C387.649 406.759 380.698 416.877 373.869 423.465C367.04 430.054 360.338 433.116 360.177 433.435C360.023 433.753 366.412 431.324 372.735 426.522C379.058 421.72 385.317 414.54 388.996 409.707C392.677 404.879 393.783 402.4 394.285 400.611C394.791 398.824 394.691 397.733 391.164 402.243L391.172 402.247Z" fill="#E9D8B9"/>
<path fill-rule="evenodd" clip-rule="evenodd" d="M343.943 413.82C339.311 415.491 329.702 419.314 321.581 421.609C313.457 423.898 306.826 424.656 306.572 424.78C306.319 424.905 312.45 424.399 319.459 422.849C326.471 421.295 334.364 418.697 339.246 416.9C344.126 415.106 345.998 414.115 347.109 413.375C348.219 412.635 348.571 412.147 343.939 413.818L343.943 413.82Z" fill="#E9D8B9"/>
<path fill-rule="evenodd" clip-rule="evenodd" d="M305.162 409.935C296.69 408.854 278.752 407.116 264.515 404.316C250.278 401.517 239.741 397.657 239.245 397.642C238.748 397.632 248.297 401.476 260.172 404.494C272.048 407.512 286.246 409.702 295.213 410.797C304.18 411.892 307.912 411.881 310.274 411.662C312.636 411.444 313.633 411.016 305.162 409.935Z" fill="#E9D8B9"/>
<path d="M148.796 151.613C147.896 151.462 146.788 151.515 145.692 151.75C144.676 151.969 143.682 152.339 142.908 152.843C142.303 153.236 141.826 153.719 141.57 154.169C141.443 154.397 141.369 154.616 141.372 154.807C141.372 154.993 141.443 155.153 141.596 155.284C141.733 155.397 141.936 155.483 142.211 155.53C143.058 155.67 144.549 155.466 146.061 155.095C147.619 154.708 149.162 154.147 149.992 153.606C150.282 153.416 150.465 153.234 150.552 153.07L150.564 153.046C150.631 152.903 150.64 152.76 150.593 152.621L150.593 152.611C150.538 152.449 150.408 152.29 150.219 152.152C149.888 151.903 149.388 151.711 148.79 151.615L148.796 151.613ZM145.873 150.962C147.136 150.693 148.414 150.632 149.454 150.806C150.168 150.927 150.767 151.156 151.167 151.457C151.42 151.644 151.597 151.869 151.679 152.118L151.684 152.13C151.769 152.395 151.744 152.685 151.589 152.993L151.572 153.029C151.383 153.389 151.026 153.752 150.476 154.113C149.46 154.776 147.687 155.433 145.936 155.866C144.256 156.284 142.562 156.505 141.553 156.337C141.147 156.268 140.842 156.138 140.632 155.962C140.385 155.752 140.268 155.482 140.265 155.169C140.262 154.865 140.367 154.529 140.562 154.186C140.919 153.554 141.582 152.881 142.42 152.335C143.412 151.69 144.637 151.223 145.869 150.96L145.873 150.962Z" fill="#E9D8B9"/>
<path d="M113.482 210.171C112.691 209.48 111.921 208.454 111.324 207.308C110.744 206.191 110.325 204.949 110.191 203.773C110.079 202.779 110.174 201.843 110.437 201.161C110.581 200.795 110.769 200.498 111.006 200.307C111.248 200.114 111.532 200.028 111.851 200.086C112.121 200.135 112.415 200.288 112.727 200.557C113.498 201.228 114.406 202.676 115.152 204.239C115.932 205.865 116.551 207.655 116.687 208.856C116.76 209.51 116.702 210.015 116.549 210.392L116.532 210.428C116.393 210.743 116.181 210.945 115.927 211.05L115.915 211.054C115.67 211.149 115.386 211.151 115.078 211.079C114.592 210.962 114.03 210.644 113.486 210.172L113.482 210.171ZM111.817 206.667C112.333 207.662 112.997 208.551 113.686 209.149C114.143 209.545 114.607 209.813 115.01 209.91C115.238 209.964 115.438 209.965 115.602 209.906L115.61 209.9C115.743 209.846 115.851 209.75 115.919 209.607L115.93 209.583C116.001 209.411 116.025 209.154 115.988 208.809C115.88 207.827 115.332 206.28 114.635 204.829C113.965 203.425 113.17 202.142 112.521 201.583C112.31 201.4 112.114 201.298 111.94 201.265C111.747 201.228 111.573 201.277 111.429 201.395C111.28 201.515 111.16 201.707 111.063 201.954C110.879 202.438 110.81 203.113 110.891 203.83C110.995 204.748 111.338 205.748 111.819 206.673L111.817 206.667Z" fill="#E9D8B9"/>
<path d="M328.799 166.698C328.007 166.008 327.237 164.981 326.641 163.836C326.06 162.718 325.641 161.476 325.507 160.3C325.396 159.306 325.491 158.37 325.754 157.689C325.897 157.322 326.086 157.025 326.322 156.834C326.564 156.641 326.849 156.556 327.168 156.613C327.437 156.662 327.731 156.815 328.043 157.085C328.815 157.756 329.722 159.204 330.469 160.766C331.248 162.392 331.868 164.183 332.004 165.384C332.076 166.038 332.019 166.542 331.865 166.919L331.848 166.955C331.71 167.27 331.497 167.473 331.243 167.577L331.231 167.581C330.987 167.676 330.702 167.678 330.395 167.607C329.909 167.49 329.347 167.171 328.803 166.7L328.799 166.698ZM327.133 163.195C327.65 164.19 328.313 165.078 329.002 165.676C329.459 166.073 329.924 166.34 330.327 166.437C330.555 166.491 330.754 166.493 330.919 166.434L330.926 166.428C331.059 166.373 331.168 166.278 331.235 166.134L331.247 166.11C331.318 165.939 331.342 165.681 331.304 165.337C331.197 164.354 330.648 162.807 329.951 161.356C329.282 159.952 328.486 158.67 327.838 158.11C327.626 157.927 327.431 157.825 327.256 157.792C327.064 157.755 326.889 157.804 326.746 157.922C326.597 158.042 326.477 158.235 326.38 158.482C326.195 158.966 326.126 159.64 326.208 160.357C326.311 161.275 326.654 162.276 327.135 163.2L327.133 163.195Z" fill="#E9D8B9"/>
<path d="M255.835 87.015C255.067 86.9262 254.238 87.1113 253.505 87.5172L253.485 87.5275C252.815 87.9044 252.24 88.4626 251.891 89.1617C251.696 89.5532 251.57 89.9865 251.52 90.4122C251.47 90.8615 251.499 91.2952 251.624 91.6516C251.742 91.9904 251.944 92.2661 252.241 92.4112C252.363 92.4736 252.5 92.5138 252.649 92.5301C253.371 92.6121 254.424 92.2007 255.404 91.5798C256.42 90.9363 257.34 90.0818 257.714 89.3308C257.81 89.137 257.863 88.9621 257.885 88.8016C257.92 88.5205 257.841 88.2538 257.684 88.0185L257.671 87.9932C257.483 87.7191 257.195 87.481 256.852 87.3093L256.84 87.3037C256.539 87.1566 256.197 87.054 255.84 87.0129L255.835 87.015ZM253.253 86.5299C254.093 86.0623 255.056 85.8524 255.941 85.9523C256.366 86.0017 256.773 86.1206 257.133 86.2998L257.149 86.3074C257.598 86.5339 257.984 86.8526 258.25 87.2512L258.271 87.2804C258.571 87.7393 258.72 88.2926 258.648 88.9123C258.61 89.2409 258.511 89.5749 258.343 89.9105C257.882 90.8353 256.83 91.837 255.689 92.5584C254.596 93.253 253.396 93.7073 252.535 93.6088C252.314 93.5823 252.113 93.5218 251.935 93.4331C251.45 93.1897 251.114 92.7335 250.917 92.1675C250.731 91.621 250.677 90.9707 250.753 90.3233C250.822 89.7314 250.992 89.1332 251.256 88.6039C251.701 87.711 252.416 87.0133 253.232 86.5541L253.254 86.5398L253.253 86.5299Z" fill="#E9D8B9"/>
<path d="M106.34 161.523C105.573 161.434 104.744 161.619 104.011 162.025L103.991 162.035C103.321 162.412 102.746 162.97 102.396 163.67C102.202 164.061 102.076 164.494 102.026 164.92C101.975 165.369 102.005 165.803 102.13 166.159C102.248 166.498 102.45 166.774 102.747 166.919C102.869 166.981 103.006 167.022 103.155 167.038C103.877 167.12 104.93 166.709 105.91 166.088C106.926 165.444 107.846 164.59 108.22 163.839C108.316 163.645 108.369 163.47 108.391 163.309C108.426 163.028 108.347 162.762 108.189 162.526L108.175 162.505C107.989 162.227 107.699 161.993 107.356 161.821L107.344 161.815C107.043 161.668 106.701 161.566 106.344 161.525L106.34 161.523ZM103.759 161.038C104.599 160.57 105.562 160.36 106.446 160.46C106.872 160.51 107.279 160.628 107.639 160.808L107.655 160.815C108.104 161.042 108.49 161.36 108.756 161.759L108.776 161.788C109.077 162.247 109.226 162.8 109.153 163.42C109.116 163.749 109.017 164.083 108.849 164.418C108.388 165.343 107.335 166.345 106.195 167.066C105.102 167.761 103.902 168.215 103.041 168.117C102.82 168.09 102.619 168.03 102.441 167.941C101.956 167.697 101.62 167.241 101.423 166.675C101.237 166.129 101.182 165.479 101.258 164.831C101.328 164.239 101.498 163.641 101.762 163.112C102.207 162.219 102.922 161.521 103.738 161.062L103.759 161.048L103.759 161.038Z" fill="#E9D8B9"/>
<path d="M193.772 229.537C192.292 229.366 190.689 229.723 189.276 230.506C187.968 231.231 186.842 232.316 186.161 233.678C185.785 234.433 185.54 235.274 185.445 236.097C185.344 236.963 185.407 237.802 185.642 238.494C185.87 239.148 186.261 239.674 186.832 239.963C187.07 240.08 187.33 240.158 187.621 240.193C189.014 240.352 191.047 239.559 192.94 238.358C194.902 237.116 196.67 235.466 197.397 234.018C197.582 233.646 197.688 233.306 197.723 232.995C197.783 232.453 197.633 231.933 197.334 231.48C196.97 230.928 196.405 230.461 195.722 230.12C195.129 229.826 194.463 229.624 193.765 229.543L193.772 229.537ZM188.8 228.598C190.426 227.696 192.272 227.288 193.98 227.483C194.813 227.578 195.61 227.812 196.311 228.167C197.2 228.611 197.956 229.251 198.474 230.036C199.055 230.925 199.34 231.987 199.201 233.18C199.129 233.81 198.94 234.458 198.616 235.105C197.721 236.889 195.695 238.817 193.5 240.213C191.391 241.551 189.074 242.43 187.413 242.237C186.984 242.186 186.598 242.073 186.255 241.901C185.316 241.429 184.666 240.552 184.294 239.459C183.934 238.401 183.834 237.154 183.977 235.899C184.111 234.756 184.44 233.603 184.953 232.577C185.821 230.839 187.215 229.476 188.806 228.596L188.8 228.598Z" fill="#E9D8B9"/>
<path d="M272.829 291.744C272.364 290.744 271.829 289.975 271.271 289.472C270.835 289.082 270.39 288.857 269.954 288.808C269.523 288.761 269.094 288.895 268.699 289.216C268.359 289.491 268.043 289.903 267.76 290.462C267.075 291.832 266.58 294.092 266.477 296.328C266.391 298.166 266.585 300.019 267.185 301.303C267.646 302.291 268.337 302.978 269.112 303.363C269.601 303.608 270.123 303.732 270.637 303.74C271.146 303.746 271.657 303.635 272.137 303.413C272.85 303.08 273.474 302.501 273.88 301.692L273.907 301.646C274.368 300.688 274.489 299.305 274.379 297.872C274.213 295.72 273.621 293.426 272.835 291.742L272.829 291.744ZM271.582 286.34C272.219 286.913 272.835 287.799 273.377 288.958C274.334 291.005 275.062 293.939 275.286 296.797C275.508 299.688 275.264 302.472 274.325 304.391L274.295 304.455C273.772 305.501 273.015 306.228 272.177 306.618C271.663 306.859 271.106 306.977 270.545 306.966C269.988 306.957 269.422 306.822 268.897 306.56C268.008 306.117 267.204 305.298 266.639 304.085C265.703 302.087 265.406 299.097 265.552 296.087C265.706 292.841 266.396 289.609 267.349 287.702C267.723 286.96 268.135 286.418 268.563 286.068C269.04 285.678 269.551 285.524 270.064 285.575C270.574 285.631 271.088 285.887 271.585 286.332L271.582 286.34Z" fill="#E9D8B9"/>
<path d="M380.771 329.337C380.306 328.337 379.771 327.568 379.213 327.065C378.778 326.674 378.332 326.45 377.897 326.401C377.465 326.353 377.036 326.488 376.641 326.809C376.302 327.083 375.986 327.495 375.702 328.055C375.017 329.425 374.522 331.685 374.419 333.921C374.333 335.759 374.528 337.612 375.128 338.895C375.589 339.884 376.28 340.571 377.054 340.955C377.543 341.201 378.065 341.325 378.579 341.333C379.088 341.339 379.599 341.228 380.08 341.006C380.792 340.673 381.417 340.094 381.823 339.285L381.849 339.239C382.311 338.281 382.431 336.898 382.321 335.465C382.155 333.313 381.564 331.019 380.777 329.335L380.771 329.337ZM379.524 323.933C380.161 324.506 380.777 325.392 381.319 326.55C382.276 328.597 383.005 331.532 383.228 334.39C383.45 337.281 383.206 340.064 382.267 341.984L382.237 342.047C381.714 343.094 380.957 343.82 380.119 344.211C379.606 344.452 379.048 344.57 378.487 344.559C377.93 344.55 377.365 344.415 376.839 344.153C375.951 343.709 375.146 342.891 374.582 341.678C373.646 339.68 373.348 336.69 373.494 333.679C373.649 330.434 374.338 327.202 375.292 325.294C375.665 324.553 376.077 324.011 376.506 323.661C376.982 323.271 377.494 323.117 378.006 323.168C378.517 323.223 379.03 323.48 379.528 323.925L379.524 323.933Z" fill="#E9D8B9"/>
</g>
<defs>
<clipPath id="clip0_78_38575">
<rect width="454.06" height="326.495" fill="white" transform="translate(139.242) rotate(25.2441)"/>
</clipPath>
</defs>
</svg>
