<svg width="608" height="85" viewBox="0 0 608 85" fill="none" xmlns="http://www.w3.org/2000/svg">
<path d="M17.89 58.62C13.39 58.62 9.25 56.94 5.47 53.58C1.93 49.98 0.16 45.72 0.16 40.8C0.16 36.42 1.69 32.46 4.75 28.92C8.59 25.08 12.97 23.16 17.89 23.16C22.81 23.16 26.98 24.9 30.4 28.38C33.88 31.8 35.62 35.97 35.62 40.89C35.62 45.21 34.09 49.2 31.03 52.86C27.19 56.7 22.81 58.62 17.89 58.62ZM21.13 56.37C24.37 56.37 27.22 55.32 29.68 53.22C32.2 50.7 33.46 47.67 33.46 44.13L33.37 42.33C32.71 37.71 30.55 33.75 26.89 30.45C23.23 27.09 19.15 25.41 14.65 25.41C11.41 25.41 8.56 26.46 6.1 28.56C3.58 31.08 2.32 34.11 2.32 37.65L2.41 39.45C3.13 44.07 5.29 48.06 8.89 51.42C12.49 54.72 16.57 56.37 21.13 56.37ZM84.4302 57L75.1602 56.91V56.19C75.8202 56.19 76.4202 55.95 76.9602 55.47C77.5602 54.99 77.8602 54.39 77.8602 53.67L77.9502 29.37C77.9502 27.39 77.2002 25.98 75.7002 25.14C74.2002 24.24 72.5802 23.79 70.8402 23.79C69.5202 23.79 68.2302 24.03 66.9702 24.51C64.8702 25.59 63.8202 27.18 63.8202 29.28L63.7302 53.67C63.7302 54.33 64.0002 54.93 64.5402 55.47C65.0802 56.01 65.6502 56.28 66.2502 56.28V57L57.0702 56.91V56.19C57.7302 56.19 58.3302 55.92 58.8702 55.38C59.4102 54.84 59.6802 54.27 59.6802 53.67L59.7702 29.37C59.7702 27.39 59.0202 25.98 57.5202 25.14C56.0202 24.24 54.4002 23.79 52.6602 23.79C50.9202 23.79 49.3602 24.21 47.9802 25.05C46.6002 25.89 45.8202 27.3 45.6402 29.28L45.5502 53.67C45.5502 54.39 45.7902 55.02 46.2702 55.56C46.8102 56.04 47.4402 56.28 48.1602 56.28V57H38.8902V56.19C39.5502 56.19 40.1502 55.92 40.6902 55.38C41.2302 54.84 41.5002 54.27 41.5002 53.67V26.4C41.5002 25.74 41.2302 25.14 40.6902 24.6C40.1502 24.06 39.5502 23.79 38.8902 23.79V23.07H45.4602C45.4602 23.67 45.7002 24.09 46.1802 24.33C46.4202 24.51 46.6602 24.6 46.9002 24.6C47.1402 24.6 47.3802 24.54 47.6202 24.42C49.3002 23.52 50.9802 23.07 52.6602 23.07C55.4802 23.07 57.8802 23.94 59.8602 25.68L61.0302 26.85C61.2102 27.09 61.4502 27.21 61.7502 27.21C62.0502 27.21 62.3202 27.09 62.5602 26.85C63.5202 25.65 64.7502 24.72 66.2502 24.06C67.8102 23.4 69.3402 23.07 70.8402 23.07C73.8402 23.07 76.3902 24.12 78.4902 26.22C80.6502 28.26 81.8202 30.84 82.0002 33.96C82.0002 40.56 81.9402 47.13 81.8202 53.67C81.8202 54.33 82.0902 54.93 82.6302 55.47C83.1702 56.01 83.7702 56.28 84.4302 56.28V57ZM135.153 57H128.553V2.85L118.353 14.4V12L128.553 0.449999H135.153V57ZM155.325 57H148.575L162.375 1.65H141.225V7.2H140.025V0.449999H168.675L155.325 57ZM203.591 59.7C196.091 59.7 189.191 56.9 182.891 51.3C176.991 45.3 174.041 38.2 174.041 30C174.041 22.7 176.591 16.1 181.691 10.2C188.091 3.8 195.391 0.599997 203.591 0.599997C211.791 0.599997 218.741 3.5 224.441 9.3C230.241 15 233.141 21.95 233.141 30.15C233.141 37.35 230.591 44 225.491 50.1C219.091 56.5 211.791 59.7 203.591 59.7ZM208.991 55.95C214.391 55.95 219.141 54.2 223.241 50.7C227.441 46.5 229.541 41.45 229.541 35.55L229.391 32.55C228.491 25.75 225.441 19.65 220.241 14.25L187.691 46.8C194.691 52.9 201.791 55.95 208.991 55.95ZM186.941 46.05L219.491 13.5C212.491 7.4 205.391 4.35 198.191 4.35C192.791 4.35 188.041 6.1 183.941 9.6C179.741 13.8 177.641 18.85 177.641 24.75C177.641 32.55 180.741 39.65 186.941 46.05ZM307.742 59.7C300.242 59.7 293.342 56.9 287.042 51.3C281.142 45.3 278.192 38.2 278.192 30C278.192 22.7 280.742 16.1 285.842 10.2C292.242 3.8 299.542 0.599997 307.742 0.599997C315.942 0.599997 322.892 3.5 328.592 9.3C334.392 15 337.292 21.95 337.292 30.15C337.292 37.35 334.742 44 329.642 50.1C323.242 56.5 315.942 59.7 307.742 59.7ZM313.142 55.95C318.542 55.95 323.292 54.2 327.392 50.7C331.592 46.5 333.692 41.45 333.692 35.55L333.542 32.55C332.642 25.75 329.592 19.65 324.392 14.25L291.842 46.8C298.842 52.9 305.942 55.95 313.142 55.95ZM291.092 46.05L323.642 13.5C316.642 7.4 309.542 4.35 302.342 4.35C296.942 4.35 292.192 6.1 288.092 9.6C283.892 13.8 281.792 18.85 281.792 24.75C281.792 32.55 284.892 39.65 291.092 46.05ZM374.392 59.7C366.892 59.7 359.992 56.9 353.692 51.3C347.792 45.3 344.842 38.2 344.842 30C344.842 22.7 347.392 16.1 352.492 10.2C358.892 3.8 366.192 0.599997 374.392 0.599997C382.592 0.599997 389.542 3.5 395.242 9.3C401.042 15 403.942 21.95 403.942 30.15C403.942 37.35 401.392 44 396.292 50.1C389.892 56.5 382.592 59.7 374.392 59.7ZM379.792 55.95C385.192 55.95 389.942 54.2 394.042 50.7C398.242 46.5 400.342 41.45 400.342 35.55L400.192 32.55C399.292 25.75 396.242 19.65 391.042 14.25L358.492 46.8C365.492 52.9 372.592 55.95 379.792 55.95ZM357.742 46.05L390.292 13.5C383.292 7.4 376.192 4.35 368.992 4.35C363.592 4.35 358.842 6.1 354.742 9.6C350.542 13.8 348.442 18.85 348.442 24.75C348.442 32.55 351.542 39.65 357.742 46.05ZM441.043 59.7C433.543 59.7 426.643 56.9 420.343 51.3C414.443 45.3 411.493 38.2 411.493 30C411.493 22.7 414.043 16.1 419.143 10.2C425.543 3.8 432.843 0.599997 441.043 0.599997C449.243 0.599997 456.193 3.5 461.893 9.3C467.693 15 470.593 21.95 470.593 30.15C470.593 37.35 468.043 44 462.943 50.1C456.543 56.5 449.243 59.7 441.043 59.7ZM446.443 55.95C451.843 55.95 456.593 54.2 460.693 50.7C464.893 46.5 466.993 41.45 466.993 35.55L466.843 32.55C465.943 25.75 462.893 19.65 457.693 14.25L425.143 46.8C432.143 52.9 439.243 55.95 446.443 55.95ZM424.393 46.05L456.943 13.5C449.943 7.4 442.843 4.35 435.643 4.35C430.243 4.35 425.493 6.1 421.393 9.6C417.193 13.8 415.093 18.85 415.093 24.75C415.093 32.55 418.193 39.65 424.393 46.05ZM506.343 82.56V81.84C507.063 81.84 507.693 81.6 508.233 81.12C508.713 80.52 508.953 79.92 508.953 79.32L508.683 26.49C508.683 25.77 508.413 25.17 507.873 24.69C507.393 24.15 506.793 23.88 506.073 23.88V23.25L512.643 23.16V24.33C512.643 24.87 512.883 25.14 513.363 25.14L513.813 25.05C516.573 23.49 519.573 22.71 522.813 22.71C527.913 22.89 532.113 24.66 535.413 28.02C538.773 31.38 540.483 35.58 540.543 40.62C540.543 45.6 538.773 49.83 535.233 53.31C531.753 56.73 527.523 58.44 522.543 58.44C519.843 58.44 517.293 57.84 514.893 56.64C514.653 56.52 514.413 56.46 514.173 56.46C513.273 56.46 512.823 56.94 512.823 57.9L512.913 79.23C512.913 79.89 513.123 80.46 513.543 80.94C514.023 81.48 514.623 81.78 515.343 81.84V82.47L506.343 82.56ZM522.633 57.72C526.473 57.72 529.713 56.1 532.353 52.86C535.053 49.56 536.463 45.48 536.583 40.62C536.523 35.76 535.173 31.71 532.533 28.47C529.953 25.23 526.713 23.52 522.813 23.34C519.153 23.34 516.003 24.84 513.363 27.84C512.883 28.32 512.643 28.89 512.643 29.55L512.823 51.69C512.823 52.29 513.033 52.89 513.453 53.49C516.213 56.31 519.273 57.72 522.633 57.72ZM555.375 84.99L547.725 84.9L543.855 84.99C542.895 84.99 541.905 84.87 540.885 84.63C537.645 83.43 535.695 81.12 535.035 77.7L534.945 76.44C534.945 74.58 535.515 72.87 536.655 71.31C537.375 70.35 538.305 69.51 539.445 68.79C540.585 68.13 541.755 67.8 542.955 67.8H551.055C552.915 67.68 554.415 67.05 555.555 65.91C555.615 65.79 555.675 65.67 555.735 65.55C555.855 65.49 555.975 65.4 556.095 65.28C556.515 64.68 556.785 64.11 556.905 63.57C557.865 61.05 558.345 59.64 558.345 59.34C558.345 58.86 558.135 58.32 557.715 57.72C557.295 57.12 556.635 56.82 555.735 56.82C555.615 56.34 552.075 45.9 545.115 25.5C544.755 24.36 543.945 23.79 542.685 23.79V23.16H550.335V23.79C549.915 23.79 549.585 23.94 549.345 24.24C549.165 24.48 549.075 24.72 549.075 24.96C549.075 25.14 552.405 34.86 559.065 54.12C559.185 54.42 559.425 54.57 559.785 54.57C560.085 54.57 560.295 54.42 560.415 54.12C566.895 35.7 570.135 26.4 570.135 26.22C570.135 25.56 569.895 24.99 569.415 24.51C568.935 24.03 568.365 23.79 567.705 23.79V23.16H575.355V23.79C573.195 23.79 571.635 24.9 570.675 27.12C563.355 48 559.095 60.27 557.895 63.93C557.235 66.21 556.125 68.01 554.565 69.33C553.005 70.71 550.995 71.4 548.535 71.4L543.495 71.31C542.595 71.31 541.695 71.49 540.795 71.85C538.395 73.11 537.195 75 537.195 77.52C537.195 79.14 537.825 80.67 539.085 82.11C540.465 83.49 542.085 84.18 543.945 84.18C545.865 84.24 547.755 84.27 549.615 84.27C551.535 84.27 553.455 84.27 555.375 84.27C557.295 84.27 558.945 83.61 560.325 82.29C561.765 80.97 562.485 79.32 562.485 77.34H563.115V77.7L563.025 78.78C562.545 80.94 561.435 82.59 559.695 83.73C558.315 84.57 556.875 84.99 555.375 84.99ZM583.569 50.16C583.629 50.82 583.749 51.42 583.929 51.96C584.709 54.06 586.179 55.35 588.339 55.83H588.429C590.409 55.83 592.239 55.05 593.919 53.49C595.659 51.93 596.739 50.16 597.159 48.18C597.459 46.5 597.129 45.18 596.169 44.22V44.13C595.689 43.71 595.119 43.29 594.459 42.87C590.499 40.65 587.199 38.34 584.559 35.94C584.379 35.76 584.169 35.73 583.929 35.85C583.689 35.91 583.569 36.09 583.569 36.39V50.16ZM585.999 23.79C585.279 23.85 584.679 24.15 584.199 24.69C583.719 25.17 583.479 25.77 583.479 26.49V32.07C583.599 32.67 583.779 33.18 584.019 33.6C585.039 34.98 586.689 36.48 588.969 38.1C591.309 39.66 593.259 40.86 594.819 41.7C596.679 42.72 597.939 44.25 598.599 46.29C598.959 47.43 599.079 48.6 598.959 49.8C598.599 51.84 597.699 53.52 596.259 54.84C595.599 55.38 594.939 55.8 594.279 56.1C591.759 56.88 589.809 57.12 588.429 56.82C587.289 56.58 585.759 55.65 583.839 54.03C583.659 54.15 583.569 54.33 583.569 54.57V56.91H576.909V56.19C577.629 56.19 578.229 55.95 578.709 55.47C579.249 54.93 579.519 54.3 579.519 53.58V50.25C579.459 49.83 579.429 49.41 579.429 48.99L579.339 31.08V26.49C579.339 25.77 579.069 25.14 578.529 24.6C577.989 24.06 577.359 23.79 576.639 23.79V23.07H595.539V26.31H594.819C594.819 25.59 594.579 24.99 594.099 24.51C593.619 24.03 593.019 23.79 592.299 23.79H585.999ZM605.005 57.9L602.485 55.38L605.005 52.77L607.615 55.38L605.005 57.9Z" fill="#1A1D1D"/>
</svg>
