<svg width="376" height="137" viewBox="0 0 376 137" fill="none" xmlns="http://www.w3.org/2000/svg">
<path d="M25.9 47L18.9 47V46.44C19.46 46.44 19.9267 46.2533 20.3 45.88C20.72 45.46 20.93 44.97 20.93 44.41L20.93 28.38C20.93 27.96 20.7667 27.61 20.44 27.33C20.16 27.05 19.81 26.91 19.39 26.91L7.84 26.91C7.42 26.91 7.07 27.05 6.79 27.33C6.51 27.61 6.37 27.96 6.37 28.38L6.37 44.55C6.37 45.67 7 46.3 8.26 46.44V47H1.19L1.19 46.44C1.75 46.44 2.21667 46.2533 2.59 45.88C3.01 45.46 3.22 44.97 3.22 44.41L3.22 2.69C3.22 2.13 3.01 1.66333 2.59 1.29C2.21667 0.869996 1.75 0.659996 1.19 0.659996V0.0999988L8.26 0.0999988V0.659996C7 0.893332 6.37 1.57 6.37 2.69L6.37 24.81C6.37 25.23 6.51 25.6033 6.79 25.93C7.07 26.21 7.42 26.35 7.84 26.35L19.39 26.35C19.81 26.35 20.16 26.21 20.44 25.93C20.7667 25.6033 20.93 25.23 20.93 24.81L20.93 2.69C20.93 2.13 20.72 1.66333 20.3 1.29C19.9267 0.869996 19.46 0.659996 18.9 0.659996V0.0999988L25.9 0.0999988V0.659996C25.34 0.706665 24.8733 0.916665 24.5 1.29C24.1733 1.66333 24.01 2.13 24.01 2.69L24.01 44.55C24.01 45.11 24.1967 45.5767 24.57 45.95C24.99 46.2767 25.4333 46.44 25.9 46.44V47ZM44.0803 48.4C41.607 48.4 39.4603 47.42 37.6403 45.46C36.2403 43.78 35.5403 41.9367 35.5403 39.93C35.5403 39.3233 35.6103 38.6933 35.7503 38.04C36.357 35.52 37.757 33.63 39.9503 32.37C43.6836 30.3167 47.1136 27.8667 50.2403 25.02C50.5203 24.6933 50.6603 24.3667 50.6603 24.04C50.6603 23.8067 50.567 23.55 50.3803 23.27C49.307 21.7767 48.0703 21.03 46.6703 21.03C44.4303 21.03 42.517 21.8233 40.9303 23.41C39.3903 24.9967 38.6203 26.8867 38.6203 29.08H38.0603C38.0603 26.7467 38.9003 24.74 40.5803 23.06C42.2603 21.38 44.2903 20.54 46.6703 20.54C48.957 20.5867 50.9403 21.38 52.6203 22.92C53.6936 23.9933 54.3703 25.1367 54.6503 26.35C54.977 27.5633 55.1403 28.9167 55.1403 30.41V44.55C55.1403 45.0167 55.3036 45.46 55.6303 45.88C56.0036 46.2533 56.4703 46.44 57.0303 46.44V46.93H52.0603V45.04C52.0603 44.7133 51.8503 44.55 51.4303 44.55C51.2903 44.55 51.1736 44.62 51.0803 44.76C49.587 46.7667 47.5803 47.9567 45.0603 48.33L44.0803 48.4ZM46.6703 46.72C47.8836 46.72 48.887 46.3467 49.6803 45.6C50.987 44.2933 51.7803 42.7533 52.0603 40.98V28.24C52.0603 27.12 51.967 26.35 51.7803 25.93C51.5936 25.51 51.3603 25.3 51.0803 25.3C50.8936 25.3 50.707 25.37 50.5203 25.51C47.767 28.1233 44.337 30.55 40.2303 32.79C39.577 33.1633 38.9703 33.63 38.4103 34.19C37.617 34.9833 37.2203 35.9867 37.2203 37.2C37.2203 37.62 37.267 38.04 37.3603 38.46C37.827 40.6067 38.947 42.52 40.7203 44.2C42.5403 45.88 44.5236 46.72 46.6703 46.72ZM72.8328 47.28C70.9661 47.28 69.2395 46.58 67.6528 45.18L65.5528 42.73L66.6028 41.4L66.9528 41.68C66.7661 41.9133 66.6728 42.1933 66.6728 42.52C66.6728 42.8 66.7661 43.0567 66.9528 43.29L68.0028 44.62C69.0761 45.5067 70.1495 45.95 71.2228 45.95C73.5095 45.95 75.3295 45.25 76.6828 43.85C78.0361 42.45 78.7128 40.63 78.7128 38.39C78.7128 37.3633 78.3861 36.3833 77.7328 35.45C77.4995 35.17 77.2661 34.9367 77.0328 34.75C76.8461 34.5633 76.6595 34.47 76.4728 34.47L75.8428 34.68C74.9095 35.1 73.9295 35.3333 72.9028 35.38C71.8761 35.38 70.8495 35.4033 69.8228 35.45C69.4495 35.45 69.1228 35.59 68.8428 35.87C68.5628 36.15 68.4228 36.5 68.4228 36.92H68.0728V33.42H68.4228C68.4228 33.84 68.5628 34.19 68.8428 34.47C69.1228 34.75 69.4495 34.89 69.8228 34.89H72.8328C74.6528 34.89 76.0061 34.12 76.8928 32.58C77.7795 31.04 78.2228 29.4767 78.2228 27.89C78.2228 26.3033 77.7795 24.81 76.8928 23.41C76.0528 21.9633 74.7461 21.24 72.9728 21.24H66.6028C66.3228 21.24 66.0661 21.3567 65.8328 21.59C65.5995 21.8233 65.4828 22.08 65.4828 22.36H65.2028V20.61H72.6228C74.6295 20.61 76.3561 21.2867 77.8028 22.64C79.2495 23.9933 80.0195 25.6967 80.1128 27.75C80.0661 30.13 79.2028 32.02 77.5228 33.42C77.3361 33.6067 77.2428 33.7933 77.2428 33.98C77.2428 34.12 77.4528 34.4 77.8728 34.82C79.2261 36.1733 79.9728 37.83 80.1128 39.79V40C80.1128 42.0067 79.3895 43.7333 77.9428 45.18C76.4028 46.58 74.6995 47.28 72.8328 47.28ZM94.0171 41.68C94.0638 42.1933 94.1571 42.66 94.2971 43.08C94.9038 44.7133 96.0471 45.7167 97.7271 46.09H97.7971C99.3371 46.09 100.76 45.4833 102.067 44.27C103.42 43.0567 104.26 41.68 104.587 40.14C104.82 38.8333 104.564 37.8067 103.817 37.06V36.99C103.444 36.6633 103 36.3367 102.487 36.01C99.4071 34.2833 96.8404 32.4867 94.7871 30.62C94.6471 30.48 94.4838 30.4567 94.2971 30.55C94.1104 30.5967 94.0171 30.7367 94.0171 30.97V41.68ZM100.317 33.63C101.25 34.2367 102.067 34.7267 102.767 35.1C104.214 35.8933 105.194 37.0833 105.707 38.67C105.987 39.5567 106.08 40.4667 105.987 41.4C105.707 42.9867 105.007 44.2933 103.887 45.32C103.374 45.74 102.86 46.0667 102.347 46.3C100.387 46.9067 98.8704 47.0933 97.7971 46.86C96.9104 46.6733 95.7204 45.95 94.2271 44.69C94.0871 44.7833 94.0171 44.9233 94.0171 45.11V46.93H88.8371V46.37C89.3971 46.37 89.8638 46.1833 90.2371 45.81C90.6571 45.39 90.8671 44.9 90.8671 44.34L90.8671 41.75C90.8204 41.4233 90.7971 41.0967 90.7971 40.77L90.7271 26.84V23.34C90.7271 22.78 90.5171 22.29 90.0971 21.87C89.6771 21.45 89.1871 21.24 88.6271 21.24V20.68H95.9071V21.24C95.3471 21.2867 94.8804 21.52 94.5071 21.94C94.1338 22.3133 93.9471 22.78 93.9471 23.34V23.9C93.9471 23.9933 93.9938 24.0867 94.0871 24.18C94.1804 24.2267 94.2738 24.25 94.3671 24.25C94.4604 24.2033 94.5538 24.1567 94.6471 24.11C95.3471 23.3633 96.4204 22.5467 97.8671 21.66C99.3604 20.7733 100.48 20.5167 101.227 20.89C102.02 21.2167 102.604 21.6133 102.977 22.08C103.35 22.5467 103.654 23.2 103.887 24.04C104.68 28.4733 103.49 31.67 100.317 33.63ZM93.9471 26.07V27.61C94.0404 28.0767 94.1804 28.4733 94.3671 28.8C95.1604 29.8733 96.4671 31.0167 98.2871 32.23L99.4071 33.07C99.5471 32.93 99.7571 32.79 100.037 32.65C100.597 32.4167 101.18 31.7867 101.787 30.76C102.394 29.7333 102.72 28.6367 102.767 27.47C102.86 26.2567 102.72 25.1367 102.347 24.11C101.974 23.0367 101.46 22.3367 100.807 22.01C100.014 21.7767 99.0804 21.8933 98.0071 22.36C96.9804 22.8267 96.1638 23.27 95.5571 23.69C94.7638 24.39 94.2271 25.1833 93.9471 26.07ZM124.28 48.4C121.806 48.4 119.66 47.42 117.84 45.46C116.44 43.78 115.74 41.9367 115.74 39.93C115.74 39.3233 115.81 38.6933 115.95 38.04C116.556 35.52 117.956 33.63 120.15 32.37C123.883 30.3167 127.313 27.8667 130.44 25.02C130.72 24.6933 130.86 24.3667 130.86 24.04C130.86 23.8067 130.766 23.55 130.58 23.27C129.506 21.7767 128.27 21.03 126.87 21.03C124.63 21.03 122.716 21.8233 121.13 23.41C119.59 24.9967 118.82 26.8867 118.82 29.08H118.26C118.26 26.7467 119.1 24.74 120.78 23.06C122.46 21.38 124.49 20.54 126.87 20.54C129.156 20.5867 131.14 21.38 132.82 22.92C133.893 23.9933 134.57 25.1367 134.85 26.35C135.176 27.5633 135.34 28.9167 135.34 30.41V44.55C135.34 45.0167 135.503 45.46 135.83 45.88C136.203 46.2533 136.67 46.44 137.23 46.44V46.93H132.26V45.04C132.26 44.7133 132.05 44.55 131.63 44.55C131.49 44.55 131.373 44.62 131.28 44.76C129.786 46.7667 127.78 47.9567 125.26 48.33L124.28 48.4ZM126.87 46.72C128.083 46.72 129.086 46.3467 129.88 45.6C131.186 44.2933 131.98 42.7533 132.26 40.98V28.24C132.26 27.12 132.166 26.35 131.98 25.93C131.793 25.51 131.56 25.3 131.28 25.3C131.093 25.3 130.906 25.37 130.72 25.51C127.966 28.1233 124.536 30.55 120.43 32.79C119.776 33.1633 119.17 33.63 118.61 34.19C117.816 34.9833 117.42 35.9867 117.42 37.2C117.42 37.62 117.466 38.04 117.56 38.46C118.026 40.6067 119.146 42.52 120.92 44.2C122.74 45.88 124.723 46.72 126.87 46.72ZM162.622 29.64V23.2C162.622 22.64 162.412 22.1733 161.992 21.8C161.619 21.38 161.152 21.17 160.592 21.17V20.61L167.662 20.61V21.17C167.102 21.2167 166.635 21.45 166.262 21.87C165.935 22.2433 165.772 22.6867 165.772 23.2V44.55C165.772 45.67 166.402 46.3 167.662 46.44V47H160.592V46.44C161.152 46.44 161.619 46.2533 161.992 45.88C162.412 45.46 162.622 44.97 162.622 44.41V32.44C162.622 30.9 162.039 29.8033 160.872 29.15C159.705 28.4967 158.445 28.17 157.092 28.17C155.785 28.17 154.572 28.52 153.452 29.22C152.379 29.8733 151.772 30.9467 151.632 32.44V34.89L151.562 44.41C151.562 44.97 151.749 45.46 152.122 45.88C152.542 46.2533 153.032 46.44 153.592 46.44V47H146.382V46.37C146.895 46.37 147.362 46.16 147.782 45.74C148.202 45.32 148.412 44.8767 148.412 44.41V23.2C148.412 22.64 148.202 22.1733 147.782 21.8C147.409 21.38 146.942 21.17 146.382 21.17V20.61H153.452V21.17C152.892 21.2167 152.425 21.45 152.052 21.87C151.725 22.2433 151.562 22.6867 151.562 23.2V28.03C151.609 28.2633 151.772 28.45 152.052 28.59C152.379 28.8233 152.752 28.8467 153.172 28.66C154.479 27.96 155.785 27.61 157.092 27.61C159.239 27.61 161.082 28.2867 162.622 29.64ZM186.639 48.19C184.352 48.19 182.346 47.3733 180.619 45.74C178.892 44.06 178.029 42.0533 178.029 39.72L178.099 23.2C178.099 22.64 177.889 22.1733 177.469 21.8C177.096 21.38 176.629 21.17 176.069 21.17V20.61H183.279V21.17C182.766 21.17 182.276 21.38 181.809 21.8C181.389 22.22 181.179 22.6867 181.179 23.2L181.109 43.36C181.109 44.9 181.692 45.9967 182.859 46.65C184.072 47.3033 185.332 47.63 186.639 47.63C187.712 47.63 188.716 47.4433 189.649 47.07C191.282 46.1833 192.099 44.9467 192.099 43.36V40.91C192.146 38.8567 192.169 32.9533 192.169 23.2C192.169 22.64 191.959 22.1733 191.539 21.8C191.166 21.38 190.699 21.17 190.139 21.17V20.61H197.349V21.17C196.789 21.17 196.299 21.38 195.879 21.8C195.506 22.22 195.319 22.6867 195.319 23.2V44.41C195.319 44.97 195.506 45.46 195.879 45.88C196.299 46.2533 196.789 46.44 197.349 46.44V47H192.169V46.16C190.536 47.5133 188.692 48.19 186.639 48.19ZM220.946 48.26C217.773 48.26 214.88 47.2567 212.266 45.25L212.056 45.04C208.883 42.2867 207.226 38.81 207.086 34.61C207.086 30.83 208.393 27.5867 211.006 24.88C213.806 22.08 217.19 20.68 221.156 20.68C221.156 27.7267 218.963 34.8433 214.576 42.03C214.483 42.2167 214.436 42.4033 214.436 42.59C214.436 42.87 214.576 43.15 214.856 43.43C217.703 45.4833 220.55 46.51 223.396 46.51C226.056 46.51 228.366 45.5767 230.326 43.71C232.1 41.7033 232.986 39.4633 232.986 36.99C232.986 36.1967 232.893 35.3567 232.706 34.47H234.666C234.666 38.2967 233.36 41.5167 230.746 44.13C228.18 46.7433 224.913 48.12 220.946 48.26ZM213.806 41.96C213.946 41.96 214.086 41.8433 214.226 41.61C218.006 34.9367 220.106 28.87 220.526 23.41C220.526 23.1767 220.456 22.99 220.316 22.85C220.036 22.57 219.78 22.43 219.546 22.43H218.356C215.556 22.43 213.223 23.3633 211.356 25.23C209.63 27.19 208.766 29.43 208.766 31.95C208.766 32.65 208.836 33.3733 208.976 34.12C209.63 37.06 210.96 39.6033 212.966 41.75C213.106 41.89 213.27 41.96 213.456 41.96H213.806ZM40.04 117H34.09V116.44C34.4167 116.44 34.65 116.347 34.79 116.16C34.93 115.927 35 115.717 35 115.53L27.23 92.71C27.09 92.4767 26.9033 92.36 26.67 92.36C26.4367 92.36 26.2733 92.4767 26.18 92.71L21.07 107.34C21.07 107.433 21.9333 110.023 23.66 115.11C24.0333 115.997 24.6633 116.44 25.55 116.44V117H19.53V116.44C19.8567 116.44 20.09 116.347 20.23 116.16C20.4167 115.973 20.51 115.763 20.51 115.53L12.74 92.71C12.6 92.4767 12.4133 92.36 12.18 92.36C11.9467 92.36 11.76 92.4767 11.62 92.71L4.13 113.92C4.08333 114.107 4.06 114.317 4.06 114.55C4.06 115.017 4.22333 115.46 4.55 115.88C4.92333 116.253 5.39 116.44 5.95 116.44V117H0L0 116.44C1.63333 116.44 2.84667 115.577 3.64 113.85C8.44667 100.13 10.85 93.2467 10.85 93.2C10.8967 93.1533 10.92 93.0367 10.92 92.85C10.92 92.3833 10.7567 91.9867 10.43 91.66C10.15 91.3333 9.75333 91.17 9.24 91.17L9.38 90.61H16.38V91.17L15.54 91.31L20.3 105.38C20.3933 105.567 20.5567 105.66 20.79 105.66C20.9767 105.66 21.1167 105.567 21.21 105.38L25.41 93.13C25.41 92.4767 25.2467 91.9867 24.92 91.66C24.64 91.3333 24.2433 91.17 23.73 91.17L23.94 90.61H30.87V91.17H29.96L38.15 115.11C38.5233 115.997 39.1533 116.44 40.04 116.44V117ZM62.5986 118.26C59.4253 118.26 56.5319 117.257 53.9186 115.25L53.7086 115.04C50.5353 112.287 48.8786 108.81 48.7386 104.61C48.7386 100.83 50.0453 97.5867 52.6586 94.88C55.4586 92.08 58.8419 90.68 62.8086 90.68C62.8086 97.7267 60.6153 104.843 56.2286 112.03C56.1353 112.217 56.0886 112.403 56.0886 112.59C56.0886 112.87 56.2286 113.15 56.5086 113.43C59.3553 115.483 62.2019 116.51 65.0486 116.51C67.7086 116.51 70.0186 115.577 71.9786 113.71C73.7519 111.703 74.6386 109.463 74.6386 106.99C74.6386 106.197 74.5453 105.357 74.3586 104.47H76.3186C76.3186 108.297 75.0119 111.517 72.3986 114.13C69.8319 116.743 66.5653 118.12 62.5986 118.26ZM55.4586 111.96C55.5986 111.96 55.7386 111.843 55.8786 111.61C59.6586 104.937 61.7586 98.87 62.1786 93.41C62.1786 93.1767 62.1086 92.99 61.9686 92.85C61.6886 92.57 61.4319 92.43 61.1986 92.43H60.0086C57.2086 92.43 54.8753 93.3633 53.0086 95.23C51.2819 97.19 50.4186 99.43 50.4186 101.95C50.4186 102.65 50.4886 103.373 50.6286 104.12C51.2819 107.06 52.6119 109.603 54.6186 111.75C54.7586 111.89 54.9219 111.96 55.1086 111.96H55.4586ZM86.2203 136.88V136.32C86.7803 136.32 87.2703 136.133 87.6903 135.76C88.0636 135.293 88.2503 134.827 88.2503 134.36L88.0403 93.27C88.0403 92.71 87.8303 92.2433 87.4103 91.87C87.037 91.45 86.5703 91.24 86.0103 91.24V90.75L91.1203 90.68V91.59C91.1203 92.01 91.307 92.22 91.6803 92.22L92.0303 92.15C94.177 90.9367 96.5103 90.33 99.0303 90.33C102.997 90.47 106.264 91.8467 108.83 94.46C111.444 97.0733 112.774 100.34 112.82 104.26C112.82 108.133 111.444 111.423 108.69 114.13C105.984 116.79 102.694 118.12 98.8203 118.12C96.7203 118.12 94.737 117.653 92.8703 116.72C92.6836 116.627 92.497 116.58 92.3103 116.58C91.6103 116.58 91.2603 116.953 91.2603 117.7L91.3303 134.29C91.3303 134.803 91.4936 135.247 91.8203 135.62C92.1936 136.04 92.6603 136.273 93.2203 136.32V136.81L86.2203 136.88ZM98.8903 117.56C101.877 117.56 104.397 116.3 106.45 113.78C108.55 111.213 109.647 108.04 109.74 104.26C109.694 100.48 108.644 97.33 106.59 94.81C104.584 92.29 102.064 90.96 99.0303 90.82C96.1836 90.82 93.7336 91.9867 91.6803 94.32C91.307 94.6933 91.1203 95.1367 91.1203 95.65L91.2603 112.87C91.2603 113.337 91.4236 113.803 91.7503 114.27C93.897 116.463 96.277 117.56 98.8903 117.56ZM137.027 118.26C133.527 118.26 130.307 116.953 127.367 114.34C124.613 111.54 123.237 108.227 123.237 104.4C123.237 100.993 124.427 97.9133 126.807 95.16C129.793 92.1733 133.2 90.68 137.027 90.68C140.853 90.68 144.097 92.0333 146.757 94.74C149.463 97.4 150.817 100.643 150.817 104.47C150.817 107.83 149.627 110.933 147.247 113.78C144.26 116.767 140.853 118.26 137.027 118.26ZM139.547 116.51C142.067 116.51 144.283 115.693 146.197 114.06C148.157 112.1 149.137 109.743 149.137 106.99L149.067 105.59C148.553 101.997 146.873 98.9167 144.027 96.35C141.18 93.7367 138.007 92.43 134.507 92.43C131.987 92.43 129.77 93.2467 127.857 94.88C125.897 96.84 124.917 99.1967 124.917 101.95L124.987 103.35C125.547 106.943 127.227 110.047 130.027 112.66C132.827 115.227 136 116.51 139.547 116.51ZM181.99 117L174.85 116.93V116.37C175.363 116.37 175.83 116.183 176.25 115.81C176.67 115.437 176.88 114.97 176.88 114.41L176.95 95.51C176.95 93.9233 176.367 92.8033 175.2 92.15C174.033 91.4967 172.773 91.17 171.42 91.17C170.113 91.17 168.9 91.52 167.78 92.22C166.707 92.8733 166.1 93.9467 165.96 95.44L165.89 114.41C165.89 114.97 166.077 115.46 166.45 115.88C166.87 116.253 167.36 116.44 167.92 116.44V117H160.71V116.37C161.223 116.37 161.69 116.16 162.11 115.74C162.53 115.32 162.74 114.877 162.74 114.41V93.2C162.74 92.6867 162.53 92.22 162.11 91.8C161.69 91.38 161.223 91.17 160.71 91.17V90.61H165.82C165.82 91.0767 166.007 91.4033 166.38 91.59C166.567 91.73 166.753 91.8 166.94 91.8C167.127 91.8 167.313 91.7533 167.5 91.66C168.807 90.96 170.113 90.61 171.42 90.61C173.753 90.61 175.737 91.4267 177.37 93.06C179.05 94.6467 179.96 96.6533 180.1 99.08C180.1 104.213 180.053 109.323 179.96 114.41C179.96 114.923 180.17 115.39 180.59 115.81C181.01 116.23 181.477 116.44 181.99 116.44V117ZM191.097 136.88V136.32C191.657 136.32 192.147 136.133 192.567 135.76C192.941 135.293 193.127 134.827 193.127 134.36L192.917 93.27C192.917 92.71 192.707 92.2433 192.287 91.87C191.914 91.45 191.447 91.24 190.887 91.24V90.75L195.997 90.68V91.59C195.997 92.01 196.184 92.22 196.557 92.22L196.907 92.15C199.054 90.9367 201.387 90.33 203.907 90.33C207.874 90.47 211.141 91.8467 213.707 94.46C216.321 97.0733 217.651 100.34 217.697 104.26C217.697 108.133 216.321 111.423 213.567 114.13C210.861 116.79 207.571 118.12 203.697 118.12C201.597 118.12 199.614 117.653 197.747 116.72C197.561 116.627 197.374 116.58 197.187 116.58C196.487 116.58 196.137 116.953 196.137 117.7L196.207 134.29C196.207 134.803 196.371 135.247 196.697 135.62C197.071 136.04 197.537 136.273 198.097 136.32V136.81L191.097 136.88ZM203.767 117.56C206.754 117.56 209.274 116.3 211.327 113.78C213.427 111.213 214.524 108.04 214.617 104.26C214.571 100.48 213.521 97.33 211.467 94.81C209.461 92.29 206.941 90.96 203.907 90.82C201.061 90.82 198.611 91.9867 196.557 94.32C196.184 94.6933 195.997 95.1367 195.997 95.65L196.137 112.87C196.137 113.337 196.301 113.803 196.627 114.27C198.774 116.463 201.154 117.56 203.767 117.56ZM237.704 118.19C235.417 118.19 233.41 117.373 231.684 115.74C229.957 114.06 229.094 112.053 229.094 109.72L229.164 93.2C229.164 92.64 228.954 92.1733 228.534 91.8C228.16 91.38 227.694 91.17 227.134 91.17V90.61H234.344V91.17C233.83 91.17 233.34 91.38 232.874 91.8C232.454 92.22 232.244 92.6867 232.244 93.2L232.174 113.36C232.174 114.9 232.757 115.997 233.924 116.65C235.137 117.303 236.397 117.63 237.704 117.63C238.777 117.63 239.78 117.443 240.714 117.07C242.347 116.183 243.164 114.947 243.164 113.36V110.91C243.21 108.857 243.234 102.953 243.234 93.2C243.234 92.64 243.024 92.1733 242.604 91.8C242.23 91.38 241.764 91.17 241.204 91.17V90.61H248.414V91.17C247.854 91.17 247.364 91.38 246.944 91.8C246.57 92.22 246.384 92.6867 246.384 93.2V114.41C246.384 114.97 246.57 115.46 246.944 115.88C247.364 116.253 247.854 116.44 248.414 116.44V117H243.234V116.16C241.6 117.513 239.757 118.19 237.704 118.19ZM269.351 95.86C269.304 95.3467 269.211 94.88 269.071 94.46C268.464 92.8267 267.321 91.8233 265.641 91.45H265.571C264.031 91.45 262.584 92.0567 261.231 93.27C259.924 94.4833 259.107 95.86 258.781 97.4C258.547 98.7067 258.804 99.7333 259.551 100.48V100.55C259.924 100.877 260.367 101.203 260.881 101.53C263.961 103.257 266.527 105.053 268.581 106.92C268.721 107.06 268.884 107.107 269.071 107.06C269.257 106.967 269.351 106.803 269.351 106.57V95.86ZM269.141 92.85C269.281 92.7567 269.351 92.6167 269.351 92.43V90.61H274.531V91.17C273.971 91.17 273.481 91.38 273.061 91.8C272.687 92.1733 272.501 92.64 272.501 93.2V95.79C272.547 96.1167 272.571 96.4433 272.571 96.77L272.641 110.7V114.27C272.641 114.83 272.851 115.32 273.271 115.74C273.691 116.16 274.181 116.37 274.741 116.37V116.93H267.461V116.37C268.021 116.323 268.487 116.113 268.861 115.74C269.234 115.32 269.421 114.83 269.421 114.27V109.93C269.327 109.463 269.187 109.067 269.001 108.74C268.207 107.667 266.901 106.523 265.081 105.31C263.307 104.05 261.814 103.093 260.601 102.44C259.154 101.647 258.174 100.457 257.661 98.87C257.381 97.9833 257.287 97.0733 257.381 96.14C257.661 94.5533 258.361 93.2467 259.481 92.22C259.994 91.8 260.507 91.4733 261.021 91.24C262.981 90.6333 264.497 90.4467 265.571 90.68C266.457 90.8667 267.647 91.59 269.141 92.85ZM264.241 103.98C262.701 105.52 261.511 108.693 260.671 113.5C260.577 114.293 260.787 114.993 261.301 115.6C261.814 116.16 262.444 116.44 263.191 116.44V117H257.171V116.44C257.917 116.44 258.547 116.207 259.061 115.74C259.621 115.227 259.971 114.62 260.111 113.92C260.764 108.927 262.001 105.473 263.821 103.56L264.241 103.98ZM319.278 117L312.068 116.93V116.37C312.582 116.37 313.048 116.183 313.468 115.81C313.935 115.437 314.168 114.97 314.168 114.41L314.238 95.51C314.238 93.97 313.655 92.8733 312.488 92.22C311.322 91.52 310.062 91.17 308.708 91.17C307.682 91.17 306.678 91.3567 305.698 91.73C304.065 92.57 303.248 93.8067 303.248 95.44L303.178 114.41C303.178 114.923 303.388 115.39 303.808 115.81C304.228 116.23 304.672 116.44 305.138 116.44V117L297.998 116.93V116.37C298.512 116.37 298.978 116.16 299.398 115.74C299.818 115.32 300.028 114.877 300.028 114.41L300.098 95.51C300.098 93.97 299.515 92.8733 298.348 92.22C297.182 91.52 295.922 91.17 294.568 91.17C293.215 91.17 292.002 91.4967 290.928 92.15C289.855 92.8033 289.248 93.9 289.108 95.44L289.038 114.41C289.038 114.97 289.225 115.46 289.598 115.88C290.018 116.253 290.508 116.44 291.068 116.44V117H283.858V116.37C284.372 116.37 284.838 116.16 285.258 115.74C285.678 115.32 285.888 114.877 285.888 114.41V93.2C285.888 92.6867 285.678 92.22 285.258 91.8C284.838 91.38 284.372 91.17 283.858 91.17V90.61H288.968C288.968 91.0767 289.155 91.4033 289.528 91.59C289.715 91.73 289.902 91.8 290.088 91.8C290.275 91.8 290.462 91.7533 290.648 91.66C291.955 90.96 293.262 90.61 294.568 90.61C296.762 90.61 298.628 91.2867 300.168 92.64L301.078 93.55C301.218 93.7367 301.405 93.83 301.638 93.83C301.872 93.83 302.082 93.7367 302.268 93.55C303.015 92.6167 303.972 91.8933 305.138 91.38C306.352 90.8667 307.542 90.61 308.708 90.61C311.042 90.61 313.025 91.4267 314.658 93.06C316.338 94.6467 317.248 96.6533 317.388 99.08C317.388 104.213 317.342 109.323 317.248 114.41C317.248 114.923 317.458 115.39 317.878 115.81C318.298 116.23 318.765 116.44 319.278 116.44V117ZM338.616 118.19C336.329 118.19 334.322 117.373 332.596 115.74C330.869 114.06 330.006 112.053 330.006 109.72L330.076 93.2C330.076 92.64 329.866 92.1733 329.446 91.8C329.072 91.38 328.606 91.17 328.046 91.17V90.61H335.256V91.17C334.742 91.17 334.252 91.38 333.786 91.8C333.366 92.22 333.156 92.6867 333.156 93.2L333.086 113.36C333.086 114.9 333.669 115.997 334.836 116.65C336.049 117.303 337.309 117.63 338.616 117.63C339.689 117.63 340.692 117.443 341.626 117.07C343.259 116.183 344.076 114.947 344.076 113.36V110.91C344.122 108.857 344.146 102.953 344.146 93.2C344.146 92.64 343.936 92.1733 343.516 91.8C343.142 91.38 342.676 91.17 342.116 91.17V90.61H349.326V91.17C348.766 91.17 348.276 91.38 347.856 91.8C347.482 92.22 347.296 92.6867 347.296 93.2V114.41C347.296 114.97 347.482 115.46 347.856 115.88C348.276 116.253 348.766 116.44 349.326 116.44V117H344.146V116.16C342.512 117.513 340.669 118.19 338.616 118.19ZM370.263 95.86C370.216 95.3467 370.123 94.88 369.983 94.46C369.376 92.8267 368.233 91.8233 366.553 91.45H366.483C364.943 91.45 363.496 92.0567 362.143 93.27C360.836 94.4833 360.019 95.86 359.693 97.4C359.459 98.7067 359.716 99.7333 360.463 100.48V100.55C360.836 100.877 361.279 101.203 361.793 101.53C364.873 103.257 367.439 105.053 369.493 106.92C369.633 107.06 369.796 107.107 369.983 107.06C370.169 106.967 370.263 106.803 370.263 106.57V95.86ZM370.053 92.85C370.193 92.7567 370.263 92.6167 370.263 92.43V90.61H375.443V91.17C374.883 91.17 374.393 91.38 373.973 91.8C373.599 92.1733 373.413 92.64 373.413 93.2V95.79C373.459 96.1167 373.483 96.4433 373.483 96.77L373.553 110.7V114.27C373.553 114.83 373.763 115.32 374.183 115.74C374.603 116.16 375.093 116.37 375.653 116.37V116.93H368.373V116.37C368.933 116.323 369.399 116.113 369.773 115.74C370.146 115.32 370.333 114.83 370.333 114.27V109.93C370.239 109.463 370.099 109.067 369.913 108.74C369.119 107.667 367.813 106.523 365.993 105.31C364.219 104.05 362.726 103.093 361.513 102.44C360.066 101.647 359.086 100.457 358.573 98.87C358.293 97.9833 358.199 97.0733 358.293 96.14C358.573 94.5533 359.273 93.2467 360.393 92.22C360.906 91.8 361.419 91.4733 361.933 91.24C363.893 90.6333 365.409 90.4467 366.483 90.68C367.369 90.8667 368.559 91.59 370.053 92.85ZM365.153 103.98C363.613 105.52 362.423 108.693 361.583 113.5C361.489 114.293 361.699 114.993 362.213 115.6C362.726 116.16 363.356 116.44 364.103 116.44V117H358.083V116.44C358.829 116.44 359.459 116.207 359.973 115.74C360.533 115.227 360.883 114.62 361.023 113.92C361.676 108.927 362.913 105.473 364.733 103.56L365.153 103.98Z" fill="#D9D9D9"/>
</svg>
