<svg width="1046" height="681" viewBox="0 0 1046 681" fill="none" xmlns="http://www.w3.org/2000/svg">
<path d="M293.502 447.453C301.439 431.776 320.344 423.315 333.15 411.818C351.476 395.413 373.026 389.074 394.389 378.32C394.899 378.094 394.778 377.237 394.204 377.254C373.088 376.271 355.283 386.958 340.018 400.746C329.096 410.599 319.009 418.934 305.835 425.772C298.428 429.607 292.592 432.841 288.247 439.935C287.006 441.962 287.566 444.089 289.332 445.567L291.828 447.771C292.279 448.159 293.212 447.997 293.502 447.453Z" fill="#1A1C1D"/>
<path d="M381.18 384.01C385.254 382.646 390.156 382.099 394.408 382.873C396.389 383.216 398.364 384 400.292 384.517C402.899 385.301 404.479 386.976 406.813 388.247C407.844 388.81 409.004 387.895 408.587 386.759C406.755 381.723 400.761 377.71 395.82 376.287C389.779 374.533 383.951 374.801 378.398 377.931C374.596 380.071 377.182 385.334 381.198 383.952L381.18 384.01Z" fill="#1A1C1D"/>
<path d="M291.25 446.333C315.352 459.647 341.898 459.8 368.493 455.168C391.299 451.164 411.951 445.502 417.682 420.572C418.002 419.089 415.731 418.658 415.661 420.153C413.175 467.472 317.6 452.175 292.08 444.625C291.095 444.328 290.294 445.73 291.267 446.275L291.25 446.333Z" fill="#1A1C1D"/>
<path d="M415.113 416.514C410.968 412.867 415.539 411.527 415.571 408.694C415.613 406.243 415.006 404.481 414.359 402.013C414.145 401.254 411.243 393.054 411.574 392.585C413.076 390.321 417.465 393.157 419.139 393.471C429.757 395.339 434.772 383.078 437.032 374.725C437.241 374.03 436.459 373.479 435.879 373.936C428.21 379.904 430.717 390.89 417.075 388.365C413.13 387.621 411.411 385.777 407.51 387.825C406.699 388.213 406.003 389.267 406.28 390.234C407.239 393.555 408.257 396.893 409.216 400.213C410.267 404.066 409.824 407.849 410.349 411.355C410.764 414.385 411.811 416.153 414.736 417.348C415.257 417.505 415.524 416.827 415.171 416.532L415.113 416.514Z" fill="#1A1C1D"/>
<path d="M434.763 338.798C434.538 337.657 434.354 336.59 434.186 335.466C434.204 335.408 434.07 335.432 434.07 335.432C434.295 336.573 434.48 337.639 434.647 338.763C434.63 338.821 434.763 338.798 434.763 338.798Z" fill="#1A1C1D"/>
<path d="M434.849 381.144C437.563 376.528 440.041 371.652 440.282 366.229C440.553 360.5 440.413 355.089 440.052 349.359C440.064 349.11 439.664 349.179 439.67 349.37C439.358 355.024 437.882 360.77 436.204 366.14C434.735 370.814 434.192 375.767 433.204 380.522C433 381.409 434.431 381.902 434.924 381.103L434.849 381.144Z" fill="#1A1C1D"/>
<path d="M438.847 341.606C438.744 339.427 438.16 337.799 436.73 336.042C436.591 335.874 436.348 336.054 436.487 336.222C437.87 337.712 438.477 339.473 438.424 341.542C438.412 341.791 438.835 341.855 438.847 341.606Z" fill="#1A1C1D"/>
<path d="M436.359 335.804C440.882 337.986 447.145 337.533 449.128 343.119C450.776 347.721 449.096 355.616 448.571 360.511C447.561 370.376 446.076 380.352 444.644 390.153C444.557 390.443 445.037 390.524 445.165 390.31C450.215 376.67 454.687 363.488 452.525 348.626C452.18 345.995 451.85 337.432 449.123 335.159C445.944 332.497 439.75 333.982 436.319 335.097C435.902 335.225 436.127 335.734 436.342 335.862L436.359 335.804Z" fill="#1A1C1D"/>
<path d="M444.252 393.762C444.252 393.762 444.287 393.647 444.154 393.67C444.154 393.67 444.12 393.785 444.252 393.762Z" fill="#1A1C1D"/>
<path d="M423.191 413.387C422.548 414.267 421.962 415.165 421.336 415.987C421.208 416.201 421.521 416.421 421.706 416.224C422.35 415.344 422.936 414.447 423.562 413.625C423.69 413.41 423.377 413.19 423.191 413.387Z" fill="#1A1C1D"/>
<path d="M416.772 421.498C423.633 418.635 429.552 413.026 434.342 407.393C439.909 400.856 441.201 392.149 446.473 385.334C447.58 383.962 444.783 382.552 444.336 384.249C442.139 392.81 434.865 397.254 429.328 403.484C424.625 408.828 418.997 413.261 414.352 418.623C413.001 420.174 415.126 422.14 416.789 421.44L416.772 421.498Z" fill="#1A1C1D"/>
<path d="M299.592 444.422C329.857 452.578 367.666 459.594 395.401 441.093C395.494 440.994 395.395 440.902 395.262 440.925C366.396 452.895 329.749 450.209 300.086 442.991C299.159 442.712 298.59 444.183 299.575 444.48L299.592 444.422Z" fill="#1A1C1D"/>
<path d="M408.844 432.315C411.076 430.144 413.91 428.281 415.633 425.704C417.193 423.457 413.371 421.044 412.176 423.338C410.766 426.135 410.098 428.776 407.854 431.196C407.205 431.885 408.079 432.969 408.786 432.298L408.844 432.315Z" fill="#1A1C1D"/>
<path d="M308.188 440.627C327.359 447.026 352.539 452.137 371.508 442.621C371.885 442.419 371.752 441.81 371.37 441.822C361.348 441.333 351.474 443.29 341.388 443.224C330.363 443.129 319.165 442.35 308.472 439.891C307.951 439.735 307.649 440.528 308.228 440.702L308.188 440.627Z" fill="#1A1C1D"/>
<path d="M378.415 441.921C381.323 441.911 383.809 441.838 386.555 440.896C391.122 439.364 393.314 436.486 397.354 433.975C402.97 430.422 411.655 430.318 412.958 422.625C413.069 421.838 412.218 421.518 411.65 421.727C404.296 424.125 401.718 432.066 393.403 434.302C387.84 435.787 383.267 437.759 378.08 440.304C377.344 440.651 377.442 442.007 378.397 441.979L378.415 441.921Z" fill="#1A1C1D"/>
<path d="M340.036 438.27C355.908 440.518 371.409 436.022 385.903 429.834C386.112 429.771 386.043 429.371 385.776 429.417C370.63 432.946 355.882 437.668 340.13 436.909C339.249 436.896 339.132 438.125 340.036 438.27Z" fill="#1A1C1D"/>
<path d="M392.139 388.949C394.752 389.293 397.247 391.496 399.855 390.386C400.139 390.282 400.261 389.876 400.081 389.633C398.444 386.677 394.695 388.012 392.035 388.665C391.844 388.67 391.89 388.937 392.064 388.989L392.139 388.949Z" fill="#1A1C1D"/>
<path d="M342.183 410.556C345.444 411.474 348.416 411.673 351.806 411.113C354.413 410.634 358.035 410.145 359.71 407.933C360.024 407.522 359.665 407.035 359.242 406.971C356.664 406.511 353.934 408.027 351.304 408.373C348.331 408.805 345.261 409.145 342.283 409.386C341.634 409.443 341.587 410.439 342.166 410.614L342.183 410.556Z" fill="#1A1C1D"/>
<path d="M356.995 404.148C358.988 404.242 360.906 404.377 362.899 404.471C363.148 404.483 363.212 404.06 362.963 404.048C360.987 403.896 359.029 403.686 357.112 403.551C356.689 403.487 356.671 404.176 357.053 404.165L356.995 404.148Z" fill="#1A1C1D"/>
<path d="M367.2 400.46C368.359 400.809 369.494 401.024 370.687 401.257C371.475 401.367 371.69 400.232 370.955 399.948C369.854 399.617 368.812 399.303 367.711 398.972C366.784 398.693 366.215 400.164 367.2 400.46Z" fill="#1A1C1D"/>
<path d="M368.291 398.514C369.878 399.118 371.256 399.785 372.959 399.792C373.973 399.781 374.699 398.42 373.685 397.8C372.128 396.889 370.534 396.725 368.744 396.376C367.493 396.126 367.167 398.05 368.291 398.514Z" fill="#1A1C1D"/>
<path d="M415.895 399.001C415.648 396.464 415.528 393.712 414.464 391.37C414.134 390.577 412.888 391.149 413.218 391.943C414.282 394.284 415.474 396.411 415.762 399.025C415.744 399.082 415.878 399.059 415.878 399.059L415.895 399.001Z" fill="#1A1C1D"/>
<path d="M419.412 405.365C419.746 400.475 418.868 397.306 415.847 393.491C415.667 393.248 415.291 393.45 415.319 393.775C415.751 397.379 415.911 401.469 415.769 405.09C415.703 407.407 419.196 407.763 419.412 405.365Z" fill="#1A1C1D"/>
<path d="M423.672 396.667C423.598 394.813 423.286 393.33 422.152 391.852C421.753 391.289 420.756 391.874 421.12 392.552C421.907 393.925 422.462 395.229 422.565 396.776C422.623 397.425 423.712 397.374 423.712 396.742L423.672 396.667Z" fill="#1A1C1D"/>
<path d="M429.367 396.422C429.432 394.736 429.746 393.694 429.011 392.146C428.624 391.335 427.645 391.23 426.99 391.728C425.303 392.925 425.279 394.055 425.341 396.158C425.38 398.76 429.313 399.122 429.408 396.498L429.367 396.422Z" fill="#1A1C1D"/>
<path d="M438.062 382.425C438.358 381.44 438.445 381.151 438.359 380.178C438.307 379.72 437.705 379.412 437.328 379.615C436.482 380.118 436.221 380.356 435.653 381.195C434.533 382.817 437.371 384.302 438.062 382.425Z" fill="#1A1C1D"/>
<path d="M438.459 378.377C438.854 377.485 438.987 376.831 438.977 375.817C438.988 375.568 438.623 375.521 438.554 375.753C438.327 376.506 437.985 377.224 437.701 377.96C437.37 378.429 438.169 378.922 438.419 378.302L438.459 378.377Z" fill="#1A1C1D"/>
<path d="M439.904 374.201C440.67 372.915 441.343 371.728 441.894 370.315C442.544 368.363 442.075 368.032 442.43 365.802C443.053 362.263 445.233 359.634 445.236 355.845C445.244 353.511 443.582 351.684 443.306 349.454C442.937 346.69 444.665 344.936 442.28 342.576C441.55 341.851 440.484 342.036 440.072 342.986C438.685 345.916 440.834 346.752 441.012 349.521C441.12 351.26 439.821 353.269 439.548 355.018C439.181 357.498 439.886 359.984 440.243 362.365C440.67 365.146 439.096 370.799 438.879 373.829C438.838 374.385 439.631 374.687 439.921 374.143L439.904 374.201Z" fill="#1A1C1D"/>
<g clip-path="url(#clip0_1232_1639)">
<path d="M716.126 366.384C717.321 365.815 718.75 366.323 719.324 367.516C719.897 368.713 719.395 370.15 718.198 370.723L718.172 370.735L718.174 370.741C711.236 374.003 704.293 377.264 698.698 380.999L698.694 381.007C696.324 382.588 694.189 384.25 692.195 385.799C689.216 388.113 686.538 390.193 683.822 391.504C682.539 392.124 681.344 392.526 680.155 392.927C677.497 393.826 674.875 394.712 672.036 398.478C669.679 401.602 667.15 406.583 665.781 411.764C664.731 415.729 664.381 419.761 665.36 423.023C666.516 426.852 669.734 429.99 672.702 432.883C675.824 435.926 678.715 438.743 679.583 442.397C680.59 446.645 678.59 451.011 676.652 455.245C675.338 458.115 674.056 460.916 674.118 463.01C674.232 466.855 679.496 470.103 685.579 473.86C686.674 474.537 687.786 475.222 688.533 475.696C692.917 478.471 697.409 481.609 700.99 484.723C704.054 487.382 706.476 490.066 707.68 492.571C709.113 495.545 708.848 497.948 708.596 500.23C708.416 501.844 708.25 503.366 709.174 504.685C710.354 506.373 713.032 508.226 716.676 509.954C720.44 511.739 725.162 513.331 730.316 514.434C734.024 515.23 737.964 515.771 741.907 516.317C749.42 517.351 756.933 518.385 763.298 521.172C767.844 523.159 771.687 525.996 774.89 529.239L774.896 529.246C778.699 533.089 781.596 537.51 783.695 541.749C784.514 543.404 785.249 545.137 785.942 546.771C787.92 551.442 789.527 555.225 793.407 555.976C795.567 556.394 798.679 556.105 802.484 555.752C809.31 555.12 818.233 554.291 829.162 556.677C839.633 558.96 851.768 564.189 862.439 568.791C869.193 571.702 875.354 574.353 880.021 575.783C885.311 577.404 888.323 577.399 889.915 576.412C891.212 575.608 891.621 573.767 891.666 571.562C891.716 569.2 891.337 566.435 890.978 563.782C890.449 559.897 889.944 556.228 890.707 553.504C890.88 552.888 891.108 552.331 891.393 551.831C892.339 550.155 893.806 549.114 895.566 548.651C897.12 548.241 898.896 548.313 900.698 548.816C901.785 549.119 902.889 549.581 903.959 550.188C907.14 551.985 909.999 554.997 912.898 558.057C914.152 559.381 915.412 560.712 916.617 561.861C918.579 563.732 920.62 565.363 922.798 566.858C924.982 568.362 927.309 569.727 929.821 571.063C932.307 572.381 934.969 573.666 937.461 574.455C939.686 575.158 941.732 575.454 943.276 574.972C944.705 574.528 945.886 573.285 946.923 571.47C948.146 569.319 949.125 566.457 950.001 563.152C950.982 559.467 951.824 555.272 952.251 551.189C952.604 547.812 952.667 544.523 952.28 541.701C951.875 538.763 950.966 536.314 949.556 534.122C948.115 531.881 946.12 529.872 943.593 527.875C940.578 525.487 936.776 523.099 933.335 520.94C930.724 519.299 928.314 517.787 926.451 516.391C922.699 513.578 921.689 511.623 920.571 509.451C920.362 509.045 920.145 508.626 919.892 508.18C918.545 505.802 916.163 502.742 913.783 499.687C913.704 499.587 913.637 499.482 913.575 499.374C912.995 498.359 913.229 497.045 914.177 496.296C915.125 495.548 916.466 495.633 917.315 496.439C917.406 496.525 917.493 496.62 917.576 496.723C920.074 499.931 922.572 503.138 924.08 505.796C924.355 506.287 924.603 506.765 924.845 507.236C925.704 508.9 926.475 510.4 929.329 512.541C930.926 513.738 933.305 515.231 935.891 516.855C939.432 519.081 943.351 521.539 946.584 524.098C949.507 526.413 951.85 528.791 953.602 531.511C955.387 534.285 956.537 537.37 957.044 541.054C957.49 544.289 957.426 547.963 957.032 551.696C956.579 556.04 955.682 560.487 954.648 564.387C953.669 568.078 952.551 571.318 951.116 573.843C949.488 576.706 947.432 578.718 944.716 579.565C942.113 580.377 939.104 580.013 936.012 579.038C933.189 578.146 930.273 576.746 927.573 575.312C924.903 573.898 922.426 572.437 920.08 570.823C917.721 569.203 915.491 567.415 913.313 565.339C911.941 564.028 910.677 562.695 909.423 561.372C906.781 558.584 904.173 555.837 901.607 554.388C900.855 553.965 900.108 553.647 899.393 553.446C898.409 553.173 897.51 553.115 896.79 553.307C896.278 553.442 895.854 553.73 895.6 554.186C895.499 554.368 895.411 554.575 895.346 554.808C894.851 556.57 895.285 559.757 895.75 563.128C896.135 565.964 896.542 568.918 896.48 571.656C896.402 575.372 895.475 578.619 892.449 580.496C889.718 582.19 885.409 582.462 878.605 580.38C873.762 578.897 867.452 576.181 860.532 573.196C850.079 568.692 838.191 563.57 828.137 561.376C817.941 559.151 809.442 559.94 802.934 560.541C798.734 560.933 795.307 561.249 792.489 560.706C786.113 559.476 784.057 554.627 781.518 548.643C780.887 547.155 780.22 545.581 779.377 543.881C777.483 540.055 774.877 536.074 771.468 532.627C768.659 529.78 765.305 527.301 761.367 525.576C755.641 523.071 748.439 522.081 741.238 521.087C737.199 520.529 733.153 519.973 729.303 519.148C723.818 517.972 718.731 516.252 714.624 514.306C710.225 512.222 706.878 509.814 705.225 507.454C703.257 504.642 703.524 502.245 703.805 499.704C703.985 498.081 704.171 496.372 703.346 494.656C702.453 492.805 700.445 490.629 697.838 488.365C694.485 485.452 690.19 482.456 685.966 479.786C684.74 479.012 683.891 478.485 683.064 477.973C675.793 473.486 669.502 469.603 669.311 463.149C669.218 459.963 670.736 456.638 672.295 453.24C673.889 449.756 675.536 446.169 674.902 443.509C674.365 441.235 671.954 438.888 669.347 436.346C665.951 433.037 662.266 429.45 660.751 424.417C659.489 420.226 659.879 415.291 661.134 410.539C662.667 404.742 665.527 399.132 668.191 395.591C671.921 390.64 675.251 389.517 678.616 388.38C679.666 388.026 680.724 387.666 681.739 387.179C683.974 386.1 686.463 384.165 689.23 382.02C691.331 380.39 693.58 378.64 696.02 377.014L696.022 377.019C701.981 373.041 709.055 369.72 716.124 366.398L716.127 366.403L716.126 366.384Z" fill="#1A1C1D"/>
<path d="M697.87 375.739C698.751 375.837 699.387 376.63 699.293 377.512C699.195 378.393 698.402 379.03 697.519 378.935C692.077 378.341 686.633 377.741 681.881 377.979C677.305 378.208 673.299 379.193 670.435 381.698C666.806 384.871 664.708 390.738 662.208 397.738C660.616 402.19 658.863 407.087 656.425 412.135C653.892 417.372 650.683 422.657 647.489 427.91C642.652 435.872 637.853 443.764 635.769 450.926C634.082 456.728 634.147 462.146 635.231 467.244C636.329 472.417 638.472 477.307 640.901 481.965C643.335 486.642 646.058 491.078 649.667 495.541C653.265 499.995 657.764 504.483 663.76 509.262C668.475 513.022 674.098 516.957 679.841 520.968C688.961 527.347 698.38 533.93 705.043 540.419C711.078 546.295 714.806 552.035 718.191 557.242C720.871 561.365 723.327 565.149 726.53 568.308C730.093 571.823 734.671 574.674 739.495 577.096C744.352 579.532 749.53 581.554 754.189 583.375L754.285 583.41C763.636 587.063 770.903 589.904 780.535 594.772C782.134 595.58 783.745 596.417 785.419 597.285C794.017 601.749 804.382 607.133 817.382 611.024C829.32 614.593 843.55 616.921 856.893 619.103C860.735 619.729 864.502 620.348 868.747 621.091C872.162 621.691 875.001 622.219 877.728 622.725C889.861 624.98 899.819 626.83 906.712 625.66C914.45 624.345 918.65 618.986 922.775 613.724L923.552 612.729C925.395 610.392 927.2 608.198 929.088 605.901C932.042 602.307 935.199 598.466 938.755 593.8C941.952 589.597 945.485 584.71 948.454 580.215C950.896 576.515 952.947 573.105 954.094 570.611C956.134 566.171 955.016 565.087 953.801 564.104C953.141 563.672 952.885 562.809 953.231 562.074C953.609 561.272 954.567 560.928 955.369 561.306L955.365 561.314C955.477 561.367 955.583 561.431 955.682 561.512C957.92 563.304 960.152 565.098 957.001 571.957C955.77 574.641 953.638 578.189 951.136 581.987C948.127 586.546 944.549 591.496 941.315 595.748C937.712 600.481 934.544 604.336 931.579 607.944C929.658 610.279 927.824 612.513 926.081 614.721L925.308 615.709C920.799 621.464 916.206 627.315 907.253 628.838C899.809 630.1 889.595 628.203 877.148 625.891C874.134 625.329 870.984 624.747 868.192 624.255C864.822 623.661 860.642 622.978 856.374 622.284C842.926 620.086 828.587 617.741 816.458 614.111C803.217 610.152 792.685 604.678 783.953 600.146C782.248 599.26 780.614 598.411 779.093 597.645C769.65 592.87 762.42 590.047 753.118 586.413L753.04 586.381C748.344 584.547 743.115 582.506 738.061 579.972C732.963 577.417 728.11 574.382 724.285 570.607C720.835 567.204 718.286 563.279 715.505 558.996C712.223 553.945 708.611 548.382 702.802 542.73C696.309 536.409 687.009 529.906 677.997 523.607C672.193 519.548 666.51 515.575 661.753 511.78C655.577 506.853 650.921 502.203 647.17 497.565C643.426 492.936 640.596 488.322 638.063 483.453C635.519 478.574 633.267 473.428 632.096 467.913C630.91 462.327 630.839 456.394 632.691 450.035C634.895 442.452 639.798 434.394 644.741 426.258C647.91 421.047 651.094 415.804 653.537 410.749C655.898 405.865 657.621 401.041 659.193 396.653C661.847 389.233 664.071 383.006 668.321 379.29C671.81 376.236 676.474 375.044 681.723 374.786C686.798 374.534 692.337 375.14 697.875 375.751L697.87 375.739Z" fill="#1A1C1D"/>
<path d="M745.986 388.031C747.01 388.011 747.854 388.829 747.873 389.853C747.893 390.877 747.075 391.722 746.051 391.741C741.249 391.829 736.444 391.921 732.073 393.1C727.853 394.238 723.936 396.432 720.624 400.736C717.331 405.019 714.598 411.363 712.69 418.037C710.594 425.369 709.511 433.046 709.776 438.817C710.226 448.613 714.779 452.82 719.381 457.068L719.385 457.07C719.563 457.232 719.587 457.253 720.569 458.17C723.361 460.785 726.05 463.565 728.552 466.506C730.872 469.23 733.053 472.118 735.037 475.162C735.815 476.358 736.578 477.606 737.347 478.871C740.387 483.857 743.605 489.127 749.999 494.22C753.385 496.92 757.669 499.589 762.021 501.997C768.095 505.359 774.278 508.201 778.377 509.914C781.654 511.283 783.422 511.878 784.265 511.787C784.297 511.783 784.378 511.382 784.51 510.648C784.692 509.641 784.845 508.333 785.031 506.717C785.435 503.233 785.993 498.377 787.352 492.069C788.391 487.25 789.896 481.552 791.5 476.34C793.019 471.401 794.629 466.89 796.011 463.959L796.019 463.963C797.284 461.28 798.466 459.735 799.433 459.049C800.123 458.559 800.813 458.367 801.48 458.433C802.309 458.516 802.955 458.948 803.407 459.664C803.848 460.364 804.053 461.388 803.983 462.57C803.862 464.577 803 467.211 801.788 470.909C801.004 473.307 800.067 476.164 799.162 479.314C797.912 483.673 796.592 488.955 795.499 494.139C794.529 498.742 793.739 503.21 793.353 506.791C792.952 510.476 792.964 513.234 793.539 515.584C794.099 517.864 795.222 519.847 797.059 522.046C799.062 524.44 801.872 527.057 805.132 529.527C808.22 531.866 811.683 534.06 815.219 535.8C818.867 537.593 822.622 538.92 826.375 539.899C830.15 540.884 833.901 541.506 837.528 541.893C841.043 542.272 844.467 542.427 847.767 542.402C851.249 542.375 854.587 542.134 857.742 541.723C860.704 541.338 863.489 540.802 865.879 539.684C868.158 538.617 870.142 536.975 871.68 534.334C873.361 531.442 874.575 527.325 875.767 523.266C876.987 519.127 878.184 515.046 879.891 512.078C882.159 508.136 885.122 506.322 887.851 504.652C889.286 503.772 890.649 502.94 891.666 501.859C892.994 500.45 893.917 498.44 894.638 496.062C895.407 493.531 895.955 490.569 896.515 487.446C897.091 484.248 897.676 480.898 898.007 478.156C898.328 475.501 898.445 473.317 898.134 472.238C898.111 472.163 898 472.17 897.849 472.211C897.004 472.452 895.808 473.157 894.618 473.859C894.517 473.919 894.412 473.967 894.306 474.005C893.341 474.355 892.275 473.852 891.929 472.889C891.609 471.996 892.017 471.017 892.842 470.601C894.194 469.804 895.549 469.018 896.836 468.649C899.113 468 900.912 468.448 901.702 471.221C902.161 472.834 902.06 475.499 901.683 478.606C901.318 481.625 900.734 484.955 900.168 488.11C899.587 491.339 899.022 494.411 898.192 497.143C897.315 500.028 896.144 502.521 894.369 504.402C893.032 505.821 891.448 506.792 889.781 507.812C887.449 509.24 884.919 510.789 883.115 513.921C881.6 516.554 880.467 520.406 879.317 524.315C878.053 528.609 876.772 532.972 874.893 536.2C872.934 539.57 870.392 541.671 867.456 543.044C864.638 544.365 861.512 544.974 858.223 545.4C854.932 545.83 851.448 546.08 847.801 546.107C844.393 546.135 840.828 545.967 837.125 545.573C833.308 545.164 829.377 544.511 825.435 543.487C821.471 542.457 817.487 541.047 813.586 539.129C809.813 537.272 806.141 534.951 802.899 532.495C799.413 529.851 796.386 527.033 794.214 524.437C792.004 521.8 790.641 519.361 789.936 516.481C789.245 513.672 789.219 510.522 789.667 506.395C790.077 502.616 790.88 498.027 791.863 493.367C792.965 488.152 794.309 482.779 795.596 478.301L795.599 478.293C796.601 474.812 797.499 472.059 798.258 469.747C798.953 467.631 799.521 465.888 799.883 464.511C799.72 464.825 799.548 465.169 799.371 465.544L799.379 465.548C798.062 468.342 796.517 472.674 795.053 477.435C793.484 482.531 792.009 488.111 790.99 492.848C789.656 499.05 789.111 503.766 788.721 507.149C788.523 508.852 788.365 510.231 788.167 511.324C787.713 513.808 787.037 515.222 784.672 515.478C783.114 515.646 780.84 514.955 776.952 513.331C772.744 511.577 766.422 508.669 760.24 505.247C755.714 502.741 751.25 499.958 747.703 497.134C740.808 491.644 737.41 486.074 734.196 480.806C733.453 479.587 732.721 478.388 731.941 477.186C730.071 474.313 727.982 471.552 725.737 468.917C723.307 466.063 720.716 463.383 718.047 460.88L716.876 459.796C711.711 455.023 706.601 450.3 706.08 438.978C705.797 432.832 706.936 424.717 709.135 417.01C711.162 409.918 714.103 403.132 717.684 398.476C721.567 393.426 726.167 390.852 731.124 389.515C735.927 388.217 740.964 388.128 745.996 388.031L745.986 388.031Z" fill="#1A1C1D"/>
<path d="M907.42 472.883C906.971 471.964 907.354 470.851 908.277 470.403C909.197 469.954 910.309 470.337 910.757 471.26C912.49 474.815 914.222 478.374 915.543 481.759C916.907 485.252 917.824 488.563 917.846 491.506C917.871 494.402 917.058 496.737 916.23 499.113C915.448 501.351 914.656 503.632 914.755 506.318C914.849 508.861 915.716 511.998 916.607 515.209C917.666 519.027 918.754 522.946 918.763 526.528C918.774 530.065 917.729 533.169 915.941 535.556C914.067 538.06 911.392 539.761 908.257 540.356C905.347 540.912 902.056 540.492 898.866 539.354C895.616 538.197 892.438 536.289 889.85 533.912C887.338 531.605 885.386 528.865 883.717 525.907C882.077 523.001 880.746 519.968 879.421 516.932C879.015 515.994 879.442 514.902 880.38 514.495C881.318 514.089 882.41 514.515 882.816 515.454C884.116 518.428 885.422 521.401 886.937 524.087C888.422 526.719 890.15 529.149 892.36 531.177C894.594 533.226 897.326 534.87 900.112 535.862C902.706 536.787 905.321 537.137 907.572 536.71C909.779 536.292 911.66 535.095 912.976 533.339C914.294 531.579 915.065 529.239 915.058 526.532C915.049 523.449 914.031 519.782 913.041 516.212C912.088 512.781 911.16 509.43 911.051 506.456C910.926 503.078 911.839 500.459 912.735 497.885C913.454 495.823 914.163 493.791 914.145 491.543L914.149 491.535C914.131 489.121 913.309 486.23 912.09 483.103C910.826 479.867 909.125 476.376 907.428 472.887L907.42 472.883Z" fill="#1A1C1D"/>
<path d="M758.645 412.119C759.644 411.902 760.63 412.543 760.847 413.543C761.063 414.543 760.422 415.529 759.423 415.745C754.561 416.786 749.699 417.827 745.699 419.171C741.932 420.435 738.945 421.94 737.524 423.929C735.701 426.481 736.273 430.42 736.774 433.848C737.062 435.814 737.329 437.638 737.18 439.236C737.136 439.713 737.059 440.155 736.956 440.57C738.979 439.787 741.177 438.705 742.647 437.325C743.617 436.416 744.363 435.269 745.097 434.137C746.939 431.296 748.721 428.55 753.791 427.7C757.206 427.13 762.171 427.557 766.476 428.514C771.004 429.516 774.979 431.215 776.124 433.102C778.11 436.38 774.653 438.611 770.304 441.42C768.059 442.87 765.507 444.517 763.59 446.409C760.703 449.264 759.022 452.922 757.546 456.144C756.499 458.427 755.546 460.511 754.275 462.151C752.736 464.143 750.916 465.281 749.448 466.067L750.015 466.179C751.475 466.433 753.255 466.374 754.851 465.585C755.062 465.479 755.28 465.358 755.492 465.219C757.616 463.839 759.532 460.789 761.381 457.85C762.823 455.558 764.229 453.322 765.824 451.708C766.208 451.318 766.624 450.953 767.06 450.617L767.058 450.611C768.891 449.196 770.831 448.579 772.622 448.598C774.506 448.618 776.204 449.341 777.452 450.573L777.527 450.653C777.725 450.853 777.899 451.053 778.052 451.246L778.156 451.398C780.318 454.345 780.139 458.916 779.849 466.245L779.828 466.797C779.688 470.405 779.53 474.723 779.51 478.593C779.501 480.145 779.518 481.578 779.559 482.793C779.983 481.729 780.464 480.502 780.908 479.364C782.807 474.716 786.604 441.21 787.56 441.583C787.963 460.687 786.752 474.605 784.325 480.819C782.923 484.413 781.259 488.635 779.452 489.228L779.444 489.224C778.047 489.683 776.996 489.182 776.41 487.403C775.918 485.912 775.775 482.531 775.791 478.576C775.811 474.872 775.971 470.404 776.118 466.658L776.139 466.106C776.394 459.595 776.553 455.532 775.187 453.619L775.112 453.53C775.033 453.429 774.957 453.34 774.893 453.27L774.842 453.222C774.267 452.653 773.471 452.322 772.575 452.309C771.586 452.297 770.463 452.68 769.331 453.551L769.328 453.545C769.053 453.757 768.767 454.013 768.466 454.32C767.168 455.635 765.869 457.697 764.536 459.82C762.481 463.092 760.344 466.486 757.516 468.325C757.191 468.538 756.852 468.729 756.503 468.901C754.094 470.098 751.483 470.194 749.372 469.828C747.321 469.471 745.601 468.567 744.843 467.732C744.758 467.643 744.685 467.55 744.617 467.445C744.566 467.367 744.515 467.28 744.471 467.186C743.401 465.017 744.765 464.318 746.907 463.22C748.173 462.573 750.007 461.632 751.355 459.891C752.367 458.582 753.24 456.68 754.194 454.593C755.809 451.075 757.64 447.078 760.993 443.764C763.176 441.607 765.903 439.848 768.3 438.304C770.963 436.588 773.077 435.218 772.96 435.031C772.363 434.042 769.324 432.945 765.681 432.135C761.776 431.27 757.355 430.869 754.406 431.362C750.957 431.942 749.609 434.014 748.223 436.157C747.369 437.472 746.505 438.807 745.191 440.032C743.245 441.852 740.516 443.191 738.089 444.116C735.727 445.017 733.645 445.533 732.93 445.704C731.464 446.052 730.793 446.068 730.401 444.365L730.406 444.363C730.122 443.135 730.564 442.788 731.363 442.271C731.797 441.993 733.306 441.016 733.501 438.897C733.607 437.752 733.37 436.132 733.113 434.381C732.513 430.272 731.822 425.55 734.515 421.784C736.47 419.055 740.082 417.147 744.521 415.658C748.729 414.246 753.693 413.185 758.653 412.123L758.645 412.119ZM747.856 465.542C747.658 465.228 747.547 465.049 747.738 465.442L747.744 465.45C747.77 465.477 747.808 465.509 747.858 465.538L747.856 465.542Z" fill="#1A1C1D"/>
<path d="M833.887 476.631C833.315 475.786 833.543 474.629 834.399 474.057C835.256 473.48 836.416 473.7 836.992 474.547C838.651 476.989 840.308 479.434 841.658 481.837C843.059 484.338 844.098 486.76 844.406 489.013C844.732 491.426 844.237 493.584 843.23 495.544L843.232 495.55C842.283 497.396 840.879 499.028 839.297 500.522C838.814 500.977 838.253 501.474 837.711 501.95L837.713 501.956C837.146 502.455 836.614 502.921 836.218 503.296C838.268 503.604 841.986 503.541 845.679 503.033C848.816 502.599 851.849 501.858 853.649 500.76C856.131 499.251 856.165 496.563 856.205 493.747C856.223 492.394 856.245 491.013 856.46 489.646C856.81 487.444 857.658 485.346 858.692 483.496C860.034 481.093 861.717 479.086 863.042 477.817C864.18 476.729 865.141 476.108 865.939 475.792C867.496 475.179 868.632 475.553 869.419 476.242C870.139 476.869 870.345 477.518 870.641 478.443C870.766 478.839 870.921 479.327 871.19 479.926C871.519 480.667 872.017 481.556 872.528 482.344C872.868 482.875 873.199 483.343 873.471 483.666C873.918 483.482 874.501 483.24 875.317 483C877.832 482.258 891.891 482.602 892.298 485.224C876.171 484.944 878.622 485.881 876.371 486.547C875.701 486.748 875.229 486.94 874.87 487.093C873.227 487.773 872.625 488.025 871.183 486.667C870.656 486.17 869.996 485.303 869.381 484.353C868.77 483.402 868.172 482.334 867.774 481.449C867.45 480.72 867.25 480.099 867.086 479.587L867.026 479.364C866.675 479.559 866.217 479.909 865.624 480.474C864.509 481.544 863.092 483.238 861.95 485.276C861.108 486.782 860.424 488.47 860.146 490.208C859.962 491.365 859.946 492.578 859.93 493.771C859.877 497.64 859.823 501.333 855.569 503.919C853.27 505.319 849.732 506.222 846.168 506.714C841.818 507.312 837.289 507.314 834.983 506.847L834.84 506.818C832.338 506.268 831.547 505.09 831.845 503.454L831.871 503.296C832.182 501.881 833.612 500.618 835.236 499.192L835.238 499.198C835.706 498.785 836.198 498.353 836.727 497.851C838.029 496.62 839.171 495.304 839.903 493.878L839.907 493.88C840.577 492.571 840.912 491.138 840.693 489.542C840.456 487.79 839.581 485.786 838.381 483.654C837.132 481.431 835.504 479.028 833.877 476.631L833.887 476.631ZM873.643 483.87L873.752 483.98C873.942 484.157 873.79 484.012 873.643 483.87Z" fill="#1A1C1D"/>
<path d="M655.269 245.309C654.573 244.561 654.615 243.385 655.363 242.689C656.111 241.992 657.287 242.034 657.983 242.782C676.378 262.308 694.769 281.833 709.937 302.575C717.536 312.965 724.293 323.612 730.377 334.04C736.463 344.463 741.887 354.687 746.807 364.21C748.468 367.423 750.229 370.859 751.926 374.182C759.392 388.775 765.687 401.083 771.508 409.069C774.987 413.847 778.315 417.094 781.566 419.574C784.837 422.072 788.069 423.826 791.299 425.573C792.2 426.062 792.534 427.185 792.045 428.087C791.557 428.989 790.433 429.323 789.532 428.834C786.162 427.011 782.794 425.184 779.318 422.53C775.818 419.855 772.242 416.368 768.512 411.252C762.508 403.015 756.155 390.591 748.62 375.864C747.029 372.751 745.382 369.53 743.508 365.909C738.611 356.441 733.222 346.278 727.171 335.915C721.124 325.553 714.427 314.998 706.937 304.757C691.935 284.244 673.606 264.783 655.281 245.324L655.259 245.299L655.269 245.309Z" fill="#1A1C1D"/>
<path d="M712.886 307.391C711.873 307.221 711.194 306.261 711.366 305.254C711.536 304.241 712.496 303.562 713.503 303.734C727.701 306.11 741.903 308.487 754.654 310.981C767.501 313.491 778.961 316.128 787.652 319.02C796.498 321.966 802.523 325.193 807.24 329.271C811.967 333.359 815.302 338.225 818.791 344.472C822.589 351.274 826.599 359.758 829.662 368.771C832.152 376.093 834.018 383.776 834.65 391.218C835.323 399.104 834.599 406.648 833.919 413.721C833.196 421.285 832.522 428.302 833.748 434.394C834.895 440.112 837.749 445.182 841.322 449.545C844.959 453.988 849.338 457.697 853.448 460.64C857.542 463.566 861.363 465.724 865.24 467.186C869.071 468.631 872.96 469.396 877.223 469.552C882.407 469.742 888.205 469.045 892.713 468.506C895.925 468.117 898.514 467.811 900.005 467.928C900.992 468.008 901.721 468.313 902.174 468.77L902.277 468.882C903.081 469.774 903.064 470.751 902.24 471.744L902.236 471.752C901.925 472.132 901.417 472.507 900.738 472.841L900.74 472.847C898.874 473.763 894.819 474.779 888.87 474.98C883.357 475.167 876.113 474.669 868.291 473.441C861.348 472.348 853.921 470.676 846.819 468.377C839.707 466.078 832.935 463.163 826.808 459.976C819.931 456.402 813.844 452.478 808.987 448.699C799.721 441.5 794.933 434.905 790.147 428.305C789.548 427.476 789.728 426.316 790.559 425.713C791.389 425.113 792.547 425.294 793.151 426.125C797.79 432.518 802.432 438.918 811.253 445.766C815.947 449.414 821.836 453.211 828.505 456.677C834.472 459.779 841.061 462.617 847.964 464.852C850.987 465.828 854.078 466.691 857.163 467.442C855.245 466.348 853.307 465.087 851.308 463.657C846.959 460.548 842.325 456.615 838.466 451.907C834.543 447.12 831.4 441.514 830.12 435.123C828.79 428.509 829.488 421.225 830.243 413.363C830.902 406.472 831.608 399.119 830.96 391.532C830.355 384.415 828.557 377.024 826.156 369.958C823.173 361.178 819.269 352.915 815.566 346.284C812.268 340.386 809.159 335.817 804.829 332.077C800.489 328.328 794.85 325.327 786.481 322.538C777.956 319.699 766.644 317.098 753.94 314.617C741.147 312.118 727.018 309.75 712.892 307.389L712.886 307.391Z" fill="#1A1C1D"/>
<path d="M833.651 438.384C833.02 438.213 832.636 437.569 832.797 436.927C832.959 436.282 833.614 435.887 834.259 436.05L834.332 436.07C848.44 440.253 862.549 444.431 883.177 445.305C893.768 445.751 906.097 445.333 918.719 444.067C930.747 442.862 943.035 440.897 954.325 438.183C965.729 435.445 976.121 431.947 985.383 427.823C994.861 423.601 1003.15 418.728 1010.15 413.341C1023.98 402.699 1032.83 389.965 1041.69 377.232L1041.77 377.128C1042.17 376.658 1042.88 376.567 1043.39 376.934C1043.89 377.3 1044.03 377.989 1043.72 378.516L1043.67 378.598C1034.71 391.479 1025.75 404.358 1011.62 415.238C1004.47 420.747 996.004 425.721 986.353 430.017C976.96 434.201 966.431 437.743 954.882 440.52C943.484 443.256 931.088 445.243 918.948 446.458C906.225 447.731 893.775 448.155 883.066 447.703C862.112 446.816 847.874 442.601 833.643 438.38L833.651 438.384Z" fill="#1A1C1D"/>
<path d="M832.747 388.984C832.103 389.139 831.452 388.739 831.303 388.093C831.148 387.449 831.548 386.798 832.194 386.649C842.193 384.263 852.195 381.879 862.342 379.998C872.545 378.109 882.924 376.717 893.65 376.328C903.099 375.987 912.817 376.421 922.104 377.282C933.896 378.376 944.978 380.161 953.915 381.92C960.141 383.148 965.331 384.361 969.899 385.431C976.99 387.091 982.579 388.399 988.197 388.847C992.795 389.215 997.465 389.006 1001.97 388.504C1006.5 388.002 1010.86 387.206 1014.8 386.395C1018.73 385.585 1022.27 384.762 1025.42 383.777C1028.53 382.811 1031.25 381.691 1033.6 380.283C1034.96 379.469 1036.22 378.548 1037.35 377.726C1038.75 376.698 1039.96 375.815 1041.02 375.368C1042.79 374.626 1044.12 374.864 1044.96 376.864C1045.69 378.614 1045.82 382.272 1045.37 386.946C1044.95 391.334 1044.04 396.674 1042.67 402.189C1041.27 407.815 1039.39 413.643 1037.16 419.677C1034.95 425.643 1032.37 431.879 1029.55 438.343C1026.75 444.779 1023.71 451.424 1020.14 457.528C1016.54 463.687 1012.4 469.287 1007.41 473.557C1002.66 477.616 997.186 480.459 991.295 482.327C984.752 484.4 977.705 485.274 970.603 485.273C963.901 485.27 957.16 484.493 950.559 483.313C943.999 482.142 937.563 480.572 931.447 478.976C925.376 477.397 919.599 475.786 913.963 474.163C908.032 472.455 902.743 470.873 897.462 469.296C896.826 469.103 896.463 468.435 896.654 467.792C896.846 467.156 897.515 466.793 898.157 466.984C903.758 468.658 909.361 470.329 914.635 471.85C920.209 473.458 925.958 475.056 932.053 476.646C938.099 478.224 944.474 479.78 950.989 480.944C957.464 482.099 964.069 482.866 970.601 482.866C977.468 482.869 984.269 482.03 990.562 480.034C996.16 478.258 1001.36 475.567 1005.84 471.738C1010.6 467.657 1014.58 462.267 1018.06 456.327C1021.56 450.329 1024.57 443.755 1027.35 437.385C1030.11 431.039 1032.67 424.869 1034.89 418.847C1037.09 412.893 1038.95 407.144 1040.32 401.609C1041.67 396.172 1042.57 390.957 1042.97 386.717C1043.38 382.435 1043.31 379.197 1042.73 377.799C1042.59 377.458 1042.31 377.437 1041.94 377.594C1041.12 377.938 1040.02 378.738 1038.75 379.668C1037.58 380.526 1036.27 381.482 1034.83 382.349C1032.29 383.867 1029.4 385.057 1026.13 386.077C1022.92 387.079 1019.3 387.921 1015.27 388.749C1011.25 389.575 1006.81 390.386 1002.21 390.898C997.579 391.412 992.758 391.622 987.99 391.243C982.178 390.781 976.514 389.458 969.331 387.774C964.785 386.709 959.623 385.5 953.43 384.283C944.543 382.532 933.542 380.762 921.865 379.672C912.676 378.819 903.063 378.39 893.718 378.727C883.111 379.113 872.849 380.486 862.761 382.357C852.62 384.237 842.673 386.607 832.729 388.98L832.747 388.984Z" fill="#1A1C1D"/>
<path d="M709.257 306.324C709.507 305.329 710.517 304.727 711.512 304.977C712.507 305.226 713.108 306.237 712.859 307.232C711.148 314.057 709.439 320.888 707.714 327.848C706.109 334.324 704.732 339.935 703.816 343.812C702.931 347.562 702.427 349.872 702.964 351.765C703.51 353.701 705.207 355.658 708.76 358.821C712.466 362.125 718.076 366.625 724.071 371.189C730.311 375.937 736.971 380.756 742.333 384.367C747.567 387.894 751.516 390.239 754.821 391.992C758.156 393.765 760.868 394.956 763.578 396.151C764.514 396.567 764.935 397.659 764.519 398.595C764.102 399.53 763.01 399.953 762.075 399.536C759.287 398.309 756.499 397.083 753.082 395.267C749.633 393.435 745.565 391.024 740.263 387.451C734.868 383.819 728.144 378.95 721.821 374.139C715.772 369.535 710.087 364.976 706.293 361.591C702.179 357.919 700.166 355.506 699.392 352.76C698.608 349.975 699.182 347.288 700.206 342.954C701.197 338.752 702.562 333.188 704.11 326.945C705.537 321.186 707.398 313.753 709.261 306.316L709.257 306.324Z" fill="#1A1C1D"/>
<path d="M1035.84 417.02C1036.29 416.514 1037.06 416.467 1037.56 416.911C1038.07 417.359 1038.12 418.128 1037.67 418.636C1030.98 426.211 1024.29 433.787 1017.59 440.316C1010.85 446.895 1004.09 452.415 997.326 455.818C985.822 461.603 974.498 461.212 964.103 460.849C962.198 460.78 960.326 460.717 958.58 460.694C952.765 460.612 947.334 460.926 942.208 461.461C937.092 461.996 932.202 462.765 927.5 463.593C922.755 464.425 918.285 465.299 913.951 466.193C909.746 467.06 905.366 468.011 900.99 468.963C900.328 469.105 899.677 468.686 899.535 468.024C899.394 467.362 899.813 466.71 900.475 466.569C904.676 465.656 908.88 464.739 913.456 463.798C917.907 462.881 922.423 461.995 927.077 461.178C931.768 460.355 936.689 459.581 941.949 459.031C947.199 458.481 952.731 458.161 958.619 458.243C960.499 458.271 962.328 458.333 964.181 458.397C974.29 458.747 985.292 459.128 996.22 453.633C1002.73 450.358 1009.29 444.986 1015.88 438.565C1022.51 432.095 1029.18 424.555 1035.83 417.016L1035.84 417.02Z" fill="#1A1C1D"/>
<path d="M856.802 445.166C855.824 444.53 855.466 443.614 855.999 443.124C856.533 442.634 857.764 442.755 858.741 443.392C864.958 447.455 871.176 451.524 877.862 455.379C884.447 459.177 891.458 462.756 899.319 465.877C907.228 469.02 916.032 471.722 925.288 474.213C934.542 476.697 944.363 478.991 954.191 481.282C955.307 481.545 956.285 482.377 956.379 483.139C956.474 483.9 955.648 484.307 954.533 484.044C944.723 481.756 934.913 479.468 925.419 476.914C915.923 474.365 906.864 471.582 898.672 468.324C890.435 465.05 883.115 461.321 876.255 457.359C869.494 453.459 863.147 449.31 856.804 445.162L856.802 445.166Z" fill="#1A1C1D"/>
<path d="M739.399 535.83C739.195 535.622 739.199 535.292 739.408 535.088C739.615 534.887 739.946 534.888 740.15 535.096L740.16 535.106C744.843 540.032 749.526 544.958 751.357 550.882C752.366 554.144 752.494 557.659 752.601 560.515C752.684 562.76 752.752 564.593 753.203 565.425C753.669 566.279 754.806 565.947 755.98 565.31C756.879 564.821 757.791 564.158 758.513 563.63L758.729 563.473C760.616 562.099 760.998 561.961 761.374 561.826L761.375 561.822C761.769 561.681 762.163 561.54 763.033 561.618C763.411 561.655 763.872 561.731 764.339 561.829C764.844 561.935 765.384 562.073 765.84 562.205C766.255 562.327 766.589 562.446 766.88 562.563C767.183 562.687 767.399 562.788 767.594 562.881C768.069 563.104 768.472 563.295 769.269 564.461C769.64 565.007 770.086 565.749 770.533 566.487C770.989 567.238 771.442 567.994 771.767 568.474C772.094 568.95 772.331 569.223 772.52 569.39C772.683 569.531 772.825 569.602 772.965 569.668C773.228 569.792 773.338 570.108 773.216 570.367C773.092 570.631 772.776 570.741 772.517 570.618C772.309 570.521 772.102 570.423 771.83 570.182C771.58 569.967 771.288 569.634 770.902 569.066C770.518 568.505 770.075 567.769 769.632 567.033C769.186 566.291 768.741 565.549 768.4 565.051C767.771 564.13 767.479 563.993 767.14 563.833C766.933 563.735 766.709 563.63 766.48 563.536C766.231 563.433 765.93 563.326 765.537 563.209C765.135 563.088 764.629 562.961 764.119 562.852C763.679 562.762 763.255 562.689 762.932 562.659C762.305 562.602 762.018 562.706 761.73 562.809C761.424 562.919 761.113 563.031 759.344 564.32L759.129 564.477C758.377 565.025 757.432 565.716 756.481 566.234C754.814 567.141 753.14 567.514 752.279 565.927C751.706 564.876 751.636 562.935 751.55 560.552C751.45 557.752 751.32 554.314 750.354 551.189C748.597 545.501 743.999 540.663 739.399 535.83Z" fill="#1A1C1D"/>
<path d="M849.362 599.639C849.616 599.783 849.698 600.105 849.554 600.359C849.41 600.613 849.088 600.696 848.834 600.551C846.721 599.331 844.605 598.108 843.71 596.881C842.624 595.398 843.037 594.026 846.43 592.893C849.505 591.865 855.347 590.969 861.325 590.552C866.681 590.179 872.169 590.19 875.887 590.84C883.995 592.258 883.968 596.641 883.947 599.086L883.945 599.202C883.933 601.319 884.02 601.663 884.104 601.971L884.119 602.032C884.198 602.308 884.292 602.596 884.691 603.053C884.912 603.308 885.215 603.607 885.538 603.906C885.917 604.251 886.317 604.591 886.653 604.851C887.282 605.338 887.718 605.583 888.092 605.793C888.258 605.886 888.41 605.968 888.632 606.024C888.882 606.083 889.236 606.118 889.818 606.105C890.41 606.091 891.277 606.022 892.144 605.952C893.001 605.883 893.864 605.812 894.539 605.798C895.226 605.78 895.667 605.827 895.988 605.901C896.34 605.983 896.541 606.093 896.741 606.207C896.997 606.347 897.09 606.669 896.947 606.919C896.807 607.175 896.485 607.267 896.235 607.125C896.1 607.051 895.962 606.971 895.749 606.925C895.503 606.867 895.143 606.834 894.567 606.846C893.975 606.859 893.102 606.931 892.235 607C891.378 607.07 890.521 607.139 889.85 607.154C889.17 607.17 888.723 607.125 888.389 607.046C888.03 606.96 887.818 606.84 887.59 606.713C887.184 606.488 886.72 606.23 886.017 605.684C885.649 605.398 885.222 605.041 884.835 604.682C884.474 604.351 884.141 604.023 883.898 603.743C883.348 603.108 883.224 602.708 883.109 602.312L883.098 602.272C882.991 601.89 882.883 601.507 882.895 599.195L882.896 599.079C882.915 596.95 882.94 593.141 875.704 591.871C872.077 591.235 866.68 591.228 861.394 591.595C855.503 592.004 849.761 592.883 846.756 593.887C844.388 594.678 843.976 595.47 844.553 596.254C845.315 597.296 847.335 598.464 849.356 599.631L849.362 599.639Z" fill="#1A1C1D"/>
<path d="M655.433 241.868C658.165 238.784 660.904 235.698 662.854 232.884C662.487 231.067 662.524 229.508 662.743 228.093C662.959 226.682 663.362 225.413 663.818 224.447C664.123 223.801 664.469 223.261 664.816 222.878C665.349 222.295 665.965 222.015 666.597 222.112C666.751 222.137 666.892 222.179 667.024 222.241L667.046 222.256C667.827 222.639 668.343 223.882 668.25 225.59C668.18 226.939 667.777 228.715 666.871 230.635C666.854 230.651 666.764 230.853 666.745 230.893C666.358 231.682 665.883 232.492 665.346 233.322C665.88 235.262 666.955 237.565 668.88 240.415C670.496 242.802 672.669 245.52 675.29 248.795C679.292 253.8 684.314 260.087 689.905 268.32C694.547 275.164 699.62 283.412 704.908 292.362C710.256 301.422 715.682 310.949 721.11 320.472L719.097 321.616C713.593 311.955 708.091 302.29 702.92 293.537C697.685 284.671 692.645 276.478 687.991 269.618C682.411 261.4 677.444 255.184 673.489 250.235C670.813 246.889 668.596 244.112 666.967 241.709C665.418 239.417 664.37 237.43 663.69 235.665C661.805 238.162 659.49 240.775 657.175 243.387L655.443 241.858L655.433 241.868ZM664.926 229.308C665.585 227.818 665.878 226.483 665.933 225.464L665.939 225.379L665.913 225.435C665.538 226.23 665.209 227.28 665.029 228.449C664.986 228.726 664.953 229.013 664.926 229.308Z" fill="#1A1C1D"/>
<path fill-rule="evenodd" clip-rule="evenodd" d="M848.821 435.421C859.318 430.591 882.176 421.449 898.693 411.416C915.214 401.384 925.39 390.459 926.065 390.28C926.74 390.1 917.908 400.668 904.163 409.871C890.418 419.074 871.761 426.912 860.592 431.924C849.424 436.935 845.739 439.111 842.967 439.941C840.191 440.77 838.324 440.25 848.821 435.421Z" fill="#1A1C1D"/>
<path fill-rule="evenodd" clip-rule="evenodd" d="M895.594 443.503C907.787 439.473 934.101 431.961 953.715 423.388C973.329 414.815 986.235 405.177 986.998 405.039C987.757 404.899 976.371 414.263 959.904 422.182C943.437 430.102 921.894 436.58 908.938 440.748C895.985 444.918 891.622 446.774 888.479 447.429C885.331 448.083 883.404 447.535 895.594 443.503Z" fill="#1A1C1D"/>
<path fill-rule="evenodd" clip-rule="evenodd" d="M921.688 444.661C934.474 443.453 961.801 441.996 982.827 438.012C1003.86 434.026 1018.59 427.509 1019.36 427.544C1020.13 427.582 1006.94 434.168 989.127 438.216C971.31 442.263 948.865 443.773 935.309 444.95C921.754 446.127 917.085 446.965 913.876 446.902C910.66 446.84 908.901 445.874 921.687 444.665L921.688 444.661Z" fill="#1A1C1D"/>
<path fill-rule="evenodd" clip-rule="evenodd" d="M741.607 345.098C750.807 348.772 769.985 357.585 785.975 361.933C801.966 366.281 814.766 366.158 815.272 366.47C815.783 366.784 804 367.533 790.292 365.184C776.59 362.832 760.964 357.382 751.253 353.394C741.546 349.407 737.756 346.883 735.467 344.887C733.183 342.893 732.401 341.426 741.601 345.1L741.607 345.098Z" fill="#1A1C1D"/>
<path fill-rule="evenodd" clip-rule="evenodd" d="M755.317 376.299C763.881 384.343 781.471 402.474 796.81 414.059C812.149 425.645 825.231 430.686 825.681 431.264C826.13 431.842 813.943 427.945 800.491 419.631C787.039 411.317 772.317 398.578 763.308 389.957C754.298 381.337 750.995 376.837 749.108 373.566C747.221 370.295 746.753 368.254 755.317 376.299Z" fill="#1A1C1D"/>
<path fill-rule="evenodd" clip-rule="evenodd" d="M725.083 332.676C726.062 337.841 728.556 348.962 729.456 357.326C730.357 365.691 729.672 371.292 729.77 371.611C729.868 371.931 730.751 366.965 730.515 360.212C730.279 353.459 728.927 344.926 727.852 339.437C726.774 333.951 725.98 331.518 725.312 329.904C724.647 328.293 724.112 327.504 725.085 332.672L725.083 332.676Z" fill="#1A1C1D"/>
<path d="M821.02 482.505C822.039 483.996 823.307 484.896 823.319 484.955C823.328 485.018 822.082 484.245 821.037 483.079C817.606 479.255 814.413 472.163 815.315 467.186C815.361 466.944 815.417 466.702 815.492 466.469C815.893 465.175 816.693 464.181 817.81 463.58C818.889 463.001 820.239 462.807 821.771 463.086C822.118 463.147 822.485 463.237 822.863 463.357C824.694 463.922 826.766 465.134 828.712 466.739C830.581 468.279 832.362 470.193 833.716 472.256C835.021 474.238 835.936 476.353 836.491 478.332C837.123 480.592 837.286 482.699 837.026 484.254C837.022 484.262 837.011 484.326 837.01 484.34C836.723 485.942 835.983 487.003 835.009 487.632C834.03 488.259 832.851 488.42 831.668 488.219C831.66 488.215 831.611 488.206 831.595 488.209C830.479 488.009 829.35 487.487 828.414 486.802C827.445 486.095 826.66 485.194 826.282 484.269C825.717 482.9 826.035 481.678 826.337 480.508C826.437 480.131 826.531 479.755 826.581 479.413C826.659 478.854 826.613 478.32 826.518 477.86C826.055 475.603 824.628 477.76 824.719 479.047C824.792 480.092 825.777 480.859 825.736 480.893C825.694 480.932 824.62 480.24 824.205 479.371C823.776 478.471 824.441 473.885 826.117 474.675C826.566 474.56 826.928 474.579 827.356 474.933C827.59 475.131 827.78 475.42 827.987 475.903C828.147 476.277 828.347 476.815 828.478 477.457C828.612 478.116 828.679 478.884 828.567 479.69C828.504 480.134 828.392 480.569 828.276 481.012C828.052 481.868 827.82 482.764 828.13 483.515C828.366 484.09 828.909 484.687 829.597 485.193C830.302 485.705 831.142 486.097 831.959 486.248L832.006 486.26C832.726 486.38 833.411 486.303 833.94 485.967C834.465 485.629 834.875 484.997 835.055 483.994L835.07 483.933C835.285 482.648 835.133 480.849 834.581 478.876C834.08 477.083 833.248 475.163 832.06 473.359C830.818 471.47 829.183 469.714 827.459 468.291C825.698 466.841 823.863 465.756 822.275 465.266C821.985 465.178 821.701 465.107 821.417 465.057C820.343 464.862 819.439 464.978 818.755 465.343C818.11 465.688 817.644 466.283 817.399 467.071C817.355 467.216 817.313 467.377 817.286 467.549C817 469.127 819.416 480.153 821.024 482.507L821.02 482.505Z" fill="#1A1C1D"/>
<path d="M850.983 514.103C854.623 514.277 857.168 515.023 857.302 514.999C857.436 514.974 855.159 514.183 852.178 513.802C842.404 512.556 826.028 513.34 816.273 516.968C815.799 517.145 815.334 517.336 814.892 517.537C812.448 518.644 810.844 519.977 810.224 521.397C809.625 522.769 809.968 524.194 811.387 525.542C811.711 525.846 812.097 526.155 812.549 526.46C814.726 527.936 818.368 529.297 822.746 530.317C826.951 531.299 831.874 531.981 836.873 532.171C841.674 532.356 846.539 532.083 850.924 531.535C855.928 530.908 860.362 529.905 863.424 528.792C863.443 528.781 863.567 528.737 863.59 528.728C866.73 527.564 868.518 526.255 869.268 524.954C870.023 523.651 869.701 522.411 868.634 521.362C868.618 521.354 868.576 521.31 868.572 521.298C867.543 520.315 865.844 519.5 863.923 518.96C861.932 518.402 859.64 518.131 857.521 518.269C854.389 518.476 852.043 519.458 849.804 520.398C849.079 520.705 848.363 521.002 847.682 521.237C846.579 521.62 845.448 521.868 844.443 522.033C839.532 522.826 843.2 520.242 845.894 519.618C848.089 519.111 850.208 519.657 850.262 519.594C850.316 519.532 848.299 518.864 846.279 518.936C844.19 519.01 835.104 522.192 837.654 523.395C837.672 523.896 837.903 524.244 838.869 524.46C839.403 524.58 840.11 524.601 841.216 524.542C842.074 524.493 843.293 524.389 844.687 524.164C846.123 523.933 847.741 523.574 849.335 523.017C850.215 522.715 851.05 522.362 851.902 522.002C853.544 521.313 855.259 520.594 856.976 520.481C858.284 520.395 859.821 520.593 861.237 520.992C862.686 521.397 863.957 522.001 864.71 522.722L864.754 522.763C865.399 523.403 865.62 524.113 865.216 524.815C864.811 525.518 863.733 526.263 861.764 526.994L861.646 527.036C859.115 527.956 855.333 528.797 850.961 529.347C846.989 529.846 842.571 530.09 838.205 529.925C833.629 529.749 829.1 529.121 825.224 528.216C821.269 527.293 818.02 526.093 816.135 524.814C815.792 524.579 815.491 524.339 815.23 524.094C814.236 523.152 813.975 522.204 814.352 521.333C814.71 520.511 815.675 519.727 817.158 519.054C817.431 518.93 817.74 518.802 818.077 518.678C821.169 517.53 845.232 513.811 850.966 514.085L850.983 514.103Z" fill="#1A1C1D"/>
<path d="M745.201 416.701C746.22 418.191 747.488 419.092 747.499 419.151C747.509 419.214 746.263 418.441 745.218 417.275C741.786 413.451 738.593 406.358 739.496 401.382C739.542 401.14 739.597 400.898 739.673 400.665C740.074 399.37 740.874 398.377 741.991 397.776C743.069 397.196 744.419 397.003 745.951 397.282C746.298 397.343 746.666 397.433 747.043 397.552C748.874 398.118 750.947 399.33 752.893 400.935C754.762 402.475 756.543 404.389 757.897 406.452C759.202 408.434 760.117 410.549 760.672 412.528C761.304 414.788 761.467 416.894 761.206 418.45C761.202 418.458 761.192 418.522 761.19 418.536C760.903 420.137 760.164 421.199 759.189 421.828C758.211 422.455 757.032 422.616 755.849 422.414C755.841 422.411 755.791 422.402 755.776 422.404C754.66 422.205 753.531 421.682 752.595 420.997C751.625 420.291 750.841 419.389 750.462 418.464C749.898 417.095 750.215 415.874 750.518 414.704C750.618 414.326 750.712 413.951 750.761 413.608C750.839 413.05 750.794 412.516 750.698 412.056C750.236 409.798 748.809 411.956 748.9 413.243C748.973 414.288 749.958 415.055 749.917 415.089C749.874 415.128 748.801 414.436 748.386 413.567C747.957 412.667 748.621 408.081 750.297 408.871C750.747 408.756 751.109 408.775 751.537 409.128C751.771 409.326 751.961 409.616 752.167 410.099C752.328 410.472 752.528 411.011 752.659 411.653C752.793 412.312 752.859 413.08 752.748 413.886C752.685 414.33 752.572 414.765 752.456 415.208C752.233 416.064 752.001 416.96 752.31 417.711C752.547 418.286 753.089 418.883 753.778 419.388C754.483 419.901 755.323 420.292 756.139 420.443L756.187 420.456C756.906 420.576 757.592 420.498 758.121 420.162C758.646 419.824 759.056 419.193 759.236 418.19L759.251 418.128C759.466 416.844 759.314 415.045 758.761 413.072C758.26 411.279 757.429 409.359 756.24 407.554C754.999 405.666 753.364 403.909 751.639 402.486C749.879 401.037 748.044 399.952 746.455 399.461C746.165 399.373 745.881 399.303 745.598 399.252C744.524 399.058 743.62 399.174 742.936 399.539C742.29 399.884 741.824 400.479 741.58 401.266C741.536 401.412 741.494 401.573 741.466 401.745C741.181 403.323 743.597 414.349 745.205 416.703L745.201 416.701Z" fill="#1A1C1D"/>
<path fill-rule="evenodd" clip-rule="evenodd" d="M649.461 443.791C648.221 449.379 644.838 461.179 644.099 470.64C643.361 480.1 645.263 487.219 645.119 487.546C644.972 487.867 642.781 481.393 642.462 473.459C642.144 465.526 643.701 456.13 645.09 450.216C646.472 444.304 647.681 441.874 648.742 440.349C649.799 438.822 650.704 438.204 649.469 443.795L649.461 443.791Z" fill="#1A1C1D"/>
<path fill-rule="evenodd" clip-rule="evenodd" d="M705.444 375.186C704.044 376.488 697.926 380.67 693.338 385.177C688.749 389.684 685.684 394.519 681.501 398.041C677.318 401.564 672.017 403.774 670.66 408.907C669.303 414.04 671.893 422.102 673.021 426.724C674.148 431.349 673.814 432.533 672.667 433.061C671.522 433.586 669.571 433.451 667.946 431.899C666.326 430.35 665.03 427.387 664.62 424.334C664.211 421.281 664.682 418.141 665.32 414.294C665.958 410.447 666.76 405.891 667.961 401.915C669.161 397.942 670.763 394.545 673.346 392.513C675.929 390.48 679.5 389.807 684.136 387.455C688.778 385.101 694.489 381.069 699.006 378.265C703.524 375.462 706.841 373.888 705.442 375.19L705.444 375.186Z" fill="#1A1C1D"/>
<path fill-rule="evenodd" clip-rule="evenodd" d="M780.204 537.917C780.776 536.113 786.103 540.977 791.417 544.327C796.733 547.672 802.037 549.5 808.676 550.39C815.319 551.283 823.301 551.23 831.832 552.505C840.367 553.782 849.454 556.383 856.93 559.069C864.405 561.754 870.276 564.522 874.875 565.344C879.473 566.165 882.805 565.047 885.52 560.832C888.234 556.617 890.336 549.313 893.023 546.822C895.71 544.332 898.983 546.66 903.887 549.812C908.792 552.964 915.322 556.941 922.143 560.777C928.966 564.609 936.08 568.3 941.44 566.679C946.799 565.058 950.405 558.126 951.833 552.241C953.262 546.356 952.517 541.52 952.527 541.974C952.538 542.428 953.303 548.171 953.073 553.894C952.839 559.615 951.61 565.316 949.525 569.262C947.439 573.211 944.498 575.412 939.561 574.709C934.624 574.006 927.694 570.402 921.13 566.019C914.567 561.636 908.373 556.47 904.083 554.394C899.793 552.318 897.416 553.325 895.675 557.608C893.935 561.887 892.839 569.446 890.721 573.938C888.602 578.433 885.463 579.866 879.396 578.465C873.33 577.064 864.346 572.828 853.874 569.12C843.404 565.418 831.446 562.244 821.851 561.082C812.257 559.92 805.018 560.767 799.77 560.372C794.524 559.972 791.262 558.322 787.542 553.259C783.821 548.197 779.635 539.723 780.206 537.913L780.204 537.917Z" fill="#1A1C1D"/>
<path fill-rule="evenodd" clip-rule="evenodd" d="M667.232 492.307C667.15 495.44 666.282 501.906 667.384 507.462C668.487 513.018 671.556 517.661 671.487 517.829C671.414 517.994 668.2 513.688 666.421 508.853C664.642 504.017 664.298 498.653 664.453 495.354C664.605 492.054 665.25 490.821 665.93 490.102C666.606 489.381 667.316 489.179 667.238 492.314L667.232 492.307Z" fill="#1A1C1D"/>
<path fill-rule="evenodd" clip-rule="evenodd" d="M709.852 529.662C709.77 532.796 708.902 539.262 710.004 544.818C711.107 550.374 714.176 555.017 714.107 555.185C714.034 555.35 710.82 551.044 709.041 546.208C707.262 541.373 706.918 536.009 707.074 532.71C707.225 529.409 707.87 528.176 708.55 527.458C709.226 526.737 709.936 526.535 709.858 529.67L709.852 529.662Z" fill="#1A1C1D"/>
<path fill-rule="evenodd" clip-rule="evenodd" d="M919.442 593.829C915.92 598.341 908.968 608.458 902.14 615.047C895.311 621.636 888.608 624.697 888.448 625.017C888.293 625.334 894.683 622.906 901.006 618.104C907.329 613.302 913.587 606.122 917.266 601.289C920.948 596.461 922.053 593.981 922.555 592.193C923.061 590.406 922.961 589.315 919.434 593.825L919.442 593.829Z" fill="#1A1C1D"/>
<path fill-rule="evenodd" clip-rule="evenodd" d="M872.213 605.401C867.581 607.072 857.973 610.896 849.851 613.191C841.727 615.48 835.097 616.238 834.843 616.362C834.589 616.487 840.72 615.981 847.73 614.431C854.741 612.876 862.635 610.279 867.517 608.482C872.397 606.688 874.269 605.697 875.379 604.957C876.489 604.216 876.841 603.728 872.209 605.399L872.213 605.401Z" fill="#1A1C1D"/>
<path fill-rule="evenodd" clip-rule="evenodd" d="M833.432 601.516C824.961 600.435 807.023 598.697 792.786 595.898C778.548 593.099 768.012 589.238 767.516 589.224C767.018 589.214 776.567 593.058 788.443 596.075C800.319 599.093 814.516 601.284 823.483 602.379C832.451 603.474 836.183 603.462 838.545 603.244C840.907 603.025 841.903 602.597 833.432 601.516Z" fill="#1A1C1D"/>
<path d="M677.066 343.194C676.166 343.043 675.058 343.097 673.962 343.331C672.947 343.55 671.952 343.921 671.178 344.425C670.573 344.818 670.097 345.301 669.841 345.751C669.714 345.979 669.64 346.198 669.642 346.389C669.643 346.575 669.713 346.735 669.866 346.866C670.003 346.979 670.207 347.065 670.482 347.112C671.328 347.252 672.82 347.048 674.331 346.677C675.89 346.29 677.432 345.729 678.263 345.188C678.552 344.998 678.736 344.816 678.823 344.652L678.834 344.628C678.902 344.484 678.91 344.342 678.864 344.203L678.864 344.193C678.809 344.031 678.679 343.872 678.49 343.734C678.158 343.485 677.659 343.293 677.06 343.196L677.066 343.194ZM674.144 342.543C675.407 342.275 676.684 342.214 677.725 342.387C678.438 342.509 679.037 342.738 679.437 343.039C679.69 343.226 679.867 343.451 679.95 343.7L679.954 343.712C680.039 343.976 680.014 344.267 679.859 344.575L679.842 344.611C679.653 344.97 679.296 345.334 678.746 345.694C677.731 346.358 675.958 347.015 674.207 347.448C672.527 347.866 670.832 348.087 669.823 347.919C669.417 347.849 669.112 347.72 668.903 347.543C668.655 347.334 668.539 347.064 668.535 346.75C668.532 346.446 668.637 346.11 668.833 345.768C669.189 345.136 669.853 344.463 670.691 343.917C671.683 343.272 672.908 342.805 674.14 342.542L674.144 342.543Z" fill="#1A1C1D"/>
<path d="M641.753 401.752C640.961 401.062 640.192 400.035 639.595 398.89C639.014 397.772 638.595 396.53 638.462 395.355C638.35 394.36 638.445 393.424 638.708 392.743C638.851 392.376 639.04 392.08 639.276 391.889C639.519 391.696 639.803 391.61 640.122 391.668C640.392 391.717 640.685 391.87 640.997 392.139C641.769 392.81 642.676 394.258 643.423 395.82C644.202 397.447 644.822 399.237 644.958 400.438C645.03 401.092 644.973 401.597 644.82 401.974L644.803 402.009C644.664 402.325 644.451 402.527 644.197 402.632L644.185 402.636C643.941 402.73 643.657 402.733 643.349 402.661C642.863 402.544 642.301 402.225 641.757 401.754L641.753 401.752ZM640.087 398.249C640.604 399.244 641.268 400.133 641.956 400.731C642.414 401.127 642.878 401.395 643.281 401.492C643.509 401.546 643.708 401.547 643.873 401.488L643.88 401.482C644.013 401.428 644.122 401.332 644.19 401.189L644.201 401.165C644.272 400.993 644.296 400.736 644.258 400.391C644.151 399.409 643.602 397.862 642.905 396.411C642.236 395.007 641.44 393.724 640.792 393.165C640.58 392.982 640.385 392.88 640.21 392.846C640.018 392.809 639.843 392.859 639.7 392.977C639.551 393.097 639.431 393.289 639.334 393.536C639.149 394.02 639.08 394.695 639.162 395.412C639.266 396.329 639.608 397.33 640.089 398.255L640.087 398.249Z" fill="#1A1C1D"/>
<path d="M976.679 529.075C975.887 528.384 975.117 527.358 974.521 526.213C973.94 525.095 973.521 523.853 973.387 522.677C973.276 521.683 973.371 520.747 973.633 520.065C973.777 519.699 973.966 519.402 974.202 519.211C974.444 519.018 974.729 518.932 975.048 518.99C975.317 519.039 975.611 519.192 975.923 519.461C976.695 520.133 977.602 521.58 978.349 523.143C979.128 524.769 979.748 526.559 979.884 527.76C979.956 528.414 979.899 528.919 979.745 529.296L979.728 529.332C979.59 529.647 979.377 529.849 979.123 529.954L979.111 529.958C978.866 530.053 978.582 530.055 978.275 529.983C977.788 529.866 977.226 529.548 976.683 529.077L976.679 529.075ZM975.013 525.571C975.529 526.566 976.193 527.455 976.882 528.053C977.339 528.449 977.803 528.717 978.206 528.814C978.435 528.868 978.634 528.869 978.799 528.81L978.806 528.804C978.939 528.75 979.048 528.654 979.115 528.511L979.127 528.487C979.198 528.315 979.221 528.058 979.184 527.714C979.077 526.731 978.528 525.184 977.831 523.733C977.161 522.329 976.366 521.046 975.718 520.487C975.506 520.304 975.31 520.202 975.136 520.169C974.944 520.132 974.769 520.181 974.626 520.299C974.476 520.419 974.357 520.611 974.26 520.858C974.075 521.342 974.006 522.017 974.087 522.734C974.191 523.652 974.534 524.652 975.015 525.577L975.013 525.571Z" fill="#1A1C1D"/>
<path d="M857.069 358.28C856.278 357.589 855.508 356.563 854.911 355.418C854.331 354.3 853.912 353.058 853.778 351.882C853.666 350.888 853.761 349.952 854.024 349.27C854.168 348.904 854.356 348.607 854.593 348.416C854.835 348.223 855.119 348.137 855.438 348.195C855.708 348.244 856.002 348.397 856.314 348.666C857.085 349.338 857.993 350.785 858.739 352.348C859.519 353.974 860.138 355.764 860.274 356.966C860.347 357.619 860.289 358.124 860.136 358.501L860.119 358.537C859.98 358.852 859.768 359.054 859.513 359.159L859.502 359.163C859.257 359.258 858.973 359.26 858.665 359.188C858.179 359.071 857.617 358.753 857.073 358.282L857.069 358.28ZM855.404 354.776C855.92 355.771 856.584 356.66 857.273 357.258C857.73 357.654 858.194 357.922 858.597 358.019C858.825 358.073 859.025 358.074 859.189 358.015L859.197 358.009C859.33 357.955 859.438 357.86 859.506 357.716L859.517 357.692C859.588 357.52 859.612 357.263 859.575 356.919C859.467 355.936 858.918 354.389 858.222 352.938C857.552 351.534 856.757 350.251 856.108 349.692C855.897 349.509 855.701 349.407 855.527 349.374C855.334 349.337 855.16 349.386 855.016 349.504C854.867 349.624 854.747 349.816 854.65 350.063C854.466 350.547 854.396 351.222 854.478 351.939C854.582 352.857 854.925 353.858 855.406 354.782L855.404 354.776Z" fill="#1A1C1D"/>
<path d="M974.358 565.843C973.458 565.692 972.35 565.745 971.254 565.98C970.239 566.199 969.244 566.57 968.47 567.073C967.865 567.466 967.389 567.949 967.133 568.399C967.006 568.627 966.932 568.846 966.934 569.038C966.935 569.223 967.005 569.384 967.158 569.514C967.295 569.628 967.499 569.714 967.774 569.761C968.62 569.901 970.112 569.697 971.623 569.326C973.182 568.938 974.724 568.377 975.555 567.837C975.844 567.647 976.028 567.465 976.115 567.301L976.126 567.277C976.194 567.133 976.202 566.991 976.156 566.852L976.156 566.842C976.101 566.679 975.971 566.52 975.782 566.383C975.45 566.134 974.951 565.942 974.352 565.845L974.358 565.843ZM971.435 565.192C972.699 564.924 973.976 564.863 975.017 565.036C975.73 565.158 976.329 565.387 976.729 565.687C976.982 565.875 977.159 566.1 977.242 566.349L977.246 566.36C977.331 566.625 977.306 566.916 977.151 567.223L977.134 567.259C976.945 567.619 976.588 567.983 976.038 568.343C975.023 569.006 973.249 569.663 971.499 570.097C969.819 570.515 968.124 570.736 967.115 570.568C966.709 570.498 966.404 570.369 966.195 570.192C965.947 569.983 965.83 569.713 965.827 569.399C965.824 569.095 965.929 568.759 966.124 568.417C966.481 567.785 967.145 567.112 967.983 566.565C968.975 565.92 970.2 565.454 971.432 565.19L971.435 565.192Z" fill="#1A1C1D"/>
<path d="M784.105 278.597C783.337 278.508 782.508 278.693 781.776 279.099L781.756 279.109C781.086 279.486 780.51 280.044 780.161 280.744C779.967 281.135 779.84 281.568 779.791 281.994C779.74 282.443 779.77 282.877 779.894 283.233C780.013 283.572 780.214 283.848 780.512 283.993C780.634 284.055 780.771 284.096 780.919 284.112C781.642 284.194 782.694 283.783 783.675 283.162C784.691 282.518 785.611 281.664 785.984 280.913C786.08 280.719 786.134 280.544 786.156 280.383C786.191 280.102 786.111 279.836 785.954 279.6L785.942 279.575C785.754 279.301 785.466 279.063 785.123 278.891L785.111 278.885C784.809 278.738 784.467 278.636 784.111 278.595L784.105 278.597ZM781.524 278.112C782.364 277.644 783.326 277.434 784.211 277.534C784.637 277.583 785.044 277.702 785.403 277.882L785.419 277.889C785.869 278.116 786.255 278.434 786.521 278.833L786.541 278.862C786.842 279.321 786.991 279.874 786.918 280.494C786.88 280.823 786.781 281.157 786.613 281.492C786.153 282.417 785.1 283.419 783.96 284.14C782.866 284.835 781.667 285.289 780.806 285.191C780.584 285.164 780.383 285.104 780.206 285.015C779.72 284.771 779.384 284.315 779.188 283.749C779.001 283.203 778.947 282.552 779.023 281.905C779.092 281.313 779.262 280.715 779.526 280.186C779.972 279.293 780.686 278.595 781.503 278.136L781.524 278.122L781.524 278.112Z" fill="#1A1C1D"/>
<path d="M634.611 353.104C633.843 353.016 633.014 353.201 632.281 353.607L632.262 353.617C631.591 353.994 631.016 354.552 630.667 355.251C630.473 355.643 630.346 356.076 630.297 356.502C630.246 356.951 630.276 357.385 630.4 357.741C630.519 358.08 630.72 358.355 631.018 358.501C631.14 358.563 631.277 358.603 631.425 358.619C632.148 358.701 633.2 358.29 634.181 357.669C635.196 357.026 636.116 356.171 636.49 355.42C636.586 355.226 636.639 355.051 636.661 354.891C636.696 354.61 636.617 354.343 636.46 354.108L636.446 354.087C636.26 353.808 635.97 353.574 635.627 353.403L635.615 353.397C635.313 353.25 634.971 353.147 634.615 353.106L634.611 353.104ZM632.03 352.619C632.87 352.152 633.832 351.942 634.717 352.042C635.142 352.091 635.55 352.21 635.909 352.389L635.925 352.397C636.375 352.623 636.761 352.942 637.027 353.341L637.047 353.37C637.348 353.829 637.497 354.382 637.424 355.002C637.386 355.33 637.287 355.664 637.119 356C636.659 356.925 635.606 357.926 634.466 358.648C633.372 359.342 632.173 359.797 631.312 359.698C631.09 359.672 630.889 359.611 630.712 359.522C630.226 359.279 629.89 358.823 629.694 358.257C629.507 357.71 629.453 357.06 629.529 356.413C629.598 355.821 629.768 355.223 630.032 354.693C630.478 353.8 631.192 353.103 632.009 352.643L632.03 352.629L632.03 352.619Z" fill="#1A1C1D"/>
<path d="M912.115 581.053C911.347 580.964 910.518 581.149 909.785 581.555L909.766 581.565C909.095 581.942 908.52 582.5 908.171 583.2C907.976 583.591 907.85 584.024 907.801 584.45C907.75 584.899 907.78 585.333 907.904 585.689C908.022 586.028 908.224 586.304 908.522 586.449C908.644 586.511 908.781 586.552 908.929 586.568C909.651 586.65 910.704 586.239 911.685 585.618C912.7 584.974 913.62 584.12 913.994 583.369C914.09 583.175 914.143 583 914.165 582.839C914.2 582.558 914.121 582.292 913.964 582.056L913.949 582.035C913.763 581.757 913.474 581.523 913.13 581.351L913.118 581.345C912.817 581.198 912.475 581.096 912.119 581.055L912.115 581.053ZM909.534 580.568C910.374 580.1 911.336 579.89 912.221 579.99C912.646 580.04 913.054 580.158 913.413 580.338L913.429 580.345C913.878 580.572 914.265 580.89 914.531 581.289L914.551 581.318C914.852 581.777 915.001 582.33 914.928 582.95C914.89 583.279 914.791 583.613 914.623 583.948C914.163 584.873 913.11 585.875 911.97 586.596C910.876 587.291 909.677 587.745 908.816 587.647C908.594 587.62 908.393 587.56 908.215 587.471C907.73 587.228 907.394 586.771 907.197 586.205C907.011 585.659 906.957 585.009 907.033 584.361C907.102 583.769 907.272 583.171 907.536 582.642C907.982 581.749 908.696 581.051 909.512 580.592L909.534 580.578L909.534 580.568Z" fill="#1A1C1D"/>
<path d="M722.043 421.119C720.562 420.948 718.96 421.305 717.547 422.088C716.239 422.814 715.113 423.898 714.431 425.26C714.056 426.015 713.811 426.856 713.715 427.679C713.615 428.545 713.677 429.384 713.912 430.076C714.14 430.73 714.531 431.256 715.103 431.545C715.34 431.662 715.601 431.74 715.892 431.775C717.285 431.934 719.318 431.141 721.211 429.94C723.172 428.698 724.94 427.048 725.667 425.6C725.852 425.228 725.959 424.888 725.993 424.578C726.054 424.035 725.904 423.515 725.605 423.062C725.241 422.51 724.676 422.043 723.993 421.702C723.4 421.408 722.734 421.206 722.035 421.125L722.043 421.119ZM717.071 420.18C718.696 419.278 720.542 418.87 722.25 419.065C723.084 419.16 723.88 419.395 724.581 419.749C725.47 420.193 726.227 420.833 726.744 421.618C727.325 422.507 727.61 423.569 727.472 424.762C727.399 425.392 727.211 426.04 726.886 426.687C725.992 428.471 723.965 430.399 721.77 431.795C719.661 433.133 717.344 434.012 715.684 433.819C715.254 433.768 714.869 433.655 714.525 433.483C713.587 433.011 712.937 432.134 712.564 431.041C712.205 429.983 712.105 428.736 712.248 427.481C712.381 426.338 712.71 425.186 713.224 424.159C714.092 422.421 715.486 421.058 717.076 420.178L717.071 420.18Z" fill="#1A1C1D"/>
<path d="M801.099 483.326C800.634 482.326 800.099 481.557 799.541 481.054C799.106 480.664 798.66 480.439 798.225 480.39C797.794 480.343 797.364 480.477 796.969 480.798C796.63 481.072 796.314 481.484 796.03 482.044C795.345 483.414 794.85 485.674 794.748 487.91C794.661 489.748 794.856 491.601 795.456 492.884C795.917 493.873 796.608 494.56 797.382 494.944C797.872 495.19 798.394 495.314 798.907 495.322C799.416 495.328 799.927 495.217 800.408 494.995C801.121 494.662 801.745 494.083 802.151 493.274L802.177 493.228C802.639 492.27 802.759 490.887 802.649 489.454C802.483 487.302 801.892 485.008 801.105 483.324L801.099 483.326ZM799.852 477.922C800.489 478.495 801.106 479.381 801.647 480.539C802.604 482.586 803.333 485.521 803.556 488.379C803.779 491.27 803.535 494.053 802.595 495.973L802.565 496.036C802.043 497.083 801.285 497.809 800.448 498.2C799.934 498.441 799.376 498.559 798.815 498.548C798.258 498.539 797.693 498.404 797.168 498.142C796.279 497.698 795.475 496.88 794.91 495.667C793.974 493.669 793.676 490.679 793.822 487.669C793.977 484.423 794.667 481.191 795.62 479.283C795.993 478.542 796.405 478 796.834 477.65C797.31 477.26 797.822 477.106 798.334 477.157C798.845 477.213 799.358 477.469 799.856 477.914L799.852 477.922Z" fill="#1A1C1D"/>
<path d="M909.042 520.919C908.577 519.919 908.042 519.149 907.483 518.647C907.048 518.256 906.603 518.032 906.167 517.983C905.736 517.935 905.307 518.07 904.911 518.391C904.572 518.665 904.256 519.077 903.973 519.637C903.288 521.007 902.793 523.267 902.69 525.502C902.604 527.341 902.798 529.194 903.398 530.477C903.859 531.465 904.55 532.152 905.325 532.537C905.814 532.782 906.336 532.907 906.849 532.914C907.359 532.92 907.87 532.81 908.35 532.587C909.063 532.255 909.687 531.676 910.093 530.867L910.12 530.821C910.581 529.862 910.702 528.48 910.592 527.047C910.426 524.895 909.834 522.6 909.048 520.917L909.042 520.919ZM907.795 515.514C908.431 516.088 909.048 516.974 909.59 518.132C910.547 520.179 911.275 523.114 911.499 525.971C911.721 528.863 911.477 531.646 910.538 533.565L910.508 533.629C909.985 534.676 909.228 535.402 908.39 535.793C907.876 536.034 907.318 536.151 906.758 536.141C906.201 536.132 905.635 535.997 905.11 535.735C904.221 535.291 903.417 534.473 902.852 533.26C901.916 531.262 901.618 528.272 901.765 525.261C901.919 522.016 902.609 518.784 903.562 516.876C903.936 516.135 904.348 515.592 904.776 515.243C905.253 514.853 905.764 514.699 906.277 514.75C906.787 514.805 907.301 515.062 907.798 515.506L907.795 515.514Z" fill="#1A1C1D"/>
</g>
<rect x="0.25" y="0.25" width="609.5" height="415.5" stroke="#FF6624" stroke-width="0.5"/>
<defs>
<clipPath id="clip0_1232_1639">
<rect width="454.06" height="326.495" fill="white" transform="translate(667.513 191.582) rotate(25.2441)"/>
</clipPath>
</defs>
</svg>
