<svg width="180" height="163" viewBox="0 0 180 163" fill="none" xmlns="http://www.w3.org/2000/svg">
<g clip-path="url(#clip0_78_38140)">
<path d="M62.6068 57.086C63.0019 56.9246 63.455 57.1136 63.621 57.5075C63.7863 57.9028 63.6009 58.3559 63.2052 58.5185L63.1968 58.5221L63.1974 58.524C60.9042 59.4486 58.6098 60.3724 56.7427 61.473L56.7413 61.4755C55.9505 61.9414 55.2341 62.4376 54.5653 62.8999C53.566 63.5905 52.6675 64.2112 51.7694 64.5839C51.3453 64.7603 50.9529 64.8684 50.5626 64.9759C49.6898 65.2171 48.8286 65.455 47.8509 66.615C47.0394 67.5775 46.1421 69.1337 45.6158 70.7752C45.2125 72.0314 45.0341 73.3217 45.2972 74.3885C45.6082 75.6406 46.5964 76.7074 47.5077 77.6909C48.4661 78.7256 49.3539 79.6836 49.5746 80.8742C49.8309 82.2581 49.1143 83.6263 48.4199 84.9532C47.9491 85.8524 47.4897 86.7303 47.4757 87.4046C47.45 88.6433 49.0968 89.7823 50.9998 91.0995C51.3424 91.3371 51.6901 91.5773 51.9236 91.7433C53.2942 92.7144 54.6935 93.8041 55.7991 94.8696C56.745 95.7799 57.4835 96.6866 57.8317 97.5138C58.2458 98.4958 58.1214 99.2638 58.0031 99.9932C57.9187 100.509 57.8403 100.995 58.1173 101.436C58.4708 102 59.3053 102.644 60.4537 103.265C61.6399 103.907 63.1389 104.504 64.7848 104.951C65.969 105.274 67.2324 105.518 68.4965 105.765C70.9053 106.232 73.3141 106.7 75.3238 107.71C76.7594 108.431 77.9541 109.412 78.9356 110.512L78.9375 110.515C80.103 111.819 80.9664 113.293 81.5752 114.694C81.813 115.241 82.022 115.811 82.2192 116.349C82.7821 117.887 83.2394 119.132 84.48 119.443C85.1704 119.616 86.1799 119.579 87.4143 119.534C89.6281 119.453 92.5224 119.347 96.0123 120.311C99.3559 121.233 103.189 123.132 106.559 124.804C108.693 125.861 110.639 126.825 112.122 127.368C113.804 127.984 114.777 128.037 115.307 127.748C115.738 127.513 115.9 126.928 115.95 126.22C116.005 125.461 115.927 124.565 115.855 123.706C115.747 122.447 115.643 121.258 115.934 120.396C116 120.201 116.083 120.026 116.183 119.87C116.515 119.348 117.006 119.04 117.581 118.922C118.09 118.819 118.662 118.873 119.236 119.068C119.582 119.184 119.931 119.353 120.266 119.567C121.264 120.202 122.138 121.222 123.025 122.258C123.408 122.707 123.793 123.157 124.164 123.548C124.767 124.185 125.399 124.747 126.078 125.267C126.759 125.789 127.488 126.27 128.277 126.745C129.058 127.213 129.897 127.674 130.689 127.973C131.396 128.239 132.051 128.371 132.558 128.244C133.026 128.126 133.428 127.748 133.792 127.183C134.222 126.513 134.585 125.61 134.921 124.563C135.298 123.396 135.637 122.062 135.842 120.756C136.01 119.677 136.084 118.621 136.005 117.706C135.922 116.754 135.668 115.95 135.248 115.22C134.82 114.473 134.208 113.791 133.425 113.104C132.49 112.282 131.301 111.445 130.226 110.689C129.409 110.115 128.656 109.585 128.077 109.103C126.911 108.131 126.617 107.484 126.291 106.765C126.23 106.631 126.167 106.492 126.092 106.344C125.696 105.556 124.977 104.529 124.258 103.504C124.234 103.47 124.214 103.435 124.196 103.399C124.025 103.062 124.122 102.644 124.44 102.42C124.759 102.197 125.19 102.248 125.451 102.522C125.479 102.552 125.506 102.584 125.531 102.619C126.285 103.695 127.039 104.771 127.483 105.653C127.564 105.816 127.636 105.974 127.707 106.13C127.957 106.68 128.182 107.177 129.068 107.917C129.565 108.33 130.308 108.853 131.117 109.422C132.224 110.201 133.45 111.062 134.452 111.943C135.358 112.74 136.076 113.547 136.597 114.453C137.128 115.377 137.45 116.389 137.554 117.583C137.645 118.632 137.565 119.812 137.377 121.005C137.16 122.394 136.798 123.808 136.401 125.044C136.025 126.213 135.612 127.235 135.108 128.021C134.535 128.913 133.839 129.523 132.948 129.746C132.095 129.961 131.129 129.79 130.147 129.421C129.25 129.083 128.331 128.581 127.483 128.071C126.644 127.568 125.868 127.054 125.136 126.493C124.401 125.929 123.71 125.314 123.041 124.608C122.619 124.161 122.232 123.71 121.849 123.262C121.041 122.318 120.244 121.388 119.439 120.876C119.203 120.726 118.967 120.61 118.739 120.533C118.426 120.428 118.137 120.393 117.901 120.442C117.734 120.476 117.592 120.561 117.503 120.703C117.467 120.76 117.436 120.825 117.411 120.898C117.222 121.456 117.311 122.489 117.406 123.581C117.484 124.5 117.568 125.457 117.503 126.337C117.418 127.53 117.066 128.558 116.058 129.107C115.149 129.603 113.754 129.613 111.591 128.821C110.051 128.257 108.058 127.27 105.872 126.186C102.571 124.55 98.8155 122.689 95.605 121.804C92.3495 120.905 89.5926 121.006 87.4816 121.082C86.1194 121.133 85.0077 121.173 84.1069 120.948C82.0681 120.438 81.4832 118.841 80.7604 116.871C80.5811 116.382 80.391 115.863 80.1466 115.302C79.5973 114.037 78.8205 112.71 77.7758 111.54C76.915 110.574 75.8726 109.717 74.6292 109.092C72.8209 108.183 70.5118 107.735 68.2033 107.286C66.9081 107.035 65.611 106.783 64.3812 106.449C62.6295 105.972 61.0151 105.328 59.7206 104.628C58.3344 103.879 57.2926 103.044 56.7973 102.256C56.2077 101.316 56.3327 100.55 56.4648 99.7378C56.5492 99.2191 56.6369 98.6731 56.3984 98.1064C56.1401 97.4951 55.5271 96.7591 54.7224 95.9844C53.687 94.9873 52.349 93.9467 51.0285 93.0121C50.6452 92.7415 50.3797 92.5567 50.121 92.3772C47.8465 90.8037 45.8784 89.4418 45.9213 87.363C45.9431 86.3367 46.4874 85.2949 47.0457 84.23C47.6169 83.1382 48.2068 82.0146 48.0455 81.1476C47.9088 80.4067 47.1685 79.6087 46.3682 78.7445C45.3255 77.6194 44.194 76.3997 43.7866 74.754C43.447 73.3833 43.653 71.8033 44.1354 70.2978C44.7244 68.4613 45.7388 66.7085 46.6566 65.6178C47.9411 64.0926 49.0344 63.791 50.1394 63.4861C50.4841 63.3911 50.8314 63.2943 51.1671 63.1557C51.9064 62.8491 52.7411 62.2714 53.6695 61.6313C54.3741 61.1448 55.1288 60.6224 55.943 60.1433L55.9436 60.1452C57.932 58.9729 60.2697 58.032 62.606 57.0904L62.6066 57.0924L62.6068 57.086Z" fill="#FF6624"/>
<path d="M56.5605 59.7666C56.8432 59.8139 57.0357 60.0803 56.9909 60.3624C56.9449 60.6439 56.6786 60.8343 56.3952 60.7882C54.6479 60.4993 52.8999 60.2085 51.3619 60.1998C49.8807 60.1911 48.5713 60.436 47.6059 61.19C46.383 62.1455 45.6104 63.9946 44.6895 66.2006C44.1034 67.6036 43.4579 69.147 42.5887 70.7264C41.6859 72.3652 40.5641 74.007 39.4477 75.6388C37.7568 78.1124 36.0792 80.5641 35.2901 82.8298C34.6513 84.6653 34.5843 86.4088 34.8516 88.0678C35.1221 89.7511 35.7347 91.3621 36.443 92.9038C37.1532 94.4512 37.9604 95.9268 39.0528 97.4269C40.1422 98.9237 41.5219 100.448 43.3801 102.092C44.8414 103.386 46.5931 104.753 48.3823 106.146C51.2232 108.361 54.1572 110.647 56.2031 112.853C58.0561 114.851 59.1666 116.764 60.1748 118.499C60.9733 119.873 61.7047 121.134 62.6875 122.208C63.7807 123.402 65.2124 124.401 66.7308 125.266C68.2592 126.137 69.8984 126.88 71.373 127.55L71.4033 127.563C74.3632 128.905 76.663 129.949 79.6938 131.688C80.1971 131.977 80.7034 132.275 81.2298 132.584C83.9334 134.174 87.1922 136.091 91.3265 137.576C95.1227 138.938 99.6793 139.942 103.952 140.884C105.182 141.154 106.388 141.421 107.747 141.736C108.839 141.99 109.747 142.211 110.62 142.423C114.5 143.366 117.685 144.14 119.93 143.887C122.449 143.603 123.892 141.955 125.31 140.337L125.576 140.031C126.209 139.313 126.828 138.639 127.475 137.935C128.487 136.832 129.568 135.654 130.792 134.217C131.892 132.923 133.113 131.415 134.144 130.022C134.992 128.877 135.71 127.817 136.121 127.035C136.852 125.644 136.508 125.276 136.132 124.938C135.926 124.787 135.857 124.505 135.981 124.275C136.116 124.023 136.431 123.93 136.684 124.066L136.682 124.068C136.717 124.087 136.751 124.11 136.781 124.138C137.475 124.754 138.166 125.371 137.038 127.52C136.596 128.361 135.851 129.464 134.981 130.64C133.936 132.053 132.7 133.58 131.587 134.889C130.347 136.347 129.261 137.529 128.246 138.637C127.588 139.353 126.959 140.038 126.361 140.717L126.095 141.021C124.546 142.791 122.968 144.59 120.053 144.919C117.629 145.191 114.362 144.397 110.381 143.43C109.417 143.196 108.41 142.952 107.516 142.743C106.438 142.492 105.099 142.197 103.732 141.897C99.4264 140.949 94.8349 139.937 90.9781 138.552C86.7673 137.041 83.4557 135.092 80.71 133.477C80.1742 133.162 79.6604 132.86 79.1815 132.586C76.2105 130.881 73.922 129.843 70.9778 128.507L70.9532 128.496C69.4667 127.822 67.8117 127.071 66.2211 126.166C64.6166 125.252 63.0992 124.189 61.9254 122.907C60.8669 121.751 60.1075 120.443 59.2792 119.015C58.3015 117.332 57.2258 115.478 55.4421 113.556C53.4483 111.407 50.5512 109.148 47.744 106.961C45.9361 105.552 44.1657 104.172 42.6913 102.866C40.7776 101.171 39.3496 99.5918 38.2141 98.033C37.0804 96.4769 36.2416 94.9424 35.5026 93.3311C34.7605 91.7165 34.117 90.0211 33.8286 88.2266C33.5363 86.4091 33.6097 84.4999 34.3108 82.4882C35.1456 80.0892 36.8591 77.5859 38.5873 75.0582C39.695 73.4395 40.8082 71.8107 41.6788 70.2288C42.5204 68.7006 43.155 67.1804 43.7336 65.7975C44.7111 63.4591 45.5302 61.4965 46.9625 60.378C48.1385 59.4585 49.6639 59.1589 51.3627 59.1703C53.0054 59.1804 54.7838 59.4748 56.5616 59.7704L56.5605 59.7666Z" fill="#FF6624"/>
<path d="M71.8959 64.5836C72.2268 64.5957 72.486 64.8737 72.4757 65.2035C72.4654 65.5332 72.1877 65.79 71.8568 65.778C70.3048 65.7199 68.7521 65.663 67.3218 65.9638C65.9409 66.254 64.6405 66.8891 63.5013 68.2136C62.3686 69.532 61.3834 71.5229 60.6591 73.6349C59.8634 75.955 59.3891 78.4046 59.3808 80.2651C59.367 83.4234 60.7689 84.8579 62.1858 86.3068L62.187 86.3075C62.2417 86.3627 62.2491 86.3699 62.5514 86.6825C63.4104 87.5734 64.2334 88.5159 64.9933 89.5066C65.6983 90.4243 66.3554 91.3919 66.9467 92.4064C67.1783 92.805 67.4044 93.22 67.6322 93.6408C68.5327 95.2987 69.4861 97.0512 71.4678 98.8041C72.5172 99.7329 73.8569 100.668 75.223 101.521C77.1295 102.711 79.0794 103.736 80.3753 104.36C81.4109 104.86 81.9722 105.083 82.2458 105.069C82.256 105.068 82.2889 104.94 82.3432 104.707C82.4183 104.386 82.4891 103.968 82.5754 103.452C82.7623 102.339 83.0212 100.787 83.5625 98.7832C83.976 97.2519 84.5546 95.4468 85.157 93.7996C85.7276 92.2384 86.3206 90.8166 86.8143 89.8991L86.8168 89.9005C87.2687 89.0604 87.6756 88.5846 87.999 88.3814C88.2296 88.2363 88.4556 88.1871 88.6698 88.2201C88.9361 88.2618 89.1375 88.4121 89.2721 88.6505C89.4029 88.8837 89.4525 89.2166 89.4108 89.5956C89.3389 90.2387 89.0181 91.0703 88.5667 92.2378C88.2747 92.9947 87.9257 93.8965 87.5825 94.8934C87.1081 96.2726 86.5962 97.9476 86.1591 99.5951C85.7712 101.058 85.4437 102.481 85.261 103.625C85.0717 104.803 85.0308 105.69 85.1783 106.456C85.322 107.199 85.6524 107.857 86.2098 108.597C86.8177 109.403 87.6824 110.295 88.6949 111.148C89.6538 111.956 90.7364 112.724 91.8497 113.347C92.9982 113.989 94.1891 114.483 95.385 114.865C96.5878 115.25 97.7887 115.517 98.9535 115.707C100.082 115.892 101.185 116.003 102.251 116.054C103.375 116.108 104.457 116.09 105.482 116.015C106.445 115.945 107.353 115.822 108.143 115.506C108.896 115.203 109.563 114.711 110.102 113.889C110.692 112.989 111.151 111.687 111.602 110.403C112.063 109.094 112.515 107.803 113.114 106.88C113.911 105.653 114.897 105.123 115.805 104.634C116.283 104.377 116.736 104.134 117.082 103.805C117.534 103.375 117.864 102.746 118.136 101.994C118.425 101.194 118.65 100.251 118.882 99.257C119.119 98.239 119.363 97.1721 119.514 96.2962C119.661 95.4482 119.734 94.7479 119.651 94.3954C119.645 94.371 119.609 94.3711 119.56 94.3816C119.283 94.4438 118.885 94.6491 118.49 94.8537C118.456 94.871 118.421 94.8845 118.386 94.8948C118.069 94.9901 117.733 94.8094 117.637 94.4934C117.548 94.2005 117.696 93.893 117.969 93.7741C118.418 93.542 118.869 93.3137 119.29 93.218C120.036 93.0502 120.609 93.2265 120.819 94.1326C120.942 94.6593 120.866 95.5147 120.694 96.5069C120.527 97.4713 120.284 98.5318 120.05 99.536C119.81 100.564 119.578 101.542 119.266 102.405C118.936 103.317 118.517 104.098 117.914 104.671C117.459 105.103 116.931 105.387 116.377 105.685C115.601 106.103 114.759 106.555 114.126 107.53C113.594 108.35 113.165 109.568 112.731 110.804C112.253 112.162 111.768 113.543 111.109 114.547C110.422 115.596 109.567 116.225 108.597 116.614C107.666 116.988 106.647 117.128 105.578 117.206C104.509 117.285 103.38 117.303 102.202 117.246C101.101 117.194 99.9525 117.076 98.7636 116.883C97.5379 116.683 96.2792 116.402 95.0232 116.002C93.7602 115.6 92.4968 115.075 91.2684 114.388C90.0803 113.723 88.9326 112.91 87.9256 112.062C86.8432 111.15 85.9115 110.189 85.2525 109.315C84.5817 108.427 84.1814 107.619 84.0003 106.68C83.8231 105.764 83.8655 104.751 84.0772 103.431C84.2712 102.224 84.6048 100.762 84.9978 99.2813C85.4383 97.6244 85.9592 95.9204 86.4474 94.5035L86.4488 94.501C86.8287 93.3998 87.1634 92.5306 87.4457 91.8008C87.7047 91.1325 87.9164 90.5823 88.0553 90.1461C87.9978 90.2441 87.9367 90.3515 87.8735 90.469L87.876 90.4703C87.4053 91.3454 86.8361 92.7107 86.2862 94.2153C85.6969 95.8261 85.1302 97.594 84.7245 99.0988C84.193 101.07 83.9405 102.576 83.7596 103.657C83.6681 104.201 83.5947 104.642 83.513 104.99C83.326 105.78 83.0848 106.223 82.3171 106.263C81.8115 106.289 81.0885 106.026 79.8595 105.434C78.5296 104.794 76.5356 103.745 74.5953 102.534C73.1745 101.647 71.7785 100.672 70.6792 99.6999C68.5424 97.8104 67.5355 95.9582 66.5833 94.2064C66.3634 93.8011 66.1465 93.4023 65.9143 93.0018C65.3571 92.0444 64.7276 91.119 64.0454 90.2313C63.3071 89.2699 62.5143 88.3614 61.6933 87.5086L61.3326 87.1389C59.7425 85.5113 58.1693 83.9008 58.1851 80.2504C58.1934 78.269 58.6927 75.6798 59.5281 73.2407C60.2974 70.9967 61.3573 68.867 62.5888 67.4342C63.9246 65.8801 65.4514 65.1348 67.0737 64.7938C68.6453 64.4627 70.2731 64.5245 71.8991 64.5837L71.8959 64.5836Z" fill="#FF6624"/>
<path d="M122.639 94.7698C122.509 94.466 122.65 94.1151 122.956 93.9877C123.26 93.8596 123.613 94.0027 123.742 94.3077C124.244 95.4821 124.746 96.6577 125.117 97.77C125.501 98.9176 125.743 99.999 125.702 100.946C125.664 101.878 125.363 102.614 125.057 103.363C124.769 104.069 124.476 104.788 124.464 105.654C124.453 106.473 124.682 107.497 124.918 108.546C125.198 109.793 125.485 111.073 125.43 112.224C125.376 113.362 124.989 114.342 124.372 115.077C123.727 115.849 122.836 116.348 121.814 116.483C120.865 116.609 119.81 116.415 118.798 115.992C117.768 115.561 116.772 114.891 115.976 114.08C115.202 113.293 114.616 112.377 114.125 111.395C113.643 110.431 113.263 109.432 112.884 108.432C112.768 108.123 112.924 107.78 113.233 107.666C113.543 107.552 113.888 107.709 114.004 108.018C114.376 108.998 114.749 109.977 115.194 110.868C115.631 111.741 116.15 112.554 116.83 113.245C117.518 113.944 118.374 114.522 119.257 114.891C120.079 115.235 120.918 115.395 121.652 115.298C122.371 115.203 122.998 114.852 123.451 114.311C123.905 113.769 124.192 113.03 124.234 112.159C124.281 111.168 124.012 109.97 123.75 108.804C123.498 107.684 123.253 106.59 123.266 105.631C123.281 104.543 123.618 103.717 123.949 102.905C124.214 102.255 124.476 101.614 124.507 100.891L124.509 100.889C124.542 100.112 124.323 99.1674 123.981 98.14C123.625 97.0766 123.133 95.9235 122.641 94.7711L122.639 94.7698Z" fill="#FF6624"/>
<path d="M75.5913 72.5571C75.9176 72.5054 76.2255 72.7291 76.2791 73.0545C76.3328 73.3799 76.1099 73.6856 75.7836 73.7373C74.1971 73.9846 72.6106 74.232 71.2973 74.5925C70.0606 74.9313 69.0716 75.3615 68.5805 75.9757C67.9507 76.7636 68.0714 78.0406 68.1775 79.1519C68.2386 79.7892 68.2951 80.3806 68.2211 80.892C68.199 81.0446 68.1671 81.1853 68.1271 81.317C68.793 81.1014 69.5201 80.7931 70.0173 80.3755C70.3453 80.1006 70.6046 79.7453 70.8599 79.3943C71.5007 78.514 72.1208 77.6629 73.7713 77.4806C74.8833 77.3584 76.4792 77.5851 77.8537 77.97C79.2992 78.3738 80.555 78.9914 80.894 79.6186C81.4819 80.7087 80.3297 81.3638 78.8799 82.1892C78.1317 82.6151 77.281 83.0988 76.6314 83.6729C75.6528 84.5391 75.0508 85.6852 74.5221 86.6951C74.1469 87.4104 73.8054 88.0632 73.3684 88.5679C72.8391 89.181 72.2331 89.5142 71.7463 89.7407L71.9276 89.7867C72.395 89.8947 72.9704 89.9077 73.4987 89.6825C73.5685 89.6524 73.6409 89.6172 73.7116 89.5763C74.4197 89.1707 75.0878 88.2245 75.7325 87.3125C76.2352 86.6013 76.7253 85.9075 77.2666 85.417C77.3969 85.2985 77.5371 85.1886 77.6835 85.0884L77.6829 85.0865C78.2976 84.6645 78.934 84.5007 79.5119 84.5392C80.1197 84.5793 80.6563 84.8422 81.0393 85.2611L81.0622 85.2879C81.1228 85.356 81.1759 85.4232 81.222 85.4883L81.2531 85.5389C81.9033 86.5254 81.7712 87.9921 81.5586 90.3439L81.5429 90.5208C81.4391 91.6787 81.3181 93.0643 81.2489 94.3085C81.2206 94.8074 81.2028 95.2685 81.1965 95.6601C81.3506 95.3255 81.5259 94.9395 81.6876 94.5816C82.3761 93.1209 84.1459 82.4144 84.4486 82.5514C84.2685 88.7022 83.6517 93.156 82.7671 95.1108C82.2561 96.2414 81.6504 97.5693 81.0575 97.7275L81.055 97.7261C80.5966 97.8486 80.2651 97.6687 80.1049 97.086C79.9702 96.5977 79.979 95.508 80.0484 94.2364C80.1148 93.0455 80.239 91.6117 80.3473 90.4095L80.363 90.2325C80.5511 88.1432 80.6686 86.8395 80.2585 86.1998L80.2357 86.1698C80.2117 86.1359 80.1889 86.1059 80.1691 86.0824L80.1536 86.066C79.977 85.8726 79.7256 85.7519 79.4364 85.7317C79.1172 85.7099 78.7487 85.813 78.3688 86.0728L78.3682 86.0709C78.2758 86.1341 78.1793 86.211 78.0771 86.3044C77.6366 86.7041 77.1838 87.3437 76.7189 88.0027C76.0024 89.018 75.2574 90.071 74.3145 90.6115C74.2062 90.6741 74.0936 90.7296 73.978 90.7786C73.181 91.1203 72.3363 91.1043 71.6608 90.9488C71.0044 90.7971 70.4636 90.4755 70.2327 90.1933C70.2067 90.1632 70.1845 90.1319 70.1644 90.0969C70.1492 90.071 70.134 90.0419 70.1215 90.011C69.8111 89.2943 70.2628 89.0941 70.9722 88.7794C71.3916 88.594 71.9989 88.3244 72.4623 87.7887C72.8104 87.386 73.1229 86.7901 73.4651 86.136C74.0436 85.0337 74.6996 83.7812 75.8358 82.7758C76.5757 82.1213 77.4847 81.6046 78.2835 81.151C79.1711 80.6469 79.876 80.2444 79.8413 80.1822C79.6646 79.8534 78.7011 79.4463 77.5381 79.1204C76.2915 78.7721 74.8707 78.5637 73.9104 78.6692C72.7874 78.7936 72.3186 79.436 71.8363 80.1001C71.5392 80.5076 71.2387 80.9214 70.7945 81.2917C70.1367 81.8421 69.2339 82.2235 68.4355 82.4774C67.6583 82.725 66.9776 82.8536 66.7441 82.8956C66.2649 82.9811 66.0481 82.9741 65.9491 82.4195L65.951 82.4189C65.879 82.0191 66.0274 81.9152 66.2938 81.7636C66.4384 81.6818 66.9416 81.3948 67.0387 80.7169C67.0915 80.3504 67.0414 79.8253 66.9868 79.2576C66.8599 77.9256 66.7136 76.3946 67.6441 75.2318C68.3196 74.3895 69.5167 73.8408 70.974 73.4417C72.3554 73.0631 73.9752 72.8111 75.5938 72.5584L75.5913 72.5571ZM71.2411 89.543C71.182 89.4387 71.1492 89.3792 71.2044 89.5088L71.2062 89.5114C71.2143 89.5205 71.2261 89.5317 71.2418 89.5418L71.2411 89.543Z" fill="#FF6624"/>
<path d="M98.8371 94.6544C98.6661 94.3722 98.7586 94.0044 99.044 93.8357C99.3302 93.6656 99.7011 93.7572 99.8733 94.04C100.369 94.8549 100.865 95.671 101.261 96.4681C101.673 97.2974 101.969 98.0949 102.032 98.8251C102.098 99.6069 101.903 100.292 101.546 100.904L101.547 100.906C101.211 101.483 100.731 101.982 100.196 102.434C100.033 102.572 99.8434 102.722 99.6607 102.865L99.6613 102.867C99.4702 103.017 99.2908 103.158 99.1569 103.271C99.8138 103.407 101.015 103.454 102.216 103.356C103.235 103.273 104.227 103.089 104.826 102.768C105.652 102.328 105.706 101.464 105.765 100.559C105.793 100.124 105.822 99.6809 105.914 99.2451C106.062 98.5434 106.37 97.8837 106.734 97.3073C107.206 96.5589 107.782 95.9436 108.231 95.5594C108.616 95.2298 108.936 95.0475 109.199 94.96C109.712 94.791 110.072 94.9318 110.315 95.1674C110.537 95.3819 110.593 95.5942 110.674 95.897C110.708 96.0266 110.75 96.1863 110.827 96.384C110.921 96.6281 111.068 96.9229 111.22 97.1854C111.321 97.3623 111.42 97.5188 111.503 97.6276C111.65 97.5765 111.842 97.509 112.11 97.4464C112.934 97.2532 117.467 97.6161 117.556 98.4667C112.354 98.0871 113.13 98.4322 112.392 98.606C112.173 98.6587 112.017 98.7121 111.899 98.7547C111.357 98.9438 111.159 99.0143 110.715 98.5515C110.553 98.3822 110.355 98.0915 110.171 97.7752C109.99 97.4583 109.813 97.1041 109.7 96.8123C109.607 96.572 109.552 96.3687 109.508 96.2012L109.492 96.1282C109.375 96.1849 109.222 96.2893 109.021 96.4602C108.644 96.7843 108.159 97.3034 107.757 97.9384C107.461 98.4076 107.213 98.9382 107.095 99.4921C107.016 99.8609 106.992 100.251 106.967 100.634C106.887 101.877 106.81 103.064 105.394 103.819C104.629 104.228 103.472 104.455 102.314 104.549C100.899 104.663 99.4375 104.583 98.7004 104.391L98.6548 104.379C97.856 104.157 97.6198 103.764 97.7425 103.244L97.7535 103.193C97.8769 102.744 98.359 102.363 98.9063 101.934L98.9069 101.936C99.0648 101.811 99.2304 101.681 99.4095 101.529C99.8499 101.157 100.24 100.754 100.499 100.309L100.501 100.309C100.738 99.9004 100.87 99.4455 100.825 98.9283C100.777 98.3608 100.527 97.7008 100.174 96.9936C99.8068 96.2561 99.3201 95.4542 98.8339 94.6543L98.8371 94.6544ZM111.555 97.6961L111.589 97.7335C111.647 97.7939 111.6 97.7447 111.555 97.6961Z" fill="#FF6624"/>
<path d="M44.9241 17.0577C44.7115 16.8047 44.7441 16.4273 44.9969 16.2168C45.2497 16.0062 45.6285 16.0408 45.8412 16.2938C51.4632 22.9034 57.084 29.5124 61.6445 36.4551C63.9293 39.9329 65.9378 43.4781 67.7328 46.9407C69.5285 50.402 71.1138 53.7872 72.5478 56.9378C73.0318 58.001 73.5445 59.1375 74.0384 60.2366C76.2122 65.0635 78.0448 69.1346 79.7944 71.8072C80.8401 73.4062 81.8618 74.5104 82.871 75.3661C83.8865 76.2284 84.9016 76.8502 85.9161 77.4702C86.1992 77.6435 86.2887 78.0108 86.1163 78.292C85.9439 78.5732 85.5758 78.6604 85.2927 78.4872C84.2342 77.8403 83.1765 77.1923 82.0974 76.2764C81.0108 75.3533 79.9129 74.1678 78.7918 72.4557C76.987 69.6987 75.1376 65.5895 72.9439 60.7181C72.4807 59.6887 72.0012 58.6231 71.4551 57.4251C70.0276 54.2924 68.4527 50.9273 66.6672 47.486C64.8831 44.0454 62.8923 40.5307 60.6406 37.1029C56.1297 30.2369 50.5281 23.6495 44.9278 17.0629L44.921 17.0544L44.9241 17.0577Z" fill="#FF6624"/>
<path d="M62.5176 38.0568C62.1934 37.984 61.9896 37.6632 62.0616 37.3425C62.133 37.0198 62.4538 36.8185 62.7761 36.8919C67.3214 37.9109 71.868 38.9306 75.9446 39.9616C80.0515 40.9994 83.7087 42.0532 86.4676 43.1394C89.2757 44.2456 91.1687 45.3914 92.6253 46.7876C94.085 48.1871 95.0827 49.8119 96.1078 51.8834C97.2236 54.1392 98.3807 56.9393 99.2233 59.8927C99.9082 62.2921 100.386 64.7961 100.469 67.2008C100.558 69.7488 100.202 72.1621 99.8679 74.4241C99.5118 76.8437 99.1803 79.088 99.477 81.0691C99.7548 82.9287 100.594 84.6101 101.677 86.0775C102.779 87.5715 104.132 88.8429 105.411 89.8632C106.686 90.8776 107.884 91.6403 109.112 92.18C110.326 92.7136 111.569 93.0294 112.943 93.1561C114.613 93.3102 116.496 93.1902 117.961 93.0979C119.004 93.0307 119.845 92.9785 120.324 93.043C120.642 93.0864 120.872 93.1976 121.011 93.3528L121.043 93.3907C121.288 93.6919 121.266 94.006 120.984 94.3103L120.983 94.3128C120.876 94.4295 120.706 94.541 120.481 94.6361L120.482 94.638C119.864 94.899 118.539 95.1529 116.615 95.1108C114.832 95.0719 112.501 94.7818 109.996 94.2463C107.772 93.7702 105.401 93.0992 103.146 92.2322C100.887 91.3651 98.7477 90.3061 96.8212 89.1713C94.6591 87.8984 92.7576 86.5272 91.2506 85.2248C88.3761 82.7433 86.9373 80.5363 85.4992 78.3279C85.3191 78.0505 85.3963 77.681 85.6744 77.5018C85.9518 77.3239 86.323 77.4027 86.5043 77.6808C87.8984 79.8203 89.2931 81.9617 92.0298 84.3222C93.4863 85.5798 95.3259 86.9064 97.4226 88.1409C99.2989 89.2454 101.38 90.2765 103.572 91.1192C104.533 91.4875 105.517 91.8202 106.5 92.1174C105.899 91.7309 105.294 91.2909 104.672 90.795C103.318 89.7169 101.886 88.3692 100.716 86.7859C99.5272 85.1758 98.6035 83.3168 98.2941 81.2386C97.972 79.0876 98.3155 76.7578 98.6869 74.2432C99.0116 72.0388 99.3589 69.6869 99.2729 67.2357C99.1929 64.9361 98.7324 62.5268 98.072 60.2114C97.2516 57.3344 96.1251 54.6071 95.0371 52.4083C94.0682 50.4524 93.1385 48.9271 91.8013 47.6467C90.461 46.363 88.689 45.2968 86.0325 44.2496C83.326 43.1835 79.7163 42.1441 75.655 41.1179C71.5651 40.0845 67.042 39.0694 62.5195 38.0563L62.5176 38.0568Z" fill="#FF6624"/>
<path d="M99.3815 82.3506C99.1803 82.2843 99.0669 82.0701 99.1292 81.8667C99.1923 81.6621 99.4099 81.5471 99.6156 81.611L99.639 81.6188C104.126 83.2171 108.613 84.8142 115.259 85.4658C118.671 85.7993 122.658 85.8863 126.754 85.7059C130.657 85.5345 134.656 85.1233 138.345 84.4533C142.071 83.7776 145.483 82.8392 148.54 81.6793C151.669 80.492 154.426 79.0737 156.773 77.4673C161.41 74.2933 164.475 70.3572 167.542 66.4218L167.569 66.3896C167.706 66.2459 167.936 66.2292 168.094 66.3564C168.252 66.483 168.285 66.7073 168.176 66.871L168.157 66.8965C165.057 70.8778 161.955 74.8585 157.216 78.1037C154.817 79.7466 152.004 81.1941 148.818 82.4025C145.718 83.5794 142.261 84.5291 138.487 85.2147C134.763 85.8899 130.728 86.3063 126.789 86.479C122.661 86.6597 118.634 86.5727 115.184 86.2348C108.433 85.5734 103.905 83.9622 99.379 82.3493L99.3815 82.3506Z" fill="#FF6624"/>
<path d="M99.8918 66.4482C99.6814 66.4865 99.4778 66.3463 99.4402 66.1359C99.4006 65.926 99.5402 65.7238 99.7512 65.6875C103.018 65.0998 106.286 64.5129 109.593 64.0899C112.918 63.6657 116.291 63.4046 119.76 63.4722C122.816 63.5321 125.947 63.8463 128.931 64.2899C132.721 64.8537 136.27 65.6267 139.126 66.3529C141.117 66.8596 142.773 67.3427 144.23 67.7691C146.493 68.4302 148.276 68.9511 150.082 69.1962C151.561 69.3969 153.072 69.4136 154.534 69.3333C156.007 69.2533 157.426 69.0756 158.711 68.8852C159.994 68.6954 161.148 68.4945 162.184 68.2343C163.202 67.9793 164.097 67.6682 164.88 67.2574C165.332 67.0202 165.755 66.7465 166.131 66.5025C166.6 66.1972 167.006 65.935 167.355 65.8103C167.938 65.6035 168.365 65.7038 168.603 66.3621C168.81 66.938 168.793 68.1165 168.572 69.6115C168.365 71.0153 167.985 72.7162 167.452 74.4648C166.909 76.2488 166.207 78.0894 165.389 79.9897C164.579 81.8687 163.646 83.8276 162.631 85.8557C161.62 87.8751 160.533 89.9574 159.28 91.8564C158.018 93.7721 156.589 95.4987 154.909 96.7821C153.312 98.0021 151.497 98.8182 149.565 99.3131C147.419 99.8622 145.13 100.017 142.836 99.8887C140.673 99.7675 138.509 99.3964 136.397 98.8985C134.298 98.4042 132.246 97.7836 130.297 97.1606C128.363 96.5438 126.524 95.9219 124.73 95.2989C122.843 94.6429 121.161 94.0394 119.482 93.4373C119.28 93.364 119.173 93.1424 119.245 92.9393C119.318 92.7381 119.54 92.6334 119.744 92.7062C121.525 93.3453 123.307 93.9832 124.985 94.5669C126.758 95.1842 128.588 95.8014 130.53 96.4222C132.457 97.0381 134.49 97.653 136.574 98.1443C138.646 98.632 140.766 98.9973 142.875 99.1148C145.092 99.239 147.301 99.0914 149.365 98.5626C151.202 98.0919 152.925 97.3199 154.431 96.1688C156.037 94.9421 157.41 93.2805 158.628 91.4326C159.857 89.5666 160.933 87.5068 161.934 85.5081C162.93 83.5169 163.855 81.5787 164.671 79.6821C165.478 77.8068 166.17 75.9914 166.704 74.2364C167.229 72.5122 167.602 70.8512 167.801 69.4948C168.003 68.1252 168.033 67.0826 167.867 66.6225C167.827 66.5105 167.739 66.4988 167.617 66.5425C167.346 66.6386 166.978 66.876 166.554 67.1522C166.162 67.4071 165.722 67.6911 165.242 67.9439C164.399 68.3864 163.447 68.7174 162.374 68.9865C161.32 69.2511 160.139 69.4569 158.825 69.6508C157.512 69.8441 156.066 70.0254 154.574 70.1072C153.07 70.1893 151.51 70.1704 149.976 69.9629C148.107 69.7101 146.3 69.1827 144.009 68.5123C142.558 68.088 140.911 67.6065 138.931 67.104C136.091 66.3814 132.568 65.6145 128.815 65.0543C125.863 64.6149 122.766 64.3044 119.743 64.245C116.313 64.1786 112.977 64.4359 109.69 64.8562C106.385 65.2786 103.135 65.8623 99.8861 66.4467L99.8918 66.4482Z" fill="#FF6624"/>
<path d="M61.3639 37.6486C61.4606 37.3331 61.7967 37.1577 62.1138 37.2558C62.4308 37.3539 62.6087 37.6897 62.5119 38.0052C61.8488 40.1694 61.1862 42.3355 60.5162 44.5427C59.8931 46.5963 59.3573 48.376 58.9987 49.6064C58.652 50.7964 58.4519 51.5302 58.5945 52.1485C58.7393 52.7809 59.2555 53.4406 60.3511 54.5217C61.494 55.6508 63.2324 57.1986 65.0938 58.7739C67.0314 60.4128 69.1034 62.0821 70.7757 63.3396C72.4086 64.5679 73.6453 65.3929 74.6839 66.0162C75.732 66.6461 76.5882 67.0778 77.4438 67.5107C77.739 67.6615 77.8574 68.0202 77.7077 68.3135C77.558 68.6069 77.1986 68.7231 76.9034 68.5723C76.0233 68.1278 75.1431 67.6833 74.0694 67.0379C72.9855 66.387 71.7112 65.5386 70.0577 64.2944C68.3747 63.0295 66.2827 61.343 64.3196 59.6823C62.4413 58.0931 60.6798 56.5248 59.5097 55.3682C58.2413 54.1135 57.6304 53.3013 57.4252 52.4043C57.2172 51.4945 57.4461 50.6409 57.847 49.2656C58.2352 47.9319 58.7662 46.1673 59.3674 44.1874C59.9217 42.3612 60.6431 40.0042 61.3652 37.6461L61.3639 37.6486Z" fill="#FF6624"/>
<path d="M165.007 79.1117C165.159 78.9571 165.408 78.9556 165.565 79.1076C165.721 79.2609 165.724 79.509 165.572 79.6643C163.288 81.98 161.005 84.2963 158.737 86.2754C156.452 88.2699 154.182 89.924 151.942 90.8967C148.134 92.5504 144.485 92.2212 141.134 91.9178C140.52 91.8616 139.917 91.8076 139.354 91.7689C137.477 91.638 135.719 91.6413 134.055 91.7214C132.395 91.8016 130.804 91.961 129.272 92.1427C127.727 92.3253 126.269 92.5259 124.855 92.7356C123.484 92.939 122.054 93.166 120.626 93.3937C120.41 93.4274 120.207 93.2809 120.172 93.0654C120.137 92.85 120.283 92.648 120.499 92.6143C121.87 92.3963 123.242 92.1769 124.734 91.9564C126.187 91.7416 127.659 91.5377 129.175 91.3586C130.703 91.1781 132.304 91.0177 134.011 90.9352C135.715 90.8526 137.506 90.8491 139.406 90.9814C140.012 91.024 140.602 91.0769 141.199 91.1307C144.457 91.4248 148.003 91.7448 151.62 90.1739C153.775 89.2379 155.981 87.6282 158.211 85.6815C160.459 83.7202 162.732 81.415 165.004 79.1104L165.007 79.1117Z" fill="#FF6624"/>
<path d="M106.746 84.9474C106.441 84.7251 106.34 84.4242 106.52 84.2761C106.7 84.1281 107.095 84.1893 107.401 84.4116C109.342 85.8299 111.284 87.2501 113.379 88.6099C115.444 89.9495 117.649 91.2263 120.137 92.3711C122.639 93.524 125.438 94.5511 128.386 95.5181C131.333 96.4833 134.467 97.3972 137.602 98.3106C137.958 98.415 138.261 98.7002 138.279 98.9469C138.297 99.1936 138.024 99.3094 137.668 99.205C134.538 98.293 131.408 97.3811 128.384 96.3893C125.36 95.3988 122.48 94.3411 119.888 93.1465C117.282 91.9457 114.979 90.6148 112.828 89.2177C110.709 87.842 108.727 86.3937 106.747 84.9462L106.746 84.9474Z" fill="#FF6624"/>
<path d="M67.3703 111.995C67.3078 111.924 67.3145 111.818 67.3852 111.756C67.4551 111.695 67.5622 111.701 67.6247 111.772L67.6278 111.775C69.0597 113.444 70.4916 115.112 70.9868 117.05C71.2594 118.117 71.2437 119.25 71.2319 120.17C71.2222 120.893 71.2144 121.484 71.3466 121.76C71.4831 122.043 71.8556 121.956 72.2449 121.772C72.543 121.631 72.8484 121.435 73.0902 121.278L73.1623 121.231C73.7939 120.823 73.9194 120.786 74.0429 120.749L74.0436 120.748C74.173 120.709 74.3023 120.671 74.582 120.712C74.7034 120.731 74.8513 120.763 75.0002 120.803C75.1617 120.847 75.3339 120.9 75.4786 120.951C75.6108 120.998 75.7168 121.042 75.8088 121.085C75.9046 121.13 75.9725 121.167 76.0341 121.2C76.1838 121.28 76.3109 121.349 76.5492 121.738C76.6603 121.92 76.7921 122.167 76.9245 122.412C77.0594 122.662 77.1935 122.913 77.2906 123.074C77.3884 123.232 77.4605 123.325 77.519 123.382C77.5693 123.43 77.614 123.455 77.658 123.479C77.741 123.524 77.7714 123.627 77.7277 123.708C77.6833 123.791 77.5797 123.821 77.4979 123.777C77.4325 123.741 77.3671 123.706 77.2832 123.624C77.2061 123.55 77.1172 123.438 77.0018 123.249C76.8869 123.061 76.7558 122.816 76.6246 122.572C76.4929 122.325 76.3611 122.079 76.2591 121.912C76.0709 121.605 75.9791 121.555 75.8721 121.498C75.8067 121.463 75.7363 121.425 75.6638 121.391C75.5851 121.353 75.4898 121.313 75.3646 121.268C75.237 121.222 75.0756 121.173 74.9127 121.128C74.772 121.091 74.6363 121.06 74.5327 121.045C74.3312 121.015 74.2366 121.044 74.142 121.072C74.0416 121.101 73.9393 121.132 73.3473 121.514L73.2752 121.561C73.0237 121.724 72.7072 121.929 72.3916 122.079C71.8387 122.34 71.2925 122.43 71.0401 121.904C70.8722 121.556 70.881 120.931 70.8919 120.163C70.9051 119.261 70.9189 118.153 70.6578 117.131C70.1828 115.27 68.7769 113.632 67.3703 111.995Z" fill="#FF6624"/>
<path d="M101.836 134.489C101.916 134.54 101.938 134.645 101.887 134.724C101.836 134.803 101.731 134.824 101.651 134.773C100.989 134.343 100.326 133.911 100.057 133.501C99.73 133.004 99.8855 132.571 100.999 132.267C102.009 131.992 103.91 131.809 105.846 131.782C107.582 131.758 109.353 131.86 110.543 132.136C113.138 132.737 113.058 134.147 113.011 134.932L113.009 134.97C112.971 135.65 112.993 135.762 113.015 135.863L113.019 135.883C113.04 135.973 113.066 136.067 113.187 136.221C113.255 136.308 113.348 136.409 113.447 136.511C113.564 136.629 113.687 136.745 113.792 136.835C113.987 137.003 114.124 137.089 114.241 137.164C114.293 137.197 114.341 137.226 114.412 137.248C114.491 137.271 114.605 137.289 114.793 137.295C114.985 137.301 115.266 137.294 115.547 137.288C115.824 137.281 116.104 137.273 116.322 137.281C116.544 137.288 116.686 137.311 116.789 137.34C116.901 137.373 116.964 137.412 117.027 137.452C117.107 137.502 117.132 137.607 117.082 137.685C117.032 137.765 116.927 137.789 116.848 137.738C116.806 137.712 116.763 137.684 116.695 137.665C116.616 137.642 116.501 137.625 116.314 137.619C116.123 137.612 115.84 137.62 115.559 137.626C115.281 137.633 115.003 137.64 114.787 137.633C114.567 137.626 114.423 137.603 114.317 137.572C114.202 137.538 114.135 137.496 114.064 137.451C113.936 137.371 113.791 137.28 113.573 137.091C113.459 136.993 113.327 136.87 113.207 136.748C113.096 136.635 112.994 136.524 112.92 136.429C112.753 136.215 112.719 136.084 112.689 135.955L112.686 135.942C112.657 135.817 112.629 135.692 112.67 134.949L112.672 134.911C112.713 134.227 112.783 133.003 110.467 132.464C109.307 132.194 107.564 132.095 105.852 132.118C103.943 132.144 102.075 132.324 101.089 132.593C100.311 132.804 100.165 133.052 100.339 133.314C100.568 133.663 101.201 134.075 101.835 134.486L101.836 134.489Z" fill="#FF6624"/>
<path d="M45.032 15.9541C45.9642 15.0114 46.8983 14.0681 47.5739 13.1984C47.4847 12.6073 47.5221 12.1067 47.6155 11.6557C47.7083 11.2059 47.859 10.8051 48.0218 10.5026C48.1307 10.3001 48.2515 10.1329 48.3696 10.0159C48.5513 9.83806 48.7545 9.75881 48.9569 9.80164C49.0064 9.81215 49.0513 9.82824 49.0928 9.85057L49.0997 9.85588C49.3455 9.99297 49.4919 10.4022 49.4342 10.9498C49.3898 11.382 49.2307 11.946 48.9072 12.5473C48.9013 12.5522 48.8689 12.6154 48.8622 12.6279C48.7246 12.8746 48.5581 13.1268 48.3711 13.384C48.512 14.0175 48.8218 14.7774 49.397 15.7283C49.88 16.525 50.5373 17.438 51.3306 18.5385C52.5412 20.2199 54.0605 22.3316 55.7322 25.0798C57.1197 27.3641 58.6236 30.1075 60.1857 33.0804C61.7653 36.0902 63.3624 39.2513 64.9602 42.4111L64.2918 42.7429C62.6716 39.5372 61.0521 36.3303 59.5247 33.4227C57.9784 30.4776 56.4842 27.7523 55.093 25.4629C53.425 22.7199 51.9223 20.6315 50.7258 18.9691C49.916 17.8451 49.2452 16.912 48.7585 16.1101C48.2956 15.3453 47.9894 14.6873 47.7985 14.1075C47.1493 14.8769 46.3596 15.6754 45.5699 16.4739L45.0353 15.951L45.032 15.9541ZM48.3007 12.0856C48.5376 11.6183 48.6539 11.1941 48.6884 10.8677L48.6917 10.8404L48.6822 10.8579C48.5484 11.1067 48.4251 11.4385 48.3478 11.8111C48.3294 11.8996 48.3142 11.9913 48.3007 12.0856Z" fill="#FF6624"/>
<path fill-rule="evenodd" clip-rule="evenodd" d="M104.328 81.67C107.795 80.3054 115.323 77.7761 120.819 74.8462C126.316 71.917 129.778 68.5865 129.999 68.5409C130.22 68.4953 127.197 71.7351 122.61 74.4478C118.023 77.1605 111.872 79.346 108.185 80.7569C104.498 82.1678 103.273 82.8014 102.364 83.0186C101.454 83.2352 100.86 83.0346 104.328 81.67Z" fill="#FF6624"/>
<path fill-rule="evenodd" clip-rule="evenodd" d="M119.297 85.1092C123.299 84.0323 131.917 82.0891 138.388 79.6844C144.86 77.2798 149.183 74.4123 149.432 74.3815C149.679 74.3501 145.851 77.1568 140.406 79.4079C134.961 81.659 127.901 83.3551 123.65 84.4628C119.4 85.5711 117.962 86.0897 116.936 86.244C115.909 86.3976 115.296 86.1869 119.297 85.1092Z" fill="#FF6624"/>
<path fill-rule="evenodd" clip-rule="evenodd" d="M127.703 85.9504C131.85 85.7914 140.697 85.8137 147.55 84.9102C154.405 84.0061 159.267 82.1749 159.515 82.2001C159.764 82.226 155.398 84.1071 149.58 85.0888C143.762 86.0705 136.491 86.1527 132.096 86.2878C127.7 86.4228 126.179 86.6087 125.144 86.5305C124.107 86.4529 123.555 86.1107 127.702 85.9516L127.703 85.9504Z" fill="#FF6624"/>
<path fill-rule="evenodd" clip-rule="evenodd" d="M71.1788 50.6986C74.0895 52.0454 80.1381 55.2239 85.2301 56.9094C90.3221 58.5948 94.4567 58.7851 94.6152 58.8946C94.775 59.0047 90.9585 59.0339 86.571 58.0321C82.1854 57.0298 77.2287 54.9965 74.1583 53.5396C71.0892 52.0833 69.9063 51.2035 69.1999 50.5204C68.4948 49.8381 68.2662 49.3524 71.1769 50.6992L71.1788 50.6986Z" fill="#FF6624"/>
<path fill-rule="evenodd" clip-rule="evenodd" d="M75.0993 60.9783C77.7337 63.719 83.1183 69.8655 87.8825 73.8666C92.6467 77.8677 96.7887 79.7238 96.9244 79.9177C97.0602 80.1116 93.1885 78.6395 88.9805 75.7243C84.7724 72.809 80.2261 68.4481 77.4573 65.5142C74.6884 62.5802 73.695 61.0738 73.1389 59.988C72.5827 58.9021 72.465 58.2376 75.0993 60.9783Z" fill="#FF6624"/>
<path fill-rule="evenodd" clip-rule="evenodd" d="M66.045 46.407C66.2773 48.0858 66.9019 51.7069 67.0568 54.4128C67.2118 57.1187 66.8998 58.9076 66.9263 59.0122C66.9528 59.1167 67.3184 57.5355 67.3519 55.3598C67.3854 53.184 67.0872 50.4156 66.8291 48.631C66.5704 46.8476 66.3535 46.0507 66.1638 45.5199C65.9754 44.9898 65.8154 44.7264 66.0457 46.4058L66.045 46.407Z" fill="#FF6624"/>
<path d="M94.5874 96.3122C94.8923 96.8099 95.2871 97.1222 95.2898 97.1414C95.2918 97.1618 94.9022 96.891 94.5836 96.4971C93.5378 95.2059 92.6221 92.8676 92.9943 91.2835C93.013 91.2065 93.0349 91.1296 93.063 91.0561C93.2134 90.647 93.4879 90.3418 93.8584 90.1688C94.216 90.0017 94.6549 89.9638 95.145 90.0809C95.256 90.1067 95.3731 90.1423 95.4932 90.1876C96.0751 90.4023 96.7247 90.8292 97.3268 91.3804C97.9053 91.9092 98.4492 92.5565 98.8529 93.2444C99.242 93.9051 99.5031 94.6016 99.6501 95.2481C99.8175 95.9861 99.8359 96.6666 99.7265 97.1622C99.7252 97.1647 99.7208 97.1849 99.7201 97.1894C99.6014 97.6994 99.3454 98.0274 99.0205 98.2121C98.6944 98.3961 98.3113 98.4269 97.9326 98.3408C97.9301 98.3395 97.9142 98.3358 97.9091 98.3363C97.552 98.2522 97.1959 98.0638 96.905 97.8267C96.6034 97.5822 96.3647 97.2781 96.2575 96.9738C96.0976 96.5234 96.2199 96.1363 96.3366 95.7655C96.375 95.6459 96.4115 95.5269 96.433 95.4176C96.4672 95.2394 96.4611 95.0668 96.4377 94.9173C96.3251 94.1829 95.8294 94.8511 95.8378 95.2666C95.8445 95.6039 96.15 95.8682 96.1363 95.8786C96.1219 95.8902 95.7864 95.6484 95.6666 95.3615C95.5427 95.0643 95.8317 93.6015 96.3601 93.8858C96.507 93.8569 96.6235 93.8696 96.7561 93.9909C96.8283 94.0587 96.885 94.1553 96.9438 94.3143C96.9896 94.4373 97.0454 94.614 97.0773 94.823C97.1098 95.0371 97.1189 95.2854 97.0697 95.5426C97.0422 95.6842 96.9989 95.822 96.9542 95.9624C96.8682 96.2337 96.7788 96.5176 96.8665 96.7647C96.9334 96.9538 97.0989 97.1557 97.3131 97.3305C97.5322 97.5081 97.7971 97.649 98.0583 97.7122L98.0735 97.7171C98.3038 97.7685 98.5263 97.756 98.7026 97.6574C98.8776 97.5582 99.0202 97.3625 99.0947 97.0431L99.1004 97.0236C99.1907 96.6144 99.1709 96.0332 99.0245 95.3886C98.8919 94.8031 98.6545 94.1709 98.3002 93.5692C97.93 92.9397 97.4306 92.3453 96.8969 91.8568C96.3521 91.3589 95.7773 90.9771 95.2724 90.7909C95.1801 90.7574 95.0896 90.7296 94.9989 90.7082C94.6552 90.6265 94.3617 90.6475 94.1347 90.7526C93.9207 90.8519 93.7606 91.0349 93.6689 91.2838C93.6523 91.3297 93.6363 91.3807 93.6245 91.4356C93.5067 91.938 94.1079 95.5271 94.5887 96.3129L94.5874 96.3122Z" fill="#FF6624"/>
<path d="M103.748 107.011C104.92 107.133 105.73 107.419 105.774 107.413C105.817 107.408 105.095 107.113 104.139 106.936C101.003 106.36 95.7036 106.318 92.4953 107.31C92.3395 107.358 92.1861 107.411 92.0403 107.468C91.2333 107.78 90.6938 108.18 90.4703 108.625C90.2549 109.056 90.3424 109.52 90.7785 109.979C90.8785 110.083 90.9981 110.189 91.1388 110.295C91.8179 110.809 92.9715 111.312 94.3684 111.719C95.7102 112.11 97.2885 112.418 98.8992 112.569C100.446 112.714 102.022 112.714 103.446 112.616C105.072 112.505 106.52 112.262 107.526 111.959C107.533 111.956 107.573 111.944 107.581 111.941C108.614 111.623 109.212 111.234 109.475 110.83C109.741 110.424 109.656 110.02 109.329 109.663C109.324 109.66 109.311 109.645 109.31 109.641C108.994 109.307 108.459 109.014 107.847 108.806C107.213 108.591 106.478 108.462 105.791 108.469C104.777 108.479 104.003 108.753 103.265 109.015C103.026 109.101 102.79 109.183 102.567 109.247C102.204 109.35 101.835 109.409 101.508 109.444C99.9097 109.611 101.136 108.846 102.016 108.694C102.733 108.57 103.408 108.784 103.426 108.765C103.445 108.745 102.804 108.494 102.151 108.481C101.475 108.468 98.4902 109.328 99.2941 109.76C99.2916 109.922 99.3605 110.038 99.669 110.125C99.8394 110.173 100.067 110.192 100.425 110.193C100.703 110.193 101.098 110.181 101.552 110.134C102.02 110.085 102.548 109.999 103.072 109.849C103.36 109.767 103.636 109.669 103.917 109.568C104.458 109.376 105.023 109.176 105.579 109.17C106.003 109.166 106.496 109.257 106.947 109.411C107.408 109.567 107.809 109.785 108.04 110.03L108.054 110.044C108.251 110.261 108.311 110.493 108.169 110.712C108.028 110.931 107.667 111.151 107.02 111.351L106.981 111.362C106.149 111.612 104.914 111.815 103.494 111.913C102.203 112.002 100.773 112.002 99.3658 111.87C97.8914 111.731 96.4394 111.448 95.2027 111.087C93.9407 110.72 92.9112 110.275 92.3234 109.83C92.2165 109.748 92.123 109.666 92.043 109.582C91.7371 109.262 91.6684 108.952 91.8042 108.679C91.9331 108.421 92.2574 108.186 92.7471 107.996C92.8374 107.961 92.9392 107.926 93.05 107.892C94.067 107.578 101.896 106.815 103.743 107.006L103.748 107.011Z" fill="#FF6624"/>
<path d="M71.1763 73.7892C71.4812 74.2869 71.876 74.5992 71.8787 74.6184C71.8806 74.6388 71.4911 74.3679 71.1725 73.9741C70.1267 72.6829 69.211 70.3446 69.5831 68.7605C69.6018 68.6835 69.6237 68.6066 69.6519 68.5331C69.8023 68.124 70.0768 67.8188 70.4473 67.6458C70.8048 67.4787 71.2437 67.4408 71.7339 67.5578C71.8449 67.5837 71.962 67.6193 72.082 67.6646C72.664 67.8793 73.3136 68.3062 73.9157 68.8574C74.4941 69.3862 75.0381 70.0335 75.4418 70.7214C75.8309 71.382 76.092 72.0786 76.2389 72.7251C76.4064 73.4631 76.4247 74.1436 76.3154 74.6392C76.3141 74.6417 76.3097 74.6619 76.3089 74.6664C76.1903 75.1763 75.9343 75.5044 75.6094 75.6891C75.2833 75.8731 74.9001 75.9039 74.5214 75.8178C74.5189 75.8165 74.5031 75.8128 74.498 75.8133C74.1409 75.7291 73.7848 75.5408 73.4939 75.3037C73.1923 75.0592 72.9536 74.7551 72.8464 74.4508C72.6864 74.0004 72.8087 73.6133 72.9255 73.2425C72.9639 73.1229 73.0003 73.0039 73.0218 72.8946C73.0561 72.7164 73.05 72.5438 73.0266 72.3943C72.914 71.6599 72.4182 72.3281 72.4266 72.7436C72.4333 73.0809 72.7389 73.3452 72.7252 73.3556C72.7108 73.3672 72.3753 73.1254 72.2555 72.8385C72.1315 72.5413 72.4206 71.0785 72.9489 71.3628C73.0959 71.3339 73.2124 71.3465 73.345 71.4679C73.4172 71.5357 73.4739 71.6323 73.5327 71.7913C73.5785 71.9143 73.6343 72.091 73.6662 72.3C73.6986 72.514 73.7078 72.7624 73.6586 73.0196C73.6311 73.1612 73.5878 73.299 73.5431 73.4394C73.4571 73.7107 73.3676 73.9946 73.4553 74.2416C73.5223 74.4308 73.6878 74.6327 73.9019 74.8075C74.1211 74.9851 74.3859 75.126 74.6472 75.1891L74.6624 75.1941C74.8927 75.2455 75.1151 75.233 75.2914 75.1344C75.4665 75.0352 75.6091 74.8395 75.6836 74.5201L75.6892 74.5006C75.7796 74.0914 75.7598 73.5102 75.6134 72.8656C75.4807 72.2801 75.2434 71.6479 74.889 71.0462C74.5189 70.4166 74.0194 69.8223 73.4858 69.3338C72.941 68.8359 72.3661 68.4541 71.8613 68.2679C71.769 68.2344 71.6785 68.2066 71.5878 68.1852C71.2441 68.1035 70.9505 68.1245 70.7236 68.2296C70.5096 68.3289 70.3495 68.5119 70.2578 68.7608C70.2412 68.8067 70.2251 68.8577 70.2134 68.9126C70.0956 69.415 70.6968 73.0041 71.1776 73.7899L71.1763 73.7892Z" fill="#FF6624"/>
<path fill-rule="evenodd" clip-rule="evenodd" d="M39.8268 80.7812C39.3358 82.5561 38.052 86.29 37.66 89.319C37.268 92.348 37.7667 94.6714 37.7147 94.774C37.6622 94.8747 37.0597 92.7533 37.0858 90.1964C37.1118 87.6395 37.767 84.6457 38.3112 82.7689C38.8535 80.8927 39.2835 80.1327 39.6507 79.6613C40.0166 79.1893 40.319 79.007 39.8293 80.7826L39.8268 80.7812Z" fill="#FF6624"/>
<path fill-rule="evenodd" clip-rule="evenodd" d="M59.0146 59.7248C58.5417 60.1184 56.4985 61.3531 54.9439 62.7201C53.3892 64.0871 52.3211 65.5869 50.9134 66.6445C49.5057 67.7022 47.7585 68.3176 47.2371 69.9439C46.7157 71.5703 47.4208 74.2095 47.7101 75.7159C47.9988 77.2236 47.8717 77.5984 47.493 77.7477C47.1149 77.8956 46.487 77.8174 45.9877 77.2892C45.4896 76.7617 45.1194 75.7856 45.0367 74.7965C44.954 73.8075 45.157 72.8061 45.4255 71.5805C45.694 70.3548 46.0267 68.9042 46.4792 67.647C46.9311 66.3911 47.5034 65.3273 48.3703 64.7202C49.2371 64.113 50.401 63.9607 51.936 63.2875C53.473 62.6138 55.3823 61.4198 56.8862 60.5994C58.3901 59.7789 59.4868 59.3325 59.0139 59.7261L59.0146 59.7248Z" fill="#FF6624"/>
<path fill-rule="evenodd" clip-rule="evenodd" d="M80.51 113.399C80.7241 112.829 82.365 114.488 84.0262 115.661C85.6881 116.832 87.371 117.515 89.5 117.921C91.6303 118.327 94.2081 118.454 96.9417 119.017C99.6766 119.581 102.568 120.581 104.938 121.578C107.308 122.576 109.159 123.572 110.63 123.919C112.101 124.265 113.195 123.966 114.14 122.659C115.085 121.352 115.882 119.041 116.79 118.288C117.698 117.536 118.717 118.343 120.249 119.445C121.781 120.547 123.825 121.943 125.965 123.299C128.106 124.654 130.343 125.969 132.099 125.544C133.856 125.119 135.133 122.954 135.689 121.087C136.246 119.22 136.084 117.652 136.08 117.798C136.076 117.944 136.23 119.805 136.063 121.641C135.894 123.477 135.405 125.288 134.668 126.519C133.93 127.752 132.945 128.407 131.362 128.092C129.78 127.777 127.601 126.494 125.553 124.966C123.505 123.439 121.589 121.667 120.238 120.922C118.887 120.177 118.103 120.458 117.471 121.805C116.84 123.149 116.363 125.561 115.607 126.967C114.849 128.375 113.813 128.779 111.877 128.219C109.941 127.66 107.109 126.136 103.788 124.756C100.468 123.377 96.6588 122.142 93.58 121.596C90.5012 121.05 88.1504 121.192 86.4625 120.971C84.7752 120.748 83.749 120.159 82.63 118.464C81.511 116.769 80.2971 113.969 80.5107 113.397L80.51 113.399Z" fill="#FF6624"/>
<path fill-rule="evenodd" clip-rule="evenodd" d="M44.7765 96.7022C44.6991 97.7083 44.3138 99.7722 44.5796 101.579C44.8454 103.385 45.761 104.933 45.736 104.986C45.7097 105.038 44.742 103.595 44.2462 102.008C43.7503 100.422 43.7263 98.6904 43.83 97.6324C43.9324 96.5737 44.1606 96.1887 44.3919 95.9698C44.622 95.7503 44.8544 95.698 44.7783 96.7048L44.7765 96.7022Z" fill="#FF6624"/>
<path fill-rule="evenodd" clip-rule="evenodd" d="M57.9308 109.48C57.8534 110.487 57.4681 112.55 57.7339 114.357C57.9997 116.163 58.9153 117.712 58.8903 117.764C58.864 117.816 57.8963 116.374 57.4004 114.787C56.9046 113.2 56.8806 111.469 56.9842 110.411C57.0867 109.352 57.3149 108.967 57.5462 108.748C57.7762 108.529 58.0087 108.476 57.9326 109.483L57.9308 109.48Z" fill="#FF6624"/>
<path fill-rule="evenodd" clip-rule="evenodd" d="M124.557 133.879C123.346 135.267 120.938 138.396 118.626 140.392C116.315 142.388 114.101 143.252 114.044 143.352C113.989 143.452 116.091 142.785 118.211 141.355C120.33 139.924 122.467 137.728 123.733 136.239C125 134.753 125.398 133.975 125.589 133.409C125.781 132.844 125.766 132.491 124.554 133.878L124.557 133.879Z" fill="#FF6624"/>
<path fill-rule="evenodd" clip-rule="evenodd" d="M109.121 136.753C107.598 137.207 104.434 138.264 101.775 138.856C99.1146 139.446 96.9615 139.571 96.8775 139.606C96.7936 139.642 98.7813 139.589 101.07 139.217C103.358 138.843 105.949 138.149 107.554 137.659C109.159 137.17 109.78 136.885 110.15 136.667C110.521 136.448 110.642 136.298 109.119 136.752L109.121 136.753Z" fill="#FF6624"/>
<path fill-rule="evenodd" clip-rule="evenodd" d="M96.6628 134.807C93.9453 134.307 88.1822 133.426 83.631 132.27C79.0799 131.114 75.7407 129.683 75.5808 129.67C75.4203 129.658 78.441 131.065 82.2261 132.249C86.0112 133.433 90.5595 134.392 93.4368 134.905C96.3142 135.419 97.5194 135.482 98.2855 135.454C99.0515 135.426 99.3803 135.307 96.6628 134.807Z" fill="#FF6624"/>
<path d="M50.3726 48.9273C50.0846 48.8626 49.7259 48.8598 49.3683 48.9156C49.0368 48.9678 48.7098 49.0691 48.4517 49.2171C48.25 49.3327 48.0884 49.4794 47.9984 49.6196C47.9536 49.6906 47.9262 49.7597 47.9239 49.8213C47.921 49.881 47.9412 49.9338 47.9885 49.9786C48.0309 50.0175 48.0951 50.0488 48.1833 50.0689C48.4542 50.1292 48.939 50.0902 49.433 49.9982C49.9425 49.9015 50.4496 49.7489 50.7265 49.59C50.8232 49.534 50.8853 49.4788 50.9161 49.4276L50.9201 49.4201C50.9443 49.3751 50.9494 49.3295 50.9366 49.2839L50.9367 49.2807C50.9216 49.2275 50.8822 49.174 50.8235 49.1263C50.7205 49.0403 50.5623 48.9697 50.3707 48.9278L50.3726 48.9273ZM49.4396 48.6655C49.8517 48.6019 50.2652 48.6052 50.5983 48.6796C50.8267 48.7315 51.0165 48.8159 51.1406 48.9198C51.2193 48.9847 51.2728 49.0602 51.2954 49.1417L51.2966 49.1455C51.3197 49.2321 51.307 49.3252 51.252 49.4214L51.2459 49.4326C51.179 49.5449 51.0579 49.6554 50.8744 49.7614C50.5359 49.9564 49.9527 50.1359 49.3804 50.2439C48.8311 50.3481 48.2805 50.3887 47.9575 50.3165C47.8275 50.2869 47.7311 50.2399 47.6664 50.1792C47.5899 50.1074 47.5566 50.0186 47.5606 49.9176C47.5646 49.8198 47.6039 49.7136 47.6725 49.6071C47.7979 49.4102 48.0231 49.2058 48.3026 49.045C48.6333 48.8555 49.0364 48.7274 49.4383 48.6648L49.4396 48.6655Z" fill="#FF6624"/>
<path d="M38.021 67.1241C37.7766 66.8878 37.5448 66.5439 37.3707 66.1649C37.2015 65.795 37.0863 65.3881 37.0622 65.0076C37.0423 64.6858 37.0882 64.3865 37.184 64.1722C37.2364 64.0568 37.3021 63.9649 37.3815 63.9077C37.4629 63.8499 37.556 63.8275 37.6581 63.8518C37.7444 63.8724 37.8367 63.9269 37.9331 64.0191C38.1713 64.2488 38.4408 64.7307 38.6565 65.2464C38.8817 65.7835 39.0527 66.3703 39.0771 66.759C39.0898 66.9706 39.0631 67.1319 39.0075 67.2503L39.0014 67.2615C38.9515 67.3604 38.8796 67.4216 38.7958 67.4507L38.792 67.4519C38.7115 67.4779 38.6197 67.4736 38.5215 67.445C38.3664 67.3986 38.1902 67.286 38.0222 67.1248L38.021 67.1241ZM37.5401 65.9676C37.6907 66.2968 37.8906 66.5946 38.1033 66.7992C38.2445 66.9348 38.39 67.0292 38.5185 67.0678C38.5913 67.0892 38.6556 67.0932 38.7097 67.0771L38.7123 67.0753C38.7561 67.0602 38.7926 67.0315 38.8169 66.9865L38.8209 66.979C38.8466 66.9252 38.8585 66.8429 38.8519 66.7314C38.8332 66.4134 38.6812 65.9061 38.4798 65.427C38.2864 64.9635 38.0504 64.5367 37.8501 64.3452C37.7848 64.2826 37.7233 64.2463 37.6675 64.2324C37.606 64.217 37.5488 64.2298 37.5006 64.2651C37.4505 64.301 37.4087 64.3607 37.3733 64.4384C37.306 64.5908 37.2726 64.8065 37.2873 65.0385C37.306 65.3355 37.4004 65.6635 37.5407 65.9695L37.5401 65.9676Z" fill="#FF6624"/>
<path d="M144.087 114.084C143.843 113.847 143.611 113.503 143.437 113.125C143.268 112.755 143.153 112.348 143.129 111.967C143.109 111.645 143.155 111.346 143.25 111.132C143.303 111.016 143.368 110.924 143.448 110.867C143.529 110.809 143.622 110.787 143.725 110.811C143.811 110.832 143.903 110.886 144 110.979C144.238 111.208 144.507 111.69 144.723 112.206C144.948 112.743 145.119 113.33 145.144 113.719C145.156 113.93 145.129 114.091 145.074 114.21L145.068 114.221C145.018 114.32 144.946 114.381 144.862 114.41L144.858 114.411C144.778 114.437 144.686 114.433 144.588 114.405C144.433 114.358 144.257 114.246 144.089 114.084L144.087 114.084ZM143.607 112.927C143.757 113.256 143.957 113.554 144.17 113.759C144.311 113.894 144.456 113.989 144.585 114.027C144.658 114.049 144.722 114.053 144.776 114.037L144.779 114.035C144.823 114.02 144.859 113.991 144.883 113.946L144.887 113.939C144.913 113.885 144.925 113.802 144.918 113.691C144.9 113.373 144.748 112.866 144.546 112.387C144.353 111.923 144.117 111.496 143.917 111.305C143.851 111.242 143.79 111.206 143.734 111.192C143.672 111.177 143.615 111.189 143.567 111.225C143.517 111.261 143.475 111.32 143.44 111.398C143.372 111.55 143.339 111.766 143.354 111.998C143.372 112.295 143.467 112.623 143.607 112.929L143.607 112.927Z" fill="#FF6624"/>
<path d="M108.243 57.0112C107.998 56.775 107.766 56.431 107.592 56.0521C107.423 55.6822 107.308 55.2752 107.284 54.8948C107.264 54.573 107.31 54.2737 107.406 54.0593C107.458 53.944 107.524 53.852 107.603 53.7948C107.685 53.737 107.778 53.7146 107.88 53.7389C107.966 53.7595 108.058 53.8141 108.155 53.9062C108.393 54.1359 108.663 54.6178 108.878 55.1336C109.103 55.6706 109.274 56.2575 109.299 56.6462C109.312 56.8577 109.285 57.019 109.229 57.1374L109.223 57.1487C109.173 57.2475 109.101 57.3088 109.018 57.3379L109.014 57.339C108.933 57.365 108.841 57.3607 108.743 57.3321C108.588 57.2857 108.412 57.1732 108.244 57.0119L108.243 57.0112ZM107.762 55.8547C107.912 56.1839 108.112 56.4817 108.325 56.6864C108.466 56.822 108.612 56.9164 108.74 56.9549C108.813 56.9763 108.877 56.9803 108.931 56.9643L108.934 56.9625C108.978 56.9474 109.014 56.9187 109.039 56.8737L109.043 56.8662C109.068 56.8123 109.08 56.73 109.074 56.6185C109.055 56.3006 108.903 55.7932 108.702 55.3142C108.508 54.8506 108.272 54.4239 108.072 54.2323C108.007 54.1698 107.945 54.1334 107.889 54.1195C107.828 54.1042 107.771 54.1169 107.722 54.1523C107.672 54.1882 107.63 54.2478 107.595 54.3256C107.528 54.4779 107.494 54.6937 107.509 54.9256C107.528 55.2226 107.622 55.5506 107.762 55.8566L107.762 55.8547Z" fill="#FF6624"/>
<path d="M142.741 125.866C142.453 125.801 142.094 125.799 141.736 125.854C141.405 125.907 141.078 126.008 140.82 126.156C140.618 126.271 140.457 126.418 140.367 126.558C140.322 126.629 140.294 126.698 140.292 126.76C140.289 126.82 140.309 126.873 140.357 126.917C140.399 126.956 140.463 126.988 140.551 127.008C140.822 127.068 141.307 127.029 141.801 126.937C142.311 126.84 142.818 126.688 143.095 126.529C143.191 126.473 143.253 126.417 143.284 126.366L143.288 126.359C143.312 126.314 143.318 126.268 143.305 126.223L143.305 126.219C143.29 126.166 143.25 126.113 143.192 126.065C143.089 125.979 142.93 125.908 142.739 125.867L142.741 125.866ZM141.808 125.604C142.22 125.541 142.633 125.544 142.966 125.618C143.195 125.67 143.385 125.755 143.509 125.859C143.587 125.923 143.641 125.999 143.664 126.08L143.665 126.084C143.688 126.171 143.675 126.264 143.62 126.36L143.614 126.371C143.547 126.484 143.426 126.594 143.243 126.7C142.904 126.895 142.321 127.075 141.749 127.183C141.199 127.287 140.649 127.327 140.326 127.255C140.196 127.226 140.099 127.179 140.035 127.118C139.958 127.046 139.925 126.957 139.929 126.856C139.933 126.759 139.972 126.652 140.041 126.546C140.166 126.349 140.391 126.144 140.671 125.984C141.001 125.794 141.405 125.666 141.806 125.603L141.808 125.604Z" fill="#FF6624"/>
<path d="M85.9786 30.0764C85.7321 30.034 85.4616 30.0786 85.2184 30.196L85.2119 30.199C84.9893 30.3081 84.7945 30.4773 84.6704 30.6959C84.6013 30.8183 84.5535 30.9554 84.5306 31.0913C84.5069 31.2349 84.5095 31.3749 84.5439 31.4918C84.5766 31.6029 84.6373 31.6951 84.731 31.7472C84.7693 31.7694 84.8129 31.7848 84.8606 31.7927C85.0925 31.832 85.439 31.7187 85.7656 31.5366C86.104 31.3479 86.4149 31.0896 86.5477 30.8548C86.5819 30.7943 86.602 30.7389 86.6117 30.6877C86.6275 30.598 86.6063 30.5108 86.5593 30.4323L86.5557 30.4239C86.4995 30.3324 86.4104 30.2507 86.3023 30.1893L86.2986 30.1873C86.2036 30.1346 86.0949 30.0954 85.9806 30.0758L85.9786 30.0764ZM85.1531 29.874C85.432 29.7387 85.7461 29.6885 86.0301 29.7365C86.1667 29.7601 86.2963 29.8056 86.4094 29.8697L86.4144 29.8724C86.5558 29.9533 86.6754 30.0628 86.7547 30.1957L86.7608 30.2055C86.8505 30.3585 86.8896 30.5391 86.856 30.737C86.8385 30.842 86.8011 30.9476 86.7414 31.0525C86.5778 31.3417 86.2216 31.6449 85.8418 31.8564C85.4775 32.0601 85.0828 32.1847 84.8064 32.1375C84.7353 32.125 84.6714 32.102 84.6155 32.0703C84.4628 31.9833 84.3617 31.8305 84.3074 31.645C84.2561 31.4659 84.2491 31.2558 84.2842 31.049C84.3161 30.8599 84.3807 30.6706 84.4746 30.5051C84.6329 30.226 84.8748 30.0144 85.1459 29.8814L85.1531 29.8772L85.1531 29.874Z" fill="#FF6624"/>
<path d="M36.504 51.3516C36.2575 51.3093 35.987 51.3539 35.7438 51.4713L35.7373 51.4743C35.5147 51.5834 35.3199 51.7526 35.1958 51.9711C35.1267 52.0935 35.0789 52.2306 35.056 52.3666C35.0323 52.5102 35.0349 52.6502 35.0693 52.7671C35.102 52.8781 35.1627 52.9704 35.2563 53.0224C35.2947 53.0447 35.3383 53.0601 35.3859 53.068C35.6178 53.1073 35.9643 52.9939 36.291 52.8118C36.6294 52.6232 36.9403 52.3649 37.0731 52.1301C37.1073 52.0695 37.1273 52.0142 37.137 51.963C37.1529 51.8732 37.1317 51.786 37.0847 51.7076L37.0804 51.7004C37.0249 51.6077 36.9352 51.5272 36.8271 51.4658L36.8233 51.4638C36.7284 51.4111 36.6196 51.3719 36.5053 51.3523L36.504 51.3516ZM35.6785 51.1493C35.9573 51.014 36.2715 50.9638 36.5555 51.0118C36.6921 51.0353 36.8217 51.0809 36.9348 51.145L36.9398 51.1477C37.0812 51.2286 37.2008 51.338 37.2801 51.471L37.2862 51.4807C37.3758 51.6337 37.4149 51.8143 37.3814 52.0123C37.3639 52.1173 37.3265 52.2229 37.2668 52.3278C37.1032 52.6169 36.747 52.9202 36.3672 53.1317C36.0029 53.3354 35.6082 53.4599 35.3318 53.4128C35.2607 53.4003 35.1968 53.3773 35.1409 53.3455C34.9882 53.2585 34.8871 53.1058 34.8328 52.9203C34.7815 52.7412 34.7745 52.5311 34.8095 52.3243C34.8415 52.1352 34.9061 51.9458 35 51.7804C35.1583 51.5012 35.4002 51.2897 35.6713 51.1567L35.6785 51.1525L35.6785 51.1493Z" fill="#FF6624"/>
<path d="M122.399 129.639C122.152 129.597 121.881 129.642 121.638 129.759L121.632 129.762C121.409 129.871 121.214 130.04 121.09 130.259C121.021 130.381 120.973 130.518 120.951 130.654C120.927 130.798 120.929 130.938 120.964 131.055C120.997 131.166 121.057 131.258 121.151 131.31C121.189 131.332 121.233 131.348 121.28 131.356C121.512 131.395 121.859 131.282 122.186 131.1C122.524 130.911 122.835 130.653 122.968 130.418C123.002 130.357 123.022 130.302 123.032 130.251C123.047 130.161 123.026 130.074 122.979 129.995L122.975 129.988C122.919 129.895 122.83 129.815 122.722 129.753L122.718 129.751C122.623 129.699 122.514 129.66 122.4 129.64L122.399 129.639ZM121.573 129.437C121.852 129.302 122.166 129.251 122.45 129.299C122.587 129.323 122.716 129.369 122.829 129.433L122.834 129.435C122.976 129.516 123.095 129.626 123.175 129.759L123.181 129.768C123.27 129.921 123.309 130.102 123.276 130.3C123.258 130.405 123.221 130.511 123.161 130.615C122.998 130.905 122.642 131.208 122.262 131.419C121.897 131.623 121.503 131.748 121.226 131.7C121.155 131.688 121.091 131.665 121.035 131.633C120.883 131.546 120.782 131.393 120.727 131.208C120.676 131.029 120.669 130.819 120.704 130.612C120.736 130.423 120.801 130.233 120.895 130.068C121.053 129.789 121.295 129.577 121.566 129.444L121.573 129.44L121.573 129.437Z" fill="#FF6624"/>
<path d="M63.6283 74.7941C63.1531 74.7125 62.6299 74.7985 62.161 75.0249C61.7269 75.2347 61.3458 75.5632 61.1037 75.989C60.9702 76.2251 60.8774 76.4911 60.8332 76.7542C60.7867 77.0306 60.7933 77.3017 60.8579 77.5283C60.921 77.7427 61.0387 77.9189 61.2184 78.0221C61.2932 78.0639 61.376 78.0939 61.4694 78.1103C61.9166 78.1866 62.5858 77.9679 63.2165 77.6158C63.8699 77.2516 64.4676 76.7527 64.7257 76.3001C64.7915 76.1839 64.8314 76.0765 64.8476 75.9771C64.8759 75.8038 64.8359 75.634 64.7469 75.4829C64.6383 75.2988 64.4633 75.1386 64.2484 75.0165C64.0617 74.9112 63.85 74.8344 63.6257 74.7959L63.6283 74.7941ZM62.0382 74.4028C62.5777 74.1418 63.1804 74.0437 63.7287 74.1372C63.9961 74.1828 64.2496 74.2725 64.4702 74.3992C64.7499 74.5577 64.9839 74.7771 65.1382 75.039C65.3113 75.3353 65.3861 75.6818 65.322 76.0632C65.2884 76.2643 65.217 76.4693 65.1017 76.6716C64.7839 77.2292 64.0983 77.8129 63.3671 78.2223C62.6645 78.6147 61.9021 78.8557 61.3691 78.764C61.2313 78.7398 61.1087 78.6964 61.0006 78.635C60.7052 78.4664 60.5096 78.1726 60.4071 77.8144C60.3081 77.4678 60.2962 77.0649 60.3627 76.6638C60.4244 76.2989 60.5493 75.9341 60.7317 75.6132C61.0402 75.0699 61.5124 74.6566 62.0402 74.4022L62.0382 74.4028Z" fill="#FF6624"/>
<path d="M88.1427 96.2185C88.0087 95.8885 87.8486 95.6315 87.6765 95.4599C87.5422 95.3265 87.4021 95.2462 87.2623 95.2226C87.1238 95.1997 86.9831 95.2352 86.8502 95.3313C86.7363 95.4135 86.6275 95.5403 86.5269 95.7151C86.2835 96.1434 86.087 96.8614 86.0176 97.5784C85.9599 98.168 85.9926 98.7675 86.1655 99.1909C86.2983 99.517 86.5102 99.7503 86.754 99.8879C86.908 99.9756 87.0745 100.025 87.2402 100.037C87.4045 100.048 87.5712 100.021 87.73 99.9584C87.9655 99.8644 88.1765 99.6893 88.3206 99.4365L88.33 99.4221C88.4946 99.1222 88.5558 98.6797 88.5436 98.217C88.525 97.5219 88.3713 96.7735 88.1446 96.2179L88.1427 96.2185ZM87.8278 94.4581C88.0241 94.654 88.2087 94.95 88.3648 95.3322C88.6406 96.0077 88.8282 96.9645 88.8539 97.8875C88.8788 98.8212 88.7548 99.7119 88.4204 100.312L88.4097 100.332C88.2239 100.659 87.9677 100.879 87.6908 100.99C87.5211 101.058 87.3391 101.086 87.1582 101.072C86.9785 101.06 86.7981 101.006 86.6328 100.912C86.3531 100.754 86.1067 100.476 85.944 100.076C85.6742 99.4166 85.6267 98.4497 85.7227 97.4842C85.8253 96.4433 86.1005 95.4163 86.4391 94.82C86.5719 94.5884 86.7137 94.4213 86.8576 94.3166C87.0178 94.1997 87.1855 94.1594 87.3501 94.1851C87.5141 94.212 87.6756 94.3037 87.8291 94.4556L87.8278 94.4581Z" fill="#FF6624"/>
<path d="M122.382 110.246C122.248 109.916 122.088 109.659 121.916 109.488C121.782 109.354 121.641 109.274 121.502 109.25C121.363 109.227 121.222 109.263 121.089 109.359C120.976 109.441 120.867 109.568 120.766 109.743C120.523 110.171 120.326 110.889 120.257 111.606C120.199 112.196 120.232 112.795 120.405 113.219C120.538 113.545 120.749 113.778 120.993 113.916C121.147 114.003 121.314 114.053 121.479 114.064C121.644 114.075 121.81 114.049 121.969 113.986C122.205 113.892 122.416 113.717 122.56 113.464L122.569 113.45C122.734 113.15 122.795 112.707 122.783 112.245C122.764 111.55 122.611 110.801 122.384 110.246L122.382 110.246ZM122.067 108.486C122.263 108.682 122.448 108.978 122.604 109.36C122.88 110.035 123.067 110.992 123.093 111.915C123.118 112.849 122.994 113.74 122.66 114.34L122.649 114.36C122.463 114.687 122.207 114.907 121.93 115.018C121.76 115.086 121.578 115.114 121.397 115.1C121.218 115.087 121.037 115.034 120.872 114.94C120.592 114.781 120.346 114.504 120.183 114.104C119.913 113.444 119.866 112.477 119.962 111.512C120.065 110.471 120.34 109.444 120.678 108.848C120.811 108.616 120.953 108.449 121.097 108.344C121.257 108.227 121.425 108.187 121.589 108.213C121.753 108.24 121.915 108.331 122.068 108.483L122.067 108.486Z" fill="#FF6624"/>
</g>
<defs>
<clipPath id="clip0_78_38140">
<rect width="147" height="105" fill="white" transform="translate(49.749) rotate(28.2812)"/>
</clipPath>
</defs>
</svg>
