<svg width="356" height="317" viewBox="0 0 356 317" fill="none" xmlns="http://www.w3.org/2000/svg">
<g clip-path="url(#clip0_78_38916)">
<path d="M121.571 113.65C122.342 113.283 123.263 113.611 123.633 114.38C124.003 115.152 123.679 116.079 122.907 116.448L122.891 116.456L122.892 116.46C118.417 118.564 113.939 120.667 110.331 123.076L110.328 123.081C108.8 124.101 107.423 125.173 106.137 126.172C104.215 127.664 102.488 129.005 100.737 129.851C99.9094 130.251 99.1387 130.511 98.3719 130.769C96.6576 131.349 94.966 131.92 93.135 134.349C91.6153 136.364 89.9844 139.576 89.1011 142.917C88.4239 145.475 88.1984 148.075 88.8297 150.179C89.5751 152.649 91.6508 154.672 93.5651 156.538C95.5783 158.501 97.4431 160.318 98.0025 162.674C98.6523 165.414 97.3623 168.229 96.1124 170.96C95.2649 172.811 94.4381 174.618 94.478 175.968C94.5515 178.448 97.9465 180.543 101.87 182.966C102.576 183.403 103.293 183.844 103.775 184.15C106.603 185.94 109.499 187.964 111.809 189.972C113.785 191.687 115.347 193.418 116.124 195.034C117.047 196.952 116.877 198.501 116.715 199.973C116.598 201.014 116.491 201.995 117.087 202.846C117.848 203.935 119.575 205.13 121.925 206.245C124.353 207.395 127.399 208.422 130.722 209.134C133.114 209.647 135.655 209.996 138.198 210.348C143.043 211.015 147.889 211.682 151.994 213.479C154.926 214.761 157.404 216.591 159.47 218.682L159.474 218.687C161.927 221.165 163.795 224.016 165.149 226.75C165.677 227.818 166.151 228.935 166.598 229.989C167.874 233.002 168.91 235.442 171.413 235.926C172.805 236.196 174.812 236.009 177.267 235.781C181.669 235.374 187.424 234.839 194.472 236.378C201.226 237.85 209.052 241.223 215.934 244.191C220.29 246.068 224.263 247.778 227.274 248.7C230.685 249.745 232.628 249.742 233.655 249.106C234.491 248.588 234.755 247.4 234.784 245.978C234.816 244.455 234.571 242.671 234.34 240.96C233.999 238.454 233.673 236.089 234.165 234.331C234.277 233.934 234.424 233.575 234.607 233.253C235.218 232.172 236.164 231.5 237.299 231.201C238.301 230.938 239.447 230.984 240.609 231.308C241.31 231.503 242.022 231.801 242.712 232.193C244.764 233.352 246.607 235.295 248.477 237.268C249.286 238.122 250.099 238.98 250.876 239.721C252.141 240.928 253.457 241.98 254.862 242.944C256.271 243.914 257.771 244.795 259.391 245.656C260.995 246.506 262.712 247.335 264.319 247.844C265.754 248.297 267.073 248.488 268.069 248.177C268.991 247.891 269.753 247.089 270.421 245.919C271.21 244.532 271.842 242.686 272.406 240.554C273.039 238.177 273.582 235.472 273.858 232.838C274.085 230.661 274.126 228.54 273.876 226.72C273.615 224.825 273.029 223.245 272.119 221.831C271.19 220.386 269.904 219.09 268.274 217.802C266.329 216.262 263.877 214.722 261.658 213.33C259.974 212.271 258.42 211.296 257.218 210.396C254.798 208.581 254.147 207.321 253.426 205.92C253.291 205.658 253.151 205.388 252.988 205.1C252.119 203.567 250.583 201.593 249.048 199.623C248.997 199.558 248.954 199.49 248.914 199.421C248.54 198.766 248.691 197.919 249.302 197.436C249.914 196.953 250.778 197.008 251.326 197.528C251.385 197.584 251.441 197.645 251.495 197.711C253.105 199.78 254.716 201.849 255.689 203.563C255.867 203.88 256.026 204.188 256.182 204.491C256.737 205.564 257.234 206.532 259.074 207.913C260.104 208.685 261.639 209.648 263.306 210.695C265.59 212.131 268.118 213.716 270.203 215.366C272.088 216.86 273.599 218.393 274.729 220.147C275.88 221.936 276.622 223.926 276.949 226.302C277.236 228.389 277.195 230.758 276.941 233.165C276.649 235.967 276.07 238.835 275.404 241.35C274.772 243.731 274.051 245.821 273.126 247.449C272.076 249.295 270.75 250.593 268.998 251.139C267.319 251.663 265.379 251.428 263.385 250.799C261.564 250.224 259.683 249.322 257.942 248.397C256.22 247.484 254.622 246.542 253.109 245.501C251.588 244.457 250.15 243.303 248.745 241.964C247.86 241.119 247.045 240.259 246.236 239.406C244.532 237.608 242.85 235.836 241.195 234.902C240.71 234.629 240.228 234.424 239.767 234.294C239.133 234.118 238.553 234.081 238.088 234.205C237.758 234.291 237.485 234.477 237.321 234.771C237.256 234.889 237.199 235.023 237.157 235.172C236.838 236.309 237.118 238.364 237.418 240.539C237.666 242.368 237.928 244.273 237.889 246.039C237.838 248.435 237.241 250.529 235.289 251.74C233.528 252.832 230.749 253.008 226.36 251.665C223.237 250.709 219.167 248.957 214.704 247.032C207.963 244.127 200.296 240.824 193.811 239.409C187.236 237.973 181.754 238.483 177.557 238.87C174.848 239.123 172.638 239.327 170.821 238.977C166.708 238.183 165.382 235.056 163.745 231.196C163.338 230.237 162.907 229.222 162.364 228.125C161.143 225.658 159.462 223.09 157.263 220.867C155.451 219.031 153.289 217.432 150.749 216.32C147.055 214.704 142.411 214.065 137.767 213.424C135.161 213.065 132.552 212.706 130.069 212.174C126.532 211.416 123.251 210.306 120.602 209.051C117.765 207.707 115.606 206.154 114.54 204.632C113.271 202.819 113.443 201.273 113.625 199.634C113.741 198.587 113.86 197.485 113.328 196.378C112.752 195.184 111.457 193.781 109.776 192.321C107.614 190.442 104.843 188.51 102.119 186.788C101.328 186.289 100.781 185.949 100.248 185.619C95.5585 182.725 91.501 180.22 91.3775 176.058C91.3177 174.003 92.2972 171.859 93.3023 169.667C94.3303 167.42 95.3925 165.107 94.9839 163.391C94.6371 161.925 93.0823 160.411 91.4012 158.772C89.2109 156.638 86.8344 154.324 85.8573 151.078C85.0429 148.375 85.2945 145.192 86.1039 142.127C87.0927 138.389 88.9371 134.771 90.6556 132.487C93.0611 129.294 95.2087 128.569 97.3791 127.837C98.0562 127.608 98.7384 127.376 99.3932 127.062C100.835 126.366 102.44 125.118 104.225 123.734C105.579 122.683 107.03 121.554 108.604 120.506L108.605 120.509C112.448 117.944 117.01 115.802 121.57 113.659L121.571 113.663L121.571 113.65Z" fill="#E9D8B9"/>
<path d="M109.796 119.684C110.364 119.747 110.774 120.258 110.714 120.827C110.65 121.395 110.139 121.806 109.57 121.745C106.06 121.362 102.549 120.975 99.4842 121.128C96.5328 121.276 93.949 121.911 92.1019 123.527C89.7618 125.574 88.4087 129.357 86.7961 133.872C85.7697 136.743 84.639 139.901 83.0663 143.157C81.4328 146.535 79.3633 149.943 77.3034 153.331C74.1838 158.466 71.0885 163.556 69.7444 168.175C68.6565 171.917 68.6984 175.411 69.3977 178.699C70.1056 182.035 71.488 185.189 73.0541 188.194C74.6242 191.209 76.3805 194.07 78.7076 196.949C81.0281 199.821 83.9297 202.716 87.7967 205.798C90.8378 208.223 94.4645 210.761 98.1687 213.348C104.051 217.462 110.125 221.708 114.422 225.893C118.314 229.682 120.719 233.384 122.902 236.742C124.63 239.402 126.214 241.842 128.28 243.88C130.578 246.146 133.53 247.985 136.642 249.547C139.774 251.118 143.114 252.422 146.119 253.597L146.18 253.619C152.212 255.975 156.898 257.807 163.11 260.947C164.142 261.468 165.18 262.008 166.26 262.568C171.805 265.447 178.49 268.92 186.875 271.428C194.574 273.73 203.751 275.232 212.357 276.639C214.834 277.043 217.264 277.442 220.002 277.921C222.204 278.308 224.035 278.649 225.794 278.975C233.619 280.43 240.041 281.623 244.487 280.868C249.477 280.02 252.186 276.564 254.847 273.17L255.348 272.528C256.536 271.021 257.701 269.606 258.918 268.125C260.823 265.807 262.859 263.33 265.153 260.32C267.214 257.61 269.493 254.458 271.408 251.558C272.983 249.173 274.306 246.973 275.046 245.365C276.361 242.501 275.64 241.802 274.856 241.168C274.431 240.889 274.266 240.333 274.489 239.859C274.733 239.341 275.35 239.12 275.868 239.363L275.865 239.369C275.937 239.403 276.006 239.444 276.069 239.496C277.513 240.652 278.953 241.809 276.92 246.233C276.126 247.964 274.752 250.252 273.137 252.701C271.197 255.642 268.89 258.834 266.804 261.577C264.48 264.629 262.437 267.115 260.524 269.442C259.286 270.948 258.103 272.389 256.979 273.813L256.48 274.45C253.572 278.162 250.61 281.936 244.836 282.918C240.035 283.732 233.448 282.508 225.42 281.017C223.476 280.655 221.445 280.279 219.644 279.962C217.471 279.579 214.774 279.139 212.022 278.691C203.349 277.273 194.101 275.761 186.279 273.42C177.739 270.866 170.946 267.336 165.314 264.413C164.215 263.841 163.161 263.294 162.18 262.8C156.09 259.721 151.427 257.9 145.428 255.556L145.378 255.535C142.349 254.353 138.977 253.036 135.717 251.402C132.429 249.754 129.299 247.797 126.832 245.362C124.607 243.168 122.963 240.636 121.17 237.874C119.053 234.616 116.723 231.028 112.977 227.383C108.789 223.306 102.791 219.112 96.9792 215.05C93.2361 212.432 89.5706 209.87 86.5024 207.422C82.5198 204.245 79.5165 201.246 77.0978 198.255C74.683 195.269 72.8579 192.293 71.2237 189.153C69.5831 186.006 68.1308 182.687 67.3757 179.13C66.6107 175.528 66.5649 171.702 67.7592 167.6C69.1811 162.71 72.3427 157.513 75.5311 152.265C77.5749 148.905 79.6285 145.523 81.2037 142.263C82.7266 139.113 83.8379 136.002 84.8513 133.172C86.5634 128.387 87.9977 124.37 90.7384 121.974C92.9886 120.004 95.9971 119.236 99.3823 119.069C102.655 118.907 106.228 119.298 109.799 119.691L109.796 119.684Z" fill="#E9D8B9"/>
<path d="M140.828 127.611C141.488 127.599 142.032 128.126 142.045 128.786C142.058 129.447 141.53 129.991 140.87 130.004C137.772 130.061 134.674 130.12 131.855 130.88C129.133 131.615 126.607 133.029 124.471 135.805C122.347 138.568 120.584 142.659 119.354 146.963C118.002 151.692 117.304 156.644 117.474 160.365C117.764 166.683 120.701 169.396 123.669 172.136L123.672 172.138C123.786 172.242 123.802 172.255 124.435 172.847C126.236 174.533 127.97 176.326 129.584 178.223C131.08 179.98 132.487 181.842 133.766 183.805C134.268 184.577 134.76 185.382 135.256 186.198C137.217 189.413 139.292 192.812 143.416 196.097C145.6 197.838 148.362 199.559 151.169 201.113C155.087 203.281 159.074 205.114 161.718 206.219C163.832 207.102 164.972 207.485 165.516 207.427C165.536 207.424 165.589 207.165 165.673 206.692C165.791 206.043 165.89 205.199 166.01 204.157C166.27 201.91 166.63 198.778 167.507 194.71C168.176 191.601 169.147 187.927 170.182 184.566C171.161 181.38 172.2 178.471 173.091 176.581L173.096 176.583C173.912 174.853 174.674 173.856 175.298 173.414C175.743 173.098 176.188 172.974 176.618 173.016C177.153 173.07 177.569 173.348 177.861 173.81C178.145 174.262 178.278 174.922 178.233 175.685C178.154 176.979 177.599 178.678 176.817 181.063C176.311 182.609 175.707 184.452 175.123 186.483C174.317 189.294 173.466 192.701 172.761 196.045C172.135 199.013 171.626 201.895 171.377 204.204C171.118 206.581 171.126 208.36 171.497 209.876C171.858 211.346 172.582 212.625 173.767 214.043C175.059 215.587 176.871 217.275 178.974 218.868C180.965 220.376 183.199 221.791 185.479 222.914C187.832 224.07 190.253 224.926 192.674 225.557C195.109 226.192 197.528 226.593 199.867 226.843C202.134 227.088 204.342 227.188 206.471 227.172C208.716 227.154 210.869 226.998 212.904 226.734C214.814 226.486 216.61 226.14 218.152 225.419C219.622 224.73 220.901 223.672 221.893 221.968C222.977 220.103 223.76 217.448 224.529 214.83C225.316 212.16 226.088 209.528 227.189 207.614C228.652 205.072 230.562 203.902 232.323 202.825C233.248 202.257 234.127 201.721 234.783 201.023C235.639 200.115 236.234 198.819 236.7 197.285C237.196 195.653 237.549 193.742 237.91 191.728C238.282 189.666 238.659 187.505 238.873 185.737C239.079 184.024 239.155 182.615 238.954 181.92C238.939 181.872 238.868 181.876 238.771 181.902C238.226 182.058 237.454 182.512 236.687 182.965C236.622 183.004 236.554 183.035 236.485 183.059C235.863 183.285 235.176 182.961 234.953 182.34C234.746 181.764 235.009 181.133 235.541 180.864C236.413 180.35 237.287 179.843 238.117 179.605C239.586 179.187 240.746 179.475 241.255 181.264C241.551 182.304 241.487 184.023 241.243 186.027C241.008 187.974 240.631 190.122 240.266 192.156C239.891 194.239 239.527 196.22 238.992 197.982C238.426 199.843 237.671 201.451 236.526 202.664C235.664 203.579 234.642 204.205 233.567 204.863C232.063 205.784 230.431 206.783 229.268 208.803C228.291 210.501 227.56 212.986 226.818 215.506C226.003 218.276 225.177 221.09 223.965 223.172C222.701 225.345 221.062 226.7 219.169 227.585C217.352 228.437 215.335 228.83 213.214 229.105C211.092 229.382 208.845 229.544 206.492 229.561C204.294 229.579 201.995 229.471 199.607 229.217C197.145 228.953 194.61 228.532 192.068 227.871C189.511 227.207 186.942 226.298 184.426 225.061C181.992 223.863 179.624 222.366 177.533 220.782C175.285 219.077 173.333 217.259 171.932 215.585C170.507 213.884 169.628 212.312 169.173 210.454C168.728 208.642 168.71 206.611 168.999 203.949C169.264 201.512 169.782 198.552 170.416 195.547C171.127 192.184 171.993 188.718 172.823 185.83L172.825 185.825C173.472 183.58 174.051 181.805 174.54 180.314C174.989 178.948 175.355 177.824 175.588 176.937C175.483 177.139 175.372 177.361 175.258 177.603L175.263 177.605C174.413 179.407 173.417 182.201 172.473 185.271C171.461 188.558 170.51 192.157 169.853 195.212C168.992 199.212 168.641 202.254 168.389 204.435C168.262 205.533 168.16 206.423 168.032 207.128C167.739 208.73 167.303 209.642 165.778 209.807C164.773 209.916 163.307 209.47 160.799 208.422C158.085 207.291 154.008 205.416 150.021 203.208C147.101 201.593 144.223 199.798 141.935 197.977C137.488 194.435 135.297 190.843 133.224 187.446C132.745 186.66 132.272 185.886 131.77 185.111C130.564 183.258 129.217 181.477 127.768 179.778C126.201 177.937 124.53 176.209 122.809 174.595L122.053 173.895C118.722 170.817 115.426 167.771 115.091 160.469C114.908 156.506 115.643 151.272 117.061 146.301C118.368 141.727 120.265 137.35 122.575 134.348C125.079 131.091 128.046 129.431 131.243 128.568C134.34 127.731 137.589 127.674 140.834 127.611L140.828 127.611Z" fill="#E9D8B9"/>
<path d="M244.944 182.336C244.654 181.743 244.901 181.025 245.496 180.737C246.089 180.447 246.807 180.693 247.095 181.289C248.214 183.582 249.33 185.877 250.183 188.06C251.062 190.313 251.653 192.449 251.667 194.347C251.684 196.214 251.159 197.72 250.625 199.253C250.121 200.696 249.61 202.167 249.674 203.9C249.734 205.54 250.294 207.563 250.868 209.634C251.551 212.096 252.253 214.624 252.259 216.933C252.266 219.215 251.592 221.217 250.439 222.756C249.231 224.371 247.505 225.468 245.484 225.852C243.606 226.21 241.484 225.94 239.427 225.206C237.331 224.46 235.281 223.229 233.612 221.696C231.992 220.208 230.733 218.441 229.657 216.533C228.599 214.659 227.741 212.703 226.886 210.745C226.624 210.14 226.899 209.436 227.504 209.173C228.109 208.911 228.813 209.186 229.075 209.791C229.914 211.71 230.756 213.627 231.733 215.359C232.691 217.057 233.805 218.624 235.23 219.932C236.671 221.253 238.433 222.314 240.23 222.954C241.903 223.55 243.59 223.776 245.041 223.5C246.465 223.231 247.678 222.459 248.527 221.326C249.377 220.191 249.874 218.682 249.87 216.937C249.864 214.948 249.207 212.583 248.569 210.28C247.954 208.068 247.356 205.907 247.285 203.988C247.205 201.81 247.793 200.121 248.372 198.461C248.835 197.131 249.292 195.82 249.281 194.37L249.283 194.365C249.272 192.808 248.741 190.943 247.955 188.927C247.14 186.84 246.043 184.588 244.949 182.338L244.944 182.336Z" fill="#E9D8B9"/>
<path d="M148.992 143.146C149.637 143.007 150.273 143.42 150.412 144.065C150.552 144.71 150.139 145.346 149.494 145.485C146.358 146.157 143.223 146.828 140.643 147.695C138.214 148.51 136.287 149.48 135.37 150.763C134.195 152.409 134.564 154.95 134.887 157.16C135.073 158.428 135.245 159.605 135.149 160.636C135.12 160.943 135.071 161.228 135.004 161.496C136.309 160.991 137.726 160.293 138.675 159.403C139.301 158.817 139.781 158.077 140.255 157.347C141.443 155.515 142.592 153.744 145.862 153.196C148.065 152.827 151.266 153.103 154.043 153.72C156.963 154.367 159.527 155.462 160.265 156.679C161.546 158.794 159.317 160.232 156.512 162.044C155.064 162.979 153.418 164.041 152.182 165.262C150.32 167.103 149.235 169.462 148.284 171.54C147.608 173.013 146.994 174.356 146.174 175.414C145.181 176.699 144.008 177.433 143.061 177.94L143.426 178.012C144.368 178.176 145.516 178.138 146.546 177.629C146.682 177.561 146.822 177.482 146.959 177.393C148.329 176.503 149.564 174.536 150.757 172.64C151.687 171.162 152.593 169.72 153.622 168.679C153.87 168.427 154.138 168.192 154.42 167.975L154.418 167.972C155.601 167.059 156.852 166.661 158.007 166.674C159.222 166.686 160.317 167.152 161.122 167.947L161.17 167.998C161.298 168.128 161.41 168.256 161.509 168.381L161.576 168.479C162.97 170.38 162.855 173.328 162.668 178.055L162.654 178.41C162.564 180.738 162.462 183.522 162.449 186.018C162.443 187.019 162.454 187.943 162.481 188.727C162.754 188.041 163.064 187.249 163.351 186.516C164.575 183.518 167.024 161.909 167.641 162.149C167.901 174.47 167.12 183.446 165.554 187.454C164.65 189.772 163.577 192.495 162.412 192.877L162.407 192.875C161.506 193.171 160.827 192.848 160.45 191.7C160.132 190.739 160.04 188.558 160.051 186.008C160.063 183.619 160.166 180.737 160.261 178.321L160.275 177.965C160.439 173.766 160.542 171.145 159.661 169.912L159.613 169.854C159.561 169.789 159.513 169.732 159.471 169.687L159.439 169.656C159.067 169.289 158.555 169.075 157.976 169.067C157.338 169.059 156.615 169.306 155.884 169.868L155.883 169.864C155.705 170.001 155.52 170.165 155.326 170.363C154.489 171.212 153.651 172.542 152.791 173.911C151.466 176.021 150.088 178.21 148.264 179.396C148.055 179.533 147.836 179.657 147.611 179.768C146.057 180.54 144.373 180.602 143.012 180.366C141.689 180.135 140.58 179.552 140.091 179.014C140.036 178.956 139.989 178.896 139.945 178.829C139.912 178.778 139.879 178.722 139.851 178.661C139.161 177.263 140.041 176.812 141.422 176.104C142.239 175.686 143.422 175.08 144.291 173.957C144.944 173.113 145.506 171.886 146.122 170.54C147.164 168.271 148.344 165.693 150.507 163.556C151.915 162.165 153.674 161.03 155.219 160.034C156.937 158.927 158.3 158.044 158.225 157.923C157.84 157.285 155.88 156.578 153.53 156.056C151.012 155.498 148.161 155.239 146.258 155.557C144.034 155.931 143.164 157.268 142.271 158.65C141.72 159.498 141.163 160.359 140.315 161.149C139.06 162.323 137.3 163.186 135.735 163.782C134.212 164.364 132.869 164.697 132.408 164.807C131.462 165.031 131.029 165.041 130.776 163.943L130.78 163.942C130.597 163.15 130.882 162.926 131.397 162.593C131.677 162.413 132.65 161.784 132.776 160.417C132.844 159.678 132.692 158.634 132.526 157.504C132.139 154.854 131.693 151.809 133.43 149.38C134.691 147.62 137.021 146.39 139.883 145.429C142.597 144.518 145.798 143.834 148.997 143.149L148.992 143.146ZM142.034 177.601C141.906 177.399 141.835 177.284 141.958 177.537L141.962 177.542C141.979 177.559 142.003 177.58 142.036 177.598L142.034 177.601Z" fill="#E9D8B9"/>
<path d="M197.519 184.753C197.15 184.208 197.298 183.462 197.849 183.093C198.402 182.721 199.15 182.863 199.522 183.409C200.592 184.984 201.66 186.561 202.531 188.111C203.435 189.723 204.105 191.286 204.304 192.739C204.514 194.295 204.194 195.687 203.545 196.951L203.546 196.955C202.934 198.145 202.029 199.198 201.008 200.161C200.697 200.455 200.335 200.775 199.986 201.083L199.987 201.086C199.621 201.408 199.278 201.709 199.023 201.95C200.345 202.149 202.743 202.109 205.125 201.781C207.147 201.501 209.103 201.023 210.265 200.315C211.866 199.342 211.887 197.608 211.913 195.792C211.925 194.919 211.939 194.029 212.077 193.147C212.303 191.727 212.85 190.374 213.517 189.18C214.383 187.631 215.468 186.336 216.323 185.518C217.056 184.816 217.676 184.416 218.191 184.212C219.195 183.817 219.928 184.058 220.436 184.502C220.899 184.907 221.032 185.325 221.223 185.922C221.304 186.177 221.404 186.492 221.577 186.878C221.789 187.356 222.111 187.929 222.441 188.437C222.66 188.78 222.873 189.082 223.048 189.29C223.337 189.172 223.713 189.015 224.239 188.86C225.861 188.382 234.928 188.604 235.191 190.295C224.79 190.115 226.371 190.719 224.919 191.148C224.487 191.278 224.183 191.402 223.951 191.5C222.891 191.939 222.503 192.102 221.573 191.226C221.233 190.905 220.808 190.346 220.411 189.734C220.017 189.12 219.631 188.431 219.375 187.86C219.165 187.39 219.036 186.99 218.931 186.66L218.892 186.515C218.665 186.642 218.37 186.868 217.988 187.232C217.269 187.922 216.354 189.014 215.618 190.329C215.075 191.3 214.634 192.389 214.455 193.51C214.336 194.256 214.326 195.038 214.316 195.807C214.281 198.303 214.247 200.684 211.503 202.352C210.02 203.255 207.738 203.838 205.44 204.155C202.634 204.541 199.714 204.542 198.226 204.24L198.134 204.222C196.521 203.867 196.01 203.108 196.203 202.053L196.219 201.95C196.42 201.038 197.342 200.223 198.389 199.304L198.39 199.308C198.692 199.041 199.009 198.762 199.351 198.439C200.191 197.645 200.927 196.796 201.399 195.876L201.402 195.877C201.834 195.033 202.05 194.109 201.909 193.08C201.756 191.95 201.191 190.658 200.418 189.283C199.612 187.849 198.562 186.299 197.513 184.753L197.519 184.753ZM223.16 189.422L223.23 189.493C223.352 189.607 223.255 189.514 223.16 189.422Z" fill="#E9D8B9"/>
<path d="M82.3212 35.5637C81.8722 35.0814 81.8994 34.3231 82.3818 33.8739C82.8642 33.4247 83.6223 33.4517 84.0713 33.9341C95.9351 46.5273 107.796 59.1194 117.579 72.4969C122.48 79.1981 126.837 86.0648 130.761 92.7899C134.686 99.5125 138.185 106.106 141.358 112.248C142.429 114.32 143.565 116.536 144.659 118.679C149.475 128.091 153.534 136.029 157.289 141.179C159.532 144.261 161.678 146.355 163.775 147.954C165.885 149.566 167.969 150.697 170.052 151.824C170.634 152.139 170.849 152.863 170.534 153.445C170.219 154.027 169.494 154.242 168.913 153.927C166.739 152.751 164.567 151.573 162.325 149.861C160.068 148.136 157.762 145.887 155.356 142.588C151.484 137.275 147.387 129.262 142.527 119.764C141.501 117.757 140.439 115.679 139.23 113.344C136.072 107.238 132.596 100.683 128.693 93.9992C124.793 87.3167 120.474 80.509 115.644 73.9042C105.968 60.6745 94.1474 48.1235 82.3291 35.5737L82.3147 35.5575L82.3212 35.5637Z" fill="#E9D8B9"/>
<path d="M119.48 75.6029C118.827 75.4933 118.389 74.8744 118.5 74.225C118.61 73.5717 119.229 73.1334 119.878 73.2444C129.035 74.7766 138.194 76.31 146.419 77.9186C154.704 79.5372 162.095 81.2377 167.7 83.1031C173.405 85.0031 177.291 87.084 180.333 89.7142C183.382 92.3507 185.533 95.4892 187.783 99.5181C190.232 103.905 192.819 109.377 194.794 115.189C196.4 119.912 197.603 124.867 198.011 129.666C198.445 134.752 197.978 139.618 197.539 144.179C197.073 149.058 196.639 153.583 197.429 157.512C198.169 161.201 200.01 164.47 202.314 167.284C204.66 170.149 207.484 172.541 210.134 174.44C212.775 176.327 215.24 177.719 217.74 178.661C220.211 179.594 222.719 180.087 225.468 180.187C228.812 180.31 232.551 179.86 235.458 179.513C237.53 179.262 239.2 179.064 240.161 179.14C240.798 179.191 241.268 179.388 241.56 179.683L241.627 179.755C242.145 180.33 242.134 180.961 241.603 181.601L241.6 181.606C241.4 181.851 241.072 182.093 240.634 182.309L240.635 182.312C239.431 182.903 236.816 183.558 232.98 183.688C229.424 183.809 224.752 183.488 219.708 182.696C215.229 181.991 210.44 180.913 205.859 179.43C201.273 177.947 196.905 176.067 192.953 174.012C188.518 171.706 184.593 169.176 181.46 166.739C175.484 162.096 172.396 157.842 169.309 153.585C168.923 153.051 169.039 152.303 169.575 151.914C170.11 151.527 170.857 151.643 171.246 152.179C174.239 156.303 177.232 160.43 182.921 164.847C185.949 167.2 189.747 169.648 194.048 171.884C197.896 173.884 202.146 175.715 206.598 177.156C208.547 177.786 210.541 178.342 212.53 178.827C211.293 178.121 210.044 177.308 208.755 176.385C205.95 174.38 202.961 171.844 200.472 168.808C197.942 165.72 195.915 162.105 195.09 157.983C194.232 153.717 194.682 149.019 195.169 143.949C195.594 139.504 196.049 134.762 195.631 129.869C195.241 125.279 194.081 120.512 192.533 115.955C190.609 110.292 188.091 104.963 185.703 100.687C183.576 96.883 181.571 93.9359 178.778 91.524C175.979 89.1059 172.342 87.1707 166.945 85.3718C161.447 83.5409 154.151 81.8637 145.958 80.2633C137.707 78.6515 128.595 77.1246 119.484 75.6015L119.48 75.6029Z" fill="#E9D8B9"/>
<path d="M197.367 160.086C196.96 159.976 196.712 159.56 196.816 159.146C196.921 158.73 197.343 158.476 197.759 158.581L197.806 158.594C206.905 161.291 216.004 163.986 229.308 164.55C236.139 164.837 244.09 164.567 252.231 163.751C259.988 162.974 267.913 161.707 275.195 159.956C282.549 158.19 289.251 155.934 295.225 153.274C301.338 150.552 306.687 147.409 311.201 143.935C320.119 137.071 325.829 128.858 331.541 120.647L331.592 120.579C331.851 120.276 332.307 120.218 332.636 120.454C332.962 120.69 333.051 121.135 332.85 121.474L332.815 121.527C327.039 129.835 321.26 138.141 312.147 145.158C307.533 148.711 302.075 151.919 295.851 154.69C289.793 157.388 283.002 159.672 275.554 161.463C268.203 163.228 260.208 164.51 252.378 165.293C244.173 166.114 236.144 166.388 229.237 166.096C215.722 165.524 206.54 162.806 197.362 160.084L197.367 160.086Z" fill="#E9D8B9"/>
<path d="M196.784 128.226C196.369 128.326 195.949 128.068 195.853 127.651C195.753 127.236 196.011 126.816 196.428 126.72C202.876 125.181 209.327 123.644 215.871 122.43C222.452 121.212 229.146 120.314 236.063 120.063C242.157 119.843 248.425 120.123 254.415 120.678C262.02 121.385 269.167 122.535 274.93 123.67C278.946 124.462 282.293 125.244 285.24 125.935C289.813 127.005 293.417 127.849 297.041 128.138C300.006 128.374 303.018 128.24 305.923 127.916C308.848 127.593 311.657 127.079 314.198 126.556C316.734 126.033 319.014 125.503 321.05 124.868C323.053 124.244 324.806 123.523 326.323 122.614C327.199 122.089 328.014 121.495 328.739 120.965C329.643 120.302 330.425 119.733 331.108 119.444C332.249 118.966 333.108 119.119 333.648 120.409C334.12 121.538 334.203 123.897 333.915 126.911C333.643 129.742 333.058 133.186 332.171 136.742C331.268 140.37 330.056 144.129 328.618 148.021C327.194 151.869 325.53 155.89 323.712 160.059C321.903 164.21 319.945 168.496 317.642 172.433C315.32 176.405 312.647 180.017 309.43 182.77C306.371 185.388 302.838 187.222 299.039 188.427C294.819 189.763 290.274 190.327 285.693 190.326C281.371 190.325 277.023 189.823 272.767 189.062C268.535 188.307 264.385 187.295 260.44 186.265C256.525 185.247 252.799 184.208 249.164 183.161C245.339 182.059 241.928 181.04 238.522 180.022C238.112 179.898 237.878 179.467 238 179.053C238.125 178.642 238.556 178.408 238.97 178.531C242.582 179.611 246.196 180.689 249.597 181.669C253.192 182.706 256.9 183.737 260.831 184.763C264.731 185.78 268.842 186.784 273.043 187.534C277.22 188.279 281.479 188.774 285.692 188.774C290.121 188.776 294.507 188.235 298.566 186.948C302.177 185.802 305.531 184.067 308.416 181.597C311.492 178.965 314.059 175.489 316.299 171.658C318.561 167.789 320.496 163.55 322.289 159.442C324.074 155.348 325.721 151.369 327.155 147.486C328.576 143.645 329.77 139.938 330.657 136.368C331.53 132.862 332.106 129.498 332.367 126.764C332.631 124.002 332.587 121.913 332.21 121.012C332.118 120.792 331.942 120.779 331.702 120.88C331.173 121.102 330.464 121.618 329.646 122.217C328.891 122.771 328.044 123.388 327.113 123.947C325.478 124.925 323.615 125.693 321.506 126.351C319.433 126.997 317.1 127.54 314.501 128.074C311.906 128.607 309.045 129.13 306.08 129.46C303.092 129.791 299.982 129.927 296.907 129.683C293.159 129.385 289.506 128.531 284.873 127.446C281.941 126.758 278.612 125.979 274.618 125.194C268.886 124.065 261.792 122.923 254.26 122.22C248.334 121.67 242.134 121.393 236.107 121.611C229.266 121.86 222.648 122.745 216.142 123.952C209.602 125.164 203.186 126.693 196.773 128.223L196.784 128.226Z" fill="#E9D8B9"/>
<path d="M117.141 74.9149C117.302 74.2732 117.953 73.885 118.595 74.0459C119.236 74.2067 119.624 74.8586 119.463 75.5002C118.36 79.9022 117.258 84.308 116.145 88.7969C115.111 92.9732 114.222 96.5922 113.632 99.0927C113.061 101.511 112.736 103.001 113.082 104.222C113.434 105.47 114.529 106.732 116.82 108.772C119.21 110.903 122.829 113.805 126.695 116.749C130.719 119.811 135.015 122.919 138.472 125.248C141.849 127.523 144.395 129.035 146.527 130.166C148.678 131.309 150.427 132.077 152.175 132.848C152.778 133.117 153.05 133.821 152.781 134.424C152.512 135.028 151.808 135.3 151.205 135.031C149.407 134.24 147.609 133.449 145.405 132.278C143.181 131.097 140.557 129.542 137.138 127.237C133.658 124.895 129.322 121.755 125.244 118.652C121.343 115.682 117.676 112.742 115.229 110.559C112.576 108.191 111.277 106.634 110.779 104.863C110.273 103.067 110.643 101.334 111.303 98.5393C111.942 95.8288 112.823 92.2406 113.821 88.2141C114.742 84.5001 115.942 79.7062 117.143 74.9097L117.141 74.9149Z" fill="#E9D8B9"/>
<path d="M327.767 146.308C328.056 145.981 328.552 145.951 328.879 146.237C329.206 146.526 329.236 147.022 328.949 147.35C324.632 152.235 320.318 157.121 315.998 161.332C311.647 165.575 307.291 169.135 302.928 171.33C295.508 175.061 288.205 174.809 281.501 174.574C280.272 174.53 279.065 174.49 277.939 174.475C274.188 174.422 270.686 174.624 267.38 174.969C264.08 175.314 260.927 175.81 257.894 176.344C254.834 176.881 251.951 177.444 249.155 178.021C246.444 178.581 243.619 179.194 240.797 179.808C240.37 179.899 239.95 179.629 239.858 179.202C239.767 178.775 240.038 178.355 240.464 178.263C243.174 177.675 245.885 177.083 248.836 176.476C251.707 175.885 254.62 175.313 257.621 174.787C260.647 174.256 263.82 173.757 267.213 173.402C270.599 173.047 274.166 172.841 277.964 172.894C279.176 172.912 280.356 172.952 281.551 172.993C288.071 173.219 295.166 173.464 302.214 169.92C306.413 167.809 310.645 164.344 314.891 160.203C319.171 156.03 323.469 151.167 327.762 146.305L327.767 146.308Z" fill="#E9D8B9"/>
<path d="M212.298 164.46C211.667 164.049 211.436 163.459 211.78 163.143C212.124 162.827 212.918 162.905 213.548 163.316C217.558 165.936 221.568 168.56 225.88 171.047C230.127 173.496 234.649 175.804 239.718 177.817C244.819 179.844 250.498 181.587 256.467 183.193C262.435 184.795 268.77 186.275 275.108 187.753C275.827 187.922 276.458 188.459 276.519 188.95C276.58 189.441 276.048 189.703 275.328 189.534C269.001 188.058 262.675 186.583 256.552 184.936C250.427 183.291 244.585 181.496 239.301 179.395C233.989 177.284 229.268 174.879 224.844 172.324C220.483 169.808 216.39 167.132 212.299 164.457L212.298 164.46Z" fill="#E9D8B9"/>
<path d="M136.58 222.933C136.448 222.799 136.451 222.586 136.586 222.454C136.719 222.325 136.933 222.325 137.064 222.46L137.071 222.466C140.091 225.643 143.111 228.82 144.292 232.641C144.943 234.744 145.025 237.011 145.094 238.854C145.148 240.301 145.192 241.483 145.483 242.02C145.783 242.571 146.517 242.357 147.273 241.946C147.853 241.63 148.442 241.203 148.907 240.862L149.046 240.761C150.264 239.875 150.51 239.786 150.752 239.699L150.753 239.697C151.007 239.605 151.261 239.514 151.822 239.565C152.066 239.588 152.364 239.638 152.664 239.701C152.991 239.769 153.339 239.858 153.632 239.943C153.9 240.022 154.116 240.099 154.304 240.175C154.499 240.254 154.638 240.32 154.764 240.379C155.07 240.523 155.33 240.646 155.844 241.398C156.084 241.75 156.371 242.229 156.66 242.705C156.953 243.189 157.246 243.677 157.455 243.986C157.666 244.293 157.819 244.469 157.941 244.577C158.046 244.668 158.138 244.714 158.228 244.757C158.398 244.837 158.469 245.04 158.39 245.208C158.31 245.377 158.106 245.448 157.939 245.369C157.805 245.306 157.671 245.243 157.496 245.088C157.335 244.949 157.147 244.735 156.898 244.369C156.65 244.006 156.364 243.532 156.078 243.057C155.791 242.578 155.504 242.1 155.284 241.779C154.878 241.185 154.69 241.096 154.471 240.993C154.338 240.93 154.193 240.862 154.046 240.802C153.885 240.736 153.691 240.666 153.437 240.591C153.178 240.513 152.852 240.431 152.523 240.361C152.239 240.303 151.966 240.255 151.758 240.236C151.353 240.2 151.168 240.266 150.982 240.333C150.785 240.404 150.584 240.476 149.443 241.307L149.304 241.408C148.82 241.762 148.21 242.208 147.597 242.542C146.521 243.127 145.442 243.367 144.887 242.344C144.517 241.666 144.472 240.414 144.416 238.877C144.352 237.072 144.268 234.854 143.645 232.839C142.512 229.17 139.547 226.05 136.58 222.933Z" fill="#E9D8B9"/>
<path d="M207.5 264.086C207.664 264.179 207.717 264.386 207.624 264.55C207.531 264.714 207.323 264.767 207.16 264.674C205.797 263.887 204.432 263.099 203.855 262.307C203.155 261.351 203.421 260.466 205.609 259.735C207.593 259.072 211.36 258.494 215.216 258.225C218.67 257.985 222.21 257.992 224.608 258.411C229.837 259.325 229.819 262.152 229.805 263.729L229.805 263.804C229.796 265.169 229.852 265.391 229.907 265.59L229.916 265.629C229.968 265.807 230.028 265.993 230.285 266.288C230.428 266.452 230.623 266.645 230.831 266.838C231.076 267.06 231.334 267.279 231.551 267.448C231.956 267.762 232.238 267.919 232.479 268.055C232.586 268.115 232.684 268.167 232.827 268.204C232.988 268.242 233.217 268.265 233.592 268.256C233.974 268.247 234.533 268.202 235.092 268.157C235.645 268.113 236.202 268.067 236.637 268.058C237.08 268.046 237.364 268.077 237.571 268.124C237.798 268.178 237.928 268.248 238.057 268.322C238.222 268.412 238.282 268.62 238.19 268.781C238.1 268.946 237.892 269.006 237.731 268.914C237.643 268.866 237.554 268.815 237.417 268.785C237.259 268.748 237.026 268.726 236.655 268.734C236.273 268.743 235.71 268.789 235.151 268.834C234.598 268.878 234.045 268.923 233.613 268.933C233.174 268.943 232.885 268.914 232.67 268.863C232.439 268.807 232.302 268.73 232.155 268.648C231.893 268.503 231.594 268.337 231.14 267.984C230.903 267.8 230.628 267.57 230.378 267.338C230.145 267.125 229.931 266.913 229.774 266.732C229.419 266.323 229.34 266.065 229.265 265.81L229.258 265.784C229.189 265.538 229.119 265.291 229.127 263.8L229.128 263.724C229.14 262.352 229.156 259.895 224.489 259.076C222.15 258.666 218.669 258.661 215.26 258.898C211.461 259.162 207.758 259.729 205.82 260.376C204.292 260.886 204.026 261.397 204.398 261.903C204.89 262.575 206.193 263.328 207.496 264.081L207.5 264.086Z" fill="#E9D8B9"/>
<path d="M82.4264 33.3444C84.1886 31.3553 85.9545 29.3649 87.2127 27.5505C86.9758 26.3782 86.9998 25.373 87.1406 24.4606C87.2801 23.5507 87.5402 22.7323 87.8339 22.1092C88.0306 21.6921 88.2543 21.3444 88.4778 21.0973C88.8219 20.7213 89.2187 20.5402 89.6263 20.6033C89.7259 20.6189 89.817 20.646 89.9019 20.6861L89.9161 20.6959C90.4196 20.9428 90.7524 21.7449 90.6924 22.8464C90.6474 23.7159 90.3872 24.8615 89.8033 26.1C89.7921 26.1105 89.734 26.2404 89.7218 26.2662C89.4725 26.7749 89.1662 27.2977 88.8195 27.8329C89.1639 29.0842 89.8574 30.5694 91.0989 32.4073C92.1412 33.9468 93.5423 35.6996 95.2331 37.8123C97.8138 41.0402 101.053 45.0945 104.659 50.4048C107.653 54.8188 110.924 60.138 114.335 65.9099C117.784 71.7535 121.283 77.8977 124.784 84.0393L123.486 84.7774C119.936 78.5465 116.388 72.313 113.052 66.668C109.676 60.9501 106.426 55.666 103.424 51.242C99.8257 45.9417 96.6223 41.9324 94.0717 38.7407C92.3455 36.583 90.9155 34.7914 89.8653 33.242C88.8664 31.7639 88.1902 30.482 87.7516 29.3436C86.5359 30.9546 85.043 32.6394 83.5501 34.3242L82.4326 33.3378L82.4264 33.3444ZM88.5488 25.2441C88.9736 24.2831 89.1626 23.4218 89.1985 22.7652L89.2023 22.7103L89.1853 22.7464C88.9437 23.2588 88.7314 23.936 88.615 24.69C88.5873 24.8689 88.566 25.054 88.5488 25.2441Z" fill="#E9D8B9"/>
<path fill-rule="evenodd" clip-rule="evenodd" d="M207.151 158.175C213.921 155.06 228.663 149.164 239.316 142.693C249.971 136.223 256.534 129.177 256.969 129.061C257.404 128.945 251.708 135.761 242.844 141.697C233.979 147.632 221.946 152.687 214.743 155.919C207.54 159.151 205.164 160.555 203.376 161.09C201.585 161.624 200.381 161.289 207.151 158.175Z" fill="#E9D8B9"/>
<path fill-rule="evenodd" clip-rule="evenodd" d="M237.317 163.387C245.181 160.788 262.152 155.943 274.802 150.414C287.452 144.885 295.775 138.669 296.267 138.58C296.757 138.49 289.413 144.529 278.793 149.637C268.173 154.744 254.279 158.922 245.923 161.61C237.569 164.3 234.755 165.497 232.728 165.919C230.698 166.341 229.455 165.988 237.317 163.387Z" fill="#E9D8B9"/>
<path fill-rule="evenodd" clip-rule="evenodd" d="M254.147 164.134C262.392 163.355 280.017 162.416 293.578 159.846C307.142 157.275 316.643 153.072 317.139 153.095C317.638 153.119 309.131 157.367 297.641 159.977C286.15 162.588 271.674 163.561 262.931 164.32C254.189 165.08 251.177 165.62 249.108 165.579C247.034 165.54 245.9 164.916 254.145 164.137L254.147 164.134Z" fill="#E9D8B9"/>
<path fill-rule="evenodd" clip-rule="evenodd" d="M138.004 99.922C143.938 102.292 156.306 107.976 166.619 110.78C176.932 113.584 185.187 113.505 185.514 113.706C185.843 113.908 178.244 114.391 169.403 112.876C160.566 111.359 150.488 107.844 144.225 105.272C137.965 102.701 135.52 101.073 134.044 99.7858C132.571 98.4995 132.067 97.5537 138 99.9233L138.004 99.922Z" fill="#E9D8B9"/>
<path fill-rule="evenodd" clip-rule="evenodd" d="M146.846 120.045C152.37 125.233 163.714 136.926 173.607 144.398C183.499 151.87 191.937 155.121 192.227 155.494C192.517 155.867 184.656 153.353 175.981 147.991C167.305 142.629 157.81 134.413 152 128.854C146.189 123.294 144.059 120.392 142.842 118.282C141.624 116.172 141.323 114.856 146.846 120.045Z" fill="#E9D8B9"/>
<path fill-rule="evenodd" clip-rule="evenodd" d="M127.347 91.9103C127.978 95.242 129.586 102.414 130.167 107.809C130.748 113.203 130.306 116.815 130.37 117.022C130.433 117.228 131.002 114.025 130.85 109.67C130.698 105.315 129.826 99.8111 129.132 96.2708C128.437 92.733 127.925 91.1634 127.494 90.1229C127.065 89.0837 126.72 88.5747 127.348 91.9077L127.347 91.9103Z" fill="#E9D8B9"/>
<path d="M189.221 188.542C189.878 189.503 190.696 190.084 190.703 190.122C190.709 190.162 189.906 189.664 189.232 188.912C187.019 186.446 184.96 181.871 185.542 178.662C185.571 178.506 185.607 178.35 185.656 178.199C185.914 177.364 186.43 176.724 187.151 176.336C187.846 175.962 188.717 175.838 189.705 176.017C189.929 176.057 190.166 176.115 190.409 176.192C191.59 176.557 192.927 177.338 194.182 178.374C195.387 179.367 196.536 180.601 197.409 181.932C198.251 183.21 198.841 184.574 199.199 185.85C199.606 187.308 199.711 188.666 199.544 189.67C199.541 189.675 199.534 189.716 199.533 189.725C199.348 190.758 198.871 191.443 198.243 191.848C197.612 192.252 196.851 192.357 196.088 192.227C196.083 192.224 196.051 192.218 196.041 192.22C195.321 192.092 194.593 191.754 193.99 191.313C193.364 190.857 192.858 190.276 192.614 189.679C192.25 188.796 192.455 188.008 192.65 187.254C192.715 187.01 192.775 186.768 192.807 186.547C192.858 186.187 192.828 185.843 192.766 185.546C192.468 184.09 191.548 185.481 191.606 186.311C191.654 186.985 192.289 187.48 192.263 187.502C192.235 187.527 191.543 187.081 191.275 186.52C190.998 185.94 191.427 182.982 192.508 183.492C192.798 183.418 193.031 183.43 193.308 183.658C193.458 183.785 193.581 183.972 193.714 184.284C193.818 184.525 193.946 184.872 194.031 185.286C194.117 185.711 194.16 186.206 194.088 186.726C194.048 187.012 193.975 187.293 193.9 187.579C193.756 188.131 193.607 188.709 193.806 189.193C193.959 189.564 194.309 189.949 194.753 190.275C195.207 190.606 195.749 190.858 196.276 190.955L196.306 190.963C196.77 191.041 197.212 190.991 197.554 190.774C197.892 190.556 198.157 190.149 198.273 189.502L198.282 189.462C198.421 188.634 198.323 187.474 197.967 186.201C197.644 185.045 197.107 183.807 196.341 182.643C195.54 181.425 194.486 180.292 193.373 179.374C192.238 178.439 191.055 177.739 190.03 177.423C189.843 177.366 189.66 177.321 189.477 177.288C188.784 177.163 188.202 177.238 187.76 177.473C187.344 177.696 187.043 178.079 186.886 178.587C186.857 178.681 186.83 178.785 186.812 178.896C186.628 179.914 188.187 187.025 189.223 188.543L189.221 188.542Z" fill="#E9D8B9"/>
<path d="M208.545 208.92C210.893 209.033 212.535 209.514 212.621 209.498C212.707 209.482 211.239 208.972 209.316 208.727C203.012 207.923 192.451 208.429 186.159 210.768C185.854 210.882 185.554 211.005 185.269 211.135C183.693 211.849 182.658 212.709 182.258 213.625C181.872 214.51 182.093 215.429 183.008 216.298C183.218 216.494 183.467 216.693 183.757 216.89C185.162 217.842 187.51 218.72 190.334 219.377C193.046 220.011 196.221 220.451 199.445 220.573C202.541 220.692 205.679 220.517 208.508 220.163C211.735 219.759 214.594 219.112 216.569 218.394C216.582 218.387 216.661 218.358 216.676 218.353C218.701 217.602 219.854 216.758 220.338 215.919C220.825 215.079 220.617 214.279 219.93 213.602C219.919 213.597 219.892 213.568 219.889 213.561C219.225 212.927 218.13 212.401 216.891 212.053C215.607 211.693 214.129 211.518 212.762 211.607C210.742 211.741 209.229 212.374 207.785 212.981C207.317 213.179 206.856 213.37 206.416 213.522C205.705 213.769 204.976 213.928 204.328 214.035C201.16 214.546 203.526 212.879 205.263 212.478C206.679 212.151 208.045 212.502 208.08 212.462C208.115 212.422 206.814 211.991 205.512 212.038C204.164 212.085 198.304 214.138 199.949 214.913C199.96 215.236 200.109 215.461 200.733 215.6C201.077 215.678 201.533 215.691 202.246 215.653C202.799 215.621 203.586 215.555 204.485 215.409C205.411 215.26 206.455 215.028 207.483 214.67C208.05 214.474 208.588 214.247 209.138 214.015C210.197 213.57 211.303 213.107 212.41 213.034C213.254 212.979 214.245 213.106 215.159 213.364C216.093 213.625 216.913 214.014 217.398 214.479L217.427 214.505C217.843 214.918 217.985 215.376 217.725 215.829C217.464 216.282 216.768 216.763 215.498 217.234L215.423 217.261C213.79 217.855 211.351 218.397 208.531 218.752C205.97 219.074 203.12 219.231 200.304 219.125C197.353 219.011 194.432 218.606 191.933 218.022C189.382 217.427 187.286 216.653 186.07 215.828C185.849 215.677 185.655 215.522 185.487 215.364C184.845 214.756 184.677 214.145 184.92 213.583C185.151 213.053 185.774 212.547 186.73 212.114C186.906 212.033 187.106 211.951 187.323 211.871C189.317 211.131 204.836 208.732 208.535 208.909L208.545 208.92Z" fill="#E9D8B9"/>
<path d="M140.321 146.102C140.979 147.063 141.797 147.644 141.804 147.682C141.81 147.722 141.007 147.224 140.333 146.472C138.119 144.006 136.06 139.431 136.642 136.222C136.672 136.066 136.708 135.91 136.756 135.759C137.015 134.925 137.531 134.284 138.252 133.896C138.947 133.522 139.817 133.398 140.806 133.577C141.029 133.617 141.266 133.675 141.51 133.752C142.691 134.117 144.028 134.898 145.282 135.934C146.488 136.927 147.637 138.161 148.51 139.492C149.351 140.77 149.942 142.134 150.299 143.41C150.707 144.868 150.812 146.226 150.644 147.23C150.642 147.235 150.635 147.276 150.634 147.285C150.449 148.318 149.972 149.003 149.343 149.408C148.712 149.812 147.952 149.917 147.189 149.787C147.184 149.784 147.152 149.779 147.142 149.78C146.422 149.652 145.694 149.314 145.09 148.873C144.465 148.417 143.959 147.836 143.715 147.239C143.351 146.356 143.556 145.568 143.751 144.814C143.815 144.57 143.876 144.328 143.908 144.107C143.958 143.747 143.929 143.403 143.867 143.106C143.569 141.65 142.649 143.041 142.707 143.871C142.754 144.545 143.389 145.04 143.363 145.062C143.336 145.087 142.643 144.641 142.376 144.08C142.099 143.5 142.528 140.542 143.609 141.052C143.898 140.978 144.132 140.99 144.408 141.218C144.559 141.346 144.681 141.532 144.815 141.844C144.918 142.085 145.047 142.432 145.132 142.846C145.218 143.271 145.261 143.766 145.189 144.286C145.148 144.572 145.076 144.853 145.001 145.139C144.857 145.691 144.707 146.269 144.907 146.753C145.059 147.124 145.409 147.509 145.853 147.835C146.308 148.166 146.85 148.418 147.376 148.515L147.407 148.523C147.871 148.601 148.313 148.551 148.654 148.334C148.993 148.116 149.257 147.709 149.374 147.062L149.383 147.022C149.522 146.194 149.424 145.034 149.067 143.761C148.744 142.605 148.208 141.367 147.442 140.203C146.641 138.985 145.586 137.852 144.474 136.934C143.339 135.999 142.155 135.299 141.131 134.983C140.944 134.926 140.76 134.881 140.578 134.848C139.885 134.723 139.302 134.798 138.861 135.033C138.444 135.256 138.144 135.639 137.986 136.147C137.958 136.241 137.931 136.345 137.913 136.456C137.729 137.474 139.287 144.585 140.324 146.103L140.321 146.102Z" fill="#E9D8B9"/>
<path fill-rule="evenodd" clip-rule="evenodd" d="M78.575 163.573C77.7754 167.177 75.5935 174.787 75.1173 180.889C74.6411 186.99 75.868 191.581 75.7748 191.792C75.6803 192 74.2668 187.824 74.0616 182.707C73.8564 177.591 74.8606 171.531 75.756 167.717C76.6475 163.904 77.4276 162.336 78.1116 161.353C78.7931 160.368 79.3772 159.97 78.5802 163.575L78.575 163.573Z" fill="#E9D8B9"/>
<path fill-rule="evenodd" clip-rule="evenodd" d="M114.681 119.327C113.778 120.167 109.832 122.863 106.873 125.77C103.914 128.677 101.937 131.795 99.2389 134.067C96.5412 136.339 93.1225 137.764 92.2474 141.075C91.3724 144.385 93.0423 149.585 93.7701 152.565C94.4967 155.549 94.2813 156.312 93.5418 156.653C92.8035 156.991 91.545 156.904 90.4972 155.904C89.452 154.904 88.6163 152.993 88.3521 151.024C88.088 149.055 88.3916 147.03 88.8032 144.549C89.2148 142.068 89.7318 139.13 90.5068 136.565C91.2806 134.003 92.3138 131.812 93.9795 130.501C95.6452 129.191 97.9484 128.757 100.938 127.24C103.932 125.721 107.616 123.121 110.529 121.313C113.442 119.505 115.582 118.49 114.68 119.329L114.681 119.327Z" fill="#E9D8B9"/>
<path fill-rule="evenodd" clip-rule="evenodd" d="M162.897 224.279C163.266 223.115 166.702 226.252 170.129 228.413C173.557 230.57 176.978 231.749 181.26 232.323C185.544 232.899 190.692 232.865 196.194 233.687C201.699 234.511 207.559 236.188 212.381 237.92C217.202 239.652 220.988 241.438 223.954 241.967C226.92 242.497 229.069 241.776 230.819 239.058C232.57 236.339 233.926 231.629 235.659 230.022C237.391 228.416 239.502 229.918 242.665 231.951C245.829 233.983 250.04 236.548 254.439 239.022C258.84 241.494 263.428 243.874 266.885 242.829C270.341 241.783 272.667 237.312 273.588 233.517C274.509 229.721 274.029 226.603 274.036 226.895C274.042 227.188 274.536 230.892 274.388 234.583C274.237 238.273 273.444 241.95 272.099 244.494C270.753 247.042 268.857 248.461 265.673 248.008C262.489 247.554 258.019 245.23 253.786 242.403C249.553 239.576 245.558 236.245 242.792 234.906C240.025 233.567 238.492 234.216 237.369 236.978C236.247 239.738 235.54 244.613 234.174 247.51C232.807 250.409 230.783 251.334 226.87 250.43C222.958 249.526 217.163 246.794 210.41 244.403C203.657 242.015 195.945 239.968 189.757 239.219C183.569 238.47 178.9 239.016 175.516 238.761C172.132 238.503 170.029 237.439 167.629 234.174C165.23 230.909 162.53 225.444 162.898 224.276L162.897 224.279Z" fill="#E9D8B9"/>
<path fill-rule="evenodd" clip-rule="evenodd" d="M90.0363 194.863C89.9834 196.884 89.4234 201.054 90.1345 204.637C90.8456 208.221 92.8252 211.215 92.7806 211.323C92.7334 211.43 90.6608 208.653 89.5135 205.534C88.3662 202.416 88.1442 198.956 88.2444 196.829C88.3419 194.7 88.7578 193.905 89.1966 193.441C89.6328 192.976 90.0907 192.846 90.0403 194.868L90.0363 194.863Z" fill="#E9D8B9"/>
<path fill-rule="evenodd" clip-rule="evenodd" d="M117.524 218.955C117.471 220.976 116.911 225.146 117.622 228.729C118.333 232.313 120.313 235.307 120.268 235.415C120.221 235.522 118.148 232.745 117.001 229.626C115.853 226.508 115.632 223.048 115.732 220.921C115.829 218.792 116.245 217.997 116.684 217.533C117.12 217.068 117.578 216.938 117.528 218.96L117.524 218.955Z" fill="#E9D8B9"/>
<path fill-rule="evenodd" clip-rule="evenodd" d="M252.698 260.339C250.426 263.249 245.943 269.774 241.539 274.023C237.135 278.273 232.812 280.247 232.708 280.453C232.609 280.658 236.729 279.092 240.807 275.995C244.885 272.898 248.922 268.267 251.295 265.15C253.669 262.036 254.382 260.437 254.706 259.284C255.032 258.131 254.967 257.427 252.693 260.336L252.698 260.339Z" fill="#E9D8B9"/>
<path fill-rule="evenodd" clip-rule="evenodd" d="M222.237 267.802C219.25 268.88 213.053 271.346 207.815 272.826C202.576 274.302 198.299 274.791 198.135 274.871C197.972 274.952 201.926 274.626 206.447 273.626C210.969 272.623 216.06 270.948 219.208 269.789C222.355 268.632 223.563 267.993 224.279 267.516C224.995 267.038 225.222 266.723 222.234 267.801L222.237 267.802Z" fill="#E9D8B9"/>
<path fill-rule="evenodd" clip-rule="evenodd" d="M197.226 265.297C191.762 264.6 180.193 263.479 171.011 261.673C161.829 259.868 155.033 257.378 154.714 257.369C154.393 257.362 160.551 259.841 168.21 261.788C175.869 263.734 185.026 265.147 190.809 265.853C196.593 266.559 199 266.552 200.523 266.411C202.046 266.27 202.689 265.994 197.226 265.297Z" fill="#E9D8B9"/>
<path d="M96.3792 98.6941C95.7989 98.5968 95.0843 98.6312 94.3773 98.7826C93.7224 98.9238 93.0811 99.1628 92.5819 99.4876C92.1918 99.7411 91.8845 100.053 91.7193 100.343C91.6373 100.49 91.5897 100.631 91.5912 100.755C91.5914 100.874 91.6371 100.978 91.7358 101.062C91.824 101.135 91.9551 101.191 92.1328 101.221C92.6785 101.311 93.6405 101.179 94.6153 100.94C95.6204 100.69 96.6153 100.329 97.1509 99.9801C97.3377 99.8574 97.456 99.7401 97.5121 99.6343L97.5194 99.6189C97.5631 99.5262 97.5687 99.4344 97.5386 99.3447L97.5384 99.3383C97.5029 99.2334 97.4191 99.131 97.2974 99.0421C97.0837 98.8815 96.7613 98.7579 96.3754 98.6955L96.3792 98.6941ZM94.4943 98.2743C95.3089 98.1014 96.133 98.0619 96.8039 98.1737C97.264 98.2522 97.6506 98.3998 97.9084 98.5938C98.0716 98.7148 98.1857 98.8598 98.239 99.0203L98.2417 99.0279C98.2965 99.1985 98.2805 99.3861 98.1806 99.5845L98.1697 99.6076C98.0477 99.8397 97.8176 100.074 97.4626 100.307C96.8079 100.734 95.6642 101.158 94.535 101.438C93.4514 101.707 92.3586 101.85 91.7081 101.741C91.446 101.696 91.2494 101.613 91.1143 101.499C90.9546 101.364 90.8794 101.19 90.8773 100.988C90.8753 100.792 90.9429 100.575 91.069 100.354C91.299 99.9464 91.727 99.5125 92.2676 99.16C92.9073 98.7441 93.6974 98.4431 94.4917 98.2731L94.4943 98.2743Z" fill="#E9D8B9"/>
<path d="M73.6039 136.461C73.0934 136.015 72.597 135.353 72.2121 134.615C71.8378 133.894 71.5674 133.093 71.4812 132.335C71.4092 131.693 71.4705 131.089 71.6399 130.65C71.7325 130.414 71.8542 130.222 72.0067 130.099C72.1629 129.975 72.3463 129.919 72.5521 129.957C72.726 129.988 72.9154 130.087 73.1167 130.261C73.6142 130.693 74.1996 131.627 74.681 132.635C75.1838 133.684 75.5833 134.838 75.6711 135.613C75.7177 136.035 75.6806 136.36 75.5817 136.603L75.5708 136.626C75.4813 136.83 75.3442 136.96 75.1803 137.028L75.1727 137.03C75.015 137.091 74.8317 137.093 74.6333 137.047C74.3196 136.971 73.9572 136.766 73.6065 136.462L73.6039 136.461ZM72.5298 134.201C72.8628 134.843 73.291 135.416 73.7352 135.802C74.03 136.057 74.3294 136.23 74.5892 136.293C74.7364 136.327 74.8651 136.328 74.9711 136.29L74.9761 136.286C75.0619 136.251 75.1318 136.19 75.1755 136.097L75.1828 136.081C75.2286 135.971 75.2439 135.805 75.2197 135.583C75.1504 134.949 74.7965 133.951 74.3473 133.016C73.9153 132.11 73.4024 131.283 72.9842 130.922C72.8478 130.804 72.7215 130.738 72.609 130.717C72.485 130.693 72.3724 130.725 72.2799 130.801C72.1837 130.878 72.1063 131.002 72.0438 131.161C71.9249 131.474 71.8801 131.909 71.9327 132.371C71.9998 132.963 72.2208 133.609 72.5311 134.205L72.5298 134.201Z" fill="#E9D8B9"/>
<path d="M289.612 218.576C289.101 218.131 288.605 217.469 288.22 216.73C287.846 216.009 287.575 215.208 287.489 214.45C287.417 213.809 287.478 213.205 287.648 212.766C287.74 212.529 287.862 212.338 288.014 212.215C288.171 212.09 288.354 212.035 288.56 212.072C288.734 212.104 288.923 212.202 289.124 212.376C289.622 212.809 290.207 213.743 290.689 214.75C291.192 215.799 291.591 216.954 291.679 217.728C291.725 218.15 291.688 218.476 291.59 218.719L291.579 218.742C291.489 218.945 291.352 219.076 291.188 219.143L291.181 219.146C291.023 219.207 290.839 219.208 290.641 219.162C290.327 219.087 289.965 218.881 289.614 218.577L289.612 218.576ZM288.538 216.317C288.871 216.958 289.299 217.532 289.743 217.917C290.038 218.173 290.337 218.345 290.597 218.408C290.744 218.443 290.873 218.444 290.979 218.406L290.984 218.402C291.07 218.367 291.14 218.305 291.183 218.212L291.191 218.197C291.236 218.086 291.252 217.92 291.228 217.698C291.158 217.064 290.804 216.067 290.355 215.131C289.923 214.226 289.41 213.398 288.992 213.037C288.856 212.92 288.729 212.854 288.617 212.832C288.493 212.808 288.38 212.84 288.288 212.916C288.191 212.994 288.114 213.118 288.052 213.277C287.933 213.589 287.888 214.024 287.941 214.487C288.008 215.078 288.229 215.724 288.539 216.32L288.538 216.317Z" fill="#E9D8B9"/>
<path d="M212.47 108.423C211.96 107.978 211.463 107.316 211.078 106.577C210.704 105.856 210.434 105.055 210.347 104.297C210.275 103.656 210.337 103.052 210.506 102.613C210.599 102.376 210.72 102.185 210.873 102.062C211.029 101.937 211.212 101.882 211.418 101.919C211.592 101.951 211.782 102.05 211.983 102.223C212.48 102.656 213.066 103.59 213.547 104.597C214.05 105.646 214.449 106.801 214.537 107.576C214.584 107.997 214.547 108.323 214.448 108.566L214.437 108.589C214.347 108.792 214.21 108.923 214.046 108.99L214.039 108.993C213.881 109.054 213.698 109.056 213.499 109.009C213.186 108.934 212.823 108.728 212.473 108.424L212.47 108.423ZM211.396 106.164C211.729 106.805 212.157 107.379 212.601 107.764C212.896 108.02 213.196 108.192 213.455 108.255C213.603 108.29 213.731 108.291 213.837 108.253L213.842 108.249C213.928 108.214 213.998 108.152 214.042 108.06L214.049 108.044C214.095 107.934 214.11 107.768 214.086 107.545C214.017 106.912 213.663 105.914 213.214 104.978C212.782 104.073 212.269 103.245 211.85 102.885C211.714 102.767 211.588 102.701 211.475 102.679C211.351 102.656 211.239 102.687 211.146 102.763C211.05 102.841 210.973 102.965 210.91 103.124C210.791 103.436 210.746 103.872 210.799 104.334C210.866 104.926 211.087 105.571 211.397 106.168L211.396 106.164Z" fill="#E9D8B9"/>
<path d="M288.115 242.29C287.535 242.192 286.821 242.227 286.114 242.378C285.459 242.519 284.817 242.758 284.318 243.083C283.928 243.337 283.621 243.648 283.456 243.938C283.374 244.086 283.326 244.227 283.328 244.35C283.328 244.47 283.373 244.573 283.472 244.658C283.56 244.731 283.691 244.786 283.869 244.816C284.415 244.907 285.377 244.775 286.352 244.536C287.357 244.286 288.352 243.924 288.887 243.576C289.074 243.453 289.192 243.336 289.248 243.23L289.256 243.214C289.299 243.122 289.305 243.03 289.275 242.94L289.275 242.934C289.239 242.829 289.155 242.727 289.034 242.638C288.82 242.477 288.498 242.353 288.112 242.291L288.115 242.29ZM286.231 241.87C287.045 241.697 287.869 241.657 288.54 241.769C289 241.848 289.387 241.995 289.645 242.189C289.808 242.31 289.922 242.455 289.975 242.616L289.978 242.623C290.033 242.794 290.017 242.982 289.917 243.18L289.906 243.203C289.784 243.435 289.554 243.67 289.199 243.902C288.544 244.33 287.4 244.754 286.271 245.033C285.188 245.303 284.095 245.445 283.444 245.337C283.182 245.292 282.986 245.209 282.851 245.095C282.691 244.96 282.616 244.786 282.614 244.583C282.612 244.387 282.679 244.17 282.805 243.95C283.035 243.542 283.463 243.108 284.004 242.756C284.644 242.34 285.434 242.039 286.228 241.869L286.231 241.87Z" fill="#E9D8B9"/>
<path d="M165.414 57.0325C164.918 56.9752 164.384 57.0946 163.911 57.3564L163.898 57.363C163.466 57.6061 163.095 57.9661 162.87 58.417C162.744 58.6695 162.663 58.949 162.631 59.2235C162.598 59.5133 162.617 59.793 162.698 60.0228C162.774 60.2414 162.904 60.4192 163.096 60.5128C163.175 60.553 163.263 60.5789 163.359 60.5894C163.825 60.6423 164.504 60.377 165.136 59.9765C165.791 59.5615 166.384 59.0104 166.625 58.526C166.687 58.4011 166.722 58.2882 166.736 58.1848C166.759 58.0034 166.707 57.8314 166.606 57.6797L166.598 57.6634C166.477 57.4866 166.291 57.333 166.07 57.2223L166.062 57.2187C165.868 57.1238 165.647 57.0577 165.417 57.0311L165.414 57.0325ZM163.749 56.7197C164.291 56.4181 164.911 56.2827 165.482 56.3471C165.756 56.379 166.019 56.4557 166.251 56.5713L166.261 56.5761C166.551 56.7222 166.8 56.9278 166.971 57.1848L166.985 57.2036C167.179 57.4997 167.275 57.8565 167.228 58.2561C167.203 58.4681 167.14 58.6835 167.031 58.8999C166.734 59.4963 166.055 60.1424 165.32 60.6076C164.615 61.0556 163.841 61.3486 163.286 61.2851C163.143 61.268 163.013 61.229 162.899 61.1718C162.586 61.0148 162.369 60.7206 162.242 60.3556C162.122 60.0031 162.087 59.5837 162.136 59.1662C162.181 58.7844 162.29 58.3986 162.461 58.0572C162.748 57.4814 163.208 57.0314 163.735 56.7353L163.749 56.726L163.749 56.7197Z" fill="#E9D8B9"/>
<path d="M68.9975 105.085C68.5022 105.028 67.9677 105.148 67.495 105.409L67.4825 105.416C67.0501 105.659 66.679 106.019 66.4538 106.47C66.3284 106.722 66.247 107.002 66.2151 107.276C66.1823 107.566 66.2014 107.846 66.2818 108.076C66.3581 108.294 66.4883 108.472 66.6801 108.566C66.7587 108.606 66.8471 108.632 66.9428 108.642C67.4087 108.695 68.0876 108.43 68.72 108.029C69.375 107.614 69.9684 107.063 70.2094 106.579C70.2714 106.454 70.3058 106.341 70.3199 106.238C70.3425 106.056 70.2915 105.884 70.1899 105.733L70.1807 105.719C70.0608 105.54 69.874 105.389 69.6525 105.278L69.6447 105.274C69.4503 105.179 69.2298 105.113 69.0001 105.087L68.9975 105.085ZM67.3327 104.773C67.8745 104.471 68.4952 104.336 69.0658 104.4C69.3402 104.432 69.603 104.509 69.8348 104.624L69.8451 104.629C70.1349 104.775 70.384 104.981 70.5554 105.238L70.5686 105.257C70.7625 105.553 70.8586 105.909 70.8117 106.309C70.7873 106.521 70.7235 106.736 70.6151 106.953C70.3182 107.549 69.6392 108.195 68.9038 108.661C68.1986 109.109 67.4249 109.402 66.8697 109.338C66.7267 109.321 66.5972 109.282 66.4826 109.225C66.1696 109.068 65.9528 108.774 65.8261 108.409C65.7059 108.056 65.6709 107.637 65.7198 107.219C65.7646 106.837 65.8741 106.452 66.0445 106.11C66.3317 105.534 66.7925 105.084 67.3191 104.788L67.3329 104.779L67.3327 104.773Z" fill="#E9D8B9"/>
<path d="M247.971 252.099C247.476 252.042 246.941 252.161 246.469 252.423L246.456 252.43C246.024 252.673 245.653 253.033 245.427 253.484C245.302 253.736 245.221 254.016 245.189 254.29C245.156 254.58 245.175 254.86 245.255 255.089C245.332 255.308 245.462 255.486 245.654 255.579C245.732 255.62 245.821 255.646 245.916 255.656C246.382 255.709 247.061 255.444 247.694 255.043C248.349 254.628 248.942 254.077 249.183 253.593C249.245 253.468 249.279 253.355 249.294 253.251C249.316 253.07 249.265 252.898 249.164 252.746L249.154 252.733C249.034 252.553 248.848 252.402 248.626 252.292L248.618 252.288C248.424 252.193 248.203 252.127 247.974 252.1L247.971 252.099ZM246.306 251.786C246.848 251.485 247.469 251.349 248.039 251.414C248.314 251.446 248.577 251.522 248.808 251.638L248.819 251.643C249.109 251.789 249.358 251.994 249.529 252.251L249.542 252.27C249.736 252.566 249.832 252.923 249.785 253.323C249.761 253.535 249.697 253.75 249.589 253.967C249.292 254.563 248.613 255.209 247.877 255.674C247.172 256.122 246.399 256.415 245.843 256.352C245.7 256.335 245.571 256.296 245.456 256.238C245.143 256.081 244.926 255.787 244.8 255.422C244.68 255.07 244.644 254.65 244.693 254.233C244.738 253.851 244.848 253.465 245.018 253.124C245.305 252.548 245.766 252.098 246.293 251.802L246.307 251.793L246.306 251.786Z" fill="#E9D8B9"/>
<path d="M125.386 148.951C124.431 148.841 123.398 149.071 122.486 149.576C121.643 150.044 120.917 150.743 120.477 151.622C120.235 152.109 120.077 152.651 120.015 153.182C119.95 153.74 119.991 154.282 120.142 154.728C120.29 155.15 120.542 155.489 120.91 155.675C121.063 155.75 121.231 155.801 121.419 155.824C122.318 155.926 123.629 155.415 124.85 154.64C126.114 153.839 127.255 152.775 127.724 151.841C127.843 151.601 127.912 151.382 127.934 151.182C127.973 150.832 127.876 150.497 127.684 150.204C127.449 149.848 127.084 149.547 126.644 149.327C126.261 149.137 125.832 149.007 125.381 148.955L125.386 148.951ZM122.179 148.346C123.228 147.764 124.418 147.5 125.52 147.626C126.057 147.688 126.571 147.839 127.023 148.068C127.597 148.354 128.085 148.766 128.418 149.273C128.793 149.846 128.977 150.531 128.888 151.301C128.841 151.707 128.719 152.125 128.51 152.542C127.933 153.693 126.626 154.936 125.211 155.836C123.85 156.699 122.356 157.266 121.285 157.142C121.008 157.109 120.759 157.036 120.538 156.925C119.932 156.621 119.513 156.055 119.273 155.35C119.041 154.668 118.977 153.863 119.069 153.054C119.155 152.317 119.367 151.574 119.698 150.912C120.258 149.791 121.157 148.912 122.183 148.344L122.179 148.346Z" fill="#E9D8B9"/>
<path d="M176.374 189.071C176.074 188.426 175.729 187.93 175.369 187.606C175.088 187.354 174.801 187.209 174.52 187.177C174.242 187.147 173.965 187.233 173.71 187.441C173.491 187.618 173.287 187.883 173.104 188.244C172.663 189.128 172.343 190.586 172.277 192.027C172.222 193.213 172.347 194.408 172.734 195.236C173.031 195.873 173.477 196.316 173.976 196.564C174.292 196.722 174.629 196.802 174.96 196.808C175.288 196.811 175.618 196.74 175.927 196.597C176.387 196.382 176.79 196.009 177.052 195.487L177.069 195.457C177.366 194.839 177.444 193.947 177.373 193.023C177.266 191.635 176.885 190.156 176.377 189.07L176.374 189.071ZM175.569 185.586C175.98 185.955 176.378 186.527 176.727 187.274C177.344 188.594 177.814 190.487 177.958 192.33C178.102 194.194 177.944 195.99 177.339 197.227L177.319 197.269C176.982 197.944 176.494 198.412 175.953 198.664C175.622 198.819 175.262 198.895 174.9 198.888C174.541 198.883 174.176 198.796 173.838 198.626C173.265 198.34 172.746 197.813 172.382 197.03C171.778 195.742 171.586 193.813 171.68 191.872C171.78 189.779 172.225 187.694 172.839 186.464C173.081 185.986 173.346 185.636 173.622 185.41C173.93 185.159 174.26 185.059 174.59 185.093C174.92 185.128 175.251 185.294 175.572 185.58L175.569 185.586Z" fill="#E9D8B9"/>
<path d="M245.99 213.316C245.69 212.671 245.345 212.175 244.985 211.851C244.704 211.599 244.417 211.454 244.136 211.422C243.858 211.392 243.581 211.479 243.326 211.686C243.107 211.863 242.903 212.128 242.721 212.489C242.279 213.373 241.96 214.831 241.893 216.272C241.838 217.458 241.963 218.653 242.35 219.481C242.647 220.118 243.093 220.561 243.593 220.809C243.908 220.968 244.245 221.048 244.576 221.053C244.904 221.056 245.234 220.985 245.544 220.842C246.003 220.627 246.406 220.254 246.668 219.732L246.685 219.702C246.983 219.084 247.06 218.192 246.989 217.268C246.882 215.88 246.501 214.401 245.994 213.315L245.99 213.316ZM245.185 209.831C245.596 210.201 245.994 210.772 246.343 211.519C246.96 212.839 247.43 214.732 247.574 216.575C247.718 218.44 247.56 220.235 246.955 221.472L246.935 221.514C246.598 222.189 246.11 222.657 245.569 222.909C245.238 223.064 244.878 223.14 244.517 223.133C244.158 223.128 243.793 223.041 243.454 222.871C242.881 222.586 242.362 222.058 241.998 221.275C241.394 219.987 241.202 218.058 241.296 216.117C241.396 214.024 241.841 211.939 242.456 210.709C242.697 210.231 242.962 209.881 243.239 209.655C243.546 209.404 243.876 209.305 244.207 209.338C244.536 209.373 244.867 209.539 245.188 209.826L245.185 209.831Z" fill="#E9D8B9"/>
</g>
<defs>
<clipPath id="clip0_78_38916">
<rect width="292.842" height="210.57" fill="white" transform="translate(90.2178 0.912842) rotate(25.2441)"/>
</clipPath>
</defs>
</svg>
