<svg width="66" height="65" viewBox="0 0 66 65" fill="none" xmlns="http://www.w3.org/2000/svg">
<path d="M27.286 62.443C43.3953 66.5586 58.3035 55.4835 63.4613 40.2751C68.9193 24.2011 58.2858 3.37563 41.47 0.514111C24.6011 -2.34741 5.22409 6.90838 0.825834 23.9892C-3.64308 41.3349 10.7175 59.7758 27.2154 62.6726C27.7276 62.761 28.1516 62.0191 27.604 61.7718C20.6622 58.504 14.3386 56.4021 9.49871 49.9018C5.25943 44.2141 3.2281 36.5127 2.48623 29.5709C0.560883 11.2537 20.9801 2.88104 35.6409 1.89188C55.5833 0.531772 66.5171 19.1493 63.8852 37.3252C61.4653 53.8938 43.1834 66.0641 27.4273 61.9661C27.1094 61.8778 26.9858 62.3723 27.3037 62.443H27.286Z" fill="#E9D8B9"/>
<path d="M40.3223 61.2417C37.4608 62.5665 34.564 63.1141 31.4198 62.9728C28.629 62.8668 26.0678 60.9591 23.3829 61.1887C22.9943 61.224 22.6587 61.648 22.9059 62.0366C24.4427 64.3859 27.8165 64.4565 30.3954 64.5272C33.9988 64.6508 37.5138 63.432 40.5343 61.5596C40.7463 61.436 40.5696 61.1357 40.34 61.2417H40.3223Z" fill="#E9D8B9"/>
<path d="M31.2072 63.7854C43.9957 65.3398 55.0002 54.618 62.0833 45.0266C68.5306 36.3184 65.0685 17.8951 57.3495 10.9886C57.0492 10.7237 56.5193 11.0769 56.7666 11.4479C62.7546 20.2267 66.2696 34.4283 60.3523 44.0197C54.6293 53.2755 42.194 63.2025 31.2249 63.1672C30.8186 63.1672 30.8363 63.7501 31.2249 63.7854H31.2072Z" fill="#E9D8B9"/>
<path d="M38.7319 53.9821C39.4561 55.0949 41.0635 54.7416 41.717 53.7348C42.1233 53.1165 42.6709 52.0744 42.3883 51.3502C42.088 50.5906 41.4168 50.0254 40.6749 49.7074C39.0322 49.0009 37.1775 49.8841 36.5946 51.5445C36.3826 52.1274 36.0823 53.4168 36.7536 53.8231C37.2128 54.088 37.7957 54.2294 38.2726 54.4237C38.8732 54.6533 39.2971 54.8299 39.933 54.7239C40.198 54.6709 40.3569 54.3 40.198 54.0881C39.5444 53.2049 38.255 52.9576 37.2835 52.569L37.7604 53.0459C37.4778 51.2972 39.3501 50.255 40.7986 51.0145C42.6886 52.0037 40.304 55.3422 39.0322 53.7524C38.8909 53.5935 38.6259 53.8054 38.7319 53.9821Z" fill="#E9D8B9"/>
<path d="M22.8874 41.4057C23.9649 41.8119 25.5016 42.2359 26.4731 41.335C27.2503 40.6285 27.3386 39.604 26.9677 38.6501C25.8726 35.8416 22.4635 36.9014 20.7501 38.4029C20.6088 38.5265 20.5381 38.7915 20.6088 38.9681C21.0504 40.0633 21.3506 41.1231 22.1455 42.0063C22.3575 42.2359 22.7991 42.0592 22.7814 41.7413C22.6931 40.5578 22.1455 39.5863 21.6686 38.5088C21.6333 38.7385 21.6156 38.9681 21.5803 39.2154C22.7461 38.1202 24.8834 37.1134 25.9962 38.8091C26.4378 39.4803 26.4025 40.3459 25.7136 40.8405C24.9894 41.3527 23.8412 40.9464 23.0817 40.6991C22.6224 40.5401 22.4458 41.2467 22.8874 41.4233V41.4057Z" fill="#E9D8B9"/>
<path d="M14.7451 50.626C15.0807 51.1382 15.7166 51.7918 16.4055 51.7918C17.006 51.7918 17.8009 51.156 18.2425 50.785C19.373 49.8135 18.9667 48.1001 17.589 47.6408C16.1052 47.1462 14.3212 47.7998 13.6853 49.3012C13.12 50.6437 14.1445 53.0636 15.8932 52.3394C16.2465 52.1981 16.3702 51.5975 15.8932 51.5092C14.8864 51.2972 14.3388 50.5201 14.9217 49.5662C15.3457 48.8597 16.3348 48.471 17.1297 48.5947C18.2248 48.7537 18.2602 49.7605 17.589 50.467C17.2887 50.785 16.8824 51.0146 16.4938 51.2089C16.0169 51.4739 15.3103 50.7497 15.063 50.4317C14.9217 50.2727 14.6568 50.4847 14.7628 50.6614L14.7451 50.626Z" fill="#E9D8B9"/>
<path d="M44.4729 26.6916C45.1088 27.7161 46.6809 27.8221 47.3521 26.7269C48.0763 25.5434 47.617 24.1304 46.3276 23.6181C45.0205 23.0882 43.6604 23.6534 43.2718 25.0312C42.9008 26.356 43.6957 27.7514 45.0558 27.8927C45.515 27.9457 45.621 27.2922 45.2678 27.0802C44.2963 26.4973 43.7487 24.731 45.1441 24.2894C45.8153 24.0774 46.5925 24.5189 46.9458 25.0665C47.829 26.409 45.7094 27.9281 44.6849 26.5503C44.5965 26.4267 44.3846 26.5503 44.4729 26.6739V26.6916Z" fill="#E9D8B9"/>
<path d="M19.6023 28.6346C20.98 28.4933 22.6581 28.1047 23.1703 26.6563C23.7179 25.0842 21.7749 23.8654 20.4855 23.7241C19.0724 23.5651 17.041 24.3423 17.041 26.0557C17.041 27.4512 18.2775 28.9702 19.7789 28.3873C20.1498 28.246 20.0085 27.6631 19.6199 27.7867C18.3305 28.1753 17.5179 26.4443 18.2598 25.5081C18.8251 24.7839 20.0615 24.6426 20.9094 24.8016C22.1282 25.0135 23.082 26.2323 22.0575 27.2745C21.4393 27.8927 20.4325 28.1223 19.6023 28.2813C19.3903 28.3166 19.4433 28.6699 19.6553 28.6522L19.6023 28.6346Z" fill="#E9D8B9"/>
<path d="M53.0394 42.2006C54.3641 42.4302 55.5653 41.5117 55.8126 40.2046C56.0422 38.9858 54.9117 37.9613 53.7636 37.8906C52.5448 37.82 51.5379 38.5618 51.5026 39.816C51.4496 41.0877 52.6861 42.2712 53.9402 42.1123C54.5761 42.0416 54.4525 41.1584 53.8166 41.2644C52.9687 41.388 52.3328 40.5755 52.2445 39.816C52.1385 38.9151 53.0217 38.4912 53.7636 38.5089C54.7174 38.5265 55.424 39.3391 55.2826 40.2752C55.1237 41.2997 54.0462 41.9356 53.0923 41.812C52.8804 41.7766 52.8451 42.1476 53.0394 42.1829V42.2006Z" fill="#E9D8B9"/>
<path d="M34.9695 36.0889C36.0646 36.1419 37.0538 35.9299 37.7426 35.0291C38.3609 34.2165 38.0606 33.1567 37.301 32.6092C36.6122 32.1146 35.4111 32.2735 34.8105 32.8211C33.892 33.669 33.8213 34.7994 34.1393 35.9476C34.2452 36.3362 34.8988 36.2832 34.8635 35.8416C34.7928 34.8348 35.0931 33.3334 36.3119 33.2274C37.2127 33.1391 37.5307 33.9869 37.1951 34.7111C36.8241 35.5237 35.7467 35.6826 34.9695 35.7179C34.7222 35.7179 34.7222 36.0712 34.9695 36.0889Z" fill="#E9D8B9"/>
<path d="M30.1476 13.285C31.2957 14.2388 33.0621 14.2035 34.2102 13.232C35.6409 12.0308 35.482 10.1762 34.3515 8.83373C33.1327 7.38531 31.0131 7.40297 29.706 8.65709C28.5402 9.7699 28.7168 11.9248 29.7236 13.0376C30.0062 13.3556 30.5185 12.9494 30.3065 12.5784C29.7766 11.6952 29.9356 10.6354 30.6068 9.85821C31.4547 8.8867 32.5145 8.74538 33.539 9.62857C35.7999 11.6069 32.5675 14.3978 30.4478 12.8787C30.2182 12.7197 29.9356 13.0906 30.1476 13.2673V13.285Z" fill="#E9D8B9"/>
<path d="M47.9167 10.7943C48.217 11.3065 48.7116 11.4125 49.2768 11.3242C50.1424 11.2005 50.584 10.1584 50.8666 9.46952C50.9372 9.29288 50.8136 9.11623 50.6723 9.01024C49.4711 8.14472 48.0051 7.61483 46.9629 8.97494C46.2034 9.9641 47.3868 11.6775 48.535 10.9533C48.8529 10.759 48.7999 10.2644 48.429 10.1584C47.7578 9.94646 48.0757 9.45186 48.5526 9.31055C49.1179 9.15158 49.7538 9.46953 50.2483 9.69915C50.1777 9.54018 50.1247 9.39885 50.054 9.23988C49.8774 10.0877 49.0295 11.9071 47.9874 10.706C47.9344 10.653 47.8637 10.706 47.8814 10.7766L47.9167 10.7943Z" fill="#E9D8B9"/>
<path d="M11.0527 16.3054C11.6003 17.1886 12.7131 17.2769 13.561 16.747C14.4265 16.1995 14.7621 14.5391 14.2499 13.6559C13.7376 12.7727 12.0419 13.2849 11.3883 13.6559C10.3638 14.2211 9.7103 15.3869 10.1519 16.5174C10.3109 16.906 10.8408 16.853 10.8761 16.4114C10.9998 15.016 12.2715 13.7442 13.7023 14.3448L13.3667 14.0092C13.5257 14.5038 13.561 14.9807 13.4373 15.4929C13.243 16.2348 12.1655 16.6234 11.671 15.9168C11.406 15.5282 10.7701 15.8815 11.0351 16.2878L11.0527 16.3054Z" fill="#E9D8B9"/>
<path d="M32.2318 59.3164C29.4763 60.0229 26.7384 59.6166 24.3008 58.1505C24.0182 57.9916 23.7709 58.4155 24.0535 58.5745C26.5971 60.0582 29.4763 60.4469 32.3378 59.6697C32.5674 59.599 32.4791 59.2457 32.2318 59.3164Z" fill="#E9D8B9"/>
<path d="M29.2641 55.7485C28.3279 55.6072 27.4801 55.3069 26.6675 54.8299C26.2436 54.5826 25.8726 55.2539 26.2966 55.4659C27.2151 55.9604 28.1689 56.2431 29.1934 56.349C29.5467 56.3844 29.6174 55.7838 29.2817 55.7308L29.2641 55.7485Z" fill="#E9D8B9"/>
<path d="M26.8266 50.944C26.5087 50.8203 26.1731 50.679 25.8551 50.5554C25.4665 50.3964 25.2016 51.0323 25.5725 51.2442C25.8904 51.4209 26.1907 51.5799 26.5087 51.7565C27.0562 52.0568 27.4272 51.2089 26.8443 50.9616L26.8266 50.944Z" fill="#E9D8B9"/>
<path d="M11.1948 35.135C11.0358 34.0399 10.4882 32.3971 9.21644 32.2558C8.95149 32.2205 8.68654 32.4678 8.61588 32.7151C8.28027 33.8986 9.72869 35.0467 10.6472 35.5589C10.9651 35.7356 11.2301 35.453 11.1948 35.135Z" fill="#E9D8B9"/>
<path d="M6.93691 31.9554C6.93691 31.7965 6.93691 31.6198 6.93691 31.4608C7.20186 30.9663 6.56599 30.4716 6.15973 30.8602C5.68281 31.3195 5.55915 31.8494 5.70046 32.4853C5.91242 33.4392 7.46684 32.8386 6.95459 31.9554H6.93691Z" fill="#E9D8B9"/>
<path d="M50.1962 50.6966C55.3187 45.9274 59.24 41.5645 60.0173 34.4107C60.6708 28.3697 58.3392 20.3504 54.2412 15.8462C54.0469 15.6342 53.6937 15.9168 53.8526 16.1465C56.9791 20.58 58.4275 26.7624 59.1341 32.0615C60.1762 39.8335 55.0538 45.4682 49.9313 50.4494C49.7547 50.626 50.0196 50.8733 50.1962 50.7143V50.6966Z" fill="#E9D8B9"/>
<path d="M52.8448 14.6098C52.3679 13.9739 51.9087 13.338 51.4317 12.7021C51.3434 12.5784 51.1138 12.7021 51.2198 12.8258C51.6967 13.4616 52.156 14.0976 52.6329 14.7335C52.7212 14.8571 52.9508 14.7334 52.8448 14.6098Z" fill="#E9D8B9"/>
<path d="M61.2887 29.7298C61.8363 26.6739 61.0591 23.7241 59.0808 21.3218C58.8865 21.0745 58.5156 21.4278 58.7275 21.6751C60.6705 23.9007 61.5007 26.7269 61.0415 29.6591C61.0238 29.8181 61.2534 29.8887 61.2887 29.7298Z" fill="#E9D8B9"/>
<path d="M53.04 27.5395C52.9164 27.2392 52.7751 26.9389 52.6514 26.621C52.5631 26.4267 52.2452 26.568 52.3158 26.7623C52.4041 27.0803 52.4925 27.3982 52.5984 27.7161C52.7044 28.0517 53.199 27.8575 53.0577 27.5218L53.04 27.5395Z" fill="#E9D8B9"/>
<path d="M38.3433 29.4825C37.99 25.1549 32.0726 25.6848 29.8294 28.1047C29.5114 28.4403 29.8294 28.8996 30.2533 28.8289C31.5957 28.5993 32.7262 27.7868 34.1216 27.6101C35.7467 27.3982 37.4424 27.7338 37.99 29.5178C38.043 29.7121 38.3786 29.6768 38.3609 29.4648L38.3433 29.4825Z" fill="#E9D8B9"/>
<path d="M34.334 22.6643L32.3557 22.3287C31.7198 22.2227 31.2429 22.0638 30.6423 22.3287C30.395 22.4524 30.342 22.841 30.554 23.0176C30.9956 23.3886 31.2958 23.3709 31.8611 23.4239C32.6383 23.4945 33.4155 23.5652 34.1927 23.6182C34.7403 23.6712 34.8816 22.735 34.3163 22.6466L34.334 22.6643Z" fill="#E9D8B9"/>
<path d="M29.1406 20.1033C28.7343 20.1916 28.3104 20.2976 27.9041 20.3859C27.5685 20.4566 27.6392 21.0395 27.9924 21.0041C28.4164 20.9511 28.8226 20.8982 29.2465 20.8452C29.7941 20.7745 29.6705 19.9973 29.1406 20.121V20.1033Z" fill="#E9D8B9"/>
<path d="M22.4284 7.29689C20.3264 8.05643 18.4011 9.11628 16.6347 10.4764C16.5641 10.5294 16.6347 10.6354 16.7054 10.5824C18.4718 9.22226 20.3794 8.18009 22.4814 7.42055C22.5521 7.38522 22.5168 7.27923 22.4461 7.29689H22.4284Z" fill="#E9D8B9"/>
<path d="M30.1649 4.08218C29.2994 4.1705 28.3632 4.17048 27.533 4.4531C27.1268 4.59441 27.1974 5.15966 27.639 5.17732C28.5045 5.21265 29.4231 4.94765 30.2709 4.80634C30.6772 4.73569 30.5889 4.02919 30.1649 4.08218Z" fill="#E9D8B9"/>
<path d="M19.496 16.6941C18.6305 16.7824 17.8356 17.0297 17.0584 17.436C16.3872 17.7893 15.345 18.4958 15.2214 19.3083C15.186 19.5733 15.4157 19.8029 15.6807 19.6616C16.2812 19.3436 16.6521 18.6548 17.2174 18.2485C17.9063 17.7363 18.7365 17.4537 19.5843 17.33C19.9376 17.277 19.8493 16.6764 19.496 16.7118V16.6941Z" fill="#E9D8B9"/>
</svg>
