<svg width="181" height="188" viewBox="0 0 181 188" fill="none" xmlns="http://www.w3.org/2000/svg">
<g clip-path="url(#clip0_78_38308)">
<path d="M119.801 152.111C120.135 151.867 120.603 151.938 120.85 152.27C121.095 152.604 121.024 153.073 120.692 153.32L120.687 153.323C108.241 162.487 95.7918 171.654 88.5795 171.011C83.3112 170.543 81.0131 165.203 78.8727 160.227C77.9902 158.173 77.1325 156.185 76.1269 154.71C74.3575 152.119 71.99 150.984 69.8272 149.948C67.8829 149.018 66.0902 148.16 64.8501 146.414C62.3366 142.882 62.5616 136.044 62.7516 130.243L62.7803 129.362C62.844 127.303 62.8832 125.557 62.921 123.949C62.9959 120.615 63.0586 117.862 63.2471 115.641C63.2869 115.187 63.3165 114.868 63.3468 114.556C63.6026 111.95 63.7913 110.003 61.7395 107.324C60.5409 105.758 58.6005 103.929 56.3518 102.151C54.0247 100.313 51.3812 98.5468 48.8947 97.1953C46.5322 95.912 44.2875 94.9936 42.3563 94.2059C40.2247 93.3347 38.4648 92.6152 37.2562 91.6945C36.4063 91.0473 35.8327 90.3007 35.5487 89.5874C35.3402 89.0627 35.2798 88.5432 35.3718 88.0729C35.471 87.5569 35.7407 87.1127 36.1854 86.7846C36.575 86.4964 37.0894 86.3106 37.7308 86.2633C39.6849 86.1236 42.9667 87.3378 46.0039 88.4635C46.784 88.7515 47.5483 89.0343 48.2551 89.2831C49.9461 89.8757 51.3641 90.2855 52.6711 90.5428C53.9672 90.798 55.1645 90.9052 56.4213 90.8941C57.6766 90.8808 58.9907 90.7528 60.4084 90.3701C61.8341 89.9852 63.3708 89.3471 65.0705 88.317C66.5642 87.4118 68.1819 86.2068 69.6552 84.9975C70.72 84.1236 71.7087 83.2533 72.5189 82.4926L72.0706 82.7728C71.5432 83.1089 70.8816 83.5502 70.3332 83.9161C69.2907 84.6115 68.6748 85.0224 66.9793 85.7005C66.0463 86.0744 64.7781 86.5304 63.3125 86.945C62.1886 87.2638 60.9508 87.5579 59.6687 87.7715C58.219 88.012 56.6923 88.156 55.249 88.2034C53.7448 88.2538 52.3335 88.1982 51.1869 88.0445C50.0309 87.8909 49.1361 87.6385 48.3741 87.3353C47.6236 87.0401 47.0147 86.6977 46.4036 86.3567C46.0421 86.1543 45.9142 85.6986 46.1165 85.3372C46.3188 84.9757 46.7745 84.8479 47.1359 85.0503C47.6963 85.3623 48.258 85.6764 48.9293 85.9426C49.5883 86.2045 50.367 86.4242 51.3837 86.5575C52.4533 86.6996 53.7805 86.7516 55.1991 86.7049C56.5662 86.6611 58.0254 86.5244 59.4228 86.2904C60.6563 86.0841 61.8346 85.8045 62.9005 85.5024C64.3044 85.1037 65.5233 84.6681 66.4193 84.3094C67.953 83.6952 68.5276 83.3119 69.4982 82.6644C69.9552 82.3596 70.5058 81.9922 71.2639 81.5117C71.9205 81.0957 72.614 80.674 73.2829 80.3096C74.0236 79.9067 74.7658 79.572 75.1852 79.569C76.4659 79.5608 76.7927 80.1826 75.2021 81.9326C74.3412 82.8812 72.601 84.5202 70.6048 86.157C69.0822 87.4055 67.405 88.6533 65.8467 89.5984C64.02 90.7069 62.3521 91.3981 60.8009 91.8164C59.2416 92.2368 57.8057 92.3801 56.4393 92.3919C55.0766 92.4045 53.7806 92.2908 52.3814 92.0131C50.991 91.7391 49.5106 91.3112 47.7594 90.699C47.0307 90.4459 46.2651 90.1609 45.4798 89.87C42.5863 88.7994 39.4613 87.6411 37.8359 87.7597C37.4934 87.7837 37.2409 87.8672 37.0726 87.992C36.9464 88.0857 36.8703 88.2119 36.8435 88.3556C36.8058 88.5443 36.8407 88.7758 36.9439 89.0341C37.132 89.5094 37.54 90.0268 38.1693 90.5034C39.2225 91.3044 40.8954 91.9877 42.9275 92.8183C44.8849 93.6169 47.1644 94.5497 49.6118 95.8802C52.1753 97.2716 54.895 99.0904 57.2823 100.977C59.6225 102.825 61.6572 104.749 62.9336 106.417C65.3447 109.565 65.1286 111.763 64.8417 114.703C64.8034 115.084 64.7658 115.481 64.7405 115.768C64.5499 118 64.4907 120.706 64.4159 123.984C64.3766 125.693 64.3353 127.554 64.2765 129.408L64.2479 130.289C64.0644 135.86 63.85 142.426 66.0717 145.549C67.0824 146.97 68.711 147.752 70.4761 148.597C72.8094 149.714 75.3627 150.939 77.3659 153.871C78.4535 155.464 79.3346 157.515 80.2475 159.633C82.218 164.214 84.333 169.128 88.7117 169.517C95.3587 170.109 107.58 161.11 119.799 152.113L119.801 152.111Z" fill="#1A1C1D"/>
<path d="M76.5294 94.1387C75.8881 96.4633 75.4209 98.4452 75.1691 100.189C74.9216 101.911 74.8845 103.392 75.1012 104.736C75.2707 105.786 75.6042 106.781 75.9529 107.823C76.5065 109.473 77.0957 111.237 77.183 113.626C77.2792 116.33 76.7211 119.788 76.2123 122.934C75.9886 124.31 75.7765 125.628 75.6333 126.78C75.4004 128.656 75.3538 130.128 75.4908 131.37C75.6262 132.591 75.9452 133.593 76.4513 134.545C76.9633 135.506 77.6682 136.426 78.4777 137.295C79.2951 138.171 80.2213 139.004 81.1693 139.783C82.1042 140.553 83.0602 141.274 83.9798 141.913C84.9198 142.563 85.8154 143.123 86.6123 143.554C87.3272 143.942 87.9659 144.23 88.5175 144.435C89.1569 144.672 89.6699 144.795 90.0516 144.839C90.6713 144.91 90.9129 144.749 91.1545 144.588C91.3264 144.473 91.5608 144.518 91.677 144.692C91.7917 144.864 91.7468 145.099 91.5727 145.215C91.218 145.451 90.8632 145.688 89.9685 145.587C89.5294 145.537 88.9532 145.399 88.2558 145.141C87.6759 144.927 87.0061 144.625 86.2541 144.214C85.4282 143.768 84.5071 143.194 83.5527 142.531C82.6214 141.885 81.6473 141.151 80.6899 140.361C79.7245 139.565 78.7757 138.713 77.9286 137.806C77.077 136.892 76.335 135.921 75.789 134.895C75.2392 133.859 74.8919 132.773 74.7441 131.453C74.5985 130.15 74.6486 128.623 74.888 126.686C75.0327 125.507 75.2462 124.192 75.4684 122.813C75.9729 119.699 76.5252 116.28 76.4327 113.652C76.3505 111.379 75.7759 109.664 75.2375 108.061C74.8801 106.997 74.5416 105.98 74.3582 104.857C74.1276 103.432 74.1647 101.875 74.4223 100.083C74.6778 98.3118 75.153 96.2994 75.8029 93.9408C82.5052 69.6025 82.7273 71.6185 76.525 94.1416L76.5294 94.1387Z" fill="#1A1C1D"/>
<path d="M123.846 151.671C123.472 151.851 123.026 151.696 122.844 151.324C122.664 150.95 122.819 150.504 123.191 150.321C126.142 148.894 129.09 147.468 131.781 145.874C134.443 144.297 136.865 142.552 138.802 140.464C140.734 138.383 142.198 135.953 143.392 133.423C144.604 130.856 145.539 128.191 146.406 125.685C147.272 123.175 148.068 120.823 148.656 118.682C149.227 116.596 149.592 114.739 149.61 113.183C149.625 111.697 149.316 110.479 148.54 109.15C147.726 107.755 146.392 106.214 144.396 104.132C142.38 102.029 139.702 99.3962 136.709 96.9265C133.735 94.472 130.448 92.1794 127.194 90.7388C120.999 87.9953 114.831 88.3231 110.771 88.5401L110.224 88.5685C108.093 88.6785 106.586 88.7114 105.445 88.372C104.152 87.9854 103.394 87.1924 102.931 85.6642C102.206 83.2666 102.266 78.9073 102.339 73.7882L102.358 72.2846C102.394 69.4391 102.41 66.4086 102.258 63.352C102.105 60.3085 101.782 57.2178 101.136 54.2172C100.468 51.1142 99.4572 48.118 98.0977 45.4956C96.8581 43.1046 95.3356 41.0251 93.5238 39.4594C91.8405 38.0061 89.9005 36.9883 88.1195 36.3645C85.9873 35.6196 84.1528 35.4342 83.3323 35.7551C83.0029 35.8836 83.0626 36.3125 83.3233 36.8872C83.7467 37.8189 84.6288 39.0046 85.5407 40.1735L86.1455 40.9433C87.8668 43.1324 89.6179 45.3615 90.921 48.5027C91.6996 50.3771 92.3108 52.5707 92.575 54.7347C92.8102 56.6665 92.7696 58.5809 92.3255 60.2392C91.8458 62.0375 90.9009 63.5203 89.6164 64.9088C88.366 66.2588 86.8187 67.4986 85.0581 68.8618C83.3215 70.209 81.3658 71.6898 79.5275 72.9224C77.661 74.1738 75.9337 75.1531 74.7053 75.4473C74.069 75.6012 73.5269 75.5854 73.0944 75.4272C72.6154 75.2561 72.28 74.9325 72.0875 74.4884C71.9227 74.1045 71.8826 73.6437 71.9673 73.1343C72.1106 72.2931 72.6174 71.2568 73.4986 70.1782C74.8571 68.5234 77.1014 66.7588 79.2218 65.0958C80.4144 64.1587 81.5663 63.255 82.4658 62.4442C83.6575 61.3693 84.4154 60.4547 84.8585 59.5962C85.2761 58.7891 85.418 58.0213 85.3829 57.2049C85.3382 56.096 84.9857 54.8559 84.6318 53.6136C84.4117 52.8451 84.1937 52.0752 84.041 51.3372C83.828 50.306 83.7325 49.3002 83.7002 48.3089C83.6664 47.3154 83.69 46.3843 83.7135 45.4533C83.7242 45.0403 84.0673 44.7108 84.4802 44.7216C84.8931 44.7324 85.2227 45.0756 85.212 45.4885C85.1884 46.4196 85.1626 47.3521 85.1957 48.2549C85.2272 49.1555 85.3132 50.0764 85.511 51.0328C85.6593 51.7548 85.8657 52.4791 86.0728 53.1996C86.4506 54.5298 86.8307 55.8584 86.8805 57.14C86.9231 58.2126 86.7406 59.2213 86.1866 60.286C85.6595 61.3014 84.7964 62.3553 83.4683 63.5558C82.5275 64.4036 81.3553 65.324 80.1424 66.2778C78.0801 67.8958 75.8959 69.6139 74.6542 71.1279C73.9442 71.9916 73.5454 72.7798 73.444 73.3822C73.4049 73.6064 73.4115 73.7813 73.4609 73.8931C73.4856 73.9489 73.5299 73.9917 73.5952 74.0142C73.7556 74.0708 74.0074 74.0664 74.3484 73.9836C75.391 73.7316 76.961 72.8322 78.6926 71.6707C80.4525 70.4904 82.3951 69.0183 84.1339 67.6697C85.8502 66.3391 87.3561 65.1364 88.5137 63.8829C89.6351 62.6693 90.4553 61.3861 90.8668 59.8439C91.2595 58.3772 91.2915 56.6573 91.0803 54.9077C90.8342 52.8889 90.2616 50.8331 89.5302 49.072C88.3034 46.1157 86.6155 43.9672 84.9558 41.8565L84.3481 41.0823C83.384 39.8444 82.4445 38.5775 81.9543 37.4985C81.3021 36.0588 81.3553 34.9035 82.7773 34.3481C83.8925 33.9125 86.1449 34.0739 88.6102 34.9363C90.5465 35.6137 92.6585 36.7244 94.4993 38.3147C96.4643 40.0111 98.1037 42.2423 99.4246 44.7928C100.849 47.5415 101.905 50.6654 102.599 53.8889C103.259 56.9621 103.592 60.1377 103.748 63.2668C103.905 66.3829 103.887 69.4338 103.851 72.2887L103.831 73.7959C103.762 78.7931 103.702 83.045 104.359 85.2176C104.656 86.1994 105.111 86.6979 105.866 86.9241C106.776 87.1947 108.158 87.1596 110.137 87.0569L110.684 87.0285C114.887 86.8042 121.274 86.4655 127.797 89.3519C131.19 90.8541 134.592 93.2244 137.661 95.7565C140.711 98.2733 143.434 100.949 145.479 103.082C147.547 105.239 148.941 106.857 149.829 108.378C150.754 109.962 151.123 111.415 151.106 113.185C151.087 114.883 150.701 116.865 150.096 119.068C149.507 121.216 148.696 123.607 147.814 126.161C146.931 128.716 145.978 131.431 144.739 134.053C143.484 136.712 141.941 139.273 139.894 141.475C137.852 143.674 135.319 145.502 132.542 147.147C129.791 148.774 126.815 150.216 123.838 151.654L123.846 151.671Z" fill="#1A1C1D"/>
<path d="M63.3212 78.5342C63.5244 78.4993 63.7197 78.6364 63.7524 78.8411C63.7873 79.0443 63.6502 79.2395 63.4456 79.2722C61.7195 79.565 59.9911 79.8592 58.3868 80.0518C56.7608 80.2495 55.2486 80.3492 53.9548 80.2529C53.0477 80.1849 52.2465 80.021 51.6217 79.7396C51.1528 79.527 50.779 79.2448 50.5242 78.8864C50.2606 78.5149 50.1356 78.0729 50.1739 77.5504C50.2006 77.1897 50.3056 76.7957 50.5014 76.3631C51.2133 74.7904 53.1521 72.6572 55.1989 70.4079C56.1324 69.3794 57.0912 68.3277 57.9369 67.3232C59.6885 65.2488 61.0881 63.2551 62.4595 61.2991C63.2391 60.1908 64.0071 59.0934 64.8136 58.0206C65.9522 56.503 67.1903 54.9882 68.4226 53.7384C69.6716 52.4711 70.9193 51.4752 72.0605 51.0127C73.2533 50.5284 74.3178 50.6204 75.2606 50.9918C76.1757 51.3501 76.9589 51.9632 77.626 52.553C78.2946 53.1451 78.8557 53.7175 79.2326 54.3437C79.629 55.0041 79.8151 55.7167 79.7044 56.5454C79.5988 57.3394 79.2175 58.2291 78.5191 59.3461C77.8447 60.4282 76.862 61.7412 75.5333 63.4077C74.0335 65.2889 72.0883 67.6246 70.2598 69.6119C68.8519 71.1456 67.5093 72.4753 66.4829 73.2512C65.7633 73.7942 65.1807 74.0759 64.7185 74.1609C64.3267 74.2335 64.0067 74.1733 63.7541 74.0116C63.5 73.8476 63.3301 73.5929 63.2386 73.2765C63.1209 72.8738 63.1214 72.3607 63.2228 71.815C63.3712 71.0145 63.73 70.124 64.2289 69.203C64.7857 68.171 65.5175 67.0946 66.3189 66.0567C67.0695 65.0841 67.876 64.1435 68.7167 63.221C69.5312 62.3253 70.4081 61.4101 71.2836 60.4926C71.4265 60.3438 71.6652 60.3387 71.814 60.4816C71.9628 60.6246 71.968 60.8633 71.8251 61.0121C70.9743 61.9005 70.1235 62.7889 69.2727 63.7245C68.4459 64.6347 67.648 65.5601 66.9163 66.5138C66.1373 67.5241 65.4288 68.5693 64.893 69.5621C64.4296 70.4185 64.0991 71.2335 63.9666 71.9542C63.8855 72.3889 63.8791 72.78 63.9634 73.0667C64.0092 73.2154 64.0738 73.3264 64.1674 73.3867C64.2611 73.4469 64.3989 73.465 64.589 73.4294C64.9439 73.3626 65.4198 73.1237 66.0414 72.6555C67.0316 71.9101 68.3401 70.6094 69.719 69.1076C71.5366 67.1276 73.4688 64.8101 74.9584 62.9419C76.2646 61.303 77.2314 60.0133 77.8942 58.9514C78.5345 57.9266 78.8803 57.1298 78.9707 56.4498L78.9693 56.4476C79.0547 55.8024 78.9086 55.2488 78.5985 54.7321C78.2689 54.1814 77.7556 53.6619 77.1365 53.1155C76.5173 52.5692 75.8016 52.0055 74.9967 51.6899C74.218 51.3853 73.3371 51.3093 72.3518 51.7086C71.315 52.1297 70.1486 53.0682 68.9641 54.2673C67.7644 55.486 66.5467 56.9746 65.4218 58.4705C64.6016 59.565 63.8452 60.642 63.0808 61.7307C61.7 63.6962 60.2938 65.7037 58.5198 67.8057C57.6371 68.8537 56.6898 69.8946 55.7644 70.9114C53.7603 73.1165 51.86 75.2083 51.1959 76.6736C51.0372 77.0249 50.9509 77.334 50.9307 77.6054C50.9047 77.9436 50.9847 78.2237 51.1458 78.4559C51.3165 78.6975 51.5879 78.897 51.9392 79.0559C52.4806 79.3018 53.1954 79.4446 54.0169 79.5069C55.2512 79.5988 56.7177 79.5013 58.3031 79.3087C59.9081 79.1125 61.6183 78.8241 63.3271 78.5335L63.3212 78.5342Z" fill="#1A1C1D"/>
<path d="M62.406 108.672C62.3268 108.407 62.4805 108.128 62.7432 108.051C63.008 107.971 63.2867 108.125 63.3645 108.388C63.6595 109.396 63.9538 110.407 64.3815 111.148C64.7612 111.806 65.2607 112.263 65.9928 112.319C67.5356 112.434 70.2031 110.998 73.6361 109.148L74.7395 108.553L76.3733 107.684C80.0689 105.719 84.3448 103.445 88.4218 100.666C90.7431 99.0823 93.0079 97.3294 95.0288 95.5786C97.0751 93.8046 98.8739 92.0321 100.234 90.4361C101.565 88.8719 102.462 87.4871 103.071 86.2693C103.67 85.0645 103.987 84.0224 104.154 83.1312C104.363 82.0259 104.347 81.1435 104.335 80.547C104.327 80.1094 104.321 79.7988 104.404 79.5702C104.638 78.9359 105.079 78.9278 105.659 79.3776C105.935 79.5931 106.273 79.9624 106.641 80.4304C107.007 80.8941 107.414 81.4658 107.699 82.0906C108.001 82.7604 108.158 83.486 107.975 84.2118C107.759 85.0703 107.099 85.8121 106.032 87.0119C105.409 87.7101 104.645 88.5724 103.744 89.7112C102.824 90.8725 101.753 92.332 100.649 93.8395C98.9148 96.2042 97.0981 98.6806 95.5967 100.362C93.4324 102.784 91.9611 103.52 88.9365 105.034C88.4396 105.284 87.9013 105.552 87.4029 105.809C84.8949 107.089 81.5222 108.901 78.1763 110.702C75.9723 111.886 73.7784 113.067 71.9183 114.05C69.4785 115.338 67.4762 116.362 65.9222 117.002C64.2629 117.688 63.0432 117.957 62.2471 117.683C60.9669 117.244 60.9184 115.738 60.8663 114.222C60.8479 113.709 60.8318 113.195 60.7612 112.745C60.6441 111.999 60.3688 111.421 60.0167 110.926C59.6508 110.416 59.1862 109.974 58.7194 109.533C58.5198 109.342 58.5132 109.026 58.7017 108.828C58.8925 108.628 59.2089 108.622 59.407 108.81C59.905 109.283 60.403 109.756 60.8263 110.349C61.2612 110.958 61.6018 111.671 61.7466 112.591C61.8251 113.086 61.8428 113.64 61.8618 114.187C61.9001 115.357 61.9397 116.52 62.5682 116.736C63.1031 116.92 64.1007 116.667 65.5358 116.074C67.0738 115.438 69.0464 114.431 71.4463 113.163C73.3906 112.137 75.538 110.981 77.6977 109.82C81.09 107.994 84.5092 106.157 86.9396 104.916C87.5526 104.605 88.035 104.362 88.4798 104.137C91.3955 102.677 92.8124 101.967 94.8454 99.6926C96.312 98.0537 98.1163 95.5918 99.8395 93.2439C100.946 91.7349 102.02 90.2703 102.957 89.0879C103.873 87.9332 104.653 87.0571 105.283 86.3473C106.249 85.2593 106.848 84.5864 107.005 83.9688C107.123 83.5 107.005 82.9935 106.785 82.5081C106.546 81.9791 106.181 81.4704 105.852 81.0518C105.661 80.808 105.483 80.599 105.33 80.4343L105.332 80.5272C105.345 81.1694 105.364 82.1165 105.135 83.3161L105.137 83.3182C104.953 84.2871 104.612 85.4171 103.966 86.7198C103.326 88.0051 102.383 89.4582 100.996 91.0883C99.6114 92.7134 97.777 94.5222 95.6829 96.3376C93.6344 98.113 91.3407 99.8885 88.9845 101.495C84.8589 104.31 80.5598 106.596 76.8453 108.571L75.2137 109.439L74.1103 110.033C70.5315 111.961 67.7522 113.457 65.9192 113.321C64.7908 113.237 64.0562 112.588 63.516 111.656C63.0251 110.807 62.7149 109.743 62.4031 108.677L62.406 108.672Z" fill="#1A1C1D"/>
<path d="M97.0809 96.8737C97.2107 96.6298 97.5103 96.5369 97.7563 96.6653C98.0002 96.7951 98.0932 97.0948 97.9671 97.3394L97.9663 97.343C96.2841 100.497 94.6056 103.652 94.0906 106.128C93.8596 107.239 93.8622 108.218 94.0236 109.035C94.201 109.943 94.5728 110.641 95.0193 111.089C95.1797 111.249 95.3452 111.375 95.5114 111.459C95.7306 111.571 95.957 111.618 96.1725 111.587C96.388 111.557 96.6049 111.444 96.808 111.239C96.9661 111.08 97.117 110.872 97.2504 110.61C97.7797 109.575 98.1033 107.726 98.3857 106.104C98.5058 105.416 98.6188 104.765 98.739 104.22C98.9715 103.187 99.2521 102.5 99.6539 102.206C100.206 101.803 100.788 101.997 101.466 102.863C102.014 103.561 102.701 104.804 103.232 106.161C103.667 107.274 104 108.476 104.071 109.539C104.15 110.723 103.906 111.729 103.416 112.556C102.887 113.45 102.08 114.126 101.089 114.583C100.216 114.986 99.21 115.217 98.1622 115.315C97.0013 115.422 95.7822 115.368 94.6393 115.196C93.5457 115.032 92.5144 114.764 91.7008 114.331C90.819 113.863 90.1823 113.205 89.9556 112.29C89.5805 110.776 90.4243 108.684 91.0862 107.041L91.3044 106.496C91.6175 105.702 91.8299 105.073 91.9958 104.525C92.1668 103.952 92.2762 103.507 92.3856 103.063C92.4523 102.795 92.7207 102.632 92.9885 102.699C93.2563 102.766 93.4196 103.034 93.353 103.302C93.2327 103.791 93.1147 104.279 92.9538 104.811C92.7857 105.369 92.5632 106.021 92.2312 106.862L92.0122 107.411C91.4011 108.923 90.6262 110.849 90.9235 112.044C91.0725 112.649 91.5313 113.101 92.1707 113.442C92.8769 113.817 93.7971 114.056 94.7847 114.202C95.8471 114.362 96.9842 114.412 98.0661 114.313C99.0115 114.226 99.909 114.021 100.666 113.67C101.474 113.298 102.13 112.753 102.55 112.039C102.94 111.379 103.135 110.564 103.069 109.598C103.007 108.651 102.698 107.552 102.295 106.519C101.799 105.248 101.166 104.101 100.67 103.47C100.4 103.127 100.265 102.985 100.232 103.007C100.049 103.138 99.8824 103.633 99.7064 104.43L99.7078 104.432C99.5926 104.952 99.4804 105.59 99.3624 106.267C99.0685 107.957 98.7326 109.886 98.1322 111.06C97.9466 111.423 97.7356 111.715 97.5093 111.941C97.1437 112.308 96.7338 112.509 96.3079 112.573C95.8827 112.633 95.4538 112.551 95.0466 112.342C94.7832 112.206 94.5313 112.022 94.3019 111.791C93.7248 111.213 93.2521 110.34 93.0332 109.224C92.8485 108.287 92.8423 107.175 93.1037 105.922C93.649 103.303 95.3624 100.087 97.0758 96.8708L97.0809 96.8737Z" fill="#1A1C1D"/>
<path d="M104.742 95.6159C104.536 95.5993 104.384 95.4179 104.403 95.2103C104.419 95.0042 104.601 94.8518 104.807 94.8684C112.15 95.4396 119.495 96.013 124.464 97.9925C126.977 98.9928 128.877 100.352 130.325 101.843C131.772 103.334 132.762 104.954 133.457 106.481C134.122 107.944 134.516 109.327 134.684 110.598C134.871 111.999 134.791 113.27 134.5 114.367C134.313 115.08 134.038 115.725 133.693 116.23C133.405 116.648 133.07 116.975 132.693 117.173C132.29 117.385 131.847 117.451 131.378 117.327C131.137 117.264 130.892 117.151 130.644 116.983C129.297 116.061 127.828 113.392 126.488 110.955C126.251 110.524 126.02 110.103 125.814 109.737C125.071 108.411 124.393 107.291 123.721 106.292C123.045 105.293 122.366 104.409 121.627 103.559C120.96 102.796 120.238 102.057 119.555 101.406C118.724 100.613 117.949 99.9509 117.401 99.5301C116.93 99.1681 116.641 98.9991 116.448 98.9265C116.31 98.8743 116.226 98.8859 116.141 98.8954C115.936 98.9223 115.748 98.7772 115.721 98.5718C115.694 98.3664 115.839 98.1785 116.044 98.1516C116.221 98.1283 116.399 98.1072 116.709 98.224C116.964 98.3183 117.314 98.5222 117.854 98.9357C118.418 99.3674 119.213 100.049 120.068 100.865C120.766 101.529 121.502 102.283 122.188 103.071C122.95 103.944 123.646 104.851 124.337 105.878C125.032 106.905 125.72 108.045 126.464 109.373C126.699 109.791 126.918 110.19 127.141 110.594C128.441 112.958 129.865 115.55 131.065 116.369C131.239 116.489 131.407 116.565 131.564 116.608C131.839 116.68 132.099 116.641 132.339 116.516C132.605 116.377 132.85 116.131 133.071 115.811C133.366 115.378 133.606 114.812 133.773 114.182C134.038 113.174 134.112 112.002 133.937 110.703C133.777 109.502 133.403 108.191 132.768 106.797C132.105 105.336 131.159 103.787 129.779 102.367C128.4 100.947 126.583 99.6518 124.179 98.6921C119.317 96.7547 112.028 96.1849 104.738 95.6188L104.733 95.6159L104.742 95.6159Z" fill="#1A1C1D"/>
<path d="M89.715 134.105C89.7695 134.304 89.6528 134.511 89.4532 134.566C89.2537 134.62 89.0468 134.503 88.9923 134.304C87.9823 130.678 86.9707 127.049 85.6265 124.351C85.015 123.123 84.326 122.076 83.6892 121.107C82.9065 119.915 82.2007 118.838 81.7765 117.665C81.3857 116.579 81.2423 115.426 81.3303 114.342C81.4206 113.237 81.7525 112.198 82.3058 111.373C82.857 110.549 83.6187 109.947 84.4812 109.453C85.3242 108.972 86.2609 108.599 87.1953 108.228C87.3861 108.151 87.6068 108.246 87.6838 108.436C87.7608 108.627 87.6658 108.848 87.475 108.925C86.5652 109.286 85.6532 109.649 84.8566 110.105C84.0819 110.547 83.4036 111.081 82.9279 111.791C82.4471 112.509 82.1572 113.422 82.077 114.401C81.9969 115.379 82.1265 116.422 82.4824 117.408C82.8791 118.502 83.5601 119.542 84.3152 120.693C84.9651 121.681 85.6665 122.751 86.2968 124.017C87.6795 126.787 88.6984 130.445 89.7157 134.101L89.715 134.105Z" fill="#1A1C1D"/>
<path d="M106.572 138.986C106.396 138.868 106.416 138.606 106.621 138.4C106.827 138.194 107.139 138.12 107.319 138.239L107.324 138.242C111.002 140.715 114.68 143.187 117.452 143.901C120.004 144.558 121.847 143.668 124.456 142.403L124.755 142.257L124.756 142.259L125.718 141.797C128.442 140.486 131.766 138.889 134.571 137.049C137.705 134.993 140.25 132.594 142.792 130.196L142.802 130.187C143.019 129.989 143.329 129.936 143.494 130.065C143.657 130.195 143.617 130.457 143.404 130.656C140.813 133.099 138.224 135.54 134.977 137.672C132.081 139.572 128.706 141.194 125.942 142.522L124.984 142.982L124.985 142.984L124.686 143.13C121.834 144.511 119.821 145.486 116.905 144.735C114.012 143.991 110.291 141.488 106.569 138.985L106.572 138.986Z" fill="#1A1C1D"/>
<path d="M61.5046 54.8993C61.5938 54.8021 61.7266 54.7607 61.7999 54.8093C61.8747 54.8601 61.8602 54.9798 61.7703 55.0807L61.7652 55.0872C55.2062 62.2025 48.645 69.3191 46.0026 73.8436C43.4059 78.2905 44.6352 80.2322 45.8638 82.1776C45.911 82.253 45.8631 82.3793 45.7579 82.4621C45.6527 82.5448 45.5287 82.5521 45.4793 82.4781C44.2028 80.4609 42.9271 78.44 45.6521 73.7755C48.3293 69.19 54.9173 62.0429 61.5046 54.8993Z" fill="#1A1C1D"/>
<path fill-rule="evenodd" clip-rule="evenodd" d="M64.0605 126.422C64.4125 128.421 64.8462 133.224 65.5341 136.829C66.2198 140.436 67.159 142.848 68.9028 144.99C70.6445 147.134 73.1908 149.009 74.6384 150.811C76.086 152.614 76.4387 154.345 77.6079 156.804C78.7794 159.263 80.7681 162.447 83.0395 164.48C85.3122 166.515 87.8675 167.399 92.546 166.313C97.223 165.225 104.024 162.164 107.958 160.231C111.892 158.299 112.966 157.495 110.925 158.922C108.886 160.349 103.735 164.008 99.7638 166.324C95.7927 168.639 93.0016 169.608 90.6274 169.896C88.2533 170.184 86.2953 169.794 84.6092 168.573C82.9245 167.353 81.5116 165.301 79.9917 162.386C78.4703 159.469 76.8419 155.689 74.521 153.082C72.2001 150.475 69.1918 149.044 67.2248 147.632C65.2556 146.222 64.3277 144.831 63.7551 143.001C63.1826 141.172 62.9655 138.904 62.9273 136.004C62.8913 133.103 63.0343 129.57 63.2373 127.399C63.4418 125.231 63.7099 124.426 64.0619 126.424L64.0605 126.422Z" fill="#1A1C1D"/>
<path fill-rule="evenodd" clip-rule="evenodd" d="M118.469 153.462C118.124 153.78 118.381 153.967 119.163 153.669C119.945 153.371 121.255 152.585 123.412 151.369C125.57 150.153 128.58 148.504 131.74 146.349C134.903 144.194 138.218 141.536 141.02 136.83C143.821 132.124 146.105 125.376 147.598 121.319C149.09 117.263 149.79 115.903 149.914 114.081C150.037 112.256 149.584 109.97 147.442 106.863C145.304 103.756 141.478 99.8319 137.288 96.5968C133.099 93.3617 128.543 90.8175 128.198 91.0694C127.854 91.3213 131.718 94.3707 134.864 97.4782C138.007 100.584 140.43 103.749 141.921 107.02C143.411 110.291 143.968 113.672 144.386 116.274C144.805 118.876 145.084 120.7 144.467 123.122C143.849 125.544 142.336 128.564 141.054 131.362C139.773 134.161 138.724 136.736 137.084 139.034C135.446 141.331 133.222 143.353 130.395 145.506C127.567 147.66 124.137 149.948 121.949 151.32C119.76 152.692 118.813 153.144 118.467 153.464L118.469 153.462Z" fill="#1A1C1D"/>
<path fill-rule="evenodd" clip-rule="evenodd" d="M116.35 99.0428C116.274 99.0276 117.427 99.5542 118.902 101.694C120.376 103.837 122.17 107.598 123.878 110.991C125.585 114.385 127.204 117.416 129.275 118.847C131.347 120.28 133.871 120.112 135.597 118.65C137.322 117.187 138.247 114.425 137.381 111.25C136.515 108.075 133.853 104.491 131.432 102.2C129.01 99.9084 126.825 98.9095 126.635 99.0583C126.444 99.2071 128.247 100.505 129.612 102.051C130.979 103.596 131.906 105.39 132.618 106.925C133.331 108.46 133.825 109.738 134.139 111.114C134.453 112.489 134.589 113.962 134.224 114.989C133.859 116.016 132.995 116.592 132.278 116.891C131.562 117.189 130.996 117.212 130.399 116.515C129.8 115.82 129.172 114.408 128.157 112.65C127.142 110.893 125.741 108.792 124.776 107.247C123.811 105.701 123.286 104.711 122.405 103.626C121.522 102.538 120.286 101.356 119.013 100.484C117.74 99.613 116.432 99.0573 116.354 99.0435L116.35 99.0428Z" fill="#1A1C1D"/>
<path fill-rule="evenodd" clip-rule="evenodd" d="M109.544 140.31C108.236 139.434 106.647 138.295 105.009 137.198C103.373 136.104 101.689 135.05 100.722 133.987C99.7576 132.923 99.5082 131.847 100.541 132.381C101.572 132.917 103.882 135.066 105.839 136.264C107.796 137.463 109.4 137.714 110.521 138.422C111.642 139.131 112.281 140.296 113.243 141.249C114.204 142.2 115.489 142.937 116.234 143.497C116.98 144.06 117.19 144.445 117.762 144.724C118.335 145.002 119.273 145.169 119.355 145.225C119.434 145.278 118.662 145.218 117.442 144.73C116.223 144.241 114.565 143.324 113.221 142.56C111.878 141.795 110.851 141.184 109.544 140.31Z" fill="#1A1C1D"/>
<path d="M60.4628 113.076C59.6219 111.523 58.781 109.97 58.2523 108.857C57.972 108.267 57.7671 107.781 57.7126 107.402C57.6311 106.846 57.8029 106.496 58.3514 106.375C58.7186 106.294 59.2897 106.372 59.8673 106.503C60.4087 106.626 60.9704 106.798 61.3514 106.922C61.7556 107.052 61.9726 107.136 62.1287 107.234C62.3232 107.355 62.3958 107.464 62.5163 107.645L63.3862 108.949L62.7616 109.366L61.8917 108.062C61.8249 107.962 61.7843 107.901 61.7291 107.865C61.6333 107.806 61.4613 107.742 61.1195 107.63C60.7581 107.513 60.2247 107.349 59.6993 107.231C59.2138 107.121 58.7522 107.051 58.5114 107.105C58.4504 107.117 58.4352 107.184 58.4498 107.291C58.4927 107.577 58.6721 108.001 58.9248 108.531C59.4622 109.657 60.2886 111.188 61.1172 112.718L60.4592 113.075L60.4628 113.076Z" fill="#1A1C1D"/>
<path fill-rule="evenodd" clip-rule="evenodd" d="M81.5417 106.601C81.912 106.968 82.619 107.566 82.8636 107.692C83.1103 107.817 82.8947 107.47 82.5498 107.071C82.2086 106.672 81.7397 106.224 81.4798 106.033C81.22 105.841 81.1656 105.906 81.1555 106.004C81.1432 106.103 81.1752 106.236 81.5417 106.601Z" fill="#1A1C1D"/>
<path fill-rule="evenodd" clip-rule="evenodd" d="M78.113 108.382C78.4833 108.749 79.1881 109.348 79.4349 109.473C79.6816 109.598 79.466 109.251 79.1211 108.852C78.7799 108.453 78.311 108.005 78.0511 107.813C77.7913 107.622 77.7369 107.686 77.7268 107.784C77.7145 107.884 77.7464 108.017 78.113 108.382Z" fill="#1A1C1D"/>
<path fill-rule="evenodd" clip-rule="evenodd" d="M75.032 109.921C75.4022 110.288 76.1092 110.886 76.3538 111.012C76.6006 111.137 76.3849 110.79 76.0401 110.391C75.6989 109.992 75.2299 109.544 74.9701 109.352C74.7102 109.161 74.6558 109.225 74.6457 109.323C74.6334 109.423 74.6654 109.556 75.032 109.921Z" fill="#1A1C1D"/>
<path fill-rule="evenodd" clip-rule="evenodd" d="M71.5642 111.53C71.9344 111.897 72.6414 112.494 72.886 112.621C73.1328 112.745 72.9171 112.399 72.5723 112C72.2311 111.601 71.7622 111.153 71.5023 110.961C71.2424 110.77 71.188 110.834 71.1779 110.932C71.1656 111.032 71.1976 111.165 71.5642 111.53Z" fill="#1A1C1D"/>
<path fill-rule="evenodd" clip-rule="evenodd" d="M68.363 113.119C68.7333 113.485 69.4403 114.083 69.6849 114.209C69.9316 114.334 69.716 113.987 69.3711 113.588C69.0299 113.19 68.561 112.741 68.3011 112.55C68.0413 112.358 67.9869 112.423 67.9768 112.521C67.9645 112.62 67.9964 112.753 68.363 113.119Z" fill="#1A1C1D"/>
<path fill-rule="evenodd" clip-rule="evenodd" d="M65.6082 113.962C65.9784 114.329 66.6832 114.928 66.93 115.053C67.1767 115.178 66.9611 114.831 66.6162 114.432C66.275 114.033 65.8061 113.585 65.5462 113.393C65.2864 113.202 65.232 113.266 65.2219 113.364C65.2096 113.464 65.2416 113.597 65.6082 113.962Z" fill="#1A1C1D"/>
<path fill-rule="evenodd" clip-rule="evenodd" d="M60.8997 110.746C61.1484 110.219 61.8815 109.097 62.3428 108.62C62.8041 108.142 62.9922 108.306 62.9089 108.733C62.8256 109.159 62.4696 109.847 62.1265 110.29C61.785 110.734 61.4563 110.935 61.1727 111.071C60.889 111.206 60.651 111.274 60.8997 110.746Z" fill="#1A1C1D"/>
<path fill-rule="evenodd" clip-rule="evenodd" d="M105.769 83.7804C106.14 84.1469 106.847 84.7447 107.091 84.8709C107.338 84.9957 107.122 84.6489 106.777 84.2498C106.436 83.8514 105.967 83.403 105.707 83.2115C105.448 83.02 105.393 83.0846 105.383 83.1825C105.371 83.282 105.403 83.4148 105.769 83.7804Z" fill="#1A1C1D"/>
<path fill-rule="evenodd" clip-rule="evenodd" d="M101.796 90.152C102.166 90.5184 102.873 91.1163 103.117 91.2425C103.364 91.3673 103.149 91.0204 102.804 90.6214C102.463 90.223 101.994 89.7746 101.734 89.5831C101.474 89.3916 101.419 89.4562 101.409 89.5541C101.397 89.6535 101.429 89.7863 101.796 90.152Z" fill="#1A1C1D"/>
<path fill-rule="evenodd" clip-rule="evenodd" d="M98.6804 93.6991C99.0506 94.0656 99.7576 94.6634 100.002 94.7896C100.249 94.9144 100.033 94.5676 99.6885 94.1685C99.3473 93.7701 98.8784 93.3218 98.6185 93.1302C98.3587 92.9387 98.3043 93.0033 98.2941 93.1012C98.2818 93.2007 98.3138 93.3335 98.6804 93.6991Z" fill="#1A1C1D"/>
<path fill-rule="evenodd" clip-rule="evenodd" d="M95.8132 96.0051C96.1835 96.3715 96.8905 96.9693 97.135 97.0955C97.3818 97.2203 97.1662 96.8735 96.8213 96.4744C96.4801 96.0761 96.0112 95.6277 95.7513 95.4361C95.4915 95.2446 95.4371 95.3092 95.427 95.4072C95.4147 95.5066 95.4466 95.6394 95.8132 96.0051Z" fill="#1A1C1D"/>
<path fill-rule="evenodd" clip-rule="evenodd" d="M93.2849 99.5507C93.6551 99.9171 94.3621 100.515 94.6067 100.641C94.8535 100.766 94.6378 100.419 94.293 100.02C93.9518 99.6217 93.4829 99.1733 93.223 98.9818C92.9631 98.7902 92.9088 98.8548 92.8986 98.9528C92.8863 99.0522 92.9183 99.185 93.2849 99.5507Z" fill="#1A1C1D"/>
<path fill-rule="evenodd" clip-rule="evenodd" d="M89.8289 101.856C90.1991 102.223 90.9061 102.82 91.1507 102.947C91.3974 103.071 91.1818 102.725 90.8369 102.325C90.4957 101.927 90.0268 101.479 89.7669 101.287C89.5071 101.096 89.4527 101.16 89.4426 101.258C89.4303 101.358 89.4623 101.49 89.8289 101.856Z" fill="#1A1C1D"/>
<path fill-rule="evenodd" clip-rule="evenodd" d="M85.7195 103.912C86.0897 104.278 86.7967 104.876 87.0413 105.003C87.2881 105.127 87.0724 104.78 86.7276 104.381C86.3864 103.983 85.9174 103.535 85.6576 103.343C85.3977 103.152 85.3433 103.216 85.3332 103.314C85.3209 103.414 85.3529 103.546 85.7195 103.912Z" fill="#1A1C1D"/>
<path fill-rule="evenodd" clip-rule="evenodd" d="M92.991 103.075C93.3612 103.441 94.0682 104.039 94.3128 104.165C94.5595 104.29 94.3439 103.943 93.9991 103.544C93.6578 103.146 93.1889 102.697 92.9291 102.506C92.6692 102.314 92.6148 102.379 92.6047 102.477C92.5924 102.576 92.6244 102.709 92.991 103.075Z" fill="#1A1C1D"/>
<path fill-rule="evenodd" clip-rule="evenodd" d="M91.9773 106.689C92.3475 107.055 93.0545 107.653 93.2991 107.779C93.5459 107.904 93.3302 107.557 92.9854 107.158C92.6442 106.76 92.1752 106.311 91.9154 106.12C91.6555 105.928 91.6011 105.993 91.591 106.091C91.5787 106.19 91.6107 106.323 91.9773 106.689Z" fill="#1A1C1D"/>
<path fill-rule="evenodd" clip-rule="evenodd" d="M90.9859 110.383C91.5011 110.316 92.4073 110.123 92.6569 110.007C92.9064 109.891 92.5001 109.848 91.9762 109.873C91.4523 109.899 90.8123 109.995 90.5003 110.084C90.1883 110.172 90.208 110.254 90.2791 110.323C90.3502 110.392 90.4743 110.45 90.9895 110.383L90.9859 110.383Z" fill="#1A1C1D"/>
<path fill-rule="evenodd" clip-rule="evenodd" d="M93.3814 113.975C93.8966 113.908 94.8028 113.715 95.0524 113.599C95.3019 113.483 94.8956 113.439 94.3717 113.465C93.8478 113.49 93.2078 113.587 92.8958 113.676C92.5838 113.764 92.6035 113.845 92.6746 113.914C92.7457 113.983 92.8699 114.042 93.385 113.975L93.3814 113.975Z" fill="#1A1C1D"/>
<path fill-rule="evenodd" clip-rule="evenodd" d="M99.3457 113.931C99.5451 113.452 99.8306 112.569 99.8552 112.295C99.8783 112.018 99.6382 112.351 99.3997 112.819C99.1611 113.286 98.9219 113.889 98.8444 114.202C98.7647 114.516 98.8446 114.542 98.9403 114.516C99.0361 114.489 99.1478 114.412 99.3472 113.933L99.3457 113.931Z" fill="#1A1C1D"/>
<path fill-rule="evenodd" clip-rule="evenodd" d="M101.033 109.902C101.963 109.901 103.615 110.035 104.087 110.186C104.559 110.337 103.844 110.505 102.907 110.58C101.969 110.655 100.809 110.633 100.236 110.547C99.6629 110.46 99.6773 110.312 99.7861 110.174C99.8971 110.034 100.102 109.903 101.03 109.903L101.033 109.902Z" fill="#1A1C1D"/>
<path d="M129.624 151.026C121.861 156.27 114.632 160.986 109.299 164.286C104.078 167.52 100.63 169.427 100.171 169.224C100.162 169.22 100.15 169.212 100.143 169.201C100.043 169.098 100.27 168.764 100.787 168.234C101.311 167.695 102.124 166.961 103.183 166.069C107.937 162.061 117.564 154.868 129.146 147.042C136.704 141.933 145.05 136.611 151.642 132.595C158.519 128.403 163.627 125.552 164.094 125.763C164.099 125.766 164.106 125.771 164.114 125.778C164.22 125.89 163.809 126.343 162.965 127.082L162.978 127.074C162.107 127.837 160.787 128.89 159.117 130.172C152.646 135.123 140.496 143.682 129.625 151.028L129.624 151.026ZM114.875 159.987C119.475 157.139 125.73 153.06 132.455 148.514C141.106 142.668 150.299 136.22 154.657 132.886C155.354 132.352 155.904 131.912 156.265 131.596L156.28 131.586C156.667 131.246 156.855 131.033 156.802 130.973L156.787 130.964C156.415 130.798 151.916 133.33 145.827 137.04C139.922 140.639 132.652 145.269 126.313 149.551C118.833 154.607 112.639 159.233 109.597 161.796C108.84 162.434 108.269 162.95 107.909 163.319C107.541 163.697 107.381 163.933 107.452 164.007L107.474 164.021C107.826 164.176 110.621 162.62 114.871 159.986L114.875 159.987Z" fill="#1A1C1D"/>
<path fill-rule="evenodd" clip-rule="evenodd" d="M48.0773 85.8818C47.3187 85.1265 46.8321 84.218 46.3318 83.3785C45.8315 82.539 45.3189 81.7706 44.9579 80.6872C44.5968 79.6038 44.388 78.2112 44.5289 76.8244C44.6698 75.4375 45.1627 74.055 47.7228 70.7083C50.2851 67.3602 54.9169 62.0465 57.7826 59.0213C60.6484 55.996 61.7518 55.26 63.1071 54.7931C64.4624 54.3262 66.0725 54.1234 67.4111 53.74C68.7497 53.3566 69.8162 52.7962 69.6884 52.6706C69.5607 52.5451 68.2343 52.8574 66.3326 53.2264C64.4294 53.5933 61.945 54.0175 59.2341 55.9927C56.5232 57.9678 53.5844 61.4916 51.0083 64.8615C48.4337 68.2336 46.2218 71.4517 44.3616 73.9572C42.4999 76.4604 40.9898 78.251 40.6392 79.6865C40.2886 81.122 41.1025 82.2053 41.8437 83.227C42.5865 84.2508 43.2602 85.2136 44.0333 85.8115C44.8063 86.4093 45.6815 86.637 46.8434 86.9126C48.0067 87.1903 49.4566 87.5158 49.6634 87.3779C49.8723 87.2386 48.838 86.6357 48.078 85.8782L48.0773 85.8818Z" fill="#1A1C1D"/>
<path fill-rule="evenodd" clip-rule="evenodd" d="M71.3475 60.7394C71.4105 60.2727 71.8805 59.9592 72.4211 59.803C72.9616 59.6469 73.5748 59.6468 73.2204 60.7985C72.8675 61.9525 71.5528 64.2575 70.6935 65.5951C69.8342 66.9328 69.4359 67.3022 69.4562 67.0497C69.4742 66.7986 69.9158 65.9284 70.4045 65.0582C70.8932 64.188 71.4349 63.317 71.5326 62.5725C71.6302 61.8279 71.286 61.2082 71.349 60.7416L71.3475 60.7394Z" fill="#1A1C1D"/>
<path d="M83.8647 39.5177C82.7826 39.0883 81.7042 38.6596 80.5728 38.3732C79.4509 38.0867 78.2818 37.9418 77.0156 38.0756C75.711 38.213 74.2998 38.6479 73.1666 39.2309C72.1111 39.7746 71.3015 40.4468 71.0558 41.1203C70.7006 42.087 71.5334 43.1325 72.3487 44.152C72.6884 44.5765 73.0231 44.998 73.2787 45.4189C73.7289 46.1597 73.9171 46.8803 73.9653 47.5465C74.0142 48.209 73.9252 48.8157 73.8194 49.3361C73.6159 50.3652 73.3543 51.0524 73.0919 51.7434L72.962 51.6948L72.8204 51.6665L72.827 51.6433C73.0843 50.9683 73.338 50.2926 73.5415 49.2824C73.6414 48.7817 73.729 48.2011 73.683 47.5712C73.6363 46.945 73.4619 46.2686 73.0371 45.5706C72.7931 45.1672 72.4592 44.7514 72.126 44.332C71.2613 43.248 70.3799 42.1436 70.7902 41.0238C71.0634 40.2785 71.9245 39.5562 73.0374 38.9805C74.2003 38.3809 75.6478 37.9343 76.9887 37.7947C78.2933 37.6573 79.4972 37.8073 80.6482 38.0996C81.7919 38.3904 82.8827 38.8234 83.9735 39.2564L83.8684 39.5184L83.8647 39.5177Z" fill="#1A1C1D"/>
<path fill-rule="evenodd" clip-rule="evenodd" d="M72.0057 149.25C74.9587 150.447 80.9101 153.353 86.4022 154.713C91.8943 156.072 96.9251 155.887 97.0702 155.992C97.2132 156.098 92.4707 156.493 87.5238 155.814C82.5747 155.137 77.4205 153.378 74.3223 152.076C71.2262 150.773 70.1846 149.923 69.643 149.243C69.1014 148.564 69.0526 148.052 72.0057 149.25Z" fill="#1A1C1D"/>
<path fill-rule="evenodd" clip-rule="evenodd" d="M142.543 108.561C142.043 110.942 141.345 115.953 139.865 120.014C138.385 124.074 136.121 127.182 136.128 127.319C136.133 127.454 138.408 124.619 140.088 121.192C141.768 117.766 142.854 113.751 143.348 111.235C143.845 108.718 143.749 107.697 143.549 107.062C143.349 106.428 143.046 106.181 142.546 108.562L142.543 108.561Z" fill="#1A1C1D"/>
<path fill-rule="evenodd" clip-rule="evenodd" d="M102.42 86.6091C100.053 87.172 95.2231 88.6765 90.9174 89.067C86.6152 89.4582 82.8373 88.7354 82.7154 88.7979C82.5936 88.8603 86.1313 89.7087 89.9453 89.7689C93.7592 89.8292 97.8551 89.1006 100.344 88.4753C102.832 87.85 103.714 87.328 104.204 86.8787C104.692 86.4273 104.787 86.0463 102.418 86.6106L102.42 86.6091Z" fill="#1A1C1D"/>
<path fill-rule="evenodd" clip-rule="evenodd" d="M103.423 87.217C101.771 85.4285 98.0902 81.9574 95.6347 78.399C93.1813 74.8392 91.9579 71.195 91.8447 71.1196C91.7293 71.0456 92.7255 74.5425 94.5468 77.8949C96.3658 81.2487 99.0113 84.4602 100.779 86.3227C102.547 88.1852 103.433 88.6981 104.066 88.9019C104.699 89.1057 105.076 89.0019 103.424 87.2134L103.423 87.217Z" fill="#1A1C1D"/>
<path fill-rule="evenodd" clip-rule="evenodd" d="M116.246 100.169C117.263 102.382 119.687 106.822 120.917 110.966C122.146 115.109 122.18 118.956 122.265 119.063C122.351 119.169 122.487 115.536 121.795 111.783C121.103 108.03 119.585 104.157 118.484 101.841C117.381 99.5223 116.695 98.759 116.158 98.3687C115.621 97.9784 115.228 97.9603 116.245 100.173L116.246 100.169Z" fill="#1A1C1D"/>
<path fill-rule="evenodd" clip-rule="evenodd" d="M103.374 87.3753C101.988 86.6172 99.0059 85.244 96.7645 83.5623C94.5195 81.8798 93.013 79.8902 92.9288 79.8678C92.8446 79.8453 94.1791 81.7892 95.991 83.4775C97.805 85.1644 100.093 86.5914 101.564 87.372C103.034 88.1526 103.687 88.2831 104.119 88.2787C104.55 88.2742 104.759 88.1312 103.377 87.3739L103.374 87.3753Z" fill="#1A1C1D"/>
<path fill-rule="evenodd" clip-rule="evenodd" d="M75.6712 107.306C74.285 106.548 71.3028 105.174 69.0614 103.493C66.8163 101.81 65.3098 99.8207 65.2257 99.7982C65.1415 99.7757 66.476 101.72 68.2878 103.408C70.1019 105.095 72.3903 106.522 73.8608 107.302C75.3312 108.083 75.9844 108.214 76.4154 108.209C76.8464 108.205 77.0561 108.062 75.6734 107.304L75.6712 107.306Z" fill="#1A1C1D"/>
<path d="M42.7182 121.582C42.3824 121.904 42.1228 122.278 41.9901 122.631C41.8662 122.959 41.8525 123.264 41.9846 123.481C42.0072 123.519 42.034 123.555 42.0638 123.585C42.1995 123.727 42.41 123.816 42.6458 123.835C42.8672 123.851 43.1117 123.798 43.3387 123.662C43.4222 123.613 43.5049 123.548 43.5839 123.474C43.9009 123.171 44.1612 122.68 44.3083 122.198C44.4605 121.7 44.4951 121.224 44.355 120.99L44.3521 120.986C44.339 120.966 44.326 120.947 44.31 120.932C44.2287 120.848 44.1046 120.827 43.9566 120.85C43.773 120.882 43.5503 120.977 43.3268 121.113C43.1165 121.241 42.9054 121.401 42.7189 121.578L42.7182 121.582ZM41.5105 122.642C41.6634 122.235 41.9629 121.803 42.3503 121.431C42.5715 121.221 42.8232 121.028 43.08 120.875C43.3847 120.691 43.7032 120.56 43.9847 120.511C44.3033 120.455 44.5769 120.503 44.7504 120.682C44.775 120.71 44.799 120.741 44.8208 120.774L44.8237 120.778C44.9965 121.066 44.967 121.611 44.793 122.17C44.6278 122.705 44.3291 123.266 43.9497 123.626C43.8337 123.735 43.7111 123.829 43.5848 123.904C43.212 124.128 42.8122 124.212 42.4566 124.188C42.1163 124.163 41.8165 124.039 41.6263 123.839C41.5842 123.795 41.5465 123.748 41.5152 123.696C41.3468 123.415 41.3597 123.039 41.5105 122.642Z" fill="#1A1C1D"/>
<path d="M45.1839 111.306C44.824 111.464 44.4474 111.545 44.1289 111.535C43.8176 111.525 43.5599 111.426 43.4169 111.236C43.3901 111.2 43.3675 111.162 43.3508 111.122L43.3487 111.114C43.2702 110.931 43.2701 110.695 43.3491 110.46C43.4325 110.212 43.6029 109.963 43.859 109.777C43.9453 109.713 44.0432 109.657 44.1492 109.608C44.4988 109.454 44.9625 109.409 45.3718 109.447C45.7977 109.487 46.1766 109.621 46.3203 109.818C46.3363 109.842 46.3537 109.868 46.3653 109.895C46.4394 110.062 46.3945 110.259 46.2676 110.46C46.1545 110.639 45.9761 110.815 45.7657 110.971C45.5909 111.1 45.3885 111.216 45.1853 111.308L45.1839 111.306ZM44.2703 111.214C44.546 111.222 44.8725 111.155 45.183 111.017C45.355 110.94 45.5233 110.843 45.6691 110.737C45.8258 110.623 45.9505 110.499 46.0245 110.383C46.0825 110.291 46.1028 110.199 46.0694 110.12C46.0628 110.106 46.0549 110.089 46.0425 110.075C45.9256 109.914 45.5932 109.803 45.2137 109.766C44.8473 109.731 44.4402 109.767 44.1464 109.897C44.0738 109.929 44.0078 109.967 43.9505 110.008C43.7938 110.122 43.6915 110.275 43.6386 110.427C43.5836 110.59 43.5843 110.756 43.641 110.888L43.6439 110.892C43.657 110.921 43.6737 110.951 43.6933 110.976C43.8029 111.126 44.0141 111.202 44.271 111.21L44.2703 111.214Z" fill="#1A1C1D"/>
<path d="M54.84 126.266C54.8627 126.607 54.9535 126.927 55.0886 127.167C55.2157 127.39 55.3819 127.541 55.5648 127.57C55.5974 127.576 55.6293 127.577 55.662 127.574C55.8057 127.563 55.9566 127.487 56.0741 127.362C56.1843 127.244 56.2713 127.082 56.3003 126.89L56.301 126.886C56.3111 126.817 56.3147 126.742 56.3096 126.664C56.287 126.342 56.1316 125.968 55.929 125.659C55.7191 125.34 55.4694 125.098 55.2713 125.07C55.2532 125.066 55.2343 125.066 55.2191 125.067C55.1349 125.072 55.0624 125.133 55.0094 125.229C54.9405 125.347 54.892 125.514 54.863 125.707C54.837 125.885 54.8284 126.079 54.8415 126.268L54.84 126.266ZM54.8732 127.443C54.7156 127.164 54.6102 126.794 54.5847 126.402C54.5708 126.179 54.5794 125.946 54.6127 125.732C54.6511 125.474 54.7272 125.234 54.8316 125.051C54.9498 124.847 55.1028 124.713 55.2864 124.701C55.3133 124.699 55.3452 124.699 55.3742 124.705C55.6159 124.742 55.9106 125.014 56.1444 125.374C56.368 125.719 56.5445 126.148 56.5701 126.531C56.5774 126.646 56.5723 126.756 56.5571 126.86L56.5579 126.866C56.5101 127.181 56.3702 127.447 56.191 127.636C56.0169 127.818 55.8065 127.927 55.6055 127.942C55.5598 127.944 55.5148 127.943 55.4728 127.936C55.2384 127.9 55.03 127.715 54.8783 127.446L54.8732 127.443Z" fill="#1A1C1D"/>
<path d="M47.844 58.2937C47.4842 58.452 47.1076 58.5334 46.789 58.5225C46.4777 58.5132 46.2201 58.4145 46.0771 58.2237C46.0502 58.1881 46.0277 58.1497 46.011 58.1105L46.0088 58.1025C45.9304 57.9189 45.9303 57.6831 46.0093 57.4479C46.0926 57.2004 46.2631 56.9515 46.5191 56.765C46.6054 56.7011 46.7034 56.6452 46.8093 56.5965C47.159 56.4419 47.6227 56.3968 48.0319 56.4352C48.4579 56.475 48.8367 56.6092 48.9805 56.8059C48.9965 56.8298 49.0139 56.8559 49.0255 56.8828C49.0996 57.0504 49.0547 57.2471 48.9278 57.4481C48.8146 57.6274 48.6362 57.803 48.4258 57.9591C48.251 58.0883 48.0486 58.2044 47.8455 58.2959L47.844 58.2937ZM46.9304 58.2018C47.2062 58.2097 47.5327 58.1429 47.8432 58.0049C48.0151 57.928 48.1834 57.8314 48.3292 57.7247C48.4859 57.6107 48.6107 57.4866 48.6847 57.3712C48.7427 57.2791 48.7629 57.1869 48.7295 57.1085C48.723 57.094 48.715 57.0773 48.7027 57.0635C48.5858 56.9024 48.2534 56.7908 47.8739 56.7545C47.5074 56.719 47.1004 56.7547 46.8065 56.8846C46.734 56.9173 46.668 56.9551 46.6106 56.9964C46.454 57.1104 46.3517 57.2635 46.2988 57.4152C46.2437 57.5778 46.2445 57.744 46.3012 57.876L46.3041 57.8804C46.3171 57.9094 46.3338 57.9392 46.3534 57.9638C46.4631 58.114 46.6743 58.1902 46.9311 58.1981L46.9304 58.2018Z" fill="#1A1C1D"/>
<path d="M120.653 76.0474C120.293 76.2057 119.916 76.287 119.598 76.2762C119.286 76.2668 119.029 76.1682 118.886 75.9773C118.859 75.9418 118.836 75.9033 118.82 75.8642L118.817 75.8562C118.739 75.6726 118.739 75.4367 118.818 75.2016C118.901 74.9541 119.072 74.7052 119.328 74.5186C119.414 74.4547 119.512 74.3988 119.618 74.3502C119.968 74.1956 120.431 74.1505 120.841 74.1889C121.266 74.2287 121.645 74.3629 121.789 74.5595C121.805 74.5835 121.822 74.6096 121.834 74.6364C121.908 74.8041 121.863 75.0007 121.736 75.2018C121.623 75.381 121.445 75.5567 121.234 75.7128C121.06 75.842 120.857 75.9581 120.654 76.0496L120.653 76.0474ZM119.739 75.9554C120.015 75.9633 120.341 75.8965 120.652 75.7586C120.824 75.6816 120.992 75.5851 121.138 75.4784C121.295 75.3644 121.419 75.2403 121.493 75.1249C121.551 75.0327 121.572 74.9405 121.538 74.8622C121.532 74.8477 121.524 74.831 121.511 74.8172C121.394 74.6561 121.062 74.5444 120.682 74.5082C120.316 74.4727 119.909 74.5083 119.615 74.6383C119.543 74.671 119.477 74.7087 119.419 74.7501C119.263 74.8641 119.16 75.0172 119.107 75.1689C119.052 75.3314 119.053 75.4976 119.11 75.6297L119.113 75.6341C119.126 75.6631 119.142 75.6928 119.162 75.7175C119.272 75.8677 119.483 75.9439 119.74 75.9518L119.739 75.9554Z" fill="#1A1C1D"/>
<path d="M70.4436 161.436C70.4662 161.777 70.557 162.097 70.6921 162.337C70.8192 162.56 70.9854 162.711 71.1683 162.74C71.2009 162.746 71.2329 162.747 71.2655 162.744C71.4092 162.733 71.5601 162.658 71.6776 162.532C71.7878 162.414 71.8748 162.253 71.9038 162.06L71.9045 162.057C71.9146 161.987 71.9182 161.912 71.9131 161.834C71.8905 161.512 71.7351 161.138 71.5325 160.83C71.3227 160.51 71.0729 160.268 70.8748 160.24C70.8567 160.236 70.8378 160.236 70.8226 160.237C70.7384 160.243 70.6659 160.304 70.6129 160.399C70.5441 160.517 70.4955 160.685 70.4666 160.877C70.4405 161.055 70.4319 161.249 70.445 161.439L70.4436 161.436ZM70.4767 162.613C70.3191 162.334 70.2138 161.964 70.1882 161.572C70.1743 161.349 70.1829 161.116 70.2162 160.902C70.2546 160.644 70.3307 160.405 70.4351 160.222C70.5533 160.017 70.7063 159.883 70.8899 159.871C70.9168 159.869 70.9487 159.87 70.9777 159.875C71.2194 159.912 71.5141 160.184 71.7479 160.544C71.9715 160.889 72.148 161.319 72.1736 161.701C72.1809 161.816 72.1758 161.926 72.1606 162.03L72.1599 162.034C72.1122 162.349 71.9722 162.615 71.7931 162.804C71.619 162.986 71.4086 163.095 71.2076 163.11C71.1619 163.112 71.1169 163.111 71.0748 163.104C70.8404 163.068 70.6321 162.883 70.4803 162.614L70.4767 162.613Z" fill="#1A1C1D"/>
<path d="M59.3693 31.7763C59.392 32.1167 59.4828 32.4367 59.6179 32.6769C59.7449 32.9003 59.9112 33.0505 60.094 33.0795C60.1267 33.0861 60.1586 33.0868 60.1913 33.0839C60.335 33.0729 60.4859 32.9975 60.6034 32.8719C60.7136 32.7543 60.8006 32.5925 60.8296 32.4001L60.8303 32.3965C60.8404 32.3268 60.844 32.2521 60.8389 32.1737C60.8163 31.8522 60.6609 31.4778 60.4583 31.1694C60.2484 30.8502 59.9987 30.6078 59.8006 30.5796C59.7825 30.5759 59.7636 30.5759 59.7484 30.5767C59.6642 30.5825 59.5917 30.6435 59.5387 30.7385C59.4698 30.8568 59.4213 31.0245 59.3923 31.2168C59.3663 31.3946 59.3577 31.5891 59.3708 31.7785L59.3693 31.7763ZM59.4025 32.9527C59.2449 32.674 59.1395 32.3039 59.114 31.9121C59.1001 31.6886 59.1087 31.4563 59.142 31.2422C59.1804 30.9839 59.2565 30.7444 59.3609 30.5615C59.4791 30.3568 59.6321 30.2233 59.8157 30.2109C59.8426 30.2087 59.8745 30.2094 59.9035 30.2152C60.1452 30.2522 60.4399 30.5243 60.6737 30.8842C60.8973 31.2289 61.0738 31.6584 61.0994 32.0409C61.1067 32.1555 61.1016 32.2658 61.0864 32.3703L61.0857 32.374C61.0379 32.6889 60.898 32.9553 60.7188 33.144C60.5448 33.3262 60.3344 33.4351 60.1334 33.4496C60.0877 33.4518 60.0427 33.4504 60.0006 33.4438C59.7662 33.4083 59.5579 33.2233 59.4061 32.9534L59.4025 32.9527Z" fill="#1A1C1D"/>
<path d="M125.319 119.8C125.341 120.14 125.432 120.46 125.567 120.7C125.694 120.924 125.86 121.074 126.043 121.103C126.076 121.109 126.108 121.11 126.141 121.107C126.284 121.096 126.435 121.021 126.553 120.895C126.663 120.777 126.75 120.616 126.779 120.423L126.78 120.42C126.79 120.35 126.793 120.275 126.788 120.197C126.766 119.875 126.61 119.501 126.407 119.193C126.198 118.873 125.948 118.631 125.75 118.603C125.732 118.599 125.713 118.599 125.698 118.6C125.613 118.606 125.541 118.667 125.488 118.762C125.419 118.88 125.371 119.048 125.342 119.24C125.316 119.418 125.307 119.612 125.32 119.802L125.319 119.8ZM125.352 120.976C125.194 120.697 125.089 120.327 125.063 119.935C125.049 119.712 125.058 119.48 125.091 119.265C125.13 119.007 125.206 118.768 125.31 118.585C125.428 118.38 125.581 118.246 125.765 118.234C125.792 118.232 125.824 118.233 125.853 118.238C126.094 118.275 126.389 118.547 126.623 118.907C126.847 119.252 127.023 119.682 127.049 120.064C127.056 120.179 127.051 120.289 127.036 120.394L127.036 120.399C126.989 120.714 126.849 120.981 126.67 121.169C126.495 121.352 126.285 121.46 126.084 121.475C126.038 121.477 125.993 121.476 125.951 121.469C125.717 121.434 125.509 121.249 125.357 120.979L125.352 120.976Z" fill="#1A1C1D"/>
<path fill-rule="evenodd" clip-rule="evenodd" d="M123.514 150.169C121.936 150.435 118.478 151.285 116.031 151.219C113.582 151.154 112.144 150.176 112.043 150.218C111.94 150.262 113.172 151.327 115.07 151.734C116.969 152.144 119.536 151.895 121.218 151.587C122.9 151.28 123.694 150.911 124.244 150.566C124.794 150.221 125.093 149.902 123.516 150.167L123.514 150.169Z" fill="#1A1C1D"/>
<path d="M148.629 77.5944C148.652 77.9348 148.743 78.2548 148.878 78.495C149.005 78.7185 149.171 78.8686 149.354 78.8976C149.386 78.9042 149.418 78.9049 149.451 78.902C149.595 78.8911 149.746 78.8156 149.863 78.69C149.973 78.5724 150.06 78.4106 150.089 78.2182L150.09 78.2146C150.1 78.145 150.104 78.0702 150.099 77.9918C150.076 77.6704 149.921 77.2959 149.718 76.9875C149.508 76.6683 149.258 76.4259 149.06 76.3977C149.042 76.394 149.023 76.394 149.008 76.3948C148.924 76.4006 148.851 76.4616 148.798 76.5566C148.73 76.6749 148.681 76.8426 148.652 77.0349C148.626 77.2127 148.617 77.4072 148.631 77.5966L148.629 77.5944ZM148.662 78.7708C148.505 78.4921 148.399 78.122 148.374 77.7302C148.36 77.5067 148.368 77.2744 148.402 77.0604C148.44 76.802 148.516 76.5625 148.621 76.3796C148.739 76.1749 148.892 76.0414 149.075 76.029C149.102 76.0268 149.134 76.0276 149.163 76.0334C149.405 76.0703 149.7 76.3424 149.933 76.7023C150.157 77.047 150.334 77.4765 150.359 77.859C150.366 77.9736 150.361 78.0839 150.346 78.1884L150.347 78.1943C150.299 78.5092 150.159 78.7756 149.98 78.9643C149.806 79.1465 149.596 79.2554 149.395 79.2699C149.349 79.2721 149.304 79.2707 149.262 79.2641C149.027 79.2286 148.819 79.0436 148.667 78.7737L148.662 78.7708Z" fill="#1A1C1D"/>
<path d="M116.062 125.727C116.084 126.067 116.175 126.387 116.31 126.627C116.437 126.851 116.604 127.001 116.786 127.03C116.819 127.036 116.851 127.037 116.884 127.034C117.027 127.023 117.178 126.948 117.296 126.822C117.406 126.705 117.493 126.543 117.522 126.351L117.523 126.347C117.533 126.277 117.536 126.203 117.531 126.124C117.509 125.803 117.353 125.428 117.151 125.12C116.941 124.801 116.691 124.558 116.493 124.53C116.475 124.526 116.456 124.526 116.441 124.527C116.357 124.533 116.284 124.594 116.231 124.689C116.162 124.807 116.114 124.975 116.085 125.167C116.059 125.345 116.05 125.54 116.063 125.729L116.062 125.727ZM116.095 126.903C115.937 126.624 115.832 126.254 115.806 125.862C115.792 125.639 115.801 125.407 115.834 125.193C115.873 124.934 115.949 124.695 116.053 124.512C116.171 124.307 116.325 124.174 116.508 124.161C116.535 124.159 116.567 124.16 116.596 124.166C116.838 124.203 117.132 124.475 117.366 124.835C117.59 125.179 117.766 125.609 117.792 125.991C117.799 126.106 117.794 126.216 117.779 126.321L117.78 126.327C117.732 126.642 117.592 126.908 117.413 127.097C117.239 127.279 117.028 127.388 116.827 127.402C116.782 127.404 116.737 127.403 116.694 127.396C116.46 127.361 116.252 127.176 116.1 126.906L116.095 126.903Z" fill="#1A1C1D"/>
<path fill-rule="evenodd" clip-rule="evenodd" d="M115.933 125.793C115.983 126.509 116.307 127.145 116.74 127.209C117.17 127.274 117.71 126.773 117.662 126.056C117.612 125.34 116.977 124.412 116.545 124.344C116.115 124.279 115.886 125.076 115.936 125.792L115.933 125.793Z" fill="#1A1C1D"/>
<path d="M117.826 136.009C118.307 136.254 118.886 136.475 119.448 136.625L119.452 136.626C119.973 136.766 120.471 136.849 120.851 136.838L120.866 136.837C121.117 136.827 121.316 136.776 121.434 136.694C121.495 136.653 121.535 136.605 121.547 136.552C121.561 136.502 121.552 136.446 121.517 136.384C121.457 136.28 121.314 136.164 121.073 136.039C120.62 135.809 119.848 135.56 119.075 135.368C118.276 135.171 117.498 135.036 117.093 135.051L117.078 135.052C116.962 135.057 116.886 135.076 116.845 135.103C116.81 135.127 116.798 135.16 116.801 135.198C116.808 135.241 116.838 135.296 116.887 135.355C117.047 135.547 117.395 135.787 117.825 136.007L117.826 136.009ZM119.398 136.866C118.75 136.692 118.08 136.437 117.527 136.155C117.005 135.886 116.578 135.59 116.376 135.344C116.298 135.251 116.252 135.162 116.241 135.085C116.229 135.001 116.261 134.93 116.34 134.874C116.429 134.815 116.576 134.776 116.789 134.766L116.807 134.764C117.306 134.748 118.201 134.897 119.096 135.117C119.956 135.331 120.834 135.616 121.374 135.891C121.742 136.08 121.959 136.265 122.06 136.434C122.117 136.534 122.131 136.626 122.111 136.708C122.089 136.789 122.029 136.86 121.944 136.92C121.78 137.033 121.503 137.104 121.157 137.118L121.14 137.12C120.656 137.135 120.038 137.037 119.408 136.866L119.404 136.866L119.398 136.866Z" fill="#1A1C1D"/>
<path fill-rule="evenodd" clip-rule="evenodd" d="M117.676 136.081C118.688 136.598 120.106 137.008 120.992 136.979C121.879 136.951 122.232 136.486 121.221 135.968C120.209 135.451 117.834 134.88 116.948 134.909C116.061 134.937 116.664 135.563 117.676 136.081Z" fill="#1A1C1D"/>
<path d="M85.374 94.8345C85.8552 95.0797 86.4336 95.3009 86.996 95.451L86.9997 95.4518C87.5186 95.5932 88.0193 95.6744 88.3988 95.6634L88.414 95.6627C88.6651 95.6525 88.8639 95.6016 88.9821 95.5196C89.0431 95.479 89.0829 95.4303 89.0953 95.3781C89.109 95.328 89.0996 95.2714 89.0647 95.2097C89.0045 95.1052 88.8615 94.9899 88.6205 94.8644C88.1683 94.6344 87.3954 94.3856 86.6226 94.1935C85.8243 93.9962 85.0456 93.8614 84.6407 93.8767L84.6255 93.8774C84.5094 93.8825 84.4339 93.9014 84.3926 93.929C84.3578 93.9522 84.3454 93.9856 84.3491 94.0241C84.3556 94.0669 84.3861 94.122 84.4348 94.1808C84.5945 94.3731 84.9429 94.6125 85.3726 94.8323L85.374 94.8345ZM86.9461 95.692C86.298 95.5172 85.6281 95.2626 85.0751 94.9804C84.5533 94.712 84.1258 94.4153 83.9239 94.1693C83.8462 94.0764 83.7998 93.9879 83.7889 93.9103C83.7772 93.8268 83.8084 93.7557 83.8875 93.6998C83.9767 93.6403 84.124 93.6018 84.3373 93.5916L84.3547 93.5894C84.8539 93.5741 85.7487 93.7227 86.6442 93.9431C87.5035 94.1563 88.3823 94.4413 88.9216 94.717C89.2895 94.9056 89.5073 95.0906 89.6075 95.2597C89.6649 95.3598 89.6787 95.4513 89.6584 95.534C89.6367 95.6145 89.5772 95.6857 89.4916 95.7459C89.3277 95.8584 89.0512 95.9296 88.7051 95.9435L88.6877 95.9456C88.2037 95.9603 87.5854 95.8631 86.9555 95.692L86.9519 95.6913L86.9461 95.692Z" fill="#1A1C1D"/>
<path fill-rule="evenodd" clip-rule="evenodd" d="M85.2238 94.9061C86.2355 95.4234 87.6536 95.8331 88.5403 95.8046C89.427 95.7762 89.7802 95.3109 88.7685 94.7937C87.7567 94.2765 85.3822 93.7058 84.4955 93.7343C83.6088 93.7627 84.2121 94.3889 85.2238 94.9061Z" fill="#1A1C1D"/>
<path d="M72.5701 56.1897C72.9026 56.358 73.3039 56.5118 73.6921 56.6176C74.0521 56.7141 74.399 56.7721 74.6609 56.764C74.8394 56.7582 74.9787 56.7219 75.0636 56.6653C75.105 56.6377 75.1325 56.6036 75.1434 56.568C75.1521 56.5339 75.147 56.4933 75.123 56.4526C75.0809 56.3801 74.9836 56.3003 74.816 56.2139C74.5046 56.0536 73.969 55.8825 73.4335 55.749C72.8798 55.612 72.3413 55.5214 72.0627 55.5279C71.977 55.5316 71.9219 55.5432 71.8914 55.5635C71.8675 55.5795 71.8573 55.602 71.8632 55.6296C71.8682 55.6608 71.8893 55.6971 71.9227 55.7377C72.0323 55.869 72.2726 56.0359 72.5723 56.1882L72.5701 56.1897ZM73.6574 56.7824C73.2096 56.6627 72.7451 56.485 72.3634 56.2899C72.0019 56.1063 71.7073 55.9003 71.5679 55.7291C71.5149 55.6638 71.4815 55.6043 71.4735 55.5498C71.4662 55.4918 71.4872 55.4431 71.5416 55.4069C71.6047 55.3648 71.7121 55.3372 71.8659 55.332C72.2113 55.3218 72.8325 55.4233 73.4508 55.577C74.0459 55.7242 74.6519 55.9208 75.0249 56.1123C75.2782 56.2422 75.4299 56.3706 75.4989 56.4881C75.5381 56.5563 75.5498 56.6209 75.5346 56.6783C75.5179 56.7334 75.4794 56.7842 75.4185 56.8249C75.301 56.9033 75.108 56.9534 74.8613 56.9607C74.5253 56.9709 74.0957 56.902 73.6588 56.7846L73.6574 56.7824Z" fill="#1A1C1D"/>
<path fill-rule="evenodd" clip-rule="evenodd" d="M72.4648 56.2385C73.163 56.5968 74.1463 56.8782 74.7595 56.8592C75.3726 56.8403 75.6163 56.5173 74.9181 56.1589C74.2177 55.802 72.574 55.4075 71.9609 55.4265C71.3477 55.4455 71.763 55.8794 72.4648 56.2385Z" fill="#1A1C1D"/>
<path d="M57.7479 96.7402C58.0803 96.9085 58.4816 97.0623 58.8699 97.1682C59.2298 97.2646 59.5767 97.3226 59.8387 97.3146C60.0172 97.3087 60.1565 97.2724 60.2413 97.2158C60.2827 97.1882 60.3103 97.1541 60.3211 97.1186C60.3298 97.0844 60.3247 97.0438 60.3008 97.0032C60.2586 96.9306 60.1614 96.8508 59.9937 96.7645C59.6824 96.6042 59.1468 96.433 58.6112 96.2996C58.0575 96.1625 57.519 96.0719 57.2404 96.0785C57.1548 96.0821 57.0996 96.0938 57.0692 96.1141C57.0452 96.13 57.0351 96.1525 57.0409 96.1801C57.046 96.2113 57.067 96.2476 57.1004 96.2882C57.2101 96.4196 57.4503 96.5864 57.7501 96.7388L57.7479 96.7402ZM58.8351 97.3329C58.3874 97.2133 57.9229 97.0356 57.5411 96.8404C57.1797 96.6569 56.885 96.4508 56.7456 96.2796C56.6926 96.2143 56.6592 96.1548 56.6512 96.1004C56.6439 96.0423 56.6649 95.9937 56.7193 95.9574C56.7825 95.9153 56.8898 95.8877 57.0437 95.8826C57.3891 95.8724 58.0103 95.9738 58.6286 96.1276C59.2236 96.2748 59.8296 96.4713 60.2027 96.6628C60.456 96.7927 60.6077 96.9211 60.6766 97.0387C60.7159 97.1069 60.7275 97.1715 60.7123 97.2288C60.6956 97.2839 60.6572 97.3348 60.5962 97.3754C60.4787 97.4538 60.2857 97.5039 60.039 97.5112C59.703 97.5214 59.2734 97.4526 58.8366 97.3351L58.8351 97.3329Z" fill="#1A1C1D"/>
<path fill-rule="evenodd" clip-rule="evenodd" d="M57.6455 96.7895C58.3437 97.1479 59.327 97.4292 59.9402 97.4103C60.5533 97.3913 60.797 97.0683 60.0988 96.7099C59.3984 96.353 57.7547 95.9586 57.1415 95.9775C56.5284 95.9965 56.9436 96.4304 57.6455 96.7895Z" fill="#1A1C1D"/>
<path d="M76.8922 144.153C76.8572 143.723 76.8729 143.228 76.9344 142.769C76.9923 142.318 77.0952 141.897 77.2337 141.591C77.3351 141.366 77.4555 141.207 77.5731 141.129C77.634 141.088 77.6942 141.07 77.753 141.078C77.8118 141.086 77.8691 141.12 77.9149 141.184C77.9954 141.291 78.0572 141.482 78.0798 141.766C78.1134 142.184 78.0621 142.819 77.9695 143.425C77.8739 144.055 77.729 144.667 77.5869 144.982C77.521 145.124 77.4564 145.211 77.3933 145.253L77.3868 145.257C77.3331 145.29 77.2823 145.289 77.233 145.262C77.1858 145.234 77.1415 145.182 77.1037 145.106L77.1001 145.096C76.9999 144.899 76.9257 144.552 76.8936 144.155L76.8922 144.153ZM77.1021 142.799C77.0507 143.198 77.0364 143.629 77.0663 143.999C77.0925 144.331 77.1514 144.612 77.2306 144.764L77.2349 144.77C77.2611 144.819 77.2865 144.852 77.3119 144.867C77.3337 144.881 77.3583 144.88 77.3815 144.868L77.3859 144.865C77.4164 144.844 77.4505 144.797 77.4845 144.72C77.6013 144.466 77.7229 143.932 77.8069 143.37C77.8894 142.824 77.9371 142.264 77.9086 141.915C77.8933 141.727 77.8555 141.604 77.8062 141.54C77.7778 141.502 77.7444 141.48 77.7074 141.476C77.6704 141.473 77.6284 141.485 77.587 141.513C77.5021 141.569 77.4151 141.684 77.3411 141.847C77.2331 142.085 77.152 142.426 77.1042 142.797L77.1021 142.799Z" fill="#1A1C1D"/>
<path fill-rule="evenodd" clip-rule="evenodd" d="M76.9757 144.075C76.9129 143.293 77.0308 142.277 77.2838 141.718C77.5369 141.159 77.9287 141.058 77.9914 141.84C78.0519 142.624 77.7848 144.293 77.5318 144.852C77.2788 145.411 77.0377 144.861 76.9757 144.075Z" fill="#1A1C1D"/>
<path d="M105.976 110.788C105.941 110.358 105.957 109.863 106.018 109.404C106.076 108.953 106.179 108.532 106.318 108.226C106.419 108.001 106.54 107.842 106.657 107.764C106.718 107.723 106.778 107.705 106.837 107.713C106.896 107.721 106.953 107.755 106.999 107.819C107.079 107.926 107.141 108.117 107.164 108.401C107.197 108.819 107.146 109.454 107.053 110.06C106.958 110.69 106.813 111.302 106.671 111.617C106.605 111.759 106.54 111.846 106.477 111.888L106.471 111.892C106.417 111.925 106.366 111.924 106.317 111.897C106.27 111.869 106.225 111.817 106.188 111.741L106.184 111.731C106.084 111.534 106.01 111.187 105.978 110.79L105.976 110.788ZM106.186 109.434C106.135 109.833 106.12 110.264 106.15 110.634C106.177 110.966 106.235 111.247 106.315 111.399L106.319 111.405C106.345 111.454 106.37 111.487 106.396 111.502C106.418 111.516 106.442 111.515 106.466 111.503L106.47 111.5C106.5 111.479 106.534 111.432 106.569 111.355C106.685 111.101 106.807 110.567 106.891 110.005C106.973 109.459 107.021 108.899 106.993 108.55C106.977 108.362 106.94 108.239 106.89 108.175C106.862 108.137 106.828 108.115 106.791 108.111C106.754 108.108 106.712 108.12 106.671 108.148C106.586 108.204 106.499 108.319 106.425 108.482C106.317 108.72 106.236 109.061 106.188 109.432L106.186 109.434Z" fill="#1A1C1D"/>
<path fill-rule="evenodd" clip-rule="evenodd" d="M106.064 110.711C106.001 109.929 106.119 108.913 106.372 108.354C106.625 107.795 107.017 107.694 107.079 108.476C107.14 109.26 106.873 110.929 106.62 111.488C106.367 112.047 106.126 111.497 106.064 110.711Z" fill="#1A1C1D"/>
</g>
<defs>
<clipPath id="clip0_78_38308">
<rect width="120.26" height="145.431" fill="white" transform="translate(0 66.7378) rotate(-33.707)"/>
</clipPath>
</defs>
</svg>
