<svg width="286" height="300" viewBox="0 0 286 300" fill="none" xmlns="http://www.w3.org/2000/svg">
<g clip-path="url(#clip0_78_38188)">
<path d="M124.781 162.827C124.565 163.291 123.903 163.472 123.305 163.23C122.707 162.99 122.398 162.418 122.614 161.955L122.781 161.598C134.857 135.835 146.909 110.118 154.317 94.5444L156.41 90.1512C162.187 78.0353 164.664 72.837 166.244 66.8293C165.026 66.3881 163.938 65.703 162.979 64.7956C162.122 63.9828 161.382 62.9943 160.758 61.846L160.65 61.8403C157.975 61.7023 154.657 61.8567 151.391 62.1724C147.64 62.5354 143.973 63.1125 141.44 63.706C137.081 64.7277 136.327 65.7564 135.636 66.7848C135.42 67.176 134.865 67.3559 134.311 67.1897C133.691 67.0041 133.306 66.4578 133.45 65.969L133.453 65.9705C133.475 65.9011 133.505 65.8328 133.549 65.7701C134.442 64.4376 135.338 63.1045 140.55 61.8837C143.172 61.2706 146.961 60.6737 150.833 60.2982C153.973 59.994 157.18 59.836 159.88 59.9308C159.633 59.2894 159.416 58.6122 159.226 57.9021C158.487 55.1349 158.167 51.8259 158.254 48.7484C158.34 45.6759 158.833 42.8108 159.716 40.9094L159.771 40.7935L159.774 40.7951L159.776 40.7908C160.753 38.7679 162.202 37.7958 163.698 37.4521C165.227 37.1004 166.776 37.4114 167.954 37.9465L168.105 38.0149L168.104 38.0177L168.108 38.02C169.376 38.6341 170.197 39.4585 170.673 40.9225C171.06 42.1062 171.203 43.7465 171.186 46.1555C172.2 44.0492 173.441 42.4685 174.809 41.3874C176.647 39.9341 178.73 39.3625 180.832 39.6065C182.861 39.8418 184.849 40.841 186.446 42.3171C187.962 43.7197 189.139 45.5686 189.65 47.596C190.162 49.6277 190.007 51.8312 189.191 54.0279C188.41 56.1297 187.024 58.2363 185.046 60.1831C182.997 62.1988 180.305 64.0518 177.52 65.3711C175.196 66.4726 172.786 67.2093 170.596 67.3746L170.522 67.4057C170.138 67.5512 169.751 67.5596 169.376 67.407C169.086 67.3991 168.802 67.3812 168.523 67.3512C166.903 73.5659 164.415 78.7827 158.573 91.0343L156.48 95.4274C149.004 111.148 136.986 136.788 124.948 162.474L124.781 162.831L124.781 162.827ZM166.692 65.0119C166.834 64.3954 166.967 63.7692 167.093 63.1405C166.921 63.0626 166.74 62.9851 166.545 62.9115C165.685 62.5801 164.62 62.303 163.337 62.1091C163.729 62.7027 164.162 63.2255 164.634 63.6731C165.245 64.2508 165.931 64.7019 166.692 65.0133L166.692 65.0119ZM167.441 61.2793C167.706 59.7725 167.928 58.2553 168.114 56.7664C168.617 52.7473 168.85 48.9564 168.886 46.2049C168.917 43.8001 168.8 42.2274 168.459 41.1795C168.192 40.3628 167.776 39.9217 167.152 39.6173L167.15 39.6201L167.039 39.5664C166.347 39.2556 165.448 39.0734 164.58 39.2734C163.616 39.4949 162.65 40.1857 161.933 41.6686L161.935 41.6701L161.887 41.7725C161.084 43.4968 160.635 46.1572 160.554 49.0423C160.472 51.9766 160.772 55.1196 161.472 57.7361C161.699 58.5846 161.966 59.3738 162.273 60.0988C164.313 60.3178 165.971 60.7143 167.278 61.2155L167.441 61.2793ZM171.477 65.3058C172.981 65.0196 174.591 64.4582 176.183 63.7033C178.779 62.4729 181.294 60.7431 183.203 58.8616C185.013 57.0805 186.275 55.1659 186.981 53.2669C187.693 51.3506 187.836 49.4559 187.402 47.7351C186.986 46.0867 186.036 44.5916 184.815 43.4622C183.633 42.3692 182.209 41.6337 180.804 41.4704C179.367 41.3044 177.885 41.7392 176.512 42.8265C175.129 43.9192 173.876 45.6538 172.888 48.0754C171.942 50.3944 171.25 53.3181 170.802 56.1328C170.399 58.6654 170.191 61.0986 170.171 62.9208C170.642 63.3626 170.982 63.8281 171.198 64.2995L171.231 64.3675C171.367 64.6821 171.445 65.0003 171.478 65.303L171.477 65.3058Z" fill="#FF6624"/>
<path d="M120.83 155.744C120.745 155.919 120.492 155.985 120.267 155.89C120.041 155.796 119.926 155.577 120.011 155.403C125.742 143.758 131.477 132.108 136.555 121.814C141.724 111.339 146.349 101.99 149.89 94.8955L151.744 91.1838C157.5 79.6762 159.981 74.7163 161.623 68.6871L161.636 68.6369C160.332 68.2763 159.189 67.6165 158.212 66.6896C157.479 65.9947 156.841 65.1494 156.301 64.1674C153.007 64.4878 149.012 65.8116 145.569 66.9532C144.956 67.1569 144.359 67.3547 143.839 67.5229C139.734 68.8539 136.86 69.5648 133.992 70.2731C133.792 70.3324 133.542 70.2508 133.423 70.078C133.296 69.8954 133.361 69.6822 133.567 69.6013L133.62 69.5847C136.494 68.8759 139.367 68.165 143.427 66.8496C144.017 66.6573 144.578 66.4725 145.154 66.2819C148.592 65.143 152.569 63.8243 155.943 63.4701C155.501 62.5421 155.135 61.5085 154.849 60.3816C154.186 57.7855 153.932 54.6733 154.06 51.772C154.187 48.8807 154.697 46.1923 155.561 44.4248C156.332 42.8514 157.39 41.9876 158.503 41.5844C160.024 41.0346 161.634 41.3437 162.778 41.892C163.811 42.3881 164.478 43.0665 164.862 44.282C165.217 45.4079 165.32 47.017 165.25 49.4354C165.216 50.6001 165.143 51.9574 165.025 53.4396C165.336 52.3938 165.683 51.3981 166.071 50.4945C167.134 48.0107 168.492 46.2101 169.994 45.0497C171.654 43.7659 173.498 43.2587 175.328 43.4657C177.106 43.6678 178.85 44.5443 180.254 45.8425C181.618 47.1035 182.663 48.7676 183.103 50.5951C183.546 52.4452 183.368 54.461 182.578 56.4798C181.814 58.4302 180.48 60.3882 178.592 62.2017C176.622 64.0909 174.045 65.8283 171.388 67.0665C169.143 68.1118 166.831 68.8046 164.768 68.9344C164.728 68.9603 164.685 68.981 164.641 68.9974C164.432 69.0745 164.218 69.066 164.014 68.9571C163.492 68.9544 162.99 68.9112 162.509 68.8311L162.481 68.9358C160.824 75.0208 158.336 79.9956 152.564 91.533L150.71 95.2447C147.144 102.388 142.524 111.727 137.376 122.162C132.139 132.777 126.487 144.26 120.833 155.748L120.83 155.744ZM161.819 67.9533C162.055 67.04 162.272 66.1049 162.472 65.1591C162.235 65.0309 161.979 64.9084 161.702 64.7966C160.512 64.3174 158.98 64.0325 157.185 64.1049C157.663 64.9403 158.217 65.662 158.843 66.2578C159.693 67.0631 160.685 67.6379 161.819 67.9533ZM162.621 64.4379C162.954 62.7788 163.235 61.0967 163.47 59.4533C164.017 55.5989 164.301 51.9614 164.377 49.3209C164.445 46.9712 164.35 45.4254 164.017 44.3714C163.714 43.4068 163.203 42.8788 162.417 42.5019C161.485 42.054 160.178 41.8019 158.945 42.2481C157.989 42.5938 157.071 43.3575 156.381 44.7646C155.548 46.4631 155.058 49.0734 154.934 51.8923C154.809 54.733 155.058 57.7812 155.707 60.3239C155.996 61.4559 156.363 62.4845 156.808 63.3997L157.007 63.3888C158.972 63.3065 160.667 63.6254 161.995 64.1601C162.212 64.2485 162.42 64.3408 162.618 64.4399L162.621 64.4379ZM163.152 66.2125C163.006 66.8614 162.851 67.5056 162.689 68.1401C162.938 68.179 163.192 68.2044 163.452 68.2198C163.33 67.8905 163.233 67.4383 163.184 66.8396C163.17 66.6471 163.158 66.4373 163.152 66.2125ZM165.228 68.1553C167.003 67.9445 168.961 67.3208 170.883 66.4249C173.469 65.2201 175.977 63.5291 177.892 61.6914C179.72 59.9385 181.006 58.0539 181.738 56.1805C182.486 54.2693 182.658 52.3721 182.242 50.6404C181.838 48.9599 180.88 47.4326 179.633 46.2797C178.389 45.1284 176.859 44.354 175.323 44.1789C173.74 43.9991 172.122 44.4567 170.638 45.6034C169.219 46.7005 167.927 48.4211 166.906 50.8096C165.945 53.0555 165.224 55.8789 164.744 58.596C164.296 61.1282 164.055 63.5674 164.024 65.3572C164.517 65.7854 164.871 66.2515 165.069 66.7186C165.286 67.2327 165.312 67.7509 165.228 68.1553ZM164.035 66.4875C164.04 66.6289 164.049 66.7633 164.059 66.8904C164.11 67.524 164.198 67.9302 164.298 68.1645C164.427 67.8662 164.453 67.3712 164.242 66.8709C164.188 66.7435 164.118 66.6147 164.033 66.4881L164.035 66.4875Z" fill="#FF6624"/>
<path fill-rule="evenodd" clip-rule="evenodd" d="M128.621 259.368C131.908 261.933 137.314 267.786 142.404 267.934C147.494 268.082 151.948 265.15 155.769 263.984C159.59 262.818 163.937 259.943 167.489 257.54C171.042 255.137 174.117 250.577 177.748 245.186C181.377 239.794 185.559 233.571 187.217 228.656C188.875 223.744 188.008 220.141 184.867 216.708C181.725 213.277 176.308 210.013 170.774 209.29C165.24 208.568 159.59 210.386 153.112 212.932C146.635 215.479 139.329 218.755 133.453 222.107C127.578 225.459 123.13 228.885 118.97 233.605C109.772 244.037 108.324 249.048 118.125 258.523C118.362 258.754 102.531 248.131 115.653 233.771C124.599 223.981 134.288 218.693 145.266 214.067C154.06 210.361 163.604 205.918 174.819 208.58C181.03 210.053 184.189 212.075 186.815 216.36C189.442 220.646 189.002 224.308 186.94 230.989C184.879 237.67 181.197 247.369 175.209 252.647C169.223 257.927 163.461 261.674 159.536 263.634C155.611 265.596 153.521 265.771 150.603 266.678C147.685 267.584 143.941 269.217 140.779 269.184C137.618 269.151 135.043 267.449 132.876 265.784C130.709 264.118 128.948 262.487 127.756 260.08C121.852 248.147 127.227 258.284 128.621 259.372L128.621 259.368Z" fill="#FF6624"/>
<path d="M159.29 221.977C158.999 219.216 161.332 215.081 162.372 214.34C163.312 213.67 164.446 213.435 165.529 213.574C166.626 213.715 167.68 214.246 168.434 215.106C169.625 216.464 169.979 218.521 170.281 220.286C170.339 220.619 170.394 220.942 170.427 221.118L170.545 221.709C170.905 223.483 171.154 224.709 169.587 225.893C169.207 226.181 168.713 226.446 168.157 226.694C168.404 226.823 168.631 226.996 168.833 227.207C169.041 227.422 169.223 227.679 169.38 227.969C169.783 228.716 170.005 229.71 170.011 230.679C170.016 231.615 169.819 232.556 169.385 233.268C168.823 234.188 167.964 234.643 167.242 235.025L167.243 235.027C166.921 235.197 166.637 235.347 166.551 235.447C166.475 235.535 166.702 236.009 166.928 236.476L167.082 236.801C168.216 239.258 166.74 241.985 165.444 244.102C164.846 245.079 164.191 245.927 163.606 246.339C162.478 247.135 161.694 246.761 161.079 246.101C161.169 247.33 161.133 248.811 160.301 249.897C159.659 250.737 158.603 251.239 157.482 251.544C156.454 251.823 155.343 251.741 154.522 251.798C153.602 251.86 152.981 252.047 152.368 251.759C151.74 251.466 151.285 250.938 150.806 249.986C150.34 249.06 149.811 247.641 149.542 246.227C149.329 245.1 149.278 243.959 149.541 243.02C150.163 240.802 155.632 240.039 156.399 238.117C156.942 236.756 154.617 234.533 148.789 232.04C146.577 231.092 144.63 230.26 144.467 229.214C144.226 227.658 147.204 227.112 150.06 226.591C150.971 226.425 151.867 226.261 152.619 226.082C154.462 225.643 156.419 223.573 157.019 223.953C153.503 227.403 154.898 227.44 150.368 228.268C148.311 228.644 146.14 228.873 146.153 228.954C146.17 229.067 147.711 229.726 149.459 230.475C150.989 231.13 152.659 231.844 153.871 232.608C155.853 233.856 157.295 235.696 156.893 238.139C156.77 238.885 156.531 239.397 156.097 239.836C155.551 240.386 154.867 240.637 154.189 240.968C153.096 241.458 151.563 242.144 151.188 243.482C151.001 244.148 151.05 245.022 151.219 245.914C151.63 248.084 151.501 250.105 152.618 250.658C153.474 251.083 155.353 250.358 157.04 249.9C157.838 249.683 158.565 249.357 158.944 248.863C159.578 248.032 159.413 246.453 159.302 245.393C159.272 245.111 159.246 244.859 159.236 244.669L159.238 244.666C159.214 244.224 159.258 243.896 159.357 243.666C159.503 243.326 159.746 243.125 160.074 243.054C160.354 242.992 160.62 243.05 160.873 243.206C161.113 243.354 161.366 243.63 161.616 243.98L161.803 244.243L161.962 244.477C162.175 244.777 162.423 245.085 162.621 244.944C169.929 239.792 163.796 236.044 165.256 234.338C165.557 233.985 165.971 233.768 166.441 233.519L166.441 233.521C166.973 233.239 167.606 232.906 167.926 232.382C168.19 231.948 168.31 231.329 168.305 230.686C168.302 229.983 168.148 229.28 167.876 228.772C167.796 228.622 167.704 228.493 167.603 228.387C167.47 228.249 167.324 228.162 167.171 228.138C166.998 228.113 166.785 228.161 166.528 228.298C166.313 228.413 166.077 228.589 165.822 228.835C165.153 229.477 164.38 230.565 163.671 231.566C162.859 232.71 162.12 233.751 161.485 234.146C161.454 234.168 161.422 234.187 161.388 234.203C161.199 234.302 161.006 234.351 160.808 234.357C160.284 234.372 159.914 234.105 159.672 233.642C159.535 233.38 159.448 233.04 159.402 232.663C159.303 231.86 159.382 230.772 159.54 229.967C159.715 229.076 159.991 228.464 160.528 227.951C161.025 227.478 161.699 227.147 162.705 226.792C163.04 226.673 163.587 226.498 164.174 226.309L164.231 226.289C165.832 225.776 167.706 225.176 168.56 224.533C169.271 223.995 169.109 223.197 168.874 222.044L168.753 221.427C168.685 221.063 168.643 220.82 168.6 220.569C168.335 219.022 168.025 217.218 167.154 216.226C166.681 215.687 166.012 215.352 165.309 215.261C164.636 215.175 163.938 215.317 163.363 215.727C161.074 217.357 161.5 218.875 159.29 221.973L159.29 221.977ZM164.164 228.104C163.88 228.195 163.592 228.293 163.275 228.405C162.498 228.681 162.004 228.91 161.709 229.191C161.455 229.433 161.314 229.774 161.21 230.303C161.096 230.88 161.033 231.623 161.071 232.221C161.396 231.821 161.823 231.221 162.276 230.582C162.878 229.732 163.525 228.821 164.163 228.105L164.164 228.104Z" fill="#FF6624"/>
<path d="M158.054 219.431C146.893 209.462 153.76 221.315 150.108 223.49C149.412 223.905 148.826 223.808 148.06 223.599C147.883 223.551 147.628 223.476 147.354 223.395L147.348 223.397C146.53 223.156 145.484 222.849 144.463 222.71C143.875 222.63 143.283 222.602 142.764 222.746C142.31 222.872 141.868 223.157 141.466 223.711C140.929 224.451 140.483 225.592 140.48 226.859C140.475 229.743 142.839 231.479 144.879 233.134C146.823 234.713 148.502 236.078 148.2 237.702C148.194 237.747 148.176 237.813 148.154 237.895L148.151 237.899C147.793 239.136 146.132 239.963 144.142 240.339C142.449 240.657 140.427 240.708 138.917 240.421C138.694 240.378 138.464 240.323 138.224 240.254C134.991 239.312 134.864 236.959 134.739 234.618L134.741 234.613C134.734 234.476 134.726 234.335 134.703 233.996C134.64 233.073 134.515 232.211 134.283 231.644L134.278 231.645C134.219 231.503 134.419 231.372 134.319 231.389C133.98 231.444 133.414 231.928 132.854 232.597C132.266 233.298 131.771 234.145 131.603 234.894C131.457 235.551 131.568 236.25 131.657 236.811C131.891 238.276 132.055 239.306 130.37 239.756C129.716 239.932 128.876 239.824 127.873 239.697C126.604 239.535 125.005 239.331 123.949 239.716C123.803 239.769 123.67 239.83 123.549 239.9C123.022 240.203 122.624 240.693 122.415 241.27C122.205 241.854 122.193 242.535 122.443 243.221C122.511 243.409 122.598 243.595 122.701 243.774C123.251 244.724 124.321 245.658 125.529 246.411C126.883 247.255 128.353 247.842 129.431 247.957L129.535 247.964C130.25 248.02 130.716 247.836 130.997 247.567C131.27 247.305 131.404 246.971 131.437 246.7L131.439 246.661C131.454 246.464 131.384 246.251 131.325 246.065C131.069 245.269 130.865 244.638 131.675 243.704L131.79 243.581C132.233 243.127 133.038 242.638 133.829 242.369C134.827 242.032 135.9 242.011 136.638 242.647L136.723 242.727C137.73 243.708 137.445 245.501 137.151 247.347L137.155 247.35C137.087 247.781 137.017 248.213 136.976 248.537C136.877 249.303 136.836 249.978 136.996 250.424C137.104 250.726 137.38 250.968 137.94 251.119C138.77 251.345 140.042 251.376 141.361 251.279C142.853 251.169 144.353 250.894 145.326 250.547C145.519 250.478 145.698 250.401 145.86 250.318C146.192 250.15 146.353 250.015 146.402 249.909L146.358 249.811C146.243 249.585 145.964 249.33 145.657 249.053C145.316 248.742 144.95 248.409 144.615 247.998C142.155 244.974 142.479 243.175 145.451 240.952C142.278 246.366 147.447 245.254 148.793 249.014C149.009 249.615 149.046 250.294 148.723 250.992C146.859 255.02 133.671 254.136 134.434 248.201C134.495 247.727 134.558 247.33 134.621 246.936L134.626 246.937C134.805 245.819 134.977 244.732 134.946 244.571C134.896 244.569 134.845 244.717 134.65 244.781C134.269 244.909 133.907 245.111 133.692 245.296L133.737 245.282C133.749 245.273 133.757 245.27 133.758 245.274C133.891 245.687 134.044 246.163 133.99 246.86L133.979 246.947C133.9 247.721 133.535 248.68 132.774 249.408C130.562 251.52 118.149 245.554 120.011 240.389C120.42 239.255 121.213 238.293 122.268 237.684C122.525 237.535 122.794 237.41 123.07 237.309C124.724 236.708 126.658 236.954 128.192 237.15C128.93 237.244 129.549 237.322 129.701 237.282C130.236 237.139 129.148 237.331 129.127 237.197C131.936 235.133 130.985 229.333 133.906 228.863C138.419 228.138 135.189 235.6 137.23 238.338C137.288 238.414 151.464 240.186 145.361 235.231C142.37 232.803 137.151 225.283 139.379 222.209C140.165 221.125 141.093 220.552 142.078 220.278C142.998 220.023 143.916 220.055 144.798 220.175C146.05 220.345 147.185 220.679 148.074 220.941L148.074 220.944C148.295 221.009 148.495 221.069 148.724 221.13C148.862 221.168 148.641 221.382 148.79 221.292C148.819 221.275 148.798 221.14 148.92 220.696C149.011 220.369 149.102 219.976 149.2 219.552C149.631 217.682 150.181 215.302 151.566 214.489C152.683 213.834 153.892 214.201 155.143 215.081C156.165 215.8 159.392 218.038 158.046 219.428L158.054 219.431ZM133.621 245.375C133.514 245.499 133.682 245.325 133.744 245.283L133.699 245.297L133.63 245.363C133.621 245.371 133.636 245.359 133.622 245.373L133.621 245.375Z" fill="#FF6624"/>
<path d="M175.292 213.827C175.682 214.772 179.044 220.208 180.14 221.296C180.926 222.077 181.621 222.768 181.643 223.651L181.642 223.724C181.631 224.551 181.063 225.125 180.317 225.875C179.878 226.317 179.36 226.838 178.916 227.472C178.425 228.171 177.981 229.053 177.614 229.953C177.174 231.033 176.847 232.129 176.676 232.973C176.431 234.189 176.527 234.883 176.639 235.692C176.667 235.893 176.695 236.103 176.718 236.302C176.789 236.925 176.839 237.662 176.815 238.465C176.791 239.279 176.694 240.145 176.472 241.003C175.574 244.475 171.121 250.383 165.657 250.683C169.493 248.853 173.693 244.919 174.816 240.573C175.007 239.832 175.092 239.096 175.111 238.413C175.13 237.718 175.087 237.061 175.021 236.497C174.996 236.28 174.971 236.098 174.946 235.92C174.815 234.952 174.701 234.126 175.002 232.631C175.191 231.692 175.55 230.485 176.031 229.304C176.44 228.301 176.943 227.306 177.512 226.495C178.052 225.726 178.619 225.156 179.099 224.672C179.559 224.209 179.911 223.855 179.934 223.706L179.934 223.693C179.928 223.492 179.464 223.031 178.939 222.508C177.124 220.703 174.731 216.215 175.293 213.825L175.292 213.827Z" fill="#FF6624"/>
<path d="M187.292 216.878C187.793 217.38 187.796 218.194 187.301 218.695C186.805 219.196 185.997 219.195 185.498 218.691L185.378 218.572C181.816 214.983 178.22 211.357 171.457 204.559L171.28 204.38C164.424 197.49 154.428 187.442 147.009 178.823C139.518 170.119 134.652 162.88 129.793 155.646C129.489 155.25 129.429 154.697 129.682 154.232C130.022 153.611 130.801 153.389 131.421 153.735L131.682 153.879L131.86 154.145C136.691 161.339 141.521 168.535 148.936 177.148C156.319 185.726 166.258 195.716 173.073 202.565L173.25 202.744C180.014 209.543 183.61 213.167 187.171 216.758L187.291 216.877L187.292 216.878Z" fill="#FF6624"/>
<path d="M125.483 144.78C125.931 145.326 125.851 146.131 125.306 146.579C124.76 147.026 123.954 146.945 123.505 146.399C120.013 142.141 116.522 137.888 113.662 134.366C110.636 130.64 107.834 127.146 105.481 124.117C104.326 122.631 103.766 121.898 103.239 121.21C100.209 117.249 98.3266 114.786 96.3318 113.584C95.1859 112.893 93.9298 112.581 92.3348 112.521C90.6072 112.457 88.4864 112.685 85.7414 113.062C82.9519 113.446 79.5425 113.978 76.0369 114.847C72.5452 115.711 68.9247 116.91 65.6671 118.626C62.4272 120.333 59.5179 122.573 56.9651 124.969C54.3897 127.385 52.1924 129.944 50.3839 132.274C48.5698 134.615 47.1422 136.73 45.9338 138.725C44.723 140.725 43.7321 142.608 42.7932 144.476C41.8574 146.34 40.9745 148.184 40.2734 149.977C39.5876 151.732 39.0727 153.435 38.8531 155.055C38.6442 156.589 38.7058 158.061 39.3186 159.701C39.959 161.415 41.2045 163.345 43.3639 165.738C45.6533 168.278 48.9754 171.338 52.626 174.702C56.0972 177.902 59.8676 181.374 63.4138 185.019C67.0382 188.744 70.3783 192.602 73.512 196.473C76.654 200.355 79.562 204.212 82.3409 207.957C85.1866 211.793 87.8625 215.463 90.2012 218.778C92.5893 222.164 94.7391 225.335 96.5201 228.16C99.8442 233.437 101.732 237.292 103.615 241.139L103.97 241.862C104.976 243.912 105.999 245.976 107.002 247.801C108.012 249.642 109.039 251.323 110.076 252.669C112.096 255.288 114.228 256.667 116.361 258.047C116.956 258.431 117.127 259.223 116.743 259.817C116.359 260.411 115.567 260.58 114.972 260.196C112.658 258.7 110.343 257.204 108.05 254.228C106.932 252.776 105.833 250.98 104.759 249.025C103.678 247.055 102.658 245.005 101.668 242.985L101.313 242.262C99.4527 238.46 97.5869 234.652 94.353 229.518C92.648 226.81 90.5165 223.67 88.1071 220.255C85.6481 216.769 83.006 213.145 80.2892 209.482C77.5055 205.728 74.6044 201.879 71.5288 198.081C68.4464 194.272 65.1584 190.474 61.5856 186.803C58.1356 183.259 54.3646 179.784 50.8919 176.584C47.2007 173.183 43.8428 170.09 41.4617 167.448C39.0742 164.8 37.673 162.602 36.9194 160.589C36.1389 158.501 36.0597 156.637 36.3231 154.705C36.5745 152.859 37.1394 150.967 37.8926 149.046C38.6305 147.162 39.5435 145.25 40.5106 143.326C41.4754 141.407 42.4938 139.471 43.7432 137.408C44.995 135.34 46.475 133.147 48.3592 130.716C50.2495 128.278 52.5431 125.607 55.2132 123.103C57.9044 120.577 60.9966 118.203 64.474 116.369C67.9343 114.547 71.7511 113.281 75.422 112.373C79.0792 111.468 82.5608 110.922 85.3977 110.532C88.2805 110.137 90.5235 109.899 92.4269 109.969C94.4629 110.044 96.1027 110.466 97.6519 111.399C100.077 112.862 102.07 115.466 105.276 119.659C106.114 120.755 107.033 121.956 107.5 122.556C109.663 125.34 112.492 128.864 115.652 132.756C118.979 136.853 122.235 140.822 125.486 144.784L125.483 144.78Z" fill="#FF6624"/>
<path d="M118.512 148.984C118.478 148.751 118.64 148.534 118.874 148.502C119.107 148.468 119.325 148.63 119.357 148.864C119.68 151.089 120.004 153.314 120.364 155.29C120.725 157.274 121.126 159.043 121.606 160.378C122.07 161.67 122.607 162.549 123.3 163.183C123.993 163.817 124.86 164.224 125.983 164.57C126.997 164.882 128.212 165.142 129.402 165.344C130.948 165.608 132.448 165.775 133.431 165.838C134.262 165.89 134.692 165.87 134.919 165.81C135.005 165.788 135.022 165.758 135.038 165.728C135.152 165.521 135.411 165.446 135.619 165.56C135.826 165.674 135.902 165.933 135.788 166.14C135.683 166.33 135.578 166.522 135.133 166.635C134.829 166.713 134.312 166.745 133.376 166.686C132.367 166.622 130.832 166.45 129.261 166.184C128.035 165.975 126.783 165.708 125.733 165.385C124.494 165.004 123.523 164.543 122.725 163.812C121.926 163.081 121.317 162.094 120.803 160.663C120.305 159.276 119.893 157.464 119.524 155.441C119.155 153.409 118.833 151.197 118.512 148.984Z" fill="#FF6624"/>
<path fill-rule="evenodd" clip-rule="evenodd" d="M45.2891 164.491C46.7363 161.903 47.1741 159.734 48.8934 156.783C50.6189 153.823 53.4517 151.121 56.3374 148.988C59.1876 146.835 61.7849 145.112 63.5343 143.774C65.2495 142.462 66.3042 141.637 66.3641 141.531C66.4216 141.43 65.4759 142.04 63.9308 143.08C62.358 144.141 60.0259 145.546 57.4807 147.198C54.8003 148.779 51.9444 150.552 49.8782 152.718C47.8861 154.807 46.7333 157.297 45.9215 159.237C44.3784 163.17 43.8884 164.959 43.6098 166.135C43.2544 167.272 43.8419 167.078 45.2891 164.491Z" fill="#FF6624"/>
<path fill-rule="evenodd" clip-rule="evenodd" d="M58.0476 175.993C59.6247 172.59 62.8081 165.214 67.1536 160.43C71.5013 155.645 77.0111 153.453 77.2626 153.113C77.5135 152.774 72.5053 154.29 68.5794 158.022C64.6536 161.754 61.8085 167.701 59.9806 171.442C58.1526 175.183 57.3396 176.719 56.92 177.771C56.4996 178.824 56.4712 179.394 58.0484 175.991L58.0476 175.993Z" fill="#FF6624"/>
<path fill-rule="evenodd" clip-rule="evenodd" d="M122.767 200.637C125.831 198.052 132.19 192.422 139.034 189.011C145.878 185.599 153.207 184.407 153.624 184.159C154.041 183.912 147.546 184.61 141.57 187.214C135.593 189.818 130.134 194.328 126.653 197.16C123.172 199.992 121.67 201.148 120.803 201.955C119.935 202.762 119.704 203.22 122.767 200.634L122.767 200.637Z" fill="#FF6624"/>
<path d="M69.6873 171.467C69.6497 171.391 69.6065 171.324 69.5579 171.268C69.4213 171.106 69.2395 171.006 69.0325 170.979L69.0275 170.978C68.8254 170.952 68.5976 170.993 68.3611 171.11C68.2362 171.173 68.1104 171.257 67.986 171.362C67.6406 171.654 67.2987 172.117 67.0966 172.566C66.9303 172.932 66.8627 173.293 66.9813 173.529C67.0009 173.567 67.0242 173.602 67.0484 173.632C67.2107 173.824 67.5139 173.916 67.8611 173.916C68.2098 173.918 68.6019 173.827 68.9435 173.657C69.0861 173.586 69.2147 173.503 69.3233 173.413C69.5661 173.207 69.7148 172.924 69.7838 172.637C69.8819 172.216 69.8414 171.778 69.6872 171.47L69.6873 171.467ZM69.9383 170.671C69.9966 170.74 70.0473 170.815 70.089 170.901C70.2782 171.28 70.3234 171.84 70.1909 172.401C70.0559 172.973 69.7595 173.535 69.2783 173.943C69.124 174.072 68.9545 174.182 68.7785 174.269C68.3972 174.459 67.964 174.56 67.582 174.559C67.1977 174.558 66.8581 174.452 66.6688 174.228C66.6327 174.186 66.6026 174.14 66.5783 174.093C66.3931 173.724 66.5068 173.14 66.7793 172.541C67.0716 171.895 67.5544 171.235 68.0326 170.83C68.1997 170.687 68.3671 170.578 68.5282 170.497C68.8122 170.354 69.0852 170.305 69.3269 170.336L69.3319 170.337C69.5714 170.369 69.7802 170.484 69.9369 170.67L69.9383 170.671Z" fill="#FF6624"/>
<path d="M60.7001 138.732C60.6745 138.681 60.6464 138.638 60.6152 138.6C60.5244 138.493 60.4037 138.427 60.2659 138.408C60.1317 138.39 59.9785 138.416 59.8217 138.496C59.7396 138.538 59.6555 138.593 59.5724 138.664C59.3438 138.857 59.1166 139.166 58.982 139.461C58.8726 139.704 58.8279 139.943 58.906 140.101C58.9195 140.127 58.9345 140.15 58.9497 140.169C59.0586 140.297 59.2586 140.357 59.4877 140.358C59.7205 140.358 59.9794 140.298 60.2056 140.186C60.2995 140.14 60.3849 140.085 60.4576 140.024C60.6195 139.887 60.7173 139.699 60.7631 139.508C60.8296 139.229 60.8009 138.939 60.6985 138.735L60.7001 138.732ZM60.8669 138.203C60.9064 138.249 60.9393 138.3 60.9676 138.356C61.0928 138.606 61.122 138.98 61.0345 139.351C60.946 139.731 60.7482 140.104 60.4289 140.375C60.3285 140.46 60.2148 140.532 60.0972 140.591C59.8452 140.717 59.5569 140.784 59.3039 140.783C59.0495 140.781 58.8244 140.713 58.6989 140.565C58.6753 140.537 58.6547 140.507 58.6393 140.475C58.5167 140.23 58.5918 139.841 58.7731 139.444C58.9679 139.016 59.2863 138.578 59.6041 138.31C59.715 138.216 59.8258 138.142 59.933 138.088C60.1237 137.994 60.3062 137.961 60.4664 137.983C60.6243 138.005 60.7628 138.08 60.8669 138.203Z" fill="#FF6624"/>
<path d="M102.011 218.183C101.985 218.132 101.957 218.089 101.926 218.052C101.835 217.944 101.714 217.878 101.576 217.859C101.442 217.841 101.289 217.868 101.132 217.947C101.05 217.989 100.966 218.044 100.883 218.115C100.654 218.309 100.427 218.617 100.293 218.913C100.183 219.155 100.138 219.395 100.217 219.552C100.23 219.578 100.245 219.601 100.26 219.62C100.369 219.749 100.569 219.809 100.798 219.809C101.031 219.81 101.29 219.749 101.516 219.637C101.61 219.591 101.695 219.537 101.768 219.475C101.93 219.339 102.028 219.151 102.074 218.96C102.14 218.681 102.111 218.39 102.009 218.186L102.011 218.183ZM102.177 217.655C102.217 217.7 102.25 217.752 102.278 217.808C102.403 218.058 102.433 218.432 102.345 218.803C102.257 219.182 102.059 219.555 101.739 219.827C101.639 219.912 101.525 219.984 101.408 220.043C101.156 220.168 100.867 220.235 100.614 220.234C100.36 220.233 100.135 220.164 100.009 220.016C99.9859 219.988 99.9653 219.958 99.9498 219.926C99.8273 219.681 99.9024 219.293 100.084 218.896C100.278 218.467 100.597 218.03 100.915 217.761C101.026 217.667 101.136 217.593 101.244 217.54C101.434 217.445 101.617 217.413 101.777 217.434C101.935 217.457 102.073 217.531 102.177 217.655Z" fill="#FF6624"/>
<path d="M87.3391 165.353C87.3195 165.315 87.299 165.281 87.2754 165.254C87.2067 165.173 87.1159 165.123 87.0127 165.109C86.911 165.096 86.7964 165.116 86.6789 165.175L86.6737 165.177C86.6137 165.209 86.5513 165.249 86.4913 165.301C86.319 165.446 86.1491 165.677 86.0485 165.901C85.966 166.084 85.9323 166.263 85.9916 166.381C86.001 166.401 86.0134 166.419 86.0244 166.432C86.1049 166.528 86.2561 166.572 86.4294 166.574C86.6034 166.573 86.8002 166.528 86.9687 166.444C87.0397 166.409 87.1029 166.368 87.1576 166.322C87.279 166.219 87.3525 166.079 87.387 165.935C87.4357 165.726 87.4151 165.508 87.3391 165.353ZM87.4645 164.957C87.4936 164.991 87.5204 165.03 87.5398 165.072C87.6341 165.261 87.656 165.54 87.5894 165.82C87.522 166.104 87.3741 166.386 87.135 166.589C87.0593 166.652 86.9739 166.707 86.8866 166.751C86.6959 166.846 86.4815 166.896 86.2908 166.896C86.0987 166.896 85.9304 166.842 85.8361 166.731C85.818 166.71 85.8029 166.687 85.7915 166.664C85.6999 166.481 85.7554 166.188 85.8915 165.89C86.0373 165.568 86.2776 165.238 86.5159 165.037C86.5961 164.969 86.678 164.914 86.7571 164.874L86.763 164.87C86.9057 164.799 87.043 164.775 87.1634 164.791C87.2824 164.807 87.3861 164.864 87.4645 164.957Z" fill="#FF6624"/>
<path d="M150.798 195.424C150.778 195.385 150.758 195.352 150.734 195.324C150.666 195.244 150.575 195.194 150.472 195.179C150.37 195.166 150.255 195.186 150.138 195.245L150.133 195.248C150.073 195.279 150.01 195.319 149.95 195.371C149.778 195.516 149.608 195.748 149.507 195.971C149.425 196.155 149.391 196.334 149.451 196.451C149.46 196.471 149.472 196.489 149.483 196.502C149.564 196.598 149.715 196.643 149.888 196.644C150.062 196.644 150.259 196.599 150.428 196.514C150.499 196.479 150.562 196.438 150.617 196.393C150.738 196.29 150.812 196.149 150.846 196.006C150.895 195.796 150.874 195.578 150.798 195.424ZM150.923 195.027C150.953 195.062 150.979 195.101 150.999 195.143C151.093 195.331 151.115 195.611 151.048 195.89C150.981 196.174 150.833 196.456 150.594 196.659C150.518 196.723 150.433 196.777 150.346 196.821C150.155 196.916 149.941 196.966 149.75 196.966C149.558 196.966 149.389 196.912 149.295 196.801C149.277 196.78 149.262 196.757 149.25 196.734C149.159 196.551 149.214 196.258 149.351 195.96C149.496 195.638 149.737 195.309 149.975 195.107C150.055 195.039 150.137 194.984 150.216 194.945L150.222 194.941C150.365 194.87 150.502 194.845 150.622 194.862C150.741 194.877 150.845 194.934 150.923 195.027Z" fill="#FF6624"/>
<path d="M129.85 174.764C129.83 174.726 129.81 174.692 129.786 174.664C129.717 174.584 129.627 174.534 129.523 174.52C129.422 174.506 129.307 174.527 129.19 174.586L129.184 174.588C129.124 174.62 129.062 174.659 129.002 174.711C128.83 174.857 128.66 175.088 128.559 175.311C128.477 175.495 128.443 175.674 128.502 175.792C128.512 175.811 128.524 175.829 128.535 175.843C128.616 175.939 128.767 175.983 128.94 175.984C129.114 175.984 129.311 175.939 129.479 175.854C129.55 175.82 129.614 175.779 129.668 175.733C129.79 175.63 129.863 175.49 129.898 175.346C129.946 175.137 129.926 174.918 129.85 174.764ZM129.975 174.368C130.004 174.402 130.031 174.441 130.051 174.483C130.145 174.671 130.167 174.951 130.1 175.23C130.033 175.514 129.885 175.797 129.646 175.999C129.57 176.063 129.485 176.118 129.397 176.162C129.207 176.256 128.992 176.306 128.802 176.307C128.609 176.306 128.441 176.253 128.347 176.142C128.329 176.121 128.314 176.098 128.302 176.075C128.211 175.891 128.266 175.599 128.402 175.301C128.548 174.979 128.788 174.649 129.027 174.448C129.107 174.379 129.189 174.325 129.268 174.285L129.274 174.281C129.416 174.21 129.554 174.186 129.674 174.202C129.793 174.218 129.897 174.275 129.975 174.368Z" fill="#FF6624"/>
<path d="M89.3336 128.513L89.3156 128.472C89.2616 128.369 89.1598 128.301 89.0251 128.277L89.0237 128.277C88.8941 128.253 88.7324 128.271 88.5573 128.338L88.5507 128.339C88.5014 128.358 88.4476 128.382 88.395 128.411C88.1715 128.528 87.9329 128.72 87.7726 128.91C87.6404 129.066 87.5655 129.223 87.6064 129.33L87.6143 129.349C87.6731 129.461 87.8514 129.52 88.0714 129.531C88.2928 129.542 88.556 129.504 88.7805 129.418C88.8312 129.4 88.8799 129.379 88.925 129.354C89.0812 129.272 89.1945 129.153 89.2623 129.03C89.3621 128.848 89.3863 128.653 89.3322 128.513L89.3336 128.513ZM89.5968 128.23L89.6175 128.276C89.682 128.448 89.647 128.697 89.5145 128.938C89.3781 129.186 89.1529 129.424 88.8406 129.588C88.7785 129.62 88.7121 129.65 88.6422 129.676C88.3854 129.773 88.0916 129.817 87.8484 129.805C87.6031 129.794 87.4027 129.724 87.3352 129.595L87.3231 129.57C87.2599 129.402 87.385 129.148 87.6007 128.893C87.8331 128.619 88.1721 128.342 88.4829 128.18C88.5532 128.143 88.624 128.112 88.6917 128.087L88.699 128.083C88.9139 128.002 89.1076 127.979 89.2624 128.007L89.266 128.007C89.4194 128.034 89.5353 128.113 89.5982 128.231L89.5968 128.23Z" fill="#FF6624"/>
<path d="M157.898 225.849C157.837 225.725 157.764 225.615 157.686 225.522C157.46 225.256 157.163 225.094 156.822 225.047L156.814 225.046C156.483 225.002 156.108 225.071 155.723 225.264C155.519 225.366 155.311 225.502 155.106 225.676C154.539 226.154 153.978 226.916 153.645 227.649C153.374 228.251 153.262 228.843 153.456 229.23C153.488 229.294 153.526 229.35 153.567 229.4C153.835 229.716 154.33 229.864 154.901 229.866C155.475 229.868 156.117 229.719 156.678 229.44C156.909 229.326 157.122 229.19 157.3 229.038C157.699 228.7 157.944 228.237 158.056 227.765C158.219 227.075 158.151 226.357 157.896 225.849L157.898 225.849ZM158.31 224.541C158.405 224.654 158.489 224.78 158.559 224.92C158.868 225.541 158.941 226.461 158.724 227.381C158.502 228.319 158.016 229.242 157.225 229.911C156.976 230.123 156.696 230.301 156.406 230.446C155.781 230.758 155.07 230.924 154.441 230.922C153.809 230.92 153.253 230.747 152.942 230.38C152.884 230.311 152.834 230.238 152.796 230.159C152.491 229.553 152.678 228.594 153.125 227.61C153.604 226.55 154.395 225.468 155.181 224.803C155.457 224.571 155.73 224.389 155.995 224.258C156.461 224.025 156.908 223.942 157.305 223.994L157.314 223.995C157.706 224.049 158.048 224.237 158.308 224.542L158.31 224.541Z" fill="#FF6624"/>
<path d="M138.391 251.753C138.237 251.767 138.084 251.765 137.938 251.745C137.541 251.69 137.199 251.501 136.944 251.199L136.938 251.192C136.682 250.885 136.512 250.463 136.459 249.944C136.428 249.651 136.435 249.322 136.484 248.965C136.624 247.946 137.115 246.698 137.753 245.725C138.347 244.82 139.055 244.15 139.729 244.082C139.816 244.072 139.905 244.075 139.995 244.087C140.471 244.153 140.914 244.53 141.254 245.062C141.592 245.592 141.833 246.281 141.905 246.977C141.938 247.299 141.936 247.63 141.892 247.955C141.751 248.982 141.231 249.887 140.558 250.576C139.899 251.251 139.082 251.684 138.392 251.755L138.391 251.753ZM138.434 250.692C138.554 250.709 138.686 250.711 138.824 250.696C139.388 250.639 140.03 250.312 140.527 249.806C140.866 249.458 141.127 249.004 141.198 248.485C141.23 248.252 141.229 248 141.204 247.744C141.139 247.122 140.92 246.498 140.612 246.016C140.304 245.535 139.914 245.196 139.503 245.139C139.44 245.13 139.372 245.129 139.301 245.136C138.87 245.18 138.429 245.591 138.067 246.143C137.626 246.817 137.283 247.699 137.183 248.434C137.146 248.699 137.142 248.948 137.165 249.175C137.209 249.604 137.351 249.957 137.565 250.213L137.571 250.22C137.793 250.482 138.089 250.647 138.434 250.695L138.434 250.692Z" fill="#FF6624"/>
<path d="M127.251 246.027C126.593 245.912 125.962 245.597 125.475 245.152C125.001 244.72 124.662 244.159 124.564 243.534C124.519 243.249 124.524 242.951 124.575 242.663C124.652 242.224 124.834 241.802 125.103 241.47C125.383 241.127 125.751 240.881 126.186 240.813C126.354 240.787 126.531 240.787 126.716 240.821C127.356 240.932 128.099 241.441 128.706 242.068C129.34 242.722 129.841 243.523 129.943 244.162C129.973 244.347 129.97 244.523 129.941 244.686C129.871 245.087 129.651 245.407 129.334 245.639C129.054 245.846 128.698 245.981 128.314 246.041C127.976 246.094 127.61 246.09 127.251 246.027ZM125.897 244.614C126.319 245 126.866 245.273 127.435 245.373C127.736 245.427 128.044 245.429 128.327 245.386C128.616 245.341 128.873 245.247 129.063 245.106C129.217 244.991 129.324 244.843 129.356 244.665C129.371 244.579 129.371 244.483 129.354 244.376C129.272 243.856 128.828 243.169 128.263 242.585C127.716 242.02 127.066 241.567 126.529 241.473C126.401 241.451 126.282 241.449 126.169 241.467C125.904 241.508 125.681 241.657 125.513 241.863C125.334 242.084 125.21 242.372 125.157 242.681C125.121 242.891 125.116 243.109 125.149 243.317C125.226 243.804 125.504 244.252 125.896 244.61L125.897 244.614Z" fill="#FF6624"/>
<path d="M137.18 258.067C136.637 258.139 136.028 258.094 135.475 257.945C134.93 257.799 134.434 257.55 134.093 257.213C133.818 256.942 133.647 256.613 133.604 256.303C133.582 256.157 133.59 256.011 133.629 255.878C133.669 255.741 133.74 255.614 133.845 255.507C134.007 255.345 134.245 255.227 134.568 255.181L134.586 255.18C135.118 255.111 135.889 255.241 136.612 255.467C137.372 255.706 138.094 256.059 138.442 256.404C138.566 256.525 138.648 256.649 138.692 256.77L138.696 256.779C138.766 256.975 138.743 257.159 138.649 257.326C138.563 257.48 138.413 257.617 138.221 257.731C137.949 257.892 137.588 258.008 137.195 258.064L137.177 258.065L137.18 258.067ZM135.567 257.545C136.046 257.674 136.574 257.713 137.044 257.651L137.059 257.648C137.39 257.601 137.69 257.506 137.911 257.376C138.046 257.297 138.15 257.205 138.204 257.107C138.249 257.028 138.26 256.944 138.231 256.859L138.227 256.852C138.203 256.791 138.16 256.726 138.092 256.658C137.808 256.376 137.177 256.077 136.498 255.862C135.85 255.659 135.17 255.54 134.72 255.597L134.707 255.599C134.491 255.628 134.337 255.702 134.238 255.803C134.175 255.866 134.131 255.943 134.107 256.026C134.082 256.112 134.078 256.208 134.092 256.306C134.124 256.528 134.247 256.764 134.446 256.96C134.712 257.223 135.117 257.423 135.567 257.543L135.567 257.545Z" fill="#FF6624"/>
<path fill-rule="evenodd" clip-rule="evenodd" d="M117.681 236.939C118.953 239.621 119.245 241.815 120.767 244.88C122.292 247.952 124.938 250.845 127.675 253.174C130.376 255.52 132.852 257.418 134.508 258.876C136.133 260.304 137.13 261.202 137.183 261.31C137.234 261.416 136.331 260.742 134.859 259.597C133.361 258.429 131.126 256.866 128.697 255.041C126.127 253.277 123.395 251.31 121.478 249.005C119.628 246.782 118.644 244.218 117.962 242.226C116.684 238.195 116.314 236.378 116.114 235.184C115.835 234.024 116.409 234.259 117.68 236.941L117.681 236.939Z" fill="#FF6624"/>
<path fill-rule="evenodd" clip-rule="evenodd" d="M93.426 192.779C96.5204 189.476 102.909 182.322 110.135 177.594C117.361 172.865 125.421 170.562 125.858 170.229C126.292 169.896 119.101 171.537 112.742 175.245C106.382 178.953 100.855 184.732 97.3257 188.368C93.7965 192.004 92.2643 193.499 91.3987 194.518C90.533 195.537 90.3329 196.082 93.426 192.779Z" fill="#FF6624"/>
<path fill-rule="evenodd" clip-rule="evenodd" d="M74.9553 130.797C77.8215 128.376 83.8228 123.033 89.7847 120.526C95.748 118.02 101.674 118.353 102.046 118.151C102.417 117.951 97.232 117.215 92.0953 118.945C86.9571 120.673 81.868 124.866 78.6294 127.486C75.3922 130.106 74.0069 131.156 73.1817 131.933C72.3564 132.711 72.0898 133.216 74.9561 130.795L74.9553 130.797Z" fill="#FF6624"/>
<path d="M140.984 252.987C140.777 253.504 140.569 254.021 140.391 254.501C140.212 254.986 140.06 255.443 139.959 255.842C139.876 256.171 139.829 256.463 139.821 256.689C139.816 256.819 139.824 256.923 139.846 256.991C139.847 256.995 139.845 256.998 139.843 256.998C139.892 256.981 139.982 256.931 140.084 256.873C140.402 256.695 140.814 256.464 141.308 256.582C141.674 256.669 142.052 256.954 142.393 257.286C142.717 257.602 143.01 257.963 143.218 258.227L143.515 258.608C143.702 258.851 143.826 259.012 144.108 259.323C144.307 259.544 144.586 259.843 144.875 260.07C145.132 260.273 145.391 260.417 145.581 260.379C145.787 260.339 145.995 260.046 146.22 259.728C146.433 259.426 146.661 259.103 146.966 258.883C147.547 258.461 148.314 258.472 148.941 258.481L149.245 258.484C149.544 258.482 149.776 258.457 149.961 258.411C150.132 258.368 150.263 258.309 150.366 258.235C150.435 258.184 150.489 258.129 150.482 258.045C150.468 257.896 150.348 257.663 150.041 257.286C149.784 256.97 149.41 256.574 149.016 256.156C148.36 255.459 147.645 254.7 147.289 254.131C146.836 253.408 146.938 252.983 147.016 252.663C147.037 252.577 147.056 252.499 147.05 252.45C147.043 252.375 146.983 252.293 146.903 252.216C146.759 252.075 146.561 251.959 146.427 251.895C146.331 251.847 146.283 251.83 146.261 251.829C146.252 251.828 146.255 251.828 146.261 251.826L146.264 251.766L146.045 251.448C146.102 251.409 146.158 251.37 146.287 251.378C146.366 251.383 146.471 251.411 146.628 251.488C146.792 251.569 147.039 251.713 147.223 251.893C147.37 252.036 147.482 252.209 147.504 252.402C147.518 252.533 147.491 252.646 147.46 252.774C147.402 253.014 147.324 253.333 147.674 253.891C148.007 254.423 148.706 255.164 149.347 255.845C149.752 256.274 150.137 256.682 150.394 257C150.767 257.456 150.915 257.772 150.936 258.006C150.964 258.305 150.819 258.471 150.633 258.603C150.484 258.711 150.303 258.794 150.071 258.853C149.852 258.908 149.585 258.937 149.25 258.939L148.937 258.937C148.376 258.927 147.692 258.917 147.234 259.248C146.991 259.425 146.785 259.716 146.592 259.988C146.312 260.384 146.054 260.748 145.67 260.825C145.326 260.892 144.946 260.702 144.596 260.426C144.279 260.178 143.981 259.859 143.77 259.625C143.476 259.299 143.349 259.133 143.157 258.883L142.865 258.507C142.665 258.255 142.385 257.909 142.078 257.609C141.788 257.326 141.478 257.087 141.206 257.022C140.884 256.945 140.56 257.128 140.311 257.268C140.12 257.376 139.96 257.465 139.799 257.459C139.768 257.458 139.741 257.454 139.716 257.448C139.568 257.408 139.467 257.296 139.415 257.125C139.378 257.007 139.364 256.851 139.371 256.67C139.381 256.412 139.434 256.088 139.524 255.73C139.63 255.308 139.787 254.837 139.968 254.343C140.154 253.844 140.359 253.33 140.566 252.816L140.988 252.985L140.984 252.987ZM146.261 251.827L146.302 251.822L146.265 251.769L146.262 251.828L146.261 251.827Z" fill="#FF6624"/>
<path d="M130.393 231.962C130.267 230.584 130.139 229.205 129.901 228.383C129.795 228.018 129.668 227.775 129.435 227.634C129.179 227.48 128.777 227.418 128.128 227.42C127.365 227.422 126.282 227.518 125.162 227.745C124.288 227.922 123.393 228.181 122.616 228.538C121.784 228.92 121.082 229.417 120.503 229.981C119.861 230.608 119.367 231.32 119.011 232.052C118.66 232.774 118.447 233.512 118.438 234.153C118.43 234.699 118.574 235.171 118.911 235.489C119.281 235.839 119.898 236.026 120.64 236.112C121.411 236.2 122.319 236.178 123.239 236.106C124.252 236.028 125.278 235.895 126.08 235.668C126.704 235.492 127.186 235.264 127.406 234.972C127.711 234.569 127.516 233.948 127.33 233.362C127.222 233.02 127.117 232.69 127.098 232.384C127.069 231.919 127.233 231.564 127.358 231.29C127.426 231.141 127.472 231.037 127.467 231.034C127.309 230.94 126.858 230.921 126.352 230.997C125.929 231.06 125.479 231.194 125.143 231.416C124.776 231.655 124.536 232.005 124.376 232.353C124.211 232.713 124.13 233.072 124.082 233.317C124.011 233.69 124.021 233.758 124.023 233.772C124.037 233.88 124.036 234.006 124.043 234.115L123.705 234.016L123.533 233.922L123.582 233.834L123.574 233.835C123.57 233.809 123.551 233.678 123.636 233.231C123.688 232.962 123.777 232.564 123.962 232.16C124.153 231.746 124.442 231.328 124.892 231.034C125.288 230.775 125.802 230.621 126.283 230.547C126.886 230.456 127.457 230.503 127.696 230.643C128.055 230.855 127.938 231.112 127.769 231.481C127.663 231.709 127.528 232.006 127.55 232.356C127.566 232.61 127.661 232.913 127.761 233.227C127.98 233.921 128.211 234.658 127.768 235.245C127.482 235.624 126.915 235.902 126.201 236.103C125.363 236.34 124.308 236.478 123.271 236.558C122.33 236.631 121.395 236.654 120.588 236.561C119.752 236.465 119.047 236.241 118.598 235.817C118.158 235.403 117.971 234.814 117.98 234.145C117.99 233.438 118.221 232.634 118.599 231.853C118.975 231.079 119.5 230.323 120.183 229.655C120.798 229.056 121.541 228.528 122.423 228.124C123.237 227.752 124.165 227.483 125.069 227.299C126.218 227.067 127.333 226.969 128.124 226.967C128.861 226.964 129.335 227.046 129.666 227.246C130.021 227.46 130.198 227.783 130.337 228.257C130.587 229.117 130.717 230.519 130.845 231.921L130.392 231.961L130.393 231.962Z" fill="#FF6624"/>
<path d="M169.627 220.041C170.06 219.631 170.495 219.221 171.006 218.933C171.534 218.636 172.13 218.477 172.861 218.593C173.651 218.719 174.599 219.174 175.311 219.916C175.89 220.519 176.317 221.313 176.387 222.276C176.518 224.102 175.343 226.502 174.412 228.399L174.026 229.196C173.563 230.164 173.253 230.92 172.985 231.754C172.717 232.588 172.49 233.508 172.192 234.804C171.797 236.525 171.286 238.873 170.85 240.88C170.628 241.903 170.426 242.831 170.251 243.621C170.013 244.696 169.878 245.262 169.733 245.514C169.465 245.982 169.252 245.835 168.88 245.438C168.606 245.146 168.192 244.645 167.797 244.038C167.514 243.604 167.241 243.114 167.039 242.608C166.796 242 166.654 241.37 166.575 240.783C166.496 240.201 166.477 239.66 166.478 239.225C166.478 238.788 166.498 238.458 166.528 238.182C166.557 237.91 166.598 237.684 166.638 237.456L167.085 237.538C167.047 237.749 167.01 237.962 166.98 238.231C166.95 238.497 166.932 238.812 166.931 239.227C166.931 239.645 166.949 240.164 167.025 240.722C167.101 241.277 167.233 241.871 167.461 242.439C167.652 242.915 167.91 243.378 168.177 243.789C168.553 244.365 168.95 244.846 169.214 245.127C169.303 245.223 169.332 245.303 169.339 245.289C169.453 245.089 169.58 244.552 169.809 243.52L170.407 240.781C170.847 238.759 171.361 236.393 171.75 234.7C172.05 233.394 172.28 232.464 172.553 231.612C172.826 230.758 173.143 229.987 173.615 228.998L174.003 228.198C174.91 226.347 176.055 224.008 175.934 222.306C175.873 221.462 175.495 220.763 174.983 220.231C174.341 219.562 173.492 219.152 172.789 219.041C172.175 218.943 171.674 219.077 171.229 219.327C170.768 219.587 170.353 219.979 169.939 220.372L169.627 220.041Z" fill="#FF6624"/>
<path d="M140.189 223.066C139.55 222.835 138.91 222.604 138.254 222.425C137.609 222.247 136.945 222.12 136.245 222.092C135.502 222.061 134.718 222.145 134.043 222.385C133.48 222.585 132.994 222.894 132.674 223.336C132.634 223.392 132.597 223.445 132.567 223.495C132.278 223.978 132.148 224.581 132.132 225.095C132.117 225.566 132.186 225.938 132.305 226.028L132.311 226.031C132.391 226.06 132.672 225.761 132.996 225.417C133.295 225.099 133.623 224.751 133.969 224.538L134.098 224.465C134.499 224.258 134.906 224.235 135.271 224.354C135.631 224.473 135.947 224.732 136.17 225.096L136.25 225.24C136.453 225.634 136.552 226.118 136.671 226.708C136.795 227.321 136.943 228.054 137.255 228.896C137.534 229.649 137.948 230.501 138.404 231.327C138.936 232.29 139.525 233.216 140.029 233.914C140.957 235.2 141.594 235.711 142.231 236.22L142.236 236.224L142.063 236.432L141.948 236.576L141.945 236.572C141.284 236.044 140.624 235.513 139.663 234.18C139.149 233.469 138.55 232.525 138.009 231.546C137.543 230.703 137.12 229.83 136.832 229.053C136.505 228.173 136.355 227.424 136.228 226.797C136.116 226.241 136.024 225.786 135.85 225.446L135.788 225.335C135.619 225.063 135.39 224.87 135.133 224.786C134.881 224.703 134.595 224.723 134.309 224.869L134.211 224.923C133.914 225.106 133.608 225.43 133.331 225.726C132.866 226.222 132.464 226.65 132.076 226.417L132.043 226.395C131.804 226.221 131.661 225.696 131.679 225.078C131.696 224.501 131.847 223.817 132.18 223.262C132.222 223.191 132.265 223.126 132.307 223.068C132.685 222.545 133.248 222.184 133.893 221.956C134.626 221.696 135.47 221.604 136.266 221.636C137 221.665 137.697 221.799 138.377 221.985C139.047 222.169 139.697 222.402 140.347 222.638L140.192 223.064L140.189 223.066Z" fill="#FF6624"/>
<path d="M149.74 236.892C149.863 236.444 149.986 235.995 150.146 235.625C150.324 235.219 150.549 234.907 150.871 234.789C151.189 234.672 151.574 234.758 151.916 234.963C152.253 235.165 152.559 235.49 152.715 235.848C152.875 236.21 152.886 236.604 152.757 236.989C152.634 237.355 152.381 237.714 152.01 238.029C151.539 238.427 150.875 238.754 150.226 239.073C149.907 239.23 149.589 239.386 149.303 239.548C148.889 239.782 148.543 240.027 148.273 240.281C148.016 240.522 147.829 240.768 147.72 241.016C147.54 241.425 147.563 241.868 147.584 242.269L147.597 242.545C147.61 243.06 147.545 243.481 147.48 243.901L147.03 243.834L147.031 243.831C147.092 243.431 147.155 243.03 147.142 242.555L147.131 242.289C147.107 241.835 147.081 241.335 147.304 240.832C147.437 240.528 147.66 240.232 147.961 239.949C148.256 239.672 148.632 239.406 149.078 239.153C149.37 238.988 149.695 238.827 150.024 238.667C150.645 238.362 151.281 238.049 151.713 237.683C152.021 237.423 152.228 237.134 152.326 236.844C152.42 236.566 152.414 236.287 152.302 236.032C152.182 235.759 151.945 235.51 151.684 235.352C151.453 235.214 151.21 235.149 151.031 235.215C150.843 235.283 150.694 235.508 150.564 235.809C150.416 236.148 150.298 236.582 150.179 237.015L149.742 236.895L149.74 236.892Z" fill="#FF6624"/>
<path d="M146.59 257.279L144.639 256.206C143.99 255.849 143.463 255.559 143.519 254.927C143.543 254.643 143.706 254.31 143.937 253.957C144.152 253.627 144.434 253.265 144.716 252.905L145.075 253.183C144.803 253.532 144.53 253.882 144.321 254.205C144.127 254.504 143.992 254.77 143.972 254.97C143.943 255.306 144.353 255.532 144.859 255.81L146.81 256.883L146.591 257.281L146.59 257.279Z" fill="#FF6624"/>
<path d="M164.82 221.286L164.822 221.29C165.375 222.397 165.928 223.506 164.965 223.999C164.532 224.221 163.756 224.267 163.018 224.167C162.31 224.072 161.618 223.839 161.275 223.495C160.876 223.097 160.912 222.592 161.156 222.06C161.372 221.59 161.758 221.097 162.132 220.645C162.497 220.203 162.854 219.8 163.181 219.441C163.506 219.086 163.807 218.77 164.067 218.503C164.335 218.227 164.558 218.003 164.769 217.857C165.026 217.68 165.265 217.612 165.524 217.696C165.82 217.793 166.081 218.085 166.403 218.445C166.56 218.62 166.732 218.812 166.919 218.997C167.194 219.266 167.52 219.534 167.87 219.802C168.226 220.074 168.604 220.342 168.98 220.61L168.717 220.981C168.334 220.709 167.95 220.435 167.594 220.164C167.233 219.888 166.893 219.608 166.601 219.32C166.397 219.121 166.222 218.925 166.063 218.747C165.787 218.439 165.561 218.187 165.383 218.128C165.28 218.095 165.164 218.135 165.027 218.229C164.845 218.355 164.638 218.564 164.391 218.818C164.137 219.078 163.841 219.388 163.514 219.746C163.193 220.099 162.841 220.496 162.481 220.933C162.127 221.361 161.763 221.825 161.568 222.249C161.402 222.612 161.364 222.942 161.595 223.172C161.864 223.442 162.457 223.632 163.078 223.717C163.734 223.806 164.407 223.774 164.757 223.593C165.321 223.305 164.87 222.4 164.419 221.495L164.417 221.492L164.82 221.286Z" fill="#FF6624"/>
<path fill-rule="evenodd" clip-rule="evenodd" d="M76.0287 117.89C86.8387 113.523 97.4933 114.167 98.1681 113.815C98.8421 113.463 89.5333 112.118 80.2338 115.121C46.0471 126.16 48.1265 146.726 40.1633 161.681C39.517 162.896 40.4407 132.265 76.0273 117.89L76.0287 117.89Z" fill="#FF6624"/>
<path fill-rule="evenodd" clip-rule="evenodd" d="M149.629 207.256C161.729 203.599 173.036 204.601 173.802 204.299C174.565 203.997 164.785 202.392 154.47 204.836C116.548 213.822 116.198 233.052 105.816 246.676C104.972 247.783 109.793 219.295 149.629 207.256Z" fill="#FF6624"/>
<path d="M115.226 258.816C115.787 259.026 116.349 259.235 117.027 259.458C117.712 259.683 118.533 259.93 119.621 260.218C120.847 260.541 122.403 260.916 123.803 261.185C124.887 261.394 125.877 261.541 126.543 261.555C127.165 261.568 127.449 261.479 127.455 261.275C127.465 260.982 127.148 260.475 126.58 259.749C125.709 258.641 124.269 257.07 122.774 255.439C122.239 254.857 121.696 254.265 121.094 253.598C120.079 252.476 119.128 251.396 118.343 250.392C117.547 249.373 116.91 248.421 116.528 247.561C116.14 246.687 116.014 245.91 116.021 245.185C116.027 244.467 116.162 243.806 116.296 243.143L116.741 243.236C116.611 243.873 116.481 244.513 116.475 245.189C116.47 245.858 116.586 246.572 116.943 247.379C117.309 248.201 117.926 249.123 118.7 250.114C119.486 251.119 120.426 252.188 121.429 253.297C121.927 253.845 122.52 254.495 123.109 255.136C124.612 256.773 126.056 258.35 126.938 259.472C127.571 260.28 127.923 260.875 127.91 261.293C127.895 261.8 127.466 262.029 126.533 262.009C125.839 261.994 124.823 261.844 123.717 261.631C122.3 261.357 120.732 260.982 119.506 260.659C118.416 260.371 117.586 260.121 116.886 259.89C116.182 259.658 115.624 259.451 115.066 259.244L115.225 258.818L115.226 258.816Z" fill="#FF6624"/>
<path fill-rule="evenodd" clip-rule="evenodd" d="M124.269 155.83C123.652 155.695 122.541 155.553 122.217 155.597C121.892 155.639 122.353 155.867 122.972 156.058C123.589 156.247 124.361 156.399 124.749 156.42C125.137 156.442 125.139 156.33 125.077 156.211C125.015 156.092 124.888 155.967 124.27 155.832L124.269 155.83Z" fill="#FF6624"/>
<path fill-rule="evenodd" clip-rule="evenodd" d="M125.359 153.823C124.742 153.688 123.631 153.546 123.307 153.59C122.982 153.632 123.443 153.86 124.061 154.051C124.678 154.24 125.451 154.392 125.839 154.413C126.227 154.435 126.229 154.323 126.167 154.204C126.105 154.085 125.978 153.96 125.36 153.825L125.359 153.823Z" fill="#FF6624"/>
<path fill-rule="evenodd" clip-rule="evenodd" d="M127.712 148.809C127.094 148.674 125.983 148.532 125.66 148.575C125.334 148.618 125.796 148.846 126.414 149.036C127.031 149.226 127.804 149.378 128.192 149.399C128.579 149.42 128.582 149.309 128.519 149.19C128.457 149.071 128.33 148.946 127.713 148.811L127.712 148.809Z" fill="#FF6624"/>
<path fill-rule="evenodd" clip-rule="evenodd" d="M129.866 144.169C129.249 144.034 128.137 143.892 127.814 143.936C127.489 143.978 127.95 144.206 128.568 144.397C129.185 144.586 129.958 144.738 130.346 144.759C130.734 144.781 130.737 144.668 130.674 144.55C130.612 144.431 130.484 144.306 129.867 144.171L129.866 144.169Z" fill="#FF6624"/>
<path fill-rule="evenodd" clip-rule="evenodd" d="M131.774 139.629C131.157 139.494 130.046 139.352 129.722 139.395C129.397 139.438 129.858 139.666 130.476 139.856C131.093 140.046 131.866 140.198 132.254 140.219C132.642 140.24 132.644 140.129 132.582 140.01C132.52 139.891 132.393 139.766 131.775 139.631L131.774 139.629Z" fill="#FF6624"/>
<path fill-rule="evenodd" clip-rule="evenodd" d="M133.535 135.621C132.917 135.486 131.806 135.344 131.483 135.388C131.158 135.431 131.619 135.658 132.237 135.849C132.854 136.039 133.627 136.191 134.015 136.212C134.403 136.233 134.405 136.122 134.343 136.003C134.281 135.883 134.153 135.758 133.536 135.623L133.535 135.621Z" fill="#FF6624"/>
<path fill-rule="evenodd" clip-rule="evenodd" d="M135.606 131.248C134.989 131.114 133.878 130.971 133.554 131.015C133.229 131.058 133.69 131.286 134.309 131.476C134.926 131.666 135.698 131.818 136.086 131.839C136.474 131.86 136.476 131.749 136.414 131.63C136.352 131.511 136.225 131.385 135.607 131.251L135.606 131.248Z" fill="#FF6624"/>
<path fill-rule="evenodd" clip-rule="evenodd" d="M137.446 127.095C136.829 126.96 135.717 126.818 135.394 126.862C135.069 126.904 135.53 127.132 136.148 127.323C136.765 127.512 137.538 127.664 137.926 127.685C138.314 127.707 138.316 127.595 138.254 127.476C138.192 127.357 138.065 127.232 137.447 127.097L137.446 127.095Z" fill="#FF6624"/>
<path fill-rule="evenodd" clip-rule="evenodd" d="M139.414 124.103C138.796 123.968 137.685 123.826 137.362 123.869C137.037 123.912 137.498 124.14 138.116 124.33C138.733 124.52 139.506 124.672 139.894 124.693C140.28 124.714 140.284 124.603 140.222 124.484C140.159 124.365 140.032 124.24 139.415 124.105L139.414 124.103Z" fill="#FF6624"/>
<path fill-rule="evenodd" clip-rule="evenodd" d="M141.111 119.775C140.494 119.64 139.383 119.498 139.059 119.541C138.734 119.584 139.195 119.812 139.813 120.003C140.43 120.192 141.203 120.344 141.591 120.365C141.979 120.387 141.981 120.275 141.919 120.156C141.857 120.037 141.73 119.912 141.112 119.777L141.111 119.775Z" fill="#FF6624"/>
<path fill-rule="evenodd" clip-rule="evenodd" d="M142.202 117.768C141.584 117.633 140.473 117.491 140.15 117.535C139.825 117.577 140.286 117.805 140.904 117.996C141.521 118.185 142.294 118.337 142.682 118.359C143.07 118.38 143.072 118.268 143.01 118.149C142.948 118.03 142.82 117.905 142.203 117.77L142.202 117.768Z" fill="#FF6624"/>
<path fill-rule="evenodd" clip-rule="evenodd" d="M144.554 112.755C143.936 112.62 142.825 112.478 142.501 112.522C142.176 112.564 142.637 112.792 143.256 112.983C143.873 113.173 144.646 113.324 145.033 113.346C145.421 113.367 145.423 113.255 145.361 113.136C145.299 113.017 145.172 112.892 144.554 112.757L144.554 112.755Z" fill="#FF6624"/>
<path fill-rule="evenodd" clip-rule="evenodd" d="M146.708 108.115C146.09 107.981 144.979 107.838 144.656 107.882C144.331 107.925 144.792 108.152 145.41 108.343C146.027 108.533 146.8 108.685 147.188 108.706C147.576 108.727 147.578 108.614 147.516 108.497C147.453 108.378 147.326 108.252 146.709 108.117L146.708 108.115Z" fill="#FF6624"/>
<path fill-rule="evenodd" clip-rule="evenodd" d="M148.616 103.575C147.999 103.44 146.887 103.298 146.564 103.342C146.239 103.384 146.7 103.612 147.318 103.803C147.935 103.992 148.708 104.144 149.096 104.166C149.484 104.187 149.486 104.075 149.424 103.956C149.362 103.837 149.234 103.712 148.617 103.577L148.616 103.575Z" fill="#FF6624"/>
<path fill-rule="evenodd" clip-rule="evenodd" d="M150.376 99.5676C149.758 99.4329 148.647 99.2908 148.324 99.3343C147.999 99.3771 148.46 99.6048 149.078 99.7954C149.695 99.9852 150.468 100.137 150.856 100.158C151.244 100.18 151.246 100.068 151.184 99.949C151.121 99.8299 150.994 99.7046 150.377 99.5698L150.376 99.5676Z" fill="#FF6624"/>
<path fill-rule="evenodd" clip-rule="evenodd" d="M152.449 95.1955C151.832 95.0607 150.72 94.9186 150.397 94.9621C150.072 95.0049 150.533 95.2327 151.151 95.4232C151.768 95.613 152.541 95.7648 152.929 95.7861C153.317 95.8073 153.319 95.6959 153.257 95.5768C153.195 95.4577 153.067 95.3324 152.45 95.1977L152.449 95.1955Z" fill="#FF6624"/>
<path fill-rule="evenodd" clip-rule="evenodd" d="M154.288 91.0414C153.67 90.9067 152.559 90.7645 152.236 90.8081C151.911 90.8509 152.372 91.0786 152.99 91.2691C153.607 91.4589 154.38 91.6107 154.768 91.632C155.156 91.6533 155.158 91.5418 155.096 91.4227C155.033 91.3037 154.906 91.1784 154.289 91.0436L154.288 91.0414Z" fill="#FF6624"/>
<path fill-rule="evenodd" clip-rule="evenodd" d="M156.257 88.0498C155.639 87.9151 154.528 87.7729 154.204 87.8165C153.879 87.8593 154.341 88.087 154.959 88.2776C155.576 88.4673 156.349 88.6191 156.737 88.6404C157.123 88.6609 157.126 88.5503 157.064 88.4312C157.002 88.3121 156.875 88.1868 156.257 88.052L156.257 88.0498Z" fill="#FF6624"/>
<path fill-rule="evenodd" clip-rule="evenodd" d="M95.8019 227.868C95.7351 225.908 94.8939 221.417 96.0552 216.948C97.2187 212.478 100.387 208.031 103.603 203.879C106.82 199.727 110.084 195.871 110.903 194.819C111.722 193.767 110.096 195.519 107.186 198.786C104.276 202.054 100.078 206.838 97.5448 210.405C95.0123 213.971 94.1435 216.318 93.9038 219.162C93.6641 222.006 94.0557 225.346 94.6063 227.301C95.157 229.257 95.8673 229.828 95.8005 227.868L95.8019 227.868Z" fill="#FF6624"/>
<path fill-rule="evenodd" clip-rule="evenodd" d="M88.1162 217.579C88.0696 216.224 87.4884 213.121 88.2914 210.033C89.0952 206.943 91.2847 203.87 93.5084 201C95.7313 198.132 97.9871 195.466 98.553 194.74C99.1196 194.012 97.9972 195.222 95.984 197.481C93.9722 199.74 91.072 203.046 89.3214 205.51C87.5707 207.973 86.9705 209.596 86.8051 211.562C86.6397 213.527 86.9107 215.836 87.2902 217.188C87.6711 218.54 88.1614 218.933 88.1162 217.579Z" fill="#FF6624"/>
<path fill-rule="evenodd" clip-rule="evenodd" d="M104.182 243.228C104.426 241.345 104.453 237.135 106.027 232.644C107.602 228.153 110.728 223.377 113.845 218.883C116.962 214.389 120.07 210.173 120.864 209.032C121.657 207.892 120.135 209.83 117.387 213.425C114.64 217.02 110.668 222.274 108.168 226.101C105.668 229.927 104.642 232.325 104.027 235.107C103.413 237.889 103.212 241.057 103.342 242.862C103.473 244.668 103.935 245.112 104.181 243.229L104.182 243.228Z" fill="#FF6624"/>
<path d="M135.516 69.6952C132.554 69.7348 132.272 68.0643 132.014 66.5359C131.975 66.3098 131.938 66.086 131.89 65.8697C131.818 65.5496 131.723 65.2459 131.635 64.9672C131.579 64.7904 131.527 64.6232 131.484 64.4629C131.239 63.5492 131.292 62.9104 132.696 62.5377C133.822 62.2393 135.893 62.1286 138.232 62.0026C139.814 61.918 141.521 61.8268 143.113 61.6688C144.845 61.4967 146.471 61.2466 148.035 61.0041C150.056 60.6908 151.973 60.3951 153.883 60.3084C155.582 60.2314 157.277 60.3179 158.904 60.5038C160.529 60.6904 162.087 60.9727 163.515 61.2876C164.949 61.6034 166.256 61.9511 167.296 62.3439C168.365 62.7495 169.161 63.2093 169.539 63.7436C169.692 63.9591 169.779 64.1878 169.796 64.4202C169.812 64.649 169.76 64.8787 169.636 65.0968C169.519 65.3036 169.335 65.4998 169.084 65.6774C168.479 66.1052 167.45 66.4349 165.945 66.5428C164.73 66.6297 163.206 66.5747 161.453 66.5098C158.574 66.405 155.068 66.2751 151.348 66.7212C148.391 67.0761 145.286 67.7944 142.519 68.4343C139.666 69.0953 137.165 69.6734 135.515 69.6944L135.516 69.6952ZM132.46 66.4603C132.688 67.8056 132.936 69.2749 135.509 69.2408C137.112 69.2193 139.589 68.6454 142.416 67.992C145.197 67.3483 148.314 66.6276 151.292 66.2699C155.052 65.8197 158.576 65.948 161.469 66.0548C163.211 66.1193 164.725 66.1747 165.911 66.0888C167.327 65.9867 168.277 65.6879 168.821 65.304C169.017 65.1663 169.157 65.0198 169.241 64.8703C169.319 64.7322 169.353 64.5901 169.343 64.4499C169.332 64.3018 169.272 64.1509 169.169 64.0034C168.847 63.5494 168.123 63.1403 167.136 62.7655C166.118 62.3794 164.831 62.0391 163.419 61.7277C162.002 61.4155 160.461 61.1345 158.854 60.9509C157.252 60.7674 155.581 60.6811 153.905 60.7583C152.015 60.8451 150.113 61.1392 148.107 61.4481C146.54 61.6904 144.907 61.9424 143.162 62.1147C141.539 62.2758 139.837 62.3665 138.259 62.4512C135.943 62.5753 133.893 62.6847 132.817 62.9698C131.794 63.2419 131.751 63.6942 131.925 64.34C131.965 64.4915 132.016 64.6544 132.071 64.8268C132.161 65.112 132.26 65.4231 132.335 65.7672C132.384 65.9843 132.423 66.2184 132.463 66.456L132.46 66.4603Z" fill="#FF6624"/>
<path fill-rule="evenodd" clip-rule="evenodd" d="M122.471 143.597C120.951 143.305 117.708 142.29 113.78 142.288C109.853 142.286 105.238 143.298 100.842 144.374C96.4463 145.449 92.2655 146.587 91.1492 146.861C90.033 147.135 91.982 146.548 95.5754 145.509C99.1702 144.471 104.408 142.986 108.104 142.177C111.8 141.369 113.953 141.24 116.278 141.494C118.602 141.748 121.096 142.385 122.445 142.919C123.793 143.454 123.993 143.887 122.472 143.595L122.471 143.597Z" fill="#FF6624"/>
<path fill-rule="evenodd" clip-rule="evenodd" d="M169.268 200.986C167.747 200.694 164.505 199.679 160.577 199.677C156.65 199.675 152.035 200.688 147.639 201.763C143.243 202.838 139.062 203.976 137.946 204.25C136.83 204.525 138.779 203.937 142.372 202.898C145.967 201.861 151.205 200.375 154.901 199.566C158.597 198.758 160.75 198.63 163.074 198.883C165.399 199.137 167.893 199.774 169.241 200.308C170.59 200.843 170.79 201.276 169.269 200.985L169.268 200.986Z" fill="#FF6624"/>
<path d="M123.195 212.009C123.163 211.944 123.125 211.886 123.085 211.838C122.967 211.699 122.809 211.612 122.63 211.588C122.454 211.565 122.256 211.6 122.052 211.702C121.944 211.755 121.834 211.828 121.727 211.918C121.43 212.17 121.133 212.572 120.959 212.956C120.816 213.272 120.758 213.584 120.86 213.788C120.877 213.821 120.896 213.85 120.918 213.877C121.06 214.043 121.32 214.122 121.621 214.123C121.922 214.123 122.261 214.045 122.556 213.899C122.678 213.839 122.789 213.767 122.883 213.687C123.093 213.511 123.22 213.266 123.279 213.017L123.284 212.999C123.364 212.641 123.327 212.272 123.195 212.009ZM123.411 211.321C123.462 211.381 123.506 211.448 123.542 211.521C123.702 211.841 123.742 212.317 123.634 212.793L123.629 212.815C123.513 213.308 123.257 213.794 122.84 214.146C122.709 214.256 122.563 214.351 122.409 214.428C122.081 214.592 121.705 214.679 121.376 214.679C121.044 214.677 120.752 214.587 120.588 214.393C120.556 214.357 120.531 214.318 120.511 214.277C120.352 213.959 120.449 213.455 120.685 212.936C120.937 212.379 121.353 211.808 121.766 211.46C121.911 211.338 122.055 211.242 122.194 211.173C122.441 211.05 122.68 211.006 122.889 211.034C123.095 211.062 123.275 211.162 123.411 211.321Z" fill="#FF6624"/>
<path d="M157.855 228.709C157.822 228.643 157.784 228.585 157.744 228.537C157.626 228.398 157.468 228.311 157.289 228.287C157.113 228.264 156.915 228.299 156.711 228.401C156.604 228.454 156.493 228.527 156.386 228.617C156.089 228.869 155.792 229.271 155.618 229.655C155.475 229.972 155.417 230.283 155.519 230.487C155.536 230.52 155.555 230.549 155.577 230.576C155.719 230.743 155.979 230.821 156.28 230.822C156.582 230.822 156.92 230.744 157.215 230.598C157.337 230.538 157.449 230.466 157.542 230.387C157.752 230.21 157.88 229.965 157.938 229.717L157.943 229.699C158.023 229.34 157.986 228.971 157.855 228.709ZM158.07 228.02C158.121 228.08 158.166 228.147 158.201 228.22C158.361 228.541 158.401 229.017 158.293 229.492L158.288 229.514C158.172 230.008 157.917 230.493 157.499 230.845C157.368 230.955 157.222 231.05 157.069 231.127C156.74 231.291 156.364 231.378 156.035 231.378C155.703 231.376 155.411 231.286 155.247 231.092C155.215 231.056 155.191 231.017 155.17 230.976C155.011 230.658 155.108 230.154 155.344 229.635C155.596 229.078 156.012 228.508 156.426 228.159C156.57 228.037 156.714 227.941 156.854 227.872C157.1 227.749 157.339 227.705 157.548 227.733C157.754 227.762 157.934 227.861 158.07 228.02Z" fill="#FF6624"/>
<path d="M155.079 244.653C155.047 244.588 155.008 244.53 154.968 244.482C154.85 244.343 154.693 244.256 154.514 244.232C154.338 244.209 154.139 244.244 153.935 244.345C153.828 244.399 153.718 244.472 153.611 244.562C153.313 244.814 153.016 245.216 152.842 245.6C152.7 245.916 152.641 246.228 152.744 246.432C152.76 246.465 152.78 246.494 152.802 246.521C152.943 246.687 153.203 246.766 153.504 246.767C153.806 246.767 154.145 246.689 154.44 246.543C154.561 246.482 154.673 246.411 154.767 246.331C154.976 246.155 155.104 245.909 155.163 245.661L155.167 245.643C155.248 245.285 155.21 244.916 155.08 244.652L155.079 244.653ZM155.295 243.965C155.345 244.024 155.39 244.091 155.426 244.165C155.586 244.485 155.626 244.961 155.517 245.437L155.512 245.46C155.396 245.954 155.14 246.439 154.723 246.791C154.592 246.902 154.445 246.996 154.292 247.073C153.963 247.237 153.588 247.324 153.259 247.324C152.927 247.323 152.635 247.232 152.471 247.039C152.439 247.002 152.414 246.963 152.394 246.922C152.234 246.604 152.332 246.1 152.567 245.582C152.82 245.024 153.236 244.454 153.649 244.105C153.794 243.984 153.938 243.887 154.077 243.818C154.324 243.695 154.563 243.651 154.771 243.679C154.978 243.708 155.158 243.807 155.294 243.967L155.295 243.965Z" fill="#FF6624"/>
<path d="M136.648 168.715C136.774 168.793 136.72 168.839 136.532 168.819C136.341 168.799 136.086 168.719 135.96 168.641L135.952 168.636C133.612 167.18 131.274 165.724 129.354 164.762C128.427 164.299 127.601 163.951 126.733 163.659C125.866 163.366 124.937 163.12 123.811 162.859C122.795 162.623 121.62 162.376 120.487 162.148C119.017 161.852 117.63 161.596 116.746 161.442C115.995 161.311 115.624 161.258 115.446 161.246C115.379 161.24 115.377 161.246 115.375 161.253C115.36 161.301 115.161 161.29 114.934 161.228C114.707 161.164 114.536 161.074 114.553 161.024C114.568 160.979 114.584 160.932 114.932 160.959C115.168 160.977 115.608 161.038 116.456 161.184C117.374 161.344 118.796 161.607 120.281 161.905C121.442 162.137 122.65 162.392 123.71 162.639C124.955 162.927 125.993 163.202 126.986 163.538C127.98 163.874 128.913 164.263 129.941 164.777C131.925 165.77 134.284 167.239 136.644 168.709L136.651 168.713L136.648 168.715Z" fill="#FF6624"/>
<path d="M97.3343 252.71C97.0087 252.39 96.5848 252.139 96.1514 252.002C95.7481 251.874 95.3417 251.847 95.0047 251.955C94.8131 252.017 94.6423 252.123 94.5109 252.257C94.4007 252.37 94.3166 252.503 94.275 252.643C94.2359 252.774 94.2327 252.915 94.276 253.051C94.315 253.169 94.3866 253.287 94.5026 253.399C94.8101 253.701 95.3918 253.958 95.9956 254.115C96.6179 254.278 97.2503 254.332 97.6086 254.216C97.7025 254.186 97.7737 254.144 97.8213 254.094C97.8794 254.036 97.9121 253.96 97.9226 253.873C97.9352 253.773 97.9187 253.655 97.8778 253.531C97.7903 253.26 97.5943 252.963 97.3343 252.71ZM96.2876 251.569C96.7869 251.728 97.2768 252.017 97.6527 252.386C97.963 252.69 98.1985 253.052 98.3094 253.392C98.3697 253.578 98.3932 253.761 98.3729 253.929C98.3514 254.113 98.279 254.278 98.1463 254.412C98.046 254.513 97.9145 254.594 97.7486 254.647C97.306 254.789 96.5772 254.736 95.8787 254.553C95.2075 254.378 94.5497 254.08 94.1836 253.72C94.0131 253.553 93.9033 253.372 93.8437 253.188C93.7698 252.959 93.773 252.725 93.8386 252.508C93.9025 252.297 94.0232 252.102 94.1847 251.936C94.3658 251.751 94.5998 251.605 94.8626 251.52C95.2943 251.381 95.7992 251.411 96.287 251.567L96.2876 251.569Z" fill="#FF6624"/>
<path d="M202.199 231.311C201.861 230.98 201.422 230.72 200.971 230.577C200.554 230.445 200.131 230.416 199.783 230.529C199.584 230.593 199.408 230.703 199.27 230.842C199.156 230.959 199.069 231.097 199.025 231.24C198.983 231.378 198.981 231.523 199.026 231.666C199.065 231.787 199.142 231.91 199.26 232.027C199.578 232.34 200.183 232.606 200.807 232.769C201.453 232.937 202.108 232.993 202.48 232.872C202.577 232.841 202.65 232.798 202.701 232.747C202.76 232.685 202.794 232.608 202.804 232.519C202.816 232.415 202.799 232.293 202.757 232.163C202.666 231.88 202.463 231.575 202.195 231.311L202.199 231.311ZM201.115 230.128C201.633 230.291 202.14 230.592 202.529 230.976C202.851 231.292 203.097 231.667 203.21 232.019C203.272 232.212 203.298 232.401 203.276 232.575C203.252 232.766 203.178 232.937 203.041 233.076C202.937 233.181 202.8 233.265 202.629 233.32C202.171 233.467 201.416 233.412 200.692 233.224C199.996 233.043 199.314 232.734 198.935 232.363C198.758 232.19 198.644 232.002 198.582 231.811C198.504 231.572 198.509 231.331 198.578 231.105C198.644 230.887 198.769 230.684 198.937 230.513C199.126 230.321 199.368 230.17 199.64 230.081C200.087 229.938 200.61 229.969 201.116 230.129L201.115 230.128Z" fill="#FF6624"/>
<path d="M63.7925 194.967C63.6429 194.519 63.3717 194.088 63.0364 193.755C62.7248 193.448 62.362 193.229 61.9996 193.169C61.7943 193.135 61.5855 193.151 61.4019 193.213C61.2463 193.264 61.1074 193.348 61.0026 193.455C60.9029 193.559 60.8327 193.686 60.8089 193.834C60.7882 193.959 60.7993 194.104 60.8526 194.262C60.9937 194.685 61.4077 195.197 61.89 195.628C62.3869 196.073 62.9464 196.421 63.3325 196.486C63.4327 196.502 63.5184 196.498 63.5867 196.475C63.6682 196.447 63.7326 196.394 63.7826 196.32C63.8418 196.233 63.8818 196.116 63.9036 195.982C63.9518 195.69 63.9114 195.326 63.7932 194.969L63.7925 194.967ZM63.3668 193.42C63.7524 193.802 64.0668 194.3 64.2397 194.82C64.3821 195.247 64.4281 195.691 64.3691 196.058C64.3361 196.255 64.2719 196.436 64.1735 196.581C64.0659 196.74 63.9207 196.859 63.7356 196.92C63.5954 196.967 63.4354 196.978 63.2575 196.949C62.7827 196.871 62.1372 196.477 61.5793 195.978C61.0437 195.499 60.5761 194.913 60.4084 194.407C60.3304 194.172 60.3142 193.953 60.3472 193.755C60.3886 193.508 60.5011 193.297 60.6649 193.127C60.8235 192.963 61.0291 192.838 61.2568 192.764C61.5115 192.681 61.7975 192.655 62.0784 192.702C62.5417 192.778 62.9933 193.047 63.3698 193.418L63.3668 193.42Z" fill="#FF6624"/>
<path d="M167.766 269.423C167.118 268.926 166.333 268.476 165.571 268.158C164.865 267.864 164.186 267.686 163.671 267.697C163.383 267.703 163.144 267.769 162.976 267.878C162.857 267.956 162.774 268.057 162.736 268.176C162.701 268.288 162.708 268.417 162.762 268.556C162.843 268.759 163.033 268.991 163.358 269.242C163.968 269.71 165.016 270.223 166.062 270.624C167.142 271.038 168.2 271.325 168.748 271.314C168.885 271.312 168.984 271.287 169.047 271.248L169.054 271.244C169.114 271.202 169.143 271.14 169.141 271.065C169.141 270.972 169.099 270.857 169.026 270.727C168.812 270.349 168.347 269.87 167.764 269.423L167.766 269.423ZM165.648 267.688C166.522 268.052 167.425 268.569 168.173 269.143C168.875 269.68 169.447 270.275 169.721 270.762C169.839 270.971 169.905 271.164 169.907 271.328C169.91 271.501 169.843 271.643 169.696 271.741L169.684 271.75C169.557 271.831 169.372 271.877 169.125 271.882C168.45 271.896 167.235 271.575 166.026 271.111C164.864 270.666 163.68 270.079 162.953 269.521C162.46 269.143 162.165 268.774 162.033 268.443C161.942 268.212 161.93 268 161.987 267.819C162.043 267.645 162.164 267.496 162.337 267.382C162.57 267.23 162.899 267.14 163.294 267.131C163.954 267.118 164.793 267.332 165.647 267.689L165.648 267.688Z" fill="#FF6624"/>
</g>
<defs>
<clipPath id="clip0_78_38188">
<rect width="197" height="234" fill="white" transform="translate(112.758) rotate(28.8077)"/>
</clipPath>
</defs>
</svg>
